<?xml version="1.0" encoding="UTF-8" standalone="no"?>
<!DOCTYPE svg PUBLIC "-//W3C//DTD SVG 1.1//EN"
 "http://www.w3.org/Graphics/SVG/1.1/DTD/svg11.dtd">
<!-- Generated by graphviz version 2.38.0 (20140413.2041)
 -->
<!-- Title: Perl Pages: 1 -->
<svg width="206pt" height="107pt"
 viewBox="9.00 9.00 98.00 197.00" xmlns="http://www.w3.org/2000/svg" xmlns:xlink="http://www.w3.org/1999/xlink">
<g id="graph0" class="graph" transform="scale(1 1) rotate(-90) translate(-94 193)">
<title>Perl</title>
<polygon fill="white" stroke="none" points="-4,4 -4,-184 85,-184 85,4 -4,4"/>
<!-- Here -->
<g id="node1" class="node"><title>Here</title>
<ellipse fill="none" stroke="black" cx="54" cy="-162" rx="27" ry="18"/>
</g>
<!-- There -->
<g id="node2" class="node"><title>There</title>
<ellipse fill="none" stroke="black" cx="27" cy="-90" rx="27" ry="18"/>
</g>
<!-- Here&#45;&gt;There -->
<g id="edge1" class="edge"><title>Here&#45;&gt;There</title>
<path fill="none" stroke="grey" d="M47.6014,-144.411C44.4864,-136.335 40.6663,-126.431 37.1654,-117.355"/>
<polygon fill="grey" stroke="grey" points="40.4045,-116.027 33.5403,-107.956 33.8735,-118.546 40.4045,-116.027"/>
</g>
<!-- Everywhere -->
<g id="node3" class="node"><title>Everywhere</title>
<ellipse fill="none" stroke="black" cx="54" cy="-18" rx="27" ry="18"/>
</g>
<!-- There&#45;&gt;Everywhere -->
<g id="edge2" class="edge"><title>There&#45;&gt;Everywhere</title>
<path fill="none" stroke="grey" d="M33.3986,-72.411C36.5136,-64.3352 40.3337,-54.4312 43.8346,-45.3547"/>
<polygon fill="grey" stroke="grey" points="47.1265,-46.5458 47.4597,-35.9562 40.5955,-44.0267 47.1265,-46.5458"/>
</g>
<!-- Everywhere&#45;&gt;Here -->
<g id="edge3" class="edge"><title>Everywhere&#45;&gt;Here</title>
<path fill="none" stroke="grey" d="M57.6538,-36.0925C59.6758,-46.4315 61.9808,-59.9098 63,-72 64.3441,-87.9434 64.3441,-92.0566 63,-108 62.2834,-116.501 60.9311,-125.688 59.4884,-133.988"/>
<polygon fill="grey" stroke="grey" points="56.0309,-133.438 57.6538,-143.908 62.9142,-134.711 56.0309,-133.438"/>
</g>
</g>
</svg>
