<?xml version="1.0" encoding="UTF-8" standalone="no"?>
<!DOCTYPE svg PUBLIC "-//W3C//DTD SVG 1.1//EN"
 "http://www.w3.org/Graphics/SVG/1.1/DTD/svg11.dtd">
<!-- Generated by graphviz version 2.38.0 (20140413.2041)
 -->
<!-- Title: Perl Pages: 1 -->
<svg width="206pt" height="140pt"
 viewBox="9.00 9.00 130.70 197.00" xmlns="http://www.w3.org/2000/svg" xmlns:xlink="http://www.w3.org/1999/xlink">
<g id="graph0" class="graph" transform="scale(1 1) rotate(-90) translate(-126.697 193)">
<title>Perl</title>
<polygon fill="white" stroke="none" points="-4,4 -4,-184 117.697,-184 117.697,4 -4,4"/>
<!-- Here -->
<g id="node1" class="node"><title>Here</title>
<ellipse fill="none" stroke="black" cx="60.1972" cy="-162" rx="28" ry="18"/>
<text text-anchor="middle" x="60.1972" y="-158.3" font-family="Times,serif" font-size="14.00">Here</text>
</g>
<!-- There -->
<g id="node2" class="node"><title>There</title>
<ellipse fill="none" stroke="black" cx="31.1972" cy="-90" rx="31.3957" ry="18"/>
<text text-anchor="middle" x="31.1972" y="-86.3" font-family="Times,serif" font-size="14.00">There</text>
</g>
<!-- Here&#45;&gt;There -->
<g id="edge1" class="edge"><title>Here&#45;&gt;There</title>
<path fill="none" stroke="grey" d="M53.3246,-144.411C49.9789,-136.335 45.8759,-126.431 42.1156,-117.355"/>
<polygon fill="grey" stroke="grey" points="45.2829,-115.855 38.2219,-107.956 38.8159,-118.534 45.2829,-115.855"/>
</g>
<!-- Everywhere -->
<g id="node3" class="node"><title>Everywhere</title>
<ellipse fill="none" stroke="black" cx="60.1972" cy="-18" rx="53.5" ry="18"/>
<text text-anchor="middle" x="60.1972" y="-14.3" font-family="Times,serif" font-size="14.00">Everywhere</text>
</g>
<!-- There&#45;&gt;Everywhere -->
<g id="edge2" class="edge"><title>There&#45;&gt;Everywhere</title>
<path fill="none" stroke="grey" d="M38.0698,-72.411C41.4155,-64.3352 45.5186,-54.4312 49.2789,-45.3547"/>
<polygon fill="grey" stroke="grey" points="52.5786,-46.5344 53.1725,-35.9562 46.1116,-43.8552 52.5786,-46.5344"/>
</g>
<!-- Everywhere&#45;&gt;Here -->
<g id="edge3" class="edge"><title>Everywhere&#45;&gt;Here</title>
<path fill="none" stroke="grey" d="M64.6615,-36.0469C67.1323,-46.3698 69.9494,-59.8472 71.1972,-72 72.8315,-87.9163 72.8315,-92.0837 71.1972,-108 70.3198,-116.545 68.6666,-125.745 66.9035,-134.042"/>
<polygon fill="grey" stroke="grey" points="63.4543,-133.427 64.6615,-143.953 70.2817,-134.972 63.4543,-133.427"/>
</g>
</g>
</svg>
