<?xml version="1.0" encoding="UTF-8" standalone="no"?>
<!DOCTYPE svg PUBLIC "-//W3C//DTD SVG 1.1//EN"
 "http://www.w3.org/Graphics/SVG/1.1/DTD/svg11.dtd">
<!-- Generated by graphviz version 2.34.0 (20131125.0033)
 -->
<!-- Title: Perl Pages: 1 -->
<svg width="206pt" height="139pt"
 viewBox="9.00 9.00 130.00 197.00" xmlns="http://www.w3.org/2000/svg" xmlns:xlink="http://www.w3.org/1999/xlink">
<g id="graph0" class="graph" transform="scale(1 1) rotate(-90) translate(-126 193)">
<title>Perl</title>
<polygon fill="white" stroke="white" points="-4,4 -4,-184 117,-184 117,4 -4,4"/>
<!-- Here -->
<g id="node1" class="node"><title>Here</title>
<ellipse fill="none" stroke="black" cx="60" cy="-162" rx="27.5" ry="18"/>
<text text-anchor="middle" x="60" y="-158.3" font-family="Times,serif" font-size="14.00">Here</text>
</g>
<!-- There -->
<g id="node2" class="node"><title>There</title>
<ellipse fill="none" stroke="black" cx="31" cy="-90" rx="31.2965" ry="18"/>
<text text-anchor="middle" x="31" y="-86.3" font-family="Times,serif" font-size="14.00">There</text>
</g>
<!-- Here&#45;&gt;There -->
<g id="edge1" class="edge"><title>Here&#45;&gt;There</title>
<path fill="none" stroke="grey" d="M53.1274,-144.411C49.7817,-136.335 45.6786,-126.431 41.9184,-117.355"/>
<polygon fill="grey" stroke="grey" points="45.0857,-115.855 38.0247,-107.956 38.6187,-118.534 45.0857,-115.855"/>
</g>
<!-- Everywhere -->
<g id="node3" class="node"><title>Everywhere</title>
<ellipse fill="none" stroke="black" cx="60" cy="-18" rx="53.25" ry="18"/>
<text text-anchor="middle" x="60" y="-14.3" font-family="Times,serif" font-size="14.00">Everywhere</text>
</g>
<!-- There&#45;&gt;Everywhere -->
<g id="edge2" class="edge"><title>There&#45;&gt;Everywhere</title>
<path fill="none" stroke="grey" d="M37.8726,-72.411C41.2183,-64.3352 45.3214,-54.4312 49.0816,-45.3547"/>
<polygon fill="grey" stroke="grey" points="52.3813,-46.5344 52.9753,-35.9562 45.9143,-43.8552 52.3813,-46.5344"/>
</g>
<!-- Everywhere&#45;&gt;Here -->
<g id="edge3" class="edge"><title>Everywhere&#45;&gt;Here</title>
<path fill="none" stroke="grey" d="M64.4642,-36.0469C66.935,-46.3698 69.7522,-59.8472 71,-72 72.6343,-87.9163 72.6343,-92.0837 71,-108 70.1226,-116.545 68.4694,-125.745 66.7062,-134.042"/>
<polygon fill="grey" stroke="grey" points="63.257,-133.427 64.4642,-143.953 70.0845,-134.972 63.257,-133.427"/>
</g>
</g>
</svg>
