<?xml version="1.0" encoding="UTF-8" standalone="no"?>
<!DOCTYPE svg PUBLIC "-//W3C//DTD SVG 1.1//EN"
 "http://www.w3.org/Graphics/SVG/1.1/DTD/svg11.dtd">
<!-- Generated by graphviz version 2.38.0 (20140413.2041)
 -->
<!-- Title: Perl Pages: 1 -->
<svg width="390pt" height="204pt"
 viewBox="0.00 0.00 390.00 203.74" xmlns="http://www.w3.org/2000/svg" xmlns:xlink="http://www.w3.org/1999/xlink">
<g id="graph0" class="graph" transform="scale(1 1) rotate(0) translate(4 199.74)">
<title>Perl</title>
<polygon fill="white" stroke="none" points="-4,4 -4,-199.74 386,-199.74 386,4 -4,4"/>
<g id="clust1" class="cluster"><title>cluster_Europe</title>
<polygon fill="grey" stroke="black" points="8,-8 8,-187.74 102,-187.74 102,-8 8,-8"/>
<text text-anchor="middle" x="55" y="-172.54" font-family="Times,serif" font-size="14.00">Europe</text>
</g>
<g id="clust2" class="cluster"><title>cluster_Australia</title>
<polygon fill="grey" stroke="black" points="176,-16.8701 176,-187.74 318,-187.74 318,-16.8701 176,-16.8701"/>
<text text-anchor="middle" x="247" y="-172.54" font-family="Times,serif" font-size="14.00">Australia</text>
</g>
<!-- London -->
<g id="node1" class="node"><title>London</title>
<ellipse fill="none" stroke="blue" cx="55" cy="-138.74" rx="27" ry="18"/>
</g>
<!-- Paris -->
<g id="node2" class="node"><title>Paris</title>
<ellipse fill="none" stroke="green" cx="55" cy="-42.8701" rx="38.7821" ry="26.7407"/>
<text text-anchor="middle" x="55" y="-46.6701" font-family="Times,serif" font-size="14.00">City of</text>
<text text-anchor="middle" x="55" y="-31.6701" font-family="Times,serif" font-size="14.00">lurve</text>
</g>
<!-- London&#45;&gt;Paris -->
<g id="edge1" class="edge"><title>London&#45;&gt;Paris</title>
<path fill="none" stroke="grey" d="M49.6841,-120.958C48.3982,-109.501 47.9771,-93.8857 48.4207,-79.7049"/>
<polygon fill="grey" stroke="grey" points="51.9168,-79.8678 48.8965,-69.7126 44.9247,-79.5348 51.9168,-79.8678"/>
</g>
<!-- New York -->
<g id="node3" class="node"><title>New York</title>
<ellipse fill="none" stroke="yellow" cx="139" cy="-42.8701" rx="27" ry="18"/>
</g>
<!-- London&#45;&gt;New York -->
<g id="edge3" class="edge"><title>London&#45;&gt;New York</title>
<path fill="none" stroke="grey" d="M68.4961,-122.658C82.1699,-107.378 103.476,-83.5683 119.089,-66.1205"/>
<polygon fill="grey" stroke="grey" points="121.754,-68.391 125.814,-58.605 116.538,-63.723 121.754,-68.391"/>
<text text-anchor="middle" x="109.5" y="-91.5401" font-family="Times,serif" font-size="14.00">Far</text>
</g>
<!-- Paris&#45;&gt;London -->
<g id="edge2" class="edge"><title>Paris&#45;&gt;London</title>
<path fill="none" stroke="grey" d="M61.1035,-69.7126C61.9417,-82.4846 61.9648,-97.8876 61.1729,-110.805"/>
<polygon fill="grey" stroke="grey" points="57.6694,-110.699 60.3159,-120.958 64.6446,-111.288 57.6694,-110.699"/>
</g>
<!-- Victoria -->
<g id="node4" class="node"><title>Victoria</title>
<ellipse fill="none" stroke="blue" cx="247" cy="-138.74" rx="27" ry="18"/>
</g>
<!-- New South Wales -->
<g id="node5" class="node"><title>New South Wales</title>
<ellipse fill="none" stroke="green" cx="211" cy="-42.8701" rx="27" ry="18"/>
</g>
<!-- Victoria&#45;&gt;New South Wales -->
<g id="edge4" class="edge"><title>Victoria&#45;&gt;New South Wales</title>
<path fill="none" stroke="grey" d="M240.564,-120.958C235.137,-106.809 227.279,-86.3187 221.029,-70.0196"/>
<polygon fill="grey" stroke="grey" points="224.229,-68.5905 217.38,-60.5069 217.693,-71.0971 224.229,-68.5905"/>
</g>
<!-- Tasmania -->
<g id="node6" class="node"><title>Tasmania</title>
<ellipse fill="none" stroke="red" cx="283" cy="-42.8701" rx="27" ry="18"/>
</g>
<!-- Victoria&#45;&gt;Tasmania -->
<g id="edge5" class="edge"><title>Victoria&#45;&gt;Tasmania</title>
<path fill="none" stroke="grey" d="M253.436,-120.958C258.863,-106.809 266.721,-86.3187 272.971,-70.0196"/>
<polygon fill="grey" stroke="grey" points="276.307,-71.0971 276.62,-60.5069 269.771,-68.5905 276.307,-71.0971"/>
</g>
<!-- cluster_Australia -->
<g id="node7" class="node"><title>cluster_Australia</title>
<ellipse fill="none" stroke="black" cx="355" cy="-138.74" rx="27" ry="18"/>
</g>
<!-- cluster_Europe -->
<g id="node8" class="node"><title>cluster_Europe</title>
<ellipse fill="none" stroke="black" cx="355" cy="-42.8701" rx="27" ry="18"/>
</g>
<!-- cluster_Australia&#45;&gt;cluster_Europe -->
<g id="edge6" class="edge"><title>cluster_Australia&#45;&gt;cluster_Europe</title>
<path fill="none" stroke="grey" d="M355,-120.523C355,-106.761 355,-87.2097 355,-71.2972"/>
<polygon fill="grey" stroke="grey" points="358.5,-70.9781 355,-60.9781 351.5,-70.9782 358.5,-70.9781"/>
</g>
</g>
</svg>
