<?xml version="1.0" encoding="UTF-8" standalone="no"?>
<!DOCTYPE svg PUBLIC "-//W3C//DTD SVG 1.1//EN"
 "http://www.w3.org/Graphics/SVG/1.1/DTD/svg11.dtd">
<!-- Generated by graphviz version 2.37.20140310.0445 (20140310.0445)
 -->
<!-- Title: Perl Pages: 1 -->
<svg width="650pt" height="205pt"
 viewBox="0.00 0.00 650.00 205.00" xmlns="http://www.w3.org/2000/svg" xmlns:xlink="http://www.w3.org/1999/xlink">
<g id="graph0" class="graph" transform="scale(1 1) rotate(0) translate(4 201)">
<title>Perl</title>
<polygon fill="white" stroke="none" points="-4,4 -4,-201 646,-201 646,4 -4,4"/>
<g id="clust1" class="cluster"><title>cluster_Europe</title>
<polygon fill="grey" stroke="black" points="8,-8 8,-189 102,-189 102,-8 8,-8"/>
<text text-anchor="middle" x="55" y="-173.8" font-family="Times,serif" font-size="14.00">Europe</text>
</g>
<g id="clust2" class="cluster"><title>cluster_Australia</title>
<polygon fill="grey" stroke="black" points="218,-17 218,-189 493,-189 493,-17 218,-17"/>
<text text-anchor="middle" x="355.5" y="-173.8" font-family="Times,serif" font-size="14.00">Australia</text>
</g>
<!-- London -->
<g id="node1" class="node"><title>London</title>
<ellipse fill="none" stroke="blue" cx="55" cy="-140" rx="38.0212" ry="18"/>
<text text-anchor="middle" x="55" y="-136.3" font-family="Times,serif" font-size="14.00">London</text>
</g>
<!-- Paris -->
<g id="node2" class="node"><title>Paris</title>
<ellipse fill="none" stroke="green" cx="55" cy="-43" rx="38.3379" ry="26.7407"/>
<text text-anchor="middle" x="55" y="-46.8" font-family="Times,serif" font-size="14.00">City of</text>
<text text-anchor="middle" x="55" y="-31.8" font-family="Times,serif" font-size="14.00">lurve</text>
</g>
<!-- London&#45;&gt;Paris -->
<g id="edge1" class="edge"><title>London&#45;&gt;Paris</title>
<path fill="none" stroke="grey" d="M49.6841,-122.016C48.3887,-110.335 47.9709,-94.3833 48.4307,-79.9476"/>
<polygon fill="grey" stroke="grey" points="51.9348,-79.9437 48.9206,-69.7867 44.9429,-79.6065 51.9348,-79.9437"/>
</g>
<!-- New York -->
<g id="node3" class="node"><title>New York</title>
<ellipse fill="none" stroke="yellow" cx="160" cy="-43" rx="48.1437" ry="18"/>
<text text-anchor="middle" x="160" y="-39.3" font-family="Times,serif" font-size="14.00">New York</text>
</g>
<!-- London&#45;&gt;New York -->
<g id="edge3" class="edge"><title>London&#45;&gt;New York</title>
<path fill="none" stroke="grey" d="M71.8701,-123.737C88.8877,-108.34 115.362,-84.3867 134.855,-66.7502"/>
<polygon fill="grey" stroke="grey" points="137.404,-69.1636 142.472,-59.8591 132.708,-63.9729 137.404,-69.1636"/>
<text text-anchor="middle" x="120.5" y="-92.3" font-family="Times,serif" font-size="14.00">Far</text>
</g>
<!-- Paris&#45;&gt;London -->
<g id="edge2" class="edge"><title>Paris&#45;&gt;London</title>
<path fill="none" stroke="grey" d="M61.0794,-69.7867C61.9394,-82.7568 61.9722,-98.4791 61.1778,-111.659"/>
<polygon fill="grey" stroke="grey" points="57.6573,-111.76 60.3159,-122.016 64.6332,-112.341 57.6573,-111.76"/>
</g>
<!-- Victoria -->
<g id="node4" class="node"><title>Victoria</title>
<ellipse fill="none" stroke="blue" cx="371" cy="-140" rx="39.4691" ry="18"/>
<text text-anchor="middle" x="371" y="-136.3" font-family="Times,serif" font-size="14.00">Victoria</text>
</g>
<!-- New South Wales -->
<g id="node5" class="node"><title>New South Wales</title>
<ellipse fill="none" stroke="green" cx="301" cy="-43" rx="75.0904" ry="18"/>
<text text-anchor="middle" x="301" y="-39.3" font-family="Times,serif" font-size="14.00">New South Wales</text>
</g>
<!-- Victoria&#45;&gt;New South Wales -->
<g id="edge4" class="edge"><title>Victoria&#45;&gt;New South Wales</title>
<path fill="none" stroke="grey" d="M358.807,-122.452C347.999,-107.785 332.053,-86.1437 319.645,-69.3039"/>
<polygon fill="grey" stroke="grey" points="322.274,-66.9722 313.525,-60.9978 316.639,-71.1246 322.274,-66.9722"/>
</g>
<!-- Tasmania -->
<g id="node6" class="node"><title>Tasmania</title>
<ellipse fill="none" stroke="red" cx="440" cy="-43" rx="45.244" ry="18"/>
<text text-anchor="middle" x="440" y="-39.3" font-family="Times,serif" font-size="14.00">Tasmania</text>
</g>
<!-- Victoria&#45;&gt;Tasmania -->
<g id="edge5" class="edge"><title>Victoria&#45;&gt;Tasmania</title>
<path fill="none" stroke="grey" d="M383.019,-122.452C393.738,-107.694 409.585,-85.8762 421.847,-68.9926"/>
<polygon fill="grey" stroke="grey" points="424.843,-70.8248 427.887,-60.6769 419.179,-66.7111 424.843,-70.8248"/>
</g>
<!-- cluster_Australia -->
<g id="node7" class="node"><title>cluster_Australia</title>
<ellipse fill="none" stroke="black" cx="572" cy="-140" rx="70.2668" ry="18"/>
<text text-anchor="middle" x="572" y="-136.3" font-family="Times,serif" font-size="14.00">cluster_Australia</text>
</g>
<!-- cluster_Europe -->
<g id="node8" class="node"><title>cluster_Europe</title>
<ellipse fill="none" stroke="black" cx="572" cy="-43" rx="63.5411" ry="18"/>
<text text-anchor="middle" x="572" y="-39.3" font-family="Times,serif" font-size="14.00">cluster_Europe</text>
</g>
<!-- cluster_Australia&#45;&gt;cluster_Europe -->
<g id="edge6" class="edge"><title>cluster_Australia&#45;&gt;cluster_Europe</title>
<path fill="none" stroke="grey" d="M572,-121.576C572,-107.648 572,-87.8614 572,-71.7573"/>
<polygon fill="grey" stroke="grey" points="575.5,-71.314 572,-61.314 568.5,-71.314 575.5,-71.314"/>
</g>
</g>
</svg>
