<?xml version="1.0" encoding="UTF-8" standalone="no"?>
<!DOCTYPE svg PUBLIC "-//W3C//DTD SVG 1.1//EN"
 "http://www.w3.org/Graphics/SVG/1.1/DTD/svg11.dtd">
<!-- Generated by graphviz version 2.26.3 (20100126.1600)
 -->
<!-- Title: Perl Pages: 1 -->
<svg width="694pt" height="227pt"
 viewBox="0.00 0.00 694.00 227.00" xmlns="http://www.w3.org/2000/svg" xmlns:xlink="http://www.w3.org/1999/xlink">
<g id="graph1" class="graph" transform="scale(1 1) rotate(0) translate(4 223)">
<title>Perl</title>
<polygon fill="white" stroke="white" points="-4,5 -4,-223 691,-223 691,5 -4,5"/>
<g id="graph2" class="cluster"><title>cluster_Europe</title>
<polygon fill="grey" stroke="black" points="8,-8 8,-211 106,-211 106,-8 8,-8"/>
<text text-anchor="middle" x="57" y="-194.4" font-family="Times Roman,serif" font-size="14.00">Europe</text>
</g>
<g id="graph3" class="cluster"><title>cluster_Australia</title>
<polygon fill="grey" stroke="black" points="228,-22 228,-211 524,-211 524,-22 228,-22"/>
<text text-anchor="middle" x="376" y="-194.4" font-family="Times Roman,serif" font-size="14.00">Australia</text>
</g>
<!-- London -->
<g id="node2" class="node"><title>London</title>
<ellipse fill="none" stroke="blue" cx="57" cy="-157" rx="41.2167" ry="19.0919"/>
<text text-anchor="middle" x="57" y="-153.9" font-family="Times Roman,serif" font-size="14.00">London</text>
</g>
<!-- Paris -->
<g id="node3" class="node"><title>Paris</title>
<ellipse fill="none" stroke="green" cx="57" cy="-49" rx="38.8909" ry="32.5269"/>
<text text-anchor="middle" x="57" y="-55.4" font-family="Times Roman,serif" font-size="14.00">City of</text>
<text text-anchor="middle" x="57" y="-36.4" font-family="Times Roman,serif" font-size="14.00">lurve</text>
</g>
<!-- London&#45;&gt;Paris -->
<g id="edge3" class="edge"><title>London&#45;&gt;Paris</title>
<path fill="none" stroke="grey" d="M51.7085,-137.94C50.4419,-125.124 50.0003,-107.707 50.3836,-91.6813"/>
<polygon fill="grey" stroke="grey" points="53.8911,-91.5336 50.7542,-81.4139 46.8956,-91.2811 53.8911,-91.5336"/>
</g>
<!-- New York -->
<g id="node6" class="node"><title>New York</title>
<ellipse fill="none" stroke="yellow" cx="166" cy="-49" rx="51.8276" ry="19.0919"/>
<text text-anchor="middle" x="166" y="-45.9" font-family="Times Roman,serif" font-size="14.00">New York</text>
</g>
<!-- London&#45;&gt;New York -->
<g id="edge7" class="edge"><title>London&#45;&gt;New York</title>
<path fill="none" stroke="grey" d="M74.5127,-139.648C92.3357,-121.989 120.151,-94.4284 140.435,-74.3304"/>
<polygon fill="grey" stroke="grey" points="143.164,-76.554 147.804,-67.0293 138.237,-71.5814 143.164,-76.554"/>
<text text-anchor="middle" x="121.5" y="-106.9" font-family="Times Roman,serif" font-size="14.00">Far</text>
</g>
<!-- Paris&#45;&gt;London -->
<g id="edge5" class="edge"><title>Paris&#45;&gt;London</title>
<path fill="none" stroke="grey" d="M63.2458,-81.4139C63.9692,-96.1092 63.9142,-113.358 63.0806,-127.664"/>
<polygon fill="grey" stroke="grey" points="59.5675,-127.702 62.2915,-137.94 66.547,-128.238 59.5675,-127.702"/>
</g>
<!-- Victoria -->
<g id="node9" class="node"><title>Victoria</title>
<ellipse fill="none" stroke="blue" cx="392" cy="-157" rx="43.1335" ry="19.0919"/>
<text text-anchor="middle" x="392" y="-153.9" font-family="Times Roman,serif" font-size="14.00">Victoria</text>
</g>
<!-- New South Wales -->
<g id="node10" class="node"><title>New South Wales</title>
<ellipse fill="none" stroke="green" cx="318" cy="-49" rx="82.0244" ry="19.0919"/>
<text text-anchor="middle" x="318" y="-45.9" font-family="Times Roman,serif" font-size="14.00">New South Wales</text>
</g>
<!-- Victoria&#45;&gt;New South Wales -->
<g id="edge10" class="edge"><title>Victoria&#45;&gt;New South Wales</title>
<path fill="none" stroke="grey" d="M379.447,-138.679C367.718,-121.561 350.057,-95.7855 336.674,-76.2544"/>
<polygon fill="grey" stroke="grey" points="339.403,-74.0446 330.863,-67.7736 333.628,-78.0013 339.403,-74.0446"/>
</g>
<!-- Tasmania -->
<g id="node11" class="node"><title>Tasmania</title>
<ellipse fill="none" stroke="red" cx="467" cy="-49" rx="48.9975" ry="19.0919"/>
<text text-anchor="middle" x="467" y="-45.9" font-family="Times Roman,serif" font-size="14.00">Tasmania</text>
</g>
<!-- Victoria&#45;&gt;Tasmania -->
<g id="edge12" class="edge"><title>Victoria&#45;&gt;Tasmania</title>
<path fill="none" stroke="grey" d="M404.723,-138.679C416.736,-121.379 434.891,-95.2366 448.504,-75.6337"/>
<polygon fill="grey" stroke="grey" points="451.386,-77.6207 454.215,-67.4106 445.636,-73.6279 451.386,-77.6207"/>
</g>
<!-- cluster_Australia -->
<g id="node14" class="node"><title>cluster_Australia</title>
<ellipse fill="none" stroke="black" cx="609" cy="-157" rx="77.0746" ry="19.0919"/>
<text text-anchor="middle" x="609" y="-153.9" font-family="Times Roman,serif" font-size="14.00">cluster_Australia</text>
</g>
<!-- cluster_Europe -->
<g id="node15" class="node"><title>cluster_Europe</title>
<ellipse fill="none" stroke="black" cx="609" cy="-49" rx="68.7979" ry="19.0919"/>
<text text-anchor="middle" x="609" y="-45.9" font-family="Times Roman,serif" font-size="14.00">cluster_Europe</text>
</g>
<!-- cluster_Australia&#45;&gt;cluster_Europe -->
<g id="edge14" class="edge"><title>cluster_Australia&#45;&gt;cluster_Europe</title>
<path fill="none" stroke="grey" d="M609,-137.94C609,-121.463 609,-97.3779 609,-78.4262"/>
<polygon fill="grey" stroke="grey" points="612.5,-78.2323 609,-68.2324 605.5,-78.2324 612.5,-78.2323"/>
</g>
</g>
</svg>
