<?xml version="1.0" encoding="UTF-8" standalone="no"?>
<!DOCTYPE svg PUBLIC "-//W3C//DTD SVG 1.1//EN"
 "http://www.w3.org/Graphics/SVG/1.1/DTD/svg11.dtd">
<!-- Generated by graphviz version 2.38.0 (20140413.2041)
 -->
<!-- Title: Perl Pages: 1 -->
<svg width="873pt" height="189pt"
 viewBox="0.00 0.00 872.84 188.74" xmlns="http://www.w3.org/2000/svg" xmlns:xlink="http://www.w3.org/1999/xlink">
<g id="graph0" class="graph" transform="scale(1 1) rotate(0) translate(4 184.74)">
<title>Perl</title>
<polygon fill="white" stroke="none" points="-4,4 -4,-184.74 868.844,-184.74 868.844,4 -4,4"/>
<g id="clust1" class="cluster"><title>cluster_Europe</title>
<polygon fill="grey" stroke="black" points="8,-8 8,-172.74 102,-172.74 102,-8 8,-8"/>
<text text-anchor="middle" x="55" y="-157.54" font-family="Times,serif" font-size="14.00">Europe</text>
</g>
<g id="clust2" class="cluster"><title>cluster_Australia</title>
<polygon fill="grey" stroke="black" points="110,-16.8701 110,-172.74 527,-172.74 527,-16.8701 110,-16.8701"/>
<text text-anchor="middle" x="318.5" y="-157.54" font-family="Times,serif" font-size="14.00">Australia</text>
</g>
<!-- London -->
<g id="node1" class="node"><title>London</title>
<ellipse fill="none" stroke="blue" cx="55" cy="-123.74" rx="38.1938" ry="18"/>
<text text-anchor="middle" x="55" y="-120.04" font-family="Times,serif" font-size="14.00">London</text>
</g>
<!-- Paris -->
<g id="node2" class="node"><title>Paris</title>
<ellipse fill="none" stroke="green" cx="55" cy="-42.8701" rx="38.7821" ry="26.7407"/>
<text text-anchor="middle" x="55" y="-46.6701" font-family="Times,serif" font-size="14.00">City of</text>
<text text-anchor="middle" x="55" y="-31.6701" font-family="Times,serif" font-size="14.00">lurve</text>
</g>
<!-- London&#45;&gt;Paris -->
<g id="edge1" class="edge"><title>London&#45;&gt;Paris</title>
<path fill="none" stroke="grey" d="M49.3216,-105.626C48.4961,-97.9897 48.1475,-88.6877 48.2759,-79.6446"/>
<polygon fill="grey" stroke="grey" points="51.7738,-79.7629 48.6235,-69.6473 44.778,-79.5196 51.7738,-79.7629"/>
</g>
<!-- New -->
<g id="node4" class="node"><title>New</title>
<ellipse fill="none" stroke="black" cx="264" cy="-42.8701" rx="27.0966" ry="18"/>
<text text-anchor="middle" x="264" y="-39.1701" font-family="Times,serif" font-size="14.00">New</text>
</g>
<!-- London&#45;&gt;New -->
<g id="edge3" class="edge"><title>London&#45;&gt;New</title>
<path fill="none" stroke="grey" d="M84.0606,-111.774C122.814,-97.1492 191.207,-71.3399 231.588,-56.1014"/>
<polygon fill="grey" stroke="grey" points="232.853,-59.3651 240.973,-52.5598 230.381,-52.8159 232.853,-59.3651"/>
</g>
<!-- Paris&#45;&gt;London -->
<g id="edge2" class="edge"><title>Paris&#45;&gt;London</title>
<path fill="none" stroke="grey" d="M61.3765,-69.6473C61.8481,-77.9463 61.8731,-87.166 61.4514,-95.5625"/>
<polygon fill="grey" stroke="grey" points="57.9546,-95.3878 60.6784,-105.626 64.9341,-95.9239 57.9546,-95.3878"/>
</g>
<!-- New York -->
<g id="node3" class="node"><title>New York</title>
<ellipse fill="none" stroke="yellow" cx="585" cy="-123.74" rx="48.1917" ry="18"/>
<text text-anchor="middle" x="585" y="-120.04" font-family="Times,serif" font-size="14.00">New York</text>
</g>
<!-- York -->
<g id="node5" class="node"><title>York</title>
<ellipse fill="none" stroke="black" cx="678" cy="-123.74" rx="27" ry="18"/>
<text text-anchor="middle" x="678" y="-120.04" font-family="Times,serif" font-size="14.00">Far</text>
</g>
<!-- Victoria -->
<g id="node6" class="node"><title>Victoria</title>
<ellipse fill="none" stroke="blue" cx="479" cy="-123.74" rx="39.7935" ry="18"/>
<text text-anchor="middle" x="479" y="-120.04" font-family="Times,serif" font-size="14.00">Victoria</text>
</g>
<!-- Victoria&#45;&gt;New -->
<g id="edge4" class="edge"><title>Victoria&#45;&gt;New</title>
<path fill="none" stroke="grey" d="M449.105,-111.774C409.132,-97.1101 338.506,-71.2018 297.01,-55.9794"/>
<polygon fill="grey" stroke="grey" points="297.967,-52.6023 287.373,-52.4442 295.556,-59.1741 297.967,-52.6023"/>
</g>
<!-- Tasmania -->
<g id="node8" class="node"><title>Tasmania</title>
<ellipse fill="none" stroke="red" cx="474" cy="-42.8701" rx="45.4919" ry="18"/>
<text text-anchor="middle" x="474" y="-39.1701" font-family="Times,serif" font-size="14.00">Tasmania</text>
</g>
<!-- Victoria&#45;&gt;Tasmania -->
<g id="edge5" class="edge"><title>Victoria&#45;&gt;Tasmania</title>
<path fill="none" stroke="grey" d="M477.915,-105.626C477.273,-95.4979 476.445,-82.4401 475.716,-70.9422"/>
<polygon fill="grey" stroke="grey" points="479.209,-70.7088 475.083,-60.9503 472.223,-71.1517 479.209,-70.7088"/>
</g>
<!-- New South Wales -->
<g id="node7" class="node"><title>New South Wales</title>
<ellipse fill="none" stroke="green" cx="346" cy="-123.74" rx="75.2868" ry="18"/>
<text text-anchor="middle" x="346" y="-120.04" font-family="Times,serif" font-size="14.00">New South Wales</text>
</g>
<!-- South -->
<g id="node9" class="node"><title>South</title>
<ellipse fill="none" stroke="black" cx="221" cy="-123.74" rx="31.3957" ry="18"/>
<text text-anchor="middle" x="221" y="-120.04" font-family="Times,serif" font-size="14.00">South</text>
</g>
<!-- Wales -->
<g id="node10" class="node"><title>Wales</title>
<ellipse fill="none" stroke="black" cx="145" cy="-123.74" rx="27" ry="18"/>
</g>
<!-- cluster_Australia -->
<g id="node11" class="node"><title>cluster_Australia</title>
<ellipse fill="none" stroke="black" cx="794" cy="-123.74" rx="70.6878" ry="18"/>
<text text-anchor="middle" x="794" y="-120.04" font-family="Times,serif" font-size="14.00">cluster_Australia</text>
</g>
<!-- cluster_Europe -->
<g id="node12" class="node"><title>cluster_Europe</title>
<ellipse fill="none" stroke="black" cx="794" cy="-42.8701" rx="63.8893" ry="18"/>
<text text-anchor="middle" x="794" y="-39.1701" font-family="Times,serif" font-size="14.00">cluster_Europe</text>
</g>
<!-- cluster_Australia&#45;&gt;cluster_Europe -->
<g id="edge6" class="edge"><title>cluster_Australia&#45;&gt;cluster_Europe</title>
<path fill="none" stroke="grey" d="M794,-105.626C794,-95.6013 794,-82.7063 794,-71.2947"/>
<polygon fill="grey" stroke="grey" points="797.5,-70.9503 794,-60.9503 790.5,-70.9503 797.5,-70.9503"/>
</g>
</g>
</svg>
