<?xml version="1.0" encoding="UTF-8" standalone="no"?>
<!DOCTYPE svg PUBLIC "-//W3C//DTD SVG 1.1//EN"
 "http://www.w3.org/Graphics/SVG/1.1/DTD/svg11.dtd">
<!-- Generated by graphviz version 2.29.20121107.0545 (20121107.0545)
 -->
<!-- Title: Perl Pages: 1 -->
<svg width="974pt" height="606pt"
 viewBox="0.00 0.00 974.00 606.00" xmlns="http://www.w3.org/2000/svg" xmlns:xlink="http://www.w3.org/1999/xlink">
<g id="graph0" class="graph" transform="scale(1 1) rotate(0) translate(4 602)">
<title>Perl</title>
<polygon fill="white" stroke="white" points="-4,5 -4,-602 971,-602 971,5 -4,5"/>
<!-- asset_types -->
<g id="node1" class="node"><title>asset_types</title>
<polygon fill="none" stroke="blue" points="108,-318 108,-424 206,-424 206,-318 108,-318"/>
<text text-anchor="middle" x="157" y="-408.8" font-family="Times,serif" font-size="14.00">asset_types</text>
<polyline fill="none" stroke="blue" points="108,-401 206,-401 "/>
<text text-anchor="start" x="116" y="-385.8" font-family="Times,serif" font-size="14.00">1: file_name</text>
<text text-anchor="start" x="116" y="-370.8" font-family="Times,serif" font-size="14.00">2: file_path</text>
<text text-anchor="start" x="116" y="-355.8" font-family="Times,serif" font-size="14.00">3: id</text>
<text text-anchor="start" x="116" y="-340.8" font-family="Times,serif" font-size="14.00">4: name</text>
<text text-anchor="start" x="116" y="-325.8" font-family="Times,serif" font-size="14.00">5: upper_name</text>
</g>
<!-- assets -->
<g id="node2" class="node"><title>assets</title>
<polygon fill="none" stroke="blue" points="143,-484 143,-590 247,-590 247,-484 143,-484"/>
<text text-anchor="middle" x="195" y="-574.8" font-family="Times,serif" font-size="14.00">assets</text>
<polyline fill="none" stroke="blue" points="143,-567 247,-567 "/>
<text text-anchor="start" x="151" y="-551.8" font-family="Times,serif" font-size="14.00">1: asset_type_id</text>
<text text-anchor="start" x="151" y="-536.8" font-family="Times,serif" font-size="14.00">2: design_id</text>
<text text-anchor="start" x="151" y="-521.8" font-family="Times,serif" font-size="14.00">3: id</text>
<text text-anchor="start" x="151" y="-506.8" font-family="Times,serif" font-size="14.00">4: page_id</text>
<text text-anchor="start" x="151" y="-491.8" font-family="Times,serif" font-size="14.00">5: site_id</text>
</g>
<!-- sites -->
<g id="node13" class="node"><title>sites</title>
<polygon fill="none" stroke="blue" points="224,-1 224,-77 322,-77 322,-1 224,-1"/>
<text text-anchor="middle" x="273" y="-61.8" font-family="Times,serif" font-size="14.00">sites</text>
<polyline fill="none" stroke="blue" points="224,-54 322,-54 "/>
<text text-anchor="start" x="232" y="-38.8" font-family="Times,serif" font-size="14.00">1: id</text>
<text text-anchor="start" x="232" y="-23.8" font-family="Times,serif" font-size="14.00">2: name</text>
<text text-anchor="start" x="232" y="-8.8" font-family="Times,serif" font-size="14.00">3: upper_name</text>
</g>
<!-- assets&#45;&gt;sites -->
<g id="edge1" class="edge"><title>assets:port2&#45;&gt;sites:port2</title>
<path fill="none" stroke="grey" d="M195,-483C195,-462.106 209.462,-460.395 214,-440 215.129,-434.925 216.891,-99.856 221.482,-37.0752"/>
<polygon fill="grey" stroke="grey" points="224.971,-37.4099 223,-27 218.049,-36.3669 224.971,-37.4099"/>
</g>
<!-- designs -->
<g id="node4" class="node"><title>designs</title>
<polygon fill="none" stroke="blue" points="62,-114.5 62,-265.5 206,-265.5 206,-114.5 62,-114.5"/>
<text text-anchor="middle" x="134" y="-250.3" font-family="Times,serif" font-size="14.00">designs</text>
<polyline fill="none" stroke="blue" points="62,-242.5 206,-242.5 "/>
<text text-anchor="start" x="70" y="-227.3" font-family="Times,serif" font-size="14.00">1: id</text>
<text text-anchor="start" x="70" y="-212.3" font-family="Times,serif" font-size="14.00">2: menu_orientation_id</text>
<text text-anchor="start" x="70" y="-197.3" font-family="Times,serif" font-size="14.00">3: name</text>
<text text-anchor="start" x="70" y="-182.3" font-family="Times,serif" font-size="14.00">4: os_type_id</text>
<text text-anchor="start" x="70" y="-167.3" font-family="Times,serif" font-size="14.00">5: output_directory</text>
<text text-anchor="start" x="70" y="-152.3" font-family="Times,serif" font-size="14.00">6: output_doc_root</text>
<text text-anchor="start" x="70" y="-137.3" font-family="Times,serif" font-size="14.00">7: site_id</text>
<text text-anchor="start" x="70" y="-122.3" font-family="Times,serif" font-size="14.00">8: upper_name</text>
</g>
<!-- assets&#45;&gt;designs -->
<g id="edge2" class="edge"><title>assets:port2&#45;&gt;designs:port2</title>
<path fill="none" stroke="grey" d="M195,-483C195,-436.249 128.382,-476.364 99,-440 27.2898,-351.25 -51.7224,-188.25 50.8563,-178.462"/>
<polygon fill="grey" stroke="grey" points="51.1696,-181.951 61,-178 50.8511,-174.959 51.1696,-181.951"/>
</g>
<!-- pages -->
<g id="node11" class="node"><title>pages</title>
<polygon fill="none" stroke="blue" points="262,-303 262,-439 360,-439 360,-303 262,-303"/>
<text text-anchor="middle" x="311" y="-423.8" font-family="Times,serif" font-size="14.00">pages</text>
<polyline fill="none" stroke="blue" points="262,-416 360,-416 "/>
<text text-anchor="start" x="270" y="-400.8" font-family="Times,serif" font-size="14.00">1: context</text>
<text text-anchor="start" x="270" y="-385.8" font-family="Times,serif" font-size="14.00">2: design_id</text>
<text text-anchor="start" x="270" y="-370.8" font-family="Times,serif" font-size="14.00">3: homepage</text>
<text text-anchor="start" x="270" y="-355.8" font-family="Times,serif" font-size="14.00">4: id</text>
<text text-anchor="start" x="270" y="-340.8" font-family="Times,serif" font-size="14.00">5: name</text>
<text text-anchor="start" x="270" y="-325.8" font-family="Times,serif" font-size="14.00">6: site_id</text>
<text text-anchor="start" x="270" y="-310.8" font-family="Times,serif" font-size="14.00">7: upper_name</text>
</g>
<!-- assets&#45;&gt;pages -->
<g id="edge3" class="edge"><title>assets:port2&#45;&gt;pages:port2</title>
<path fill="none" stroke="grey" d="M195,-483C195,-452.667 232.819,-466.261 248,-440 255.306,-427.361 247.557,-383.023 253.541,-365.859"/>
<polygon fill="grey" stroke="grey" points="256.008,-368.345 261,-359 251.27,-363.192 256.008,-368.345"/>
</g>
<!-- assets&#45;&gt;asset_types -->
<g id="edge4" class="edge"><title>assets:port2&#45;&gt;asset_types:port2</title>
<path fill="none" stroke="grey" d="M195,-483C195,-459.425 223.777,-386.082 215.225,-364.827"/>
<polygon fill="grey" stroke="grey" points="217.183,-361.925 207,-359 213.137,-367.637 217.183,-361.925"/>
</g>
<!-- contents -->
<g id="node3" class="node"><title>contents</title>
<polygon fill="none" stroke="blue" points="345.5,-476.5 345.5,-597.5 430.5,-597.5 430.5,-476.5 345.5,-476.5"/>
<text text-anchor="middle" x="388" y="-582.3" font-family="Times,serif" font-size="14.00">contents</text>
<polyline fill="none" stroke="blue" points="345.5,-574.5 430.5,-574.5 "/>
<text text-anchor="start" x="353.5" y="-559.3" font-family="Times,serif" font-size="14.00">1: body_text</text>
<text text-anchor="start" x="353.5" y="-544.3" font-family="Times,serif" font-size="14.00">2: design_id</text>
<text text-anchor="start" x="353.5" y="-529.3" font-family="Times,serif" font-size="14.00">3: head_text</text>
<text text-anchor="start" x="353.5" y="-514.3" font-family="Times,serif" font-size="14.00">4: id</text>
<text text-anchor="start" x="353.5" y="-499.3" font-family="Times,serif" font-size="14.00">5: page_id</text>
<text text-anchor="start" x="353.5" y="-484.3" font-family="Times,serif" font-size="14.00">6: site_id</text>
</g>
<!-- contents&#45;&gt;designs -->
<g id="edge5" class="edge"><title>contents:port2&#45;&gt;designs:port2</title>
<path fill="none" stroke="grey" d="M388,-476C388,-324.52 363.117,-184.432 217.248,-178.215"/>
<polygon fill="grey" stroke="grey" points="217.071,-174.711 207,-178 216.924,-181.709 217.071,-174.711"/>
</g>
<!-- contents&#45;&gt;sites -->
<g id="edge6" class="edge"><title>contents:port2&#45;&gt;sites:port2</title>
<path fill="none" stroke="grey" d="M388,-476C388,-459.902 391.11,-456.074 392,-440 400.073,-294.248 390.33,-254.853 352,-114 342.343,-78.5126 359.688,-36.2314 333.222,-28.3117"/>
<polygon fill="grey" stroke="grey" points="333.364,-24.8014 323,-27 332.473,-31.7444 333.364,-24.8014"/>
</g>
<!-- contents&#45;&gt;pages -->
<g id="edge7" class="edge"><title>contents:port2&#45;&gt;pages:port2</title>
<path fill="none" stroke="grey" d="M388,-476C388,-458.833 378.497,-456.568 374,-440 370.158,-425.842 375.886,-382.02 368.771,-365.443"/>
<polygon fill="grey" stroke="grey" points="370.932,-362.688 361,-359 366.465,-368.077 370.932,-362.688"/>
</g>
<!-- os_types -->
<g id="node10" class="node"><title>os_types</title>
<polygon fill="none" stroke="blue" points="0,-8.5 0,-69.5 64,-69.5 64,-8.5 0,-8.5"/>
<text text-anchor="middle" x="32" y="-54.3" font-family="Times,serif" font-size="14.00">os_types</text>
<polyline fill="none" stroke="blue" points="0,-46.5 64,-46.5 "/>
<text text-anchor="start" x="8" y="-31.3" font-family="Times,serif" font-size="14.00">1: id</text>
<text text-anchor="start" x="8" y="-16.3" font-family="Times,serif" font-size="14.00">2: name</text>
</g>
<!-- designs&#45;&gt;os_types -->
<g id="edge8" class="edge"><title>designs:port2&#45;&gt;os_types:port2</title>
<path fill="none" stroke="grey" d="M134,-114C134,-82.5197 90.6872,-104.042 73,-78 68.4177,-71.2532 72.1057,-48.3225 70.4985,-35.6294"/>
<polygon fill="grey" stroke="grey" points="73.3254,-33.5527 65,-27 67.422,-37.3143 73.3254,-33.5527"/>
</g>
<!-- menu_orientations -->
<g id="node8" class="node"><title>menu_orientations</title>
<polygon fill="none" stroke="blue" points="82,-8.5 82,-69.5 200,-69.5 200,-8.5 82,-8.5"/>
<text text-anchor="middle" x="141" y="-54.3" font-family="Times,serif" font-size="14.00">menu_orientations</text>
<polyline fill="none" stroke="blue" points="82,-46.5 200,-46.5 "/>
<text text-anchor="start" x="90" y="-31.3" font-family="Times,serif" font-size="14.00">1: id</text>
<text text-anchor="start" x="90" y="-16.3" font-family="Times,serif" font-size="14.00">2: name</text>
</g>
<!-- designs&#45;&gt;menu_orientations -->
<g id="edge9" class="edge"><title>designs:port2&#45;&gt;menu_orientations:port2</title>
<path fill="none" stroke="grey" d="M134,-114C134,-83.7255 95.0563,-97.3144 82,-70 79.2305,-64.206 75.4164,-46.7868 76.1105,-35.9793"/>
<polygon fill="grey" stroke="grey" points="79.2915,-37.4562 81,-27 73.1438,-34.1086 79.2915,-37.4562"/>
</g>
<!-- designs&#45;&gt;sites -->
<g id="edge10" class="edge"><title>designs:port2&#45;&gt;sites:port2</title>
<path fill="none" stroke="grey" d="M207,-178C236.921,-178 199.828,-59.2732 214.566,-32.3742"/>
<polygon fill="grey" stroke="grey" points="216.447,-35.3255 223,-27 212.686,-29.4221 216.447,-35.3255"/>
</g>
<!-- event_types -->
<g id="node5" class="node"><title>event_types</title>
<polygon fill="none" stroke="blue" points="449,-499 449,-575 547,-575 547,-499 449,-499"/>
<text text-anchor="middle" x="498" y="-559.8" font-family="Times,serif" font-size="14.00">event_types</text>
<polyline fill="none" stroke="blue" points="449,-552 547,-552 "/>
<text text-anchor="start" x="457" y="-536.8" font-family="Times,serif" font-size="14.00">1: id</text>
<text text-anchor="start" x="457" y="-521.8" font-family="Times,serif" font-size="14.00">2: name</text>
<text text-anchor="start" x="457" y="-506.8" font-family="Times,serif" font-size="14.00">3: upper_name</text>
</g>
<!-- events -->
<g id="node6" class="node"><title>events</title>
<polygon fill="none" stroke="blue" points="564.5,-499 564.5,-575 653.5,-575 653.5,-499 564.5,-499"/>
<text text-anchor="middle" x="609" y="-559.8" font-family="Times,serif" font-size="14.00">events</text>
<polyline fill="none" stroke="blue" points="564.5,-552 653.5,-552 "/>
<text text-anchor="start" x="572.5" y="-536.8" font-family="Times,serif" font-size="14.00">1: id</text>
<text text-anchor="start" x="572.5" y="-521.8" font-family="Times,serif" font-size="14.00">2: id_list</text>
<text text-anchor="start" x="572.5" y="-506.8" font-family="Times,serif" font-size="14.00">3: timestamp</text>
</g>
<!-- log -->
<g id="node7" class="node"><title>log</title>
<polygon fill="none" stroke="blue" points="671.5,-491.5 671.5,-582.5 760.5,-582.5 760.5,-491.5 671.5,-491.5"/>
<text text-anchor="middle" x="716" y="-567.3" font-family="Times,serif" font-size="14.00">log</text>
<polyline fill="none" stroke="blue" points="671.5,-559.5 760.5,-559.5 "/>
<text text-anchor="start" x="679.5" y="-544.3" font-family="Times,serif" font-size="14.00">1: id</text>
<text text-anchor="start" x="679.5" y="-529.3" font-family="Times,serif" font-size="14.00">2: level</text>
<text text-anchor="start" x="679.5" y="-514.3" font-family="Times,serif" font-size="14.00">3: message</text>
<text text-anchor="start" x="679.5" y="-499.3" font-family="Times,serif" font-size="14.00">4: timestamp</text>
</g>
<!-- menus -->
<g id="node9" class="node"><title>menus</title>
<polygon fill="none" stroke="blue" points="778.5,-476.5 778.5,-597.5 865.5,-597.5 865.5,-476.5 778.5,-476.5"/>
<text text-anchor="middle" x="822" y="-582.3" font-family="Times,serif" font-size="14.00">menus</text>
<polyline fill="none" stroke="blue" points="778.5,-574.5 865.5,-574.5 "/>
<text text-anchor="start" x="786.5" y="-559.3" font-family="Times,serif" font-size="14.00">1: context</text>
<text text-anchor="start" x="786.5" y="-544.3" font-family="Times,serif" font-size="14.00">2: id</text>
<text text-anchor="start" x="786.5" y="-529.3" font-family="Times,serif" font-size="14.00">3: mother_id</text>
<text text-anchor="start" x="786.5" y="-514.3" font-family="Times,serif" font-size="14.00">4: name</text>
<text text-anchor="start" x="786.5" y="-499.3" font-family="Times,serif" font-size="14.00">5: page_id</text>
<text text-anchor="start" x="786.5" y="-484.3" font-family="Times,serif" font-size="14.00">6: unique_id</text>
</g>
<!-- pages&#45;&gt;designs -->
<g id="edge11" class="edge"><title>pages:port2&#45;&gt;designs:port2</title>
<path fill="none" stroke="grey" d="M311,-302C311,-298.172 238.843,-210.944 214.646,-185.132"/>
<polygon fill="grey" stroke="grey" points="216.7,-182.262 207,-178 211.925,-187.381 216.7,-182.262"/>
</g>
<!-- pages&#45;&gt;sites -->
<g id="edge12" class="edge"><title>pages:port2&#45;&gt;sites:port2</title>
<path fill="none" stroke="grey" d="M311,-302C311,-183.246 437.582,-35.919 333.101,-27.3885"/>
<polygon fill="grey" stroke="grey" points="333.127,-23.887 323,-27 332.858,-30.8818 333.127,-23.887"/>
</g>
<!-- sessions -->
<g id="node12" class="node"><title>sessions</title>
<polygon fill="none" stroke="blue" points="883.5,-506.5 883.5,-567.5 966.5,-567.5 966.5,-506.5 883.5,-506.5"/>
<text text-anchor="middle" x="925" y="-552.3" font-family="Times,serif" font-size="14.00">sessions</text>
<polyline fill="none" stroke="blue" points="883.5,-544.5 966.5,-544.5 "/>
<text text-anchor="start" x="891.5" y="-529.3" font-family="Times,serif" font-size="14.00">1: a_session</text>
<text text-anchor="start" x="891.5" y="-514.3" font-family="Times,serif" font-size="14.00">2: id</text>
</g>
</g>
</svg>
