<?xml version="1.0" encoding="UTF-8" standalone="no"?>
<!DOCTYPE svg PUBLIC "-//W3C//DTD SVG 1.1//EN"
 "http://www.w3.org/Graphics/SVG/1.1/DTD/svg11.dtd">
<!-- Generated by graphviz version 2.34.0 (20131125.0033)
 -->
<!-- Title: Perl Pages: 1 -->
<svg width="2368pt" height="514pt"
 viewBox="0.00 0.00 2368.00 514.00" xmlns="http://www.w3.org/2000/svg" xmlns:xlink="http://www.w3.org/1999/xlink">
<g id="graph0" class="graph" transform="scale(1 1) rotate(0) translate(4 510)">
<title>Perl</title>
<polygon fill="white" stroke="white" points="-4,4 -4,-510 2364,-510 2364,4 -4,4"/>
<!-- communication_types -->
<g id="node1" class="node"><title>communication_types</title>
<path fill="none" stroke="blue" d="M549,-1C549,-1 723,-1 723,-1 729,-1 735,-7 735,-13 735,-13 735,-27 735,-27 735,-33 729,-39 723,-39 723,-39 549,-39 549,-39 543,-39 537,-33 537,-27 537,-27 537,-13 537,-13 537,-7 543,-1 549,-1"/>
<text text-anchor="middle" x="605.5" y="-16.3" font-family="Times,serif" font-size="14.00">communication_types</text>
<polyline fill="none" stroke="blue" points="674,-1 674,-39 "/>
<text text-anchor="start" x="682" y="-23.8" font-family="Times,serif" font-size="14.00">1: id</text>
<text text-anchor="start" x="682" y="-8.8" font-family="Times,serif" font-size="14.00">2: name</text>
</g>
<!-- email_address_types -->
<g id="node2" class="node"><title>email_address_types</title>
<path fill="none" stroke="blue" d="M35.5,-1C35.5,-1 202.5,-1 202.5,-1 208.5,-1 214.5,-7 214.5,-13 214.5,-13 214.5,-27 214.5,-27 214.5,-33 208.5,-39 202.5,-39 202.5,-39 35.5,-39 35.5,-39 29.5,-39 23.5,-33 23.5,-27 23.5,-27 23.5,-13 23.5,-13 23.5,-7 29.5,-1 35.5,-1"/>
<text text-anchor="middle" x="88.5" y="-16.3" font-family="Times,serif" font-size="14.00">email_address_types</text>
<polyline fill="none" stroke="blue" points="153.5,-1 153.5,-39 "/>
<text text-anchor="start" x="161.5" y="-23.8" font-family="Times,serif" font-size="14.00">1: id</text>
<text text-anchor="start" x="161.5" y="-8.8" font-family="Times,serif" font-size="14.00">2: name</text>
</g>
<!-- email_addresses -->
<g id="node3" class="node"><title>email_addresses</title>
<path fill="none" stroke="blue" d="M12,-189C12,-189 250,-189 250,-189 256,-189 262,-195 262,-201 262,-201 262,-245 262,-245 262,-251 256,-257 250,-257 250,-257 12,-257 12,-257 6,-257 0,-251 0,-245 0,-245 0,-201 0,-201 0,-195 6,-189 12,-189"/>
<text text-anchor="middle" x="53" y="-219.3" font-family="Times,serif" font-size="14.00">email_addresses</text>
<polyline fill="none" stroke="blue" points="106,-189 106,-257 "/>
<text text-anchor="start" x="114" y="-241.8" font-family="Times,serif" font-size="14.00">1: address</text>
<text text-anchor="start" x="114" y="-226.8" font-family="Times,serif" font-size="14.00">2: email_address_type_id</text>
<text text-anchor="start" x="114" y="-211.8" font-family="Times,serif" font-size="14.00">3: id</text>
<text text-anchor="start" x="114" y="-196.8" font-family="Times,serif" font-size="14.00">4: upper_address</text>
</g>
<!-- email_addresses&#45;&gt;email_address_types -->
<g id="edge1" class="edge"><title>email_addresses:port2&#45;&gt;email_address_types:port2</title>
<path fill="none" stroke="grey" d="M184,-188C184,-125.691 184,-107.649 184,-50.0091"/>
<polygon fill="grey" stroke="grey" points="187.5,-50 184,-40 180.5,-50 187.5,-50"/>
</g>
<!-- email_organizations -->
<g id="node4" class="node"><title>email_organizations</title>
<path fill="none" stroke="blue" d="M12.5,-429.5C12.5,-429.5 241.5,-429.5 241.5,-429.5 247.5,-429.5 253.5,-435.5 253.5,-441.5 253.5,-441.5 253.5,-470.5 253.5,-470.5 253.5,-476.5 247.5,-482.5 241.5,-482.5 241.5,-482.5 12.5,-482.5 12.5,-482.5 6.5,-482.5 0.5,-476.5 0.5,-470.5 0.5,-470.5 0.5,-441.5 0.5,-441.5 0.5,-435.5 6.5,-429.5 12.5,-429.5"/>
<text text-anchor="middle" x="64" y="-452.3" font-family="Times,serif" font-size="14.00">email_organizations</text>
<polyline fill="none" stroke="blue" points="127.5,-429.5 127.5,-482.5 "/>
<text text-anchor="start" x="135.5" y="-467.3" font-family="Times,serif" font-size="14.00">1: email_address_id</text>
<text text-anchor="start" x="135.5" y="-452.3" font-family="Times,serif" font-size="14.00">2: id</text>
<text text-anchor="start" x="135.5" y="-437.3" font-family="Times,serif" font-size="14.00">3: organization_id</text>
</g>
<!-- email_organizations&#45;&gt;email_addresses -->
<g id="edge2" class="edge"><title>email_organizations:port2&#45;&gt;email_addresses:port2</title>
<path fill="none" stroke="grey" d="M191,-428C191,-355.925 184.641,-335.503 184.045,-268.271"/>
<polygon fill="grey" stroke="grey" points="187.544,-267.985 184,-258 180.544,-268.015 187.544,-267.985"/>
</g>
<!-- organizations -->
<g id="node11" class="node"><title>organizations</title>
<path fill="none" stroke="blue" d="M517.5,-129C517.5,-129 746.5,-129 746.5,-129 752.5,-129 758.5,-135 758.5,-141 758.5,-141 758.5,-305 758.5,-305 758.5,-311 752.5,-317 746.5,-317 746.5,-317 517.5,-317 517.5,-317 511.5,-317 505.5,-311 505.5,-305 505.5,-305 505.5,-141 505.5,-141 505.5,-135 511.5,-129 517.5,-129"/>
<text text-anchor="middle" x="550" y="-219.3" font-family="Times,serif" font-size="14.00">organizations</text>
<polyline fill="none" stroke="blue" points="594.5,-129 594.5,-317 "/>
<text text-anchor="start" x="602.5" y="-301.8" font-family="Times,serif" font-size="14.00">1: communication_type_id</text>
<text text-anchor="start" x="602.5" y="-286.8" font-family="Times,serif" font-size="14.00">2: creator_id</text>
<text text-anchor="start" x="602.5" y="-271.8" font-family="Times,serif" font-size="14.00">3: deleted</text>
<text text-anchor="start" x="602.5" y="-256.8" font-family="Times,serif" font-size="14.00">4: facebook_tag</text>
<text text-anchor="start" x="602.5" y="-241.8" font-family="Times,serif" font-size="14.00">5: homepage</text>
<text text-anchor="start" x="602.5" y="-226.8" font-family="Times,serif" font-size="14.00">6: id</text>
<text text-anchor="start" x="602.5" y="-211.8" font-family="Times,serif" font-size="14.00">7: name</text>
<text text-anchor="start" x="602.5" y="-196.8" font-family="Times,serif" font-size="14.00">8: role_id</text>
<text text-anchor="start" x="602.5" y="-181.8" font-family="Times,serif" font-size="14.00">9: timestamp</text>
<text text-anchor="start" x="602.5" y="-166.8" font-family="Times,serif" font-size="14.00">10: twitter_tag</text>
<text text-anchor="start" x="602.5" y="-151.8" font-family="Times,serif" font-size="14.00">11: upper_name</text>
<text text-anchor="start" x="602.5" y="-136.8" font-family="Times,serif" font-size="14.00">12: visibility_id</text>
</g>
<!-- email_organizations&#45;&gt;organizations -->
<g id="edge3" class="edge"><title>email_organizations:port2&#45;&gt;organizations:port2</title>
<path fill="none" stroke="grey" d="M255,-456C279.278,-456 257.815,-420.878 277,-406 354.948,-345.553 399.767,-391.655 496,-370 574.148,-352.414 668.495,-397.522 676.459,-328.064"/>
<polygon fill="grey" stroke="grey" points="679.958,-328.173 677,-318 672.968,-327.798 679.958,-328.173"/>
</g>
<!-- email_people -->
<g id="node5" class="node"><title>email_people</title>
<path fill="none" stroke="blue" d="M298,-429.5C298,-429.5 490,-429.5 490,-429.5 496,-429.5 502,-435.5 502,-441.5 502,-441.5 502,-470.5 502,-470.5 502,-476.5 496,-482.5 490,-482.5 490,-482.5 298,-482.5 298,-482.5 292,-482.5 286,-476.5 286,-470.5 286,-470.5 286,-441.5 286,-441.5 286,-435.5 292,-429.5 298,-429.5"/>
<text text-anchor="middle" x="331" y="-452.3" font-family="Times,serif" font-size="14.00">email_people</text>
<polyline fill="none" stroke="blue" points="376,-429.5 376,-482.5 "/>
<text text-anchor="start" x="384" y="-467.3" font-family="Times,serif" font-size="14.00">1: email_address_id</text>
<text text-anchor="start" x="384" y="-452.3" font-family="Times,serif" font-size="14.00">2: id</text>
<text text-anchor="start" x="384" y="-437.3" font-family="Times,serif" font-size="14.00">3: person_id</text>
</g>
<!-- email_people&#45;&gt;email_addresses -->
<g id="edge5" class="edge"><title>email_people:port2&#45;&gt;email_addresses:port2</title>
<path fill="none" stroke="grey" d="M439,-428C439,-349.009 318.576,-433.057 271,-370 262.687,-358.982 274.352,-261.906 268.375,-231.838"/>
<polygon fill="grey" stroke="grey" points="271.186,-229.726 263,-223 265.206,-233.363 271.186,-229.726"/>
</g>
<!-- people -->
<g id="node12" class="node"><title>people</title>
<path fill="none" stroke="blue" d="M788.5,-76.5C788.5,-76.5 981.5,-76.5 981.5,-76.5 987.5,-76.5 993.5,-82.5 993.5,-88.5 993.5,-88.5 993.5,-357.5 993.5,-357.5 993.5,-363.5 987.5,-369.5 981.5,-369.5 981.5,-369.5 788.5,-369.5 788.5,-369.5 782.5,-369.5 776.5,-363.5 776.5,-357.5 776.5,-357.5 776.5,-88.5 776.5,-88.5 776.5,-82.5 782.5,-76.5 788.5,-76.5"/>
<text text-anchor="middle" x="803" y="-219.3" font-family="Times,serif" font-size="14.00">people</text>
<polyline fill="none" stroke="blue" points="829.5,-76.5 829.5,-369.5 "/>
<text text-anchor="start" x="837.5" y="-354.3" font-family="Times,serif" font-size="14.00">1: communication_type_id</text>
<text text-anchor="start" x="837.5" y="-339.3" font-family="Times,serif" font-size="14.00">2: creator_id</text>
<text text-anchor="start" x="837.5" y="-324.3" font-family="Times,serif" font-size="14.00">3: date_of_birth</text>
<text text-anchor="start" x="837.5" y="-309.3" font-family="Times,serif" font-size="14.00">4: deleted</text>
<text text-anchor="start" x="837.5" y="-294.3" font-family="Times,serif" font-size="14.00">5: facebook_tag</text>
<text text-anchor="start" x="837.5" y="-279.3" font-family="Times,serif" font-size="14.00">6: gender_id</text>
<text text-anchor="start" x="837.5" y="-264.3" font-family="Times,serif" font-size="14.00">7: given_names</text>
<text text-anchor="start" x="837.5" y="-249.3" font-family="Times,serif" font-size="14.00">8: homepage</text>
<text text-anchor="start" x="837.5" y="-234.3" font-family="Times,serif" font-size="14.00">9: id</text>
<text text-anchor="start" x="837.5" y="-219.3" font-family="Times,serif" font-size="14.00">10: name</text>
<text text-anchor="start" x="837.5" y="-204.3" font-family="Times,serif" font-size="14.00">11: preferred_name</text>
<text text-anchor="start" x="837.5" y="-189.3" font-family="Times,serif" font-size="14.00">12: role_id</text>
<text text-anchor="start" x="837.5" y="-174.3" font-family="Times,serif" font-size="14.00">13: surname</text>
<text text-anchor="start" x="837.5" y="-159.3" font-family="Times,serif" font-size="14.00">14: timestamp</text>
<text text-anchor="start" x="837.5" y="-144.3" font-family="Times,serif" font-size="14.00">15: title_id</text>
<text text-anchor="start" x="837.5" y="-129.3" font-family="Times,serif" font-size="14.00">16: twitter_tag</text>
<text text-anchor="start" x="837.5" y="-114.3" font-family="Times,serif" font-size="14.00">17: upper_given_names</text>
<text text-anchor="start" x="837.5" y="-99.3" font-family="Times,serif" font-size="14.00">18: upper_name</text>
<text text-anchor="start" x="837.5" y="-84.3" font-family="Times,serif" font-size="14.00">19: visibility_id</text>
</g>
<!-- email_people&#45;&gt;people -->
<g id="edge4" class="edge"><title>email_people:port2&#45;&gt;people:port2</title>
<path fill="none" stroke="grey" d="M503,-456C526.332,-456 500.802,-420.603 519,-406 550.662,-380.594 860.529,-408.956 906.35,-378.514"/>
<polygon fill="grey" stroke="grey" points="909.387,-380.268 912,-370 903.554,-376.397 909.387,-380.268"/>
</g>
<!-- genders -->
<g id="node6" class="node"><title>genders</title>
<path fill="none" stroke="blue" d="M1009,-1C1009,-1 1105,-1 1105,-1 1111,-1 1117,-7 1117,-13 1117,-13 1117,-27 1117,-27 1117,-33 1111,-39 1105,-39 1105,-39 1009,-39 1009,-39 1003,-39 997,-33 997,-27 997,-27 997,-13 997,-13 997,-7 1003,-1 1009,-1"/>
<text text-anchor="middle" x="1026.5" y="-16.3" font-family="Times,serif" font-size="14.00">genders</text>
<polyline fill="none" stroke="blue" points="1056,-1 1056,-39 "/>
<text text-anchor="start" x="1064" y="-23.8" font-family="Times,serif" font-size="14.00">1: id</text>
<text text-anchor="start" x="1064" y="-8.8" font-family="Times,serif" font-size="14.00">2: name</text>
</g>
<!-- log -->
<g id="node7" class="node"><title>log</title>
<path fill="none" stroke="blue" d="M1478.5,-422C1478.5,-422 1577.5,-422 1577.5,-422 1583.5,-422 1589.5,-428 1589.5,-434 1589.5,-434 1589.5,-478 1589.5,-478 1589.5,-484 1583.5,-490 1577.5,-490 1577.5,-490 1478.5,-490 1478.5,-490 1472.5,-490 1466.5,-484 1466.5,-478 1466.5,-478 1466.5,-434 1466.5,-434 1466.5,-428 1472.5,-422 1478.5,-422"/>
<text text-anchor="middle" x="1483.5" y="-452.3" font-family="Times,serif" font-size="14.00">log</text>
<polyline fill="none" stroke="blue" points="1500.5,-422 1500.5,-490 "/>
<text text-anchor="start" x="1508.5" y="-474.8" font-family="Times,serif" font-size="14.00">1: id</text>
<text text-anchor="start" x="1508.5" y="-459.8" font-family="Times,serif" font-size="14.00">2: level</text>
<text text-anchor="start" x="1508.5" y="-444.8" font-family="Times,serif" font-size="14.00">3: message</text>
<text text-anchor="start" x="1508.5" y="-429.8" font-family="Times,serif" font-size="14.00">4: timestamp</text>
</g>
<!-- notes -->
<g id="node8" class="node"><title>notes</title>
<path fill="none" stroke="blue" d="M1619.5,-407C1619.5,-407 1732.5,-407 1732.5,-407 1738.5,-407 1744.5,-413 1744.5,-419 1744.5,-419 1744.5,-493 1744.5,-493 1744.5,-499 1738.5,-505 1732.5,-505 1732.5,-505 1619.5,-505 1619.5,-505 1613.5,-505 1607.5,-499 1607.5,-493 1607.5,-493 1607.5,-419 1607.5,-419 1607.5,-413 1613.5,-407 1619.5,-407"/>
<text text-anchor="middle" x="1630" y="-452.3" font-family="Times,serif" font-size="14.00">notes</text>
<polyline fill="none" stroke="blue" points="1652.5,-407 1652.5,-505 "/>
<text text-anchor="start" x="1660.5" y="-489.8" font-family="Times,serif" font-size="14.00">1: body</text>
<text text-anchor="start" x="1660.5" y="-474.8" font-family="Times,serif" font-size="14.00">2: creator_id</text>
<text text-anchor="start" x="1660.5" y="-459.8" font-family="Times,serif" font-size="14.00">3: entity_id</text>
<text text-anchor="start" x="1660.5" y="-444.8" font-family="Times,serif" font-size="14.00">4: entity_type</text>
<text text-anchor="start" x="1660.5" y="-429.8" font-family="Times,serif" font-size="14.00">5: id</text>
<text text-anchor="start" x="1660.5" y="-414.8" font-family="Times,serif" font-size="14.00">6: timestamp</text>
</g>
<!-- occupation_titles -->
<g id="node9" class="node"><title>occupation_titles</title>
<path fill="none" stroke="blue" d="M292.5,-196.5C292.5,-196.5 475.5,-196.5 475.5,-196.5 481.5,-196.5 487.5,-202.5 487.5,-208.5 487.5,-208.5 487.5,-237.5 487.5,-237.5 487.5,-243.5 481.5,-249.5 475.5,-249.5 475.5,-249.5 292.5,-249.5 292.5,-249.5 286.5,-249.5 280.5,-243.5 280.5,-237.5 280.5,-237.5 280.5,-208.5 280.5,-208.5 280.5,-202.5 286.5,-196.5 292.5,-196.5"/>
<text text-anchor="middle" x="335" y="-219.3" font-family="Times,serif" font-size="14.00">occupation_titles</text>
<polyline fill="none" stroke="blue" points="389.5,-196.5 389.5,-249.5 "/>
<text text-anchor="start" x="397.5" y="-234.3" font-family="Times,serif" font-size="14.00">1: id</text>
<text text-anchor="start" x="397.5" y="-219.3" font-family="Times,serif" font-size="14.00">2: name</text>
<text text-anchor="start" x="397.5" y="-204.3" font-family="Times,serif" font-size="14.00">3: upper_name</text>
</g>
<!-- occupations -->
<g id="node10" class="node"><title>occupations</title>
<path fill="none" stroke="blue" d="M540,-414.5C540,-414.5 732,-414.5 732,-414.5 738,-414.5 744,-420.5 744,-426.5 744,-426.5 744,-485.5 744,-485.5 744,-491.5 738,-497.5 732,-497.5 732,-497.5 540,-497.5 540,-497.5 534,-497.5 528,-491.5 528,-485.5 528,-485.5 528,-426.5 528,-426.5 528,-420.5 534,-414.5 540,-414.5"/>
<text text-anchor="middle" x="568.5" y="-452.3" font-family="Times,serif" font-size="14.00">occupations</text>
<polyline fill="none" stroke="blue" points="609,-414.5 609,-497.5 "/>
<text text-anchor="start" x="617" y="-482.3" font-family="Times,serif" font-size="14.00">1: creator_id</text>
<text text-anchor="start" x="617" y="-467.3" font-family="Times,serif" font-size="14.00">2: id</text>
<text text-anchor="start" x="617" y="-452.3" font-family="Times,serif" font-size="14.00">3: occupation_title_id</text>
<text text-anchor="start" x="617" y="-437.3" font-family="Times,serif" font-size="14.00">4: organization_id</text>
<text text-anchor="start" x="617" y="-422.3" font-family="Times,serif" font-size="14.00">5: person_id</text>
</g>
<!-- occupations&#45;&gt;occupation_titles -->
<g id="edge7" class="edge"><title>occupations:port2&#45;&gt;occupation_titles:port2</title>
<path fill="none" stroke="grey" d="M677,-413C677,-330.317 548.795,-433.634 496,-370 487.19,-359.382 499.905,-262.03 494.271,-231.867"/>
<polygon fill="grey" stroke="grey" points="497.118,-229.808 489,-223 491.101,-233.384 497.118,-229.808"/>
</g>
<!-- occupations&#45;&gt;organizations -->
<g id="edge8" class="edge"><title>occupations:port2&#45;&gt;organizations:port2</title>
<path fill="none" stroke="grey" d="M677,-413C677,-374.406 677,-362.27 677,-328.224"/>
<polygon fill="grey" stroke="grey" points="680.5,-328 677,-318 673.5,-328 680.5,-328"/>
</g>
<!-- occupations&#45;&gt;people -->
<g id="edge6" class="edge"><title>occupations:port2&#45;&gt;people:port2</title>
<path fill="none" stroke="grey" d="M745,-456C771.384,-456 755.697,-421.566 777,-406 824.004,-371.654 901.528,-424.643 911.035,-380.235"/>
<polygon fill="grey" stroke="grey" points="914.545,-380.284 912,-370 907.576,-379.627 914.545,-380.284"/>
</g>
<!-- organizations&#45;&gt;communication_types -->
<g id="edge9" class="edge"><title>organizations:port2&#45;&gt;communication_types:port2</title>
<path fill="none" stroke="grey" d="M677,-128C677,-90.6443 700.195,-82.3894 704.363,-50.2627"/>
<polygon fill="grey" stroke="grey" points="707.873,-50.1978 705,-40 700.887,-49.7638 707.873,-50.1978"/>
</g>
<!-- roles -->
<g id="node19" class="node"><title>roles</title>
<path fill="none" stroke="blue" d="M765,-1C765,-1 845,-1 845,-1 851,-1 857,-7 857,-13 857,-13 857,-27 857,-27 857,-33 851,-39 845,-39 845,-39 765,-39 765,-39 759,-39 753,-33 753,-27 753,-27 753,-13 753,-13 753,-7 759,-1 765,-1"/>
<text text-anchor="middle" x="774.5" y="-16.3" font-family="Times,serif" font-size="14.00">roles</text>
<polyline fill="none" stroke="blue" points="796,-1 796,-39 "/>
<text text-anchor="start" x="804" y="-23.8" font-family="Times,serif" font-size="14.00">1: id</text>
<text text-anchor="start" x="804" y="-8.8" font-family="Times,serif" font-size="14.00">2: name</text>
</g>
<!-- organizations&#45;&gt;roles -->
<g id="edge11" class="edge"><title>organizations:port2&#45;&gt;roles:port2</title>
<path fill="none" stroke="grey" d="M677,-128C677,-123.849 787.779,-65.4098 818.935,-45.9901"/>
<polygon fill="grey" stroke="grey" points="821.059,-48.7725 827,-40 816.885,-43.153 821.059,-48.7725"/>
</g>
<!-- visibilities -->
<g id="node23" class="node"><title>visibilities</title>
<path fill="none" stroke="blue" d="M397,-1C397,-1 507,-1 507,-1 513,-1 519,-7 519,-13 519,-13 519,-27 519,-27 519,-33 513,-39 507,-39 507,-39 397,-39 397,-39 391,-39 385,-33 385,-27 385,-27 385,-13 385,-13 385,-7 391,-1 397,-1"/>
<text text-anchor="middle" x="421.5" y="-16.3" font-family="Times,serif" font-size="14.00">visibilities</text>
<polyline fill="none" stroke="blue" points="458,-1 458,-39 "/>
<text text-anchor="start" x="466" y="-23.8" font-family="Times,serif" font-size="14.00">1: id</text>
<text text-anchor="start" x="466" y="-8.8" font-family="Times,serif" font-size="14.00">2: name</text>
</g>
<!-- organizations&#45;&gt;visibilities -->
<g id="edge10" class="edge"><title>organizations:port2&#45;&gt;visibilities:port2</title>
<path fill="none" stroke="grey" d="M677,-128C677,-51.0906 578.069,-98.3798 528,-40 525.273,-36.8207 525.234,-32.5951 525.25,-28.8473"/>
<polygon fill="grey" stroke="grey" points="528.113,-26.8137 520,-20 522.093,-30.386 528.113,-26.8137"/>
</g>
<!-- people&#45;&gt;communication_types -->
<g id="edge12" class="edge"><title>people:port2&#45;&gt;communication_types:port2</title>
<path fill="none" stroke="grey" d="M912,-76C912,0.361712 802.371,-89.2339 744,-40 740.684,-37.2031 740.696,-32.8344 740.811,-28.8927"/>
<polygon fill="grey" stroke="grey" points="743.837,-27.1302 736,-20 737.68,-30.4609 743.837,-27.1302"/>
</g>
<!-- people&#45;&gt;genders -->
<g id="edge13" class="edge"><title>people:port2&#45;&gt;genders:port2</title>
<path fill="none" stroke="grey" d="M912,-76C912,-0.470828 1070.33,-107.895 1085.79,-50.2325"/>
<polygon fill="grey" stroke="grey" points="1089.3,-50.3421 1087,-40 1082.35,-49.5193 1089.3,-50.3421"/>
</g>
<!-- people&#45;&gt;roles -->
<g id="edge14" class="edge"><title>people:port2&#45;&gt;roles:port2</title>
<path fill="none" stroke="grey" d="M912,-76C912,-39.1404 843.389,-72.5701 829.452,-49.988"/>
<polygon fill="grey" stroke="grey" points="832.783,-48.877 827,-40 825.985,-50.5461 832.783,-48.877"/>
</g>
<!-- titles -->
<g id="node22" class="node"><title>titles</title>
<path fill="none" stroke="blue" d="M887,-1C887,-1 967,-1 967,-1 973,-1 979,-7 979,-13 979,-13 979,-27 979,-27 979,-33 973,-39 967,-39 967,-39 887,-39 887,-39 881,-39 875,-33 875,-27 875,-27 875,-13 875,-13 875,-7 881,-1 887,-1"/>
<text text-anchor="middle" x="896.5" y="-16.3" font-family="Times,serif" font-size="14.00">titles</text>
<polyline fill="none" stroke="blue" points="918,-1 918,-39 "/>
<text text-anchor="start" x="926" y="-23.8" font-family="Times,serif" font-size="14.00">1: id</text>
<text text-anchor="start" x="926" y="-8.8" font-family="Times,serif" font-size="14.00">2: name</text>
</g>
<!-- people&#45;&gt;titles -->
<g id="edge15" class="edge"><title>people:port2&#45;&gt;titles:port2</title>
<path fill="none" stroke="grey" d="M912,-76C912,-57.1789 936.898,-60.4505 945.845,-49.569"/>
<polygon fill="grey" stroke="grey" points="949.193,-50.5931 949,-40 942.545,-48.4014 949.193,-50.5931"/>
</g>
<!-- people&#45;&gt;visibilities -->
<g id="edge16" class="edge"><title>people:port2&#45;&gt;visibilities:port2</title>
<path fill="none" stroke="grey" d="M912,-76C912,-33.1462 562.325,-65.6568 528,-40 524.525,-37.4028 524.523,-33.0529 524.668,-29.0719"/>
<polygon fill="grey" stroke="grey" points="527.688,-27.2903 520,-20 521.464,-30.4933 527.688,-27.2903"/>
</g>
<!-- phone_number_types -->
<g id="node13" class="node"><title>phone_number_types</title>
<path fill="none" stroke="blue" d="M1202.5,-1C1202.5,-1 1373.5,-1 1373.5,-1 1379.5,-1 1385.5,-7 1385.5,-13 1385.5,-13 1385.5,-27 1385.5,-27 1385.5,-33 1379.5,-39 1373.5,-39 1373.5,-39 1202.5,-39 1202.5,-39 1196.5,-39 1190.5,-33 1190.5,-27 1190.5,-27 1190.5,-13 1190.5,-13 1190.5,-7 1196.5,-1 1202.5,-1"/>
<text text-anchor="middle" x="1257.5" y="-16.3" font-family="Times,serif" font-size="14.00">phone_number_types</text>
<polyline fill="none" stroke="blue" points="1324.5,-1 1324.5,-39 "/>
<text text-anchor="start" x="1332.5" y="-23.8" font-family="Times,serif" font-size="14.00">1: id</text>
<text text-anchor="start" x="1332.5" y="-8.8" font-family="Times,serif" font-size="14.00">2: name</text>
</g>
<!-- phone_numbers -->
<g id="node14" class="node"><title>phone_numbers</title>
<path fill="none" stroke="blue" d="M1183,-189C1183,-189 1423,-189 1423,-189 1429,-189 1435,-195 1435,-201 1435,-201 1435,-245 1435,-245 1435,-251 1429,-257 1423,-257 1423,-257 1183,-257 1183,-257 1177,-257 1171,-251 1171,-245 1171,-245 1171,-201 1171,-201 1171,-195 1177,-189 1183,-189"/>
<text text-anchor="middle" x="1223" y="-219.3" font-family="Times,serif" font-size="14.00">phone_numbers</text>
<polyline fill="none" stroke="blue" points="1275,-189 1275,-257 "/>
<text text-anchor="start" x="1283" y="-241.8" font-family="Times,serif" font-size="14.00">1: id</text>
<text text-anchor="start" x="1283" y="-226.8" font-family="Times,serif" font-size="14.00">2: number</text>
<text text-anchor="start" x="1283" y="-211.8" font-family="Times,serif" font-size="14.00">3: phone_number_type_id</text>
<text text-anchor="start" x="1283" y="-196.8" font-family="Times,serif" font-size="14.00">4: upper_number</text>
</g>
<!-- phone_numbers&#45;&gt;phone_number_types -->
<g id="edge17" class="edge"><title>phone_numbers:port2&#45;&gt;phone_number_types:port2</title>
<path fill="none" stroke="grey" d="M1355,-188C1355,-125.691 1355,-107.649 1355,-50.0091"/>
<polygon fill="grey" stroke="grey" points="1358.5,-50 1355,-40 1351.5,-50 1358.5,-50"/>
</g>
<!-- phone_organizations -->
<g id="node15" class="node"><title>phone_organizations</title>
<path fill="none" stroke="blue" d="M960.5,-429.5C960.5,-429.5 1195.5,-429.5 1195.5,-429.5 1201.5,-429.5 1207.5,-435.5 1207.5,-441.5 1207.5,-441.5 1207.5,-470.5 1207.5,-470.5 1207.5,-476.5 1201.5,-482.5 1195.5,-482.5 1195.5,-482.5 960.5,-482.5 960.5,-482.5 954.5,-482.5 948.5,-476.5 948.5,-470.5 948.5,-470.5 948.5,-441.5 948.5,-441.5 948.5,-435.5 954.5,-429.5 960.5,-429.5"/>
<text text-anchor="middle" x="1013" y="-452.3" font-family="Times,serif" font-size="14.00">phone_organizations</text>
<polyline fill="none" stroke="blue" points="1077.5,-429.5 1077.5,-482.5 "/>
<text text-anchor="start" x="1085.5" y="-467.3" font-family="Times,serif" font-size="14.00">1: id</text>
<text text-anchor="start" x="1085.5" y="-452.3" font-family="Times,serif" font-size="14.00">2: organization_id</text>
<text text-anchor="start" x="1085.5" y="-437.3" font-family="Times,serif" font-size="14.00">3: phone_number_id</text>
</g>
<!-- phone_organizations&#45;&gt;organizations -->
<g id="edge18" class="edge"><title>phone_organizations:port2&#45;&gt;organizations:port2</title>
<path fill="none" stroke="grey" d="M1143,-428C1143,-343.456 823.547,-432.849 767,-370 757.772,-359.743 770.774,-262.143 765.24,-231.894"/>
<polygon fill="grey" stroke="grey" points="768.092,-229.839 760,-223 762.061,-233.392 768.092,-229.839"/>
</g>
<!-- phone_organizations&#45;&gt;phone_numbers -->
<g id="edge19" class="edge"><title>phone_organizations:port2&#45;&gt;phone_numbers:port2</title>
<path fill="none" stroke="grey" d="M1209,-456C1220.25,-456 1212.06,-416.11 1217,-406 1254.94,-328.353 1347.39,-346.317 1354.56,-268.036"/>
<polygon fill="grey" stroke="grey" points="1358.06,-268.144 1355,-258 1351.06,-267.836 1358.06,-268.144"/>
</g>
<!-- phone_people -->
<g id="node16" class="node"><title>phone_people</title>
<path fill="none" stroke="blue" d="M1238,-429.5C1238,-429.5 1436,-429.5 1436,-429.5 1442,-429.5 1448,-435.5 1448,-441.5 1448,-441.5 1448,-470.5 1448,-470.5 1448,-476.5 1442,-482.5 1436,-482.5 1436,-482.5 1238,-482.5 1238,-482.5 1232,-482.5 1226,-476.5 1226,-470.5 1226,-470.5 1226,-441.5 1226,-441.5 1226,-435.5 1232,-429.5 1238,-429.5"/>
<text text-anchor="middle" x="1272" y="-452.3" font-family="Times,serif" font-size="14.00">phone_people</text>
<polyline fill="none" stroke="blue" points="1318,-429.5 1318,-482.5 "/>
<text text-anchor="start" x="1326" y="-467.3" font-family="Times,serif" font-size="14.00">1: id</text>
<text text-anchor="start" x="1326" y="-452.3" font-family="Times,serif" font-size="14.00">2: person_id</text>
<text text-anchor="start" x="1326" y="-437.3" font-family="Times,serif" font-size="14.00">3: phone_number_id</text>
</g>
<!-- phone_people&#45;&gt;people -->
<g id="edge20" class="edge"><title>phone_people:port2&#45;&gt;people:port2</title>
<path fill="none" stroke="grey" d="M1383,-428C1383,-326.451 1251.64,-417.722 1162,-370 1077.79,-325.166 1092.66,-230.002 1005,-223.366"/>
<polygon fill="grey" stroke="grey" points="1005.12,-219.868 995,-223 1004.87,-226.864 1005.12,-219.868"/>
</g>
<!-- phone_people&#45;&gt;phone_numbers -->
<g id="edge21" class="edge"><title>phone_people:port2&#45;&gt;phone_numbers:port2</title>
<path fill="none" stroke="grey" d="M1383,-428C1383,-355.016 1357.56,-336.285 1355.18,-268.387"/>
<polygon fill="grey" stroke="grey" points="1358.67,-267.938 1355,-258 1351.67,-268.059 1358.67,-267.938"/>
</g>
<!-- report_entities -->
<g id="node17" class="node"><title>report_entities</title>
<path fill="none" stroke="blue" d="M1775,-437C1775,-437 1907,-437 1907,-437 1913,-437 1919,-443 1919,-449 1919,-449 1919,-463 1919,-463 1919,-469 1913,-475 1907,-475 1907,-475 1775,-475 1775,-475 1769,-475 1763,-469 1763,-463 1763,-463 1763,-449 1763,-449 1763,-443 1769,-437 1775,-437"/>
<text text-anchor="middle" x="1810.5" y="-452.3" font-family="Times,serif" font-size="14.00">report_entities</text>
<polyline fill="none" stroke="blue" points="1858,-437 1858,-475 "/>
<text text-anchor="start" x="1866" y="-459.8" font-family="Times,serif" font-size="14.00">1: id</text>
<text text-anchor="start" x="1866" y="-444.8" font-family="Times,serif" font-size="14.00">2: name</text>
</g>
<!-- reports -->
<g id="node18" class="node"><title>reports</title>
<path fill="none" stroke="blue" d="M1949.5,-437C1949.5,-437 2040.5,-437 2040.5,-437 2046.5,-437 2052.5,-443 2052.5,-449 2052.5,-449 2052.5,-463 2052.5,-463 2052.5,-469 2046.5,-475 2040.5,-475 2040.5,-475 1949.5,-475 1949.5,-475 1943.5,-475 1937.5,-469 1937.5,-463 1937.5,-463 1937.5,-449 1937.5,-449 1937.5,-443 1943.5,-437 1949.5,-437"/>
<text text-anchor="middle" x="1964.5" y="-452.3" font-family="Times,serif" font-size="14.00">reports</text>
<polyline fill="none" stroke="blue" points="1991.5,-437 1991.5,-475 "/>
<text text-anchor="start" x="1999.5" y="-459.8" font-family="Times,serif" font-size="14.00">1: id</text>
<text text-anchor="start" x="1999.5" y="-444.8" font-family="Times,serif" font-size="14.00">2: name</text>
</g>
<!-- sessions -->
<g id="node20" class="node"><title>sessions</title>
<path fill="none" stroke="blue" d="M2083,-437C2083,-437 2203,-437 2203,-437 2209,-437 2215,-443 2215,-449 2215,-449 2215,-463 2215,-463 2215,-469 2209,-475 2203,-475 2203,-475 2083,-475 2083,-475 2077,-475 2071,-469 2071,-463 2071,-463 2071,-449 2071,-449 2071,-443 2077,-437 2083,-437"/>
<text text-anchor="middle" x="2101.5" y="-452.3" font-family="Times,serif" font-size="14.00">sessions</text>
<polyline fill="none" stroke="blue" points="2132,-437 2132,-475 "/>
<text text-anchor="start" x="2140" y="-459.8" font-family="Times,serif" font-size="14.00">1: a_session</text>
<text text-anchor="start" x="2140" y="-444.8" font-family="Times,serif" font-size="14.00">2: id</text>
</g>
<!-- spouses -->
<g id="node21" class="node"><title>spouses</title>
<path fill="none" stroke="blue" d="M798,-429.5C798,-429.5 918,-429.5 918,-429.5 924,-429.5 930,-435.5 930,-441.5 930,-441.5 930,-470.5 930,-470.5 930,-476.5 924,-482.5 918,-482.5 918,-482.5 798,-482.5 798,-482.5 792,-482.5 786,-476.5 786,-470.5 786,-470.5 786,-441.5 786,-441.5 786,-435.5 792,-429.5 798,-429.5"/>
<text text-anchor="middle" x="815.5" y="-452.3" font-family="Times,serif" font-size="14.00">spouses</text>
<polyline fill="none" stroke="blue" points="845,-429.5 845,-482.5 "/>
<text text-anchor="start" x="853" y="-467.3" font-family="Times,serif" font-size="14.00">1: id</text>
<text text-anchor="start" x="853" y="-452.3" font-family="Times,serif" font-size="14.00">2: person_id</text>
<text text-anchor="start" x="853" y="-437.3" font-family="Times,serif" font-size="14.00">3: spouse_id</text>
</g>
<!-- spouses&#45;&gt;people -->
<g id="edge22" class="edge"><title>spouses:port2&#45;&gt;people:port2</title>
<path fill="none" stroke="grey" d="M888,-428C880.125,-403.59 897.516,-398.85 908.016,-379.358"/>
<polygon fill="grey" stroke="grey" points="911.303,-380.572 912,-370 904.862,-377.83 911.303,-380.572"/>
</g>
<!-- spouses&#45;&gt;people -->
<g id="edge23" class="edge"><title>spouses:port2&#45;&gt;people:port2</title>
<path fill="none" stroke="grey" d="M888.106,-427.674C895.915,-403.95 914.591,-398.928 913.97,-380.318"/>
<polygon fill="grey" stroke="grey" points="917.38,-379.512 912.104,-370.324 910.499,-380.797 917.38,-379.512"/>
</g>
<!-- yes_noes -->
<g id="node24" class="node"><title>yes_noes</title>
<path fill="none" stroke="blue" d="M2245.5,-437C2245.5,-437 2348.5,-437 2348.5,-437 2354.5,-437 2360.5,-443 2360.5,-449 2360.5,-449 2360.5,-463 2360.5,-463 2360.5,-469 2354.5,-475 2348.5,-475 2348.5,-475 2245.5,-475 2245.5,-475 2239.5,-475 2233.5,-469 2233.5,-463 2233.5,-463 2233.5,-449 2233.5,-449 2233.5,-443 2239.5,-437 2245.5,-437"/>
<text text-anchor="middle" x="2266.5" y="-452.3" font-family="Times,serif" font-size="14.00">yes_noes</text>
<polyline fill="none" stroke="blue" points="2299.5,-437 2299.5,-475 "/>
<text text-anchor="start" x="2307.5" y="-459.8" font-family="Times,serif" font-size="14.00">1: id</text>
<text text-anchor="start" x="2307.5" y="-444.8" font-family="Times,serif" font-size="14.00">2: name</text>
</g>
</g>
</svg>
