<?xml version="1.0" encoding="UTF-8" standalone="no"?>
<!DOCTYPE svg PUBLIC "-//W3C//DTD SVG 1.1//EN"
 "http://www.w3.org/Graphics/SVG/1.1/DTD/svg11.dtd">
<!-- Generated by graphviz version 2.34.0 (20131125.0033)
 -->
<!-- Title: Perl Pages: 1 -->
<svg width="2148pt" height="712pt"
 viewBox="0.00 0.00 2148.00 712.24" xmlns="http://www.w3.org/2000/svg" xmlns:xlink="http://www.w3.org/1999/xlink">
<g id="graph0" class="graph" transform="scale(1 1) rotate(0) translate(4 708.236)">
<title>Perl</title>
<polygon fill="white" stroke="white" points="-4,4 -4,-708.236 2144,-708.236 2144,4 -4,4"/>
<!-- communication_types -->
<g id="node1" class="node"><title>communication_types</title>
<path fill="none" stroke="blue" d="M657,-1C657,-1 817,-1 817,-1 823,-1 829,-7 829,-13 829,-13 829,-35 829,-35 829,-41 823,-47 817,-47 817,-47 657,-47 657,-47 651,-47 645,-41 645,-35 645,-35 645,-13 645,-13 645,-7 651,-1 657,-1"/>
<text text-anchor="middle" x="713.5" y="-20.3" font-family="Times,serif" font-size="14.00">communication_types</text>
<polyline fill="none" stroke="blue" points="782,-1 782,-47 "/>
<text text-anchor="middle" x="805.5" y="-31.8" font-family="Times,serif" font-size="14.00">id</text>
<polyline fill="none" stroke="blue" points="782,-24 829,-24 "/>
<text text-anchor="middle" x="805.5" y="-8.8" font-family="Times,serif" font-size="14.00">name</text>
</g>
<!-- email_address_types -->
<g id="node2" class="node"><title>email_address_types</title>
<path fill="none" stroke="blue" d="M45.5,-1C45.5,-1 198.5,-1 198.5,-1 204.5,-1 210.5,-7 210.5,-13 210.5,-13 210.5,-35 210.5,-35 210.5,-41 204.5,-47 198.5,-47 198.5,-47 45.5,-47 45.5,-47 39.5,-47 33.5,-41 33.5,-35 33.5,-35 33.5,-13 33.5,-13 33.5,-7 39.5,-1 45.5,-1"/>
<text text-anchor="middle" x="98.5" y="-20.3" font-family="Times,serif" font-size="14.00">email_address_types</text>
<polyline fill="none" stroke="blue" points="163.5,-1 163.5,-47 "/>
<text text-anchor="middle" x="187" y="-31.8" font-family="Times,serif" font-size="14.00">id</text>
<polyline fill="none" stroke="blue" points="163.5,-24 210.5,-24 "/>
<text text-anchor="middle" x="187" y="-8.8" font-family="Times,serif" font-size="14.00">name</text>
</g>
<!-- email_addresses -->
<g id="node3" class="node"><title>email_addresses</title>
<path fill="none" stroke="blue" d="M22,-257C22,-257 246,-257 246,-257 252,-257 258,-263 258,-269 258,-269 258,-337 258,-337 258,-343 252,-349 246,-349 246,-349 22,-349 22,-349 16,-349 10,-343 10,-337 10,-337 10,-269 10,-269 10,-263 16,-257 22,-257"/>
<text text-anchor="middle" x="63" y="-299.3" font-family="Times,serif" font-size="14.00">email_addresses</text>
<polyline fill="none" stroke="blue" points="116,-257 116,-349 "/>
<text text-anchor="middle" x="187" y="-333.8" font-family="Times,serif" font-size="14.00">address</text>
<polyline fill="none" stroke="blue" points="116,-326 258,-326 "/>
<text text-anchor="middle" x="187" y="-310.8" font-family="Times,serif" font-size="14.00">email_address_type_id</text>
<polyline fill="none" stroke="blue" points="116,-303 258,-303 "/>
<text text-anchor="middle" x="187" y="-287.8" font-family="Times,serif" font-size="14.00">id</text>
<polyline fill="none" stroke="blue" points="116,-280 258,-280 "/>
<text text-anchor="middle" x="187" y="-264.8" font-family="Times,serif" font-size="14.00">upper_address</text>
</g>
<!-- email_addresses&#45;&gt;email_address_types -->
<g id="edge3" class="edge"><title>email_addresses:port2&#45;&gt;email_address_types:port2</title>
<path fill="none" stroke="grey" d="M187,-350C187,-365.557 246.078,-360.079 257,-349 286.018,-319.565 263.68,-296.79 257,-256 241.807,-163.221 190.869,-146.673 187.208,-58.2545"/>
<polygon fill="grey" stroke="grey" points="190.702,-57.9269 187,-48 183.704,-58.069 190.702,-57.9269"/>
</g>
<!-- email_organizations -->
<g id="node4" class="node"><title>email_organizations</title>
<path fill="none" stroke="blue" d="M11.5,-593.5C11.5,-593.5 226.5,-593.5 226.5,-593.5 232.5,-593.5 238.5,-599.5 238.5,-605.5 238.5,-605.5 238.5,-650.5 238.5,-650.5 238.5,-656.5 232.5,-662.5 226.5,-662.5 226.5,-662.5 11.5,-662.5 11.5,-662.5 5.5,-662.5 -0.5,-656.5 -0.5,-650.5 -0.5,-650.5 -0.5,-605.5 -0.5,-605.5 -0.5,-599.5 5.5,-593.5 11.5,-593.5"/>
<text text-anchor="middle" x="63" y="-624.3" font-family="Times,serif" font-size="14.00">email_organizations</text>
<polyline fill="none" stroke="blue" points="126.5,-593.5 126.5,-662.5 "/>
<text text-anchor="middle" x="182.5" y="-647.3" font-family="Times,serif" font-size="14.00">email_address_id</text>
<polyline fill="none" stroke="blue" points="126.5,-639.5 238.5,-639.5 "/>
<text text-anchor="middle" x="182.5" y="-624.3" font-family="Times,serif" font-size="14.00">id</text>
<polyline fill="none" stroke="blue" points="126.5,-616.5 238.5,-616.5 "/>
<text text-anchor="middle" x="182.5" y="-601.3" font-family="Times,serif" font-size="14.00">organization_id</text>
</g>
<!-- email_organizations&#45;&gt;email_addresses -->
<g id="edge4" class="edge"><title>email_organizations:port2&#45;&gt;email_addresses:port2</title>
<path fill="none" stroke="grey" d="M183,-664C183,-688.448 220.87,-680.444 238,-663 259.798,-640.802 241.212,-623.945 238,-593 226.962,-486.667 189.448,-461.868 187.114,-360.095"/>
<polygon fill="grey" stroke="grey" points="190.613,-359.96 187,-350 183.613,-360.039 190.613,-359.96"/>
</g>
<!-- organizations -->
<g id="node11" class="node"><title>organizations</title>
<path fill="none" stroke="blue" d="M322,-165C322,-165 536,-165 536,-165 542,-165 548,-171 548,-177 548,-177 548,-429 548,-429 548,-435 542,-441 536,-441 536,-441 322,-441 322,-441 316,-441 310,-435 310,-429 310,-429 310,-177 310,-177 310,-171 316,-165 322,-165"/>
<text text-anchor="middle" x="354.5" y="-299.3" font-family="Times,serif" font-size="14.00">organizations</text>
<polyline fill="none" stroke="blue" points="399,-165 399,-441 "/>
<text text-anchor="middle" x="473.5" y="-425.8" font-family="Times,serif" font-size="14.00">communication_type_id</text>
<polyline fill="none" stroke="blue" points="399,-418 548,-418 "/>
<text text-anchor="middle" x="473.5" y="-402.8" font-family="Times,serif" font-size="14.00">creator_id</text>
<polyline fill="none" stroke="blue" points="399,-395 548,-395 "/>
<text text-anchor="middle" x="473.5" y="-379.8" font-family="Times,serif" font-size="14.00">deleted</text>
<polyline fill="none" stroke="blue" points="399,-372 548,-372 "/>
<text text-anchor="middle" x="473.5" y="-356.8" font-family="Times,serif" font-size="14.00">facebook_tag</text>
<polyline fill="none" stroke="blue" points="399,-349 548,-349 "/>
<text text-anchor="middle" x="473.5" y="-333.8" font-family="Times,serif" font-size="14.00">homepage</text>
<polyline fill="none" stroke="blue" points="399,-326 548,-326 "/>
<text text-anchor="middle" x="473.5" y="-310.8" font-family="Times,serif" font-size="14.00">id</text>
<polyline fill="none" stroke="blue" points="399,-303 548,-303 "/>
<text text-anchor="middle" x="473.5" y="-287.8" font-family="Times,serif" font-size="14.00">name</text>
<polyline fill="none" stroke="blue" points="399,-280 548,-280 "/>
<text text-anchor="middle" x="473.5" y="-264.8" font-family="Times,serif" font-size="14.00">role_id</text>
<polyline fill="none" stroke="blue" points="399,-257 548,-257 "/>
<text text-anchor="middle" x="473.5" y="-241.8" font-family="Times,serif" font-size="14.00">timestamp</text>
<polyline fill="none" stroke="blue" points="399,-234 548,-234 "/>
<text text-anchor="middle" x="473.5" y="-218.8" font-family="Times,serif" font-size="14.00">twitter_tag</text>
<polyline fill="none" stroke="blue" points="399,-211 548,-211 "/>
<text text-anchor="middle" x="473.5" y="-195.8" font-family="Times,serif" font-size="14.00">upper_name</text>
<polyline fill="none" stroke="blue" points="399,-188 548,-188 "/>
<text text-anchor="middle" x="473.5" y="-172.8" font-family="Times,serif" font-size="14.00">visibility_id</text>
</g>
<!-- email_organizations&#45;&gt;organizations -->
<g id="edge8" class="edge"><title>email_organizations:port2&#45;&gt;organizations:port2</title>
<path fill="none" stroke="grey" d="M240,-651C250.371,-651 241.774,-566.295 248,-558 333.809,-443.665 466.875,-559.705 548,-442 553.362,-434.221 558.368,-293.058 552.595,-254.604"/>
<polygon fill="grey" stroke="grey" points="555.784,-253.138 549,-245 549.228,-255.592 555.784,-253.138"/>
</g>
<!-- email_people -->
<g id="node5" class="node"><title>email_people</title>
<path fill="none" stroke="blue" d="M269,-593.5C269,-593.5 447,-593.5 447,-593.5 453,-593.5 459,-599.5 459,-605.5 459,-605.5 459,-650.5 459,-650.5 459,-656.5 453,-662.5 447,-662.5 447,-662.5 269,-662.5 269,-662.5 263,-662.5 257,-656.5 257,-650.5 257,-650.5 257,-605.5 257,-605.5 257,-599.5 263,-593.5 269,-593.5"/>
<text text-anchor="middle" x="302" y="-624.3" font-family="Times,serif" font-size="14.00">email_people</text>
<polyline fill="none" stroke="blue" points="347,-593.5 347,-662.5 "/>
<text text-anchor="middle" x="403" y="-647.3" font-family="Times,serif" font-size="14.00">email_address_id</text>
<polyline fill="none" stroke="blue" points="347,-639.5 459,-639.5 "/>
<text text-anchor="middle" x="403" y="-624.3" font-family="Times,serif" font-size="14.00">id</text>
<polyline fill="none" stroke="blue" points="347,-616.5 459,-616.5 "/>
<text text-anchor="middle" x="403" y="-601.3" font-family="Times,serif" font-size="14.00">person_id</text>
</g>
<!-- email_people&#45;&gt;email_addresses -->
<g id="edge5" class="edge"><title>email_people:port2&#45;&gt;email_addresses:port2</title>
<path fill="none" stroke="grey" d="M403,-664C403,-688.893 441.556,-680.758 459,-663 469.901,-651.903 467.45,-606.061 459,-593 417.182,-528.362 349.793,-581.549 301,-522 250.225,-460.032 334.641,-348.593 269.251,-338.705"/>
<polygon fill="grey" stroke="grey" points="269.217,-335.195 259,-338 268.736,-342.178 269.217,-335.195"/>
</g>
<!-- people -->
<g id="node12" class="node"><title>people</title>
<path fill="none" stroke="blue" d="M790,-84.5C790,-84.5 968,-84.5 968,-84.5 974,-84.5 980,-90.5 980,-96.5 980,-96.5 980,-509.5 980,-509.5 980,-515.5 974,-521.5 968,-521.5 968,-521.5 790,-521.5 790,-521.5 784,-521.5 778,-515.5 778,-509.5 778,-509.5 778,-96.5 778,-96.5 778,-90.5 784,-84.5 790,-84.5"/>
<text text-anchor="middle" x="804.5" y="-299.3" font-family="Times,serif" font-size="14.00">people</text>
<polyline fill="none" stroke="blue" points="831,-84.5 831,-521.5 "/>
<text text-anchor="middle" x="905.5" y="-506.3" font-family="Times,serif" font-size="14.00">communication_type_id</text>
<polyline fill="none" stroke="blue" points="831,-498.5 980,-498.5 "/>
<text text-anchor="middle" x="905.5" y="-483.3" font-family="Times,serif" font-size="14.00">creator_id</text>
<polyline fill="none" stroke="blue" points="831,-475.5 980,-475.5 "/>
<text text-anchor="middle" x="905.5" y="-460.3" font-family="Times,serif" font-size="14.00">date_of_birth</text>
<polyline fill="none" stroke="blue" points="831,-452.5 980,-452.5 "/>
<text text-anchor="middle" x="905.5" y="-437.3" font-family="Times,serif" font-size="14.00">deleted</text>
<polyline fill="none" stroke="blue" points="831,-429.5 980,-429.5 "/>
<text text-anchor="middle" x="905.5" y="-414.3" font-family="Times,serif" font-size="14.00">facebook_tag</text>
<polyline fill="none" stroke="blue" points="831,-406.5 980,-406.5 "/>
<text text-anchor="middle" x="905.5" y="-391.3" font-family="Times,serif" font-size="14.00">gender_id</text>
<polyline fill="none" stroke="blue" points="831,-383.5 980,-383.5 "/>
<text text-anchor="middle" x="905.5" y="-368.3" font-family="Times,serif" font-size="14.00">given_names</text>
<polyline fill="none" stroke="blue" points="831,-360.5 980,-360.5 "/>
<text text-anchor="middle" x="905.5" y="-345.3" font-family="Times,serif" font-size="14.00">homepage</text>
<polyline fill="none" stroke="blue" points="831,-337.5 980,-337.5 "/>
<text text-anchor="middle" x="905.5" y="-322.3" font-family="Times,serif" font-size="14.00">id</text>
<polyline fill="none" stroke="blue" points="831,-314.5 980,-314.5 "/>
<text text-anchor="middle" x="905.5" y="-299.3" font-family="Times,serif" font-size="14.00">name</text>
<polyline fill="none" stroke="blue" points="831,-291.5 980,-291.5 "/>
<text text-anchor="middle" x="905.5" y="-276.3" font-family="Times,serif" font-size="14.00">preferred_name</text>
<polyline fill="none" stroke="blue" points="831,-268.5 980,-268.5 "/>
<text text-anchor="middle" x="905.5" y="-253.3" font-family="Times,serif" font-size="14.00">role_id</text>
<polyline fill="none" stroke="blue" points="831,-245.5 980,-245.5 "/>
<text text-anchor="middle" x="905.5" y="-230.3" font-family="Times,serif" font-size="14.00">surname</text>
<polyline fill="none" stroke="blue" points="831,-222.5 980,-222.5 "/>
<text text-anchor="middle" x="905.5" y="-207.3" font-family="Times,serif" font-size="14.00">timestamp</text>
<polyline fill="none" stroke="blue" points="831,-199.5 980,-199.5 "/>
<text text-anchor="middle" x="905.5" y="-184.3" font-family="Times,serif" font-size="14.00">title_id</text>
<polyline fill="none" stroke="blue" points="831,-176.5 980,-176.5 "/>
<text text-anchor="middle" x="905.5" y="-161.3" font-family="Times,serif" font-size="14.00">twitter_tag</text>
<polyline fill="none" stroke="blue" points="831,-153.5 980,-153.5 "/>
<text text-anchor="middle" x="905.5" y="-138.3" font-family="Times,serif" font-size="14.00">upper_given_names</text>
<polyline fill="none" stroke="blue" points="831,-130.5 980,-130.5 "/>
<text text-anchor="middle" x="905.5" y="-115.3" font-family="Times,serif" font-size="14.00">upper_name</text>
<polyline fill="none" stroke="blue" points="831,-107.5 980,-107.5 "/>
<text text-anchor="middle" x="905.5" y="-92.3" font-family="Times,serif" font-size="14.00">visibility_id</text>
</g>
<!-- email_people&#45;&gt;people -->
<g id="edge11" class="edge"><title>email_people:port2&#45;&gt;people:port2</title>
<path fill="none" stroke="grey" d="M460,-651C470.371,-651 460.609,-565.276 468,-558 549.279,-477.98 902.094,-605.307 980,-522 1024.81,-474.085 1047.72,-236.918 990.826,-212.954"/>
<polygon fill="grey" stroke="grey" points="991.491,-209.518 981,-211 990.125,-216.383 991.491,-209.518"/>
</g>
<!-- genders -->
<g id="node6" class="node"><title>genders</title>
<path fill="none" stroke="blue" d="M967,-1C967,-1 1049,-1 1049,-1 1055,-1 1061,-7 1061,-13 1061,-13 1061,-35 1061,-35 1061,-41 1055,-47 1049,-47 1049,-47 967,-47 967,-47 961,-47 955,-41 955,-35 955,-35 955,-13 955,-13 955,-7 961,-1 967,-1"/>
<text text-anchor="middle" x="984.5" y="-20.3" font-family="Times,serif" font-size="14.00">genders</text>
<polyline fill="none" stroke="blue" points="1014,-1 1014,-47 "/>
<text text-anchor="middle" x="1037.5" y="-31.8" font-family="Times,serif" font-size="14.00">id</text>
<polyline fill="none" stroke="blue" points="1014,-24 1061,-24 "/>
<text text-anchor="middle" x="1037.5" y="-8.8" font-family="Times,serif" font-size="14.00">name</text>
</g>
<!-- log -->
<g id="node7" class="node"><title>log</title>
<path fill="none" stroke="blue" d="M1347,-582C1347,-582 1431,-582 1431,-582 1437,-582 1443,-588 1443,-594 1443,-594 1443,-662 1443,-662 1443,-668 1437,-674 1431,-674 1431,-674 1347,-674 1347,-674 1341,-674 1335,-668 1335,-662 1335,-662 1335,-594 1335,-594 1335,-588 1341,-582 1347,-582"/>
<text text-anchor="middle" x="1352" y="-624.3" font-family="Times,serif" font-size="14.00">log</text>
<polyline fill="none" stroke="blue" points="1369,-582 1369,-674 "/>
<text text-anchor="middle" x="1406" y="-658.8" font-family="Times,serif" font-size="14.00">id</text>
<polyline fill="none" stroke="blue" points="1369,-651 1443,-651 "/>
<text text-anchor="middle" x="1406" y="-635.8" font-family="Times,serif" font-size="14.00">level</text>
<polyline fill="none" stroke="blue" points="1369,-628 1443,-628 "/>
<text text-anchor="middle" x="1406" y="-612.8" font-family="Times,serif" font-size="14.00">message</text>
<polyline fill="none" stroke="blue" points="1369,-605 1443,-605 "/>
<text text-anchor="middle" x="1406" y="-589.8" font-family="Times,serif" font-size="14.00">timestamp</text>
</g>
<!-- notes -->
<g id="node8" class="node"><title>notes</title>
<path fill="none" stroke="blue" d="M1473,-559C1473,-559 1571,-559 1571,-559 1577,-559 1583,-565 1583,-571 1583,-571 1583,-685 1583,-685 1583,-691 1577,-697 1571,-697 1571,-697 1473,-697 1473,-697 1467,-697 1461,-691 1461,-685 1461,-685 1461,-571 1461,-571 1461,-565 1467,-559 1473,-559"/>
<text text-anchor="middle" x="1483.5" y="-624.3" font-family="Times,serif" font-size="14.00">notes</text>
<polyline fill="none" stroke="blue" points="1506,-559 1506,-697 "/>
<text text-anchor="middle" x="1544.5" y="-681.8" font-family="Times,serif" font-size="14.00">body</text>
<polyline fill="none" stroke="blue" points="1506,-674 1583,-674 "/>
<text text-anchor="middle" x="1544.5" y="-658.8" font-family="Times,serif" font-size="14.00">creator_id</text>
<polyline fill="none" stroke="blue" points="1506,-651 1583,-651 "/>
<text text-anchor="middle" x="1544.5" y="-635.8" font-family="Times,serif" font-size="14.00">entity_id</text>
<polyline fill="none" stroke="blue" points="1506,-628 1583,-628 "/>
<text text-anchor="middle" x="1544.5" y="-612.8" font-family="Times,serif" font-size="14.00">entity_type</text>
<polyline fill="none" stroke="blue" points="1506,-605 1583,-605 "/>
<text text-anchor="middle" x="1544.5" y="-589.8" font-family="Times,serif" font-size="14.00">id</text>
<polyline fill="none" stroke="blue" points="1506,-582 1583,-582 "/>
<text text-anchor="middle" x="1544.5" y="-566.8" font-family="Times,serif" font-size="14.00">timestamp</text>
</g>
<!-- occupation_titles -->
<g id="node9" class="node"><title>occupation_titles</title>
<path fill="none" stroke="blue" d="M578.5,-268.5C578.5,-268.5 747.5,-268.5 747.5,-268.5 753.5,-268.5 759.5,-274.5 759.5,-280.5 759.5,-280.5 759.5,-325.5 759.5,-325.5 759.5,-331.5 753.5,-337.5 747.5,-337.5 747.5,-337.5 578.5,-337.5 578.5,-337.5 572.5,-337.5 566.5,-331.5 566.5,-325.5 566.5,-325.5 566.5,-280.5 566.5,-280.5 566.5,-274.5 572.5,-268.5 578.5,-268.5"/>
<text text-anchor="middle" x="621" y="-299.3" font-family="Times,serif" font-size="14.00">occupation_titles</text>
<polyline fill="none" stroke="blue" points="675.5,-268.5 675.5,-337.5 "/>
<text text-anchor="middle" x="717.5" y="-322.3" font-family="Times,serif" font-size="14.00">id</text>
<polyline fill="none" stroke="blue" points="675.5,-314.5 759.5,-314.5 "/>
<text text-anchor="middle" x="717.5" y="-299.3" font-family="Times,serif" font-size="14.00">name</text>
<polyline fill="none" stroke="blue" points="675.5,-291.5 759.5,-291.5 "/>
<text text-anchor="middle" x="717.5" y="-276.3" font-family="Times,serif" font-size="14.00">upper_name</text>
</g>
<!-- occupations -->
<g id="node10" class="node"><title>occupations</title>
<path fill="none" stroke="blue" d="M489,-570.5C489,-570.5 667,-570.5 667,-570.5 673,-570.5 679,-576.5 679,-582.5 679,-582.5 679,-673.5 679,-673.5 679,-679.5 673,-685.5 667,-685.5 667,-685.5 489,-685.5 489,-685.5 483,-685.5 477,-679.5 477,-673.5 477,-673.5 477,-582.5 477,-582.5 477,-576.5 483,-570.5 489,-570.5"/>
<text text-anchor="middle" x="517.5" y="-624.3" font-family="Times,serif" font-size="14.00">occupations</text>
<polyline fill="none" stroke="blue" points="558,-570.5 558,-685.5 "/>
<text text-anchor="middle" x="618.5" y="-670.3" font-family="Times,serif" font-size="14.00">creator_id</text>
<polyline fill="none" stroke="blue" points="558,-662.5 679,-662.5 "/>
<text text-anchor="middle" x="618.5" y="-647.3" font-family="Times,serif" font-size="14.00">id</text>
<polyline fill="none" stroke="blue" points="558,-639.5 679,-639.5 "/>
<text text-anchor="middle" x="618.5" y="-624.3" font-family="Times,serif" font-size="14.00">occupation_title_id</text>
<polyline fill="none" stroke="blue" points="558,-616.5 679,-616.5 "/>
<text text-anchor="middle" x="618.5" y="-601.3" font-family="Times,serif" font-size="14.00">organization_id</text>
<polyline fill="none" stroke="blue" points="558,-593.5 679,-593.5 "/>
<text text-anchor="middle" x="618.5" y="-578.3" font-family="Times,serif" font-size="14.00">person_id</text>
</g>
<!-- occupations&#45;&gt;occupation_titles -->
<g id="edge7" class="edge"><title>occupations:port2&#45;&gt;occupation_titles:port2</title>
<path fill="none" stroke="grey" d="M680,-674C686.46,-674 687.339,-564.426 688,-558 697.699,-463.709 716.61,-438.954 717.927,-349.089"/>
<polygon fill="grey" stroke="grey" points="721.428,-349.025 718,-339 714.428,-348.974 721.428,-349.025"/>
</g>
<!-- occupations&#45;&gt;organizations -->
<g id="edge9" class="edge"><title>occupations:port2&#45;&gt;organizations:port2</title>
<path fill="none" stroke="grey" d="M619,-687C619,-713.67 660.299,-705.015 679,-686 688.038,-676.811 686.256,-580.652 679,-570 646.197,-521.843 590.495,-569.679 557,-522 549.153,-510.83 561.037,-301.672 553.096,-254.429"/>
<polygon fill="grey" stroke="grey" points="556.195,-252.777 549,-245 549.775,-255.566 556.195,-252.777"/>
</g>
<!-- occupations&#45;&gt;people -->
<g id="edge12" class="edge"><title>occupations:port2&#45;&gt;people:port2</title>
<path fill="none" stroke="grey" d="M680,-674C692.92,-674 679.114,-567.378 688,-558 777.941,-463.084 893.222,-619.816 980,-522 1069.4,-421.227 1116.78,-221.475 991.172,-211.396"/>
<polygon fill="grey" stroke="grey" points="991.129,-207.892 981,-211 990.856,-214.887 991.129,-207.892"/>
</g>
<!-- organizations&#45;&gt;communication_types -->
<g id="edge1" class="edge"><title>organizations:port2&#45;&gt;communication_types:port2</title>
<path fill="none" stroke="grey" d="M549,-245C566.911,-245 544.944,-97.2456 557,-84 592.135,-45.3997 778.694,-96.2257 803.317,-57.6524"/>
<polygon fill="grey" stroke="grey" points="806.694,-58.5721 806,-48 799.949,-56.6971 806.694,-58.5721"/>
</g>
<!-- roles -->
<g id="node19" class="node"><title>roles</title>
<path fill="none" stroke="blue" d="M411,-1C411,-1 477,-1 477,-1 483,-1 489,-7 489,-13 489,-13 489,-35 489,-35 489,-41 483,-47 477,-47 477,-47 411,-47 411,-47 405,-47 399,-41 399,-35 399,-35 399,-13 399,-13 399,-7 405,-1 411,-1"/>
<text text-anchor="middle" x="420.5" y="-20.3" font-family="Times,serif" font-size="14.00">roles</text>
<polyline fill="none" stroke="blue" points="442,-1 442,-47 "/>
<text text-anchor="middle" x="465.5" y="-31.8" font-family="Times,serif" font-size="14.00">id</text>
<polyline fill="none" stroke="blue" points="442,-24 489,-24 "/>
<text text-anchor="middle" x="465.5" y="-8.8" font-family="Times,serif" font-size="14.00">name</text>
</g>
<!-- organizations&#45;&gt;roles -->
<g id="edge18" class="edge"><title>organizations:port2&#45;&gt;roles:port2</title>
<path fill="none" stroke="grey" d="M549,-245C558.001,-245 550.779,-172.561 548,-164 529.613,-107.349 472.943,-110.538 466.582,-58.0764"/>
<polygon fill="grey" stroke="grey" points="470.071,-57.7813 466,-48 463.083,-58.1853 470.071,-57.7813"/>
</g>
<!-- visibilities -->
<g id="node23" class="node"><title>visibilities</title>
<path fill="none" stroke="blue" d="M519,-1C519,-1 615,-1 615,-1 621,-1 627,-7 627,-13 627,-13 627,-35 627,-35 627,-41 621,-47 615,-47 615,-47 519,-47 519,-47 513,-47 507,-41 507,-35 507,-35 507,-13 507,-13 507,-7 513,-1 519,-1"/>
<text text-anchor="middle" x="543.5" y="-20.3" font-family="Times,serif" font-size="14.00">visibilities</text>
<polyline fill="none" stroke="blue" points="580,-1 580,-47 "/>
<text text-anchor="middle" x="603.5" y="-31.8" font-family="Times,serif" font-size="14.00">id</text>
<polyline fill="none" stroke="blue" points="580,-24 627,-24 "/>
<text text-anchor="middle" x="603.5" y="-8.8" font-family="Times,serif" font-size="14.00">name</text>
</g>
<!-- organizations&#45;&gt;visibilities -->
<g id="edge21" class="edge"><title>organizations:port2&#45;&gt;visibilities:port2</title>
<path fill="none" stroke="grey" d="M549,-245C557.955,-245 552.838,-91.9293 557,-84 567.223,-64.5247 593.198,-70.8401 601.445,-58.0662"/>
<polygon fill="grey" stroke="grey" points="604.933,-58.5537 604,-48 598.148,-56.8318 604.933,-58.5537"/>
</g>
<!-- people&#45;&gt;communication_types -->
<g id="edge2" class="edge"><title>people:port2&#45;&gt;communication_types:port2</title>
<path fill="none" stroke="grey" d="M981,-211C1037.45,-211 1015.81,-127.63 980,-84 932.341,-25.9401 817.923,-117.207 806.863,-58.2998"/>
<polygon fill="grey" stroke="grey" points="810.323,-57.6728 806,-48 803.347,-58.2574 810.323,-57.6728"/>
</g>
<!-- people&#45;&gt;genders -->
<g id="edge6" class="edge"><title>people:port2&#45;&gt;genders:port2</title>
<path fill="none" stroke="grey" d="M981,-211C1054.3,-211 1039.58,-132.321 1038.11,-58.3916"/>
<polygon fill="grey" stroke="grey" points="1041.6,-57.9627 1038,-48 1034.61,-58.0362 1041.6,-57.9627"/>
</g>
<!-- people&#45;&gt;roles -->
<g id="edge19" class="edge"><title>people:port2&#45;&gt;roles:port2</title>
<path fill="none" stroke="grey" d="M981,-211C1037.45,-211 1018.56,-125.222 980,-84 906.624,-5.56068 590.746,-102.176 498,-48 496.616,-47.1917 495.825,-46.0376 495.316,-44.7611"/>
<polygon fill="grey" stroke="grey" points="498.18,-42.7334 490,-36 492.196,-46.3648 498.18,-42.7334"/>
</g>
<!-- titles -->
<g id="node22" class="node"><title>titles</title>
<path fill="none" stroke="blue" d="M859,-1C859,-1 925,-1 925,-1 931,-1 937,-7 937,-13 937,-13 937,-35 937,-35 937,-41 931,-47 925,-47 925,-47 859,-47 859,-47 853,-47 847,-41 847,-35 847,-35 847,-13 847,-13 847,-7 853,-1 859,-1"/>
<text text-anchor="middle" x="868.5" y="-20.3" font-family="Times,serif" font-size="14.00">titles</text>
<polyline fill="none" stroke="blue" points="890,-1 890,-47 "/>
<text text-anchor="middle" x="913.5" y="-31.8" font-family="Times,serif" font-size="14.00">id</text>
<polyline fill="none" stroke="blue" points="890,-24 937,-24 "/>
<text text-anchor="middle" x="913.5" y="-8.8" font-family="Times,serif" font-size="14.00">name</text>
</g>
<!-- people&#45;&gt;titles -->
<g id="edge20" class="edge"><title>people:port2&#45;&gt;titles:port2</title>
<path fill="none" stroke="grey" d="M981,-211C1037.45,-211 1009,-132.424 980,-84 964.977,-58.9184 925.713,-75.7491 916.132,-57.9644"/>
<polygon fill="grey" stroke="grey" points="919.515,-57.0465 914,-48 912.67,-58.511 919.515,-57.0465"/>
</g>
<!-- people&#45;&gt;visibilities -->
<g id="edge22" class="edge"><title>people:port2&#45;&gt;visibilities:port2</title>
<path fill="none" stroke="grey" d="M981,-211C1037.45,-211 1017.94,-125.79 980,-84 928.332,-27.095 701.785,-87.7501 636,-48 634.628,-47.1713 633.843,-46.0069 633.337,-44.7265"/>
<polygon fill="grey" stroke="grey" points="636.203,-42.705 628,-36 630.232,-46.3572 636.203,-42.705"/>
</g>
<!-- phone_number_types -->
<g id="node13" class="node"><title>phone_number_types</title>
<path fill="none" stroke="blue" d="M1108.5,-1C1108.5,-1 1265.5,-1 1265.5,-1 1271.5,-1 1277.5,-7 1277.5,-13 1277.5,-13 1277.5,-35 1277.5,-35 1277.5,-41 1271.5,-47 1265.5,-47 1265.5,-47 1108.5,-47 1108.5,-47 1102.5,-47 1096.5,-41 1096.5,-35 1096.5,-35 1096.5,-13 1096.5,-13 1096.5,-7 1102.5,-1 1108.5,-1"/>
<text text-anchor="middle" x="1163.5" y="-20.3" font-family="Times,serif" font-size="14.00">phone_number_types</text>
<polyline fill="none" stroke="blue" points="1230.5,-1 1230.5,-47 "/>
<text text-anchor="middle" x="1254" y="-31.8" font-family="Times,serif" font-size="14.00">id</text>
<polyline fill="none" stroke="blue" points="1230.5,-24 1277.5,-24 "/>
<text text-anchor="middle" x="1254" y="-8.8" font-family="Times,serif" font-size="14.00">name</text>
</g>
<!-- phone_numbers -->
<g id="node14" class="node"><title>phone_numbers</title>
<path fill="none" stroke="blue" d="M1089,-257C1089,-257 1315,-257 1315,-257 1321,-257 1327,-263 1327,-269 1327,-269 1327,-337 1327,-337 1327,-343 1321,-349 1315,-349 1315,-349 1089,-349 1089,-349 1083,-349 1077,-343 1077,-337 1077,-337 1077,-269 1077,-269 1077,-263 1083,-257 1089,-257"/>
<text text-anchor="middle" x="1129" y="-299.3" font-family="Times,serif" font-size="14.00">phone_numbers</text>
<polyline fill="none" stroke="blue" points="1181,-257 1181,-349 "/>
<text text-anchor="middle" x="1254" y="-333.8" font-family="Times,serif" font-size="14.00">id</text>
<polyline fill="none" stroke="blue" points="1181,-326 1327,-326 "/>
<text text-anchor="middle" x="1254" y="-310.8" font-family="Times,serif" font-size="14.00">number</text>
<polyline fill="none" stroke="blue" points="1181,-303 1327,-303 "/>
<text text-anchor="middle" x="1254" y="-287.8" font-family="Times,serif" font-size="14.00">phone_number_type_id</text>
<polyline fill="none" stroke="blue" points="1181,-280 1327,-280 "/>
<text text-anchor="middle" x="1254" y="-264.8" font-family="Times,serif" font-size="14.00">upper_number</text>
</g>
<!-- phone_numbers&#45;&gt;phone_number_types -->
<g id="edge15" class="edge"><title>phone_numbers:port2&#45;&gt;phone_number_types:port2</title>
<path fill="none" stroke="grey" d="M1254,-350C1254,-366.002 1314.76,-360.393 1326,-349 1355.02,-319.571 1332.86,-296.761 1326,-256 1310.35,-162.92 1257.87,-146.892 1254.2,-58.0129"/>
<polygon fill="grey" stroke="grey" points="1257.7,-57.9271 1254,-48 1250.7,-58.0688 1257.7,-57.9271"/>
</g>
<!-- phone_organizations -->
<g id="node15" class="node"><title>phone_organizations</title>
<path fill="none" stroke="blue" d="M709.5,-593.5C709.5,-593.5 930.5,-593.5 930.5,-593.5 936.5,-593.5 942.5,-599.5 942.5,-605.5 942.5,-605.5 942.5,-650.5 942.5,-650.5 942.5,-656.5 936.5,-662.5 930.5,-662.5 930.5,-662.5 709.5,-662.5 709.5,-662.5 703.5,-662.5 697.5,-656.5 697.5,-650.5 697.5,-650.5 697.5,-605.5 697.5,-605.5 697.5,-599.5 703.5,-593.5 709.5,-593.5"/>
<text text-anchor="middle" x="762" y="-624.3" font-family="Times,serif" font-size="14.00">phone_organizations</text>
<polyline fill="none" stroke="blue" points="826.5,-593.5 826.5,-662.5 "/>
<text text-anchor="middle" x="884.5" y="-647.3" font-family="Times,serif" font-size="14.00">id</text>
<polyline fill="none" stroke="blue" points="826.5,-639.5 942.5,-639.5 "/>
<text text-anchor="middle" x="884.5" y="-624.3" font-family="Times,serif" font-size="14.00">organization_id</text>
<polyline fill="none" stroke="blue" points="826.5,-616.5 942.5,-616.5 "/>
<text text-anchor="middle" x="884.5" y="-601.3" font-family="Times,serif" font-size="14.00">phone_number_id</text>
</g>
<!-- phone_organizations&#45;&gt;organizations -->
<g id="edge10" class="edge"><title>phone_organizations:port2&#45;&gt;organizations:port2</title>
<path fill="none" stroke="grey" d="M885,-664C885,-689.337 924.242,-681.073 942,-663 952.903,-651.905 951.952,-604.955 942,-593 886.34,-526.137 613.619,-588.053 557,-522 548.116,-511.635 560.802,-301.855 553.056,-254.46"/>
<polygon fill="grey" stroke="grey" points="556.158,-252.811 549,-245 549.724,-255.57 556.158,-252.811"/>
</g>
<!-- phone_organizations&#45;&gt;phone_numbers -->
<g id="edge16" class="edge"><title>phone_organizations:port2&#45;&gt;phone_numbers:port2</title>
<path fill="none" stroke="grey" d="M944,-651C954.371,-651 946.786,-566.966 952,-558 991.205,-490.584 1231.97,-436.334 1252.59,-360.367"/>
<polygon fill="grey" stroke="grey" points="1256.12,-360.38 1254,-350 1249.19,-359.438 1256.12,-360.38"/>
</g>
<!-- phone_people -->
<g id="node16" class="node"><title>phone_people</title>
<path fill="none" stroke="blue" d="M1121,-593.5C1121,-593.5 1305,-593.5 1305,-593.5 1311,-593.5 1317,-599.5 1317,-605.5 1317,-605.5 1317,-650.5 1317,-650.5 1317,-656.5 1311,-662.5 1305,-662.5 1305,-662.5 1121,-662.5 1121,-662.5 1115,-662.5 1109,-656.5 1109,-650.5 1109,-650.5 1109,-605.5 1109,-605.5 1109,-599.5 1115,-593.5 1121,-593.5"/>
<text text-anchor="middle" x="1155" y="-624.3" font-family="Times,serif" font-size="14.00">phone_people</text>
<polyline fill="none" stroke="blue" points="1201,-593.5 1201,-662.5 "/>
<text text-anchor="middle" x="1259" y="-647.3" font-family="Times,serif" font-size="14.00">id</text>
<polyline fill="none" stroke="blue" points="1201,-639.5 1317,-639.5 "/>
<text text-anchor="middle" x="1259" y="-624.3" font-family="Times,serif" font-size="14.00">person_id</text>
<polyline fill="none" stroke="blue" points="1201,-616.5 1317,-616.5 "/>
<text text-anchor="middle" x="1259" y="-601.3" font-family="Times,serif" font-size="14.00">phone_number_id</text>
</g>
<!-- phone_people&#45;&gt;people -->
<g id="edge13" class="edge"><title>phone_people:port2&#45;&gt;people:port2</title>
<path fill="none" stroke="grey" d="M1259,-664C1259,-689.782 1298.93,-681.387 1317,-663 1327.9,-651.906 1326.37,-605.416 1317,-593 1247.68,-501.146 1149.17,-603.575 1068,-522 969.334,-422.84 1116.68,-221.557 991.359,-211.4"/>
<polygon fill="grey" stroke="grey" points="991.127,-207.888 981,-211 990.858,-214.883 991.127,-207.888"/>
</g>
<!-- phone_people&#45;&gt;phone_numbers -->
<g id="edge17" class="edge"><title>phone_people:port2&#45;&gt;phone_numbers:port2</title>
<path fill="none" stroke="grey" d="M1259,-664C1259,-689.782 1298.93,-681.387 1317,-663 1327.9,-651.906 1318.97,-608.431 1317,-593 1303.33,-485.784 1257.02,-462.956 1254.14,-360.199"/>
<polygon fill="grey" stroke="grey" points="1257.64,-359.951 1254,-350 1250.64,-360.047 1257.64,-359.951"/>
</g>
<!-- report_entities -->
<g id="node17" class="node"><title>report_entities</title>
<path fill="none" stroke="blue" d="M1613,-605C1613,-605 1731,-605 1731,-605 1737,-605 1743,-611 1743,-617 1743,-617 1743,-639 1743,-639 1743,-645 1737,-651 1731,-651 1731,-651 1613,-651 1613,-651 1607,-651 1601,-645 1601,-639 1601,-639 1601,-617 1601,-617 1601,-611 1607,-605 1613,-605"/>
<text text-anchor="middle" x="1648.5" y="-624.3" font-family="Times,serif" font-size="14.00">report_entities</text>
<polyline fill="none" stroke="blue" points="1696,-605 1696,-651 "/>
<text text-anchor="middle" x="1719.5" y="-635.8" font-family="Times,serif" font-size="14.00">id</text>
<polyline fill="none" stroke="blue" points="1696,-628 1743,-628 "/>
<text text-anchor="middle" x="1719.5" y="-612.8" font-family="Times,serif" font-size="14.00">name</text>
</g>
<!-- reports -->
<g id="node18" class="node"><title>reports</title>
<path fill="none" stroke="blue" d="M1773.5,-605C1773.5,-605 1850.5,-605 1850.5,-605 1856.5,-605 1862.5,-611 1862.5,-617 1862.5,-617 1862.5,-639 1862.5,-639 1862.5,-645 1856.5,-651 1850.5,-651 1850.5,-651 1773.5,-651 1773.5,-651 1767.5,-651 1761.5,-645 1761.5,-639 1761.5,-639 1761.5,-617 1761.5,-617 1761.5,-611 1767.5,-605 1773.5,-605"/>
<text text-anchor="middle" x="1788.5" y="-624.3" font-family="Times,serif" font-size="14.00">reports</text>
<polyline fill="none" stroke="blue" points="1815.5,-605 1815.5,-651 "/>
<text text-anchor="middle" x="1839" y="-635.8" font-family="Times,serif" font-size="14.00">id</text>
<polyline fill="none" stroke="blue" points="1815.5,-628 1862.5,-628 "/>
<text text-anchor="middle" x="1839" y="-612.8" font-family="Times,serif" font-size="14.00">name</text>
</g>
<!-- sessions -->
<g id="node20" class="node"><title>sessions</title>
<path fill="none" stroke="blue" d="M1892.5,-605C1892.5,-605 1997.5,-605 1997.5,-605 2003.5,-605 2009.5,-611 2009.5,-617 2009.5,-617 2009.5,-639 2009.5,-639 2009.5,-645 2003.5,-651 1997.5,-651 1997.5,-651 1892.5,-651 1892.5,-651 1886.5,-651 1880.5,-645 1880.5,-639 1880.5,-639 1880.5,-617 1880.5,-617 1880.5,-611 1886.5,-605 1892.5,-605"/>
<text text-anchor="middle" x="1911" y="-624.3" font-family="Times,serif" font-size="14.00">sessions</text>
<polyline fill="none" stroke="blue" points="1941.5,-605 1941.5,-651 "/>
<text text-anchor="middle" x="1975.5" y="-635.8" font-family="Times,serif" font-size="14.00">a_session</text>
<polyline fill="none" stroke="blue" points="1941.5,-628 2009.5,-628 "/>
<text text-anchor="middle" x="1975.5" y="-612.8" font-family="Times,serif" font-size="14.00">id</text>
</g>
<!-- spouses -->
<g id="node21" class="node"><title>spouses</title>
<path fill="none" stroke="blue" d="M973,-593.5C973,-593.5 1079,-593.5 1079,-593.5 1085,-593.5 1091,-599.5 1091,-605.5 1091,-605.5 1091,-650.5 1091,-650.5 1091,-656.5 1085,-662.5 1079,-662.5 1079,-662.5 973,-662.5 973,-662.5 967,-662.5 961,-656.5 961,-650.5 961,-650.5 961,-605.5 961,-605.5 961,-599.5 967,-593.5 973,-593.5"/>
<text text-anchor="middle" x="990.5" y="-624.3" font-family="Times,serif" font-size="14.00">spouses</text>
<polyline fill="none" stroke="blue" points="1020,-593.5 1020,-662.5 "/>
<text text-anchor="middle" x="1055.5" y="-647.3" font-family="Times,serif" font-size="14.00">id</text>
<polyline fill="none" stroke="blue" points="1020,-639.5 1091,-639.5 "/>
<text text-anchor="middle" x="1055.5" y="-624.3" font-family="Times,serif" font-size="14.00">person_id</text>
<polyline fill="none" stroke="blue" points="1020,-616.5 1091,-616.5 "/>
<text text-anchor="middle" x="1055.5" y="-601.3" font-family="Times,serif" font-size="14.00">spouse_id</text>
</g>
<!-- spouses&#45;&gt;people -->
<g id="edge14" class="edge"><title>spouses:port2&#45;&gt;people:port2</title>
<path fill="none" stroke="grey" d="M1056,-664C1056,-679.562 1080.15,-674.16 1091,-663 1101.84,-651.845 1093.43,-608.365 1091,-593 1085.83,-560.236 1077.58,-553.756 1068,-522 1027.55,-387.944 1119.83,-219.454 991.086,-211.307"/>
<polygon fill="grey" stroke="grey" points="991.102,-207.806 981,-211 990.889,-214.803 991.102,-207.806"/>
</g>
<!-- yes_noes -->
<g id="node24" class="node"><title>yes_noes</title>
<path fill="none" stroke="blue" d="M2039.5,-605C2039.5,-605 2128.5,-605 2128.5,-605 2134.5,-605 2140.5,-611 2140.5,-617 2140.5,-617 2140.5,-639 2140.5,-639 2140.5,-645 2134.5,-651 2128.5,-651 2128.5,-651 2039.5,-651 2039.5,-651 2033.5,-651 2027.5,-645 2027.5,-639 2027.5,-639 2027.5,-617 2027.5,-617 2027.5,-611 2033.5,-605 2039.5,-605"/>
<text text-anchor="middle" x="2060.5" y="-624.3" font-family="Times,serif" font-size="14.00">yes_noes</text>
<polyline fill="none" stroke="blue" points="2093.5,-605 2093.5,-651 "/>
<text text-anchor="middle" x="2117" y="-635.8" font-family="Times,serif" font-size="14.00">id</text>
<polyline fill="none" stroke="blue" points="2093.5,-628 2140.5,-628 "/>
<text text-anchor="middle" x="2117" y="-612.8" font-family="Times,serif" font-size="14.00">name</text>
</g>
</g>
</svg>
