<?xml version="1.0" encoding="UTF-8" standalone="no"?>
<!DOCTYPE svg PUBLIC "-//W3C//DTD SVG 1.1//EN"
 "http://www.w3.org/Graphics/SVG/1.1/DTD/svg11.dtd">
<!-- Generated by graphviz version 2.29.20121107.0545 (20121107.0545)
 -->
<!-- Title: Perl Pages: 1 -->
<svg width="1482pt" height="582pt"
 viewBox="0.00 0.00 1482.00 582.00" xmlns="http://www.w3.org/2000/svg" xmlns:xlink="http://www.w3.org/1999/xlink">
<g id="graph0" class="graph" transform="scale(1 1) rotate(0) translate(4 578)">
<title>Perl</title>
<polygon fill="white" stroke="white" points="-4,5 -4,-578 1479,-578 1479,5 -4,5"/>
<!-- communication_types -->
<g id="node1" class="node"><title>communication_types</title>
<polygon fill="none" stroke="blue" points="324.5,-0.5 324.5,-61.5 461.5,-61.5 461.5,-0.5 324.5,-0.5"/>
<text text-anchor="middle" x="393" y="-46.3" font-family="Times,serif" font-size="14.00">communication_types</text>
<polyline fill="none" stroke="blue" points="324.5,-38.5 461.5,-38.5 "/>
<text text-anchor="start" x="332.5" y="-23.3" font-family="Times,serif" font-size="14.00">1: id</text>
<text text-anchor="start" x="332.5" y="-8.3" font-family="Times,serif" font-size="14.00">2: name</text>
</g>
<!-- email_address_types -->
<g id="node2" class="node"><title>email_address_types</title>
<polygon fill="none" stroke="blue" points="13,-0.5 13,-61.5 143,-61.5 143,-0.5 13,-0.5"/>
<text text-anchor="middle" x="78" y="-46.3" font-family="Times,serif" font-size="14.00">email_address_types</text>
<polyline fill="none" stroke="blue" points="13,-38.5 143,-38.5 "/>
<text text-anchor="start" x="21" y="-23.3" font-family="Times,serif" font-size="14.00">1: id</text>
<text text-anchor="start" x="21" y="-8.3" font-family="Times,serif" font-size="14.00">2: name</text>
</g>
<!-- email_addresses -->
<g id="node3" class="node"><title>email_addresses</title>
<polygon fill="none" stroke="blue" points="0,-211.5 0,-302.5 156,-302.5 156,-211.5 0,-211.5"/>
<text text-anchor="middle" x="78" y="-287.3" font-family="Times,serif" font-size="14.00">email_addresses</text>
<polyline fill="none" stroke="blue" points="0,-279.5 156,-279.5 "/>
<text text-anchor="start" x="8" y="-264.3" font-family="Times,serif" font-size="14.00">1: address</text>
<text text-anchor="start" x="8" y="-249.3" font-family="Times,serif" font-size="14.00">2: email_address_type_id</text>
<text text-anchor="start" x="8" y="-234.3" font-family="Times,serif" font-size="14.00">3: id</text>
<text text-anchor="start" x="8" y="-219.3" font-family="Times,serif" font-size="14.00">4: upper_address</text>
</g>
<!-- email_addresses&#45;&gt;email_address_types -->
<g id="edge1" class="edge"><title>email_addresses:port2&#45;&gt;email_address_types:port2</title>
<path fill="none" stroke="grey" d="M78,-210C78,-124.045 220.711,-27.6747 154.249,-19.5515"/>
<polygon fill="grey" stroke="grey" points="154.174,-16.0425 144,-19 153.797,-23.0324 154.174,-16.0425"/>
</g>
<!-- email_organizations -->
<g id="node4" class="node"><title>email_organizations</title>
<polygon fill="none" stroke="blue" points="17.5,-475 17.5,-551 144.5,-551 144.5,-475 17.5,-475"/>
<text text-anchor="middle" x="81" y="-535.8" font-family="Times,serif" font-size="14.00">email_organizations</text>
<polyline fill="none" stroke="blue" points="17.5,-528 144.5,-528 "/>
<text text-anchor="start" x="25.5" y="-512.8" font-family="Times,serif" font-size="14.00">1: email_address_id</text>
<text text-anchor="start" x="25.5" y="-497.8" font-family="Times,serif" font-size="14.00">2: id</text>
<text text-anchor="start" x="25.5" y="-482.8" font-family="Times,serif" font-size="14.00">3: organization_id</text>
</g>
<!-- email_organizations&#45;&gt;email_addresses -->
<g id="edge2" class="edge"><title>email_organizations:port2&#45;&gt;email_addresses:port2</title>
<path fill="none" stroke="grey" d="M81,-474C81,-391.011 138.271,-384.073 156,-303 158.001,-293.85 164.427,-267.378 162.848,-253.586"/>
<polygon fill="grey" stroke="grey" points="165.522,-251.295 157,-245 159.736,-255.235 165.522,-251.295"/>
</g>
<!-- organizations -->
<g id="node11" class="node"><title>organizations</title>
<polygon fill="none" stroke="blue" points="302,-151.5 302,-362.5 466,-362.5 466,-151.5 302,-151.5"/>
<text text-anchor="middle" x="384" y="-347.3" font-family="Times,serif" font-size="14.00">organizations</text>
<polyline fill="none" stroke="blue" points="302,-339.5 466,-339.5 "/>
<text text-anchor="start" x="310" y="-324.3" font-family="Times,serif" font-size="14.00">1: communication_type_id</text>
<text text-anchor="start" x="310" y="-309.3" font-family="Times,serif" font-size="14.00">2: creator_id</text>
<text text-anchor="start" x="310" y="-294.3" font-family="Times,serif" font-size="14.00">3: deleted</text>
<text text-anchor="start" x="310" y="-279.3" font-family="Times,serif" font-size="14.00">4: facebook_tag</text>
<text text-anchor="start" x="310" y="-264.3" font-family="Times,serif" font-size="14.00">5: homepage</text>
<text text-anchor="start" x="310" y="-249.3" font-family="Times,serif" font-size="14.00">6: id</text>
<text text-anchor="start" x="310" y="-234.3" font-family="Times,serif" font-size="14.00">7: name</text>
<text text-anchor="start" x="310" y="-219.3" font-family="Times,serif" font-size="14.00">8: role_id</text>
<text text-anchor="start" x="310" y="-204.3" font-family="Times,serif" font-size="14.00">9: timestamp</text>
<text text-anchor="start" x="310" y="-189.3" font-family="Times,serif" font-size="14.00">10: twitter_tag</text>
<text text-anchor="start" x="310" y="-174.3" font-family="Times,serif" font-size="14.00">11: upper_name</text>
<text text-anchor="start" x="310" y="-159.3" font-family="Times,serif" font-size="14.00">12: visibility_id</text>
</g>
<!-- email_organizations&#45;&gt;organizations -->
<g id="edge3" class="edge"><title>email_organizations:port2&#45;&gt;organizations:port2</title>
<path fill="none" stroke="grey" d="M146,-501C168.649,-501 143.888,-467.919 160,-452 203.257,-409.261 253.831,-463.339 292,-416 302.263,-403.271 287.482,-286.132 295.197,-253.439"/>
<polygon fill="grey" stroke="grey" points="298.218,-255.223 301,-245 292.45,-251.257 298.218,-255.223"/>
</g>
<!-- email_people -->
<g id="node5" class="node"><title>email_people</title>
<polygon fill="none" stroke="blue" points="169,-475 169,-551 295,-551 295,-475 169,-475"/>
<text text-anchor="middle" x="232" y="-535.8" font-family="Times,serif" font-size="14.00">email_people</text>
<polyline fill="none" stroke="blue" points="169,-528 295,-528 "/>
<text text-anchor="start" x="177" y="-512.8" font-family="Times,serif" font-size="14.00">1: email_address_id</text>
<text text-anchor="start" x="177" y="-497.8" font-family="Times,serif" font-size="14.00">2: id</text>
<text text-anchor="start" x="177" y="-482.8" font-family="Times,serif" font-size="14.00">3: person_id</text>
</g>
<!-- email_people&#45;&gt;email_addresses -->
<g id="edge4" class="edge"><title>email_people:port2&#45;&gt;email_addresses:port2</title>
<path fill="none" stroke="grey" d="M168,-501C155.405,-501 167.63,-300.601 160.755,-254.415"/>
<polygon fill="grey" stroke="grey" points="163.956,-252.992 157,-245 157.454,-255.585 163.956,-252.992"/>
</g>
<!-- people -->
<g id="node12" class="node"><title>people</title>
<polygon fill="none" stroke="blue" points="484,-99 484,-415 648,-415 648,-99 484,-99"/>
<text text-anchor="middle" x="566" y="-399.8" font-family="Times,serif" font-size="14.00">people</text>
<polyline fill="none" stroke="blue" points="484,-392 648,-392 "/>
<text text-anchor="start" x="492" y="-376.8" font-family="Times,serif" font-size="14.00">1: communication_type_id</text>
<text text-anchor="start" x="492" y="-361.8" font-family="Times,serif" font-size="14.00">2: creator_id</text>
<text text-anchor="start" x="492" y="-346.8" font-family="Times,serif" font-size="14.00">3: date_of_birth</text>
<text text-anchor="start" x="492" y="-331.8" font-family="Times,serif" font-size="14.00">4: deleted</text>
<text text-anchor="start" x="492" y="-316.8" font-family="Times,serif" font-size="14.00">5: facebook_tag</text>
<text text-anchor="start" x="492" y="-301.8" font-family="Times,serif" font-size="14.00">6: gender_id</text>
<text text-anchor="start" x="492" y="-286.8" font-family="Times,serif" font-size="14.00">7: given_names</text>
<text text-anchor="start" x="492" y="-271.8" font-family="Times,serif" font-size="14.00">8: homepage</text>
<text text-anchor="start" x="492" y="-256.8" font-family="Times,serif" font-size="14.00">9: id</text>
<text text-anchor="start" x="492" y="-241.8" font-family="Times,serif" font-size="14.00">10: name</text>
<text text-anchor="start" x="492" y="-226.8" font-family="Times,serif" font-size="14.00">11: preferred_name</text>
<text text-anchor="start" x="492" y="-211.8" font-family="Times,serif" font-size="14.00">12: role_id</text>
<text text-anchor="start" x="492" y="-196.8" font-family="Times,serif" font-size="14.00">13: surname</text>
<text text-anchor="start" x="492" y="-181.8" font-family="Times,serif" font-size="14.00">14: timestamp</text>
<text text-anchor="start" x="492" y="-166.8" font-family="Times,serif" font-size="14.00">15: title_id</text>
<text text-anchor="start" x="492" y="-151.8" font-family="Times,serif" font-size="14.00">16: twitter_tag</text>
<text text-anchor="start" x="492" y="-136.8" font-family="Times,serif" font-size="14.00">17: upper_given_names</text>
<text text-anchor="start" x="492" y="-121.8" font-family="Times,serif" font-size="14.00">18: upper_name</text>
<text text-anchor="start" x="492" y="-106.8" font-family="Times,serif" font-size="14.00">19: visibility_id</text>
</g>
<!-- email_people&#45;&gt;people -->
<g id="edge5" class="edge"><title>email_people:port2&#45;&gt;people:port2</title>
<path fill="none" stroke="grey" d="M296,-501C318.32,-501 291.141,-467.705 307,-452 361.258,-398.268 425.618,-474.246 475,-416 485.571,-403.532 469.834,-286.206 477.271,-253.454"/>
<polygon fill="grey" stroke="grey" points="480.287,-255.242 483,-245 474.493,-251.315 480.287,-255.242"/>
</g>
<!-- genders -->
<g id="node6" class="node"><title>genders</title>
<polygon fill="none" stroke="blue" points="637.5,-0.5 637.5,-61.5 698.5,-61.5 698.5,-0.5 637.5,-0.5"/>
<text text-anchor="middle" x="668" y="-46.3" font-family="Times,serif" font-size="14.00">genders</text>
<polyline fill="none" stroke="blue" points="637.5,-38.5 698.5,-38.5 "/>
<text text-anchor="start" x="645.5" y="-23.3" font-family="Times,serif" font-size="14.00">1: id</text>
<text text-anchor="start" x="645.5" y="-8.3" font-family="Times,serif" font-size="14.00">2: name</text>
</g>
<!-- log -->
<g id="node7" class="node"><title>log</title>
<polygon fill="none" stroke="blue" points="896.5,-467.5 896.5,-558.5 985.5,-558.5 985.5,-467.5 896.5,-467.5"/>
<text text-anchor="middle" x="941" y="-543.3" font-family="Times,serif" font-size="14.00">log</text>
<polyline fill="none" stroke="blue" points="896.5,-535.5 985.5,-535.5 "/>
<text text-anchor="start" x="904.5" y="-520.3" font-family="Times,serif" font-size="14.00">1: id</text>
<text text-anchor="start" x="904.5" y="-505.3" font-family="Times,serif" font-size="14.00">2: level</text>
<text text-anchor="start" x="904.5" y="-490.3" font-family="Times,serif" font-size="14.00">3: message</text>
<text text-anchor="start" x="904.5" y="-475.3" font-family="Times,serif" font-size="14.00">4: timestamp</text>
</g>
<!-- notes -->
<g id="node8" class="node"><title>notes</title>
<polygon fill="none" stroke="blue" points="1004,-452.5 1004,-573.5 1096,-573.5 1096,-452.5 1004,-452.5"/>
<text text-anchor="middle" x="1050" y="-558.3" font-family="Times,serif" font-size="14.00">notes</text>
<polyline fill="none" stroke="blue" points="1004,-550.5 1096,-550.5 "/>
<text text-anchor="start" x="1012" y="-535.3" font-family="Times,serif" font-size="14.00">1: body</text>
<text text-anchor="start" x="1012" y="-520.3" font-family="Times,serif" font-size="14.00">2: creator_id</text>
<text text-anchor="start" x="1012" y="-505.3" font-family="Times,serif" font-size="14.00">3: entity_id</text>
<text text-anchor="start" x="1012" y="-490.3" font-family="Times,serif" font-size="14.00">4: entity_type</text>
<text text-anchor="start" x="1012" y="-475.3" font-family="Times,serif" font-size="14.00">5: id</text>
<text text-anchor="start" x="1012" y="-460.3" font-family="Times,serif" font-size="14.00">6: timestamp</text>
</g>
<!-- occupation_titles -->
<g id="node9" class="node"><title>occupation_titles</title>
<polygon fill="none" stroke="blue" points="174.5,-219 174.5,-295 283.5,-295 283.5,-219 174.5,-219"/>
<text text-anchor="middle" x="229" y="-279.8" font-family="Times,serif" font-size="14.00">occupation_titles</text>
<polyline fill="none" stroke="blue" points="174.5,-272 283.5,-272 "/>
<text text-anchor="start" x="182.5" y="-256.8" font-family="Times,serif" font-size="14.00">1: id</text>
<text text-anchor="start" x="182.5" y="-241.8" font-family="Times,serif" font-size="14.00">2: name</text>
<text text-anchor="start" x="182.5" y="-226.8" font-family="Times,serif" font-size="14.00">3: upper_name</text>
</g>
<!-- occupations -->
<g id="node10" class="node"><title>occupations</title>
<polygon fill="none" stroke="blue" points="316.5,-460 316.5,-566 451.5,-566 451.5,-460 316.5,-460"/>
<text text-anchor="middle" x="384" y="-550.8" font-family="Times,serif" font-size="14.00">occupations</text>
<polyline fill="none" stroke="blue" points="316.5,-543 451.5,-543 "/>
<text text-anchor="start" x="324.5" y="-527.8" font-family="Times,serif" font-size="14.00">1: creator_id</text>
<text text-anchor="start" x="324.5" y="-512.8" font-family="Times,serif" font-size="14.00">2: id</text>
<text text-anchor="start" x="324.5" y="-497.8" font-family="Times,serif" font-size="14.00">3: occupation_title_id</text>
<text text-anchor="start" x="324.5" y="-482.8" font-family="Times,serif" font-size="14.00">4: organization_id</text>
<text text-anchor="start" x="324.5" y="-467.8" font-family="Times,serif" font-size="14.00">5: person_id</text>
</g>
<!-- occupations&#45;&gt;occupation_titles -->
<g id="edge6" class="edge"><title>occupations:port2&#45;&gt;occupation_titles:port2</title>
<path fill="none" stroke="grey" d="M384,-459C384,-414.268 317.815,-453.218 293,-416 288.507,-409.262 292.761,-289.997 288.251,-254.739"/>
<polygon fill="grey" stroke="grey" points="291.486,-253.378 285,-245 284.846,-255.594 291.486,-253.378"/>
</g>
<!-- occupations&#45;&gt;people -->
<g id="edge7" class="edge"><title>occupations:port2&#45;&gt;people:port2</title>
<path fill="none" stroke="grey" d="M453,-501C492.023,-501 469.168,-454.584 475,-416 476.21,-407.992 474.264,-289.621 479.532,-254.655"/>
<polygon fill="grey" stroke="grey" points="482.914,-255.594 483,-245 476.326,-253.228 482.914,-255.594"/>
</g>
<!-- occupations&#45;&gt;organizations -->
<g id="edge8" class="edge"><title>occupations:port2&#45;&gt;organizations:port2</title>
<path fill="none" stroke="grey" d="M384,-459C384,-402.887 446.354,-415.561 466,-363 469.784,-352.877 476.917,-279.279 471.966,-253.718"/>
<polygon fill="grey" stroke="grey" points="474.991,-251.957 467,-245 468.908,-255.422 474.991,-251.957"/>
</g>
<!-- organizations&#45;&gt;communication_types -->
<g id="edge9" class="edge"><title>organizations:port2&#45;&gt;communication_types:port2</title>
<path fill="none" stroke="grey" d="M384,-150C384,-102.663 338.478,-107.069 324,-62 322.036,-55.8859 317.945,-38.5767 318.371,-27.8759"/>
<polygon fill="grey" stroke="grey" points="321.479,-29.4851 323,-19 315.272,-26.2479 321.479,-29.4851"/>
</g>
<!-- roles -->
<g id="node19" class="node"><title>roles</title>
<polygon fill="none" stroke="blue" points="479.5,-0.5 479.5,-61.5 540.5,-61.5 540.5,-0.5 479.5,-0.5"/>
<text text-anchor="middle" x="510" y="-46.3" font-family="Times,serif" font-size="14.00">roles</text>
<polyline fill="none" stroke="blue" points="479.5,-38.5 540.5,-38.5 "/>
<text text-anchor="start" x="487.5" y="-23.3" font-family="Times,serif" font-size="14.00">1: id</text>
<text text-anchor="start" x="487.5" y="-8.3" font-family="Times,serif" font-size="14.00">2: name</text>
</g>
<!-- organizations&#45;&gt;roles -->
<g id="edge10" class="edge"><title>organizations:port2&#45;&gt;roles:port2</title>
<path fill="none" stroke="grey" d="M384,-150C384,-95.3135 444.799,-110.534 470,-62 473.044,-56.137 471.156,-38.3791 472.686,-27.6045"/>
<polygon fill="grey" stroke="grey" points="475.723,-29.3473 478,-19 469.767,-25.6689 475.723,-29.3473"/>
</g>
<!-- visibilities -->
<g id="node23" class="node"><title>visibilities</title>
<polygon fill="none" stroke="blue" points="233.5,-0.5 233.5,-61.5 306.5,-61.5 306.5,-0.5 233.5,-0.5"/>
<text text-anchor="middle" x="270" y="-46.3" font-family="Times,serif" font-size="14.00">visibilities</text>
<polyline fill="none" stroke="blue" points="233.5,-38.5 306.5,-38.5 "/>
<text text-anchor="start" x="241.5" y="-23.3" font-family="Times,serif" font-size="14.00">1: id</text>
<text text-anchor="start" x="241.5" y="-8.3" font-family="Times,serif" font-size="14.00">2: name</text>
</g>
<!-- organizations&#45;&gt;visibilities -->
<g id="edge11" class="edge"><title>organizations:port2&#45;&gt;visibilities:port2</title>
<path fill="none" stroke="grey" d="M384,-150C384,-100.3 334.955,-107.518 315,-62 312.388,-56.0427 314.496,-38.6796 313.225,-27.9265"/>
<polygon fill="grey" stroke="grey" points="316.072,-25.8623 308,-19 310.031,-29.3984 316.072,-25.8623"/>
</g>
<!-- people&#45;&gt;genders -->
<g id="edge12" class="edge"><title>people:port2&#45;&gt;genders:port2</title>
<path fill="none" stroke="grey" d="M566,-98C566,-66.1361 609.633,-88.0378 628,-62 631.808,-56.6017 629.645,-38.6768 630.921,-27.7475"/>
<polygon fill="grey" stroke="grey" points="634.005,-29.4054 636,-19 627.952,-25.8904 634.005,-29.4054"/>
</g>
<!-- people&#45;&gt;visibilities -->
<g id="edge13" class="edge"><title>people:port2&#45;&gt;visibilities:port2</title>
<path fill="none" stroke="grey" d="M483,-245C466.642,-245 485.562,-110.491 475,-98 427.936,-42.342 364.973,-115.061 315,-62 310.489,-57.2097 313.349,-39.0663 312.604,-27.9346"/>
<polygon fill="grey" stroke="grey" points="315.692,-26.2862 308,-19 309.469,-29.4925 315.692,-26.2862"/>
</g>
<!-- people&#45;&gt;communication_types -->
<g id="edge14" class="edge"><title>people:port2&#45;&gt;communication_types:port2</title>
<path fill="none" stroke="grey" d="M566,-98C566,-52.432 498.89,-97.2397 470,-62 465.828,-56.9112 468.566,-38.875 467.708,-27.8428"/>
<polygon fill="grey" stroke="grey" points="470.789,-26.1819 463,-19 464.61,-29.4717 470.789,-26.1819"/>
</g>
<!-- people&#45;&gt;roles -->
<g id="edge15" class="edge"><title>people:port2&#45;&gt;roles:port2</title>
<path fill="none" stroke="grey" d="M566,-98C566,-80.3058 554.251,-78.8973 549,-62 547.047,-55.7161 548.988,-38.1094 547.391,-27.4749"/>
<polygon fill="grey" stroke="grey" points="550.321,-25.5588 542,-19 544.414,-29.3161 550.321,-25.5588"/>
</g>
<!-- titles -->
<g id="node22" class="node"><title>titles</title>
<polygon fill="none" stroke="blue" points="558.5,-0.5 558.5,-61.5 619.5,-61.5 619.5,-0.5 558.5,-0.5"/>
<text text-anchor="middle" x="589" y="-46.3" font-family="Times,serif" font-size="14.00">titles</text>
<polyline fill="none" stroke="blue" points="558.5,-38.5 619.5,-38.5 "/>
<text text-anchor="start" x="566.5" y="-23.3" font-family="Times,serif" font-size="14.00">1: id</text>
<text text-anchor="start" x="566.5" y="-8.3" font-family="Times,serif" font-size="14.00">2: name</text>
</g>
<!-- people&#45;&gt;titles -->
<g id="edge16" class="edge"><title>people:port2&#45;&gt;titles:port2</title>
<path fill="none" stroke="grey" d="M566,-98C566,-84.334 550.046,-44.5494 550.992,-27.2234"/>
<polygon fill="grey" stroke="grey" points="553.927,-29.1395 557,-19 548.275,-25.0102 553.927,-29.1395"/>
</g>
<!-- phone_number_types -->
<g id="node13" class="node"><title>phone_number_types</title>
<polygon fill="none" stroke="blue" points="727,-0.5 727,-61.5 861,-61.5 861,-0.5 727,-0.5"/>
<text text-anchor="middle" x="794" y="-46.3" font-family="Times,serif" font-size="14.00">phone_number_types</text>
<polyline fill="none" stroke="blue" points="727,-38.5 861,-38.5 "/>
<text text-anchor="start" x="735" y="-23.3" font-family="Times,serif" font-size="14.00">1: id</text>
<text text-anchor="start" x="735" y="-8.3" font-family="Times,serif" font-size="14.00">2: name</text>
</g>
<!-- phone_numbers -->
<g id="node14" class="node"><title>phone_numbers</title>
<polygon fill="none" stroke="blue" points="714,-211.5 714,-302.5 874,-302.5 874,-211.5 714,-211.5"/>
<text text-anchor="middle" x="794" y="-287.3" font-family="Times,serif" font-size="14.00">phone_numbers</text>
<polyline fill="none" stroke="blue" points="714,-279.5 874,-279.5 "/>
<text text-anchor="start" x="722" y="-264.3" font-family="Times,serif" font-size="14.00">1: id</text>
<text text-anchor="start" x="722" y="-249.3" font-family="Times,serif" font-size="14.00">2: number</text>
<text text-anchor="start" x="722" y="-234.3" font-family="Times,serif" font-size="14.00">3: phone_number_type_id</text>
<text text-anchor="start" x="722" y="-219.3" font-family="Times,serif" font-size="14.00">4: upper_number</text>
</g>
<!-- phone_numbers&#45;&gt;phone_number_types -->
<g id="edge17" class="edge"><title>phone_numbers:port2&#45;&gt;phone_number_types:port2</title>
<path fill="none" stroke="grey" d="M794,-210C794,-123.764 938.813,-27.6505 872.273,-19.55"/>
<polygon fill="grey" stroke="grey" points="872.173,-16.0397 862,-19 871.799,-23.0297 872.173,-16.0397"/>
</g>
<!-- phone_organizations -->
<g id="node15" class="node"><title>phone_organizations</title>
<polygon fill="none" stroke="blue" points="600,-475 600,-551 730,-551 730,-475 600,-475"/>
<text text-anchor="middle" x="665" y="-535.8" font-family="Times,serif" font-size="14.00">phone_organizations</text>
<polyline fill="none" stroke="blue" points="600,-528 730,-528 "/>
<text text-anchor="start" x="608" y="-512.8" font-family="Times,serif" font-size="14.00">1: id</text>
<text text-anchor="start" x="608" y="-497.8" font-family="Times,serif" font-size="14.00">2: organization_id</text>
<text text-anchor="start" x="608" y="-482.8" font-family="Times,serif" font-size="14.00">3: phone_number_id</text>
</g>
<!-- phone_organizations&#45;&gt;phone_numbers -->
<g id="edge18" class="edge"><title>phone_organizations:port2&#45;&gt;phone_numbers:port2</title>
<path fill="none" stroke="grey" d="M731,-501C756.452,-501 699.41,-297.046 707.139,-253.228"/>
<polygon fill="grey" stroke="grey" points="710.048,-255.175 713,-245 704.347,-251.114 710.048,-255.175"/>
</g>
<!-- phone_organizations&#45;&gt;organizations -->
<g id="edge19" class="edge"><title>phone_organizations:port2&#45;&gt;organizations:port2</title>
<path fill="none" stroke="grey" d="M599,-501C576.858,-501 604.675,-468.58 590,-452 554.503,-411.896 507.713,-458.405 475,-416 465.016,-403.058 480.331,-286.072 472.764,-253.426"/>
<polygon fill="grey" stroke="grey" points="475.535,-251.277 467,-245 469.757,-255.23 475.535,-251.277"/>
</g>
<!-- phone_people -->
<g id="node16" class="node"><title>phone_people</title>
<polygon fill="none" stroke="blue" points="748,-475 748,-551 878,-551 878,-475 748,-475"/>
<text text-anchor="middle" x="813" y="-535.8" font-family="Times,serif" font-size="14.00">phone_people</text>
<polyline fill="none" stroke="blue" points="748,-528 878,-528 "/>
<text text-anchor="start" x="756" y="-512.8" font-family="Times,serif" font-size="14.00">1: id</text>
<text text-anchor="start" x="756" y="-497.8" font-family="Times,serif" font-size="14.00">2: person_id</text>
<text text-anchor="start" x="756" y="-482.8" font-family="Times,serif" font-size="14.00">3: phone_number_id</text>
</g>
<!-- phone_people&#45;&gt;people -->
<g id="edge20" class="edge"><title>phone_people:port2&#45;&gt;people:port2</title>
<path fill="none" stroke="grey" d="M747,-501C735.967,-501 743.892,-461.889 739,-452 729.243,-432.273 716.252,-434.914 705,-416 666.03,-350.492 723.123,-254.514 659.317,-245.66"/>
<polygon fill="grey" stroke="grey" points="659.203,-242.146 649,-245 658.756,-249.132 659.203,-242.146"/>
</g>
<!-- phone_people&#45;&gt;phone_numbers -->
<g id="edge21" class="edge"><title>phone_people:port2&#45;&gt;phone_numbers:port2</title>
<path fill="none" stroke="grey" d="M813,-474C813,-372.265 968.876,-253.665 885.128,-245.452"/>
<polygon fill="grey" stroke="grey" points="885.146,-241.949 875,-245 884.834,-248.942 885.146,-241.949"/>
</g>
<!-- report_entities -->
<g id="node17" class="node"><title>report_entities</title>
<polygon fill="none" stroke="blue" points="1114.5,-482.5 1114.5,-543.5 1209.5,-543.5 1209.5,-482.5 1114.5,-482.5"/>
<text text-anchor="middle" x="1162" y="-528.3" font-family="Times,serif" font-size="14.00">report_entities</text>
<polyline fill="none" stroke="blue" points="1114.5,-520.5 1209.5,-520.5 "/>
<text text-anchor="start" x="1122.5" y="-505.3" font-family="Times,serif" font-size="14.00">1: id</text>
<text text-anchor="start" x="1122.5" y="-490.3" font-family="Times,serif" font-size="14.00">2: name</text>
</g>
<!-- reports -->
<g id="node18" class="node"><title>reports</title>
<polygon fill="none" stroke="blue" points="1227.5,-482.5 1227.5,-543.5 1288.5,-543.5 1288.5,-482.5 1227.5,-482.5"/>
<text text-anchor="middle" x="1258" y="-528.3" font-family="Times,serif" font-size="14.00">reports</text>
<polyline fill="none" stroke="blue" points="1227.5,-520.5 1288.5,-520.5 "/>
<text text-anchor="start" x="1235.5" y="-505.3" font-family="Times,serif" font-size="14.00">1: id</text>
<text text-anchor="start" x="1235.5" y="-490.3" font-family="Times,serif" font-size="14.00">2: name</text>
</g>
<!-- sessions -->
<g id="node20" class="node"><title>sessions</title>
<polygon fill="none" stroke="blue" points="1306.5,-482.5 1306.5,-543.5 1389.5,-543.5 1389.5,-482.5 1306.5,-482.5"/>
<text text-anchor="middle" x="1348" y="-528.3" font-family="Times,serif" font-size="14.00">sessions</text>
<polyline fill="none" stroke="blue" points="1306.5,-520.5 1389.5,-520.5 "/>
<text text-anchor="start" x="1314.5" y="-505.3" font-family="Times,serif" font-size="14.00">1: a_session</text>
<text text-anchor="start" x="1314.5" y="-490.3" font-family="Times,serif" font-size="14.00">2: id</text>
</g>
<!-- spouses -->
<g id="node21" class="node"><title>spouses</title>
<polygon fill="none" stroke="blue" points="496.5,-475 496.5,-551 581.5,-551 581.5,-475 496.5,-475"/>
<text text-anchor="middle" x="539" y="-535.8" font-family="Times,serif" font-size="14.00">spouses</text>
<polyline fill="none" stroke="blue" points="496.5,-528 581.5,-528 "/>
<text text-anchor="start" x="504.5" y="-512.8" font-family="Times,serif" font-size="14.00">1: id</text>
<text text-anchor="start" x="504.5" y="-497.8" font-family="Times,serif" font-size="14.00">2: person_id</text>
<text text-anchor="start" x="504.5" y="-482.8" font-family="Times,serif" font-size="14.00">3: spouse_id</text>
</g>
<!-- spouses&#45;&gt;people -->
<g id="edge22" class="edge"><title>spouses:port2&#45;&gt;people:port2</title>
<path fill="none" stroke="grey" d="M539,-474C530,-438.475 488.254,-448.96 475,-416 471.94,-408.391 466.338,-286.481 476.766,-253.288"/>
<polygon fill="grey" stroke="grey" points="479.786,-255.096 483,-245 474.192,-250.888 479.786,-255.096"/>
</g>
<!-- spouses&#45;&gt;people -->
<g id="edge23" class="edge"><title>spouses:port2&#45;&gt;people:port2</title>
<path fill="none" stroke="grey" d="M539.103,-473.586C547.674,-438.556 506.203,-448.831 493,-416 492.465,-414.669 491.851,-409.837 491.198,-402.594"/>
<polygon fill="grey" stroke="grey" points="494.652,-401.893 490.351,-392.21 487.675,-402.462 494.652,-401.893"/>
</g>
<!-- yes_noes -->
<g id="node24" class="node"><title>yes_noes</title>
<polygon fill="none" stroke="blue" points="1408,-482.5 1408,-543.5 1474,-543.5 1474,-482.5 1408,-482.5"/>
<text text-anchor="middle" x="1441" y="-528.3" font-family="Times,serif" font-size="14.00">yes_noes</text>
<polyline fill="none" stroke="blue" points="1408,-520.5 1474,-520.5 "/>
<text text-anchor="start" x="1416" y="-505.3" font-family="Times,serif" font-size="14.00">1: id</text>
<text text-anchor="start" x="1416" y="-490.3" font-family="Times,serif" font-size="14.00">2: name</text>
</g>
</g>
</svg>
