<?xml version="1.0" encoding="UTF-8" standalone="no"?>
<!DOCTYPE svg PUBLIC "-//W3C//DTD SVG 1.1//EN"
 "http://www.w3.org/Graphics/SVG/1.1/DTD/svg11.dtd">
<!-- Generated by graphviz version 2.26.3 (20100126.1600)
 -->
<!-- Title: Perl Pages: 1 -->
<svg width="1067pt" height="804pt"
 viewBox="0.00 0.00 1067.25 804.00" xmlns="http://www.w3.org/2000/svg" xmlns:xlink="http://www.w3.org/1999/xlink">
<g id="graph1" class="graph" transform="scale(1 1) rotate(0) translate(4 800)">
<title>Perl</title>
<polygon fill="white" stroke="white" points="-4,5 -4,-800 1064.25,-800 1064.25,5 -4,5"/>
<!-- asset_types -->
<g id="node1" class="node"><title>asset_types</title>
<polygon fill="none" stroke="blue" points="47.2507,-374 47.2507,-504 145.251,-504 145.251,-374 47.2507,-374"/>
<text text-anchor="middle" x="96.2507" y="-487.4" font-family="Times Roman,serif" font-size="14.00">asset_types</text>
<polyline fill="none" stroke="blue" points="47.2507,-477 145.251,-477 "/>
<text text-anchor="start" x="55.2507" y="-460.4" font-family="Times Roman,serif" font-size="14.00">1: file_name</text>
<text text-anchor="start" x="55.2507" y="-441.4" font-family="Times Roman,serif" font-size="14.00">2: file_path</text>
<text text-anchor="start" x="55.2507" y="-422.4" font-family="Times Roman,serif" font-size="14.00">3: id</text>
<text text-anchor="start" x="55.2507" y="-403.4" font-family="Times Roman,serif" font-size="14.00">4: name</text>
<text text-anchor="start" x="55.2507" y="-384.4" font-family="Times Roman,serif" font-size="14.00">5: upper_name</text>
</g>
<!-- assets -->
<g id="node2" class="node"><title>assets</title>
<polygon fill="none" stroke="blue" points="159.251,-570 159.251,-700 263.251,-700 263.251,-570 159.251,-570"/>
<text text-anchor="middle" x="211.251" y="-683.4" font-family="Times Roman,serif" font-size="14.00">assets</text>
<polyline fill="none" stroke="blue" points="159.251,-673 263.251,-673 "/>
<text text-anchor="start" x="167.251" y="-656.4" font-family="Times Roman,serif" font-size="14.00">1: asset_type_id</text>
<text text-anchor="start" x="167.251" y="-637.4" font-family="Times Roman,serif" font-size="14.00">2: design_id</text>
<text text-anchor="start" x="167.251" y="-618.4" font-family="Times Roman,serif" font-size="14.00">3: id</text>
<text text-anchor="start" x="167.251" y="-599.4" font-family="Times Roman,serif" font-size="14.00">4: page_id</text>
<text text-anchor="start" x="167.251" y="-580.4" font-family="Times Roman,serif" font-size="14.00">5: site_id</text>
</g>
<!-- assets&#45;&gt;asset_types -->
<g id="edge8" class="edge"><title>assets:port2&#45;&gt;asset_types:port2</title>
<path fill="none" stroke="grey" d="M210.251,-569C210.251,-538.771 173.588,-550.613 159.251,-524 150.483,-507.725 161.995,-449.997 153.312,-431.064"/>
<polygon fill="grey" stroke="grey" points="155.346,-428.214 145.251,-425 151.138,-433.808 155.346,-428.214"/>
</g>
<!-- designs -->
<g id="node4" class="node"><title>designs</title>
<polygon fill="none" stroke="blue" points="325.251,-130.5 325.251,-317.5 469.251,-317.5 469.251,-130.5 325.251,-130.5"/>
<text text-anchor="middle" x="397.251" y="-300.9" font-family="Times Roman,serif" font-size="14.00">designs</text>
<polyline fill="none" stroke="blue" points="325.251,-290.5 469.251,-290.5 "/>
<text text-anchor="start" x="333.251" y="-273.9" font-family="Times Roman,serif" font-size="14.00">1: id</text>
<text text-anchor="start" x="333.251" y="-254.9" font-family="Times Roman,serif" font-size="14.00">2: menu_orientation_id</text>
<text text-anchor="start" x="333.251" y="-235.9" font-family="Times Roman,serif" font-size="14.00">3: name</text>
<text text-anchor="start" x="333.251" y="-216.9" font-family="Times Roman,serif" font-size="14.00">4: os_type_id</text>
<text text-anchor="start" x="333.251" y="-197.9" font-family="Times Roman,serif" font-size="14.00">5: output_directory</text>
<text text-anchor="start" x="333.251" y="-178.9" font-family="Times Roman,serif" font-size="14.00">6: output_doc_root</text>
<text text-anchor="start" x="333.251" y="-159.9" font-family="Times Roman,serif" font-size="14.00">7: site_id</text>
<text text-anchor="start" x="333.251" y="-140.9" font-family="Times Roman,serif" font-size="14.00">8: upper_name</text>
</g>
<!-- assets&#45;&gt;designs -->
<g id="edge2" class="edge"><title>assets:port2&#45;&gt;designs:port2</title>
<path fill="none" stroke="grey" d="M210.251,-569C210.251,-404.894 159.842,-217.843 315.218,-210.24"/>
<polygon fill="grey" stroke="grey" points="315.337,-213.738 325.251,-210 315.17,-206.74 315.337,-213.738"/>
</g>
<!-- pages -->
<g id="node11" class="node"><title>pages</title>
<polygon fill="none" stroke="blue" points="239.251,-355 239.251,-523 337.251,-523 337.251,-355 239.251,-355"/>
<text text-anchor="middle" x="288.251" y="-506.4" font-family="Times Roman,serif" font-size="14.00">pages</text>
<polyline fill="none" stroke="blue" points="239.251,-496 337.251,-496 "/>
<text text-anchor="start" x="247.251" y="-479.4" font-family="Times Roman,serif" font-size="14.00">1: context</text>
<text text-anchor="start" x="247.251" y="-460.4" font-family="Times Roman,serif" font-size="14.00">2: design_id</text>
<text text-anchor="start" x="247.251" y="-441.4" font-family="Times Roman,serif" font-size="14.00">3: homepage</text>
<text text-anchor="start" x="247.251" y="-422.4" font-family="Times Roman,serif" font-size="14.00">4: id</text>
<text text-anchor="start" x="247.251" y="-403.4" font-family="Times Roman,serif" font-size="14.00">5: name</text>
<text text-anchor="start" x="247.251" y="-384.4" font-family="Times Roman,serif" font-size="14.00">6: site_id</text>
<text text-anchor="start" x="247.251" y="-365.4" font-family="Times Roman,serif" font-size="14.00">7: upper_name</text>
</g>
<!-- assets&#45;&gt;pages -->
<g id="edge6" class="edge"><title>assets:port2&#45;&gt;pages:port2</title>
<path fill="none" stroke="grey" d="M210.251,-569C210.251,-547.918 220.422,-544.521 225.251,-524 229.505,-505.92 220.903,-448.887 230.945,-430.66"/>
<polygon fill="grey" stroke="grey" points="232.958,-433.524 239.251,-425 229.016,-427.739 232.958,-433.524"/>
</g>
<!-- sites -->
<g id="node13" class="node"><title>sites</title>
<polygon fill="none" stroke="blue" points="210.251,-1 210.251,-93 308.251,-93 308.251,-1 210.251,-1"/>
<text text-anchor="middle" x="259.251" y="-76.4" font-family="Times Roman,serif" font-size="14.00">sites</text>
<polyline fill="none" stroke="blue" points="210.251,-66 308.251,-66 "/>
<text text-anchor="start" x="218.251" y="-49.4" font-family="Times Roman,serif" font-size="14.00">1: id</text>
<text text-anchor="start" x="218.251" y="-30.4" font-family="Times Roman,serif" font-size="14.00">2: name</text>
<text text-anchor="start" x="218.251" y="-11.4" font-family="Times Roman,serif" font-size="14.00">3: upper_name</text>
</g>
<!-- assets&#45;&gt;sites -->
<g id="edge4" class="edge"><title>assets:port2&#45;&gt;sites:port2</title>
<path fill="none" stroke="grey" d="M210.251,-569C210.251,-548.411 201.713,-544.441 199.251,-524 188.041,-430.933 201.058,-104.67 208.212,-43.0733"/>
<polygon fill="grey" stroke="grey" points="211.697,-43.4956 210.251,-33 204.836,-42.107 211.697,-43.4956"/>
</g>
<!-- contents -->
<g id="node3" class="node"><title>contents</title>
<polygon fill="none" stroke="blue" points="325.751,-560.5 325.751,-709.5 410.751,-709.5 410.751,-560.5 325.751,-560.5"/>
<text text-anchor="middle" x="368.251" y="-692.9" font-family="Times Roman,serif" font-size="14.00">contents</text>
<polyline fill="none" stroke="blue" points="325.751,-682.5 410.751,-682.5 "/>
<text text-anchor="start" x="333.751" y="-665.9" font-family="Times Roman,serif" font-size="14.00">1: body_text</text>
<text text-anchor="start" x="333.751" y="-646.9" font-family="Times Roman,serif" font-size="14.00">2: design_id</text>
<text text-anchor="start" x="333.751" y="-627.9" font-family="Times Roman,serif" font-size="14.00">3: head_text</text>
<text text-anchor="start" x="333.751" y="-608.9" font-family="Times Roman,serif" font-size="14.00">4: id</text>
<text text-anchor="start" x="333.751" y="-589.9" font-family="Times Roman,serif" font-size="14.00">5: page_id</text>
<text text-anchor="start" x="333.751" y="-570.9" font-family="Times Roman,serif" font-size="14.00">6: site_id</text>
</g>
<!-- contents&#45;&gt;designs -->
<g id="edge10" class="edge"><title>contents:port2&#45;&gt;designs:port2</title>
<path fill="none" stroke="grey" d="M367.251,-560C367.251,-543.135 374.291,-540.12 379.251,-524 402.337,-448.962 384.972,-420.153 427.251,-354 440.49,-333.284 458.977,-340.336 469.251,-318 477.751,-299.517 489.085,-234.768 477.724,-215.469"/>
<polygon fill="grey" stroke="grey" points="479.551,-212.482 469.251,-210 475.754,-218.364 479.551,-212.482"/>
</g>
<!-- contents&#45;&gt;pages -->
<g id="edge12" class="edge"><title>contents:port2&#45;&gt;pages:port2</title>
<path fill="none" stroke="grey" d="M367.251,-560C367.251,-542.491 356.079,-540.83 351.251,-524 346.129,-506.146 355.313,-448.961 345.486,-430.678"/>
<polygon fill="grey" stroke="grey" points="347.47,-427.795 337.251,-425 343.497,-433.558 347.47,-427.795"/>
</g>
<!-- contents&#45;&gt;sites -->
<g id="edge14" class="edge"><title>contents:port2&#45;&gt;sites:port2</title>
<path fill="none" stroke="grey" d="M367.251,-560C367.251,-467.97 381.933,-438.831 346.251,-354 338.175,-334.802 323.615,-337.482 316.251,-318 313.768,-311.431 315.625,-92.4247 310.556,-42.8904"/>
<polygon fill="grey" stroke="grey" points="313.929,-41.9444 308.251,-33 307.112,-43.5335 313.929,-41.9444"/>
</g>
<!-- menu_orientations -->
<g id="node8" class="node"><title>menu_orientations</title>
<polygon fill="none" stroke="blue" points="388.251,-10.5 388.251,-83.5 506.251,-83.5 506.251,-10.5 388.251,-10.5"/>
<text text-anchor="middle" x="447.251" y="-66.9" font-family="Times Roman,serif" font-size="14.00">menu_orientations</text>
<polyline fill="none" stroke="blue" points="388.251,-56.5 506.251,-56.5 "/>
<text text-anchor="start" x="396.251" y="-39.9" font-family="Times Roman,serif" font-size="14.00">1: id</text>
<text text-anchor="start" x="396.251" y="-20.9" font-family="Times Roman,serif" font-size="14.00">2: name</text>
</g>
<!-- designs&#45;&gt;menu_orientations -->
<g id="edge18" class="edge"><title>designs:port2&#45;&gt;menu_orientations:port2</title>
<path fill="none" stroke="grey" d="M396.251,-130C396.251,-90.9669 354.516,-43.3966 378.146,-34.4778"/>
<polygon fill="grey" stroke="grey" points="378.862,-37.9103 388.251,-33 377.849,-30.984 378.862,-37.9103"/>
</g>
<!-- os_types -->
<g id="node10" class="node"><title>os_types</title>
<polygon fill="none" stroke="blue" points="742.251,-10.5 742.251,-83.5 806.251,-83.5 806.251,-10.5 742.251,-10.5"/>
<text text-anchor="middle" x="774.251" y="-66.9" font-family="Times Roman,serif" font-size="14.00">os_types</text>
<polyline fill="none" stroke="blue" points="742.251,-56.5 806.251,-56.5 "/>
<text text-anchor="start" x="750.251" y="-39.9" font-family="Times Roman,serif" font-size="14.00">1: id</text>
<text text-anchor="start" x="750.251" y="-20.9" font-family="Times Roman,serif" font-size="14.00">2: name</text>
</g>
<!-- designs&#45;&gt;os_types -->
<g id="edge16" class="edge"><title>designs:port2&#45;&gt;os_types:port2</title>
<path fill="none" stroke="grey" d="M469.251,-210C610.324,-210 598.343,-41.5371 731.942,-33.3113"/>
<polygon fill="grey" stroke="grey" points="732.361,-36.8004 742.251,-33 732.15,-29.8036 732.361,-36.8004"/>
</g>
<!-- designs&#45;&gt;sites -->
<g id="edge20" class="edge"><title>designs:port2&#45;&gt;sites:port2</title>
<path fill="none" stroke="grey" d="M396.251,-130C396.251,-117.494 342.008,-54.8458 317.516,-37.4732"/>
<polygon fill="grey" stroke="grey" points="318.778,-34.1959 308.251,-33 315.734,-40.4997 318.778,-34.1959"/>
</g>
<!-- event_types -->
<g id="node5" class="node"><title>event_types</title>
<polygon fill="none" stroke="blue" points="507.251,-589 507.251,-681 605.251,-681 605.251,-589 507.251,-589"/>
<text text-anchor="middle" x="556.251" y="-664.4" font-family="Times Roman,serif" font-size="14.00">event_types</text>
<polyline fill="none" stroke="blue" points="507.251,-654 605.251,-654 "/>
<text text-anchor="start" x="515.251" y="-637.4" font-family="Times Roman,serif" font-size="14.00">1: id</text>
<text text-anchor="start" x="515.251" y="-618.4" font-family="Times Roman,serif" font-size="14.00">2: name</text>
<text text-anchor="start" x="515.251" y="-599.4" font-family="Times Roman,serif" font-size="14.00">3: upper_name</text>
</g>
<!-- events -->
<g id="node6" class="node"><title>events</title>
<polygon fill="none" stroke="blue" points="622.751,-589 622.751,-681 711.751,-681 711.751,-589 622.751,-589"/>
<text text-anchor="middle" x="667.251" y="-664.4" font-family="Times Roman,serif" font-size="14.00">events</text>
<polyline fill="none" stroke="blue" points="622.751,-654 711.751,-654 "/>
<text text-anchor="start" x="630.751" y="-637.4" font-family="Times Roman,serif" font-size="14.00">1: id</text>
<text text-anchor="start" x="630.751" y="-618.4" font-family="Times Roman,serif" font-size="14.00">2: id_list</text>
<text text-anchor="start" x="630.751" y="-599.4" font-family="Times Roman,serif" font-size="14.00">3: timestamp</text>
</g>
<!-- log -->
<g id="node7" class="node"><title>log</title>
<polygon fill="none" stroke="blue" points="728.751,-579.5 728.751,-690.5 817.751,-690.5 817.751,-579.5 728.751,-579.5"/>
<text text-anchor="middle" x="773.251" y="-673.9" font-family="Times Roman,serif" font-size="14.00">log</text>
<polyline fill="none" stroke="blue" points="728.751,-663.5 817.751,-663.5 "/>
<text text-anchor="start" x="736.751" y="-646.9" font-family="Times Roman,serif" font-size="14.00">1: id</text>
<text text-anchor="start" x="736.751" y="-627.9" font-family="Times Roman,serif" font-size="14.00">2: level</text>
<text text-anchor="start" x="736.751" y="-608.9" font-family="Times Roman,serif" font-size="14.00">3: message</text>
<text text-anchor="start" x="736.751" y="-589.9" font-family="Times Roman,serif" font-size="14.00">4: timestamp</text>
</g>
<!-- menus -->
<g id="node9" class="node"><title>menus</title>
<polygon fill="none" stroke="blue" points="834.751,-560.5 834.751,-709.5 921.751,-709.5 921.751,-560.5 834.751,-560.5"/>
<text text-anchor="middle" x="878.251" y="-692.9" font-family="Times Roman,serif" font-size="14.00">menus</text>
<polyline fill="none" stroke="blue" points="834.751,-682.5 921.751,-682.5 "/>
<text text-anchor="start" x="842.751" y="-665.9" font-family="Times Roman,serif" font-size="14.00">1: context</text>
<text text-anchor="start" x="842.751" y="-646.9" font-family="Times Roman,serif" font-size="14.00">2: id</text>
<text text-anchor="start" x="842.751" y="-627.9" font-family="Times Roman,serif" font-size="14.00">3: mother_id</text>
<text text-anchor="start" x="842.751" y="-608.9" font-family="Times Roman,serif" font-size="14.00">4: name</text>
<text text-anchor="start" x="842.751" y="-589.9" font-family="Times Roman,serif" font-size="14.00">5: page_id</text>
<text text-anchor="start" x="842.751" y="-570.9" font-family="Times Roman,serif" font-size="14.00">6: unique_id</text>
</g>
<!-- pages&#45;&gt;designs -->
<g id="edge22" class="edge"><title>pages:port2&#45;&gt;designs:port2</title>
<path fill="none" stroke="grey" d="M287.251,-354C287.251,-291.429 262.059,-218.476 315.218,-210.683"/>
<polygon fill="grey" stroke="grey" points="315.512,-214.172 325.251,-210 315.036,-207.188 315.512,-214.172"/>
</g>
<!-- pages&#45;&gt;sites -->
<g id="edge24" class="edge"><title>pages:port2&#45;&gt;sites:port2</title>
<path fill="none" stroke="grey" d="M287.251,-354C287.251,-337.902 284.141,-334.074 283.251,-318 278.63,-234.572 258.537,-209.817 283.251,-130 289.066,-111.217 302.435,-112.283 308.251,-93.5 314.899,-72.0283 329.222,-44.1777 318.036,-35.6172"/>
<polygon fill="grey" stroke="grey" points="318.815,-32.2028 308.251,-33 317.007,-38.9651 318.815,-32.2028"/>
</g>
<!-- sessions -->
<g id="node12" class="node"><title>sessions</title>
<polygon fill="none" stroke="blue" points="976.751,-598.5 976.751,-671.5 1059.75,-671.5 1059.75,-598.5 976.751,-598.5"/>
<text text-anchor="middle" x="1018.25" y="-654.9" font-family="Times Roman,serif" font-size="14.00">sessions</text>
<polyline fill="none" stroke="blue" points="976.751,-644.5 1059.75,-644.5 "/>
<text text-anchor="start" x="984.751" y="-627.9" font-family="Times Roman,serif" font-size="14.00">1: a_session</text>
<text text-anchor="start" x="984.751" y="-608.9" font-family="Times Roman,serif" font-size="14.00">2: id</text>
</g>
<!-- App&#45;Office&#45;CMS -->
<g id="node26" class="node"><title>App&#45;Office&#45;CMS</title>
<polygon fill="none" stroke="blue" points="565.259,-762.44 565.259,-779.56 514.877,-791.665 443.625,-791.665 393.242,-779.56 393.242,-762.44 443.625,-750.335 514.877,-750.335 565.259,-762.44"/>
<polygon fill="none" stroke="blue" points="569.237,-759.283 569.237,-782.717 515.345,-795.665 443.156,-795.665 389.264,-782.717 389.264,-759.283 443.156,-746.335 515.345,-746.335 569.237,-759.283"/>
<text text-anchor="middle" x="479.251" y="-767.9" font-family="Times Roman,serif" font-size="14.00">App&#45;Office&#45;CMS</text>
</g>
<!-- App&#45;Office&#45;CMS&#45;&gt;asset_types -->
<g id="edge26" class="edge"><title>App&#45;Office&#45;CMS&#45;&gt;asset_types</title>
<path fill="none" stroke="grey" d="M389.109,-765.47C303.576,-758.309 183.331,-742.641 150.251,-710 99.1664,-659.594 89.3455,-575.558 90.0068,-514.409"/>
<polygon fill="grey" stroke="grey" points="93.5137,-514.108 90.2209,-504.037 86.5152,-513.963 93.5137,-514.108"/>
</g>
<!-- App&#45;Office&#45;CMS&#45;&gt;assets -->
<g id="edge28" class="edge"><title>App&#45;Office&#45;CMS&#45;&gt;assets</title>
<path fill="none" stroke="grey" d="M400.504,-756.389C362.781,-747.021 318.123,-732.317 282.251,-710 278.466,-707.645 274.747,-705.041 271.116,-702.257"/>
<polygon fill="grey" stroke="grey" points="273.282,-699.507 263.318,-695.904 268.861,-704.934 273.282,-699.507"/>
</g>
<!-- App&#45;Office&#45;CMS&#45;&gt;contents -->
<g id="edge30" class="edge"><title>App&#45;Office&#45;CMS&#45;&gt;contents</title>
<path fill="none" stroke="grey" d="M457.775,-746.257C448.314,-735.241 437.126,-722.058 427.251,-710 423.988,-706.017 420.648,-701.895 417.298,-697.728"/>
<polygon fill="grey" stroke="grey" points="419.84,-695.303 410.86,-689.682 414.375,-699.676 419.84,-695.303"/>
</g>
<!-- App&#45;Office&#45;CMS&#45;&gt;designs -->
<g id="edge32" class="edge"><title>App&#45;Office&#45;CMS&#45;&gt;designs</title>
<path fill="none" stroke="grey" d="M473.081,-746.471C470.432,-735.381 467.447,-722.08 465.251,-710 436.697,-552.92 440.057,-512.017 417.251,-354 416.018,-345.461 414.714,-336.611 413.386,-327.728"/>
<polygon fill="grey" stroke="grey" points="416.826,-327.068 411.879,-317.699 409.904,-328.108 416.826,-327.068"/>
</g>
<!-- App&#45;Office&#45;CMS&#45;&gt;event_types -->
<g id="edge34" class="edge"><title>App&#45;Office&#45;CMS&#45;&gt;event_types</title>
<path fill="none" stroke="grey" d="M493.195,-746.371C502.102,-730.639 514.018,-709.592 525.093,-690.031"/>
<polygon fill="grey" stroke="grey" points="528.227,-691.6 530.109,-681.173 522.136,-688.151 528.227,-691.6"/>
</g>
<!-- App&#45;Office&#45;CMS&#45;&gt;events -->
<g id="edge36" class="edge"><title>App&#45;Office&#45;CMS&#45;&gt;events</title>
<path fill="none" stroke="grey" d="M538.928,-751.949C563.928,-742.054 592.233,-728.172 614.251,-710 621.475,-704.038 628.175,-696.862 634.21,-689.344"/>
<polygon fill="grey" stroke="grey" points="637.219,-691.169 640.492,-681.092 631.65,-686.929 637.219,-691.169"/>
</g>
<!-- App&#45;Office&#45;CMS&#45;&gt;log -->
<g id="edge38" class="edge"><title>App&#45;Office&#45;CMS&#45;&gt;log</title>
<path fill="none" stroke="grey" d="M559.504,-756.889C619.032,-745.287 694.189,-727.897 720.251,-710 725.134,-706.646 729.717,-702.686 733.982,-698.366"/>
<polygon fill="grey" stroke="grey" points="736.724,-700.554 740.86,-690.8 731.544,-695.846 736.724,-700.554"/>
</g>
<!-- App&#45;Office&#45;CMS&#45;&gt;menu_orientations -->
<g id="edge40" class="edge"><title>App&#45;Office&#45;CMS&#45;&gt;menu_orientations</title>
<path fill="none" stroke="grey" d="M482.328,-746.265C492.374,-660.247 521.168,-366.513 478.251,-130 476.041,-117.821 472.157,-105.098 467.87,-93.376"/>
<polygon fill="grey" stroke="grey" points="471.048,-91.8857 464.203,-83.7989 464.511,-94.3893 471.048,-91.8857"/>
</g>
<!-- App&#45;Office&#45;CMS&#45;&gt;menus -->
<g id="edge42" class="edge"><title>App&#45;Office&#45;CMS&#45;&gt;menus</title>
<path fill="none" stroke="grey" d="M569.597,-763.041C657.83,-753.879 784.713,-736.583 826.251,-710 826.342,-709.941 826.434,-709.882 826.526,-709.823"/>
<polygon fill="grey" stroke="grey" points="828.776,-712.511 834.696,-703.724 824.589,-706.901 828.776,-712.511"/>
</g>
<!-- App&#45;Office&#45;CMS&#45;&gt;os_types -->
<g id="edge44" class="edge"><title>App&#45;Office&#45;CMS&#45;&gt;os_types</title>
<path fill="none" stroke="grey" d="M569.491,-765.085C694.28,-755.974 906.904,-736.717 930.251,-710 1012.22,-616.198 853.595,-227.706 794.882,-93.1342"/>
<polygon fill="grey" stroke="grey" points="798.051,-91.646 790.832,-83.8914 791.64,-94.4554 798.051,-91.646"/>
</g>
<!-- App&#45;Office&#45;CMS&#45;&gt;pages -->
<g id="edge46" class="edge"><title>App&#45;Office&#45;CMS&#45;&gt;pages</title>
<path fill="none" stroke="grey" d="M394.701,-757.782C365.831,-748.993 336.104,-734.361 317.251,-710 279.003,-660.58 272.501,-590.024 275.169,-533.294"/>
<polygon fill="grey" stroke="grey" points="278.667,-533.416 275.744,-523.232 271.679,-533.016 278.667,-533.416"/>
</g>
<!-- App&#45;Office&#45;CMS&#45;&gt;sessions -->
<g id="edge48" class="edge"><title>App&#45;Office&#45;CMS&#45;&gt;sessions</title>
<path fill="none" stroke="grey" d="M569.338,-768.072C690.544,-762.718 898.418,-748.136 963.251,-710 975.57,-702.754 985.945,-691.552 994.249,-679.996"/>
<polygon fill="grey" stroke="grey" points="997.24,-681.82 999.926,-671.571 991.435,-677.908 997.24,-681.82"/>
</g>
<!-- App&#45;Office&#45;CMS&#45;&gt;sites -->
<g id="edge50" class="edge"><title>App&#45;Office&#45;CMS&#45;&gt;sites</title>
<path fill="none" stroke="grey" d="M388.988,-768.066C287.553,-762.899 131.39,-748.721 88.2507,-710 -30.6524,-603.275 -9.14067,-506.585 38.2507,-354 69.6628,-252.863 149.194,-157.325 203.757,-100.463"/>
<polygon fill="grey" stroke="grey" points="206.503,-102.658 210.948,-93.0411 201.476,-97.7872 206.503,-102.658"/>
</g>
</g>
</svg>
