<?xml version="1.0" encoding="UTF-8" standalone="no"?>
<!DOCTYPE svg PUBLIC "-//W3C//DTD SVG 1.1//EN"
 "http://www.w3.org/Graphics/SVG/1.1/DTD/svg11.dtd">
<!-- Generated by graphviz version 2.38.0 (20140413.2041)
 -->
<!-- Title: Perl Pages: 1 -->
<svg width="266pt" height="211pt"
 viewBox="0.00 0.00 265.59 211.00" xmlns="http://www.w3.org/2000/svg" xmlns:xlink="http://www.w3.org/1999/xlink">
<g id="graph0" class="graph" transform="scale(1 1) rotate(0) translate(4 207)">
<title>Perl</title>
<polygon fill="white" stroke="none" points="-4,4 -4,-207 261.589,-207 261.589,4 -4,4"/>
<text text-anchor="middle" x="128.795" y="-7.8" font-family="Times,serif" font-size="14.00">Adult</text>
<!-- Adult -->
<g id="node1" class="node"><title>Adult</title>
<ellipse fill="none" stroke="black" cx="128.795" cy="-185" rx="30.5947" ry="18"/>
<text text-anchor="middle" x="128.795" y="-181.3" font-family="Times,serif" font-size="14.00">Adult</text>
</g>
<!-- Adult::Child1 -->
<g id="node2" class="node"><title>Adult::Child1</title>
<ellipse fill="none" stroke="black" cx="59.7947" cy="-113" rx="59.5901" ry="18"/>
<text text-anchor="middle" x="59.7947" y="-109.3" font-family="Times,serif" font-size="14.00">Adult::Child1</text>
</g>
<!-- Adult::Child1&#45;&gt;Adult -->
<g id="edge1" class="edge"><title>Adult::Child1&#45;&gt;Adult</title>
<path fill="none" stroke="grey" d="M76.1467,-130.589C85.2928,-139.868 96.8176,-151.559 106.751,-161.637"/>
<polygon fill="grey" stroke="grey" points="104.459,-164.297 113.971,-168.962 109.444,-159.383 104.459,-164.297"/>
</g>
<!-- Adult::Child2 -->
<g id="node3" class="node"><title>Adult::Child2</title>
<ellipse fill="none" stroke="black" cx="197.795" cy="-113" rx="59.5901" ry="18"/>
<text text-anchor="middle" x="197.795" y="-109.3" font-family="Times,serif" font-size="14.00">Adult::Child2</text>
</g>
<!-- Adult::Child2&#45;&gt;Adult -->
<g id="edge2" class="edge"><title>Adult::Child2&#45;&gt;Adult</title>
<path fill="none" stroke="grey" d="M181.443,-130.589C172.297,-139.868 160.772,-151.559 150.838,-161.637"/>
<polygon fill="grey" stroke="grey" points="148.146,-159.383 143.618,-168.962 153.131,-164.297 148.146,-159.383"/>
</g>
<!-- Adult::Child::Grandchild -->
<g id="node4" class="node"><title>Adult::Child::Grandchild</title>
<ellipse fill="none" stroke="black" cx="128.795" cy="-41" rx="99.3824" ry="18"/>
<text text-anchor="middle" x="128.795" y="-37.3" font-family="Times,serif" font-size="14.00">Adult::Child::Grandchild</text>
</g>
<!-- Adult::Child::Grandchild&#45;&gt;Adult::Child1 -->
<g id="edge3" class="edge"><title>Adult::Child::Grandchild&#45;&gt;Adult::Child1</title>
<path fill="none" stroke="grey" d="M112.092,-58.945C103.532,-67.6293 92.9584,-78.3556 83.5642,-87.886"/>
<polygon fill="grey" stroke="grey" points="80.8713,-85.6322 76.3439,-95.211 85.8565,-90.5462 80.8713,-85.6322"/>
</g>
<!-- Adult::Child::Grandchild&#45;&gt;Adult::Child2 -->
<g id="edge4" class="edge"><title>Adult::Child::Grandchild&#45;&gt;Adult::Child2</title>
<path fill="none" stroke="grey" d="M145.498,-58.945C154.058,-67.6293 164.631,-78.3556 174.025,-87.886"/>
<polygon fill="grey" stroke="grey" points="171.733,-90.5462 181.246,-95.211 176.718,-85.6322 171.733,-90.5462"/>
</g>
</g>
</svg>
