<?xml version="1.0" encoding="UTF-8" standalone="no"?>
<!DOCTYPE svg PUBLIC "-//W3C//DTD SVG 1.1//EN"
 "http://www.w3.org/Graphics/SVG/1.1/DTD/svg11.dtd">
<!-- Generated by graphviz version 2.38.0 (20140413.2041)
 -->
<!-- Title: Perl Pages: 1 -->
<svg width="134pt" height="211pt"
 viewBox="0.00 0.00 134.00 211.00" xmlns="http://www.w3.org/2000/svg" xmlns:xlink="http://www.w3.org/1999/xlink">
<g id="graph0" class="graph" transform="scale(1 1) rotate(0) translate(4 207)">
<title>Perl</title>
<polygon fill="white" stroke="none" points="-4,4 -4,-207 130,-207 130,4 -4,4"/>
<text text-anchor="middle" x="63" y="-7.8" font-family="Times,serif" font-size="14.00">Adult</text>
<!-- Adult -->
<g id="node1" class="node"><title>Adult</title>
<ellipse fill="none" stroke="black" cx="63" cy="-185" rx="27" ry="18"/>
</g>
<!-- Adult::Child1 -->
<g id="node2" class="node"><title>Adult::Child1</title>
<ellipse fill="none" stroke="black" cx="27" cy="-113" rx="27" ry="18"/>
</g>
<!-- Adult::Child1&#45;&gt;Adult -->
<g id="edge1" class="edge"><title>Adult::Child1&#45;&gt;Adult</title>
<path fill="none" stroke="grey" d="M35.3496,-130.235C39.7115,-138.717 45.1469,-149.286 50.0413,-158.803"/>
<polygon fill="grey" stroke="grey" points="47.0096,-160.561 54.6957,-167.853 53.2346,-157.359 47.0096,-160.561"/>
</g>
<!-- Adult::Child2 -->
<g id="node3" class="node"><title>Adult::Child2</title>
<ellipse fill="none" stroke="black" cx="99" cy="-113" rx="27" ry="18"/>
</g>
<!-- Adult::Child2&#45;&gt;Adult -->
<g id="edge2" class="edge"><title>Adult::Child2&#45;&gt;Adult</title>
<path fill="none" stroke="grey" d="M90.6504,-130.235C86.2885,-138.717 80.8531,-149.286 75.9587,-158.803"/>
<polygon fill="grey" stroke="grey" points="72.7654,-157.359 71.3043,-167.853 78.9904,-160.561 72.7654,-157.359"/>
</g>
<!-- Adult::Child::Grandchild -->
<g id="node4" class="node"><title>Adult::Child::Grandchild</title>
<ellipse fill="none" stroke="black" cx="63" cy="-41" rx="27" ry="18"/>
</g>
<!-- Adult::Child::Grandchild&#45;&gt;Adult::Child1 -->
<g id="edge3" class="edge"><title>Adult::Child::Grandchild&#45;&gt;Adult::Child1</title>
<path fill="none" stroke="grey" d="M54.6504,-58.2354C50.2885,-66.7169 44.8531,-77.2856 39.9587,-86.8026"/>
<polygon fill="grey" stroke="grey" points="36.7654,-85.3591 35.3043,-95.8527 42.9904,-88.5605 36.7654,-85.3591"/>
</g>
<!-- Adult::Child::Grandchild&#45;&gt;Adult::Child2 -->
<g id="edge4" class="edge"><title>Adult::Child::Grandchild&#45;&gt;Adult::Child2</title>
<path fill="none" stroke="grey" d="M71.3496,-58.2354C75.7115,-66.7169 81.1469,-77.2856 86.0413,-86.8026"/>
<polygon fill="grey" stroke="grey" points="83.0096,-88.5605 90.6957,-95.8527 89.2346,-85.3591 83.0096,-88.5605"/>
</g>
</g>
</svg>
