<?xml version="1.0" encoding="UTF-8" standalone="no"?>
<!DOCTYPE svg PUBLIC "-//W3C//DTD SVG 1.1//EN"
 "http://www.w3.org/Graphics/SVG/1.1/DTD/svg11.dtd">
<!-- Generated by graphviz version 2.26.3 (20100126.1600)
 -->
<!-- Title: Perl Pages: 1 -->
<svg width="286pt" height="221pt"
 viewBox="0.00 0.00 286.00 221.00" xmlns="http://www.w3.org/2000/svg" xmlns:xlink="http://www.w3.org/1999/xlink">
<g id="graph1" class="graph" transform="scale(1 1) rotate(0) translate(4 217)">
<title>Perl</title>
<polygon fill="white" stroke="white" points="-4,5 -4,-217 283,-217 283,5 -4,5"/>
<text text-anchor="middle" x="139" y="-10.4" font-family="Times Roman,serif" font-size="14.00">Adult</text>
<!-- Adult -->
<g id="node1" class="node"><title>Adult</title>
<ellipse fill="none" stroke="black" cx="139" cy="-194" rx="33.234" ry="19.0919"/>
<text text-anchor="middle" x="139" y="-190.9" font-family="Times Roman,serif" font-size="14.00">Adult</text>
</g>
<!-- Adult::Child1 -->
<g id="node2" class="node"><title>Adult::Child1</title>
<ellipse fill="none" stroke="black" cx="65" cy="-120" rx="65.0538" ry="19.0919"/>
<text text-anchor="middle" x="65" y="-116.9" font-family="Times Roman,serif" font-size="14.00">Adult::Child1</text>
</g>
<!-- Adult::Child1&#45;&gt;Adult -->
<g id="edge2" class="edge"><title>Adult::Child1&#45;&gt;Adult</title>
<path fill="none" stroke="grey" d="M83.2921,-138.292C92.9355,-147.935 104.88,-159.88 115.232,-170.232"/>
<polygon fill="grey" stroke="grey" points="112.887,-172.837 122.433,-177.433 117.837,-167.887 112.887,-172.837"/>
</g>
<!-- Adult::Child2 -->
<g id="node3" class="node"><title>Adult::Child2</title>
<ellipse fill="none" stroke="black" cx="213" cy="-120" rx="65.0538" ry="19.0919"/>
<text text-anchor="middle" x="213" y="-116.9" font-family="Times Roman,serif" font-size="14.00">Adult::Child2</text>
</g>
<!-- Adult::Child2&#45;&gt;Adult -->
<g id="edge4" class="edge"><title>Adult::Child2&#45;&gt;Adult</title>
<path fill="none" stroke="grey" d="M194.708,-138.292C185.065,-147.935 173.12,-159.88 162.768,-170.232"/>
<polygon fill="grey" stroke="grey" points="160.163,-167.887 155.567,-177.433 165.113,-172.837 160.163,-167.887"/>
</g>
<!-- Adult::Child::Grandchild -->
<g id="node4" class="node"><title>Adult::Child::Grandchild</title>
<ellipse fill="none" stroke="black" cx="139" cy="-46" rx="108.187" ry="19.0919"/>
<text text-anchor="middle" x="139" y="-42.9" font-family="Times Roman,serif" font-size="14.00">Adult::Child::Grandchild</text>
</g>
<!-- Adult::Child::Grandchild&#45;&gt;Adult::Child1 -->
<g id="edge6" class="edge"><title>Adult::Child::Grandchild&#45;&gt;Adult::Child1</title>
<path fill="none" stroke="grey" d="M119.943,-65.0568C111.002,-73.9976 100.217,-84.7827 90.5786,-94.4214"/>
<polygon fill="grey" stroke="grey" points="88.0772,-91.9731 83.4809,-101.519 93.0269,-96.9228 88.0772,-91.9731"/>
</g>
<!-- Adult::Child::Grandchild&#45;&gt;Adult::Child2 -->
<g id="edge8" class="edge"><title>Adult::Child::Grandchild&#45;&gt;Adult::Child2</title>
<path fill="none" stroke="grey" d="M158.057,-65.0568C166.998,-73.9976 177.783,-84.7827 187.421,-94.4214"/>
<polygon fill="grey" stroke="grey" points="184.973,-96.9228 194.519,-101.519 189.923,-91.9731 184.973,-96.9228"/>
</g>
</g>
</svg>
