<?xml version="1.0" encoding="UTF-8" standalone="no"?>
<!DOCTYPE svg PUBLIC "-//W3C//DTD SVG 1.1//EN"
 "http://www.w3.org/Graphics/SVG/1.1/DTD/svg11.dtd">
<!-- Generated by graphviz version 2.30.1 (20130611.0131)
 -->
<!-- Title: Perl Pages: 1 -->
<svg width="264pt" height="211pt"
 viewBox="0.00 0.00 264.00 211.00" xmlns="http://www.w3.org/2000/svg" xmlns:xlink="http://www.w3.org/1999/xlink">
<g id="graph0" class="graph" transform="scale(1 1) rotate(0) translate(4 207)">
<title>Perl</title>
<polygon fill="white" stroke="white" points="-4,5 -4,-207 261,-207 261,5 -4,5"/>
<text text-anchor="middle" x="128" y="-7.8" font-family="Times,serif" font-size="14.00">Adult</text>
<!-- Adult -->
<g id="node1" class="node"><title>Adult</title>
<ellipse fill="none" stroke="black" cx="128" cy="-185" rx="30.5947" ry="18"/>
<text text-anchor="middle" x="128" y="-181.3" font-family="Times,serif" font-size="14.00">Adult</text>
</g>
<!-- Adult::Child1 -->
<g id="node2" class="node"><title>Adult::Child1</title>
<ellipse fill="none" stroke="black" cx="59" cy="-113" rx="59.5901" ry="18"/>
<text text-anchor="middle" x="59" y="-109.3" font-family="Times,serif" font-size="14.00">Adult::Child1</text>
</g>
<!-- Adult::Child1&#45;&gt;Adult -->
<g id="edge1" class="edge"><title>Adult::Child1&#45;&gt;Adult</title>
<path fill="none" stroke="grey" d="M75.352,-130.589C84.4981,-139.868 96.0229,-151.559 105.956,-161.637"/>
<polygon fill="grey" stroke="grey" points="103.664,-164.297 113.177,-168.962 108.649,-159.383 103.664,-164.297"/>
</g>
<!-- Adult::Child2 -->
<g id="node3" class="node"><title>Adult::Child2</title>
<ellipse fill="none" stroke="black" cx="197" cy="-113" rx="59.5901" ry="18"/>
<text text-anchor="middle" x="197" y="-109.3" font-family="Times,serif" font-size="14.00">Adult::Child2</text>
</g>
<!-- Adult::Child2&#45;&gt;Adult -->
<g id="edge2" class="edge"><title>Adult::Child2&#45;&gt;Adult</title>
<path fill="none" stroke="grey" d="M180.648,-130.589C171.502,-139.868 159.977,-151.559 150.044,-161.637"/>
<polygon fill="grey" stroke="grey" points="147.351,-159.383 142.823,-168.962 152.336,-164.297 147.351,-159.383"/>
</g>
<!-- Adult::Child::Grandchild -->
<g id="node4" class="node"><title>Adult::Child::Grandchild</title>
<ellipse fill="none" stroke="black" cx="128" cy="-41" rx="99.3824" ry="18"/>
<text text-anchor="middle" x="128" y="-37.3" font-family="Times,serif" font-size="14.00">Adult::Child::Grandchild</text>
</g>
<!-- Adult::Child::Grandchild&#45;&gt;Adult::Child1 -->
<g id="edge3" class="edge"><title>Adult::Child::Grandchild&#45;&gt;Adult::Child1</title>
<path fill="none" stroke="grey" d="M111.297,-58.945C102.737,-67.6293 92.1637,-78.3556 82.7695,-87.886"/>
<polygon fill="grey" stroke="grey" points="80.0766,-85.6322 75.5492,-95.211 85.0618,-90.5462 80.0766,-85.6322"/>
</g>
<!-- Adult::Child::Grandchild&#45;&gt;Adult::Child2 -->
<g id="edge4" class="edge"><title>Adult::Child::Grandchild&#45;&gt;Adult::Child2</title>
<path fill="none" stroke="grey" d="M144.703,-58.945C153.263,-67.6293 163.836,-78.3556 173.231,-87.886"/>
<polygon fill="grey" stroke="grey" points="170.938,-90.5462 180.451,-95.211 175.923,-85.6322 170.938,-90.5462"/>
</g>
</g>
</svg>
