<?xml version="1.0" encoding="UTF-8" standalone="no"?>
<!DOCTYPE svg PUBLIC "-//W3C//DTD SVG 1.1//EN"
 "http://www.w3.org/Graphics/SVG/1.1/DTD/svg11.dtd">
<!-- Generated by graphviz version 2.38.0 (20140413.2041)
 -->
<!-- Title: Heawood Pages: 1 -->
<svg width="230pt" height="1006pt"
 viewBox="0.00 0.00 230.00 1006.28" xmlns="http://www.w3.org/2000/svg" xmlns:xlink="http://www.w3.org/1999/xlink">
<g id="graph0" class="graph" transform="scale(1 1) rotate(0) translate(4 1002.28)">
<title>Heawood</title>
<polygon fill="white" stroke="none" points="-4,4 -4,-1002.28 226,-1002.28 226,4 -4,4"/>
<!-- 0 -->
<g id="node1" class="node"><title>0</title>
<ellipse fill="none" stroke="black" cx="176" cy="-980.285" rx="18" ry="18"/>
<text text-anchor="middle" x="176" y="-976.585" font-family="Arial" font-size="14.00">0</text>
</g>
<!-- 1 -->
<g id="node2" class="node"><title>1</title>
<ellipse fill="none" stroke="black" cx="107" cy="-908.285" rx="18" ry="18"/>
<text text-anchor="middle" x="107" y="-904.585" font-family="Arial" font-size="14.00">1</text>
</g>
<!-- 0&#45;&#45;1 -->
<g id="edge1" class="edge"><title>0&#45;&#45;1</title>
<path fill="none" stroke="black" d="M163.664,-966.77C151.105,-954.029 131.75,-934.393 119.229,-921.691"/>
</g>
<!-- 5 -->
<g id="node6" class="node"><title>5</title>
<ellipse fill="none" stroke="black" cx="176" cy="-620.285" rx="18" ry="18"/>
<text text-anchor="middle" x="176" y="-616.585" font-family="Arial" font-size="14.00">5</text>
</g>
<!-- 0&#45;&#45;5 -->
<g id="edge15" class="edge"><title>0&#45;&#45;5</title>
<path fill="none" stroke="black" d="M176,-962.236C176,-935.577 176,-882.399 176,-837.285 176,-837.285 176,-837.285 176,-763.285 176,-718.17 176,-664.993 176,-638.334"/>
</g>
<!-- 2 -->
<g id="node3" class="node"><title>2</title>
<ellipse fill="none" stroke="black" cx="107" cy="-836.285" rx="18" ry="18"/>
<text text-anchor="middle" x="107" y="-832.585" font-family="Arial" font-size="14.00">2</text>
</g>
<!-- 1&#45;&#45;2 -->
<g id="edge2" class="edge"><title>1&#45;&#45;2</title>
<path fill="none" stroke="black" d="M107,-889.982C107,-879.131 107,-865.202 107,-854.389"/>
</g>
<!-- 3 -->
<g id="node4" class="node"><title>3</title>
<ellipse fill="none" stroke="black" cx="84" cy="-764.285" rx="18" ry="18"/>
<text text-anchor="middle" x="84" y="-760.585" font-family="Arial" font-size="14.00">3</text>
</g>
<!-- 2&#45;&#45;3 -->
<g id="edge3" class="edge"><title>2&#45;&#45;3</title>
<path fill="none" stroke="black" d="M101.666,-819.05C98.0029,-807.902 93.1556,-793.15 89.4653,-781.918"/>
</g>
<!-- 7 -->
<g id="node8" class="node"><title>7</title>
<ellipse fill="none" stroke="black" cx="130" cy="-476.285" rx="18" ry="18"/>
<text text-anchor="middle" x="130" y="-472.585" font-family="Arial" font-size="14.00">7</text>
</g>
<!-- 2&#45;&#45;7 -->
<g id="edge16" class="edge"><title>2&#45;&#45;7</title>
<path fill="none" stroke="black" d="M111.435,-818.811C118.118,-792.49 130,-739.237 130,-693.285 130,-693.285 130,-693.285 130,-619.285 130,-574.17 130,-520.993 130,-494.334"/>
</g>
<!-- 4 -->
<g id="node5" class="node"><title>4</title>
<ellipse fill="none" stroke="black" cx="84" cy="-692.285" rx="18" ry="18"/>
<text text-anchor="middle" x="84" y="-688.585" font-family="Arial" font-size="14.00">4</text>
</g>
<!-- 3&#45;&#45;4 -->
<g id="edge4" class="edge"><title>3&#45;&#45;4</title>
<path fill="none" stroke="black" d="M84,-745.982C84,-735.131 84,-721.202 84,-710.389"/>
</g>
<!-- 4&#45;&#45;5 -->
<g id="edge5" class="edge"><title>4&#45;&#45;5</title>
<path fill="none" stroke="black" d="M97.9728,-680.653C115.265,-667.497 144.543,-645.219 161.896,-632.016"/>
</g>
<!-- 9 -->
<g id="node10" class="node"><title>9</title>
<ellipse fill="none" stroke="black" cx="87" cy="-332.285" rx="18" ry="18"/>
<text text-anchor="middle" x="87" y="-328.585" font-family="Arial" font-size="14.00">9</text>
</g>
<!-- 4&#45;&#45;9 -->
<g id="edge17" class="edge"><title>4&#45;&#45;9</title>
<path fill="none" stroke="black" d="M84,-674.236C84,-647.577 84,-594.399 84,-549.285 84,-549.285 84,-549.285 84,-475.285 84,-430.16 85.533,-376.988 86.4073,-350.332"/>
</g>
<!-- 6 -->
<g id="node7" class="node"><title>6</title>
<ellipse fill="none" stroke="black" cx="176" cy="-548.285" rx="18" ry="18"/>
<text text-anchor="middle" x="176" y="-544.585" font-family="Arial" font-size="14.00">6</text>
</g>
<!-- 5&#45;&#45;6 -->
<g id="edge6" class="edge"><title>5&#45;&#45;6</title>
<path fill="none" stroke="black" d="M176,-601.982C176,-591.131 176,-577.202 176,-566.389"/>
</g>
<!-- 6&#45;&#45;7 -->
<g id="edge7" class="edge"><title>6&#45;&#45;7</title>
<path fill="none" stroke="black" d="M166.469,-532.781C158.574,-520.767 147.41,-503.779 139.519,-491.77"/>
</g>
<!-- 11 -->
<g id="node12" class="node"><title>11</title>
<ellipse fill="none" stroke="black" cx="87" cy="-178.591" rx="20.5982" ry="20.5982"/>
<text text-anchor="middle" x="87" y="-174.891" font-family="Arial" font-size="14.00">11</text>
</g>
<!-- 6&#45;&#45;11 -->
<g id="edge18" class="edge"><title>6&#45;&#45;11</title>
<path fill="none" stroke="black" d="M176,-530.236C176,-503.577 176,-450.399 176,-405.285 176,-405.285 176,-405.285 176,-331.285 176,-273.576 127.49,-218.395 102.098,-193.465"/>
</g>
<!-- 8 -->
<g id="node9" class="node"><title>8</title>
<ellipse fill="none" stroke="black" cx="130" cy="-404.285" rx="18" ry="18"/>
<text text-anchor="middle" x="130" y="-400.585" font-family="Arial" font-size="14.00">8</text>
</g>
<!-- 7&#45;&#45;8 -->
<g id="edge8" class="edge"><title>7&#45;&#45;8</title>
<path fill="none" stroke="black" d="M130,-457.982C130,-447.131 130,-433.202 130,-422.389"/>
</g>
<!-- 8&#45;&#45;9 -->
<g id="edge9" class="edge"><title>8&#45;&#45;9</title>
<path fill="none" stroke="black" d="M120.881,-388.44C113.584,-376.56 103.4,-359.982 96.106,-348.109"/>
</g>
<!-- 13 -->
<g id="node14" class="node"><title>13</title>
<ellipse fill="none" stroke="black" cx="136" cy="-21.4481" rx="21.3963" ry="21.3963"/>
<text text-anchor="middle" x="136" y="-17.7481" font-family="Arial" font-size="14.00">13</text>
</g>
<!-- 8&#45;&#45;13 -->
<g id="edge19" class="edge"><title>8&#45;&#45;13</title>
<path fill="none" stroke="black" d="M131.157,-386.276C132.9,-359.133 136,-304.339 136,-257.837 136,-257.837 136,-257.837 136,-177.591 136,-129.378 136,-72.7374 136,-43.0264"/>
</g>
<!-- 10 -->
<g id="node11" class="node"><title>10</title>
<ellipse fill="none" stroke="black" cx="87" cy="-256.837" rx="21.3963" ry="21.3963"/>
<text text-anchor="middle" x="87" y="-253.137" font-family="Arial" font-size="14.00">10</text>
</g>
<!-- 9&#45;&#45;10 -->
<g id="edge10" class="edge"><title>9&#45;&#45;10</title>
<path fill="none" stroke="black" d="M87,-314.25C87,-303.571 87,-289.738 87,-278.443"/>
</g>
<!-- 10&#45;&#45;1 -->
<g id="edge20" class="edge"><title>10&#45;&#45;1</title>
<path fill="none" stroke="black" d="M71.4461,-271.848C46.4219,-296.015 0,-348.262 0,-403.285 0,-765.285 0,-765.285 0,-765.285 0,-825.786 62.7214,-876.883 92.1221,-897.511"/>
</g>
<!-- 10&#45;&#45;11 -->
<g id="edge11" class="edge"><title>10&#45;&#45;11</title>
<path fill="none" stroke="black" d="M87,-235.002C87,-223.979 87,-210.51 87,-199.611"/>
</g>
<!-- 12 -->
<g id="node13" class="node"><title>12</title>
<ellipse fill="none" stroke="black" cx="87" cy="-100.344" rx="21.3963" ry="21.3963"/>
<text text-anchor="middle" x="87" y="-96.6443" font-family="Arial" font-size="14.00">12</text>
</g>
<!-- 11&#45;&#45;12 -->
<g id="edge12" class="edge"><title>11&#45;&#45;12</title>
<path fill="none" stroke="black" d="M87,-157.558C87,-146.615 87,-133.085 87,-122.04"/>
</g>
<!-- 12&#45;&#45;3 -->
<g id="edge21" class="edge"><title>12&#45;&#45;3</title>
<path fill="none" stroke="black" d="M75.8478,-119.022C69.4718,-129.847 61.8108,-144.191 57,-157.792 42.1996,-199.638 38,-211.451 38,-255.837 38,-621.285 38,-621.285 38,-621.285 38,-661.732 43.483,-672.163 57,-710.285 61.7624,-723.716 69.2363,-738.068 75.1143,-748.445"/>
</g>
<!-- 12&#45;&#45;13 -->
<g id="edge13" class="edge"><title>12&#45;&#45;13</title>
<path fill="none" stroke="black" d="M98.1189,-81.8954C106.138,-69.3108 116.916,-52.3966 124.925,-39.828"/>
</g>
<!-- 13&#45;&#45;0 -->
<g id="edge14" class="edge"><title>13&#45;&#45;0</title>
<path fill="none" stroke="black" d="M150.98,-37.217C175.62,-63.1638 222,-119.694 222,-177.591 222,-837.285 222,-837.285 222,-837.285 222,-885.485 197.717,-938.605 184.437,-964.051"/>
</g>
</g>
</svg>
