<?xml version="1.0" encoding="UTF-8" standalone="no"?>
<!DOCTYPE svg PUBLIC "-//W3C//DTD SVG 1.1//EN"
 "http://www.w3.org/Graphics/SVG/1.1/DTD/svg11.dtd">
<!-- Generated by graphviz version 2.30.1 (20130611.0131)
 -->
<!-- Title: Heawood Pages: 1 -->
<svg width="230pt" height="1012pt"
 viewBox="0.00 0.00 230.00 1012.00" xmlns="http://www.w3.org/2000/svg" xmlns:xlink="http://www.w3.org/1999/xlink">
<g id="graph0" class="graph" transform="scale(1 1) rotate(0) translate(4 1008)">
<title>Heawood</title>
<polygon fill="white" stroke="white" points="-4,5 -4,-1008 227,-1008 227,5 -4,5"/>
<!-- 0 -->
<g id="node1" class="node"><title>0</title>
<ellipse fill="none" stroke="black" cx="176" cy="-986" rx="18" ry="18"/>
<text text-anchor="middle" x="176" y="-982.3" font-family="Arial" font-size="14.00">0</text>
</g>
<!-- 1 -->
<g id="node2" class="node"><title>1</title>
<ellipse fill="none" stroke="black" cx="107" cy="-914" rx="18" ry="18"/>
<text text-anchor="middle" x="107" y="-910.3" font-family="Arial" font-size="14.00">1</text>
</g>
<!-- 0&#45;&#45;1 -->
<g id="edge1" class="edge"><title>0&#45;&#45;1</title>
<path fill="none" stroke="black" d="M163.664,-972.485C151.105,-959.744 131.75,-940.108 119.229,-927.406"/>
</g>
<!-- 5 -->
<g id="node6" class="node"><title>5</title>
<ellipse fill="none" stroke="black" cx="176" cy="-626" rx="18" ry="18"/>
<text text-anchor="middle" x="176" y="-622.3" font-family="Arial" font-size="14.00">5</text>
</g>
<!-- 0&#45;&#45;5 -->
<g id="edge15" class="edge"><title>0&#45;&#45;5</title>
<path fill="none" stroke="black" d="M176,-967.951C176,-941.292 176,-888.115 176,-843 176,-843 176,-843 176,-769 176,-723.885 176,-670.708 176,-644.049"/>
</g>
<!-- 2 -->
<g id="node3" class="node"><title>2</title>
<ellipse fill="none" stroke="black" cx="107" cy="-842" rx="18" ry="18"/>
<text text-anchor="middle" x="107" y="-838.3" font-family="Arial" font-size="14.00">2</text>
</g>
<!-- 1&#45;&#45;2 -->
<g id="edge2" class="edge"><title>1&#45;&#45;2</title>
<path fill="none" stroke="black" d="M107,-895.697C107,-884.846 107,-870.917 107,-860.104"/>
</g>
<!-- 3 -->
<g id="node4" class="node"><title>3</title>
<ellipse fill="none" stroke="black" cx="84" cy="-770" rx="18" ry="18"/>
<text text-anchor="middle" x="84" y="-766.3" font-family="Arial" font-size="14.00">3</text>
</g>
<!-- 2&#45;&#45;3 -->
<g id="edge3" class="edge"><title>2&#45;&#45;3</title>
<path fill="none" stroke="black" d="M101.666,-824.765C98.0029,-813.618 93.1556,-798.865 89.4653,-787.633"/>
</g>
<!-- 7 -->
<g id="node8" class="node"><title>7</title>
<ellipse fill="none" stroke="black" cx="130" cy="-482" rx="18" ry="18"/>
<text text-anchor="middle" x="130" y="-478.3" font-family="Arial" font-size="14.00">7</text>
</g>
<!-- 2&#45;&#45;7 -->
<g id="edge16" class="edge"><title>2&#45;&#45;7</title>
<path fill="none" stroke="black" d="M111.435,-824.526C118.118,-798.206 130,-744.952 130,-699 130,-699 130,-699 130,-625 130,-579.885 130,-526.708 130,-500.049"/>
</g>
<!-- 4 -->
<g id="node5" class="node"><title>4</title>
<ellipse fill="none" stroke="black" cx="84" cy="-698" rx="18" ry="18"/>
<text text-anchor="middle" x="84" y="-694.3" font-family="Arial" font-size="14.00">4</text>
</g>
<!-- 3&#45;&#45;4 -->
<g id="edge4" class="edge"><title>3&#45;&#45;4</title>
<path fill="none" stroke="black" d="M84,-751.697C84,-740.846 84,-726.917 84,-716.104"/>
</g>
<!-- 4&#45;&#45;5 -->
<g id="edge5" class="edge"><title>4&#45;&#45;5</title>
<path fill="none" stroke="black" d="M97.9728,-686.369C115.265,-673.212 144.543,-650.934 161.896,-637.732"/>
</g>
<!-- 9 -->
<g id="node10" class="node"><title>9</title>
<ellipse fill="none" stroke="black" cx="87" cy="-338" rx="18" ry="18"/>
<text text-anchor="middle" x="87" y="-334.3" font-family="Arial" font-size="14.00">9</text>
</g>
<!-- 4&#45;&#45;9 -->
<g id="edge17" class="edge"><title>4&#45;&#45;9</title>
<path fill="none" stroke="black" d="M84,-679.951C84,-653.292 84,-600.115 84,-555 84,-555 84,-555 84,-481 84,-435.875 85.533,-382.703 86.4073,-356.047"/>
</g>
<!-- 6 -->
<g id="node7" class="node"><title>6</title>
<ellipse fill="none" stroke="black" cx="176" cy="-554" rx="18" ry="18"/>
<text text-anchor="middle" x="176" y="-550.3" font-family="Arial" font-size="14.00">6</text>
</g>
<!-- 5&#45;&#45;6 -->
<g id="edge6" class="edge"><title>5&#45;&#45;6</title>
<path fill="none" stroke="black" d="M176,-607.697C176,-596.846 176,-582.917 176,-572.104"/>
</g>
<!-- 6&#45;&#45;7 -->
<g id="edge7" class="edge"><title>6&#45;&#45;7</title>
<path fill="none" stroke="black" d="M166.469,-538.496C158.574,-526.482 147.41,-509.494 139.519,-497.485"/>
</g>
<!-- 11 -->
<g id="node12" class="node"><title>11</title>
<ellipse fill="none" stroke="black" cx="87" cy="-182" rx="21.1728" ry="21.3963"/>
<text text-anchor="middle" x="87" y="-178.3" font-family="Arial" font-size="14.00">11</text>
</g>
<!-- 6&#45;&#45;11 -->
<g id="edge18" class="edge"><title>6&#45;&#45;11</title>
<path fill="none" stroke="black" d="M176,-535.951C176,-509.292 176,-456.115 176,-411 176,-411 176,-411 176,-337 176,-278.637 127.49,-222.512 102.098,-197.131"/>
</g>
<!-- 8 -->
<g id="node9" class="node"><title>8</title>
<ellipse fill="none" stroke="black" cx="130" cy="-410" rx="18" ry="18"/>
<text text-anchor="middle" x="130" y="-406.3" font-family="Arial" font-size="14.00">8</text>
</g>
<!-- 7&#45;&#45;8 -->
<g id="edge8" class="edge"><title>7&#45;&#45;8</title>
<path fill="none" stroke="black" d="M130,-463.697C130,-452.846 130,-438.917 130,-428.104"/>
</g>
<!-- 8&#45;&#45;9 -->
<g id="edge9" class="edge"><title>8&#45;&#45;9</title>
<path fill="none" stroke="black" d="M120.881,-394.155C113.584,-382.276 103.4,-365.697 96.106,-353.824"/>
</g>
<!-- 13 -->
<g id="node14" class="node"><title>13</title>
<ellipse fill="none" stroke="black" cx="136" cy="-22" rx="21.1728" ry="21.3963"/>
<text text-anchor="middle" x="136" y="-18.3" font-family="Arial" font-size="14.00">13</text>
</g>
<!-- 8&#45;&#45;13 -->
<g id="edge19" class="edge"><title>8&#45;&#45;13</title>
<path fill="none" stroke="black" d="M131.157,-391.927C132.9,-364.68 136,-309.678 136,-263 136,-263 136,-263 136,-181 136,-131.625 136,-73.5708 136,-43.4528"/>
</g>
<!-- 10 -->
<g id="node11" class="node"><title>10</title>
<ellipse fill="none" stroke="black" cx="87" cy="-262" rx="21.1728" ry="21.3963"/>
<text text-anchor="middle" x="87" y="-258.3" font-family="Arial" font-size="14.00">10</text>
</g>
<!-- 9&#45;&#45;10 -->
<g id="edge10" class="edge"><title>9&#45;&#45;10</title>
<path fill="none" stroke="black" d="M87,-319.837C87,-308.992 87,-294.919 87,-283.49"/>
</g>
<!-- 10&#45;&#45;11 -->
<g id="edge11" class="edge"><title>10&#45;&#45;11</title>
<path fill="none" stroke="black" d="M87,-240.506C87,-229.132 87,-215.023 87,-203.628"/>
</g>
<!-- 10&#45;&#45;1 -->
<g id="edge20" class="edge"><title>10&#45;&#45;1</title>
<path fill="none" stroke="black" d="M71.4461,-277.077C46.4219,-301.353 0,-353.823 0,-409 0,-771 0,-771 0,-771 0,-831.502 62.7214,-882.598 92.1221,-903.226"/>
</g>
<!-- 12 -->
<g id="node13" class="node"><title>12</title>
<ellipse fill="none" stroke="black" cx="87" cy="-102" rx="21.1728" ry="21.3963"/>
<text text-anchor="middle" x="87" y="-98.3" font-family="Arial" font-size="14.00">12</text>
</g>
<!-- 11&#45;&#45;12 -->
<g id="edge12" class="edge"><title>11&#45;&#45;12</title>
<path fill="none" stroke="black" d="M87,-160.506C87,-149.132 87,-135.023 87,-123.628"/>
</g>
<!-- 12&#45;&#45;13 -->
<g id="edge13" class="edge"><title>12&#45;&#45;13</title>
<path fill="none" stroke="black" d="M98.1189,-83.3006C106.138,-70.5354 116.916,-53.3784 124.925,-40.6294"/>
</g>
<!-- 12&#45;&#45;3 -->
<g id="edge21" class="edge"><title>12&#45;&#45;3</title>
<path fill="none" stroke="black" d="M75.9742,-120.603C69.5619,-131.564 61.8192,-146.166 57,-160 41.9739,-203.134 38,-215.324 38,-261 38,-627 38,-627 38,-627 38,-667.447 43.483,-677.879 57,-716 61.7624,-729.431 69.2363,-743.783 75.1143,-754.16"/>
</g>
<!-- 13&#45;&#45;0 -->
<g id="edge14" class="edge"><title>13&#45;&#45;0</title>
<path fill="none" stroke="black" d="M150.589,-37.6733C175.125,-63.9842 222,-121.974 222,-181 222,-843 222,-843 222,-843 222,-891.2 197.717,-944.32 184.437,-969.766"/>
</g>
</g>
</svg>
