<?xml version="1.0" encoding="UTF-8" standalone="no"?>
<!DOCTYPE svg PUBLIC "-//W3C//DTD SVG 1.1//EN"
 "http://www.w3.org/Graphics/SVG/1.1/DTD/svg11.dtd">
<!-- Generated by graphviz version 2.26.3 (20100126.1600)
 -->
<!-- Title: Heawood Pages: 1 -->
<svg width="230pt" height="1012pt"
 viewBox="0.00 0.00 230.00 1012.00" xmlns="http://www.w3.org/2000/svg" xmlns:xlink="http://www.w3.org/1999/xlink">
<g id="graph1" class="graph" transform="scale(1 1) rotate(0) translate(4 1008)">
<title>Heawood</title>
<polygon fill="white" stroke="white" points="-4,5 -4,-1008 227,-1008 227,5 -4,5"/>
<!-- 0 -->
<g id="node1" class="node"><title>0</title>
<ellipse fill="none" stroke="black" cx="176" cy="-986" rx="18" ry="18"/>
<text text-anchor="middle" x="176" y="-981.4" font-family="Arial" font-size="14.00">0</text>
</g>
<!-- 1 -->
<g id="node2" class="node"><title>1</title>
<ellipse fill="none" stroke="black" cx="107" cy="-914" rx="18" ry="18"/>
<text text-anchor="middle" x="107" y="-909.4" font-family="Arial" font-size="14.00">1</text>
</g>
<!-- 0&#45;&#45;1 -->
<g id="edge2" class="edge"><title>0&#45;&#45;1</title>
<path fill="none" stroke="black" d="M163.344,-972.794C150.895,-959.803 131.997,-940.084 119.575,-927.122"/>
</g>
<!-- 5 -->
<g id="node10" class="node"><title>5</title>
<ellipse fill="none" stroke="black" cx="176" cy="-626" rx="18" ry="18"/>
<text text-anchor="middle" x="176" y="-621.4" font-family="Arial" font-size="14.00">5</text>
</g>
<!-- 0&#45;&#45;5 -->
<g id="edge30" class="edge"><title>0&#45;&#45;5</title>
<path fill="none" stroke="black" d="M176,-967.815C176,-940.498 176,-887.25 176,-842 176,-842 176,-842 176,-770 176,-724.75 176,-671.502 176,-644.185"/>
</g>
<!-- 2 -->
<g id="node4" class="node"><title>2</title>
<ellipse fill="none" stroke="black" cx="107" cy="-842" rx="18" ry="18"/>
<text text-anchor="middle" x="107" y="-837.4" font-family="Arial" font-size="14.00">2</text>
</g>
<!-- 1&#45;&#45;2 -->
<g id="edge4" class="edge"><title>1&#45;&#45;2</title>
<path fill="none" stroke="black" d="M107,-895.831C107,-885 107,-871.288 107,-860.413"/>
</g>
<!-- 3 -->
<g id="node6" class="node"><title>3</title>
<ellipse fill="none" stroke="black" cx="84" cy="-770" rx="18" ry="18"/>
<text text-anchor="middle" x="84" y="-765.4" font-family="Arial" font-size="14.00">3</text>
</g>
<!-- 2&#45;&#45;3 -->
<g id="edge6" class="edge"><title>2&#45;&#45;3</title>
<path fill="none" stroke="black" d="M101.432,-824.571C97.8162,-813.251 93.1223,-798.557 89.5164,-787.269"/>
</g>
<!-- 7 -->
<g id="node14" class="node"><title>7</title>
<ellipse fill="none" stroke="black" cx="130" cy="-482" rx="18" ry="18"/>
<text text-anchor="middle" x="130" y="-477.4" font-family="Arial" font-size="14.00">7</text>
</g>
<!-- 2&#45;&#45;7 -->
<g id="edge32" class="edge"><title>2&#45;&#45;7</title>
<path fill="none" stroke="black" d="M111.654,-824.41C118.375,-797.42 130,-744.077 130,-698 130,-698 130,-698 130,-626 130,-580.75 130,-527.502 130,-500.185"/>
</g>
<!-- 4 -->
<g id="node8" class="node"><title>4</title>
<ellipse fill="none" stroke="black" cx="84" cy="-698" rx="18" ry="18"/>
<text text-anchor="middle" x="84" y="-693.4" font-family="Arial" font-size="14.00">4</text>
</g>
<!-- 3&#45;&#45;4 -->
<g id="edge8" class="edge"><title>3&#45;&#45;4</title>
<path fill="none" stroke="black" d="M84,-751.831C84,-741 84,-727.288 84,-716.413"/>
</g>
<!-- 4&#45;&#45;5 -->
<g id="edge10" class="edge"><title>4&#45;&#45;5</title>
<path fill="none" stroke="black" d="M98.375,-686.75C115.659,-673.224 144.487,-650.662 161.726,-637.171"/>
</g>
<!-- 9 -->
<g id="node18" class="node"><title>9</title>
<ellipse fill="none" stroke="black" cx="88" cy="-338" rx="18" ry="18"/>
<text text-anchor="middle" x="88" y="-333.4" font-family="Arial" font-size="14.00">9</text>
</g>
<!-- 4&#45;&#45;9 -->
<g id="edge34" class="edge"><title>4&#45;&#45;9</title>
<path fill="none" stroke="black" d="M84,-679.815C84,-652.498 84,-599.25 84,-554 84,-554 84,-554 84,-482 84,-436.733 85.9996,-383.491 87.1712,-356.181"/>
</g>
<!-- 6 -->
<g id="node12" class="node"><title>6</title>
<ellipse fill="none" stroke="black" cx="176" cy="-554" rx="18" ry="18"/>
<text text-anchor="middle" x="176" y="-549.4" font-family="Arial" font-size="14.00">6</text>
</g>
<!-- 5&#45;&#45;6 -->
<g id="edge12" class="edge"><title>5&#45;&#45;6</title>
<path fill="none" stroke="black" d="M176,-607.831C176,-597 176,-583.288 176,-572.413"/>
</g>
<!-- 6&#45;&#45;7 -->
<g id="edge14" class="edge"><title>6&#45;&#45;7</title>
<path fill="none" stroke="black" d="M166.245,-538.731C158.438,-526.512 147.544,-509.46 139.741,-497.247"/>
</g>
<!-- 11 -->
<g id="node22" class="node"><title>11</title>
<ellipse fill="none" stroke="black" cx="88" cy="-182" rx="20.967" ry="21.4663"/>
<text text-anchor="middle" x="88" y="-177.4" font-family="Arial" font-size="14.00">11</text>
</g>
<!-- 6&#45;&#45;11 -->
<g id="edge36" class="edge"><title>6&#45;&#45;11</title>
<path fill="none" stroke="black" d="M176,-535.815C176,-508.498 176,-455.25 176,-410 176,-410 176,-410 176,-338 176,-279.541 128.541,-222.812 103.328,-196.799"/>
</g>
<!-- 8 -->
<g id="node16" class="node"><title>8</title>
<ellipse fill="none" stroke="black" cx="130" cy="-410" rx="18" ry="18"/>
<text text-anchor="middle" x="130" y="-405.4" font-family="Arial" font-size="14.00">8</text>
</g>
<!-- 7&#45;&#45;8 -->
<g id="edge16" class="edge"><title>7&#45;&#45;8</title>
<path fill="none" stroke="black" d="M130,-463.831C130,-453 130,-439.288 130,-428.413"/>
</g>
<!-- 8&#45;&#45;9 -->
<g id="edge18" class="edge"><title>8&#45;&#45;9</title>
<path fill="none" stroke="black" d="M120.887,-394.377C113.842,-382.3 104.136,-365.662 97.0956,-353.592"/>
</g>
<!-- 13 -->
<g id="node26" class="node"><title>13</title>
<ellipse fill="none" stroke="black" cx="138" cy="-22" rx="22.1371" ry="22.1371"/>
<text text-anchor="middle" x="138" y="-17.4" font-family="Arial" font-size="14.00">13</text>
</g>
<!-- 8&#45;&#45;13 -->
<g id="edge38" class="edge"><title>8&#45;&#45;13</title>
<path fill="none" stroke="black" d="M131.619,-391.789C133.957,-363.879 138,-308.832 138,-262 138,-262 138,-262 138,-182 138,-132.833 138,-75.1681 138,-44.26"/>
</g>
<!-- 10 -->
<g id="node20" class="node"><title>10</title>
<ellipse fill="none" stroke="black" cx="88" cy="-262" rx="22.1371" ry="22.1371"/>
<text text-anchor="middle" x="88" y="-257.4" font-family="Arial" font-size="14.00">10</text>
</g>
<!-- 9&#45;&#45;10 -->
<g id="edge20" class="edge"><title>9&#45;&#45;10</title>
<path fill="none" stroke="black" d="M88,-319.989C88,-309.279 88,-295.607 88,-284.228"/>
</g>
<!-- 10&#45;&#45;1 -->
<g id="edge40" class="edge"><title>10&#45;&#45;1</title>
<path fill="none" stroke="black" d="M71.4479,-277.076C45.9564,-302.034 0,-354.697 0,-410 0,-770 0,-770 0,-770 0,-830.735 62.0831,-882.495 91.6695,-903.714"/>
</g>
<!-- 10&#45;&#45;11 -->
<g id="edge22" class="edge"><title>10&#45;&#45;11</title>
<path fill="none" stroke="black" d="M88,-239.716C88,-228.435 88,-214.798 88,-203.613"/>
</g>
<!-- 12 -->
<g id="node24" class="node"><title>12</title>
<ellipse fill="none" stroke="black" cx="88" cy="-102" rx="22.1371" ry="22.1371"/>
<text text-anchor="middle" x="88" y="-97.4" font-family="Arial" font-size="14.00">12</text>
</g>
<!-- 11&#45;&#45;12 -->
<g id="edge24" class="edge"><title>11&#45;&#45;12</title>
<path fill="none" stroke="black" d="M88,-160.14C88,-148.944 88,-135.343 88,-124.112"/>
</g>
<!-- 12&#45;&#45;3 -->
<g id="edge42" class="edge"><title>12&#45;&#45;3</title>
<path fill="none" stroke="black" d="M76.435,-120.984C70.1604,-132.025 62.7401,-146.405 58,-160 42.7909,-203.621 38,-215.803 38,-262 38,-626 38,-626 38,-626 38,-666.882 43.5265,-677.402 57,-716 61.698,-729.459 69.0245,-743.858 74.8608,-754.4"/>
</g>
<!-- 12&#45;&#45;13 -->
<g id="edge26" class="edge"><title>12&#45;&#45;13</title>
<path fill="none" stroke="black" d="M99.8493,-83.0411C107.82,-70.2885 118.283,-53.5469 126.236,-40.8228"/>
</g>
<!-- 13&#45;&#45;0 -->
<g id="edge28" class="edge"><title>13&#45;&#45;0</title>
<path fill="none" stroke="black" d="M153.407,-38.2574C177.657,-65.6247 222,-123.646 222,-182 222,-842 222,-842 222,-842 222,-890.552 197.977,-944.133 184.652,-970.119"/>
</g>
</g>
</svg>
