<?xml version="1.0" encoding="UTF-8" standalone="no"?>
<!DOCTYPE svg PUBLIC "-//W3C//DTD SVG 1.1//EN"
 "http://www.w3.org/Graphics/SVG/1.1/DTD/svg11.dtd">
<!-- Generated by graphviz version 2.38.0 (20140413.2041)
 -->
<!-- Title: Heawood Pages: 1 -->
<svg width="230pt" height="980pt"
 viewBox="0.00 0.00 230.00 980.00" xmlns="http://www.w3.org/2000/svg" xmlns:xlink="http://www.w3.org/1999/xlink">
<g id="graph0" class="graph" transform="scale(1 1) rotate(0) translate(4 976)">
<title>Heawood</title>
<polygon fill="white" stroke="none" points="-4,4 -4,-976 226,-976 226,4 -4,4"/>
<!-- 0 -->
<g id="node1" class="node"><title>0</title>
<ellipse fill="none" stroke="black" cx="176" cy="-954" rx="18" ry="18"/>
</g>
<!-- 1 -->
<g id="node2" class="node"><title>1</title>
<ellipse fill="none" stroke="black" cx="107" cy="-882" rx="18" ry="18"/>
</g>
<!-- 0&#45;&#45;1 -->
<g id="edge1" class="edge"><title>0&#45;&#45;1</title>
<path fill="none" stroke="black" d="M163.664,-940.485C151.105,-927.744 131.75,-908.108 119.229,-895.406"/>
</g>
<!-- 5 -->
<g id="node6" class="node"><title>5</title>
<ellipse fill="none" stroke="black" cx="176" cy="-594" rx="18" ry="18"/>
</g>
<!-- 0&#45;&#45;5 -->
<g id="edge15" class="edge"><title>0&#45;&#45;5</title>
<path fill="none" stroke="black" d="M176,-935.951C176,-909.292 176,-856.115 176,-811 176,-811 176,-811 176,-737 176,-691.885 176,-638.708 176,-612.049"/>
</g>
<!-- 2 -->
<g id="node3" class="node"><title>2</title>
<ellipse fill="none" stroke="black" cx="107" cy="-810" rx="18" ry="18"/>
</g>
<!-- 1&#45;&#45;2 -->
<g id="edge2" class="edge"><title>1&#45;&#45;2</title>
<path fill="none" stroke="black" d="M107,-863.697C107,-852.846 107,-838.917 107,-828.104"/>
</g>
<!-- 3 -->
<g id="node4" class="node"><title>3</title>
<ellipse fill="none" stroke="black" cx="84" cy="-738" rx="18" ry="18"/>
</g>
<!-- 2&#45;&#45;3 -->
<g id="edge3" class="edge"><title>2&#45;&#45;3</title>
<path fill="none" stroke="black" d="M101.666,-792.765C98.0029,-781.618 93.1556,-766.865 89.4653,-755.633"/>
</g>
<!-- 7 -->
<g id="node8" class="node"><title>7</title>
<ellipse fill="none" stroke="black" cx="130" cy="-450" rx="18" ry="18"/>
</g>
<!-- 2&#45;&#45;7 -->
<g id="edge16" class="edge"><title>2&#45;&#45;7</title>
<path fill="none" stroke="black" d="M111.435,-792.526C118.118,-766.206 130,-712.952 130,-667 130,-667 130,-667 130,-593 130,-547.885 130,-494.708 130,-468.049"/>
</g>
<!-- 4 -->
<g id="node5" class="node"><title>4</title>
<ellipse fill="none" stroke="black" cx="84" cy="-666" rx="18" ry="18"/>
</g>
<!-- 3&#45;&#45;4 -->
<g id="edge4" class="edge"><title>3&#45;&#45;4</title>
<path fill="none" stroke="black" d="M84,-719.697C84,-708.846 84,-694.917 84,-684.104"/>
</g>
<!-- 4&#45;&#45;5 -->
<g id="edge5" class="edge"><title>4&#45;&#45;5</title>
<path fill="none" stroke="black" d="M97.9728,-654.369C115.265,-641.212 144.543,-618.934 161.896,-605.732"/>
</g>
<!-- 9 -->
<g id="node10" class="node"><title>9</title>
<ellipse fill="none" stroke="black" cx="84" cy="-306" rx="18" ry="18"/>
</g>
<!-- 4&#45;&#45;9 -->
<g id="edge17" class="edge"><title>4&#45;&#45;9</title>
<path fill="none" stroke="black" d="M84,-647.951C84,-621.292 84,-568.115 84,-523 84,-523 84,-523 84,-449 84,-403.885 84,-350.708 84,-324.049"/>
</g>
<!-- 6 -->
<g id="node7" class="node"><title>6</title>
<ellipse fill="none" stroke="black" cx="176" cy="-522" rx="18" ry="18"/>
</g>
<!-- 5&#45;&#45;6 -->
<g id="edge6" class="edge"><title>5&#45;&#45;6</title>
<path fill="none" stroke="black" d="M176,-575.697C176,-564.846 176,-550.917 176,-540.104"/>
</g>
<!-- 6&#45;&#45;7 -->
<g id="edge7" class="edge"><title>6&#45;&#45;7</title>
<path fill="none" stroke="black" d="M166.469,-506.496C158.574,-494.482 147.41,-477.494 139.519,-465.485"/>
</g>
<!-- 11 -->
<g id="node12" class="node"><title>11</title>
<ellipse fill="none" stroke="black" cx="84" cy="-162" rx="18" ry="18"/>
</g>
<!-- 6&#45;&#45;11 -->
<g id="edge18" class="edge"><title>6&#45;&#45;11</title>
<path fill="none" stroke="black" d="M176,-503.951C176,-477.292 176,-424.115 176,-379 176,-379 176,-379 176,-305 176,-248.013 123.166,-195.849 97.5749,-173.925"/>
</g>
<!-- 8 -->
<g id="node9" class="node"><title>8</title>
<ellipse fill="none" stroke="black" cx="130" cy="-378" rx="18" ry="18"/>
</g>
<!-- 7&#45;&#45;8 -->
<g id="edge8" class="edge"><title>7&#45;&#45;8</title>
<path fill="none" stroke="black" d="M130,-431.697C130,-420.846 130,-406.917 130,-396.104"/>
</g>
<!-- 8&#45;&#45;9 -->
<g id="edge9" class="edge"><title>8&#45;&#45;9</title>
<path fill="none" stroke="black" d="M120.469,-362.496C112.574,-350.482 101.41,-333.494 93.519,-321.485"/>
</g>
<!-- 13 -->
<g id="node14" class="node"><title>13</title>
<ellipse fill="none" stroke="black" cx="130" cy="-18" rx="18" ry="18"/>
</g>
<!-- 8&#45;&#45;13 -->
<g id="edge19" class="edge"><title>8&#45;&#45;13</title>
<path fill="none" stroke="black" d="M130,-359.951C130,-333.292 130,-280.115 130,-235 130,-235 130,-235 130,-161 130,-115.885 130,-62.7084 130,-36.0493"/>
</g>
<!-- 10 -->
<g id="node11" class="node"><title>10</title>
<ellipse fill="none" stroke="black" cx="84" cy="-234" rx="18" ry="18"/>
</g>
<!-- 9&#45;&#45;10 -->
<g id="edge10" class="edge"><title>9&#45;&#45;10</title>
<path fill="none" stroke="black" d="M84,-287.697C84,-276.846 84,-262.917 84,-252.104"/>
</g>
<!-- 10&#45;&#45;1 -->
<g id="edge20" class="edge"><title>10&#45;&#45;1</title>
<path fill="none" stroke="black" d="M70.875,-246.876C47.25,-269.628 0,-322.005 0,-377 0,-739 0,-739 0,-739 0,-799.502 62.7214,-850.598 92.1221,-871.226"/>
</g>
<!-- 10&#45;&#45;11 -->
<g id="edge11" class="edge"><title>10&#45;&#45;11</title>
<path fill="none" stroke="black" d="M84,-215.697C84,-204.846 84,-190.917 84,-180.104"/>
</g>
<!-- 12 -->
<g id="node13" class="node"><title>12</title>
<ellipse fill="none" stroke="black" cx="84" cy="-90" rx="18" ry="18"/>
</g>
<!-- 11&#45;&#45;12 -->
<g id="edge12" class="edge"><title>11&#45;&#45;12</title>
<path fill="none" stroke="black" d="M84,-143.697C84,-132.846 84,-118.917 84,-108.104"/>
</g>
<!-- 12&#45;&#45;3 -->
<g id="edge21" class="edge"><title>12&#45;&#45;3</title>
<path fill="none" stroke="black" d="M75.1143,-105.84C69.2363,-116.217 61.7624,-130.569 57,-144 43.483,-182.121 38,-192.553 38,-233 38,-595 38,-595 38,-595 38,-635.447 43.483,-645.879 57,-684 61.7624,-697.431 69.2363,-711.783 75.1143,-722.16"/>
</g>
<!-- 12&#45;&#45;13 -->
<g id="edge13" class="edge"><title>12&#45;&#45;13</title>
<path fill="none" stroke="black" d="M93.5312,-74.496C101.426,-62.4822 112.59,-45.4941 120.481,-33.4855"/>
</g>
<!-- 13&#45;&#45;0 -->
<g id="edge14" class="edge"><title>13&#45;&#45;0</title>
<path fill="none" stroke="black" d="M143.575,-29.9249C169.166,-51.8493 222,-104.013 222,-161 222,-811 222,-811 222,-811 222,-859.2 197.717,-912.32 184.437,-937.766"/>
</g>
</g>
</svg>
