<?xml version="1.0" encoding="UTF-8" standalone="no"?>
<!DOCTYPE svg PUBLIC "-//W3C//DTD SVG 1.1//EN"
 "http://www.w3.org/Graphics/SVG/1.1/DTD/svg11.dtd">
<!-- Generated by graphviz version 2.34.0 (20131125.0033)
 -->
<!-- Title: Heawood Pages: 1 -->
<svg width="230pt" height="1010pt"
 viewBox="0.00 0.00 230.00 1010.00" xmlns="http://www.w3.org/2000/svg" xmlns:xlink="http://www.w3.org/1999/xlink">
<g id="graph0" class="graph" transform="scale(1 1) rotate(0) translate(4 1006)">
<title>Heawood</title>
<polygon fill="white" stroke="white" points="-4,4 -4,-1006 226,-1006 226,4 -4,4"/>
<!-- 0 -->
<g id="node1" class="node"><title>0</title>
<ellipse fill="none" stroke="black" cx="176" cy="-984" rx="18" ry="18"/>
<text text-anchor="middle" x="176" y="-980.3" font-family="Arial" font-size="14.00">0</text>
</g>
<!-- 1 -->
<g id="node2" class="node"><title>1</title>
<ellipse fill="none" stroke="black" cx="107" cy="-912" rx="18" ry="18"/>
<text text-anchor="middle" x="107" y="-908.3" font-family="Arial" font-size="14.00">1</text>
</g>
<!-- 0&#45;&#45;1 -->
<g id="edge1" class="edge"><title>0&#45;&#45;1</title>
<path fill="none" stroke="black" d="M163.664,-970.485C151.105,-957.744 131.75,-938.108 119.229,-925.406"/>
</g>
<!-- 5 -->
<g id="node6" class="node"><title>5</title>
<ellipse fill="none" stroke="black" cx="176" cy="-624" rx="18" ry="18"/>
<text text-anchor="middle" x="176" y="-620.3" font-family="Arial" font-size="14.00">5</text>
</g>
<!-- 0&#45;&#45;5 -->
<g id="edge15" class="edge"><title>0&#45;&#45;5</title>
<path fill="none" stroke="black" d="M176,-965.951C176,-939.292 176,-886.115 176,-841 176,-841 176,-841 176,-767 176,-721.885 176,-668.708 176,-642.049"/>
</g>
<!-- 2 -->
<g id="node3" class="node"><title>2</title>
<ellipse fill="none" stroke="black" cx="107" cy="-840" rx="18" ry="18"/>
<text text-anchor="middle" x="107" y="-836.3" font-family="Arial" font-size="14.00">2</text>
</g>
<!-- 1&#45;&#45;2 -->
<g id="edge2" class="edge"><title>1&#45;&#45;2</title>
<path fill="none" stroke="black" d="M107,-893.697C107,-882.846 107,-868.917 107,-858.104"/>
</g>
<!-- 3 -->
<g id="node4" class="node"><title>3</title>
<ellipse fill="none" stroke="black" cx="84" cy="-768" rx="18" ry="18"/>
<text text-anchor="middle" x="84" y="-764.3" font-family="Arial" font-size="14.00">3</text>
</g>
<!-- 2&#45;&#45;3 -->
<g id="edge3" class="edge"><title>2&#45;&#45;3</title>
<path fill="none" stroke="black" d="M101.666,-822.765C98.0029,-811.618 93.1556,-796.865 89.4653,-785.633"/>
</g>
<!-- 7 -->
<g id="node8" class="node"><title>7</title>
<ellipse fill="none" stroke="black" cx="130" cy="-480" rx="18" ry="18"/>
<text text-anchor="middle" x="130" y="-476.3" font-family="Arial" font-size="14.00">7</text>
</g>
<!-- 2&#45;&#45;7 -->
<g id="edge16" class="edge"><title>2&#45;&#45;7</title>
<path fill="none" stroke="black" d="M111.435,-822.526C118.118,-796.206 130,-742.952 130,-697 130,-697 130,-697 130,-623 130,-577.885 130,-524.708 130,-498.049"/>
</g>
<!-- 4 -->
<g id="node5" class="node"><title>4</title>
<ellipse fill="none" stroke="black" cx="84" cy="-696" rx="18" ry="18"/>
<text text-anchor="middle" x="84" y="-692.3" font-family="Arial" font-size="14.00">4</text>
</g>
<!-- 3&#45;&#45;4 -->
<g id="edge4" class="edge"><title>3&#45;&#45;4</title>
<path fill="none" stroke="black" d="M84,-749.697C84,-738.846 84,-724.917 84,-714.104"/>
</g>
<!-- 4&#45;&#45;5 -->
<g id="edge5" class="edge"><title>4&#45;&#45;5</title>
<path fill="none" stroke="black" d="M97.9728,-684.369C115.265,-671.212 144.543,-648.934 161.896,-635.732"/>
</g>
<!-- 9 -->
<g id="node10" class="node"><title>9</title>
<ellipse fill="none" stroke="black" cx="87" cy="-336" rx="18" ry="18"/>
<text text-anchor="middle" x="87" y="-332.3" font-family="Arial" font-size="14.00">9</text>
</g>
<!-- 4&#45;&#45;9 -->
<g id="edge17" class="edge"><title>4&#45;&#45;9</title>
<path fill="none" stroke="black" d="M84,-677.951C84,-651.292 84,-598.115 84,-553 84,-553 84,-553 84,-479 84,-433.875 85.533,-380.703 86.4073,-354.047"/>
</g>
<!-- 6 -->
<g id="node7" class="node"><title>6</title>
<ellipse fill="none" stroke="black" cx="176" cy="-552" rx="18" ry="18"/>
<text text-anchor="middle" x="176" y="-548.3" font-family="Arial" font-size="14.00">6</text>
</g>
<!-- 5&#45;&#45;6 -->
<g id="edge6" class="edge"><title>5&#45;&#45;6</title>
<path fill="none" stroke="black" d="M176,-605.697C176,-594.846 176,-580.917 176,-570.104"/>
</g>
<!-- 6&#45;&#45;7 -->
<g id="edge7" class="edge"><title>6&#45;&#45;7</title>
<path fill="none" stroke="black" d="M166.469,-536.496C158.574,-524.482 147.41,-507.494 139.519,-495.485"/>
</g>
<!-- 11 -->
<g id="node12" class="node"><title>11</title>
<ellipse fill="none" stroke="black" cx="87" cy="-181" rx="20.203" ry="20.5982"/>
<text text-anchor="middle" x="87" y="-177.3" font-family="Arial" font-size="14.00">11</text>
</g>
<!-- 6&#45;&#45;11 -->
<g id="edge18" class="edge"><title>6&#45;&#45;11</title>
<path fill="none" stroke="black" d="M176,-533.951C176,-507.292 176,-454.115 176,-409 176,-409 176,-409 176,-335 176,-276.614 126.975,-220.616 101.697,-195.622"/>
</g>
<!-- 8 -->
<g id="node9" class="node"><title>8</title>
<ellipse fill="none" stroke="black" cx="130" cy="-408" rx="18" ry="18"/>
<text text-anchor="middle" x="130" y="-404.3" font-family="Arial" font-size="14.00">8</text>
</g>
<!-- 7&#45;&#45;8 -->
<g id="edge8" class="edge"><title>7&#45;&#45;8</title>
<path fill="none" stroke="black" d="M130,-461.697C130,-450.846 130,-436.917 130,-426.104"/>
</g>
<!-- 8&#45;&#45;9 -->
<g id="edge9" class="edge"><title>8&#45;&#45;9</title>
<path fill="none" stroke="black" d="M120.881,-392.155C113.584,-380.276 103.4,-363.697 96.106,-351.824"/>
</g>
<!-- 13 -->
<g id="node14" class="node"><title>13</title>
<ellipse fill="none" stroke="black" cx="136" cy="-22" rx="21.1728" ry="21.3963"/>
<text text-anchor="middle" x="136" y="-18.3" font-family="Arial" font-size="14.00">13</text>
</g>
<!-- 8&#45;&#45;13 -->
<g id="edge19" class="edge"><title>8&#45;&#45;13</title>
<path fill="none" stroke="black" d="M131.157,-389.927C132.9,-362.68 136,-307.678 136,-261 136,-261 136,-261 136,-180 136,-131.074 136,-73.5711 136,-43.5734"/>
</g>
<!-- 10 -->
<g id="node11" class="node"><title>10</title>
<ellipse fill="none" stroke="black" cx="87" cy="-260" rx="21.1728" ry="21.3963"/>
<text text-anchor="middle" x="87" y="-256.3" font-family="Arial" font-size="14.00">10</text>
</g>
<!-- 9&#45;&#45;10 -->
<g id="edge10" class="edge"><title>9&#45;&#45;10</title>
<path fill="none" stroke="black" d="M87,-317.837C87,-306.992 87,-292.919 87,-281.49"/>
</g>
<!-- 10&#45;&#45;1 -->
<g id="edge20" class="edge"><title>10&#45;&#45;1</title>
<path fill="none" stroke="black" d="M71.4461,-275.077C46.4219,-299.353 0,-351.823 0,-407 0,-769 0,-769 0,-769 0,-829.502 62.7214,-880.598 92.1221,-901.226"/>
</g>
<!-- 10&#45;&#45;11 -->
<g id="edge11" class="edge"><title>10&#45;&#45;11</title>
<path fill="none" stroke="black" d="M87,-238.365C87,-227.05 87,-213.09 87,-201.894"/>
</g>
<!-- 12 -->
<g id="node13" class="node"><title>12</title>
<ellipse fill="none" stroke="black" cx="87" cy="-102" rx="21.1728" ry="21.3963"/>
<text text-anchor="middle" x="87" y="-98.3" font-family="Arial" font-size="14.00">12</text>
</g>
<!-- 11&#45;&#45;12 -->
<g id="edge12" class="edge"><title>11&#45;&#45;12</title>
<path fill="none" stroke="black" d="M87,-160.171C87,-148.942 87,-134.917 87,-123.568"/>
</g>
<!-- 12&#45;&#45;3 -->
<g id="edge21" class="edge"><title>12&#45;&#45;3</title>
<path fill="none" stroke="black" d="M75.9924,-120.61C69.5867,-131.573 61.8446,-146.175 57,-160 42.1836,-202.282 38,-214.197 38,-259 38,-625 38,-625 38,-625 38,-665.447 43.483,-675.879 57,-714 61.7624,-727.431 69.2363,-741.783 75.1143,-752.16"/>
</g>
<!-- 12&#45;&#45;13 -->
<g id="edge13" class="edge"><title>12&#45;&#45;13</title>
<path fill="none" stroke="black" d="M98.1189,-83.3006C106.138,-70.5354 116.916,-53.3784 124.925,-40.6294"/>
</g>
<!-- 13&#45;&#45;0 -->
<g id="edge14" class="edge"><title>13&#45;&#45;0</title>
<path fill="none" stroke="black" d="M150.98,-37.98C175.62,-64.2894 222,-121.573 222,-180 222,-841 222,-841 222,-841 222,-889.2 197.717,-942.32 184.437,-967.766"/>
</g>
</g>
</svg>
