<?xml version="1.0" encoding="UTF-8" standalone="no"?>
<!DOCTYPE svg PUBLIC "-//W3C//DTD SVG 1.1//EN"
 "http://www.w3.org/Graphics/SVG/1.1/DTD/svg11.dtd">
<!-- Generated by graphviz version 2.38.0 (20140413.2041)
 -->
<!-- Title: Perl Pages: 1 -->
<svg width="322pt" height="158pt"
 viewBox="0.00 0.00 322.00 158.00" xmlns="http://www.w3.org/2000/svg" xmlns:xlink="http://www.w3.org/1999/xlink">
<g id="graph0" class="graph" transform="scale(1 1) rotate(0) translate(4 154)">
<title>Perl</title>
<polygon fill="white" stroke="none" points="-4,4 -4,-154 318,-154 318,4 -4,4"/>
<text text-anchor="middle" x="157" y="-7.8" font-family="Times,serif" font-size="14.00">HTML label demo # 2 &#45; Using &lt;&lt;table&gt; ... &lt;/table&gt;&gt;</text>
<!-- Legend -->
<g id="node1" class="node"><title>Legend</title>
<polygon fill="white" stroke="none" points="38,-27 38,-146 276,-146 276,-27 38,-27"/>
<polygon fill="lightgreen" stroke="none" points="41,-121.5 41,-142.5 273,-142.5 273,-121.5 41,-121.5"/>
<polygon fill="none" stroke="black" points="41,-121.5 41,-142.5 273,-142.5 273,-121.5 41,-121.5"/>
<text text-anchor="start" x="69.5" y="-128.3" font-family="Times,serif" font-size="14.00">The green node is the start node</text>
<polygon fill="lightblue" stroke="none" points="41,-98.5 41,-119.5 273,-119.5 273,-98.5 41,-98.5"/>
<polygon fill="none" stroke="black" points="41,-98.5 41,-119.5 273,-119.5 273,-98.5 41,-98.5"/>
<text text-anchor="start" x="44" y="-105.3" font-family="Times,serif" font-size="14.00">Lightblue nodes are for lexeme attributes</text>
<polygon fill="orchid" stroke="none" points="41,-75.5 41,-96.5 273,-96.5 273,-75.5 41,-75.5"/>
<polygon fill="none" stroke="black" points="41,-75.5 41,-96.5 273,-96.5 273,-75.5 41,-75.5"/>
<text text-anchor="start" x="76" y="-82.3" font-family="Times,serif" font-size="14.00">Orchid nodes are for lexemes</text>
<polygon fill="goldenrod" stroke="none" points="41,-52.5 41,-73.5 273,-73.5 273,-52.5 41,-52.5"/>
<polygon fill="none" stroke="black" points="41,-52.5 41,-73.5 273,-73.5 273,-52.5 41,-52.5"/>
<text text-anchor="start" x="78.5" y="-59.3" font-family="Times,serif" font-size="14.00">Golden nodes are for actions</text>
<polygon fill="#ff3030" stroke="none" points="41,-29.5 41,-50.5 273,-50.5 273,-29.5 41,-29.5"/>
<polygon fill="none" stroke="black" points="41,-29.5 41,-50.5 273,-50.5 273,-29.5 41,-29.5"/>
<text text-anchor="start" x="89" y="-36.3" font-family="Times,serif" font-size="14.00">Red nodes are for events</text>
<polygon fill="none" stroke="black" points="38,-27 38,-146 276,-146 276,-27 38,-27"/>
</g>
</g>
</svg>
