<?xml version="1.0" encoding="UTF-8" standalone="no"?>
<!DOCTYPE svg PUBLIC "-//W3C//DTD SVG 1.1//EN"
 "http://www.w3.org/Graphics/SVG/1.1/DTD/svg11.dtd">
<!-- Generated by graphviz version 2.38.0 (20140413.2041)
 -->
<!-- Title: Perl Pages: 1 -->
<svg width="254pt" height="202pt"
 viewBox="0.00 0.00 253.50 202.00" xmlns="http://www.w3.org/2000/svg" xmlns:xlink="http://www.w3.org/1999/xlink">
<g id="graph0" class="graph" transform="scale(1 1) rotate(0) translate(4 198)">
<title>Perl</title>
<polygon fill="white" stroke="none" points="-4,4 -4,-198 249.5,-198 249.5,4 -4,4"/>
<text text-anchor="middle" x="122.75" y="-7.8" font-family="Times,serif" font-size="14.00">HTML label demo # 1 &#45; Using &lt; ... &gt;</text>
<!-- Carnegie -->
<g id="node1" class="node"><title>Carnegie</title>
<ellipse fill="red" stroke="red" cx="18" cy="-41.5" rx="18" ry="18"/>
</g>
<!-- Murrumbeena -->
<g id="node2" class="node"><title>Murrumbeena</title>
<path fill="none" stroke="green" d="M138.5,-194C138.5,-194 67.5,-194 67.5,-194 61.5,-194 55.5,-188 55.5,-182 55.5,-182 55.5,-153 55.5,-153 55.5,-147 61.5,-141 67.5,-141 67.5,-141 138.5,-141 138.5,-141 144.5,-141 150.5,-147 150.5,-153 150.5,-153 150.5,-182 150.5,-182 150.5,-188 144.5,-194 138.5,-194"/>
<text text-anchor="start" x="63.5" y="-178.8" font-family="Times,serif" font-size="14.00">Murrumbeena</text>
<text text-anchor="start" x="80.5" y="-163.8" font-family="Times,serif" font-size="14.00" fill="#0000ff">Victoria</text>
<text text-anchor="start" x="78" y="-148.8" font-family="Times,serif" font-size="14.00">Australia</text>
</g>
<!-- Murrumbeena&#45;&gt;Carnegie -->
<g id="edge1" class="edge"><title>Murrumbeena&#45;&gt;Carnegie</title>
<path fill="none" stroke="grey" d="M81.3727,-140.676C76.8228,-134.955 72.1482,-128.852 68,-123 57.0229,-107.515 45.7847,-89.6377 36.7503,-74.6691"/>
<polygon fill="grey" stroke="grey" points="42.7287,-71.0267 26.5109,-57.389 30.6844,-78.1636 42.7287,-71.0267"/>
<text text-anchor="start" x="70.5" y="-111.8" font-family="Times,serif" font-size="14.00">Bike</text>
<text text-anchor="start" x="68.5" y="-96.8" font-family="Times,serif" font-size="14.00">Train</text>
<text text-anchor="start" x="68" y="-81.8" font-family="Times,serif" font-size="14.00">Stroll</text>
</g>
<!-- Oakleigh -->
<g id="node3" class="node"><title>Oakleigh</title>
<path fill="none" stroke="blue" d="M66.5,-23.5C66.5,-23.5 233.5,-23.5 233.5,-23.5 239.5,-23.5 245.5,-29.5 245.5,-35.5 245.5,-35.5 245.5,-47.5 245.5,-47.5 245.5,-53.5 239.5,-59.5 233.5,-59.5 233.5,-59.5 66.5,-59.5 66.5,-59.5 60.5,-59.5 54.5,-53.5 54.5,-47.5 54.5,-47.5 54.5,-35.5 54.5,-35.5 54.5,-29.5 60.5,-23.5 66.5,-23.5"/>
<text text-anchor="middle" x="103.5" y="-37.8" font-family="Times,serif" font-size="14.00">West Oakleigh</text>
<polyline fill="none" stroke="blue" points="152.5,-23.5 152.5,-59.5 "/>
<text text-anchor="middle" x="199" y="-37.8" font-family="Times,serif" font-size="14.00">East Oakleigh</text>
</g>
<!-- Murrumbeena&#45;&gt;Oakleigh -->
<g id="edge2" class="edge"><title>Murrumbeena&#45;&gt;Oakleigh:port1</title>
<path fill="none" stroke="brown" d="M103,-140.675C103,-121.719 103,-95.046 103,-70.1597"/>
<polygon fill="brown" stroke="brown" points="106.5,-70 103,-60 99.5001,-70 106.5,-70"/>
<text text-anchor="start" x="109.5" y="-111.8" font-family="Times,serif" font-size="14.00">Meander</text>
<text text-anchor="start" x="103" y="-96.8" font-family="Times,serif" font-size="14.00">Promenade</text>
<text text-anchor="start" x="113" y="-81.8" font-family="Times,serif" font-size="14.00">Saunter</text>
</g>
<!-- Murrumbeena&#45;&gt;Oakleigh -->
<g id="edge3" class="edge"><title>Murrumbeena&#45;&gt;Oakleigh:port2</title>
<path fill="none" stroke="green" d="M148.957,-140.976C156.225,-135.656 163.234,-129.625 169,-123 186.975,-102.349 196.594,-93.2303 198.601,-70.0392"/>
<polygon fill="green" stroke="green" points="202.1,-70.1311 199,-60 195.106,-69.8531 202.1,-70.1311"/>
<text text-anchor="start" x="198.5" y="-111.8" font-family="Times,serif" font-size="14.00">Drive</text>
<text text-anchor="start" x="202.5" y="-96.8" font-family="Times,serif" font-size="14.00">Run</text>
<text text-anchor="start" x="197" y="-81.8" font-family="Times,serif" font-size="14.00">Sprint</text>
</g>
</g>
</svg>
