<?xml version="1.0" encoding="UTF-8" standalone="no"?>
<!DOCTYPE svg PUBLIC "-//W3C//DTD SVG 1.1//EN"
 "http://www.w3.org/Graphics/SVG/1.1/DTD/svg11.dtd">
<!-- Generated by graphviz version 2.30.1 (20130611.0131)
 -->
<!-- Title: Perl Pages: 1 -->
<svg width="301pt" height="224pt"
 viewBox="0.00 0.00 301.00 224.00" xmlns="http://www.w3.org/2000/svg" xmlns:xlink="http://www.w3.org/1999/xlink">
<g id="graph0" class="graph" transform="scale(1 1) rotate(0) translate(4 220)">
<title>Perl</title>
<polygon fill="white" stroke="white" points="-4,5 -4,-220 298,-220 298,5 -4,5"/>
<!-- Carnegie -->
<g id="node1" class="node"><title>Carnegie</title>
<ellipse fill="red" stroke="red" cx="42" cy="-42" rx="42.3701" ry="42.4939"/>
<text text-anchor="middle" x="42" y="-38.3" font-family="Times,serif" font-size="14.00">Carnegie</text>
</g>
<!-- Murrumbeena -->
<g id="node2" class="node"><title>Murrumbeena</title>
<path fill="none" stroke="green" d="M187,-215.5C187,-215.5 115,-215.5 115,-215.5 109,-215.5 103,-209.5 103,-203.5 103,-203.5 103,-176.5 103,-176.5 103,-170.5 109,-164.5 115,-164.5 115,-164.5 187,-164.5 187,-164.5 193,-164.5 199,-170.5 199,-176.5 199,-176.5 199,-203.5 199,-203.5 199,-209.5 193,-215.5 187,-215.5"/>
<text text-anchor="start" x="111.5" y="-201.3" font-family="Times,serif" font-size="14.00">Murrumbeena</text>
<text text-anchor="start" x="128.5" y="-187.3" font-family="Times,serif" font-size="14.00" fill="#0000ff">Victoria</text>
<text text-anchor="start" x="126" y="-173.3" font-family="Times,serif" font-size="14.00">Australia</text>
</g>
<!-- Murrumbeena&#45;&gt;Carnegie -->
<g id="edge1" class="edge"><title>Murrumbeena&#45;&gt;Carnegie</title>
<path fill="none" stroke="grey" d="M129.715,-164.266C124.79,-158.355 119.637,-152.014 115,-146 102.187,-129.381 88.7477,-110.786 76.9424,-94.0181"/>
<polygon fill="grey" stroke="grey" points="82.5094,-89.7634 65.3262,-77.3642 71.0267,-97.7727 82.5094,-89.7634"/>
<text text-anchor="start" x="118" y="-135.3" font-family="Times,serif" font-size="14.00">Bike</text>
<text text-anchor="start" x="116" y="-121.3" font-family="Times,serif" font-size="14.00">Train</text>
<text text-anchor="start" x="115.5" y="-107.3" font-family="Times,serif" font-size="14.00">Stroll</text>
</g>
<!-- Oakleigh -->
<g id="node3" class="node"><title>Oakleigh</title>
<path fill="none" stroke="blue" d="M114.5,-24C114.5,-24 281.5,-24 281.5,-24 287.5,-24 293.5,-30 293.5,-36 293.5,-36 293.5,-48 293.5,-48 293.5,-54 287.5,-60 281.5,-60 281.5,-60 114.5,-60 114.5,-60 108.5,-60 102.5,-54 102.5,-48 102.5,-48 102.5,-36 102.5,-36 102.5,-30 108.5,-24 114.5,-24"/>
<text text-anchor="middle" x="151.5" y="-38.3" font-family="Times,serif" font-size="14.00">West Oakleigh</text>
<polyline fill="none" stroke="blue" points="200.5,-24 200.5,-60 "/>
<text text-anchor="middle" x="247" y="-38.3" font-family="Times,serif" font-size="14.00">East Oakleigh</text>
</g>
<!-- Murrumbeena&#45;&gt;Oakleigh -->
<g id="edge2" class="edge"><title>Murrumbeena&#45;&gt;Oakleigh:port1</title>
<path fill="none" stroke="brown" d="M151,-164.462C151,-141.111 151,-104.678 151,-71.2574"/>
<polygon fill="brown" stroke="brown" points="154.5,-71 151,-61 147.5,-71 154.5,-71"/>
<text text-anchor="start" x="158" y="-135.3" font-family="Times,serif" font-size="14.00">Meander</text>
<text text-anchor="start" x="151.5" y="-121.3" font-family="Times,serif" font-size="14.00">Promenade</text>
<text text-anchor="start" x="161.5" y="-107.3" font-family="Times,serif" font-size="14.00">Saunter</text>
</g>
<!-- Murrumbeena&#45;&gt;Oakleigh -->
<g id="edge3" class="edge"><title>Murrumbeena&#45;&gt;Oakleigh:port2</title>
<path fill="none" stroke="green" d="M198.326,-164.47C205.63,-159.133 212.545,-152.964 218,-146 240.403,-117.4 246.049,-103.514 246.882,-71.1547"/>
<polygon fill="green" stroke="green" points="250.384,-71.0399 247,-61 243.384,-70.9587 250.384,-71.0399"/>
<text text-anchor="start" x="245" y="-135.3" font-family="Times,serif" font-size="14.00">Drive</text>
<text text-anchor="start" x="249" y="-121.3" font-family="Times,serif" font-size="14.00">Run</text>
<text text-anchor="start" x="243.5" y="-107.3" font-family="Times,serif" font-size="14.00">Sprint</text>
</g>
</g>
</svg>
