<?xml version="1.0" encoding="UTF-8" standalone="no"?>
<!DOCTYPE svg PUBLIC "-//W3C//DTD SVG 1.1//EN"
 "http://www.w3.org/Graphics/SVG/1.1/DTD/svg11.dtd">
<!-- Generated by graphviz version 2.26.3 (20100126.1600)
 -->
<!-- Title: Perl Pages: 1 -->
<svg width="308pt" height="248pt"
 viewBox="0.00 0.00 308.00 248.00" xmlns="http://www.w3.org/2000/svg" xmlns:xlink="http://www.w3.org/1999/xlink">
<g id="graph1" class="graph" transform="scale(1 1) rotate(0) translate(4 244)">
<title>Perl</title>
<polygon fill="white" stroke="white" points="-4,5 -4,-244 305,-244 305,5 -4,5"/>
<!-- Carnegie -->
<g id="node1" class="node"><title>Carnegie</title>
<ellipse fill="red" stroke="red" cx="46" cy="-46" rx="45.9619" ry="45.9619"/>
<text text-anchor="middle" x="46" y="-42.9" font-family="Times Roman,serif" font-size="14.00">Carnegie</text>
</g>
<!-- Murrumbeena -->
<g id="node2" class="node"><title>Murrumbeena</title>
<polyline fill="none" stroke="green" points="194,-239.5 122,-239.5 "/>
<path fill="none" stroke="green" d="M122,-239.5C116,-239.5 110,-233.5 110,-227.5"/>
<polyline fill="none" stroke="green" points="110,-227.5 110,-192.5 "/>
<path fill="none" stroke="green" d="M110,-192.5C110,-186.5 116,-180.5 122,-180.5"/>
<polyline fill="none" stroke="green" points="122,-180.5 194,-180.5 "/>
<path fill="none" stroke="green" d="M194,-180.5C200,-180.5 206,-186.5 206,-192.5"/>
<polyline fill="none" stroke="green" points="206,-192.5 206,-227.5 "/>
<path fill="none" stroke="green" d="M206,-227.5C206,-233.5 200,-239.5 194,-239.5"/>
<text text-anchor="start" x="118.5" y="-225.233" font-family="Times Roman,serif" font-size="14.00">Murrumbeena</text>
<text text-anchor="start" x="135.5" y="-208.433" font-family="Times Roman,serif" font-size="14.00" fill="#0000ff">Victoria</text>
<text text-anchor="start" x="133" y="-191.633" font-family="Times Roman,serif" font-size="14.00">Australia</text>
</g>
<!-- Murrumbeena&#45;&gt;Carnegie -->
<g id="edge2" class="edge"><title>Murrumbeena&#45;&gt;Carnegie</title>
<path fill="none" stroke="grey" d="M135.235,-180.257C130.777,-174.263 126.188,-167.969 122,-162 108.449,-142.684 94.1361,-121.158 81.6297,-101.944"/>
<polygon fill="grey" stroke="grey" points="87.463,-98.0736 70.726,-85.0785 75.7061,-105.675 87.463,-98.0736"/>
<text text-anchor="start" x="125" y="-151.233" font-family="Times Roman,serif" font-size="14.00">Bike</text>
<text text-anchor="start" x="123" y="-134.433" font-family="Times Roman,serif" font-size="14.00">Train</text>
<text text-anchor="start" x="122.5" y="-117.633" font-family="Times Roman,serif" font-size="14.00">Stroll</text>
</g>
<!-- Oakleigh -->
<g id="node3" class="node"><title>Oakleigh</title>
<polyline fill="none" stroke="blue" points="121.5,-28 288.5,-28 "/>
<path fill="none" stroke="blue" d="M288.5,-28C294.5,-28 300.5,-34 300.5,-40"/>
<polyline fill="none" stroke="blue" points="300.5,-40 300.5,-52 "/>
<path fill="none" stroke="blue" d="M300.5,-52C300.5,-58 294.5,-64 288.5,-64"/>
<polyline fill="none" stroke="blue" points="288.5,-64 121.5,-64 "/>
<path fill="none" stroke="blue" d="M121.5,-64C115.5,-64 109.5,-58 109.5,-52"/>
<polyline fill="none" stroke="blue" points="109.5,-52 109.5,-40 "/>
<path fill="none" stroke="blue" d="M109.5,-40C109.5,-34 115.5,-28 121.5,-28"/>
<text text-anchor="middle" x="158.5" y="-42.9" font-family="Times Roman,serif" font-size="14.00">West Oakleigh</text>
<polyline fill="none" stroke="blue" points="207.5,-28 207.5,-64 "/>
<text text-anchor="middle" x="254" y="-42.9" font-family="Times Roman,serif" font-size="14.00">East Oakleigh</text>
</g>
<!-- Murrumbeena&#45;&gt;Oakleigh -->
<g id="edge4" class="edge"><title>Murrumbeena&#45;&gt;Oakleigh:port1</title>
<path fill="none" stroke="brown" d="M158,-180.36C158,-153.282 158,-111.826 158,-74.0315"/>
<polygon fill="brown" stroke="brown" points="161.5,-74 158,-64 154.5,-74 161.5,-74"/>
<text text-anchor="start" x="165" y="-151.233" font-family="Times Roman,serif" font-size="14.00">Meander</text>
<text text-anchor="start" x="158.5" y="-134.433" font-family="Times Roman,serif" font-size="14.00">Promenade</text>
<text text-anchor="start" x="168.5" y="-117.633" font-family="Times Roman,serif" font-size="14.00">Saunter</text>
</g>
<!-- Murrumbeena&#45;&gt;Oakleigh -->
<g id="edge6" class="edge"><title>Murrumbeena&#45;&gt;Oakleigh:port2</title>
<path fill="none" stroke="green" d="M206.253,-181.536C213.275,-175.771 219.857,-169.228 225,-162 249.276,-127.881 253.439,-111.986 253.941,-74.1237"/>
<polygon fill="green" stroke="green" points="257.442,-74.0202 254,-64 250.442,-73.9795 257.442,-74.0202"/>
<text text-anchor="start" x="252" y="-151.233" font-family="Times Roman,serif" font-size="14.00">Drive</text>
<text text-anchor="start" x="256" y="-134.433" font-family="Times Roman,serif" font-size="14.00">Run</text>
<text text-anchor="start" x="250.5" y="-117.633" font-family="Times Roman,serif" font-size="14.00">Sprint</text>
</g>
</g>
</svg>
