<?xml version="1.0" encoding="UTF-8" standalone="no"?>
<!DOCTYPE svg PUBLIC "-//W3C//DTD SVG 1.1//EN"
 "http://www.w3.org/Graphics/SVG/1.1/DTD/svg11.dtd">
<!-- Generated by graphviz version 2.30.1 (20130611.0131)
 -->
<!-- Title: Perl Pages: 1 -->
<svg width="301pt" height="247pt"
 viewBox="0.00 0.00 301.00 247.00" xmlns="http://www.w3.org/2000/svg" xmlns:xlink="http://www.w3.org/1999/xlink">
<g id="graph0" class="graph" transform="scale(1 1) rotate(0) translate(4 243)">
<title>Perl</title>
<polygon fill="white" stroke="white" points="-4,5 -4,-243 298,-243 298,5 -4,5"/>
<text text-anchor="middle" x="146.5" y="-7.8" font-family="Times,serif" font-size="14.00">HTML label demo # 1 &#45; Using &lt; ... &gt;</text>
<!-- Carnegie -->
<g id="node1" class="node"><title>Carnegie</title>
<ellipse fill="red" stroke="red" cx="42" cy="-65" rx="42.3701" ry="42.4939"/>
<text text-anchor="middle" x="42" y="-61.3" font-family="Times,serif" font-size="14.00">Carnegie</text>
</g>
<!-- Murrumbeena -->
<g id="node2" class="node"><title>Murrumbeena</title>
<path fill="none" stroke="green" d="M187,-238.5C187,-238.5 115,-238.5 115,-238.5 109,-238.5 103,-232.5 103,-226.5 103,-226.5 103,-199.5 103,-199.5 103,-193.5 109,-187.5 115,-187.5 115,-187.5 187,-187.5 187,-187.5 193,-187.5 199,-193.5 199,-199.5 199,-199.5 199,-226.5 199,-226.5 199,-232.5 193,-238.5 187,-238.5"/>
<text text-anchor="start" x="111.5" y="-224.3" font-family="Times,serif" font-size="14.00">Murrumbeena</text>
<text text-anchor="start" x="128.5" y="-210.3" font-family="Times,serif" font-size="14.00" fill="#0000ff">Victoria</text>
<text text-anchor="start" x="126" y="-196.3" font-family="Times,serif" font-size="14.00">Australia</text>
</g>
<!-- Murrumbeena&#45;&gt;Carnegie -->
<g id="edge1" class="edge"><title>Murrumbeena&#45;&gt;Carnegie</title>
<path fill="none" stroke="grey" d="M129.715,-187.266C124.79,-181.355 119.637,-175.014 115,-169 102.187,-152.381 88.7477,-133.786 76.9424,-117.018"/>
<polygon fill="grey" stroke="grey" points="82.5094,-112.763 65.3262,-100.364 71.0267,-120.773 82.5094,-112.763"/>
<text text-anchor="start" x="118" y="-158.3" font-family="Times,serif" font-size="14.00">Bike</text>
<text text-anchor="start" x="116" y="-144.3" font-family="Times,serif" font-size="14.00">Train</text>
<text text-anchor="start" x="115.5" y="-130.3" font-family="Times,serif" font-size="14.00">Stroll</text>
</g>
<!-- Oakleigh -->
<g id="node3" class="node"><title>Oakleigh</title>
<path fill="none" stroke="blue" d="M114.5,-47C114.5,-47 281.5,-47 281.5,-47 287.5,-47 293.5,-53 293.5,-59 293.5,-59 293.5,-71 293.5,-71 293.5,-77 287.5,-83 281.5,-83 281.5,-83 114.5,-83 114.5,-83 108.5,-83 102.5,-77 102.5,-71 102.5,-71 102.5,-59 102.5,-59 102.5,-53 108.5,-47 114.5,-47"/>
<text text-anchor="middle" x="151.5" y="-61.3" font-family="Times,serif" font-size="14.00">West Oakleigh</text>
<polyline fill="none" stroke="blue" points="200.5,-47 200.5,-83 "/>
<text text-anchor="middle" x="247" y="-61.3" font-family="Times,serif" font-size="14.00">East Oakleigh</text>
</g>
<!-- Murrumbeena&#45;&gt;Oakleigh -->
<g id="edge2" class="edge"><title>Murrumbeena&#45;&gt;Oakleigh:port1</title>
<path fill="none" stroke="brown" d="M151,-187.462C151,-164.111 151,-127.678 151,-94.2574"/>
<polygon fill="brown" stroke="brown" points="154.5,-94 151,-84 147.5,-94 154.5,-94"/>
<text text-anchor="start" x="158" y="-158.3" font-family="Times,serif" font-size="14.00">Meander</text>
<text text-anchor="start" x="151.5" y="-144.3" font-family="Times,serif" font-size="14.00">Promenade</text>
<text text-anchor="start" x="161.5" y="-130.3" font-family="Times,serif" font-size="14.00">Saunter</text>
</g>
<!-- Murrumbeena&#45;&gt;Oakleigh -->
<g id="edge3" class="edge"><title>Murrumbeena&#45;&gt;Oakleigh:port2</title>
<path fill="none" stroke="green" d="M198.326,-187.47C205.63,-182.133 212.545,-175.964 218,-169 240.403,-140.4 246.049,-126.514 246.882,-94.1547"/>
<polygon fill="green" stroke="green" points="250.384,-94.0399 247,-84 243.384,-93.9587 250.384,-94.0399"/>
<text text-anchor="start" x="245" y="-158.3" font-family="Times,serif" font-size="14.00">Drive</text>
<text text-anchor="start" x="249" y="-144.3" font-family="Times,serif" font-size="14.00">Run</text>
<text text-anchor="start" x="243.5" y="-130.3" font-family="Times,serif" font-size="14.00">Sprint</text>
</g>
</g>
</svg>
