<?xml version="1.0" encoding="UTF-8" standalone="no"?>
<!DOCTYPE svg PUBLIC "-//W3C//DTD SVG 1.1//EN"
 "http://www.w3.org/Graphics/SVG/1.1/DTD/svg11.dtd">
<!-- Generated by graphviz version 2.38.0 (20140413.2041)
 -->
<!-- Title: Perl Pages: 1 -->
<svg width="302pt" height="249pt"
 viewBox="0.00 0.00 301.75 249.49" xmlns="http://www.w3.org/2000/svg" xmlns:xlink="http://www.w3.org/1999/xlink">
<g id="graph0" class="graph" transform="scale(1 1) rotate(0) translate(4 245.493)">
<title>Perl</title>
<polygon fill="white" stroke="none" points="-4,4 -4,-245.493 297.746,-245.493 297.746,4 -4,4"/>
<text text-anchor="middle" x="146.873" y="-7.8" font-family="Times,serif" font-size="14.00">HTML label demo # 1 &#45; Using &lt; ... &gt;</text>
<!-- Carnegie -->
<g id="node1" class="node"><title>Carnegie</title>
<ellipse fill="red" stroke="red" cx="42.2463" cy="-65.2463" rx="42.4939" ry="42.4939"/>
<text text-anchor="middle" x="42.2463" y="-61.5463" font-family="Times,serif" font-size="14.00">Carnegie</text>
</g>
<!-- Murrumbeena -->
<g id="node2" class="node"><title>Murrumbeena</title>
<path fill="none" stroke="green" d="M186.746,-241.493C186.746,-241.493 115.746,-241.493 115.746,-241.493 109.746,-241.493 103.746,-235.493 103.746,-229.493 103.746,-229.493 103.746,-200.493 103.746,-200.493 103.746,-194.493 109.746,-188.493 115.746,-188.493 115.746,-188.493 186.746,-188.493 186.746,-188.493 192.746,-188.493 198.746,-194.493 198.746,-200.493 198.746,-200.493 198.746,-229.493 198.746,-229.493 198.746,-235.493 192.746,-241.493 186.746,-241.493"/>
<text text-anchor="start" x="111.746" y="-226.293" font-family="Times,serif" font-size="14.00">Murrumbeena</text>
<text text-anchor="start" x="128.746" y="-211.293" font-family="Times,serif" font-size="14.00" fill="#0000ff">Victoria</text>
<text text-anchor="start" x="126.246" y="-196.293" font-family="Times,serif" font-size="14.00">Australia</text>
</g>
<!-- Murrumbeena&#45;&gt;Carnegie -->
<g id="edge1" class="edge"><title>Murrumbeena&#45;&gt;Carnegie</title>
<path fill="none" stroke="grey" d="M130.259,-188.433C125.579,-182.59 120.689,-176.369 116.246,-170.493 103.263,-153.322 89.4948,-134.198 77.4009,-117.066"/>
<polygon fill="grey" stroke="grey" points="82.9452,-112.78 65.7322,-100.422 71.4819,-120.817 82.9452,-112.78"/>
<text text-anchor="start" x="118.746" y="-159.293" font-family="Times,serif" font-size="14.00">Bike</text>
<text text-anchor="start" x="116.746" y="-144.293" font-family="Times,serif" font-size="14.00">Train</text>
<text text-anchor="start" x="116.246" y="-129.293" font-family="Times,serif" font-size="14.00">Stroll</text>
</g>
<!-- Oakleigh -->
<g id="node3" class="node"><title>Oakleigh</title>
<path fill="none" stroke="blue" d="M114.746,-47.2463C114.746,-47.2463 281.746,-47.2463 281.746,-47.2463 287.746,-47.2463 293.746,-53.2463 293.746,-59.2463 293.746,-59.2463 293.746,-71.2463 293.746,-71.2463 293.746,-77.2463 287.746,-83.2463 281.746,-83.2463 281.746,-83.2463 114.746,-83.2463 114.746,-83.2463 108.746,-83.2463 102.746,-77.2463 102.746,-71.2463 102.746,-71.2463 102.746,-59.2463 102.746,-59.2463 102.746,-53.2463 108.746,-47.2463 114.746,-47.2463"/>
<text text-anchor="middle" x="151.746" y="-61.5463" font-family="Times,serif" font-size="14.00">West Oakleigh</text>
<polyline fill="none" stroke="blue" points="200.746,-47.2463 200.746,-83.2463 "/>
<text text-anchor="middle" x="247.246" y="-61.5463" font-family="Times,serif" font-size="14.00">East Oakleigh</text>
</g>
<!-- Murrumbeena&#45;&gt;Oakleigh -->
<g id="edge2" class="edge"><title>Murrumbeena&#45;&gt;Oakleigh:port1</title>
<path fill="none" stroke="brown" d="M151.246,-188.145C151.246,-164.414 151.246,-127.964 151.246,-94.5138"/>
<polygon fill="brown" stroke="brown" points="154.746,-94.2462 151.246,-84.2463 147.746,-94.2463 154.746,-94.2462"/>
<text text-anchor="start" x="157.746" y="-159.293" font-family="Times,serif" font-size="14.00">Meander</text>
<text text-anchor="start" x="151.246" y="-144.293" font-family="Times,serif" font-size="14.00">Promenade</text>
<text text-anchor="start" x="161.246" y="-129.293" font-family="Times,serif" font-size="14.00">Saunter</text>
</g>
<!-- Murrumbeena&#45;&gt;Oakleigh -->
<g id="edge3" class="edge"><title>Murrumbeena&#45;&gt;Oakleigh:port2</title>
<path fill="none" stroke="green" d="M198.504,-188.479C205.454,-183.22 212.02,-177.207 217.246,-170.493 239.935,-141.343 246.175,-127.429 247.113,-94.5653"/>
<polygon fill="green" stroke="green" points="250.616,-94.2907 247.246,-84.2463 243.617,-94.2001 250.616,-94.2907"/>
<text text-anchor="start" x="243.746" y="-159.293" font-family="Times,serif" font-size="14.00">Drive</text>
<text text-anchor="start" x="247.746" y="-144.293" font-family="Times,serif" font-size="14.00">Run</text>
<text text-anchor="start" x="242.246" y="-129.293" font-family="Times,serif" font-size="14.00">Sprint</text>
</g>
</g>
</svg>
