<?xml version="1.0" encoding="UTF-8" standalone="no"?>
<!DOCTYPE svg PUBLIC "-//W3C//DTD SVG 1.1//EN"
 "http://www.w3.org/Graphics/SVG/1.1/DTD/svg11.dtd">
<!-- Generated by graphviz version 2.30.1 (20130611.0131)
 -->
<!-- Title: Perl Pages: 1 -->
<svg width="322pt" height="155pt"
 viewBox="0.00 0.00 322.00 155.00" xmlns="http://www.w3.org/2000/svg" xmlns:xlink="http://www.w3.org/1999/xlink">
<g id="graph0" class="graph" transform="scale(1 1) rotate(0) translate(4 151)">
<title>Perl</title>
<polygon fill="white" stroke="white" points="-4,5 -4,-151 319,-151 319,5 -4,5"/>
<text text-anchor="middle" x="157" y="-7.8" font-family="Times,serif" font-size="14.00">HTML label demo # 2 &#45; Using &lt;&lt;table&gt; ... &lt;/table&gt;&gt;</text>
<!-- Legend -->
<g id="node1" class="node"><title>Legend</title>
<polygon fill="white" stroke="none" points="37.5,-27.5 37.5,-142.5 276.5,-142.5 276.5,-27.5 37.5,-27.5"/>
<polygon fill="lightgreen" stroke="none" points="41,-118 41,-139 274,-139 274,-118 41,-118"/>
<polygon fill="none" stroke="black" points="41,-118 41,-139 274,-139 274,-118 41,-118"/>
<text text-anchor="start" x="70" y="-125.3" font-family="Times,serif" font-size="14.00">The green node is the start node</text>
<polygon fill="lightblue" stroke="none" points="41,-96 41,-116 274,-116 274,-96 41,-96"/>
<polygon fill="none" stroke="black" points="41,-96 41,-116 274,-116 274,-96 41,-96"/>
<text text-anchor="start" x="44.5" y="-102.8" font-family="Times,serif" font-size="14.00">Lightblue nodes are for lexeme attributes</text>
<polygon fill="orchid" stroke="none" points="41,-74 41,-94 274,-94 274,-74 41,-74"/>
<polygon fill="none" stroke="black" points="41,-74 41,-94 274,-94 274,-74 41,-74"/>
<text text-anchor="start" x="76.5" y="-80.8" font-family="Times,serif" font-size="14.00">Orchid nodes are for lexemes</text>
<polygon fill="goldenrod" stroke="none" points="41,-52 41,-72 274,-72 274,-52 41,-52"/>
<polygon fill="none" stroke="black" points="41,-52 41,-72 274,-72 274,-52 41,-52"/>
<text text-anchor="start" x="79" y="-58.8" font-family="Times,serif" font-size="14.00">Golden nodes are for actions</text>
<polygon fill="#ff3030" stroke="none" points="41,-30 41,-50 274,-50 274,-30 41,-30"/>
<polygon fill="none" stroke="black" points="41,-30 41,-50 274,-50 274,-30 41,-30"/>
<text text-anchor="start" x="89.5" y="-36.8" font-family="Times,serif" font-size="14.00">Red nodes are for events</text>
<polygon fill="none" stroke="black" points="37.5,-27.5 37.5,-142.5 276.5,-142.5 276.5,-27.5 37.5,-27.5"/>
</g>
</g>
</svg>
