<?xml version="1.0" encoding="UTF-8" standalone="no"?>
<!DOCTYPE svg PUBLIC "-//W3C//DTD SVG 1.1//EN"
 "http://www.w3.org/Graphics/SVG/1.1/DTD/svg11.dtd">
<!-- Generated by graphviz version 2.37.20140310.0445 (20140310.0445)
 -->
<!-- Title: Perl Pages: 1 -->
<svg width="322pt" height="159pt"
 viewBox="0.00 0.00 322.00 159.00" xmlns="http://www.w3.org/2000/svg" xmlns:xlink="http://www.w3.org/1999/xlink">
<g id="graph0" class="graph" transform="scale(1 1) rotate(0) translate(4 155)">
<title>Perl</title>
<polygon fill="white" stroke="none" points="-4,4 -4,-155 318,-155 318,4 -4,4"/>
<text text-anchor="middle" x="157" y="-7.8" font-family="Times,serif" font-size="14.00">HTML label demo # 2 &#45; Using &lt;&lt;table&gt; ... &lt;/table&gt;&gt;</text>
<!-- Legend -->
<g id="node1" class="node"><title>Legend</title>
<polygon fill="white" stroke="none" points="38,-27.5 38,-146.5 276,-146.5 276,-27.5 38,-27.5"/>
<polygon fill="lightgreen" stroke="none" points="41,-122 41,-143 273,-143 273,-122 41,-122"/>
<polygon fill="none" stroke="black" points="41,-122 41,-143 273,-143 273,-122 41,-122"/>
<text text-anchor="start" x="69.5" y="-128.8" font-family="Times,serif" font-size="14.00">The green node is the start node</text>
<polygon fill="lightblue" stroke="none" points="41,-99 41,-120 273,-120 273,-99 41,-99"/>
<polygon fill="none" stroke="black" points="41,-99 41,-120 273,-120 273,-99 41,-99"/>
<text text-anchor="start" x="44" y="-105.8" font-family="Times,serif" font-size="14.00">Lightblue nodes are for lexeme attributes</text>
<polygon fill="orchid" stroke="none" points="41,-76 41,-97 273,-97 273,-76 41,-76"/>
<polygon fill="none" stroke="black" points="41,-76 41,-97 273,-97 273,-76 41,-76"/>
<text text-anchor="start" x="76" y="-82.8" font-family="Times,serif" font-size="14.00">Orchid nodes are for lexemes</text>
<polygon fill="goldenrod" stroke="none" points="41,-53 41,-74 273,-74 273,-53 41,-53"/>
<polygon fill="none" stroke="black" points="41,-53 41,-74 273,-74 273,-53 41,-53"/>
<text text-anchor="start" x="78.5" y="-59.8" font-family="Times,serif" font-size="14.00">Golden nodes are for actions</text>
<polygon fill="#ff3030" stroke="none" points="41,-30 41,-51 273,-51 273,-30 41,-30"/>
<polygon fill="none" stroke="black" points="41,-30 41,-51 273,-51 273,-30 41,-30"/>
<text text-anchor="start" x="89" y="-36.8" font-family="Times,serif" font-size="14.00">Red nodes are for events</text>
<polygon fill="none" stroke="black" points="38,-27.5 38,-146.5 276,-146.5 276,-27.5 38,-27.5"/>
</g>
</g>
</svg>
