<?xml version="1.0" encoding="UTF-8" standalone="no"?>
<!DOCTYPE svg PUBLIC "-//W3C//DTD SVG 1.1//EN"
 "http://www.w3.org/Graphics/SVG/1.1/DTD/svg11.dtd">
<!-- Generated by graphviz version 2.38.0 (20140413.2041)
 -->
<!-- Title: Perl Pages: 1 -->
<svg width="369pt" height="85pt"
 viewBox="0.00 0.00 368.73 84.74" xmlns="http://www.w3.org/2000/svg" xmlns:xlink="http://www.w3.org/1999/xlink">
<g id="graph0" class="graph" transform="scale(1 1) rotate(0) translate(4 80.7401)">
<title>Perl</title>
<polygon fill="white" stroke="none" points="-4,4 -4,-80.7401 364.731,-80.7401 364.731,4 -4,4"/>
<text text-anchor="middle" x="180.366" y="-7.8" font-family="Times,serif" font-size="14.00">HTML label demo # 3 &#45; Fixing newlines</text>
<!-- One -->
<g id="node1" class="node"><title>One</title>
<ellipse fill="none" stroke="black" cx="29.6985" cy="-49.8701" rx="29.8983" ry="26.7407"/>
<text text-anchor="start" x="18.1985" y="-53.6701" font-family="Times,serif" font-size="14.00">One</text>
<text text-anchor="start" x="16.6985" y="-38.6701" font-family="Times,serif" font-size="14.00" fill="#0000ff">Blue</text>
</g>
<!-- Two -->
<g id="node2" class="node"><title>Two</title>
<ellipse fill="none" stroke="black" cx="112.698" cy="-49.8701" rx="35.2113" ry="26.7407"/>
<text text-anchor="start" x="100.198" y="-53.6701" font-family="Times,serif" font-size="14.00">Two</text>
<text text-anchor="start" x="95.6985" y="-38.6701" font-family="Times,serif" font-size="14.00" fill="#00ff00">Green</text>
</g>
<!-- Three -->
<g id="node3" class="node"><title>Three</title>
<ellipse fill="none" stroke="red" cx="201.698" cy="-49.8701" rx="35.2113" ry="25"/>
<polygon fill="none" stroke="red" points="187.698,-38.8701 187.698,-59.8701 215.698,-59.8701 215.698,-38.8701 187.698,-38.8701"/>
<text text-anchor="start" x="190.698" y="-45.6701" font-family="Times,serif" font-size="14.00">Red</text>
<polygon fill="none" stroke="red" points="184.698,-36.3701 184.698,-63.3701 218.698,-63.3701 218.698,-36.3701 184.698,-36.3701"/>
</g>
<!-- Four -->
<g id="node4" class="node"><title>Four</title>
<ellipse fill="none" stroke="magenta" cx="307.698" cy="-49.8701" rx="53.066" ry="25"/>
<polygon fill="none" stroke="magenta" points="281.698,-38.8701 281.698,-59.8701 334.698,-59.8701 334.698,-38.8701 281.698,-38.8701"/>
<text text-anchor="start" x="284.698" y="-45.6701" font-family="Times,serif" font-size="14.00">magenta</text>
<polygon fill="none" stroke="magenta" points="278.198,-36.3701 278.198,-63.3701 337.198,-63.3701 337.198,-36.3701 278.198,-36.3701"/>
</g>
</g>
</svg>
