<?xml version="1.0" encoding="UTF-8" standalone="no"?>
<!DOCTYPE svg PUBLIC "-//W3C//DTD SVG 1.1//EN"
 "http://www.w3.org/Graphics/SVG/1.1/DTD/svg11.dtd">
<!-- Generated by graphviz version 2.37.20140310.0445 (20140310.0445)
 -->
<!-- Title: Perl Pages: 1 -->
<svg width="301pt" height="251pt"
 viewBox="0.00 0.00 301.00 251.00" xmlns="http://www.w3.org/2000/svg" xmlns:xlink="http://www.w3.org/1999/xlink">
<g id="graph0" class="graph" transform="scale(1 1) rotate(0) translate(4 247)">
<title>Perl</title>
<polygon fill="white" stroke="none" points="-4,4 -4,-247 297,-247 297,4 -4,4"/>
<text text-anchor="middle" x="146.5" y="-7.8" font-family="Times,serif" font-size="14.00">HTML label demo # 1 &#45; Using &lt; ... &gt;</text>
<!-- Carnegie -->
<g id="node1" class="node"><title>Carnegie</title>
<ellipse fill="red" stroke="red" cx="42" cy="-65" rx="42.3701" ry="42.4939"/>
<text text-anchor="middle" x="42" y="-61.3" font-family="Times,serif" font-size="14.00">Carnegie</text>
</g>
<!-- Murrumbeena -->
<g id="node2" class="node"><title>Murrumbeena</title>
<path fill="none" stroke="green" d="M186.25,-242.5C186.25,-242.5 115.75,-242.5 115.75,-242.5 109.75,-242.5 103.75,-236.5 103.75,-230.5 103.75,-230.5 103.75,-201.5 103.75,-201.5 103.75,-195.5 109.75,-189.5 115.75,-189.5 115.75,-189.5 186.25,-189.5 186.25,-189.5 192.25,-189.5 198.25,-195.5 198.25,-201.5 198.25,-201.5 198.25,-230.5 198.25,-230.5 198.25,-236.5 192.25,-242.5 186.25,-242.5"/>
<text text-anchor="start" x="111.5" y="-227.3" font-family="Times,serif" font-size="14.00">Murrumbeena</text>
<text text-anchor="start" x="128.5" y="-212.3" font-family="Times,serif" font-size="14.00" fill="#0000ff">Victoria</text>
<text text-anchor="start" x="126" y="-197.3" font-family="Times,serif" font-size="14.00">Australia</text>
</g>
<!-- Murrumbeena&#45;&gt;Carnegie -->
<g id="edge1" class="edge"><title>Murrumbeena&#45;&gt;Carnegie</title>
<path fill="none" stroke="grey" d="M130.019,-189.137C125.339,-183.227 120.448,-176.937 116,-171 102.963,-153.598 89.1231,-134.22 76.9822,-116.897"/>
<polygon fill="grey" stroke="grey" points="82.6735,-112.82 65.5005,-100.407 71.1843,-120.82 82.6735,-112.82"/>
<text text-anchor="start" x="118.5" y="-159.3" font-family="Times,serif" font-size="14.00">Bike</text>
<text text-anchor="start" x="116.5" y="-144.3" font-family="Times,serif" font-size="14.00">Train</text>
<text text-anchor="start" x="116" y="-129.3" font-family="Times,serif" font-size="14.00">Stroll</text>
</g>
<!-- Oakleigh -->
<g id="node3" class="node"><title>Oakleigh</title>
<path fill="none" stroke="blue" d="M114.5,-47C114.5,-47 281.5,-47 281.5,-47 287.5,-47 293.5,-53 293.5,-59 293.5,-59 293.5,-71 293.5,-71 293.5,-77 287.5,-83 281.5,-83 281.5,-83 114.5,-83 114.5,-83 108.5,-83 102.5,-77 102.5,-71 102.5,-71 102.5,-59 102.5,-59 102.5,-53 108.5,-47 114.5,-47"/>
<text text-anchor="middle" x="151.5" y="-61.3" font-family="Times,serif" font-size="14.00">West Oakleigh</text>
<polyline fill="none" stroke="blue" points="200.5,-47 200.5,-83 "/>
<text text-anchor="middle" x="247" y="-61.3" font-family="Times,serif" font-size="14.00">East Oakleigh</text>
</g>
<!-- Murrumbeena&#45;&gt;Oakleigh -->
<g id="edge2" class="edge"><title>Murrumbeena&#45;&gt;Oakleigh:port1</title>
<path fill="none" stroke="brown" d="M151,-189.396C151,-165.465 151,-128.421 151,-94.4322"/>
<polygon fill="brown" stroke="brown" points="154.5,-94 151,-84 147.5,-94 154.5,-94"/>
<text text-anchor="start" x="157.5" y="-159.3" font-family="Times,serif" font-size="14.00">Meander</text>
<text text-anchor="start" x="151" y="-144.3" font-family="Times,serif" font-size="14.00">Promenade</text>
<text text-anchor="start" x="161" y="-129.3" font-family="Times,serif" font-size="14.00">Saunter</text>
</g>
<!-- Murrumbeena&#45;&gt;Oakleigh -->
<g id="edge3" class="edge"><title>Murrumbeena&#45;&gt;Oakleigh:port2</title>
<path fill="none" stroke="green" d="M197.936,-189.393C205.009,-184.02 211.698,-177.868 217,-171 239.748,-141.533 245.939,-127.517 246.868,-94.3992"/>
<polygon fill="green" stroke="green" points="250.373,-94.0437 247,-84 243.373,-93.9547 250.373,-94.0437"/>
<text text-anchor="start" x="243.5" y="-159.3" font-family="Times,serif" font-size="14.00">Drive</text>
<text text-anchor="start" x="247.5" y="-144.3" font-family="Times,serif" font-size="14.00">Run</text>
<text text-anchor="start" x="242" y="-129.3" font-family="Times,serif" font-size="14.00">Sprint</text>
</g>
</g>
</svg>
