<?xml version="1.0" encoding="UTF-8" standalone="no"?>
<!DOCTYPE svg PUBLIC "-//W3C//DTD SVG 1.1//EN"
 "http://www.w3.org/Graphics/SVG/1.1/DTD/svg11.dtd">
<!-- Generated by graphviz version 2.38.0 (20140413.2041)
 -->
<!-- Title: Perl Pages: 1 -->
<svg width="462pt" height="153pt"
 viewBox="0.00 0.00 462.34 153.00" xmlns="http://www.w3.org/2000/svg" xmlns:xlink="http://www.w3.org/1999/xlink">
<g id="graph0" class="graph" transform="scale(1 1) rotate(0) translate(4 149)">
<title>Perl</title>
<polygon fill="white" stroke="none" points="-4,4 -4,-149 458.342,-149 458.342,4 -4,4"/>
<!-- Carnegie -->
<g id="node1" class="node"><title>Carnegie</title>
<ellipse fill="aquamarine" stroke="aquamarine" cx="42.2463" cy="-127" rx="42.4939" ry="18"/>
<text text-anchor="middle" x="42.2463" y="-123.3" font-family="Times,serif" font-size="14.00">Carnegie</text>
</g>
<!-- one -->
<g id="node4" class="node"><title>one</title>
<ellipse fill="lightgrey" stroke="black" cx="103.246" cy="-72.5" rx="0.5" ry="0.5"/>
</g>
<!-- Carnegie&#45;&gt;one -->
<g id="edge2" class="edge"><title>Carnegie&#45;&gt;one</title>
<path fill="none" stroke="grey" d="M60.2183,-110.385C77.6495,-95.2398 101.688,-74.3535 103.174,-73.0629"/>
</g>
<!-- Murrumbeena -->
<g id="node2" class="node"><title>Murrumbeena</title>
<ellipse fill="bisque" stroke="bisque" cx="164.246" cy="-127" rx="61.99" ry="18"/>
<text text-anchor="middle" x="164.246" y="-123.3" font-family="Times,serif" font-size="14.00">Murrumbeena</text>
</g>
<!-- Murrumbeena&#45;&gt;one -->
<g id="edge1" class="edge"><title>Murrumbeena&#45;&gt;one</title>
<path fill="none" stroke="grey" d="M145.613,-109.81C128.234,-94.711 104.767,-74.321 103.317,-73.0614"/>
</g>
<!-- Oakleigh -->
<g id="node3" class="node"><title>Oakleigh</title>
<ellipse fill="blueviolet" stroke="blueviolet" cx="103.246" cy="-18" rx="42.7926" ry="18"/>
<text text-anchor="middle" x="103.246" y="-14.3" font-family="Times,serif" font-size="14.00">Oakleigh</text>
</g>
<!-- one&#45;&gt;Oakleigh -->
<g id="edge3" class="edge"><title>one&#45;&gt;Oakleigh</title>
<path fill="none" stroke="grey" d="M103.246,-71.848C103.246,-70.368 103.246,-58.3194 103.246,-46.1004"/>
<polygon fill="grey" stroke="grey" points="106.746,-46.0247 103.246,-36.0247 99.7464,-46.0248 106.746,-46.0247"/>
</g>
<!-- Ashburton -->
<g id="node5" class="node"><title>Ashburton</title>
<ellipse fill="lawngreen" stroke="lawngreen" cx="292.246" cy="-127" rx="48.1917" ry="18"/>
<text text-anchor="middle" x="292.246" y="-123.3" font-family="Times,serif" font-size="14.00">Ashburton</text>
</g>
<!-- two -->
<g id="node8" class="node"><title>two</title>
<ellipse fill="lightgrey" stroke="black" cx="349.246" cy="-72.5" rx="0.5" ry="0.5"/>
</g>
<!-- Ashburton&#45;&gt;two -->
<g id="edge4" class="edge"><title>Ashburton&#45;&gt;two</title>
<path fill="none" stroke="grey" d="M309.348,-110.098C325.613,-94.9746 347.808,-74.3372 349.179,-73.0621"/>
</g>
<!-- Chadstone -->
<g id="node6" class="node"><title>Chadstone</title>
<ellipse fill="coral" stroke="coral" cx="406.246" cy="-127" rx="48.1917" ry="18"/>
<text text-anchor="middle" x="406.246" y="-123.3" font-family="Times,serif" font-size="14.00">Chadstone</text>
</g>
<!-- Chadstone&#45;&gt;two -->
<g id="edge5" class="edge"><title>Chadstone&#45;&gt;two</title>
<path fill="none" stroke="grey" d="M389.144,-110.098C372.879,-94.9746 350.684,-74.3372 349.313,-73.0621"/>
</g>
<!-- Waverley -->
<g id="node7" class="node"><title>Waverley</title>
<ellipse fill="crimson" stroke="crimson" cx="349.246" cy="-18" rx="45.4919" ry="18"/>
<text text-anchor="middle" x="349.246" y="-14.3" font-family="Times,serif" font-size="14.00">Waverley</text>
</g>
<!-- two&#45;&gt;Waverley -->
<g id="edge6" class="edge"><title>two&#45;&gt;Waverley</title>
<path fill="none" stroke="grey" d="M349.246,-71.848C349.246,-70.368 349.246,-58.3194 349.246,-46.1004"/>
<polygon fill="grey" stroke="grey" points="352.746,-46.0247 349.246,-36.0247 345.746,-46.0248 352.746,-46.0247"/>
</g>
</g>
</svg>
