<?xml version="1.0" encoding="UTF-8" standalone="no"?>
<!DOCTYPE svg PUBLIC "-//W3C//DTD SVG 1.1//EN"
 "http://www.w3.org/Graphics/SVG/1.1/DTD/svg11.dtd">
<!-- Generated by graphviz version 2.38.0 (20140413.2041)
 -->
<!-- Title: Perl Pages: 1 -->
<svg width="278pt" height="153pt"
 viewBox="0.00 0.00 278.00 153.00" xmlns="http://www.w3.org/2000/svg" xmlns:xlink="http://www.w3.org/1999/xlink">
<g id="graph0" class="graph" transform="scale(1 1) rotate(0) translate(4 149)">
<title>Perl</title>
<polygon fill="white" stroke="none" points="-4,4 -4,-149 274,-149 274,4 -4,4"/>
<!-- Carnegie -->
<g id="node1" class="node"><title>Carnegie</title>
<ellipse fill="aquamarine" stroke="aquamarine" cx="27" cy="-127" rx="27" ry="18"/>
</g>
<!-- one -->
<g id="node4" class="node"><title>one</title>
<ellipse fill="white" stroke="black" cx="63" cy="-72.5" rx="0.5" ry="0.5"/>
</g>
<!-- Carnegie&#45;&gt;one -->
<g id="edge2" class="edge"><title>Carnegie&#45;&gt;one</title>
<path fill="none" stroke="grey" d="M37.9968,-110.268C48.5837,-95.1233 63,-74.5 63,-74.5"/>
</g>
<!-- Murrumbeena -->
<g id="node2" class="node"><title>Murrumbeena</title>
<ellipse fill="bisque" stroke="bisque" cx="99" cy="-127" rx="27" ry="18"/>
</g>
<!-- Murrumbeena&#45;&gt;one -->
<g id="edge1" class="edge"><title>Murrumbeena&#45;&gt;one</title>
<path fill="none" stroke="grey" d="M88.0032,-110.268C77.4163,-95.1233 63,-74.5 63,-74.5"/>
</g>
<!-- Oakleigh -->
<g id="node3" class="node"><title>Oakleigh</title>
<ellipse fill="blueviolet" stroke="blueviolet" cx="63" cy="-18" rx="27" ry="18"/>
</g>
<!-- one&#45;&gt;Oakleigh -->
<g id="edge3" class="edge"><title>one&#45;&gt;Oakleigh</title>
<path fill="none" stroke="grey" d="M63,-71.848C63,-70.368 63,-58.3194 63,-46.1004"/>
<polygon fill="grey" stroke="grey" points="66.5001,-46.0247 63,-36.0247 59.5001,-46.0248 66.5001,-46.0247"/>
</g>
<!-- Ashburton -->
<g id="node5" class="node"><title>Ashburton</title>
<ellipse fill="lawngreen" stroke="lawngreen" cx="171" cy="-127" rx="27" ry="18"/>
</g>
<!-- two -->
<g id="node8" class="node"><title>two</title>
<ellipse fill="white" stroke="black" cx="207" cy="-72.5" rx="0.5" ry="0.5"/>
</g>
<!-- Ashburton&#45;&gt;two -->
<g id="edge4" class="edge"><title>Ashburton&#45;&gt;two</title>
<path fill="none" stroke="grey" d="M181.997,-110.268C192.584,-95.1233 207,-74.5 207,-74.5"/>
</g>
<!-- Chadstone -->
<g id="node6" class="node"><title>Chadstone</title>
<ellipse fill="coral" stroke="coral" cx="243" cy="-127" rx="27" ry="18"/>
</g>
<!-- Chadstone&#45;&gt;two -->
<g id="edge5" class="edge"><title>Chadstone&#45;&gt;two</title>
<path fill="none" stroke="grey" d="M232.003,-110.268C221.416,-95.1233 207,-74.5 207,-74.5"/>
</g>
<!-- Waverley -->
<g id="node7" class="node"><title>Waverley</title>
<ellipse fill="crimson" stroke="crimson" cx="207" cy="-18" rx="27" ry="18"/>
</g>
<!-- two&#45;&gt;Waverley -->
<g id="edge6" class="edge"><title>two&#45;&gt;Waverley</title>
<path fill="none" stroke="grey" d="M207,-71.848C207,-70.368 207,-58.3194 207,-46.1004"/>
<polygon fill="grey" stroke="grey" points="210.5,-46.0247 207,-36.0247 203.5,-46.0248 210.5,-46.0247"/>
</g>
</g>
</svg>
