<?xml version="1.0" encoding="UTF-8" standalone="no"?>
<!DOCTYPE svg PUBLIC "-//W3C//DTD SVG 1.1//EN"
 "http://www.w3.org/Graphics/SVG/1.1/DTD/svg11.dtd">
<!-- Generated by graphviz version 2.38.0 (20140413.2041)
 -->
<!-- Title: Perl Pages: 1 -->
<svg width="462pt" height="175pt"
 viewBox="0.00 0.00 462.34 175.00" xmlns="http://www.w3.org/2000/svg" xmlns:xlink="http://www.w3.org/1999/xlink">
<g id="graph0" class="graph" transform="scale(1 1) rotate(0) translate(4 171)">
<title>Perl</title>
<polygon fill="white" stroke="none" points="-4,4 -4,-171 458.342,-171 458.342,4 -4,4"/>
<!-- Carnegie -->
<g id="node1" class="node"><title>Carnegie</title>
<ellipse fill="aquamarine" stroke="aquamarine" cx="42.2463" cy="-149" rx="42.4939" ry="18"/>
<text text-anchor="middle" x="42.2463" y="-145.3" font-family="Times,serif" font-size="14.00">Carnegie</text>
</g>
<!-- one -->
<!-- Carnegie&#45;&gt;one -->
<g id="edge2" class="edge"><title>Carnegie&#45;&gt;one</title>
<path fill="none" stroke="grey" d="M57.6391,-132.229C75.7099,-113.714 103.246,-85.5 103.246,-85.5"/>
</g>
<!-- Murrumbeena -->
<g id="node2" class="node"><title>Murrumbeena</title>
<ellipse fill="bisque" stroke="bisque" cx="164.246" cy="-149" rx="61.99" ry="18"/>
<text text-anchor="middle" x="164.246" y="-145.3" font-family="Times,serif" font-size="14.00">Murrumbeena</text>
</g>
<!-- Murrumbeena&#45;&gt;one -->
<g id="edge1" class="edge"><title>Murrumbeena&#45;&gt;one</title>
<path fill="none" stroke="grey" d="M148.219,-131.579C130.146,-113.061 103.246,-85.5 103.246,-85.5"/>
</g>
<!-- Oakleigh -->
<g id="node3" class="node"><title>Oakleigh</title>
<ellipse fill="blueviolet" stroke="blueviolet" cx="103.246" cy="-18" rx="42.7926" ry="18"/>
<text text-anchor="middle" x="103.246" y="-14.3" font-family="Times,serif" font-size="14.00">Oakleigh</text>
</g>
<!-- one&#45;&gt;Oakleigh -->
<g id="edge3" class="edge"><title>one&#45;&gt;Oakleigh</title>
<path fill="none" stroke="grey" d="M103.246,-82.454C103.246,-81.4152 103.246,-62.9804 103.246,-46.2481"/>
<polygon fill="grey" stroke="grey" points="106.746,-46.2206 103.246,-36.2206 99.7464,-46.2207 106.746,-46.2206"/>
</g>
<!-- Ashburton -->
<g id="node5" class="node"><title>Ashburton</title>
<ellipse fill="lawngreen" stroke="lawngreen" cx="292.246" cy="-149" rx="48.1917" ry="18"/>
<text text-anchor="middle" x="292.246" y="-145.3" font-family="Times,serif" font-size="14.00">Ashburton</text>
</g>
<!-- two -->
<!-- Ashburton&#45;&gt;two -->
<g id="edge4" class="edge"><title>Ashburton&#45;&gt;two</title>
<path fill="none" stroke="grey" d="M307.222,-131.579C324.11,-113.061 349.246,-85.5 349.246,-85.5"/>
</g>
<!-- Chadstone -->
<g id="node6" class="node"><title>Chadstone</title>
<ellipse fill="coral" stroke="coral" cx="406.246" cy="-149" rx="48.1917" ry="18"/>
<text text-anchor="middle" x="406.246" y="-145.3" font-family="Times,serif" font-size="14.00">Chadstone</text>
</g>
<!-- Chadstone&#45;&gt;two -->
<g id="edge5" class="edge"><title>Chadstone&#45;&gt;two</title>
<path fill="none" stroke="grey" d="M391.27,-131.579C374.382,-113.061 349.246,-85.5 349.246,-85.5"/>
</g>
<!-- Waverley -->
<g id="node7" class="node"><title>Waverley</title>
<ellipse fill="crimson" stroke="crimson" cx="349.246" cy="-18" rx="45.4919" ry="18"/>
<text text-anchor="middle" x="349.246" y="-14.3" font-family="Times,serif" font-size="14.00">Waverley</text>
</g>
<!-- two&#45;&gt;Waverley -->
<g id="edge6" class="edge"><title>two&#45;&gt;Waverley</title>
<path fill="none" stroke="grey" d="M349.246,-82.454C349.246,-81.4152 349.246,-62.9804 349.246,-46.2481"/>
<polygon fill="grey" stroke="grey" points="352.746,-46.2206 349.246,-36.2206 345.746,-46.2207 352.746,-46.2206"/>
</g>
</g>
</svg>
