<?xml version="1.0" encoding="UTF-8" standalone="no"?>
<!DOCTYPE svg PUBLIC "-//W3C//DTD SVG 1.1//EN"
 "http://www.w3.org/Graphics/SVG/1.1/DTD/svg11.dtd">
<!-- Generated by graphviz version 2.26.3 (20100126.1600)
 -->
<!-- Title: Perl Pages: 1 -->
<svg width="496pt" height="158pt"
 viewBox="0.00 0.00 496.00 158.00" xmlns="http://www.w3.org/2000/svg" xmlns:xlink="http://www.w3.org/1999/xlink">
<g id="graph1" class="graph" transform="scale(1 1) rotate(0) translate(4 154)">
<title>Perl</title>
<polygon fill="white" stroke="white" points="-4,5 -4,-154 493,-154 493,5 -4,5"/>
<!-- Carnegie -->
<g id="node1" class="node"><title>Carnegie</title>
<ellipse fill="aquamarine" stroke="aquamarine" cx="46" cy="-131" rx="45.9619" ry="19.0919"/>
<text text-anchor="middle" x="46" y="-127.9" font-family="Times Roman,serif" font-size="14.00">Carnegie</text>
</g>
<!-- one -->
<g id="node4" class="node"><title>one</title>
<ellipse fill="white" stroke="black" cx="112" cy="-75" rx="0" ry="0.5"/>
</g>
<!-- Carnegie&#45;&gt;one -->
<g id="edge4" class="edge"><title>Carnegie&#45;&gt;one</title>
<path fill="none" stroke="grey" d="M66.521,-113.899C85.8955,-97.7538 112,-76 112,-76"/>
</g>
<!-- Murrumbeena -->
<g id="node2" class="node"><title>Murrumbeena</title>
<ellipse fill="bisque" stroke="bisque" cx="177" cy="-131" rx="67.1751" ry="19.0919"/>
<text text-anchor="middle" x="177" y="-127.9" font-family="Times Roman,serif" font-size="14.00">Murrumbeena</text>
</g>
<!-- Murrumbeena&#45;&gt;one -->
<g id="edge2" class="edge"><title>Murrumbeena&#45;&gt;one</title>
<path fill="none" stroke="grey" d="M155.356,-112.686C136.447,-96.6863 112,-76 112,-76"/>
</g>
<!-- Oakleigh -->
<g id="node3" class="node"><title>Oakleigh</title>
<ellipse fill="blueviolet" stroke="blueviolet" cx="112" cy="-19" rx="46.1672" ry="19.0919"/>
<text text-anchor="middle" x="112" y="-15.9" font-family="Times Roman,serif" font-size="14.00">Oakleigh</text>
</g>
<!-- one&#45;&gt;Oakleigh -->
<g id="edge6" class="edge"><title>one&#45;&gt;Oakleigh</title>
<path fill="none" stroke="grey" d="M112,-76C112,-76 112,-62.2944 112,-48.3244"/>
<polygon fill="grey" stroke="grey" points="115.5,-48.2976 112,-38.2976 108.5,-48.2976 115.5,-48.2976"/>
</g>
<!-- Ashburton -->
<g id="node8" class="node"><title>Ashburton</title>
<ellipse fill="lawngreen" stroke="lawngreen" cx="314" cy="-131" rx="51.8276" ry="19.0919"/>
<text text-anchor="middle" x="314" y="-127.9" font-family="Times Roman,serif" font-size="14.00">Ashburton</text>
</g>
<!-- two -->
<g id="node11" class="node"><title>two</title>
<ellipse fill="white" stroke="black" cx="375" cy="-75" rx="0" ry="0.5"/>
</g>
<!-- Ashburton&#45;&gt;two -->
<g id="edge8" class="edge"><title>Ashburton&#45;&gt;two</title>
<path fill="none" stroke="grey" d="M333.637,-113.295C351.469,-97.2167 375,-76 375,-76"/>
</g>
<!-- Chadstone -->
<g id="node9" class="node"><title>Chadstone</title>
<ellipse fill="coral" stroke="coral" cx="436" cy="-131" rx="51.8276" ry="19.0919"/>
<text text-anchor="middle" x="436" y="-127.9" font-family="Times Roman,serif" font-size="14.00">Chadstone</text>
</g>
<!-- Chadstone&#45;&gt;two -->
<g id="edge10" class="edge"><title>Chadstone&#45;&gt;two</title>
<path fill="none" stroke="grey" d="M416.363,-113.295C398.531,-97.2167 375,-76 375,-76"/>
</g>
<!-- Waverley -->
<g id="node10" class="node"><title>Waverley</title>
<ellipse fill="crimson" stroke="crimson" cx="375" cy="-19" rx="48.9975" ry="19.0919"/>
<text text-anchor="middle" x="375" y="-15.9" font-family="Times Roman,serif" font-size="14.00">Waverley</text>
</g>
<!-- two&#45;&gt;Waverley -->
<g id="edge12" class="edge"><title>two&#45;&gt;Waverley</title>
<path fill="none" stroke="grey" d="M375,-76C375,-76 375,-62.2944 375,-48.3244"/>
<polygon fill="grey" stroke="grey" points="378.5,-48.2976 375,-38.2976 371.5,-48.2976 378.5,-48.2976"/>
</g>
</g>
</svg>
