<?xml version="1.0" encoding="UTF-8" standalone="no"?>
<!DOCTYPE svg PUBLIC "-//W3C//DTD SVG 1.1//EN"
 "http://www.w3.org/Graphics/SVG/1.1/DTD/svg11.dtd">
<!-- Generated by graphviz version 2.38.0 (20140413.2041)
 -->
<!-- Title: Perl Pages: 1 -->
<svg width="462pt" height="152pt"
 viewBox="0.00 0.00 462.34 152.00" xmlns="http://www.w3.org/2000/svg" xmlns:xlink="http://www.w3.org/1999/xlink">
<g id="graph0" class="graph" transform="scale(1 1) rotate(0) translate(4 148)">
<title>Perl</title>
<polygon fill="white" stroke="none" points="-4,4 -4,-148 458.342,-148 458.342,4 -4,4"/>
<!-- Carnegie -->
<g id="node1" class="node"><title>Carnegie</title>
<ellipse fill="aquamarine" stroke="aquamarine" cx="42.2463" cy="-126" rx="42.4939" ry="18"/>
<text text-anchor="middle" x="42.2463" y="-122.3" font-family="Times,serif" font-size="14.00">Carnegie</text>
</g>
<!-- one -->
<g id="node4" class="node"><title>one</title>
<ellipse fill="grey" stroke="grey" cx="103.246" cy="-72" rx="0" ry="0"/>
</g>
<!-- Carnegie&#45;&gt;one -->
<g id="edge2" class="edge"><title>Carnegie&#45;&gt;one</title>
<path fill="none" stroke="grey" d="M60.2183,-109.68C77.6495,-94.8202 101.688,-74.3279 103.174,-73.0617"/>
</g>
<!-- Murrumbeena -->
<g id="node2" class="node"><title>Murrumbeena</title>
<ellipse fill="bisque" stroke="bisque" cx="164.246" cy="-126" rx="61.99" ry="18"/>
<text text-anchor="middle" x="164.246" y="-122.3" font-family="Times,serif" font-size="14.00">Murrumbeena</text>
</g>
<!-- Murrumbeena&#45;&gt;one -->
<g id="edge1" class="edge"><title>Murrumbeena&#45;&gt;one</title>
<path fill="none" stroke="grey" d="M145.28,-108.832C127.933,-94.0442 104.748,-74.2803 103.316,-73.0595"/>
</g>
<!-- Oakleigh -->
<g id="node3" class="node"><title>Oakleigh</title>
<ellipse fill="blueviolet" stroke="blueviolet" cx="103.246" cy="-18" rx="42.7926" ry="18"/>
<text text-anchor="middle" x="103.246" y="-14.3" font-family="Times,serif" font-size="14.00">Oakleigh</text>
</g>
<!-- one&#45;&gt;Oakleigh -->
<g id="edge3" class="edge"><title>one&#45;&gt;Oakleigh</title>
<path fill="none" stroke="grey" d="M103.246,-70.8508C103.246,-69.4317 103.246,-58.1086 103.246,-46.4049"/>
<polygon fill="grey" stroke="grey" points="106.746,-46.261 103.246,-36.2611 99.7464,-46.2611 106.746,-46.261"/>
</g>
<!-- Ashburton -->
<g id="node5" class="node"><title>Ashburton</title>
<ellipse fill="lawngreen" stroke="lawngreen" cx="292.246" cy="-126" rx="48.1917" ry="18"/>
<text text-anchor="middle" x="292.246" y="-122.3" font-family="Times,serif" font-size="14.00">Ashburton</text>
</g>
<!-- two -->
<g id="node8" class="node"><title>two</title>
<ellipse fill="grey" stroke="grey" cx="349.246" cy="-72" rx="0" ry="0"/>
</g>
<!-- Ashburton&#45;&gt;two -->
<g id="edge4" class="edge"><title>Ashburton&#45;&gt;two</title>
<path fill="none" stroke="grey" d="M309.658,-109.116C325.897,-94.3014 347.826,-74.2961 349.18,-73.0602"/>
</g>
<!-- Chadstone -->
<g id="node6" class="node"><title>Chadstone</title>
<ellipse fill="coral" stroke="coral" cx="406.246" cy="-126" rx="48.1917" ry="18"/>
<text text-anchor="middle" x="406.246" y="-122.3" font-family="Times,serif" font-size="14.00">Chadstone</text>
</g>
<!-- Chadstone&#45;&gt;two -->
<g id="edge5" class="edge"><title>Chadstone&#45;&gt;two</title>
<path fill="none" stroke="grey" d="M388.835,-109.116C372.596,-94.3014 350.667,-74.2961 349.312,-73.0602"/>
</g>
<!-- Waverley -->
<g id="node7" class="node"><title>Waverley</title>
<ellipse fill="crimson" stroke="crimson" cx="349.246" cy="-18" rx="45.4919" ry="18"/>
<text text-anchor="middle" x="349.246" y="-14.3" font-family="Times,serif" font-size="14.00">Waverley</text>
</g>
<!-- two&#45;&gt;Waverley -->
<g id="edge6" class="edge"><title>two&#45;&gt;Waverley</title>
<path fill="none" stroke="grey" d="M349.246,-70.8508C349.246,-69.4317 349.246,-58.1086 349.246,-46.4049"/>
<polygon fill="grey" stroke="grey" points="352.746,-46.261 349.246,-36.2611 345.746,-46.2611 352.746,-46.261"/>
</g>
</g>
</svg>
