<?xml version="1.0" encoding="UTF-8" standalone="no"?>
<!DOCTYPE svg PUBLIC "-//W3C//DTD SVG 1.1//EN"
 "http://www.w3.org/Graphics/SVG/1.1/DTD/svg11.dtd">
<!-- Generated by graphviz version 2.34.0 (20131125.0033)
 -->
<!-- Title: Perl Pages: 1 -->
<svg width="462pt" height="154pt"
 viewBox="0.00 0.00 462.00 154.00" xmlns="http://www.w3.org/2000/svg" xmlns:xlink="http://www.w3.org/1999/xlink">
<g id="graph0" class="graph" transform="scale(1 1) rotate(0) translate(4 150)">
<title>Perl</title>
<polygon fill="white" stroke="white" points="-4,4 -4,-150 458,-150 458,4 -4,4"/>
<!-- Carnegie -->
<g id="node1" class="node"><title>Carnegie</title>
<ellipse fill="aquamarine" stroke="aquamarine" cx="42" cy="-128" rx="42.3701" ry="18"/>
<text text-anchor="middle" x="42" y="-124.3" font-family="Times,serif" font-size="14.00">Carnegie</text>
</g>
<!-- one -->
<g id="node4" class="node"><title>one</title>
<ellipse fill="white" stroke="black" cx="103" cy="-73" rx="0.25" ry="0.5"/>
</g>
<!-- Carnegie&#45;&gt;one -->
<g id="edge2" class="edge"><title>Carnegie&#45;&gt;one</title>
<path fill="none" stroke="grey" d="M59.9721,-111.68C73.4672,-100.175 90.9228,-85.2953 98.8072,-78.5742"/>
<polyline fill="none" stroke="grey" points="103,-75 99.1949,-78.2437 "/>
</g>
<!-- Murrumbeena -->
<g id="node2" class="node"><title>Murrumbeena</title>
<ellipse fill="bisque" stroke="bisque" cx="164" cy="-128" rx="61.6163" ry="18"/>
<text text-anchor="middle" x="164" y="-124.3" font-family="Times,serif" font-size="14.00">Murrumbeena</text>
</g>
<!-- Murrumbeena&#45;&gt;one -->
<g id="edge1" class="edge"><title>Murrumbeena&#45;&gt;one</title>
<path fill="none" stroke="grey" d="M145.034,-110.832C131.604,-99.3834 114.675,-84.9522 107.05,-78.4521"/>
<polyline fill="none" stroke="grey" points="103,-75 106.805,-78.2437 "/>
</g>
<!-- Oakleigh -->
<g id="node3" class="node"><title>Oakleigh</title>
<ellipse fill="blueviolet" stroke="blueviolet" cx="103" cy="-18" rx="42.3456" ry="18"/>
<text text-anchor="middle" x="103" y="-14.3" font-family="Times,serif" font-size="14.00">Oakleigh</text>
</g>
<!-- one&#45;&gt;Oakleigh -->
<g id="edge3" class="edge"><title>one&#45;&gt;Oakleigh</title>
<path fill="none" stroke="grey" d="M103,-71.848C103,-70.368 103,-58.3194 103,-46.1004"/>
<polygon fill="grey" stroke="grey" points="106.5,-46.0247 103,-36.0247 99.5001,-46.0248 106.5,-46.0247"/>
</g>
<!-- Ashburton -->
<g id="node5" class="node"><title>Ashburton</title>
<ellipse fill="lawngreen" stroke="lawngreen" cx="292" cy="-128" rx="48.1437" ry="18"/>
<text text-anchor="middle" x="292" y="-124.3" font-family="Times,serif" font-size="14.00">Ashburton</text>
</g>
<!-- two -->
<g id="node8" class="node"><title>two</title>
<ellipse fill="white" stroke="black" cx="349" cy="-73" rx="0.25" ry="0.5"/>
</g>
<!-- Ashburton&#45;&gt;two -->
<g id="edge4" class="edge"><title>Ashburton&#45;&gt;two</title>
<path fill="none" stroke="grey" d="M309.412,-111.116C321.984,-99.6465 337.966,-85.066 345.172,-78.4926"/>
<polyline fill="none" stroke="grey" points="349,-75 345.306,-78.3698 "/>
</g>
<!-- Chadstone -->
<g id="node6" class="node"><title>Chadstone</title>
<ellipse fill="coral" stroke="coral" cx="406" cy="-128" rx="48.1437" ry="18"/>
<text text-anchor="middle" x="406" y="-124.3" font-family="Times,serif" font-size="14.00">Chadstone</text>
</g>
<!-- Chadstone&#45;&gt;two -->
<g id="edge5" class="edge"><title>Chadstone&#45;&gt;two</title>
<path fill="none" stroke="grey" d="M388.588,-111.116C376.016,-99.6465 360.034,-85.066 352.828,-78.4926"/>
<polyline fill="none" stroke="grey" points="349,-75 352.694,-78.3698 "/>
</g>
<!-- Waverley -->
<g id="node7" class="node"><title>Waverley</title>
<ellipse fill="crimson" stroke="crimson" cx="349" cy="-18" rx="45.244" ry="18"/>
<text text-anchor="middle" x="349" y="-14.3" font-family="Times,serif" font-size="14.00">Waverley</text>
</g>
<!-- two&#45;&gt;Waverley -->
<g id="edge6" class="edge"><title>two&#45;&gt;Waverley</title>
<path fill="none" stroke="grey" d="M349,-71.848C349,-70.368 349,-58.3194 349,-46.1004"/>
<polygon fill="grey" stroke="grey" points="352.5,-46.0247 349,-36.0247 345.5,-46.0248 352.5,-46.0247"/>
</g>
</g>
</svg>
