<?xml version="1.0" encoding="UTF-8" standalone="no"?>
<!DOCTYPE svg PUBLIC "-//W3C//DTD SVG 1.1//EN"
 "http://www.w3.org/Graphics/SVG/1.1/DTD/svg11.dtd">
<!-- Generated by graphviz version 2.26.3 (20100126.1600)
 -->
<!-- Title: Perl Pages: 1 -->
<svg width="334pt" height="259pt"
 viewBox="0.00 0.00 334.00 259.00" xmlns="http://www.w3.org/2000/svg" xmlns:xlink="http://www.w3.org/1999/xlink">
<g id="graph1" class="graph" transform="scale(1 1) rotate(0) translate(4 255)">
<title>Perl</title>
<polygon fill="white" stroke="white" points="-4,5 -4,-255 331,-255 331,5 -4,5"/>
<text text-anchor="middle" x="163" y="-10.4" font-family="Times Roman,serif" font-size="14.00">Macro demo 2 &#45; Linked non&#45;cluster sub&#45;graphs</text>
<!-- Chadstone -->
<g id="node2" class="node"><title>Chadstone</title>
<polygon fill="none" stroke="magenta" points="178.921,-229 148.961,-251.045 89.0393,-251.045 59.0786,-229 89.0393,-206.955 148.961,-206.955 178.921,-229"/>
<text text-anchor="middle" x="119" y="-225.9" font-family="Times Roman,serif" font-size="14.00">Chadstone</text>
</g>
<!-- Waverley -->
<g id="node3" class="node"><title>Waverley</title>
<polygon fill="none" stroke="orange" points="70,-171 1.42109e-14,-144 70,-117 140,-144 70,-171"/>
<text text-anchor="middle" x="70" y="-140.9" font-family="Times Roman,serif" font-size="14.00">Waverley</text>
</g>
<!-- Chadstone&#45;&gt;Waverley -->
<g id="edge3" class="edge"><title>Chadstone&#45;&gt;Waverley</title>
<path fill="none" stroke="grey" d="M106.126,-206.667C100.555,-197.004 93.9411,-185.53 87.9041,-175.058"/>
<polygon fill="grey" stroke="grey" points="90.8148,-173.099 82.7882,-166.184 84.7503,-176.595 90.8148,-173.099"/>
</g>
<!-- Notting Hill -->
<g id="node7" class="node"><title>Notting Hill</title>
<polygon fill="none" stroke="orange" points="214,-81 131,-54 214,-27 297,-54 214,-81"/>
<text text-anchor="middle" x="214" y="-50.9" font-family="Times Roman,serif" font-size="14.00">Notting Hill</text>
</g>
<!-- Chadstone&#45;&gt;Notting Hill -->
<g id="edge8" class="edge"><title>Chadstone&#45;&gt;Notting Hill</title>
<path fill="none" stroke="grey" d="M131.032,-206.836C147.623,-176.273 177.628,-121.002 196.645,-85.9695"/>
<polygon fill="grey" stroke="grey" points="199.768,-87.5532 201.463,-77.0948 193.616,-84.2135 199.768,-87.5532"/>
</g>
<!-- Hughesdale -->
<g id="node6" class="node"><title>Hughesdale</title>
<polygon fill="none" stroke="magenta" points="325.821,-144 293.411,-166.045 228.589,-166.045 196.179,-144 228.589,-121.955 293.411,-121.955 325.821,-144"/>
<text text-anchor="middle" x="261" y="-140.9" font-family="Times Roman,serif" font-size="14.00">Hughesdale</text>
</g>
<!-- Hughesdale&#45;&gt;Notting Hill -->
<g id="edge6" class="edge"><title>Hughesdale&#45;&gt;Notting Hill</title>
<path fill="none" stroke="grey" d="M249.382,-121.753C243.805,-111.074 237.017,-98.0745 230.883,-86.3291"/>
<polygon fill="grey" stroke="grey" points="233.871,-84.4906 226.14,-77.2467 227.667,-87.731 233.871,-84.4906"/>
</g>
</g>
</svg>
