<?xml version="1.0" encoding="UTF-8" standalone="no"?>
<!DOCTYPE svg PUBLIC "-//W3C//DTD SVG 1.1//EN"
 "http://www.w3.org/Graphics/SVG/1.1/DTD/svg11.dtd">
<!-- Generated by graphviz version 2.37.20140310.0445 (20140310.0445)
 -->
<!-- Title: Perl Pages: 1 -->
<svg width="312pt" height="211pt"
 viewBox="0.00 0.00 312.00 211.00" xmlns="http://www.w3.org/2000/svg" xmlns:xlink="http://www.w3.org/1999/xlink">
<g id="graph0" class="graph" transform="scale(1 1) rotate(0) translate(4 207)">
<title>Perl</title>
<polygon fill="white" stroke="none" points="-4,4 -4,-207 308,-207 308,4 -4,4"/>
<text text-anchor="middle" x="152" y="-7.8" font-family="Times,serif" font-size="14.00">Macro demo 2 &#45; Linked non&#45;cluster sub&#45;graphs</text>
<!-- Chadstone -->
<g id="node1" class="node"><title>Chadstone</title>
<polygon fill="none" stroke="magenta" points="165.304,-185 137.652,-203 82.3479,-203 54.6959,-185 82.3479,-167 137.652,-167 165.304,-185"/>
<text text-anchor="middle" x="110" y="-181.3" font-family="Times,serif" font-size="14.00">Chadstone</text>
</g>
<!-- Waverley -->
<g id="node2" class="node"><title>Waverley</title>
<polygon fill="none" stroke="orange" points="64,-131 -0.0123243,-113 64,-95 128.012,-113 64,-131"/>
<text text-anchor="middle" x="64" y="-109.3" font-family="Times,serif" font-size="14.00">Waverley</text>
</g>
<!-- Chadstone&#45;&gt;Waverley -->
<g id="edge1" class="edge"><title>Chadstone&#45;&gt;Waverley</title>
<path fill="none" stroke="grey" d="M98.6292,-166.697C92.7627,-157.769 85.5265,-146.758 79.1884,-137.113"/>
<polygon fill="grey" stroke="grey" points="82.102,-135.173 73.6852,-128.738 76.252,-139.018 82.102,-135.173"/>
</g>
<!-- Notting Hill -->
<g id="node4" class="node"><title>Notting Hill</title>
<polygon fill="none" stroke="orange" points="200,-59 124.064,-41 200,-23 275.936,-41 200,-59"/>
<text text-anchor="middle" x="200" y="-37.3" font-family="Times,serif" font-size="14.00">Notting Hill</text>
</g>
<!-- Chadstone&#45;&gt;Notting Hill -->
<g id="edge3" class="edge"><title>Chadstone&#45;&gt;Notting Hill</title>
<path fill="none" stroke="grey" d="M120.856,-166.871C136.887,-141.578 166.943,-94.1571 185.048,-65.5909"/>
<polygon fill="grey" stroke="grey" points="188.076,-67.3507 190.474,-57.0306 182.164,-63.6033 188.076,-67.3507"/>
</g>
<!-- Hughesdale -->
<g id="node3" class="node"><title>Hughesdale</title>
<polygon fill="none" stroke="magenta" points="304.059,-113 274.029,-131 213.971,-131 183.941,-113 213.971,-95 274.029,-95 304.059,-113"/>
<text text-anchor="middle" x="244" y="-109.3" font-family="Times,serif" font-size="14.00">Hughesdale</text>
</g>
<!-- Hughesdale&#45;&gt;Notting Hill -->
<g id="edge2" class="edge"><title>Hughesdale&#45;&gt;Notting Hill</title>
<path fill="none" stroke="grey" d="M233.124,-94.6966C227.647,-85.9832 220.921,-75.284 214.965,-65.8081"/>
<polygon fill="grey" stroke="grey" points="217.841,-63.8062 209.556,-57.2024 211.914,-67.5314 217.841,-63.8062"/>
</g>
</g>
</svg>
