<?xml version="1.0" encoding="UTF-8" standalone="no"?>
<!DOCTYPE svg PUBLIC "-//W3C//DTD SVG 1.1//EN"
 "http://www.w3.org/Graphics/SVG/1.1/DTD/svg11.dtd">
<!-- Generated by graphviz version 2.26.3 (20100126.1600)
 -->
<!-- Title: Perl Pages: 1 -->
<svg width="370pt" height="228pt"
 viewBox="0.00 0.00 370.00 228.00" xmlns="http://www.w3.org/2000/svg" xmlns:xlink="http://www.w3.org/1999/xlink">
<g id="graph1" class="graph" transform="scale(1 1) rotate(0) translate(4 224)">
<title>Perl</title>
<polygon fill="white" stroke="white" points="-4,5 -4,-224 367,-224 367,5 -4,5"/>
<text text-anchor="middle" x="181" y="-10.4" font-family="Times Roman,serif" font-size="14.00">Macro demo 3 &#45; Cluster sub&#45;graphs</text>
<g id="graph2" class="cluster"><title>cluster 1</title>
<polygon fill="none" stroke="black" points="8,-35 8,-212 164,-212 164,-35 8,-35"/>
<text text-anchor="middle" x="86" y="-195.4" font-family="Times Roman,serif" font-size="14.00">cluster 1</text>
</g>
<g id="graph3" class="cluster"><title>cluster 2</title>
<polygon fill="none" stroke="black" points="172,-35 172,-212 354,-212 354,-35 172,-35"/>
<text text-anchor="middle" x="263" y="-195.4" font-family="Times Roman,serif" font-size="14.00">cluster 2</text>
</g>
<!-- Chadstone -->
<g id="node2" class="node"><title>Chadstone</title>
<polygon fill="none" stroke="magenta" points="145.921,-155 115.961,-177.045 56.0393,-177.045 26.0786,-155 56.0393,-132.955 115.961,-132.955 145.921,-155"/>
<text text-anchor="middle" x="86" y="-151.9" font-family="Times Roman,serif" font-size="14.00">Chadstone</text>
</g>
<!-- Waverley -->
<g id="node3" class="node"><title>Waverley</title>
<polygon fill="none" stroke="orange" points="86,-97 16,-70 86,-43 156,-70 86,-97"/>
<text text-anchor="middle" x="86" y="-66.9" font-family="Times Roman,serif" font-size="14.00">Waverley</text>
</g>
<!-- Chadstone&#45;&gt;Waverley -->
<g id="edge3" class="edge"><title>Chadstone&#45;&gt;Waverley</title>
<path fill="none" stroke="grey" d="M86,-132.667C86,-124.819 86,-115.776 86,-107.045"/>
<polygon fill="grey" stroke="grey" points="89.5001,-107.03 86,-97.0296 82.5001,-107.03 89.5001,-107.03"/>
</g>
<!-- Hughesdale -->
<g id="node6" class="node"><title>Hughesdale</title>
<polygon fill="none" stroke="magenta" points="327.821,-155 295.411,-177.045 230.589,-177.045 198.179,-155 230.589,-132.955 295.411,-132.955 327.821,-155"/>
<text text-anchor="middle" x="263" y="-151.9" font-family="Times Roman,serif" font-size="14.00">Hughesdale</text>
</g>
<!-- Notting Hill -->
<g id="node7" class="node"><title>Notting Hill</title>
<polygon fill="none" stroke="orange" points="263,-97 180,-70 263,-43 346,-70 263,-97"/>
<text text-anchor="middle" x="263" y="-66.9" font-family="Times Roman,serif" font-size="14.00">Notting Hill</text>
</g>
<!-- Hughesdale&#45;&gt;Notting Hill -->
<g id="edge6" class="edge"><title>Hughesdale&#45;&gt;Notting Hill</title>
<path fill="none" stroke="grey" d="M263,-132.667C263,-124.819 263,-115.776 263,-107.045"/>
<polygon fill="grey" stroke="grey" points="266.5,-107.03 263,-97.0296 259.5,-107.03 266.5,-107.03"/>
</g>
</g>
</svg>
