<?xml version="1.0" encoding="UTF-8" standalone="no"?>
<!DOCTYPE svg PUBLIC "-//W3C//DTD SVG 1.1//EN"
 "http://www.w3.org/Graphics/SVG/1.1/DTD/svg11.dtd">
<!-- Generated by graphviz version 2.38.0 (20140413.2041)
 -->
<!-- Title: Perl Pages: 1 -->
<svg width="244pt" height="139pt"
 viewBox="0.00 0.00 244.00 139.00" xmlns="http://www.w3.org/2000/svg" xmlns:xlink="http://www.w3.org/1999/xlink">
<g id="graph0" class="graph" transform="scale(1 1) rotate(0) translate(4 135)">
<title>Perl</title>
<polygon fill="white" stroke="none" points="-4,4 -4,-135 240,-135 240,4 -4,4"/>
<text text-anchor="middle" x="118" y="-7.8" font-family="Times,serif" font-size="14.00">Macro demo 1 &#45; Non&#45;cluster sub&#45;graphs</text>
<!-- Chadstone -->
<g id="node1" class="node"><title>Chadstone</title>
<polygon fill="none" stroke="magenta" points="109,-113 95.5,-131 68.5,-131 55,-113 68.5,-95 95.5,-95 109,-113"/>
</g>
<!-- Waverley -->
<g id="node2" class="node"><title>Waverley</title>
<polygon fill="none" stroke="orange" points="82,-59 55,-41 82,-23 109,-41 82,-59"/>
</g>
<!-- Chadstone&#45;&gt;Waverley -->
<g id="edge1" class="edge"><title>Chadstone&#45;&gt;Waverley</title>
<path fill="none" stroke="grey" d="M82,-94.6966C82,-86.9827 82,-77.7125 82,-69.1124"/>
<polygon fill="grey" stroke="grey" points="85.5001,-69.1043 82,-59.1043 78.5001,-69.1044 85.5001,-69.1043"/>
</g>
<!-- Hughesdale -->
<g id="node3" class="node"><title>Hughesdale</title>
<polygon fill="none" stroke="magenta" points="181,-113 167.5,-131 140.5,-131 127,-113 140.5,-95 167.5,-95 181,-113"/>
</g>
<!-- Notting Hill -->
<g id="node4" class="node"><title>Notting Hill</title>
<polygon fill="none" stroke="orange" points="154,-59 127,-41 154,-23 181,-41 154,-59"/>
</g>
<!-- Hughesdale&#45;&gt;Notting Hill -->
<g id="edge2" class="edge"><title>Hughesdale&#45;&gt;Notting Hill</title>
<path fill="none" stroke="grey" d="M154,-94.6966C154,-86.9827 154,-77.7125 154,-69.1124"/>
<polygon fill="grey" stroke="grey" points="157.5,-69.1043 154,-59.1043 150.5,-69.1044 157.5,-69.1043"/>
</g>
</g>
</svg>
