<?xml version="1.0" encoding="UTF-8" standalone="no"?>
<!DOCTYPE svg PUBLIC "-//W3C//DTD SVG 1.1//EN"
 "http://www.w3.org/Graphics/SVG/1.1/DTD/svg11.dtd">
<!-- Generated by graphviz version 2.26.3 (20100126.1600)
 -->
<!-- Title: Perl Pages: 1 -->
<svg width="332pt" height="169pt"
 viewBox="0.00 0.00 332.00 169.00" xmlns="http://www.w3.org/2000/svg" xmlns:xlink="http://www.w3.org/1999/xlink">
<g id="graph1" class="graph" transform="scale(1 1) rotate(0) translate(4 165)">
<title>Perl</title>
<polygon fill="white" stroke="white" points="-4,5 -4,-165 329,-165 329,5 -4,5"/>
<text text-anchor="middle" x="162" y="-10.4" font-family="Times Roman,serif" font-size="14.00">Macro demo 1 &#45; Non&#45;cluster sub&#45;graphs</text>
<!-- Chadstone -->
<g id="node2" class="node"><title>Chadstone</title>
<polygon fill="none" stroke="magenta" points="129.921,-139 99.9607,-161.045 40.0393,-161.045 10.0786,-139 40.0393,-116.955 99.9607,-116.955 129.921,-139"/>
<text text-anchor="middle" x="70" y="-135.9" font-family="Times Roman,serif" font-size="14.00">Chadstone</text>
</g>
<!-- Waverley -->
<g id="node3" class="node"><title>Waverley</title>
<polygon fill="none" stroke="orange" points="70,-81 1.42109e-14,-54 70,-27 140,-54 70,-81"/>
<text text-anchor="middle" x="70" y="-50.9" font-family="Times Roman,serif" font-size="14.00">Waverley</text>
</g>
<!-- Chadstone&#45;&gt;Waverley -->
<g id="edge3" class="edge"><title>Chadstone&#45;&gt;Waverley</title>
<path fill="none" stroke="grey" d="M70,-116.667C70,-108.819 70,-99.7757 70,-91.045"/>
<polygon fill="grey" stroke="grey" points="73.5001,-91.0295 70,-81.0296 66.5001,-91.0296 73.5001,-91.0295"/>
</g>
<!-- Hughesdale -->
<g id="node6" class="node"><title>Hughesdale</title>
<polygon fill="none" stroke="magenta" points="305.821,-139 273.411,-161.045 208.589,-161.045 176.179,-139 208.589,-116.955 273.411,-116.955 305.821,-139"/>
<text text-anchor="middle" x="241" y="-135.9" font-family="Times Roman,serif" font-size="14.00">Hughesdale</text>
</g>
<!-- Notting Hill -->
<g id="node7" class="node"><title>Notting Hill</title>
<polygon fill="none" stroke="orange" points="241,-81 158,-54 241,-27 324,-54 241,-81"/>
<text text-anchor="middle" x="241" y="-50.9" font-family="Times Roman,serif" font-size="14.00">Notting Hill</text>
</g>
<!-- Hughesdale&#45;&gt;Notting Hill -->
<g id="edge6" class="edge"><title>Hughesdale&#45;&gt;Notting Hill</title>
<path fill="none" stroke="grey" d="M241,-116.667C241,-108.819 241,-99.7757 241,-91.045"/>
<polygon fill="grey" stroke="grey" points="244.5,-91.0295 241,-81.0296 237.5,-91.0296 244.5,-91.0295"/>
</g>
</g>
</svg>
