<?xml version="1.0" encoding="UTF-8" standalone="no"?>
<!DOCTYPE svg PUBLIC "-//W3C//DTD SVG 1.1//EN"
 "http://www.w3.org/Graphics/SVG/1.1/DTD/svg11.dtd">
<!-- Generated by graphviz version 2.34.0 (20131125.0033)
 -->
<!-- Title: Perl Pages: 1 -->
<svg width="307pt" height="139pt"
 viewBox="0.00 0.00 307.00 139.00" xmlns="http://www.w3.org/2000/svg" xmlns:xlink="http://www.w3.org/1999/xlink">
<g id="graph0" class="graph" transform="scale(1 1) rotate(0) translate(4 135)">
<title>Perl</title>
<polygon fill="white" stroke="white" points="-4,4 -4,-135 303,-135 303,4 -4,4"/>
<text text-anchor="middle" x="149.5" y="-7.8" font-family="Times,serif" font-size="14.00">Macro demo 1 &#45; Non&#45;cluster sub&#45;graphs</text>
<!-- Chadstone -->
<g id="node1" class="node"><title>Chadstone</title>
<polygon fill="none" stroke="magenta" points="119.304,-113 91.6521,-131 36.3479,-131 8.6959,-113 36.3479,-95 91.6521,-95 119.304,-113"/>
<text text-anchor="middle" x="64" y="-109.3" font-family="Times,serif" font-size="14.00">Chadstone</text>
</g>
<!-- Waverley -->
<g id="node2" class="node"><title>Waverley</title>
<polygon fill="none" stroke="orange" points="64,-59 -0.0123243,-41 64,-23 128.012,-41 64,-59"/>
<text text-anchor="middle" x="64" y="-37.3" font-family="Times,serif" font-size="14.00">Waverley</text>
</g>
<!-- Chadstone&#45;&gt;Waverley -->
<g id="edge1" class="edge"><title>Chadstone&#45;&gt;Waverley</title>
<path fill="none" stroke="grey" d="M64,-94.6966C64,-86.9827 64,-77.7125 64,-69.1124"/>
<polygon fill="grey" stroke="grey" points="67.5001,-69.1043 64,-59.1043 60.5001,-69.1044 67.5001,-69.1043"/>
</g>
<!-- Hughesdale -->
<g id="node3" class="node"><title>Hughesdale</title>
<polygon fill="none" stroke="magenta" points="283.059,-113 253.029,-131 192.971,-131 162.941,-113 192.971,-95 253.029,-95 283.059,-113"/>
<text text-anchor="middle" x="223" y="-109.3" font-family="Times,serif" font-size="14.00">Hughesdale</text>
</g>
<!-- Notting Hill -->
<g id="node4" class="node"><title>Notting Hill</title>
<polygon fill="none" stroke="orange" points="223,-59 147.064,-41 223,-23 298.936,-41 223,-59"/>
<text text-anchor="middle" x="223" y="-37.3" font-family="Times,serif" font-size="14.00">Notting Hill</text>
</g>
<!-- Hughesdale&#45;&gt;Notting Hill -->
<g id="edge2" class="edge"><title>Hughesdale&#45;&gt;Notting Hill</title>
<path fill="none" stroke="grey" d="M223,-94.6966C223,-86.9827 223,-77.7125 223,-69.1124"/>
<polygon fill="grey" stroke="grey" points="226.5,-69.1043 223,-59.1043 219.5,-69.1044 226.5,-69.1043"/>
</g>
</g>
</svg>
