<?xml version="1.0" encoding="UTF-8" standalone="no"?>
<!DOCTYPE svg PUBLIC "-//W3C//DTD SVG 1.1//EN"
 "http://www.w3.org/Graphics/SVG/1.1/DTD/svg11.dtd">
<!-- Generated by graphviz version 2.26.3 (20100126.1600)
 -->
<!-- Title: Perl Pages: 1 -->
<svg width="377pt" height="320pt"
 viewBox="0.00 0.00 377.00 320.00" xmlns="http://www.w3.org/2000/svg" xmlns:xlink="http://www.w3.org/1999/xlink">
<g id="graph1" class="graph" transform="scale(1 1) rotate(0) translate(4 316)">
<title>Perl</title>
<polygon fill="white" stroke="white" points="-4,5 -4,-316 374,-316 374,5 -4,5"/>
<text text-anchor="middle" x="184.5" y="-10.4" font-family="Times Roman,serif" font-size="14.00">Macro demo 4 &#45; Linked cluster sub&#45;graphs</text>
<g id="graph2" class="cluster"><title>cluster 1</title>
<polygon fill="none" stroke="black" points="8,-125 8,-304 164,-304 164,-125 8,-125"/>
<text text-anchor="middle" x="86" y="-287.4" font-family="Times Roman,serif" font-size="14.00">cluster 1</text>
</g>
<g id="graph3" class="cluster"><title>cluster 2</title>
<polygon fill="none" stroke="black" points="179,-35 179,-217 361,-217 361,-35 179,-35"/>
<text text-anchor="middle" x="270" y="-200.4" font-family="Times Roman,serif" font-size="14.00">cluster 2</text>
</g>
<!-- Chadstone -->
<g id="node2" class="node"><title>Chadstone</title>
<polygon fill="none" stroke="magenta" points="150.921,-247 120.961,-269.045 61.0393,-269.045 31.0786,-247 61.0393,-224.955 120.961,-224.955 150.921,-247"/>
<text text-anchor="middle" x="91" y="-243.9" font-family="Times Roman,serif" font-size="14.00">Chadstone</text>
</g>
<!-- Waverley -->
<g id="node3" class="node"><title>Waverley</title>
<polygon fill="none" stroke="orange" points="86,-187 16,-160 86,-133 156,-160 86,-187"/>
<text text-anchor="middle" x="86" y="-156.9" font-family="Times Roman,serif" font-size="14.00">Waverley</text>
</g>
<!-- Chadstone&#45;&gt;Waverley -->
<g id="edge3" class="edge"><title>Chadstone&#45;&gt;Waverley</title>
<path fill="none" stroke="grey" d="M89.7124,-224.595C89.2236,-216.091 88.6534,-206.168 88.1085,-196.688"/>
<polygon fill="grey" stroke="grey" points="91.6004,-196.445 87.5323,-186.663 84.612,-196.847 91.6004,-196.445"/>
</g>
<!-- Notting Hill -->
<g id="node7" class="node"><title>Notting Hill</title>
<polygon fill="none" stroke="orange" points="270,-97 187,-70 270,-43 353,-70 270,-97"/>
<text text-anchor="middle" x="270" y="-66.9" font-family="Times Roman,serif" font-size="14.00">Notting Hill</text>
</g>
<!-- Chadstone&#45;&gt;Notting Hill -->
<g id="edge8" class="edge"><title>Chadstone&#45;&gt;Notting Hill</title>
<path fill="none" stroke="grey" d="M135.525,-235.526C146.189,-231.114 156.837,-225.109 165,-217 196.384,-185.82 176.667,-160.548 203,-125 211.495,-113.533 222.889,-103.014 233.87,-94.3151"/>
<polygon fill="grey" stroke="grey" points="236.291,-96.8713 242.131,-88.0318 232.053,-91.2997 236.291,-96.8713"/>
</g>
<!-- Hughesdale -->
<g id="node6" class="node"><title>Hughesdale</title>
<polygon fill="none" stroke="magenta" points="341.821,-160 309.411,-182.045 244.589,-182.045 212.179,-160 244.589,-137.955 309.411,-137.955 341.821,-160"/>
<text text-anchor="middle" x="277" y="-156.9" font-family="Times Roman,serif" font-size="14.00">Hughesdale</text>
</g>
<!-- Hughesdale&#45;&gt;Notting Hill -->
<g id="edge6" class="edge"><title>Hughesdale&#45;&gt;Notting Hill</title>
<path fill="none" stroke="grey" d="M275.27,-137.753C274.541,-128.383 273.673,-117.227 272.854,-106.7"/>
<polygon fill="grey" stroke="grey" points="276.324,-106.169 272.059,-96.4707 269.345,-106.712 276.324,-106.169"/>
</g>
</g>
</svg>
