<?xml version="1.0" encoding="UTF-8" standalone="no"?>
<!DOCTYPE svg PUBLIC "-//W3C//DTD SVG 1.1//EN"
 "http://www.w3.org/Graphics/SVG/1.1/DTD/svg11.dtd">
<!-- Generated by graphviz version 2.38.0 (20140413.2041)
 -->
<!-- Title: Perl Pages: 1 -->
<svg width="220pt" height="194pt"
 viewBox="0.00 0.00 220.00 194.00" xmlns="http://www.w3.org/2000/svg" xmlns:xlink="http://www.w3.org/1999/xlink">
<g id="graph0" class="graph" transform="scale(1 1) rotate(0) translate(4 190)">
<title>Perl</title>
<polygon fill="white" stroke="none" points="-4,4 -4,-190 216,-190 216,4 -4,4"/>
<text text-anchor="middle" x="106" y="-7.8" font-family="Times,serif" font-size="14.00">Macro demo 3 &#45; Cluster sub&#45;graphs</text>
<g id="clust1" class="cluster"><title>cluster 1</title>
<polygon fill="none" stroke="black" points="32,-31 32,-178 102,-178 102,-31 32,-31"/>
<text text-anchor="middle" x="67" y="-162.8" font-family="Times,serif" font-size="14.00">cluster 1</text>
</g>
<g id="clust2" class="cluster"><title>cluster 2</title>
<polygon fill="none" stroke="black" points="110,-31 110,-178 180,-178 180,-31 110,-31"/>
<text text-anchor="middle" x="145" y="-162.8" font-family="Times,serif" font-size="14.00">cluster 2</text>
</g>
<!-- Chadstone -->
<g id="node1" class="node"><title>Chadstone</title>
<polygon fill="none" stroke="magenta" points="94,-129 80.5,-147 53.5,-147 40,-129 53.5,-111 80.5,-111 94,-129"/>
</g>
<!-- Waverley -->
<g id="node2" class="node"><title>Waverley</title>
<polygon fill="none" stroke="orange" points="67,-75 40,-57 67,-39 94,-57 67,-75"/>
</g>
<!-- Chadstone&#45;&gt;Waverley -->
<g id="edge1" class="edge"><title>Chadstone&#45;&gt;Waverley</title>
<path fill="none" stroke="grey" d="M67,-110.697C67,-102.983 67,-93.7125 67,-85.1124"/>
<polygon fill="grey" stroke="grey" points="70.5001,-85.1043 67,-75.1043 63.5001,-85.1044 70.5001,-85.1043"/>
</g>
<!-- Hughesdale -->
<g id="node3" class="node"><title>Hughesdale</title>
<polygon fill="none" stroke="magenta" points="172,-129 158.5,-147 131.5,-147 118,-129 131.5,-111 158.5,-111 172,-129"/>
</g>
<!-- Notting Hill -->
<g id="node4" class="node"><title>Notting Hill</title>
<polygon fill="none" stroke="orange" points="145,-75 118,-57 145,-39 172,-57 145,-75"/>
</g>
<!-- Hughesdale&#45;&gt;Notting Hill -->
<g id="edge2" class="edge"><title>Hughesdale&#45;&gt;Notting Hill</title>
<path fill="none" stroke="grey" d="M145,-110.697C145,-102.983 145,-93.7125 145,-85.1124"/>
<polygon fill="grey" stroke="grey" points="148.5,-85.1043 145,-75.1043 141.5,-85.1044 148.5,-85.1043"/>
</g>
</g>
</svg>
