<?xml version="1.0" encoding="UTF-8" standalone="no"?>
<!DOCTYPE svg PUBLIC "-//W3C//DTD SVG 1.1//EN"
 "http://www.w3.org/Graphics/SVG/1.1/DTD/svg11.dtd">
<!-- Generated by graphviz version 2.34.0 (20131125.0033)
 -->
<!-- Title: Perl Pages: 1 -->
<svg width="352pt" height="269pt"
 viewBox="0.00 0.00 352.00 269.00" xmlns="http://www.w3.org/2000/svg" xmlns:xlink="http://www.w3.org/1999/xlink">
<g id="graph0" class="graph" transform="scale(1 1) rotate(0) translate(4 265)">
<title>Perl</title>
<polygon fill="white" stroke="white" points="-4,4 -4,-265 348,-265 348,4 -4,4"/>
<text text-anchor="middle" x="172" y="-7.8" font-family="Times,serif" font-size="14.00">Macro demo 5 &#45; Compound cluster sub&#45;graphs</text>
<g id="clust1" class="cluster"><title>cluster 1</title>
<polygon fill="none" stroke="black" points="8,-103 8,-253 152,-253 152,-103 8,-103"/>
<text text-anchor="middle" x="80" y="-237.8" font-family="Times,serif" font-size="14.00">cluster 1</text>
</g>
<g id="clust2" class="cluster"><title>cluster 2</title>
<polygon fill="none" stroke="black" points="168,-31 168,-178 336,-178 336,-31 168,-31"/>
<text text-anchor="middle" x="252" y="-162.8" font-family="Times,serif" font-size="14.00">cluster 2</text>
</g>
<!-- Chadstone -->
<g id="node1" class="node"><title>Chadstone</title>
<polygon fill="none" stroke="magenta" points="139.304,-204 111.652,-222 56.3479,-222 28.6959,-204 56.3479,-186 111.652,-186 139.304,-204"/>
<text text-anchor="middle" x="84" y="-200.3" font-family="Times,serif" font-size="14.00">Chadstone</text>
</g>
<!-- Waverley -->
<g id="node2" class="node"><title>Waverley</title>
<polygon fill="none" stroke="orange" points="80,-147 15.9877,-129 80,-111 144.012,-129 80,-147"/>
<text text-anchor="middle" x="80" y="-125.3" font-family="Times,serif" font-size="14.00">Waverley</text>
</g>
<!-- Chadstone&#45;&gt;Waverley -->
<g id="edge1" class="edge"><title>Chadstone&#45;&gt;Waverley</title>
<path fill="none" stroke="grey" d="M83.0521,-185.7C82.5854,-177.184 82.012,-166.718 81.4886,-157.167"/>
<polygon fill="grey" stroke="grey" points="84.9693,-156.717 80.9273,-146.924 77.9798,-157.101 84.9693,-156.717"/>
</g>
<!-- Notting Hill -->
<g id="node4" class="node"><title>Notting Hill</title>
<polygon fill="none" stroke="orange" points="252,-75 176.064,-57 252,-39 327.936,-57 252,-75"/>
<text text-anchor="middle" x="252" y="-53.3" font-family="Times,serif" font-size="14.00">Notting Hill</text>
</g>
<!-- Chadstone&#45;&gt;Notting Hill -->
<g id="edge3" class="edge"><title>Chadstone&#45;&gt;Notting Hill</title>
<path fill="none" stroke="grey" d="M151.845,-178.996C152.235,-178.669 152.62,-178.337 153,-178 157.426,-174.081 160.799,-170.239 163.436,-166.435"/>
<polygon fill="grey" stroke="grey" points="166.549,-168.039 168.405,-157.608 160.45,-164.605 166.549,-168.039"/>
</g>
<!-- Hughesdale -->
<g id="node3" class="node"><title>Hughesdale</title>
<polygon fill="none" stroke="magenta" points="320.059,-129 290.029,-147 229.971,-147 199.941,-129 229.971,-111 290.029,-111 320.059,-129"/>
<text text-anchor="middle" x="260" y="-125.3" font-family="Times,serif" font-size="14.00">Hughesdale</text>
</g>
<!-- Hughesdale&#45;&gt;Notting Hill -->
<g id="edge2" class="edge"><title>Hughesdale&#45;&gt;Notting Hill</title>
<path fill="none" stroke="grey" d="M258.022,-110.697C257.128,-102.868 256.05,-93.4354 255.055,-84.7278"/>
<polygon fill="grey" stroke="grey" points="258.513,-84.1602 253.9,-74.6223 251.558,-84.9551 258.513,-84.1602"/>
</g>
</g>
</svg>
