<?xml version="1.0" encoding="UTF-8" standalone="no"?>
<!DOCTYPE svg PUBLIC "-//W3C//DTD SVG 1.1//EN"
 "http://www.w3.org/Graphics/SVG/1.1/DTD/svg11.dtd">
<!-- Generated by graphviz version 2.38.0 (20140413.2041)
 -->
<!-- Title: Perl Pages: 1 -->
<svg width="510pt" height="139pt"
 viewBox="0.00 0.00 510.34 139.00" xmlns="http://www.w3.org/2000/svg" xmlns:xlink="http://www.w3.org/1999/xlink">
<g id="graph0" class="graph" transform="scale(1 1) rotate(0) translate(4 135)">
<title>Perl</title>
<polygon fill="white" stroke="none" points="-4,4 -4,-135 506.341,-135 506.341,4 -4,4"/>
<text text-anchor="middle" x="251.171" y="-7.8" font-family="Times,serif" font-size="14.00">Macro demo 1 &#45; Non&#45;cluster sub&#45;graphs</text>
<!-- Chadstone -->
<g id="node1" class="node"><title>Chadstone</title>
<polygon fill="none" stroke="magenta" points="119.913,-113 92.1272,-131 36.5548,-131 8.76865,-113 36.5548,-95 92.1272,-95 119.913,-113"/>
<text text-anchor="middle" x="64.341" y="-109.3" font-family="Times,serif" font-size="14.00">Chadstone</text>
</g>
<!-- Waverley -->
<g id="node2" class="node"><title>Waverley</title>
<polygon fill="none" stroke="orange" points="64.341,-59 0.1586,-41 64.341,-23 128.523,-41 64.341,-59"/>
<text text-anchor="middle" x="64.341" y="-37.3" font-family="Times,serif" font-size="14.00">Waverley</text>
</g>
<!-- Chadstone&#45;&gt;Waverley -->
<g id="edge1" class="edge"><title>Chadstone&#45;&gt;Waverley</title>
<path fill="none" stroke="grey" d="M64.341,-94.6966C64.341,-86.9827 64.341,-77.7125 64.341,-69.1124"/>
<polygon fill="grey" stroke="grey" points="67.8411,-69.1043 64.341,-59.1043 60.8411,-69.1044 67.8411,-69.1043"/>
</g>
<!-- Hughesdale -->
<g id="node3" class="node"><title>Hughesdale</title>
<polygon fill="none" stroke="magenta" points="260.419,-113 230.38,-131 170.302,-131 140.263,-113 170.302,-95 230.38,-95 260.419,-113"/>
<text text-anchor="middle" x="200.341" y="-109.3" font-family="Times,serif" font-size="14.00">Hughesdale</text>
</g>
<!-- Notting -->
<g id="node5" class="node"><title>Notting</title>
<polygon fill="none" stroke="magenta" points="200.341,-59 147.218,-41 200.341,-23 253.464,-41 200.341,-59"/>
<text text-anchor="middle" x="200.341" y="-37.3" font-family="Times,serif" font-size="14.00">Notting</text>
</g>
<!-- Hughesdale&#45;&gt;Notting -->
<g id="edge2" class="edge"><title>Hughesdale&#45;&gt;Notting</title>
<path fill="none" stroke="grey" d="M200.341,-94.6966C200.341,-86.9827 200.341,-77.7125 200.341,-69.1124"/>
<polygon fill="grey" stroke="grey" points="203.841,-69.1043 200.341,-59.1043 196.841,-69.1044 203.841,-69.1043"/>
</g>
<!-- Notting Hill -->
<g id="node4" class="node"><title>Notting Hill</title>
<polygon fill="none" stroke="orange" points="354.341,-131 278.26,-113 354.341,-95 430.422,-113 354.341,-131"/>
<text text-anchor="middle" x="354.341" y="-109.3" font-family="Times,serif" font-size="14.00">Notting Hill</text>
</g>
<!-- Hill -->
<g id="node6" class="node"><title>Hill</title>
<polygon fill="none" stroke="magenta" points="475.341,-131 448.341,-113 475.341,-95 502.341,-113 475.341,-131"/>
</g>
</g>
</svg>
