<?xml version="1.0" encoding="UTF-8" standalone="no"?>
<!DOCTYPE svg PUBLIC "-//W3C//DTD SVG 1.1//EN"
 "http://www.w3.org/Graphics/SVG/1.1/DTD/svg11.dtd">
<!-- Generated by graphviz version 2.38.0 (20140413.2041)
 -->
<!-- Title: Perl Pages: 1 -->
<svg width="259pt" height="269pt"
 viewBox="0.00 0.00 259.00 269.00" xmlns="http://www.w3.org/2000/svg" xmlns:xlink="http://www.w3.org/1999/xlink">
<g id="graph0" class="graph" transform="scale(1 1) rotate(0) translate(4 265)">
<title>Perl</title>
<polygon fill="white" stroke="none" points="-4,4 -4,-265 255,-265 255,4 -4,4"/>
<text text-anchor="middle" x="125.5" y="-7.8" font-family="Times,serif" font-size="14.00">Macro demo 4 &#45; Linked cluster sub&#45;graphs</text>
<g id="clust1" class="cluster"><title>cluster 1</title>
<polygon fill="none" stroke="black" points="35.5,-103 35.5,-253 105.5,-253 105.5,-103 35.5,-103"/>
<text text-anchor="middle" x="70.5" y="-237.8" font-family="Times,serif" font-size="14.00">cluster 1</text>
</g>
<g id="clust2" class="cluster"><title>cluster 2</title>
<polygon fill="none" stroke="black" points="145.5,-31 145.5,-178 215.5,-178 215.5,-31 145.5,-31"/>
<text text-anchor="middle" x="180.5" y="-162.8" font-family="Times,serif" font-size="14.00">cluster 2</text>
</g>
<!-- Chadstone -->
<g id="node1" class="node"><title>Chadstone</title>
<polygon fill="none" stroke="magenta" points="97.5,-204 84,-222 57,-222 43.5,-204 57,-186 84,-186 97.5,-204"/>
</g>
<!-- Waverley -->
<g id="node2" class="node"><title>Waverley</title>
<polygon fill="none" stroke="orange" points="70.5,-147 43.5,-129 70.5,-111 97.5,-129 70.5,-147"/>
</g>
<!-- Chadstone&#45;&gt;Waverley -->
<g id="edge1" class="edge"><title>Chadstone&#45;&gt;Waverley</title>
<path fill="none" stroke="grey" d="M70.5,-185.7C70.5,-177.245 70.5,-166.869 70.5,-157.373"/>
<polygon fill="grey" stroke="grey" points="74.0001,-157.176 70.5,-147.176 67.0001,-157.176 74.0001,-157.176"/>
</g>
<!-- Notting Hill -->
<g id="node4" class="node"><title>Notting Hill</title>
<polygon fill="none" stroke="orange" points="180.5,-75 153.5,-57 180.5,-39 207.5,-57 180.5,-75"/>
</g>
<!-- Chadstone&#45;&gt;Notting Hill -->
<g id="edge3" class="edge"><title>Chadstone&#45;&gt;Notting Hill</title>
<path fill="none" stroke="grey" d="M89.1164,-192.613C95.1799,-188.606 101.603,-183.624 106.5,-178 131.038,-149.818 124.277,-134.422 144.5,-103 150.305,-93.9796 157.563,-84.6215 164.038,-76.7909"/>
<polygon fill="grey" stroke="grey" points="166.859,-78.8749 170.651,-68.9816 161.517,-74.3513 166.859,-78.8749"/>
</g>
<!-- Hughesdale -->
<g id="node3" class="node"><title>Hughesdale</title>
<polygon fill="none" stroke="magenta" points="207.5,-129 194,-147 167,-147 153.5,-129 167,-111 194,-111 207.5,-129"/>
</g>
<!-- Hughesdale&#45;&gt;Notting Hill -->
<g id="edge2" class="edge"><title>Hughesdale&#45;&gt;Notting Hill</title>
<path fill="none" stroke="grey" d="M180.5,-110.697C180.5,-102.983 180.5,-93.7125 180.5,-85.1124"/>
<polygon fill="grey" stroke="grey" points="184,-85.1043 180.5,-75.1043 177,-85.1044 184,-85.1043"/>
</g>
</g>
</svg>
