<?xml version="1.0" encoding="UTF-8" standalone="no"?>
<!DOCTYPE svg PUBLIC "-//W3C//DTD SVG 1.1//EN"
 "http://www.w3.org/Graphics/SVG/1.1/DTD/svg11.dtd">
<!-- Generated by graphviz version 2.38.0 (20140413.2041)
 -->
<!-- Title: Perl Pages: 1 -->
<svg width="283pt" height="211pt"
 viewBox="0.00 0.00 283.00 211.00" xmlns="http://www.w3.org/2000/svg" xmlns:xlink="http://www.w3.org/1999/xlink">
<g id="graph0" class="graph" transform="scale(1 1) rotate(0) translate(4 207)">
<title>Perl</title>
<polygon fill="white" stroke="none" points="-4,4 -4,-207 279,-207 279,4 -4,4"/>
<text text-anchor="middle" x="137.5" y="-7.8" font-family="Times,serif" font-size="14.00">Macro demo 2 &#45; Linked non&#45;cluster sub&#45;graphs</text>
<!-- Chadstone -->
<g id="node1" class="node"><title>Chadstone</title>
<polygon fill="none" stroke="magenta" points="136.5,-185 123,-203 96,-203 82.5,-185 96,-167 123,-167 136.5,-185"/>
</g>
<!-- Waverley -->
<g id="node2" class="node"><title>Waverley</title>
<polygon fill="none" stroke="orange" points="82.5,-131 55.5,-113 82.5,-95 109.5,-113 82.5,-131"/>
</g>
<!-- Chadstone&#45;&gt;Waverley -->
<g id="edge1" class="edge"><title>Chadstone&#45;&gt;Waverley</title>
<path fill="none" stroke="grey" d="M102.826,-166.697C99.3952,-157.802 95.1664,-146.839 91.4561,-137.219"/>
<polygon fill="grey" stroke="grey" points="94.6966,-135.895 87.8323,-127.825 88.1656,-138.414 94.6966,-135.895"/>
</g>
<!-- Notting Hill -->
<g id="node4" class="node"><title>Notting Hill</title>
<polygon fill="none" stroke="orange" points="164.5,-59 137.5,-41 164.5,-23 191.5,-41 164.5,-59"/>
</g>
<!-- Chadstone&#45;&gt;Notting Hill -->
<g id="edge3" class="edge"><title>Chadstone&#45;&gt;Notting Hill</title>
<path fill="none" stroke="grey" d="M116.134,-166.871C125.956,-141.512 144.394,-93.9106 155.449,-65.3687"/>
<polygon fill="grey" stroke="grey" points="158.81,-66.3812 159.158,-55.7921 152.282,-63.8529 158.81,-66.3812"/>
</g>
<!-- Hughesdale -->
<g id="node3" class="node"><title>Hughesdale</title>
<polygon fill="none" stroke="magenta" points="219.5,-113 206,-131 179,-131 165.5,-113 179,-95 206,-95 219.5,-113"/>
</g>
<!-- Hughesdale&#45;&gt;Notting Hill -->
<g id="edge2" class="edge"><title>Hughesdale&#45;&gt;Notting Hill</title>
<path fill="none" stroke="grey" d="M185.579,-94.6966C182.021,-85.8023 177.636,-74.8388 173.788,-65.2194"/>
<polygon fill="grey" stroke="grey" points="176.993,-63.8094 170.03,-55.8245 170.494,-66.4092 176.993,-63.8094"/>
</g>
</g>
</svg>
