<?xml version="1.0" encoding="UTF-8" standalone="no"?>
<!DOCTYPE svg PUBLIC "-//W3C//DTD SVG 1.1//EN"
 "http://www.w3.org/Graphics/SVG/1.1/DTD/svg11.dtd">
<!-- Generated by graphviz version 2.38.0 (20140413.2041)
 -->
<!-- Title: Perl Pages: 1 -->
<svg width="281pt" height="269pt"
 viewBox="0.00 0.00 281.00 269.00" xmlns="http://www.w3.org/2000/svg" xmlns:xlink="http://www.w3.org/1999/xlink">
<g id="graph0" class="graph" transform="scale(1 1) rotate(0) translate(4 265)">
<title>Perl</title>
<polygon fill="white" stroke="none" points="-4,4 -4,-265 277,-265 277,4 -4,4"/>
<text text-anchor="middle" x="136.5" y="-7.8" font-family="Times,serif" font-size="14.00">Macro demo 5 &#45; Compound cluster sub&#45;graphs</text>
<g id="clust1" class="cluster"><title>cluster 1</title>
<polygon fill="none" stroke="black" points="46.5,-103 46.5,-253 116.5,-253 116.5,-103 46.5,-103"/>
<text text-anchor="middle" x="81.5" y="-237.8" font-family="Times,serif" font-size="14.00">cluster 1</text>
</g>
<g id="clust2" class="cluster"><title>cluster 2</title>
<polygon fill="none" stroke="black" points="156.5,-31 156.5,-178 226.5,-178 226.5,-31 156.5,-31"/>
<text text-anchor="middle" x="191.5" y="-162.8" font-family="Times,serif" font-size="14.00">cluster 2</text>
</g>
<!-- Chadstone -->
<g id="node1" class="node"><title>Chadstone</title>
<polygon fill="none" stroke="magenta" points="108.5,-204 95,-222 68,-222 54.5,-204 68,-186 95,-186 108.5,-204"/>
</g>
<!-- Waverley -->
<g id="node2" class="node"><title>Waverley</title>
<polygon fill="none" stroke="orange" points="81.5,-147 54.5,-129 81.5,-111 108.5,-129 81.5,-147"/>
</g>
<!-- Chadstone&#45;&gt;Waverley -->
<g id="edge1" class="edge"><title>Chadstone&#45;&gt;Waverley</title>
<path fill="none" stroke="grey" d="M81.5,-185.7C81.5,-177.245 81.5,-166.869 81.5,-157.373"/>
<polygon fill="grey" stroke="grey" points="85.0001,-157.176 81.5,-147.176 78.0001,-157.176 85.0001,-157.176"/>
</g>
<!-- Notting Hill -->
<g id="node4" class="node"><title>Notting Hill</title>
<polygon fill="none" stroke="orange" points="191.5,-75 164.5,-57 191.5,-39 218.5,-57 191.5,-75"/>
</g>
<!-- Chadstone&#45;&gt;Notting Hill -->
<g id="edge3" class="edge"><title>Chadstone&#45;&gt;Notting Hill</title>
<path fill="none" stroke="grey" d="M116.084,-179.565C116.568,-179.049 117.041,-178.527 117.5,-178 139.738,-152.46 136.27,-137.422 151.298,-110.177"/>
<polygon fill="grey" stroke="grey" points="154.475,-111.684 156.605,-101.305 148.468,-108.09 154.475,-111.684"/>
</g>
<!-- Hughesdale -->
<g id="node3" class="node"><title>Hughesdale</title>
<polygon fill="none" stroke="magenta" points="218.5,-129 205,-147 178,-147 164.5,-129 178,-111 205,-111 218.5,-129"/>
</g>
<!-- Hughesdale&#45;&gt;Notting Hill -->
<g id="edge2" class="edge"><title>Hughesdale&#45;&gt;Notting Hill</title>
<path fill="none" stroke="grey" d="M191.5,-110.697C191.5,-102.983 191.5,-93.7125 191.5,-85.1124"/>
<polygon fill="grey" stroke="grey" points="195,-85.1043 191.5,-75.1043 188,-85.1044 195,-85.1043"/>
</g>
</g>
</svg>
