<?xml version="1.0" encoding="UTF-8" standalone="no"?>
<!DOCTYPE svg PUBLIC "-//W3C//DTD SVG 1.1//EN"
 "http://www.w3.org/Graphics/SVG/1.1/DTD/svg11.dtd">
<!-- Generated by graphviz version 2.26.3 (20100126.1600)
 -->
<!-- Title: Perl Pages: 1 -->
<svg width="611pt" height="340pt"
 viewBox="0.00 0.00 611.00 340.00" xmlns="http://www.w3.org/2000/svg" xmlns:xlink="http://www.w3.org/1999/xlink">
<g id="graph1" class="graph" transform="scale(1 1) rotate(0) translate(4 336)">
<title>Perl</title>
<polygon fill="white" stroke="white" points="-4,5 -4,-336 608,-336 608,5 -4,5"/>
<!-- person -->
<g id="node1" class="node"><title>person</title>
<ellipse fill="none" stroke="blue" cx="251" cy="-313" rx="36.977" ry="19.0919"/>
<text text-anchor="middle" x="251" y="-309.9" font-family="Times Roman,serif" font-size="14.00">person</text>
</g>
<!-- name -->
<g id="node2" class="node"><title>name</title>
<ellipse fill="none" stroke="blue" cx="178" cy="-239" rx="33.234" ry="19.0919"/>
<text text-anchor="middle" x="178" y="-235.9" font-family="Times Roman,serif" font-size="14.00">name</text>
</g>
<!-- person&#45;&gt;name -->
<g id="edge2" class="edge"><title>person&#45;&gt;name</title>
<path fill="none" stroke="grey" d="M234.069,-295.837C224.35,-285.985 212.003,-273.469 201.371,-262.691"/>
<polygon fill="grey" stroke="grey" points="203.852,-260.222 194.337,-255.561 198.868,-265.138 203.852,-260.222"/>
</g>
<!-- address -->
<g id="node12" class="node"><title>address</title>
<ellipse fill="none" stroke="blue" cx="325" cy="-239" rx="39.8075" ry="19.0919"/>
<text text-anchor="middle" x="325" y="-235.9" font-family="Times Roman,serif" font-size="14.00">address</text>
</g>
<!-- person&#45;&gt;address -->
<g id="edge12" class="edge"><title>person&#45;&gt;address</title>
<path fill="none" stroke="grey" d="M268.163,-295.837C277.714,-286.286 289.769,-274.231 300.317,-263.683"/>
<polygon fill="grey" stroke="grey" points="303.077,-265.872 307.674,-256.326 298.128,-260.923 303.077,-265.872"/>
</g>
<!-- given_name -->
<g id="node4" class="node"><title>given_name</title>
<ellipse fill="none" stroke="blue" cx="58" cy="-165" rx="58.1882" ry="19.0919"/>
<text text-anchor="middle" x="58" y="-161.9" font-family="Times Roman,serif" font-size="14.00">given_name</text>
</g>
<!-- name&#45;&gt;given_name -->
<g id="edge4" class="edge"><title>name&#45;&gt;given_name</title>
<path fill="none" stroke="grey" d="M155.429,-225.081C138.16,-214.432 114.003,-199.535 94.0643,-187.24"/>
<polygon fill="grey" stroke="grey" points="95.8746,-184.244 85.5257,-181.974 92.2003,-190.202 95.8746,-184.244"/>
</g>
<!-- surname -->
<g id="node8" class="node"><title>surname</title>
<ellipse fill="none" stroke="blue" cx="178" cy="-165" rx="44.0472" ry="19.0919"/>
<text text-anchor="middle" x="178" y="-161.9" font-family="Times Roman,serif" font-size="14.00">surname</text>
</g>
<!-- name&#45;&gt;surname -->
<g id="edge8" class="edge"><title>name&#45;&gt;surname</title>
<path fill="none" stroke="grey" d="M178,-219.943C178,-212.149 178,-202.954 178,-194.338"/>
<polygon fill="grey" stroke="grey" points="181.5,-194.249 178,-184.249 174.5,-194.249 181.5,-194.249"/>
</g>
<!-- Ron -->
<g id="node6" class="node"><title>Ron</title>
<polygon fill="none" stroke="blue" points="85,-109 31,-109 31,-73 85,-73 85,-109"/>
<text text-anchor="middle" x="58" y="-87.9" font-family="Times Roman,serif" font-size="14.00">Ron</text>
</g>
<!-- given_name&#45;&gt;Ron -->
<g id="edge6" class="edge"><title>given_name&#45;&gt;Ron</title>
<path fill="none" stroke="grey" d="M58,-145.943C58,-137.817 58,-128.168 58,-119.241"/>
<polygon fill="grey" stroke="grey" points="61.5001,-119.227 58,-109.227 54.5001,-119.227 61.5001,-119.227"/>
</g>
<!-- Savage -->
<g id="node10" class="node"><title>Savage</title>
<polygon fill="none" stroke="blue" points="206,-109 150,-109 150,-73 206,-73 206,-109"/>
<text text-anchor="middle" x="178" y="-87.9" font-family="Times Roman,serif" font-size="14.00">Savage</text>
</g>
<!-- surname&#45;&gt;Savage -->
<g id="edge10" class="edge"><title>surname&#45;&gt;Savage</title>
<path fill="none" stroke="grey" d="M178,-145.943C178,-137.817 178,-128.168 178,-119.241"/>
<polygon fill="grey" stroke="grey" points="181.5,-119.227 178,-109.227 174.5,-119.227 181.5,-119.227"/>
</g>
<!-- country -->
<g id="node14" class="node"><title>country</title>
<ellipse fill="none" stroke="blue" cx="281" cy="-165" rx="41.0122" ry="19.0919"/>
<text text-anchor="middle" x="281" y="-161.9" font-family="Times Roman,serif" font-size="14.00">country</text>
</g>
<!-- address&#45;&gt;country -->
<g id="edge14" class="edge"><title>address&#45;&gt;country</title>
<path fill="none" stroke="grey" d="M314.124,-220.708C308.994,-212.08 302.769,-201.611 297.106,-192.088"/>
<polygon fill="grey" stroke="grey" points="300.023,-190.145 291.904,-183.338 294.006,-193.722 300.023,-190.145"/>
</g>
<!-- state -->
<g id="node18" class="node"><title>state</title>
<ellipse fill="none" stroke="blue" cx="369" cy="-165" rx="28.9914" ry="19.0919"/>
<text text-anchor="middle" x="369" y="-161.9" font-family="Times Roman,serif" font-size="14.00">state</text>
</g>
<!-- address&#45;&gt;state -->
<g id="edge18" class="edge"><title>address&#45;&gt;state</title>
<path fill="none" stroke="grey" d="M335.876,-220.708C341.083,-211.951 347.419,-201.296 353.149,-191.659"/>
<polygon fill="grey" stroke="grey" points="356.298,-193.211 358.401,-182.826 350.281,-189.633 356.298,-193.211"/>
</g>
<!-- city -->
<g id="node22" class="node"><title>city</title>
<ellipse fill="none" stroke="blue" cx="453" cy="-165" rx="27" ry="19.0919"/>
<text text-anchor="middle" x="453" y="-161.9" font-family="Times Roman,serif" font-size="14.00">city</text>
</g>
<!-- address&#45;&gt;city -->
<g id="edge22" class="edge"><title>address&#45;&gt;city</title>
<path fill="none" stroke="grey" d="M350.595,-224.203C371.534,-212.098 401.175,-194.961 423.183,-182.238"/>
<polygon fill="grey" stroke="grey" points="425.195,-185.118 432.101,-177.082 421.691,-179.057 425.195,-185.118"/>
</g>
<!-- Australia -->
<g id="node16" class="node"><title>Australia</title>
<polygon fill="none" stroke="blue" points="314,-109 248,-109 248,-73 314,-73 314,-109"/>
<text text-anchor="middle" x="281" y="-87.9" font-family="Times Roman,serif" font-size="14.00">Australia</text>
</g>
<!-- country&#45;&gt;Australia -->
<g id="edge16" class="edge"><title>country&#45;&gt;Australia</title>
<path fill="none" stroke="grey" d="M281,-145.943C281,-137.817 281,-128.168 281,-119.241"/>
<polygon fill="grey" stroke="grey" points="284.5,-119.227 281,-109.227 277.5,-119.227 284.5,-119.227"/>
</g>
<!-- Victoria -->
<g id="node20" class="node"><title>Victoria</title>
<polygon fill="none" stroke="blue" points="395,-109 335,-109 335,-73 395,-73 395,-109"/>
<text text-anchor="middle" x="365" y="-87.9" font-family="Times Roman,serif" font-size="14.00">Victoria</text>
</g>
<!-- state&#45;&gt;Victoria -->
<g id="edge20" class="edge"><title>state&#45;&gt;Victoria</title>
<path fill="none" stroke="grey" d="M367.97,-145.943C367.531,-137.817 367.009,-128.168 366.527,-119.241"/>
<polygon fill="grey" stroke="grey" points="370.02,-119.023 365.985,-109.227 363.03,-119.401 370.02,-119.023"/>
</g>
<!-- locality -->
<g id="node24" class="node"><title>locality</title>
<ellipse fill="none" stroke="blue" cx="453" cy="-91" rx="39.8075" ry="19.0919"/>
<text text-anchor="middle" x="453" y="-87.9" font-family="Times Roman,serif" font-size="14.00">locality</text>
</g>
<!-- city&#45;&gt;locality -->
<g id="edge24" class="edge"><title>city&#45;&gt;locality</title>
<path fill="none" stroke="grey" d="M453,-145.943C453,-138.149 453,-128.954 453,-120.338"/>
<polygon fill="grey" stroke="grey" points="456.5,-120.249 453,-110.249 449.5,-120.249 456.5,-120.249"/>
</g>
<!-- postcode -->
<g id="node28" class="node"><title>postcode</title>
<ellipse fill="none" stroke="blue" cx="557" cy="-91" rx="45.9619" ry="19.0919"/>
<text text-anchor="middle" x="557" y="-87.9" font-family="Times Roman,serif" font-size="14.00">postcode</text>
</g>
<!-- city&#45;&gt;postcode -->
<g id="edge28" class="edge"><title>city&#45;&gt;postcode</title>
<path fill="none" stroke="grey" d="M472.075,-151.427C486.992,-140.813 508.049,-125.83 525.463,-113.44"/>
<polygon fill="grey" stroke="grey" points="527.558,-116.245 533.677,-107.596 523.499,-110.541 527.558,-116.245"/>
</g>
<!-- Murrumbeena -->
<g id="node26" class="node"><title>Murrumbeena</title>
<polygon fill="none" stroke="blue" points="500,-36 406,-36 406,-1.77636e-14 500,-3.55271e-15 500,-36"/>
<text text-anchor="middle" x="453" y="-14.9" font-family="Times Roman,serif" font-size="14.00">Murrumbeena</text>
</g>
<!-- locality&#45;&gt;Murrumbeena -->
<g id="edge26" class="edge"><title>locality&#45;&gt;Murrumbeena</title>
<path fill="none" stroke="grey" d="M453,-71.8201C453,-64.0975 453,-55.0282 453,-46.5585"/>
<polygon fill="grey" stroke="grey" points="456.5,-46.2973 453,-36.2973 449.5,-46.2974 456.5,-46.2973"/>
</g>
<!-- 3163 -->
<g id="node30" class="node"><title>3163</title>
<polygon fill="none" stroke="blue" points="584,-36 530,-36 530,-1.77636e-14 584,-3.55271e-15 584,-36"/>
<text text-anchor="middle" x="557" y="-14.9" font-family="Times Roman,serif" font-size="14.00">3163</text>
</g>
<!-- postcode&#45;&gt;3163 -->
<g id="edge30" class="edge"><title>postcode&#45;&gt;3163</title>
<path fill="none" stroke="grey" d="M557,-71.8201C557,-64.0975 557,-55.0282 557,-46.5585"/>
<polygon fill="grey" stroke="grey" points="560.5,-46.2973 557,-36.2973 553.5,-46.2974 560.5,-46.2973"/>
</g>
</g>
</svg>
