<?xml version="1.0" encoding="UTF-8" standalone="no"?>
<!DOCTYPE svg PUBLIC "-//W3C//DTD SVG 1.1//EN"
 "http://www.w3.org/Graphics/SVG/1.1/DTD/svg11.dtd">
<!-- Generated by graphviz version 2.29.20121107.0545 (20121107.0545)
 -->
<!-- Title: Perl Pages: 1 -->
<svg width="578pt" height="332pt"
 viewBox="0.00 0.00 578.00 332.00" xmlns="http://www.w3.org/2000/svg" xmlns:xlink="http://www.w3.org/1999/xlink">
<g id="graph0" class="graph" transform="scale(1 1) rotate(0) translate(4 328)">
<title>Perl</title>
<polygon fill="white" stroke="white" points="-4,5 -4,-328 575,-328 575,5 -4,5"/>
<!-- person -->
<g id="node1" class="node"><title>person</title>
<ellipse fill="none" stroke="blue" cx="235" cy="-306" rx="34.1708" ry="18"/>
<text text-anchor="middle" x="235" y="-302.3" font-family="Times,serif" font-size="14.00">person</text>
</g>
<!-- name -->
<g id="node2" class="node"><title>name</title>
<ellipse fill="none" stroke="blue" cx="166" cy="-234" rx="30.3206" ry="18"/>
<text text-anchor="middle" x="166" y="-230.3" font-family="Times,serif" font-size="14.00">name</text>
</g>
<!-- person&#45;&gt;name -->
<g id="edge1" class="edge"><title>person&#45;&gt;name</title>
<path fill="none" stroke="grey" d="M220.028,-289.811C210.715,-280.363 198.571,-268.043 188.156,-257.477"/>
<polygon fill="grey" stroke="grey" points="190.455,-254.824 180.943,-250.159 185.47,-259.738 190.455,-254.824"/>
</g>
<!-- address -->
<g id="node7" class="node"><title>address</title>
<ellipse fill="none" stroke="blue" cx="304" cy="-234" rx="37.0701" ry="18"/>
<text text-anchor="middle" x="304" y="-230.3" font-family="Times,serif" font-size="14.00">address</text>
</g>
<!-- person&#45;&gt;address -->
<g id="edge6" class="edge"><title>person&#45;&gt;address</title>
<path fill="none" stroke="grey" d="M249.972,-289.811C259.158,-280.492 271.097,-268.38 281.415,-257.912"/>
<polygon fill="grey" stroke="grey" points="284.052,-260.223 288.579,-250.644 279.067,-255.309 284.052,-260.223"/>
</g>
<!-- given_name -->
<g id="node3" class="node"><title>given_name</title>
<ellipse fill="none" stroke="blue" cx="53" cy="-162" rx="53.4184" ry="18"/>
<text text-anchor="middle" x="53" y="-158.3" font-family="Times,serif" font-size="14.00">given_name</text>
</g>
<!-- name&#45;&gt;given_name -->
<g id="edge2" class="edge"><title>name&#45;&gt;given_name</title>
<path fill="none" stroke="grey" d="M145.798,-220.485C129.173,-210.187 105.276,-195.383 85.896,-183.378"/>
<polygon fill="grey" stroke="grey" points="87.6962,-180.376 77.352,-178.085 84.0099,-186.327 87.6962,-180.376"/>
</g>
<!-- surname -->
<g id="node5" class="node"><title>surname</title>
<ellipse fill="none" stroke="blue" cx="166" cy="-162" rx="40.4202" ry="18"/>
<text text-anchor="middle" x="166" y="-158.3" font-family="Times,serif" font-size="14.00">surname</text>
</g>
<!-- name&#45;&gt;surname -->
<g id="edge4" class="edge"><title>name&#45;&gt;surname</title>
<path fill="none" stroke="grey" d="M166,-215.697C166,-207.983 166,-198.712 166,-190.112"/>
<polygon fill="grey" stroke="grey" points="169.5,-190.104 166,-180.104 162.5,-190.104 169.5,-190.104"/>
</g>
<!-- Ron -->
<g id="node4" class="node"><title>Ron</title>
<polygon fill="none" stroke="blue" points="80,-108 26,-108 26,-72 80,-72 80,-108"/>
<text text-anchor="middle" x="53" y="-86.3" font-family="Times,serif" font-size="14.00">Ron</text>
</g>
<!-- given_name&#45;&gt;Ron -->
<g id="edge3" class="edge"><title>given_name&#45;&gt;Ron</title>
<path fill="none" stroke="grey" d="M53,-143.697C53,-135.983 53,-126.712 53,-118.112"/>
<polygon fill="grey" stroke="grey" points="56.5001,-118.104 53,-108.104 49.5001,-118.104 56.5001,-118.104"/>
</g>
<!-- Savage -->
<g id="node6" class="node"><title>Savage</title>
<polygon fill="none" stroke="blue" points="193.5,-108 138.5,-108 138.5,-72 193.5,-72 193.5,-108"/>
<text text-anchor="middle" x="166" y="-86.3" font-family="Times,serif" font-size="14.00">Savage</text>
</g>
<!-- surname&#45;&gt;Savage -->
<g id="edge5" class="edge"><title>surname&#45;&gt;Savage</title>
<path fill="none" stroke="grey" d="M166,-143.697C166,-135.983 166,-126.712 166,-118.112"/>
<polygon fill="grey" stroke="grey" points="169.5,-118.104 166,-108.104 162.5,-118.104 169.5,-118.104"/>
</g>
<!-- country -->
<g id="node8" class="node"><title>country</title>
<ellipse fill="none" stroke="blue" cx="263" cy="-162" rx="37.5442" ry="18"/>
<text text-anchor="middle" x="263" y="-158.3" font-family="Times,serif" font-size="14.00">country</text>
</g>
<!-- address&#45;&gt;country -->
<g id="edge7" class="edge"><title>address&#45;&gt;country</title>
<path fill="none" stroke="grey" d="M294.284,-216.411C289.382,-208.042 283.33,-197.71 277.859,-188.37"/>
<polygon fill="grey" stroke="grey" points="280.721,-186.33 272.647,-179.47 274.681,-189.868 280.721,-186.33"/>
</g>
<!-- state -->
<g id="node10" class="node"><title>state</title>
<ellipse fill="none" stroke="blue" cx="346" cy="-162" rx="27" ry="18"/>
<text text-anchor="middle" x="346" y="-158.3" font-family="Times,serif" font-size="14.00">state</text>
</g>
<!-- address&#45;&gt;state -->
<g id="edge9" class="edge"><title>address&#45;&gt;state</title>
<path fill="none" stroke="grey" d="M313.953,-216.411C319.101,-207.832 325.486,-197.191 331.198,-187.67"/>
<polygon fill="grey" stroke="grey" points="334.263,-189.364 336.407,-178.988 328.261,-185.762 334.263,-189.364"/>
</g>
<!-- city -->
<g id="node12" class="node"><title>city</title>
<ellipse fill="none" stroke="blue" cx="431" cy="-162" rx="27" ry="18"/>
<text text-anchor="middle" x="431" y="-158.3" font-family="Times,serif" font-size="14.00">city</text>
</g>
<!-- address&#45;&gt;city -->
<g id="edge11" class="edge"><title>address&#45;&gt;city</title>
<path fill="none" stroke="grey" d="M327.59,-219.998C348.648,-208.391 379.552,-191.357 402.09,-178.934"/>
<polygon fill="grey" stroke="grey" points="403.814,-181.981 410.882,-174.089 400.435,-175.851 403.814,-181.981"/>
</g>
<!-- Australia -->
<g id="node9" class="node"><title>Australia</title>
<polygon fill="none" stroke="blue" points="296,-108 230,-108 230,-72 296,-72 296,-108"/>
<text text-anchor="middle" x="263" y="-86.3" font-family="Times,serif" font-size="14.00">Australia</text>
</g>
<!-- country&#45;&gt;Australia -->
<g id="edge8" class="edge"><title>country&#45;&gt;Australia</title>
<path fill="none" stroke="grey" d="M263,-143.697C263,-135.983 263,-126.712 263,-118.112"/>
<polygon fill="grey" stroke="grey" points="266.5,-118.104 263,-108.104 259.5,-118.104 266.5,-118.104"/>
</g>
<!-- Victoria -->
<g id="node11" class="node"><title>Victoria</title>
<polygon fill="none" stroke="blue" points="375.25,-108 314.75,-108 314.75,-72 375.25,-72 375.25,-108"/>
<text text-anchor="middle" x="345" y="-86.3" font-family="Times,serif" font-size="14.00">Victoria</text>
</g>
<!-- state&#45;&gt;Victoria -->
<g id="edge10" class="edge"><title>state&#45;&gt;Victoria</title>
<path fill="none" stroke="grey" d="M345.753,-143.697C345.643,-135.983 345.51,-126.712 345.387,-118.112"/>
<polygon fill="grey" stroke="grey" points="348.887,-118.053 345.244,-108.104 341.888,-118.153 348.887,-118.053"/>
</g>
<!-- locality -->
<g id="node13" class="node"><title>locality</title>
<ellipse fill="none" stroke="blue" cx="431" cy="-90" rx="37.0701" ry="18"/>
<text text-anchor="middle" x="431" y="-86.3" font-family="Times,serif" font-size="14.00">locality</text>
</g>
<!-- city&#45;&gt;locality -->
<g id="edge12" class="edge"><title>city&#45;&gt;locality</title>
<path fill="none" stroke="grey" d="M431,-143.697C431,-135.983 431,-126.712 431,-118.112"/>
<polygon fill="grey" stroke="grey" points="434.5,-118.104 431,-108.104 427.5,-118.104 434.5,-118.104"/>
</g>
<!-- postcode -->
<g id="node15" class="node"><title>postcode</title>
<ellipse fill="none" stroke="blue" cx="528" cy="-90" rx="42.3701" ry="18"/>
<text text-anchor="middle" x="528" y="-86.3" font-family="Times,serif" font-size="14.00">postcode</text>
</g>
<!-- city&#45;&gt;postcode -->
<g id="edge14" class="edge"><title>city&#45;&gt;postcode</title>
<path fill="none" stroke="grey" d="M448.791,-148.161C462.857,-138.01 482.776,-123.636 499.12,-111.841"/>
<polygon fill="grey" stroke="grey" points="501.231,-114.634 507.291,-105.944 497.134,-108.958 501.231,-114.634"/>
</g>
<!-- Murrumbeena -->
<g id="node14" class="node"><title>Murrumbeena</title>
<polygon fill="none" stroke="blue" points="478.25,-36 383.75,-36 383.75,-0 478.25,-0 478.25,-36"/>
<text text-anchor="middle" x="431" y="-14.3" font-family="Times,serif" font-size="14.00">Murrumbeena</text>
</g>
<!-- locality&#45;&gt;Murrumbeena -->
<g id="edge13" class="edge"><title>locality&#45;&gt;Murrumbeena</title>
<path fill="none" stroke="grey" d="M431,-71.6966C431,-63.9827 431,-54.7125 431,-46.1124"/>
<polygon fill="grey" stroke="grey" points="434.5,-46.1043 431,-36.1043 427.5,-46.1044 434.5,-46.1043"/>
</g>
<!-- 3163 -->
<g id="node16" class="node"><title>3163</title>
<polygon fill="none" stroke="blue" points="555,-36 501,-36 501,-0 555,-0 555,-36"/>
<text text-anchor="middle" x="528" y="-14.3" font-family="Times,serif" font-size="14.00">3163</text>
</g>
<!-- postcode&#45;&gt;3163 -->
<g id="edge15" class="edge"><title>postcode&#45;&gt;3163</title>
<path fill="none" stroke="grey" d="M528,-71.6966C528,-63.9827 528,-54.7125 528,-46.1124"/>
<polygon fill="grey" stroke="grey" points="531.5,-46.1043 528,-36.1043 524.5,-46.1044 531.5,-46.1043"/>
</g>
</g>
</svg>
