<?xml version="1.0" encoding="UTF-8" standalone="no"?>
<!DOCTYPE svg PUBLIC "-//W3C//DTD SVG 1.1//EN"
 "http://www.w3.org/Graphics/SVG/1.1/DTD/svg11.dtd">
<!-- Generated by graphviz version 2.38.0 (20140413.2041)
 -->
<!-- Title: Perl Pages: 1 -->
<svg width="278pt" height="191pt"
 viewBox="0.00 0.00 278.00 191.00" xmlns="http://www.w3.org/2000/svg" xmlns:xlink="http://www.w3.org/1999/xlink">
<g id="graph0" class="graph" transform="scale(1 1) rotate(0) translate(4 187)">
<title>Perl</title>
<polygon fill="white" stroke="none" points="-4,4 -4,-187 274,-187 274,4 -4,4"/>
<!-- Adult -->
<g id="node1" class="node"><title>Adult</title>
<path fill="none" stroke="blue" d="M48,-146.5C48,-146.5 78,-146.5 78,-146.5 84,-146.5 90,-152.5 90,-158.5 90,-158.5 90,-170.5 90,-170.5 90,-176.5 84,-182.5 78,-182.5 78,-182.5 48,-182.5 48,-182.5 42,-182.5 36,-176.5 36,-170.5 36,-170.5 36,-158.5 36,-158.5 36,-152.5 42,-146.5 48,-146.5"/>
<text text-anchor="middle" x="63" y="-160.8" font-family="Times,serif" font-size="14.00"> </text>
</g>
<!-- Adult::Child1 -->
<g id="node2" class="node"><title>Adult::Child1</title>
<path fill="none" stroke="blue" d="M12,-73.5C12,-73.5 42,-73.5 42,-73.5 48,-73.5 54,-79.5 54,-85.5 54,-85.5 54,-97.5 54,-97.5 54,-103.5 48,-109.5 42,-109.5 42,-109.5 12,-109.5 12,-109.5 6,-109.5 0,-103.5 0,-97.5 0,-97.5 0,-85.5 0,-85.5 0,-79.5 6,-73.5 12,-73.5"/>
<text text-anchor="middle" x="27" y="-87.8" font-family="Times,serif" font-size="14.00"> </text>
</g>
<!-- Adult::Child1&#45;&gt;Adult -->
<g id="edge1" class="edge"><title>Adult::Child1&#45;&gt;Adult</title>
<path fill="none" stroke="grey" d="M35.7146,-109.687C39.9154,-117.972 45.0455,-128.09 49.7189,-137.307"/>
<polygon fill="grey" stroke="grey" points="46.7216,-139.135 54.3657,-146.471 52.9649,-135.969 46.7216,-139.135"/>
</g>
<!-- Adult::Child2 -->
<g id="node3" class="node"><title>Adult::Child2</title>
<path fill="none" stroke="blue" d="M84,-73.5C84,-73.5 114,-73.5 114,-73.5 120,-73.5 126,-79.5 126,-85.5 126,-85.5 126,-97.5 126,-97.5 126,-103.5 120,-109.5 114,-109.5 114,-109.5 84,-109.5 84,-109.5 78,-109.5 72,-103.5 72,-97.5 72,-97.5 72,-85.5 72,-85.5 72,-79.5 78,-73.5 84,-73.5"/>
<text text-anchor="middle" x="99" y="-87.8" font-family="Times,serif" font-size="14.00"> </text>
</g>
<!-- Adult::Child2&#45;&gt;Adult -->
<g id="edge2" class="edge"><title>Adult::Child2&#45;&gt;Adult</title>
<path fill="none" stroke="grey" d="M90.2854,-109.687C86.0846,-117.972 80.9545,-128.09 76.2811,-137.307"/>
<polygon fill="grey" stroke="grey" points="73.0351,-135.969 71.6343,-146.471 79.2784,-139.135 73.0351,-135.969"/>
</g>
<!-- Adult::Child::Grandchild -->
<g id="node4" class="node"><title>Adult::Child::Grandchild</title>
<path fill="none" stroke="blue" d="M48,-0.5C48,-0.5 78,-0.5 78,-0.5 84,-0.5 90,-6.5 90,-12.5 90,-12.5 90,-24.5 90,-24.5 90,-30.5 84,-36.5 78,-36.5 78,-36.5 48,-36.5 48,-36.5 42,-36.5 36,-30.5 36,-24.5 36,-24.5 36,-12.5 36,-12.5 36,-6.5 42,-0.5 48,-0.5"/>
<text text-anchor="middle" x="63" y="-14.8" font-family="Times,serif" font-size="14.00"> </text>
</g>
<!-- Adult::Child::Grandchild&#45;&gt;Adult::Child1 -->
<g id="edge3" class="edge"><title>Adult::Child::Grandchild&#45;&gt;Adult::Child1</title>
<path fill="none" stroke="grey" d="M54.2854,-36.6871C50.0846,-44.9721 44.9545,-55.0897 40.2811,-64.3067"/>
<polygon fill="grey" stroke="grey" points="37.0351,-62.9693 35.6343,-73.4712 43.2784,-66.135 37.0351,-62.9693"/>
</g>
<!-- Adult::Child::Grandchild&#45;&gt;Adult::Child2 -->
<g id="edge4" class="edge"><title>Adult::Child::Grandchild&#45;&gt;Adult::Child2</title>
<path fill="none" stroke="grey" d="M71.7146,-36.6871C75.9154,-44.9721 81.0455,-55.0897 85.7189,-64.3067"/>
<polygon fill="grey" stroke="grey" points="82.7216,-66.135 90.3657,-73.4712 88.9649,-62.9693 82.7216,-66.135"/>
</g>
<!-- GoldenDelicious -->
<g id="node5" class="node"><title>GoldenDelicious</title>
<path fill="none" stroke="blue" d="M156,-73.5C156,-73.5 186,-73.5 186,-73.5 192,-73.5 198,-79.5 198,-85.5 198,-85.5 198,-97.5 198,-97.5 198,-103.5 192,-109.5 186,-109.5 186,-109.5 156,-109.5 156,-109.5 150,-109.5 144,-103.5 144,-97.5 144,-97.5 144,-85.5 144,-85.5 144,-79.5 150,-73.5 156,-73.5"/>
<text text-anchor="middle" x="171" y="-87.8" font-family="Times,serif" font-size="14.00"> </text>
</g>
<!-- GrannySmith -->
<g id="node6" class="node"><title>GrannySmith</title>
<path fill="none" stroke="blue" d="M228,-73.5C228,-73.5 258,-73.5 258,-73.5 264,-73.5 270,-79.5 270,-85.5 270,-85.5 270,-97.5 270,-97.5 270,-103.5 264,-109.5 258,-109.5 258,-109.5 228,-109.5 228,-109.5 222,-109.5 216,-103.5 216,-97.5 216,-97.5 216,-85.5 216,-85.5 216,-79.5 222,-73.5 228,-73.5"/>
<text text-anchor="middle" x="243" y="-87.8" font-family="Times,serif" font-size="14.00"> </text>
</g>
<!-- HybridVariety -->
<g id="node7" class="node"><title>HybridVariety</title>
<path fill="none" stroke="blue" d="M192,-0.5C192,-0.5 222,-0.5 222,-0.5 228,-0.5 234,-6.5 234,-12.5 234,-12.5 234,-24.5 234,-24.5 234,-30.5 228,-36.5 222,-36.5 222,-36.5 192,-36.5 192,-36.5 186,-36.5 180,-30.5 180,-24.5 180,-24.5 180,-12.5 180,-12.5 180,-6.5 186,-0.5 192,-0.5"/>
<text text-anchor="middle" x="207" y="-14.8" font-family="Times,serif" font-size="14.00"> </text>
</g>
<!-- HybridVariety&#45;&gt;GoldenDelicious -->
<g id="edge5" class="edge"><title>HybridVariety&#45;&gt;GoldenDelicious</title>
<path fill="none" stroke="grey" d="M198.285,-36.6871C194.085,-44.9721 188.955,-55.0897 184.281,-64.3067"/>
<polygon fill="grey" stroke="grey" points="181.035,-62.9693 179.634,-73.4712 187.278,-66.135 181.035,-62.9693"/>
</g>
<!-- HybridVariety&#45;&gt;GrannySmith -->
<g id="edge6" class="edge"><title>HybridVariety&#45;&gt;GrannySmith</title>
<path fill="none" stroke="grey" d="M215.715,-36.6871C219.915,-44.9721 225.045,-55.0897 229.719,-64.3067"/>
<polygon fill="grey" stroke="grey" points="226.722,-66.135 234.366,-73.4712 232.965,-62.9693 226.722,-66.135"/>
</g>
</g>
</svg>
