<?xml version="1.0" encoding="UTF-8" standalone="no"?>
<!DOCTYPE svg PUBLIC "-//W3C//DTD SVG 1.1//EN"
 "http://www.w3.org/Graphics/SVG/1.1/DTD/svg11.dtd">
<!-- Generated by graphviz version 2.29.20121107.0545 (20121107.0545)
 -->
<!-- Title: Perl Pages: 1 -->
<svg width="2659pt" height="786pt"
 viewBox="0.00 0.00 2659.00 786.00" xmlns="http://www.w3.org/2000/svg" xmlns:xlink="http://www.w3.org/1999/xlink">
<g id="graph0" class="graph" transform="scale(1 1) rotate(0) translate(4 782)">
<title>Perl</title>
<polygon fill="white" stroke="white" points="-4,5 -4,-782 2656,-782 2656,5 -4,5"/>
<!-- graph_definition_1 -->
<g id="node1" class="node"><title>graph_definition_1</title>
<polygon fill="none" stroke="blue" points="0.5,-741 0.5,-777 317.5,-777 317.5,-741 0.5,-741"/>
<text text-anchor="middle" x="72" y="-755.3" font-family="Times,serif" font-size="14.00">lhs: graph_definition_1</text>
<polyline fill="none" stroke="blue" points="143.5,-741 143.5,-777 "/>
<text text-anchor="middle" x="172" y="-755.3" font-family="Times,serif" font-size="14.00">rhs list:</text>
<polyline fill="none" stroke="blue" points="200.5,-741 200.5,-777 "/>
<text text-anchor="middle" x="259" y="-755.3" font-family="Times,serif" font-size="14.00">graph_sequence_1</text>
</g>
<!-- graph_sequence_2 -->
<g id="node12" class="node"><title>graph_sequence_2</title>
<polygon fill="none" stroke="blue" points="165.5,-593 165.5,-629 478.5,-629 478.5,-593 165.5,-593"/>
<text text-anchor="middle" x="235.5" y="-607.3" font-family="Times,serif" font-size="14.00">lhs: graph_sequence_2</text>
<polyline fill="none" stroke="blue" points="305.5,-593 305.5,-629 "/>
<text text-anchor="middle" x="334" y="-607.3" font-family="Times,serif" font-size="14.00">rhs list:</text>
<polyline fill="none" stroke="blue" points="362.5,-593 362.5,-629 "/>
<text text-anchor="middle" x="420.5" y="-607.3" font-family="Times,serif" font-size="14.00">node_definition_2</text>
</g>
<!-- graph_definition_1&#45;&gt;graph_sequence_2 -->
<g id="edge1" class="edge"><title>graph_definition_1:port3&#45;&gt;graph_sequence_2:port1</title>
<path fill="none" stroke="grey" d="M259,-740C259,-719.454 236.833,-723.376 230,-704 220.235,-676.313 231.83,-665.393 234.483,-640.048"/>
<polygon fill="grey" stroke="grey" points="237.982,-640.167 235,-630 230.991,-639.807 237.982,-640.167"/>
</g>
<!-- graph_sequence_3 -->
<g id="node15" class="node"><title>graph_sequence_3</title>
<polygon fill="none" stroke="blue" points="238.5,-667 238.5,-703 783.5,-703 783.5,-667 238.5,-667"/>
<text text-anchor="middle" x="308.5" y="-681.3" font-family="Times,serif" font-size="14.00">lhs: graph_sequence_3</text>
<polyline fill="none" stroke="blue" points="378.5,-667 378.5,-703 "/>
<text text-anchor="middle" x="407" y="-681.3" font-family="Times,serif" font-size="14.00">rhs list:</text>
<polyline fill="none" stroke="blue" points="435.5,-667 435.5,-703 "/>
<text text-anchor="middle" x="494" y="-681.3" font-family="Times,serif" font-size="14.00">graph_sequence_3</text>
<polyline fill="none" stroke="blue" points="552.5,-667 552.5,-703 "/>
<text text-anchor="middle" x="610" y="-681.3" font-family="Times,serif" font-size="14.00">edge_definition_3</text>
<polyline fill="none" stroke="blue" points="667.5,-667 667.5,-703 "/>
<text text-anchor="middle" x="725.5" y="-681.3" font-family="Times,serif" font-size="14.00">node_definition_3</text>
</g>
<!-- graph_definition_1&#45;&gt;graph_sequence_3 -->
<g id="edge2" class="edge"><title>graph_definition_1:port3&#45;&gt;graph_sequence_3:port1</title>
<path fill="none" stroke="grey" d="M319,-759C327.456,-759 322.777,-746.978 318,-740 295.976,-707.826 260.024,-736.174 238,-704 236.134,-701.274 234.283,-697.779 233.224,-694.531"/>
<polygon fill="grey" stroke="grey" points="236.571,-695.586 237,-685 230.063,-693.008 236.571,-695.586"/>
</g>
<!-- end_node_10 -->
<g id="node2" class="node"><title>end_node_10</title>
<polygon fill="none" stroke="blue" points="750.5,-297 750.5,-333 1029.5,-333 1029.5,-297 750.5,-297"/>
<text text-anchor="middle" x="807" y="-311.3" font-family="Times,serif" font-size="14.00">lhs: end_node_10</text>
<polyline fill="none" stroke="blue" points="863.5,-297 863.5,-333 "/>
<text text-anchor="middle" x="892" y="-311.3" font-family="Times,serif" font-size="14.00">rhs list:</text>
<polyline fill="none" stroke="blue" points="920.5,-297 920.5,-333 "/>
<text text-anchor="middle" x="975" y="-311.3" font-family="Times,serif" font-size="14.00">right_bracket_10</text>
</g>
<!-- attr_definition_11 -->
<g id="node3" class="node"><title>attr_definition_11</title>
<polygon fill="none" stroke="blue" points="1048,-297 1048,-333 1356,-333 1356,-297 1048,-297"/>
<text text-anchor="middle" x="1116.5" y="-311.3" font-family="Times,serif" font-size="14.00">lhs: attr_definition_11</text>
<polyline fill="none" stroke="blue" points="1185,-297 1185,-333 "/>
<text text-anchor="middle" x="1213.5" y="-311.3" font-family="Times,serif" font-size="14.00">rhs list:</text>
<polyline fill="none" stroke="blue" points="1242,-297 1242,-333 "/>
<text text-anchor="middle" x="1299" y="-311.3" font-family="Times,serif" font-size="14.00">attr_statement_11</text>
</g>
<!-- attr_statement_12 -->
<g id="node4" class="node"><title>attr_statement_12</title>
<polygon fill="none" stroke="blue" points="1230.5,-223 1230.5,-259 1755.5,-259 1755.5,-223 1230.5,-223"/>
<text text-anchor="middle" x="1299" y="-237.3" font-family="Times,serif" font-size="14.00">lhs: attr_statement_12</text>
<polyline fill="none" stroke="blue" points="1367.5,-223 1367.5,-259 "/>
<text text-anchor="middle" x="1396" y="-237.3" font-family="Times,serif" font-size="14.00">rhs list:</text>
<polyline fill="none" stroke="blue" points="1424.5,-223 1424.5,-259 "/>
<text text-anchor="middle" x="1480.5" y="-237.3" font-family="Times,serif" font-size="14.00">start_attribute_12</text>
<polyline fill="none" stroke="blue" points="1536.5,-223 1536.5,-259 "/>
<text text-anchor="middle" x="1592" y="-237.3" font-family="Times,serif" font-size="14.00">attr_sequence_12</text>
<polyline fill="none" stroke="blue" points="1647.5,-223 1647.5,-259 "/>
<text text-anchor="middle" x="1701.5" y="-237.3" font-family="Times,serif" font-size="14.00">end_attribute_12</text>
</g>
<!-- attr_definition_11&#45;&gt;attr_statement_12 -->
<g id="edge3" class="edge"><title>attr_definition_11:port3&#45;&gt;attr_statement_12:port1</title>
<path fill="none" stroke="grey" d="M1357,-315C1365.46,-315 1361.27,-302.615 1356,-296 1319.72,-250.442 1266.28,-305.558 1230,-260 1227.86,-257.313 1225.9,-253.673 1224.89,-250.298"/>
<polygon fill="grey" stroke="grey" points="1228.16,-251.561 1229,-241 1221.76,-248.731 1228.16,-251.561"/>
</g>
<!-- start_attribute_13 -->
<g id="node5" class="node"><title>start_attribute_13</title>
<polygon fill="none" stroke="blue" points="1224.5,-149 1224.5,-185 1507.5,-185 1507.5,-149 1224.5,-149"/>
<text text-anchor="middle" x="1292" y="-163.3" font-family="Times,serif" font-size="14.00">lhs: start_attribute_13</text>
<polyline fill="none" stroke="blue" points="1359.5,-149 1359.5,-185 "/>
<text text-anchor="middle" x="1388" y="-163.3" font-family="Times,serif" font-size="14.00">rhs list:</text>
<polyline fill="none" stroke="blue" points="1416.5,-149 1416.5,-185 "/>
<text text-anchor="middle" x="1462" y="-163.3" font-family="Times,serif" font-size="14.00">left_brace_13</text>
</g>
<!-- attr_statement_12&#45;&gt;start_attribute_13 -->
<g id="edge4" class="edge"><title>attr_statement_12:port3&#45;&gt;start_attribute_13:port1</title>
<path fill="none" stroke="grey" d="M1480,-222C1480,-140.748 1308.51,-259.464 1293.1,-196.178"/>
<polygon fill="grey" stroke="grey" points="1296.56,-195.564 1292,-186 1289.6,-196.319 1296.56,-195.564"/>
</g>
<!-- attr_sequence_14 -->
<g id="node6" class="node"><title>attr_sequence_14</title>
<polygon fill="none" stroke="blue" points="1525.5,-149 1525.5,-185 1838.5,-185 1838.5,-149 1525.5,-149"/>
<text text-anchor="middle" x="1592.5" y="-163.3" font-family="Times,serif" font-size="14.00">lhs: attr_sequence_14</text>
<polyline fill="none" stroke="blue" points="1659.5,-149 1659.5,-185 "/>
<text text-anchor="middle" x="1688" y="-163.3" font-family="Times,serif" font-size="14.00">rhs list:</text>
<polyline fill="none" stroke="blue" points="1716.5,-149 1716.5,-185 "/>
<text text-anchor="middle" x="1777.5" y="-163.3" font-family="Times,serif" font-size="14.00">attr_declaration_14</text>
</g>
<!-- attr_statement_12&#45;&gt;attr_sequence_14 -->
<g id="edge5" class="edge"><title>attr_statement_12:port4&#45;&gt;attr_sequence_14:port1</title>
<path fill="none" stroke="grey" d="M1592,-222C1592,-188.196 1543.1,-214.548 1525,-186 1523.23,-183.21 1521.4,-179.701 1520.33,-176.46"/>
<polygon fill="grey" stroke="grey" points="1523.65,-177.589 1524,-167 1517.12,-175.058 1523.65,-177.589"/>
</g>
<!-- end_attribute_19 -->
<g id="node11" class="node"><title>end_attribute_19</title>
<polygon fill="none" stroke="blue" points="1857,-149 1857,-185 2143,-185 2143,-149 1857,-149"/>
<text text-anchor="middle" x="1922.5" y="-163.3" font-family="Times,serif" font-size="14.00">lhs: end_attribute_19</text>
<polyline fill="none" stroke="blue" points="1988,-149 1988,-185 "/>
<text text-anchor="middle" x="2016.5" y="-163.3" font-family="Times,serif" font-size="14.00">rhs list:</text>
<polyline fill="none" stroke="blue" points="2045,-149 2045,-185 "/>
<text text-anchor="middle" x="2094" y="-163.3" font-family="Times,serif" font-size="14.00">right_brace_19</text>
</g>
<!-- attr_statement_12&#45;&gt;end_attribute_19 -->
<g id="edge6" class="edge"><title>attr_statement_12:port5&#45;&gt;end_attribute_19:port1</title>
<path fill="none" stroke="grey" d="M1757,-241C1803.88,-241 1815.66,-220.86 1847,-186 1849.73,-182.96 1850.01,-178.943 1850.24,-175.386"/>
<polygon fill="grey" stroke="grey" points="1853.22,-177.224 1856,-167 1847.45,-173.259 1853.22,-177.224"/>
</g>
<!-- attr_declaration_15 -->
<g id="node7" class="node"><title>attr_declaration_15</title>
<polygon fill="none" stroke="blue" points="1705.5,-75 1705.5,-111 2276.5,-111 2276.5,-75 1705.5,-75"/>
<text text-anchor="middle" x="1778" y="-89.3" font-family="Times,serif" font-size="14.00">lhs: attr_declaration_15</text>
<polyline fill="none" stroke="blue" points="1850.5,-75 1850.5,-111 "/>
<text text-anchor="middle" x="1879" y="-89.3" font-family="Times,serif" font-size="14.00">rhs list:</text>
<polyline fill="none" stroke="blue" points="1907.5,-75 1907.5,-111 "/>
<text text-anchor="middle" x="1953.5" y="-89.3" font-family="Times,serif" font-size="14.00">attr_name_15</text>
<polyline fill="none" stroke="blue" points="1999.5,-75 1999.5,-111 "/>
<text text-anchor="middle" x="2033" y="-89.3" font-family="Times,serif" font-size="14.00">colon_15</text>
<polyline fill="none" stroke="blue" points="2066.5,-75 2066.5,-111 "/>
<text text-anchor="middle" x="2112" y="-89.3" font-family="Times,serif" font-size="14.00">attr_value_15</text>
<polyline fill="none" stroke="blue" points="2157.5,-75 2157.5,-111 "/>
<text text-anchor="middle" x="2217" y="-89.3" font-family="Times,serif" font-size="14.00">attr_terminator_15</text>
</g>
<!-- attr_sequence_14&#45;&gt;attr_declaration_15 -->
<g id="edge7" class="edge"><title>attr_sequence_14:port3&#45;&gt;attr_declaration_15:port1</title>
<path fill="none" stroke="grey" d="M1840,-167C1848.46,-167 1844.32,-154.573 1839,-148 1800.2,-100.067 1743.8,-159.933 1705,-112 1702.84,-109.33 1700.87,-105.693 1699.87,-102.317"/>
<polygon fill="grey" stroke="grey" points="1703.14,-103.56 1704,-93 1696.75,-100.722 1703.14,-103.56"/>
</g>
<!-- attr_name_16 -->
<g id="node8" class="node"><title>attr_name_16</title>
<polygon fill="none" stroke="blue" points="1756.5,-1 1756.5,-37 2037.5,-37 2037.5,-1 1756.5,-1"/>
<text text-anchor="middle" x="1814" y="-15.3" font-family="Times,serif" font-size="14.00">lhs: attr_name_16</text>
<polyline fill="none" stroke="blue" points="1871.5,-1 1871.5,-37 "/>
<text text-anchor="middle" x="1900" y="-15.3" font-family="Times,serif" font-size="14.00">rhs list:</text>
<polyline fill="none" stroke="blue" points="1928.5,-1 1928.5,-37 "/>
<text text-anchor="middle" x="1983" y="-15.3" font-family="Times,serif" font-size="14.00">attr_name_id_16</text>
</g>
<!-- attr_declaration_15&#45;&gt;attr_name_16 -->
<g id="edge8" class="edge"><title>attr_declaration_15:port3&#45;&gt;attr_name_16:port1</title>
<path fill="none" stroke="grey" d="M1953,-74C1953,-14.0478 1830.32,-91.2899 1815.47,-47.951"/>
<polygon fill="grey" stroke="grey" points="1818.92,-47.3826 1814,-38 1812,-48.4036 1818.92,-47.3826"/>
</g>
<!-- attr_value_17 -->
<g id="node9" class="node"><title>attr_value_17</title>
<polygon fill="none" stroke="blue" points="2055.5,-1 2055.5,-37 2334.5,-37 2334.5,-1 2055.5,-1"/>
<text text-anchor="middle" x="2112.5" y="-15.3" font-family="Times,serif" font-size="14.00">lhs: attr_value_17</text>
<polyline fill="none" stroke="blue" points="2169.5,-1 2169.5,-37 "/>
<text text-anchor="middle" x="2198" y="-15.3" font-family="Times,serif" font-size="14.00">rhs list:</text>
<polyline fill="none" stroke="blue" points="2226.5,-1 2226.5,-37 "/>
<text text-anchor="middle" x="2280.5" y="-15.3" font-family="Times,serif" font-size="14.00">attr_value_id_17</text>
</g>
<!-- attr_declaration_15&#45;&gt;attr_value_17 -->
<g id="edge9" class="edge"><title>attr_declaration_15:port5&#45;&gt;attr_value_17:port1</title>
<path fill="none" stroke="grey" d="M2112,-74C2112,-44.0371 2070.15,-63.8518 2055,-38 2053.33,-35.15 2051.52,-31.6275 2050.44,-28.3926"/>
<polygon fill="grey" stroke="grey" points="2053.73,-29.5914 2054,-19 2047.18,-27.1118 2053.73,-29.5914"/>
</g>
<!-- attr_terminator_18 -->
<g id="node10" class="node"><title>attr_terminator_18</title>
<polygon fill="none" stroke="blue" points="2352.5,-1 2352.5,-37 2651.5,-37 2651.5,-1 2352.5,-1"/>
<text text-anchor="middle" x="2423.5" y="-15.3" font-family="Times,serif" font-size="14.00">lhs: attr_terminator_18</text>
<polyline fill="none" stroke="blue" points="2494.5,-1 2494.5,-37 "/>
<text text-anchor="middle" x="2523" y="-15.3" font-family="Times,serif" font-size="14.00">rhs list:</text>
<polyline fill="none" stroke="blue" points="2551.5,-1 2551.5,-37 "/>
<text text-anchor="middle" x="2601.5" y="-15.3" font-family="Times,serif" font-size="14.00">semi_colon_18</text>
</g>
<!-- attr_declaration_15&#45;&gt;attr_terminator_18 -->
<g id="edge10" class="edge"><title>attr_declaration_15:port6&#45;&gt;attr_terminator_18:port1</title>
<path fill="none" stroke="grey" d="M2278,-93C2315.84,-93 2320.6,-68.4993 2343,-38 2345.29,-34.8847 2345.44,-31.0163 2345.54,-27.5848"/>
<polygon fill="grey" stroke="grey" points="2348.58,-29.3156 2351,-19 2342.68,-25.5571 2348.58,-29.3156"/>
</g>
<!-- node_definition_4 -->
<g id="node16" class="node"><title>node_definition_4</title>
<polygon fill="none" stroke="blue" points="351.5,-519 351.5,-555 660.5,-555 660.5,-519 351.5,-519"/>
<text text-anchor="middle" x="421" y="-533.3" font-family="Times,serif" font-size="14.00">lhs: node_definition_4</text>
<polyline fill="none" stroke="blue" points="490.5,-519 490.5,-555 "/>
<text text-anchor="middle" x="519" y="-533.3" font-family="Times,serif" font-size="14.00">rhs list:</text>
<polyline fill="none" stroke="blue" points="547.5,-519 547.5,-555 "/>
<text text-anchor="middle" x="604" y="-533.3" font-family="Times,serif" font-size="14.00">node_sequence_4</text>
</g>
<!-- graph_sequence_2&#45;&gt;node_definition_4 -->
<g id="edge11" class="edge"><title>graph_sequence_2:port3&#45;&gt;node_definition_4:port1</title>
<path fill="none" stroke="grey" d="M480,-611C488.456,-611 484.282,-598.604 479,-592 442.089,-545.849 387.911,-602.151 351,-556 348.854,-553.317 346.891,-549.678 345.884,-546.303"/>
<polygon fill="grey" stroke="grey" points="349.154,-547.561 350,-537 342.753,-544.729 349.154,-547.561"/>
</g>
<!-- edge_definition_20 -->
<g id="node13" class="node"><title>edge_definition_20</title>
<polygon fill="none" stroke="blue" points="574.5,-593 574.5,-629 989.5,-629 989.5,-593 574.5,-593"/>
<text text-anchor="middle" x="647" y="-607.3" font-family="Times,serif" font-size="14.00">lhs: edge_definition_20</text>
<polyline fill="none" stroke="blue" points="719.5,-593 719.5,-629 "/>
<text text-anchor="middle" x="748" y="-607.3" font-family="Times,serif" font-size="14.00">rhs list:</text>
<polyline fill="none" stroke="blue" points="776.5,-593 776.5,-629 "/>
<text text-anchor="middle" x="826" y="-607.3" font-family="Times,serif" font-size="14.00">edge_name_20</text>
<polyline fill="none" stroke="blue" points="875.5,-593 875.5,-629 "/>
<text text-anchor="middle" x="932.5" y="-607.3" font-family="Times,serif" font-size="14.00">attr_definition_20</text>
</g>
<!-- edge_name_21 -->
<g id="node14" class="node"><title>edge_name_21</title>
<polygon fill="none" stroke="blue" points="765.5,-519 765.5,-555 1024.5,-555 1024.5,-519 765.5,-519"/>
<text text-anchor="middle" x="826.5" y="-533.3" font-family="Times,serif" font-size="14.00">lhs: edge_name_21</text>
<polyline fill="none" stroke="blue" points="887.5,-519 887.5,-555 "/>
<text text-anchor="middle" x="916" y="-533.3" font-family="Times,serif" font-size="14.00">rhs list:</text>
<polyline fill="none" stroke="blue" points="944.5,-519 944.5,-555 "/>
<text text-anchor="middle" x="984.5" y="-533.3" font-family="Times,serif" font-size="14.00">edge_id_21</text>
</g>
<!-- edge_definition_20&#45;&gt;edge_name_21 -->
<g id="edge12" class="edge"><title>edge_definition_20:port3&#45;&gt;edge_name_21:port1</title>
<path fill="none" stroke="grey" d="M826,-592C826,-580 826,-574.75 826,-566.125"/>
<polygon fill="grey" stroke="grey" points="829.5,-566 826,-556 822.5,-566 829.5,-566"/>
</g>
<!-- edge_definition_20&#45;&gt;attr_definition_11 -->
<g id="edge13" class="edge"><title>edge_definition_20:port4&#45;&gt;attr_definition_11:port1</title>
<path fill="none" stroke="grey" d="M991,-611C1074.11,-611 1114.68,-549.113 1115.97,-344.184"/>
<polygon fill="grey" stroke="grey" points="1119.47,-344.011 1116,-334 1112.47,-343.989 1119.47,-344.011"/>
</g>
<!-- graph_sequence_3&#45;&gt;graph_sequence_2 -->
<g id="edge14" class="edge"><title>graph_sequence_3:port3&#45;&gt;graph_sequence_2:port1</title>
<path fill="none" stroke="grey" d="M494,-666C494,-553.414 250.935,-734.246 235.743,-639.999"/>
<polygon fill="grey" stroke="grey" points="239.232,-639.713 235,-630 232.251,-640.232 239.232,-639.713"/>
</g>
<!-- graph_sequence_3&#45;&gt;graph_sequence_3 -->
<g id="edge15" class="edge"><title>graph_sequence_3:port1&#45;&gt;graph_sequence_3:port1</title>
<path fill="none" stroke="grey" d="M238.382,-698.821C223.887,-699.435 220.5,-694.828 220.5,-685 220.5,-678.09 222.174,-673.76 228.207,-672.013"/>
<polygon fill="grey" stroke="grey" points="228.701,-675.484 238.382,-671.179 228.129,-668.507 228.701,-675.484"/>
</g>
<!-- graph_sequence_3&#45;&gt;edge_definition_20 -->
<g id="edge16" class="edge"><title>graph_sequence_3:port4&#45;&gt;edge_definition_20:port1</title>
<path fill="none" stroke="grey" d="M610,-666C610,-643.373 583.206,-650.67 574,-630 572.71,-627.103 571.058,-623.707 569.942,-620.594"/>
<polygon fill="grey" stroke="grey" points="573.298,-621.591 573,-611 566.628,-619.465 573.298,-621.591"/>
</g>
<!-- graph_sequence_3&#45;&gt;node_definition_4 -->
<g id="edge17" class="edge"><title>graph_sequence_3:port5&#45;&gt;node_definition_4:port1</title>
<path fill="none" stroke="grey" d="M726,-666C726,-629.556 600.277,-642.38 566,-630 562.378,-628.692 459.777,-579.229 429.397,-561.781"/>
<polygon fill="grey" stroke="grey" points="431.221,-558.788 421,-556 427.252,-564.554 431.221,-558.788"/>
</g>
<!-- node_sequence_5 -->
<g id="node17" class="node"><title>node_sequence_5</title>
<polygon fill="none" stroke="blue" points="208.5,-445 208.5,-481 517.5,-481 517.5,-445 208.5,-445"/>
<text text-anchor="middle" x="276.5" y="-459.3" font-family="Times,serif" font-size="14.00">lhs: node_sequence_5</text>
<polyline fill="none" stroke="blue" points="344.5,-445 344.5,-481 "/>
<text text-anchor="middle" x="373" y="-459.3" font-family="Times,serif" font-size="14.00">rhs list:</text>
<polyline fill="none" stroke="blue" points="401.5,-445 401.5,-481 "/>
<text text-anchor="middle" x="459.5" y="-459.3" font-family="Times,serif" font-size="14.00">node_statement_5</text>
</g>
<!-- node_definition_4&#45;&gt;node_sequence_5 -->
<g id="edge18" class="edge"><title>node_definition_4:port3&#45;&gt;node_sequence_5:port1</title>
<path fill="none" stroke="grey" d="M604,-518C604,-448.397 308.467,-544.563 278.452,-491.796"/>
<polygon fill="grey" stroke="grey" points="281.823,-490.851 276,-482 275.033,-492.551 281.823,-490.851"/>
</g>
<!-- node_sequence_7 -->
<g id="node19" class="node"><title>node_sequence_7</title>
<polygon fill="none" stroke="blue" points="536,-445 536,-481 940,-481 940,-445 536,-445"/>
<text text-anchor="middle" x="604" y="-459.3" font-family="Times,serif" font-size="14.00">lhs: node_sequence_7</text>
<polyline fill="none" stroke="blue" points="672,-445 672,-481 "/>
<text text-anchor="middle" x="700.5" y="-459.3" font-family="Times,serif" font-size="14.00">rhs list:</text>
<polyline fill="none" stroke="blue" points="729,-445 729,-481 "/>
<text text-anchor="middle" x="787" y="-459.3" font-family="Times,serif" font-size="14.00">node_statement_7</text>
<polyline fill="none" stroke="blue" points="845,-445 845,-481 "/>
<text text-anchor="middle" x="892.5" y="-459.3" font-family="Times,serif" font-size="14.00">daisy_chain_7</text>
</g>
<!-- node_definition_4&#45;&gt;node_sequence_7 -->
<g id="edge19" class="edge"><title>node_definition_4:port3&#45;&gt;node_sequence_7:port1</title>
<path fill="none" stroke="grey" d="M662,-537C670.456,-537 666.261,-524.62 661,-518 625.031,-472.738 571.969,-527.262 536,-482 533.863,-479.311 531.901,-475.67 530.893,-472.296"/>
<polygon fill="grey" stroke="grey" points="534.16,-473.561 535,-463 527.757,-470.732 534.16,-473.561"/>
</g>
<!-- node_statement_6 -->
<g id="node18" class="node"><title>node_statement_6</title>
<polygon fill="none" stroke="blue" points="390.5,-371 390.5,-407 955.5,-407 955.5,-371 390.5,-371"/>
<text text-anchor="middle" x="460" y="-385.3" font-family="Times,serif" font-size="14.00">lhs: node_statement_6</text>
<polyline fill="none" stroke="blue" points="529.5,-371 529.5,-407 "/>
<text text-anchor="middle" x="558" y="-385.3" font-family="Times,serif" font-size="14.00">rhs list:</text>
<polyline fill="none" stroke="blue" points="586.5,-371 586.5,-407 "/>
<text text-anchor="middle" x="629.5" y="-385.3" font-family="Times,serif" font-size="14.00">start_node_6</text>
<polyline fill="none" stroke="blue" points="672.5,-371 672.5,-407 "/>
<text text-anchor="middle" x="719" y="-385.3" font-family="Times,serif" font-size="14.00">node_name_6</text>
<polyline fill="none" stroke="blue" points="765.5,-371 765.5,-407 "/>
<text text-anchor="middle" x="807" y="-385.3" font-family="Times,serif" font-size="14.00">end_node_6</text>
<polyline fill="none" stroke="blue" points="848.5,-371 848.5,-407 "/>
<text text-anchor="middle" x="902" y="-385.3" font-family="Times,serif" font-size="14.00">attr_definition_6</text>
</g>
<!-- node_sequence_5&#45;&gt;node_statement_6 -->
<g id="edge20" class="edge"><title>node_sequence_5:port3&#45;&gt;node_statement_6:port1</title>
<path fill="none" stroke="grey" d="M519,-463C527.456,-463 523.282,-450.604 518,-444 481.089,-397.849 426.911,-454.151 390,-408 387.854,-405.317 385.891,-401.678 384.884,-398.303"/>
<polygon fill="grey" stroke="grey" points="388.154,-399.561 389,-389 381.753,-396.729 388.154,-399.561"/>
</g>
<!-- start_node_8 -->
<g id="node20" class="node"><title>start_node_8</title>
<polygon fill="none" stroke="blue" points="169,-297 169,-333 431,-333 431,-297 169,-297"/>
<text text-anchor="middle" x="224" y="-311.3" font-family="Times,serif" font-size="14.00">lhs: start_node_8</text>
<polyline fill="none" stroke="blue" points="279,-297 279,-333 "/>
<text text-anchor="middle" x="307.5" y="-311.3" font-family="Times,serif" font-size="14.00">rhs list:</text>
<polyline fill="none" stroke="blue" points="336,-297 336,-333 "/>
<text text-anchor="middle" x="383.5" y="-311.3" font-family="Times,serif" font-size="14.00">left_bracket_8</text>
</g>
<!-- node_statement_6&#45;&gt;start_node_8 -->
<g id="edge21" class="edge"><title>node_statement_6:port3&#45;&gt;start_node_8:port1</title>
<path fill="none" stroke="grey" d="M629,-370C629,-283.351 256.541,-412.88 225.988,-343.964"/>
<polygon fill="grey" stroke="grey" points="229.389,-343.122 224,-334 222.524,-344.492 229.389,-343.122"/>
</g>
<!-- node_name_9 -->
<g id="node21" class="node"><title>node_name_9</title>
<polygon fill="none" stroke="blue" points="449.5,-297 449.5,-333 732.5,-333 732.5,-297 449.5,-297"/>
<text text-anchor="middle" x="507.5" y="-311.3" font-family="Times,serif" font-size="14.00">lhs: node_name_9</text>
<polyline fill="none" stroke="blue" points="565.5,-297 565.5,-333 "/>
<text text-anchor="middle" x="594" y="-311.3" font-family="Times,serif" font-size="14.00">rhs list:</text>
<polyline fill="none" stroke="blue" points="622.5,-297 622.5,-333 "/>
<text text-anchor="middle" x="677.5" y="-311.3" font-family="Times,serif" font-size="14.00">node_name_id_9</text>
</g>
<!-- node_statement_6&#45;&gt;node_name_9 -->
<g id="edge22" class="edge"><title>node_statement_6:port4&#45;&gt;node_name_9:port1</title>
<path fill="none" stroke="grey" d="M719,-370C719,-278.162 523.239,-417.833 507.945,-344.082"/>
<polygon fill="grey" stroke="grey" points="511.418,-343.63 507,-334 504.449,-344.283 511.418,-343.63"/>
</g>
<!-- node_statement_6&#45;&gt;end_node_10 -->
<g id="edge23" class="edge"><title>node_statement_6:port5&#45;&gt;end_node_10:port1</title>
<path fill="none" stroke="grey" d="M807,-370C807,-340.037 765.148,-359.852 750,-334 748.33,-331.15 746.522,-327.627 745.442,-324.393"/>
<polygon fill="grey" stroke="grey" points="748.731,-325.591 749,-315 742.185,-323.112 748.731,-325.591"/>
</g>
<!-- node_statement_6&#45;&gt;attr_definition_11 -->
<g id="edge24" class="edge"><title>node_statement_6:port6&#45;&gt;attr_definition_11:port1</title>
<path fill="none" stroke="grey" d="M957,-389C1000.51,-389 1009.69,-367.047 1038,-334 1040.66,-330.895 1040.93,-326.871 1041.17,-323.325"/>
<polygon fill="grey" stroke="grey" points="1044.13,-325.198 1047,-315 1038.4,-321.181 1044.13,-325.198"/>
</g>
<!-- node_sequence_7&#45;&gt;node_statement_6 -->
<g id="edge25" class="edge"><title>node_sequence_7:port3&#45;&gt;node_statement_6:port1</title>
<path fill="none" stroke="grey" d="M787,-444C787,-374.607 492.368,-470.385 462.444,-417.767"/>
<polygon fill="grey" stroke="grey" points="465.823,-416.851 460,-408 459.032,-418.551 465.823,-416.851"/>
</g>
</g>
</svg>
