<?xml version="1.0" encoding="UTF-8" standalone="no"?>
<!DOCTYPE svg PUBLIC "-//W3C//DTD SVG 1.1//EN"
 "http://www.w3.org/Graphics/SVG/1.1/DTD/svg11.dtd">
<!-- Generated by graphviz version 2.29.20121107.0545 (20121107.0545)
 -->
<!-- Title: Perl Pages: 1 -->
<svg width="114pt" height="530pt"
 viewBox="0.00 0.00 114.00 530.00" xmlns="http://www.w3.org/2000/svg" xmlns:xlink="http://www.w3.org/1999/xlink">
<g id="graph0" class="graph" transform="scale(1 1) rotate(0) translate(4 526)">
<title>Perl</title>
<polygon fill="white" stroke="white" points="-4,5 -4,-526 111,-526 111,5 -4,5"/>
<!-- exp -->
<g id="node1" class="node"><title>exp</title>
<polygon fill="none" stroke="blue" points="-0.5,-0.5 -0.5,-181.5 88.5,-181.5 88.5,-0.5 -0.5,-0.5"/>
<text text-anchor="middle" x="44" y="-166.3" font-family="Times,serif" font-size="14.00">exp</text>
<polyline fill="none" stroke="blue" points="-0.5,-158.5 88.5,-158.5 "/>
<text text-anchor="middle" x="44" y="-143.3" font-family="Times,serif" font-size="14.00">NUM </text>
<text text-anchor="middle" x="44" y="-128.3" font-family="Times,serif" font-size="14.00">VAR </text>
<text text-anchor="middle" x="44" y="-113.3" font-family="Times,serif" font-size="14.00">VAR &#39;=&#39; exp </text>
<text text-anchor="middle" x="44" y="-98.3" font-family="Times,serif" font-size="14.00">exp &#39;+&#39; exp </text>
<text text-anchor="middle" x="44" y="-83.3" font-family="Times,serif" font-size="14.00">exp &#39;&#45;&#39; exp </text>
<text text-anchor="middle" x="44" y="-68.3" font-family="Times,serif" font-size="14.00">exp &#39;*&#39; exp </text>
<text text-anchor="middle" x="44" y="-53.3" font-family="Times,serif" font-size="14.00">exp &#39;/&#39; exp </text>
<text text-anchor="middle" x="44" y="-38.3" font-family="Times,serif" font-size="14.00">&#39;&#45;&#39; exp </text>
<text text-anchor="middle" x="44" y="-23.3" font-family="Times,serif" font-size="14.00">exp &#39;^&#39; exp </text>
<text text-anchor="middle" x="44" y="-8.3" font-family="Times,serif" font-size="14.00">&#39;(&#39; exp &#39;)&#39; </text>
</g>
<!-- exp&#45;&gt;exp -->
<g id="edge1" class="edge"><title>exp&#45;&gt;exp</title>
<path fill="none" stroke="grey" d="M88.5859,-125.389C98.6436,-122.291 106,-110.828 106,-91 106,-77.3682 102.523,-67.6901 97.0815,-61.9658"/>
<polygon fill="grey" stroke="grey" points="98.9119,-58.9823 88.5859,-56.6106 95.1791,-64.904 98.9119,-58.9823"/>
</g>
<!-- $start -->
<g id="node2" class="node"><title>$start</title>
<polygon fill="none" stroke="blue" points="5,-475 5,-521 83,-521 83,-475 5,-475"/>
<text text-anchor="middle" x="44" y="-505.8" font-family="Times,serif" font-size="14.00">$start</text>
<polyline fill="none" stroke="blue" points="5,-498 83,-498 "/>
<text text-anchor="middle" x="44" y="-482.8" font-family="Times,serif" font-size="14.00">input $end </text>
</g>
<!-- input -->
<g id="node3" class="node"><title>input</title>
<polygon fill="none" stroke="blue" points="8,-376.5 8,-437.5 80,-437.5 80,-376.5 8,-376.5"/>
<text text-anchor="middle" x="44" y="-422.3" font-family="Times,serif" font-size="14.00">input</text>
<polyline fill="none" stroke="blue" points="8,-414.5 80,-414.5 "/>
<text text-anchor="middle" x="44" y="-399.3" font-family="Times,serif" font-size="14.00">(empty) </text>
<text text-anchor="middle" x="44" y="-384.3" font-family="Times,serif" font-size="14.00">input line </text>
</g>
<!-- $start&#45;&gt;input -->
<g id="edge2" class="edge"><title>$start&#45;&gt;input</title>
<path fill="none" stroke="grey" d="M44,-475C44,-466.847 44,-457.326 44,-448.064"/>
<polygon fill="grey" stroke="grey" points="47.5001,-447.804 44,-437.804 40.5001,-447.804 47.5001,-447.804"/>
</g>
<!-- input&#45;&gt;input -->
<g id="edge3" class="edge"><title>input&#45;&gt;input</title>
<path fill="none" stroke="grey" d="M80.0873,-423.792C90.2211,-423.056 98,-417.459 98,-407 98,-400.3 94.8075,-395.595 89.8487,-392.885"/>
<polygon fill="grey" stroke="grey" points="90.6569,-389.477 80.0873,-390.208 88.8058,-396.228 90.6569,-389.477"/>
</g>
<!-- line -->
<g id="node4" class="node"><title>line</title>
<polygon fill="none" stroke="blue" points="17,-218.5 17,-339.5 71,-339.5 71,-218.5 17,-218.5"/>
<text text-anchor="middle" x="44" y="-324.3" font-family="Times,serif" font-size="14.00">line</text>
<polyline fill="none" stroke="blue" points="17,-316.5 71,-316.5 "/>
<text text-anchor="middle" x="44" y="-301.3" font-family="Times,serif" font-size="14.00">&#39;</text>
<text text-anchor="middle" x="44" y="-286.3" font-family="Times,serif" font-size="14.00">&#39; </text>
<text text-anchor="middle" x="44" y="-271.3" font-family="Times,serif" font-size="14.00">exp &#39;</text>
<text text-anchor="middle" x="44" y="-256.3" font-family="Times,serif" font-size="14.00">&#39; </text>
<text text-anchor="middle" x="44" y="-241.3" font-family="Times,serif" font-size="14.00">error &#39;</text>
<text text-anchor="middle" x="44" y="-226.3" font-family="Times,serif" font-size="14.00">&#39; </text>
</g>
<!-- input&#45;&gt;line -->
<g id="edge4" class="edge"><title>input&#45;&gt;line</title>
<path fill="none" stroke="grey" d="M44,-376.459C44,-368.339 44,-359.175 44,-349.808"/>
<polygon fill="grey" stroke="grey" points="47.5001,-349.604 44,-339.604 40.5001,-349.604 47.5001,-349.604"/>
</g>
<!-- line&#45;&gt;exp -->
<g id="edge5" class="edge"><title>line&#45;&gt;exp</title>
<path fill="none" stroke="grey" d="M44,-218.381C44,-209.889 44,-200.968 44,-191.96"/>
<polygon fill="grey" stroke="grey" points="47.5001,-191.77 44,-181.77 40.5001,-191.77 47.5001,-191.77"/>
</g>
</g>
</svg>
