<?xml version="1.0" encoding="UTF-8" standalone="no"?>
<!DOCTYPE svg PUBLIC "-//W3C//DTD SVG 1.1//EN"
 "http://www.w3.org/Graphics/SVG/1.1/DTD/svg11.dtd">
<!-- Generated by graphviz version 2.38.0 (20140413.2041)
 -->
<!-- Title: Perl Pages: 1 -->
<svg width="3953pt" height="332pt"
 viewBox="0.00 0.00 3953.20 332.00" xmlns="http://www.w3.org/2000/svg" xmlns:xlink="http://www.w3.org/1999/xlink">
<g id="graph0" class="graph" transform="scale(1 1) rotate(0) translate(4 328)">
<title>Perl</title>
<polygon fill="white" stroke="none" points="-4,4 -4,-328 3949.2,-328 3949.2,4 -4,4"/>
<!-- Grammar -->
<g id="node1" class="node"><title>Grammar</title>
<ellipse fill="none" stroke="blue" cx="1533.55" cy="-306" rx="46.5926" ry="18"/>
<text text-anchor="middle" x="1533.55" y="-302.3" font-family="Times,serif" font-size="14.00">Grammar</text>
</g>
<!-- test3 -->
<g id="node2" class="node"><title>test3</title>
<ellipse fill="none" stroke="blue" cx="749.555" cy="-234" rx="207.963" ry="18"/>
<text text-anchor="middle" x="749.555" y="-230.3" font-family="Times,serif" font-size="14.00">_alternation_1_of_production_1_of_rule_test3(5..10) &#160;</text>
</g>
<!-- Grammar&#45;&gt;test3 -->
<g id="edge2" class="edge"><title>Grammar&#45;&gt;test3</title>
<path fill="none" stroke="grey" d="M1488.59,-300.985C1376.42,-290.97 1080.27,-264.528 898.733,-248.319"/>
<polygon fill="grey" stroke="grey" points="898.833,-244.815 888.562,-247.411 898.211,-251.787 898.833,-244.815"/>
</g>
<!-- _alternation_1_of_production_1_of_rule_test3 -->
<g id="node3" class="node"><title>_alternation_1_of_production_1_of_rule_test3</title>
<ellipse fill="none" stroke="blue" cx="900.555" cy="-162" rx="76.8869" ry="18"/>
<text text-anchor="middle" x="900.555" y="-158.3" font-family="Times,serif" font-size="14.00">defn &#160;typedef &#160;fail &#160;</text>
</g>
<!-- Grammar&#45;&gt;_alternation_1_of_production_1_of_rule_test3 -->
<g id="edge10" class="edge"><title>Grammar&#45;&gt;_alternation_1_of_production_1_of_rule_test3</title>
<path fill="none" stroke="grey" d="M1486.89,-303.774C1375.15,-300.283 1095.18,-288.092 1009.55,-252 986.587,-242.319 985.828,-231.804 966.555,-216 954.393,-206.028 940.865,-195.13 929.238,-185.824"/>
<polygon fill="grey" stroke="grey" points="931.152,-182.874 921.155,-179.365 926.782,-188.342 931.152,-182.874"/>
</g>
<!-- name -->
<g id="node4" class="node"><title>name</title>
<ellipse fill="none" stroke="blue" cx="1189.55" cy="-162" rx="33.2948" ry="18"/>
<text text-anchor="middle" x="1189.55" y="-158.3" font-family="Times,serif" font-size="14.00">&#39;fred&#39; &#160;</text>
</g>
<!-- Grammar&#45;&gt;name -->
<g id="edge3" class="edge"><title>Grammar&#45;&gt;name</title>
<path fill="none" stroke="grey" d="M1486.74,-305.691C1395.44,-305.93 1198.83,-300.636 1156.55,-252 1140.36,-233.365 1154.42,-206.057 1168.88,-186.612"/>
<polygon fill="grey" stroke="grey" points="1171.79,-188.572 1175.22,-178.549 1166.29,-184.243 1171.79,-188.572"/>
</g>
<!-- typedef -->
<g id="node5" class="node"><title>typedef</title>
<ellipse fill="none" stroke="blue" cx="900.555" cy="-90" rx="98.5829" ry="18"/>
<text text-anchor="middle" x="900.555" y="-86.3" font-family="Times,serif" font-size="14.00">&#39;type&#39; id &#39;is&#39; typename &#39;;&#39; &#160;</text>
</g>
<!-- Grammar&#45;&gt;typedef -->
<g id="edge6" class="edge"><title>Grammar&#45;&gt;typedef</title>
<path fill="none" stroke="grey" d="M1486.83,-304.804C1381.23,-303.578 1127.8,-295.997 1056.55,-252 1007.89,-221.947 1027.46,-183.984 986.555,-144 973.884,-131.614 957.819,-120.75 943.014,-112.135"/>
<polygon fill="grey" stroke="grey" points="944.432,-108.917 933.999,-107.068 941.002,-115.019 944.432,-108.917"/>
</g>
<!-- id -->
<g id="node6" class="node"><title>id</title>
<ellipse fill="none" stroke="blue" cx="509.555" cy="-18" rx="509.61" ry="18"/>
<text text-anchor="middle" x="509.555" y="-14.3" font-family="Times,serif" font-size="14.00">/[a&#45;z]		# LEADING ALPHABETIC\n		 &#160;\w*		# FOLLOWED BY ALPHAS, DIGITS, OR UNDERSCORES\n		 /ix &#160;</text>
</g>
<!-- Grammar&#45;&gt;id -->
<g id="edge25" class="edge"><title>Grammar&#45;&gt;id</title>
<path fill="none" stroke="grey" d="M1486.65,-304.305C1291.3,-301.189 550.882,-287.092 516.555,-252 462.639,-196.883 485.096,-94.7538 500.112,-46.1149"/>
<polygon fill="grey" stroke="grey" points="503.535,-46.9032 503.264,-36.3119 496.871,-44.7605 503.535,-46.9032"/>
</g>
<!-- typename -->
<g id="node7" class="node"><title>typename</title>
<ellipse fill="none" stroke="blue" cx="1065.55" cy="-18" rx="28.6953" ry="18"/>
<text text-anchor="middle" x="1065.55" y="-14.3" font-family="Times,serif" font-size="14.00">&#39;int&#39; &#160;</text>
</g>
<!-- Grammar&#45;&gt;typename -->
<g id="edge35" class="edge"><title>Grammar&#45;&gt;typename</title>
<path fill="none" stroke="grey" d="M1486.69,-304.575C1395.08,-302.809 1196.77,-294.087 1145.55,-252 1129.07,-238.451 1089.67,-104.415 1073.1,-45.9907"/>
<polygon fill="grey" stroke="grey" points="1076.36,-44.6812 1070.28,-36.0076 1069.63,-46.5824 1076.36,-44.6812"/>
</g>
<!-- defn -->
<g id="node8" class="node"><title>defn</title>
<ellipse fill="none" stroke="blue" cx="643.555" cy="-90" rx="109.381" ry="18"/>
<text text-anchor="middle" x="643.555" y="-86.3" font-family="Times,serif" font-size="14.00">&#39;var&#39; id &#39;holds&#39; typename &#39;;&#39; &#160;</text>
</g>
<!-- Grammar&#45;&gt;defn -->
<g id="edge28" class="edge"><title>Grammar&#45;&gt;defn</title>
<path fill="none" stroke="grey" d="M1486.71,-304.293C1293.33,-301.148 565.769,-287.02 532.555,-252 490.435,-207.591 562.685,-145.886 609.111,-113.269"/>
<polygon fill="grey" stroke="grey" points="611.196,-116.082 617.446,-107.527 607.225,-110.318 611.196,-116.082"/>
</g>
<!-- fail -->
<g id="node9" class="node"><title>fail</title>
<ellipse fill="none" stroke="blue" cx="1044.55" cy="-90" rx="27" ry="18"/>
<text text-anchor="middle" x="1044.55" y="-86.3" font-family="Times,serif" font-size="14.00"> </text>
</g>
<!-- Grammar&#45;&gt;fail -->
<g id="edge32" class="edge"><title>Grammar&#45;&gt;fail</title>
<path fill="none" stroke="grey" d="M1487.34,-302.471C1378.98,-296.129 1115.41,-278.165 1085.55,-252 1047.32,-218.492 1042.3,-154.799 1042.88,-118.374"/>
<polygon fill="grey" stroke="grey" points="1046.39,-118.115 1043.21,-108.009 1039.4,-117.893 1046.39,-118.115"/>
</g>
<!-- test7 -->
<g id="node10" class="node"><title>test7</title>
<ellipse fill="none" stroke="blue" cx="1482.55" cy="-234" rx="74.9875" ry="18"/>
<text text-anchor="middle" x="1482.55" y="-230.3" font-family="Times,serif" font-size="14.00">&#39;x&#39; &lt;resync&gt; /y+/ &#160;</text>
</g>
<!-- Grammar&#45;&gt;test7 -->
<g id="edge11" class="edge"><title>Grammar&#45;&gt;test7</title>
<path fill="none" stroke="grey" d="M1521.47,-288.411C1515.33,-279.992 1507.75,-269.585 1500.92,-260.201"/>
<polygon fill="grey" stroke="grey" points="1503.63,-257.978 1494.91,-251.956 1497.97,-262.1 1503.63,-257.978"/>
</g>
<!-- test1 -->
<g id="node11" class="node"><title>test1</title>
<ellipse fill="none" stroke="blue" cx="1900.55" cy="-234" rx="287.049" ry="18"/>
<text text-anchor="middle" x="1900.55" y="-230.3" font-family="Times,serif" font-size="14.00">&#39;(&#39; &#39;the&#39; &#39;$::first&#39; /te+st/ is _alternation_1_of_production_1_of_rule_test1(s?) &#160;</text>
</g>
<!-- Grammar&#45;&gt;test1 -->
<g id="edge14" class="edge"><title>Grammar&#45;&gt;test1</title>
<path fill="none" stroke="grey" d="M1574.59,-297.174C1630.08,-286.589 1730.71,-267.396 1805.54,-253.124"/>
<polygon fill="grey" stroke="grey" points="1806.28,-256.544 1815.45,-251.232 1804.97,-249.668 1806.28,-256.544"/>
</g>
<!-- is -->
<g id="node12" class="node"><title>is</title>
<ellipse fill="none" stroke="blue" cx="1695.55" cy="-162" rx="43.5923" ry="18"/>
<text text-anchor="middle" x="1695.55" y="-158.3" font-family="Times,serif" font-size="14.00">&#39;is&#39; &#160;&#39;are&#39; &#160;</text>
</g>
<!-- Grammar&#45;&gt;is -->
<g id="edge21" class="edge"><title>Grammar&#45;&gt;is</title>
<path fill="none" stroke="grey" d="M1544.05,-288.375C1556.7,-269.252 1579.42,-237.706 1604.55,-216 1620.67,-202.085 1640.95,-189.864 1658.27,-180.674"/>
<polygon fill="grey" stroke="grey" points="1660.26,-183.584 1667.55,-175.889 1657.05,-177.363 1660.26,-183.584"/>
</g>
<!-- _alternation_1_of_production_1_of_rule_test1 -->
<g id="node13" class="node"><title>_alternation_1_of_production_1_of_rule_test1</title>
<ellipse fill="none" stroke="blue" cx="2057.55" cy="-162" rx="33.5952" ry="18"/>
<text text-anchor="middle" x="2057.55" y="-158.3" font-family="Times,serif" font-size="14.00">&#39;easy&#39; &#160;</text>
</g>
<!-- Grammar&#45;&gt;_alternation_1_of_production_1_of_rule_test1 -->
<g id="edge33" class="edge"><title>Grammar&#45;&gt;_alternation_1_of_production_1_of_rule_test1</title>
<path fill="none" stroke="grey" d="M1580.36,-304.837C1724.58,-303.852 2154.89,-297.125 2196.55,-252 2207.41,-240.244 2205.63,-229.176 2196.55,-216 2175.27,-185.102 2133.38,-172.205 2101.12,-166.828"/>
<polygon fill="grey" stroke="grey" points="2101.43,-163.335 2091.03,-165.333 2100.41,-170.26 2101.43,-163.335"/>
</g>
<!-- test5 -->
<g id="node14" class="node"><title>test5</title>
<ellipse fill="none" stroke="blue" cx="1258.55" cy="-234" rx="92.8835" ry="18"/>
<text text-anchor="middle" x="1258.55" y="-230.3" font-family="Times,serif" font-size="14.00">name notname &#160;name &#160;</text>
</g>
<!-- Grammar&#45;&gt;test5 -->
<g id="edge17" class="edge"><title>Grammar&#45;&gt;test5</title>
<path fill="none" stroke="grey" d="M1495.61,-295.34C1450.87,-283.953 1375.84,-264.854 1322.17,-251.193"/>
<polygon fill="grey" stroke="grey" points="1322.96,-247.783 1312.41,-248.708 1321.24,-254.567 1322.96,-247.783"/>
</g>
<!-- notname -->
<g id="node15" class="node"><title>notname</title>
<ellipse fill="none" stroke="blue" cx="1349.55" cy="-162" rx="51.1914" ry="18"/>
<text text-anchor="middle" x="1349.55" y="-158.3" font-family="Times,serif" font-size="14.00">/[a&#45;z]\w*/i &#160;</text>
</g>
<!-- Grammar&#45;&gt;notname -->
<g id="edge20" class="edge"><title>Grammar&#45;&gt;notname</title>
<path fill="none" stroke="grey" d="M1493.06,-296.869C1464.01,-289.324 1425.42,-275.598 1398.55,-252 1379.48,-235.247 1366.37,-209.203 1358.54,-189.609"/>
<polygon fill="grey" stroke="grey" points="1361.73,-188.153 1354.93,-180.034 1355.18,-190.625 1361.73,-188.153"/>
</g>
<!-- dog -->
<g id="node16" class="node"><title>dog</title>
<ellipse fill="none" stroke="blue" cx="2274.55" cy="-234" rx="31.3957" ry="18"/>
<text text-anchor="middle" x="2274.55" y="-230.3" font-family="Times,serif" font-size="14.00">&#39;dog&#39; &#160;</text>
</g>
<!-- Grammar&#45;&gt;dog -->
<g id="edge18" class="edge"><title>Grammar&#45;&gt;dog</title>
<path fill="none" stroke="grey" d="M1579.9,-303.194C1714.72,-297.667 2105.04,-279.66 2229.55,-252 2233.19,-251.192 2236.93,-250.149 2240.62,-248.977"/>
<polygon fill="grey" stroke="grey" points="2241.89,-252.242 2250.18,-245.65 2239.59,-245.631 2241.89,-252.242"/>
</g>
<!-- a -->
<g id="node17" class="node"><title>a</title>
<ellipse fill="none" stroke="blue" cx="2350.55" cy="-234" rx="27" ry="18"/>
<text text-anchor="middle" x="2350.55" y="-230.3" font-family="Times,serif" font-size="14.00">&#39;a&#39; &#160;</text>
</g>
<!-- Grammar&#45;&gt;a -->
<g id="edge19" class="edge"><title>Grammar&#45;&gt;a</title>
<path fill="none" stroke="grey" d="M1580.14,-304.106C1726.31,-300.945 2174.4,-288.456 2314.55,-252 2316.73,-251.435 2318.93,-250.739 2321.12,-249.955"/>
<polygon fill="grey" stroke="grey" points="2322.59,-253.136 2330.49,-246.083 2319.91,-246.666 2322.59,-253.136"/>
</g>
<!-- test2 -->
<g id="node18" class="node"><title>test2</title>
<ellipse fill="none" stroke="blue" cx="2537.55" cy="-234" rx="141.875" ry="18"/>
<text text-anchor="middle" x="2537.55" y="-230.3" font-family="Times,serif" font-size="14.00">$arg{article} $arg[3][$arg{sound}] &#160;</text>
</g>
<!-- Grammar&#45;&gt;test2 -->
<g id="edge22" class="edge"><title>Grammar&#45;&gt;test2</title>
<path fill="none" stroke="grey" d="M1579.85,-302.94C1708.15,-297.054 2079.1,-278.842 2386.55,-252 2399.98,-250.828 2414.07,-249.446 2428.01,-247.985"/>
<polygon fill="grey" stroke="grey" points="2428.55,-251.447 2438.13,-246.91 2427.81,-244.487 2428.55,-251.447"/>
</g>
<!-- test6 -->
<g id="node19" class="node"><title>test6</title>
<ellipse fill="none" stroke="blue" cx="3068.55" cy="-234" rx="371.534" ry="18"/>
<text text-anchor="middle" x="3068.55" y="-230.3" font-family="Times,serif" font-size="14.00">&lt;rulevar: $test6 = 1&gt; &#160;&#39;a&#39; &lt;commit&gt; &#39;b&#39; &lt;uncommit&gt; &#39;c&#39; &lt;reject: $test6 &amp;&amp; $text&gt; &#160;&lt;uncommit&gt; &#160;&#39;a&#39; &#160;</text>
</g>
<!-- Grammar&#45;&gt;test6 -->
<g id="edge23" class="edge"><title>Grammar&#45;&gt;test6</title>
<path fill="none" stroke="grey" d="M1579.91,-302.886C1759.76,-294.685 2420.04,-264.574 2798.06,-247.335"/>
<polygon fill="grey" stroke="grey" points="2798.5,-250.819 2808.33,-246.867 2798.18,-243.826 2798.5,-250.819"/>
</g>
<!-- cat -->
<g id="node20" class="node"><title>cat</title>
<ellipse fill="none" stroke="blue" cx="3594.55" cy="-234" rx="135.676" ry="18"/>
<text text-anchor="middle" x="3594.55" y="-230.3" font-family="Times,serif" font-size="14.00">&lt;reject: $arg[0] ne &#39;meows&#39;&gt; &#39;cat&#39; &#160;&#160;</text>
</g>
<!-- Grammar&#45;&gt;cat -->
<g id="edge24" class="edge"><title>Grammar&#45;&gt;cat</title>
<path fill="none" stroke="grey" d="M1580.31,-305.24C1794.72,-306.018 2705.27,-305.817 3449.55,-252 3463.08,-251.022 3477.29,-249.71 3491.3,-248.246"/>
<polygon fill="grey" stroke="grey" points="3491.89,-251.703 3501.46,-247.156 3491.14,-244.743 3491.89,-251.703"/>
</g>
<!-- the -->
<g id="node21" class="node"><title>the</title>
<ellipse fill="none" stroke="blue" cx="3778.55" cy="-234" rx="30.5947" ry="18"/>
<text text-anchor="middle" x="3778.55" y="-230.3" font-family="Times,serif" font-size="14.00">&#39;the&#39; &#160;</text>
</g>
<!-- Grammar&#45;&gt;the -->
<g id="edge29" class="edge"><title>Grammar&#45;&gt;the</title>
<path fill="none" stroke="grey" d="M1580.41,-304.957C1880.06,-304.54 3522.13,-300.06 3739.55,-252 3742.02,-251.456 3744.51,-250.755 3747,-249.948"/>
<polygon fill="grey" stroke="grey" points="3748.24,-253.219 3756.37,-246.424 3745.78,-246.667 3748.24,-253.219"/>
</g>
<!-- test4 -->
<g id="node22" class="node"><title>test4</title>
<ellipse fill="none" stroke="blue" cx="3905.55" cy="-234" rx="39.7935" ry="18"/>
<text text-anchor="middle" x="3905.55" y="-230.3" font-family="Times,serif" font-size="14.00">&#39;a&#39; b /c/ &#160;</text>
</g>
<!-- Grammar&#45;&gt;test4 -->
<g id="edge31" class="edge"><title>Grammar&#45;&gt;test4</title>
<path fill="none" stroke="grey" d="M1580.72,-304.72C1889.79,-302.78 3620.22,-290.265 3851.55,-252 3856.33,-251.21 3861.27,-250.093 3866.14,-248.806"/>
<polygon fill="grey" stroke="grey" points="3867.3,-252.114 3875.93,-245.974 3865.35,-245.39 3867.3,-252.114"/>
</g>
<!-- b -->
<g id="node23" class="node"><title>b</title>
<ellipse fill="none" stroke="blue" cx="3871.55" cy="-162" rx="27" ry="18"/>
<text text-anchor="middle" x="3871.55" y="-158.3" font-family="Times,serif" font-size="14.00">&#39;b&#39; &#160;</text>
</g>
<!-- Grammar&#45;&gt;b -->
<g id="edge34" class="edge"><title>Grammar&#45;&gt;b</title>
<path fill="none" stroke="grey" d="M1580.32,-305.194C1897.06,-306.351 3718.45,-310.441 3818.55,-252 3841.64,-238.52 3855.79,-210.68 3863.59,-189.705"/>
<polygon fill="grey" stroke="grey" points="3866.97,-190.648 3866.93,-180.053 3860.35,-188.364 3866.97,-190.648"/>
</g>
<!-- test3&#45;&gt;_alternation_1_of_production_1_of_rule_test3 -->
<g id="edge1" class="edge"><title>test3&#45;&gt;_alternation_1_of_production_1_of_rule_test3</title>
<path fill="none" stroke="grey" d="M785.723,-216.233C807.578,-206.102 835.534,-193.142 858.39,-182.547"/>
<polygon fill="grey" stroke="grey" points="859.917,-185.697 867.517,-178.315 856.972,-179.346 859.917,-185.697"/>
</g>
<!-- _alternation_1_of_production_1_of_rule_test3&#45;&gt;typedef -->
<g id="edge8" class="edge"><title>_alternation_1_of_production_1_of_rule_test3&#45;&gt;typedef</title>
<path fill="none" stroke="grey" d="M900.555,-143.697C900.555,-135.983 900.555,-126.712 900.555,-118.112"/>
<polygon fill="grey" stroke="grey" points="904.055,-118.104 900.555,-108.104 897.055,-118.104 904.055,-118.104"/>
</g>
<!-- _alternation_1_of_production_1_of_rule_test3&#45;&gt;defn -->
<g id="edge7" class="edge"><title>_alternation_1_of_production_1_of_rule_test3&#45;&gt;defn</title>
<path fill="none" stroke="grey" d="M852.517,-147.916C811.505,-136.745 752.196,-120.591 707.233,-108.344"/>
<polygon fill="grey" stroke="grey" points="708.149,-104.966 697.58,-105.715 706.309,-111.72 708.149,-104.966"/>
</g>
<!-- _alternation_1_of_production_1_of_rule_test3&#45;&gt;fail -->
<g id="edge9" class="edge"><title>_alternation_1_of_production_1_of_rule_test3&#45;&gt;fail</title>
<path fill="none" stroke="grey" d="M932.513,-145.465C956.945,-133.588 990.396,-117.327 1014.37,-105.671"/>
<polygon fill="grey" stroke="grey" points="1015.92,-108.813 1023.38,-101.293 1012.86,-102.518 1015.92,-108.813"/>
</g>
<!-- typedef&#45;&gt;id -->
<g id="edge4" class="edge"><title>typedef&#45;&gt;id</title>
<path fill="none" stroke="grey" d="M832.448,-76.8069C771.867,-65.9612 682.378,-49.9403 612.965,-37.5133"/>
<polygon fill="grey" stroke="grey" points="613.335,-34.0241 602.875,-35.707 612.102,-40.9145 613.335,-34.0241"/>
</g>
<!-- typedef&#45;&gt;typename -->
<g id="edge5" class="edge"><title>typedef&#45;&gt;typename</title>
<path fill="none" stroke="grey" d="M939.366,-73.3787C964.829,-63.0198 998.797,-48.9914 1028.55,-36 1030.35,-35.2151 1032.2,-34.4006 1034.05,-33.5722"/>
<polygon fill="grey" stroke="grey" points="1035.64,-36.6949 1043.31,-29.3861 1032.76,-30.3164 1035.64,-36.6949"/>
</g>
<!-- defn&#45;&gt;id -->
<g id="edge26" class="edge"><title>defn&#45;&gt;id</title>
<path fill="none" stroke="grey" d="M612.138,-72.5881C593.974,-63.0993 570.894,-51.0428 551.228,-40.7695"/>
<polygon fill="grey" stroke="grey" points="552.658,-37.568 542.174,-36.04 549.417,-43.7725 552.658,-37.568"/>
</g>
<!-- defn&#45;&gt;typename -->
<g id="edge27" class="edge"><title>defn&#45;&gt;typename</title>
<path fill="none" stroke="grey" d="M728.531,-78.6434C833.126,-65.6866 1000.42,-44.2048 1028.55,-36 1030.49,-35.436 1032.45,-34.7868 1034.41,-34.0785"/>
<polygon fill="grey" stroke="grey" points="1036.1,-37.1691 1044.05,-30.1639 1033.47,-30.6834 1036.1,-37.1691"/>
</g>
<!-- test1&#45;&gt;is -->
<g id="edge12" class="edge"><title>test1&#45;&gt;is</title>
<path fill="none" stroke="grey" d="M1851.45,-216.233C1816.78,-204.394 1770.8,-188.692 1737.77,-177.414"/>
<polygon fill="grey" stroke="grey" points="1738.56,-173.985 1727.96,-174.065 1736.29,-180.609 1738.56,-173.985"/>
</g>
<!-- test1&#45;&gt;_alternation_1_of_production_1_of_rule_test1 -->
<g id="edge13" class="edge"><title>test1&#45;&gt;_alternation_1_of_production_1_of_rule_test1</title>
<path fill="none" stroke="grey" d="M1938.56,-216.055C1964.2,-204.624 1997.77,-189.656 2022.72,-178.533"/>
<polygon fill="grey" stroke="grey" points="2024.45,-181.593 2032.16,-174.325 2021.6,-175.2 2024.45,-181.593"/>
</g>
<!-- test5&#45;&gt;name -->
<g id="edge15" class="edge"><title>test5&#45;&gt;name</title>
<path fill="none" stroke="grey" d="M1241.85,-216.055C1232.83,-206.898 1221.56,-195.47 1211.8,-185.568"/>
<polygon fill="grey" stroke="grey" points="1214.2,-183.021 1204.69,-178.356 1209.22,-187.935 1214.2,-183.021"/>
</g>
<!-- test5&#45;&gt;notname -->
<g id="edge16" class="edge"><title>test5&#45;&gt;notname</title>
<path fill="none" stroke="grey" d="M1280.12,-216.411C1292.28,-207.058 1307.62,-195.254 1320.8,-185.123"/>
<polygon fill="grey" stroke="grey" points="1323.29,-187.62 1329.08,-178.749 1319.02,-182.072 1323.29,-187.62"/>
</g>
<!-- test4&#45;&gt;b -->
<g id="edge30" class="edge"><title>test4&#45;&gt;b</title>
<path fill="none" stroke="grey" d="M3897.32,-216.055C3893.3,-207.767 3888.37,-197.618 3883.9,-188.424"/>
<polygon fill="grey" stroke="grey" points="3886.99,-186.773 3879.48,-179.307 3880.7,-189.831 3886.99,-186.773"/>
</g>
</g>
</svg>
