<?xml version="1.0" encoding="UTF-8" standalone="no"?>
<!DOCTYPE svg PUBLIC "-//W3C//DTD SVG 1.1//EN"
 "http://www.w3.org/Graphics/SVG/1.1/DTD/svg11.dtd">
<!-- Generated by graphviz version 2.38.0 (20140413.2041)
 -->
<!-- Title: Perl Pages: 1 -->
<svg width="523pt" height="708pt"
 viewBox="0.00 0.00 523.00 708.00" xmlns="http://www.w3.org/2000/svg" xmlns:xlink="http://www.w3.org/1999/xlink">
<g id="graph0" class="graph" transform="scale(1 1) rotate(0) translate(4 704)">
<title>Perl</title>
<polygon fill="white" stroke="none" points="-4,4 -4,-704 519,-704 519,4 -4,4"/>
<!-- 0 -->
<g id="node1" class="node"><title>0</title>
<polygon fill="none" stroke="green" points="276.706,-670.544 276.706,-685.456 259.89,-696 236.11,-696 219.294,-685.456 219.294,-670.544 236.11,-660 259.89,-660 276.706,-670.544"/>
<polygon fill="none" stroke="green" points="280.687,-668.325 280.687,-687.675 261.031,-700 234.969,-700 215.313,-687.675 215.313,-668.325 234.969,-656 261.031,-656 280.687,-668.325"/>
<text text-anchor="middle" x="248" y="-674.3" font-family="Times,serif" font-size="14.00">%$s</text>
</g>
<!-- 0_kids -->
<g id="node2" class="node"><title>0_kids</title>
<path fill="none" stroke="grey" d="M221,-583.5C221,-583.5 281,-583.5 281,-583.5 287,-583.5 293,-589.5 293,-595.5 293,-595.5 293,-607.5 293,-607.5 293,-613.5 287,-619.5 281,-619.5 281,-619.5 221,-619.5 221,-619.5 215,-619.5 209,-613.5 209,-607.5 209,-607.5 209,-595.5 209,-595.5 209,-589.5 215,-583.5 221,-583.5"/>
<text text-anchor="middle" x="222" y="-597.8" font-family="Times,serif" font-size="14.00" fill="blue">A</text>
<polyline fill="none" stroke="grey" points="235,-583.5 235,-619.5 "/>
<text text-anchor="middle" x="248" y="-597.8" font-family="Times,serif" font-size="14.00" fill="blue">C</text>
<polyline fill="none" stroke="grey" points="261,-583.5 261,-619.5 "/>
<text text-anchor="middle" x="277" y="-597.8" font-family="Times,serif" font-size="14.00" fill="blue">els</text>
</g>
<!-- 0&#45;&gt;0_kids -->
<g id="edge1" class="edge"><title>0&#45;&gt;0_kids:port2</title>
<path fill="none" stroke="grey" d="M248,-655.886C248,-648.163 248,-639.138 248,-630.263"/>
<polygon fill="grey" stroke="grey" points="251.5,-630 248,-620 244.5,-630 251.5,-630"/>
</g>
<!-- 0_0_kids -->
<g id="node3" class="node"><title>0_0_kids</title>
<path fill="none" stroke="grey" d="M101,-510.5C101,-510.5 131,-510.5 131,-510.5 137,-510.5 143,-516.5 143,-522.5 143,-522.5 143,-534.5 143,-534.5 143,-540.5 137,-546.5 131,-546.5 131,-546.5 101,-546.5 101,-546.5 95,-546.5 89,-540.5 89,-534.5 89,-534.5 89,-522.5 89,-522.5 89,-516.5 95,-510.5 101,-510.5"/>
<text text-anchor="middle" x="116" y="-524.8" font-family="Times,serif" font-size="14.00" fill="blue">%$A</text>
</g>
<!-- 0_kids&#45;&gt;0_0_kids -->
<g id="edge2" class="edge"><title>0_kids:port1&#45;&gt;0_0_kids:port1</title>
<path fill="none" stroke="grey" d="M208,-601.5C176.86,-601.5 150.131,-575.518 133.633,-554.555"/>
<polygon fill="grey" stroke="grey" points="136.422,-552.44 127.618,-546.545 130.824,-556.643 136.422,-552.44"/>
</g>
<!-- 0_1_kids -->
<g id="node11" class="node"><title>0_1_kids</title>
<path fill="none" stroke="grey" d="M233,-510.5C233,-510.5 263,-510.5 263,-510.5 269,-510.5 275,-516.5 275,-522.5 275,-522.5 275,-534.5 275,-534.5 275,-540.5 269,-546.5 263,-546.5 263,-546.5 233,-546.5 233,-546.5 227,-546.5 221,-540.5 221,-534.5 221,-534.5 221,-522.5 221,-522.5 221,-516.5 227,-510.5 233,-510.5"/>
<text text-anchor="middle" x="248" y="-524.8" font-family="Times,serif" font-size="14.00" fill="blue">%$C</text>
</g>
<!-- 0_kids&#45;&gt;0_1_kids -->
<g id="edge12" class="edge"><title>0_kids:port2&#45;&gt;0_1_kids:port1</title>
<path fill="none" stroke="grey" d="M248,-583C248,-574.484 248,-565.22 248,-556.787"/>
<polygon fill="grey" stroke="grey" points="251.5,-556.667 248,-546.667 244.5,-556.667 251.5,-556.667"/>
</g>
<!-- 0_2_kids -->
<g id="node21" class="node"><title>0_2_kids</title>
<path fill="none" stroke="grey" d="M347,-510.5C347,-510.5 377,-510.5 377,-510.5 383,-510.5 389,-516.5 389,-522.5 389,-522.5 389,-534.5 389,-534.5 389,-540.5 383,-546.5 377,-546.5 377,-546.5 347,-546.5 347,-546.5 341,-546.5 335,-540.5 335,-534.5 335,-534.5 335,-522.5 335,-522.5 335,-516.5 341,-510.5 347,-510.5"/>
<text text-anchor="middle" x="362" y="-524.8" font-family="Times,serif" font-size="14.00" fill="blue">@$els</text>
</g>
<!-- 0_kids&#45;&gt;0_2_kids -->
<g id="edge22" class="edge"><title>0_kids:port3&#45;&gt;0_2_kids:port1</title>
<path fill="none" stroke="grey" d="M294,-601.5C319.984,-601.5 338.867,-576.43 350.047,-555.673"/>
<polygon fill="grey" stroke="grey" points="353.272,-557.051 354.64,-546.545 347.019,-553.905 353.272,-557.051"/>
</g>
<!-- 0_0_0_kids -->
<g id="node4" class="node"><title>0_0_0_kids</title>
<path fill="none" stroke="grey" d="M43,-437.5C43,-437.5 165,-437.5 165,-437.5 171,-437.5 177,-443.5 177,-449.5 177,-449.5 177,-461.5 177,-461.5 177,-467.5 171,-473.5 165,-473.5 165,-473.5 43,-473.5 43,-473.5 37,-473.5 31,-467.5 31,-461.5 31,-461.5 31,-449.5 31,-449.5 31,-443.5 37,-437.5 43,-437.5"/>
<text text-anchor="middle" x="42.5" y="-451.8" font-family="Times,serif" font-size="14.00" fill="blue">a</text>
<polyline fill="none" stroke="grey" points="54,-437.5 54,-473.5 "/>
<text text-anchor="middle" x="82.5" y="-451.8" font-family="Times,serif" font-size="14.00" fill="blue">bbbbbb</text>
<polyline fill="none" stroke="grey" points="111,-437.5 111,-473.5 "/>
<text text-anchor="middle" x="132.5" y="-451.8" font-family="Times,serif" font-size="14.00" fill="blue">c123</text>
<polyline fill="none" stroke="grey" points="154,-437.5 154,-473.5 "/>
<text text-anchor="middle" x="165.5" y="-451.8" font-family="Times,serif" font-size="14.00" fill="blue">d</text>
</g>
<!-- 0_0_kids&#45;&gt;0_0_0_kids -->
<g id="edge3" class="edge"><title>0_0_kids:port1&#45;&gt;0_0_0_kids:port2</title>
<path fill="none" stroke="grey" d="M97.4083,-510.029C91.5171,-502.73 85.8831,-493.791 83.3697,-484.195"/>
<polygon fill="grey" stroke="grey" points="86.8004,-483.445 82,-474 79.8627,-484.377 86.8004,-483.445"/>
</g>
<!-- 0_0_0_0_kids -->
<g id="node5" class="node"><title>0_0_0_0_kids</title>
<path fill="none" stroke="grey" d="M12,-364.5C12,-364.5 42,-364.5 42,-364.5 48,-364.5 54,-370.5 54,-376.5 54,-376.5 54,-388.5 54,-388.5 54,-394.5 48,-400.5 42,-400.5 42,-400.5 12,-400.5 12,-400.5 6,-400.5 0,-394.5 0,-388.5 0,-388.5 0,-376.5 0,-376.5 0,-370.5 6,-364.5 12,-364.5"/>
<text text-anchor="middle" x="27" y="-378.8" font-family="Times,serif" font-size="14.00" fill="blue">%$a</text>
</g>
<!-- 0_0_0_kids&#45;&gt;0_0_0_0_kids -->
<g id="edge4" class="edge"><title>0_0_0_kids:port1&#45;&gt;0_0_0_0_kids:port1</title>
<path fill="none" stroke="grey" d="M42,-437C42,-428.209 40.1634,-418.897 37.7755,-410.506"/>
<polygon fill="grey" stroke="grey" points="41.058,-409.279 34.6758,-400.823 34.3913,-411.414 41.058,-409.279"/>
</g>
<!-- 0_0_0_1_kids -->
<g id="node6" class="node"><title>0_0_0_1_kids</title>
<path fill="none" stroke="grey" d="M30,-291.5C30,-291.5 70,-291.5 70,-291.5 76,-291.5 82,-297.5 82,-303.5 82,-303.5 82,-315.5 82,-315.5 82,-321.5 76,-327.5 70,-327.5 70,-327.5 30,-327.5 30,-327.5 24,-327.5 18,-321.5 18,-315.5 18,-315.5 18,-303.5 18,-303.5 18,-297.5 24,-291.5 30,-291.5"/>
<text text-anchor="middle" x="50" y="-305.8" font-family="Times,serif" font-size="14.00" fill="blue">$bbbbbb</text>
</g>
<!-- 0_0_0_kids&#45;&gt;0_0_0_1_kids -->
<g id="edge5" class="edge"><title>0_0_0_kids:port2&#45;&gt;0_0_0_1_kids:port1</title>
<path fill="none" stroke="grey" d="M82,-437C82,-401.742 70.3458,-362.604 61.1036,-337.111"/>
<polygon fill="grey" stroke="grey" points="64.3711,-335.856 57.5836,-327.721 57.8165,-338.313 64.3711,-335.856"/>
</g>
<!-- 0_0_0_2_kids -->
<g id="node8" class="node"><title>0_0_0_2_kids</title>
<path fill="none" stroke="grey" d="M112,-291.5C112,-291.5 142,-291.5 142,-291.5 148,-291.5 154,-297.5 154,-303.5 154,-303.5 154,-315.5 154,-315.5 154,-321.5 148,-327.5 142,-327.5 142,-327.5 112,-327.5 112,-327.5 106,-327.5 100,-321.5 100,-315.5 100,-315.5 100,-303.5 100,-303.5 100,-297.5 106,-291.5 112,-291.5"/>
<text text-anchor="middle" x="127" y="-305.8" font-family="Times,serif" font-size="14.00" fill="blue">$c123</text>
</g>
<!-- 0_0_0_kids&#45;&gt;0_0_0_2_kids -->
<g id="edge7" class="edge"><title>0_0_0_kids:port3&#45;&gt;0_0_0_2_kids:port1</title>
<path fill="none" stroke="grey" d="M133,-437C133,-402.874 130.829,-363.666 129.099,-337.84"/>
<polygon fill="grey" stroke="grey" points="132.575,-337.379 128.392,-327.645 125.592,-337.864 132.575,-337.379"/>
</g>
<!-- 0_0_0_3_kids -->
<g id="node9" class="node"><title>0_0_0_3_kids</title>
<path fill="none" stroke="grey" d="M168.5,-364.5C168.5,-364.5 211.5,-364.5 211.5,-364.5 217.5,-364.5 223.5,-370.5 223.5,-376.5 223.5,-376.5 223.5,-388.5 223.5,-388.5 223.5,-394.5 217.5,-400.5 211.5,-400.5 211.5,-400.5 168.5,-400.5 168.5,-400.5 162.5,-400.5 156.5,-394.5 156.5,-388.5 156.5,-388.5 156.5,-376.5 156.5,-376.5 156.5,-370.5 162.5,-364.5 168.5,-364.5"/>
<text text-anchor="middle" x="190" y="-378.8" font-family="Times,serif" font-size="14.00" fill="blue">Object: d</text>
</g>
<!-- 0_0_0_kids&#45;&gt;0_0_0_3_kids -->
<g id="edge9" class="edge"><title>0_0_0_kids:port4&#45;&gt;0_0_0_3_kids:port1</title>
<path fill="none" stroke="grey" d="M166,-437C166,-427.686 168.972,-418.177 172.825,-409.765"/>
<polygon fill="grey" stroke="grey" points="175.974,-411.295 177.438,-400.802 169.75,-408.092 175.974,-411.295"/>
</g>
<!-- &amp;CODE(0x1c04ca0) -->
<g id="node7" class="node"><title>&amp;CODE(0x1c04ca0)</title>
<ellipse fill="none" stroke="grey" cx="127" cy="-236.5" rx="27" ry="18"/>
</g>
<!-- 0_0_0_1_kids&#45;&gt;&amp;CODE(0x1c04ca0) -->
<g id="edge6" class="edge"><title>0_0_0_1_kids:port1&#45;&gt;&amp;CODE(0x1c04ca0)</title>
<path fill="none" stroke="grey" d="M69.4304,-291.331C80.1451,-281.312 93.4962,-268.828 104.643,-258.405"/>
<polygon fill="grey" stroke="grey" points="107.034,-260.961 111.948,-251.575 102.253,-255.848 107.034,-260.961"/>
</g>
<!-- 0_0_0_2_kids&#45;&gt;&amp;CODE(0x1c04ca0) -->
<g id="edge8" class="edge"><title>0_0_0_2_kids:port1&#45;&gt;&amp;CODE(0x1c04ca0)</title>
<path fill="none" stroke="grey" d="M127,-291.331C127,-283.394 127,-273.909 127,-265.128"/>
<polygon fill="grey" stroke="grey" points="130.5,-264.918 127,-254.918 123.5,-264.918 130.5,-264.918"/>
</g>
<!-- $REF(0x195c190) -->
<g id="node10" class="node"><title>$REF(0x195c190)</title>
<ellipse fill="none" stroke="grey" cx="199" cy="-309.5" rx="27" ry="18"/>
</g>
<!-- 0_0_0_3_kids&#45;&gt;$REF(0x195c190) -->
<g id="edge10" class="edge"><title>0_0_0_3_kids:port1&#45;&gt;$REF(0x195c190)</title>
<path fill="none" stroke="grey" d="M192.271,-364.331C193.263,-356.394 194.449,-346.909 195.546,-338.128"/>
<polygon fill="grey" stroke="grey" points="199.055,-338.275 196.823,-327.918 192.109,-337.406 199.055,-338.275"/>
</g>
<!-- $REF(0x195c190)&#45;&gt;&amp;CODE(0x1c04ca0) -->
<g id="edge11" class="edge"><title>$REF(0x195c190)&#45;&gt;&amp;CODE(0x1c04ca0)</title>
<path fill="none" stroke="grey" d="M184.43,-294.132C174.183,-284.027 160.294,-270.331 148.741,-258.939"/>
<polygon fill="grey" stroke="grey" points="151.126,-256.376 141.549,-251.847 146.211,-261.36 151.126,-256.376"/>
</g>
<!-- 0_1_0_kids -->
<g id="node12" class="node"><title>0_1_0_kids</title>
<path fill="none" stroke="grey" d="M233,-437.5C233,-437.5 263,-437.5 263,-437.5 269,-437.5 275,-443.5 275,-449.5 275,-449.5 275,-461.5 275,-461.5 275,-467.5 269,-473.5 263,-473.5 263,-473.5 233,-473.5 233,-473.5 227,-473.5 221,-467.5 221,-461.5 221,-461.5 221,-449.5 221,-449.5 221,-443.5 227,-437.5 233,-437.5"/>
<text text-anchor="middle" x="248" y="-451.8" font-family="Times,serif" font-size="14.00" fill="blue">b</text>
</g>
<!-- 0_1_kids&#45;&gt;0_1_0_kids -->
<g id="edge13" class="edge"><title>0_1_kids:port1&#45;&gt;0_1_0_kids:port1</title>
<path fill="none" stroke="grey" d="M248,-510.455C248,-502.383 248,-492.676 248,-483.682"/>
<polygon fill="grey" stroke="grey" points="251.5,-483.59 248,-473.59 244.5,-483.59 251.5,-483.59"/>
</g>
<!-- 0_1_0_0_kids -->
<g id="node13" class="node"><title>0_1_0_0_kids</title>
<path fill="none" stroke="grey" d="M255,-364.5C255,-364.5 285,-364.5 285,-364.5 291,-364.5 297,-370.5 297,-376.5 297,-376.5 297,-388.5 297,-388.5 297,-394.5 291,-400.5 285,-400.5 285,-400.5 255,-400.5 255,-400.5 249,-400.5 243,-394.5 243,-388.5 243,-388.5 243,-376.5 243,-376.5 243,-370.5 249,-364.5 255,-364.5"/>
<text text-anchor="middle" x="270" y="-378.8" font-family="Times,serif" font-size="14.00" fill="blue">%$b</text>
</g>
<!-- 0_1_0_kids&#45;&gt;0_1_0_0_kids -->
<g id="edge14" class="edge"><title>0_1_0_kids:port1&#45;&gt;0_1_0_0_kids:port1</title>
<path fill="none" stroke="grey" d="M253.438,-437.455C255.897,-429.295 258.86,-419.465 261.595,-410.389"/>
<polygon fill="grey" stroke="grey" points="265.014,-411.175 264.548,-400.59 258.311,-409.155 265.014,-411.175"/>
</g>
<!-- 0_1_0_0_0_kids -->
<g id="node14" class="node"><title>0_1_0_0_0_kids</title>
<path fill="none" stroke="grey" d="M256,-291.5C256,-291.5 286,-291.5 286,-291.5 292,-291.5 298,-297.5 298,-303.5 298,-303.5 298,-315.5 298,-315.5 298,-321.5 292,-327.5 286,-327.5 286,-327.5 256,-327.5 256,-327.5 250,-327.5 244,-321.5 244,-315.5 244,-315.5 244,-303.5 244,-303.5 244,-297.5 250,-291.5 256,-291.5"/>
<text text-anchor="middle" x="271" y="-305.8" font-family="Times,serif" font-size="14.00" fill="blue">a</text>
</g>
<!-- 0_1_0_0_kids&#45;&gt;0_1_0_0_0_kids -->
<g id="edge15" class="edge"><title>0_1_0_0_kids:port1&#45;&gt;0_1_0_0_0_kids:port1</title>
<path fill="none" stroke="grey" d="M270.247,-364.455C270.358,-356.383 270.491,-346.676 270.614,-337.682"/>
<polygon fill="grey" stroke="grey" points="274.115,-337.637 270.752,-327.59 267.115,-337.541 274.115,-337.637"/>
</g>
<!-- 0_1_0_0_0_0_kids -->
<g id="node15" class="node"><title>0_1_0_0_0_0_kids</title>
<path fill="none" stroke="grey" d="M256,-218.5C256,-218.5 286,-218.5 286,-218.5 292,-218.5 298,-224.5 298,-230.5 298,-230.5 298,-242.5 298,-242.5 298,-248.5 292,-254.5 286,-254.5 286,-254.5 256,-254.5 256,-254.5 250,-254.5 244,-248.5 244,-242.5 244,-242.5 244,-230.5 244,-230.5 244,-224.5 250,-218.5 256,-218.5"/>
<text text-anchor="middle" x="271" y="-232.8" font-family="Times,serif" font-size="14.00" fill="blue">%$a</text>
</g>
<!-- 0_1_0_0_0_kids&#45;&gt;0_1_0_0_0_0_kids -->
<g id="edge16" class="edge"><title>0_1_0_0_0_kids:port1&#45;&gt;0_1_0_0_0_0_kids:port1</title>
<path fill="none" stroke="grey" d="M271,-291.455C271,-283.383 271,-273.676 271,-264.682"/>
<polygon fill="grey" stroke="grey" points="274.5,-264.59 271,-254.59 267.5,-264.59 274.5,-264.59"/>
</g>
<!-- 0_1_0_0_0_0_0_kids -->
<g id="node16" class="node"><title>0_1_0_0_0_0_0_kids</title>
<path fill="none" stroke="grey" d="M248.5,-145.5C248.5,-145.5 293.5,-145.5 293.5,-145.5 299.5,-145.5 305.5,-151.5 305.5,-157.5 305.5,-157.5 305.5,-169.5 305.5,-169.5 305.5,-175.5 299.5,-181.5 293.5,-181.5 293.5,-181.5 248.5,-181.5 248.5,-181.5 242.5,-181.5 236.5,-175.5 236.5,-169.5 236.5,-169.5 236.5,-157.5 236.5,-157.5 236.5,-151.5 242.5,-145.5 248.5,-145.5"/>
<text text-anchor="middle" x="248" y="-159.8" font-family="Times,serif" font-size="14.00" fill="blue">a</text>
<polyline fill="none" stroke="grey" points="259.5,-145.5 259.5,-181.5 "/>
<text text-anchor="middle" x="271" y="-159.8" font-family="Times,serif" font-size="14.00" fill="blue">b</text>
<polyline fill="none" stroke="grey" points="282.5,-145.5 282.5,-181.5 "/>
<text text-anchor="middle" x="294" y="-159.8" font-family="Times,serif" font-size="14.00" fill="blue">c</text>
</g>
<!-- 0_1_0_0_0_0_kids&#45;&gt;0_1_0_0_0_0_0_kids -->
<g id="edge17" class="edge"><title>0_1_0_0_0_0_kids:port1&#45;&gt;0_1_0_0_0_0_0_kids:port2</title>
<path fill="none" stroke="grey" d="M271,-218.333C271,-210.634 271,-201.336 271,-192.182"/>
<polygon fill="grey" stroke="grey" points="274.5,-192 271,-182 267.5,-192 274.5,-192"/>
</g>
<!-- 0_1_0_0_0_0_0_0_kids -->
<g id="node17" class="node"><title>0_1_0_0_0_0_0_0_kids</title>
<path fill="none" stroke="grey" d="M184,-72.5C184,-72.5 214,-72.5 214,-72.5 220,-72.5 226,-78.5 226,-84.5 226,-84.5 226,-96.5 226,-96.5 226,-102.5 220,-108.5 214,-108.5 214,-108.5 184,-108.5 184,-108.5 178,-108.5 172,-102.5 172,-96.5 172,-96.5 172,-84.5 172,-84.5 172,-78.5 178,-72.5 184,-72.5"/>
<text text-anchor="middle" x="199" y="-86.8" font-family="Times,serif" font-size="14.00" fill="blue">%$a</text>
</g>
<!-- 0_1_0_0_0_0_0_kids&#45;&gt;0_1_0_0_0_0_0_0_kids -->
<g id="edge18" class="edge"><title>0_1_0_0_0_0_0_kids:port1&#45;&gt;0_1_0_0_0_0_0_0_kids:port1</title>
<path fill="none" stroke="grey" d="M248,-145C248,-137.815 238.463,-126.363 227.805,-115.806"/>
<polygon fill="grey" stroke="grey" points="230.004,-113.068 220.35,-108.705 225.176,-118.136 230.004,-113.068"/>
</g>
<!-- 0_1_0_0_0_0_0_1_kids -->
<g id="node18" class="node"><title>0_1_0_0_0_0_0_1_kids</title>
<path fill="none" stroke="grey" d="M256,-72.5C256,-72.5 286,-72.5 286,-72.5 292,-72.5 298,-78.5 298,-84.5 298,-84.5 298,-96.5 298,-96.5 298,-102.5 292,-108.5 286,-108.5 286,-108.5 256,-108.5 256,-108.5 250,-108.5 244,-102.5 244,-96.5 244,-96.5 244,-84.5 244,-84.5 244,-78.5 250,-72.5 256,-72.5"/>
<text text-anchor="middle" x="271" y="-86.8" font-family="Times,serif" font-size="14.00" fill="blue">$b</text>
</g>
<!-- 0_1_0_0_0_0_0_kids&#45;&gt;0_1_0_0_0_0_0_1_kids -->
<g id="edge19" class="edge"><title>0_1_0_0_0_0_0_kids:port2&#45;&gt;0_1_0_0_0_0_0_1_kids:port1</title>
<path fill="none" stroke="grey" d="M271,-145C271,-136.484 271,-127.22 271,-118.787"/>
<polygon fill="grey" stroke="grey" points="274.5,-118.667 271,-108.667 267.5,-118.667 274.5,-118.667"/>
</g>
<!-- 0_1_0_0_0_0_0_2_kids -->
<g id="node20" class="node"><title>0_1_0_0_0_0_0_2_kids</title>
<path fill="none" stroke="grey" d="M328,-72.5C328,-72.5 358,-72.5 358,-72.5 364,-72.5 370,-78.5 370,-84.5 370,-84.5 370,-96.5 370,-96.5 370,-102.5 364,-108.5 358,-108.5 358,-108.5 328,-108.5 328,-108.5 322,-108.5 316,-102.5 316,-96.5 316,-96.5 316,-84.5 316,-84.5 316,-78.5 322,-72.5 328,-72.5"/>
<text text-anchor="middle" x="343" y="-86.8" font-family="Times,serif" font-size="14.00" fill="blue">42</text>
</g>
<!-- 0_1_0_0_0_0_0_kids&#45;&gt;0_1_0_0_0_0_0_2_kids -->
<g id="edge21" class="edge"><title>0_1_0_0_0_0_0_kids:port3&#45;&gt;0_1_0_0_0_0_0_2_kids:port1</title>
<path fill="none" stroke="grey" d="M294,-145C294,-137.815 303.537,-126.363 314.195,-115.806"/>
<polygon fill="grey" stroke="grey" points="316.824,-118.136 321.65,-108.705 311.996,-113.068 316.824,-118.136"/>
</g>
<!-- &amp;CODE(0x1c04a48) -->
<g id="node19" class="node"><title>&amp;CODE(0x1c04a48)</title>
<ellipse fill="none" stroke="grey" cx="271" cy="-18" rx="27" ry="18"/>
</g>
<!-- 0_1_0_0_0_0_0_1_kids&#45;&gt;&amp;CODE(0x1c04a48) -->
<g id="edge20" class="edge"><title>0_1_0_0_0_0_0_1_kids:port1&#45;&gt;&amp;CODE(0x1c04a48)</title>
<path fill="none" stroke="grey" d="M271,-72.4575C271,-64.5753 271,-55.1566 271,-46.4366"/>
<polygon fill="grey" stroke="grey" points="274.5,-46.2967 271,-36.2968 267.5,-46.2968 274.5,-46.2967"/>
</g>
<!-- 0_2_0_kids -->
<g id="node22" class="node"><title>0_2_0_kids</title>
<path fill="none" stroke="grey" d="M305,-437.5C305,-437.5 503,-437.5 503,-437.5 509,-437.5 515,-443.5 515,-449.5 515,-449.5 515,-461.5 515,-461.5 515,-467.5 509,-473.5 503,-473.5 503,-473.5 305,-473.5 305,-473.5 299,-473.5 293,-467.5 293,-461.5 293,-461.5 293,-449.5 293,-449.5 293,-443.5 299,-437.5 305,-437.5"/>
<text text-anchor="middle" x="330" y="-451.8" font-family="Times,serif" font-size="14.00" fill="blue">element_1</text>
<polyline fill="none" stroke="grey" points="367,-437.5 367,-473.5 "/>
<text text-anchor="middle" x="404" y="-451.8" font-family="Times,serif" font-size="14.00" fill="blue">element_2</text>
<polyline fill="none" stroke="grey" points="441,-437.5 441,-473.5 "/>
<text text-anchor="middle" x="478" y="-451.8" font-family="Times,serif" font-size="14.00" fill="blue">element_3</text>
</g>
<!-- 0_2_kids&#45;&gt;0_2_0_kids -->
<g id="edge23" class="edge"><title>0_2_kids:port1&#45;&gt;0_2_0_kids:port2</title>
<path fill="none" stroke="grey" d="M385.456,-510.351C392.747,-503.095 399.637,-494.056 402.547,-483.968"/>
<polygon fill="grey" stroke="grey" points="406.021,-484.4 404,-474 399.094,-483.39 406.021,-484.4"/>
</g>
</g>
</svg>
