<?xml version="1.0" encoding="UTF-8" standalone="no"?>
<!DOCTYPE svg PUBLIC "-//W3C//DTD SVG 1.1//EN"
 "http://www.w3.org/Graphics/SVG/1.1/DTD/svg11.dtd">
<!-- Generated by graphviz version 2.38.0 (20140413.2041)
 -->
<!-- Title: Perl Pages: 1 -->
<svg width="523pt" height="708pt"
 viewBox="0.00 0.00 523.00 708.00" xmlns="http://www.w3.org/2000/svg" xmlns:xlink="http://www.w3.org/1999/xlink">
<g id="graph0" class="graph" transform="scale(1 1) rotate(0) translate(4 704)">
<title>Perl</title>
<polygon fill="white" stroke="none" points="-4,4 -4,-704 519,-704 519,4 -4,4"/>
<!-- 0 -->
<g id="node1" class="node"><title>0</title>
<polygon fill="none" stroke="green" points="276.706,-670.544 276.706,-685.456 259.89,-696 236.11,-696 219.294,-685.456 219.294,-670.544 236.11,-660 259.89,-660 276.706,-670.544"/>
<polygon fill="none" stroke="green" points="280.687,-668.325 280.687,-687.675 261.031,-700 234.969,-700 215.313,-687.675 215.313,-668.325 234.969,-656 261.031,-656 280.687,-668.325"/>
<text text-anchor="middle" x="248" y="-674.3" font-family="Times,serif" font-size="14.00">%$s</text>
</g>
<!-- 0_kids -->
<g id="node2" class="node"><title>0_kids</title>
<path fill="none" stroke="grey" d="M221,-583.5C221,-583.5 281,-583.5 281,-583.5 287,-583.5 293,-589.5 293,-595.5 293,-595.5 293,-607.5 293,-607.5 293,-613.5 287,-619.5 281,-619.5 281,-619.5 221,-619.5 221,-619.5 215,-619.5 209,-613.5 209,-607.5 209,-607.5 209,-595.5 209,-595.5 209,-589.5 215,-583.5 221,-583.5"/>
<text text-anchor="middle" x="222" y="-597.8" font-family="Times,serif" font-size="14.00" fill="blue">A</text>
<polyline fill="none" stroke="grey" points="235,-583.5 235,-619.5 "/>
<text text-anchor="middle" x="248" y="-597.8" font-family="Times,serif" font-size="14.00" fill="blue">C</text>
<polyline fill="none" stroke="grey" points="261,-583.5 261,-619.5 "/>
<text text-anchor="middle" x="277" y="-597.8" font-family="Times,serif" font-size="14.00" fill="blue">els</text>
</g>
<!-- 0&#45;&gt;0_kids -->
<g id="edge1" class="edge"><title>0&#45;&gt;0_kids:port2</title>
<path fill="none" stroke="grey" d="M248,-655.886C248,-648.163 248,-639.138 248,-630.263"/>
<polygon fill="grey" stroke="grey" points="251.5,-630 248,-620 244.5,-630 251.5,-630"/>
</g>
<!-- 0_0_kids -->
<g id="node3" class="node"><title>0_0_kids</title>
<path fill="none" stroke="grey" d="M101,-510.5C101,-510.5 131,-510.5 131,-510.5 137,-510.5 143,-516.5 143,-522.5 143,-522.5 143,-534.5 143,-534.5 143,-540.5 137,-546.5 131,-546.5 131,-546.5 101,-546.5 101,-546.5 95,-546.5 89,-540.5 89,-534.5 89,-534.5 89,-522.5 89,-522.5 89,-516.5 95,-510.5 101,-510.5"/>
<text text-anchor="middle" x="116" y="-524.8" font-family="Times,serif" font-size="14.00" fill="blue">%$A</text>
</g>
<!-- 0_kids&#45;&gt;0_0_kids -->
<g id="edge2" class="edge"><title>0_kids:port1&#45;&gt;0_0_kids:port1</title>
<path fill="none" stroke="grey" d="M208,-601.5C176.86,-601.5 150.131,-575.518 133.633,-554.555"/>
<polygon fill="grey" stroke="grey" points="136.422,-552.44 127.618,-546.545 130.824,-556.643 136.422,-552.44"/>
</g>
<!-- 0_1_kids -->
<g id="node11" class="node"><title>0_1_kids</title>
<path fill="none" stroke="grey" d="M233,-510.5C233,-510.5 263,-510.5 263,-510.5 269,-510.5 275,-516.5 275,-522.5 275,-522.5 275,-534.5 275,-534.5 275,-540.5 269,-546.5 263,-546.5 263,-546.5 233,-546.5 233,-546.5 227,-546.5 221,-540.5 221,-534.5 221,-534.5 221,-522.5 221,-522.5 221,-516.5 227,-510.5 233,-510.5"/>
<text text-anchor="middle" x="248" y="-524.8" font-family="Times,serif" font-size="14.00" fill="blue">%$C</text>
</g>
<!-- 0_kids&#45;&gt;0_1_kids -->
<g id="edge12" class="edge"><title>0_kids:port2&#45;&gt;0_1_kids:port1</title>
<path fill="none" stroke="grey" d="M248,-583C248,-574.484 248,-565.22 248,-556.787"/>
<polygon fill="grey" stroke="grey" points="251.5,-556.667 248,-546.667 244.5,-556.667 251.5,-556.667"/>
</g>
<!-- 0_2_kids -->
<g id="node21" class="node"><title>0_2_kids</title>
<path fill="none" stroke="grey" d="M347,-510.5C347,-510.5 377,-510.5 377,-510.5 383,-510.5 389,-516.5 389,-522.5 389,-522.5 389,-534.5 389,-534.5 389,-540.5 383,-546.5 377,-546.5 377,-546.5 347,-546.5 347,-546.5 341,-546.5 335,-540.5 335,-534.5 335,-534.5 335,-522.5 335,-522.5 335,-516.5 341,-510.5 347,-510.5"/>
<text text-anchor="middle" x="362" y="-524.8" font-family="Times,serif" font-size="14.00" fill="blue">@$els</text>
</g>
<!-- 0_kids&#45;&gt;0_2_kids -->
<g id="edge22" class="edge"><title>0_kids:port3&#45;&gt;0_2_kids:port1</title>
<path fill="none" stroke="grey" d="M294,-601.5C319.984,-601.5 338.867,-576.43 350.047,-555.673"/>
<polygon fill="grey" stroke="grey" points="353.272,-557.051 354.64,-546.545 347.019,-553.905 353.272,-557.051"/>
</g>
<!-- 0_0_0_kids -->
<g id="node4" class="node"><title>0_0_0_kids</title>
<path fill="none" stroke="grey" d="M43,-437.5C43,-437.5 165,-437.5 165,-437.5 171,-437.5 177,-443.5 177,-449.5 177,-449.5 177,-461.5 177,-461.5 177,-467.5 171,-473.5 165,-473.5 165,-473.5 43,-473.5 43,-473.5 37,-473.5 31,-467.5 31,-461.5 31,-461.5 31,-449.5 31,-449.5 31,-443.5 37,-437.5 43,-437.5"/>
<text text-anchor="middle" x="42.5" y="-451.8" font-family="Times,serif" font-size="14.00" fill="blue">a</text>
<polyline fill="none" stroke="grey" points="54,-437.5 54,-473.5 "/>
<text text-anchor="middle" x="82.5" y="-451.8" font-family="Times,serif" font-size="14.00" fill="blue">bbbbbb</text>
<polyline fill="none" stroke="grey" points="111,-437.5 111,-473.5 "/>
<text text-anchor="middle" x="132.5" y="-451.8" font-family="Times,serif" font-size="14.00" fill="blue">c123</text>
<polyline fill="none" stroke="grey" points="154,-437.5 154,-473.5 "/>
<text text-anchor="middle" x="165.5" y="-451.8" font-family="Times,serif" font-size="14.00" fill="blue">d</text>
</g>
<!-- 0_0_kids&#45;&gt;0_0_0_kids -->
<g id="edge3" class="edge"><title>0_0_kids:port1&#45;&gt;0_0_0_kids:port2</title>
<path fill="none" stroke="grey" d="M97.4083,-510.029C91.5171,-502.73 85.8831,-493.791 83.3697,-484.195"/>
<polygon fill="grey" stroke="grey" points="86.8004,-483.445 82,-474 79.8627,-484.377 86.8004,-483.445"/>
</g>
<!-- 0_0_0_0_kids -->
<g id="node5" class="node"><title>0_0_0_0_kids</title>
<path fill="none" stroke="grey" d="M12,-364.5C12,-364.5 42,-364.5 42,-364.5 48,-364.5 54,-370.5 54,-376.5 54,-376.5 54,-388.5 54,-388.5 54,-394.5 48,-400.5 42,-400.5 42,-400.5 12,-400.5 12,-400.5 6,-400.5 0,-394.5 0,-388.5 0,-388.5 0,-376.5 0,-376.5 0,-370.5 6,-364.5 12,-364.5"/>
<text text-anchor="middle" x="27" y="-378.8" font-family="Times,serif" font-size="14.00" fill="blue">%$a</text>
</g>
<!-- 0_0_0_kids&#45;&gt;0_0_0_0_kids -->
<g id="edge4" class="edge"><title>0_0_0_kids:port1&#45;&gt;0_0_0_0_kids:port1</title>
<path fill="none" stroke="grey" d="M42,-437C42,-428.209 40.1634,-418.897 37.7755,-410.506"/>
<polygon fill="grey" stroke="grey" points="41.058,-409.279 34.6758,-400.823 34.3913,-411.414 41.058,-409.279"/>
</g>
<!-- 0_0_0_1_kids -->
<g id="node6" class="node"><title>0_0_0_1_kids</title>
<path fill="none" stroke="grey" d="M16,-291.5C16,-291.5 56,-291.5 56,-291.5 62,-291.5 68,-297.5 68,-303.5 68,-303.5 68,-315.5 68,-315.5 68,-321.5 62,-327.5 56,-327.5 56,-327.5 16,-327.5 16,-327.5 10,-327.5 4,-321.5 4,-315.5 4,-315.5 4,-303.5 4,-303.5 4,-297.5 10,-291.5 16,-291.5"/>
<text text-anchor="middle" x="36" y="-305.8" font-family="Times,serif" font-size="14.00" fill="blue">$bbbbbb</text>
</g>
<!-- 0_0_0_kids&#45;&gt;0_0_0_1_kids -->
<g id="edge5" class="edge"><title>0_0_0_kids:port2&#45;&gt;0_0_0_1_kids:port1</title>
<path fill="none" stroke="grey" d="M82,-437C82,-400.693 65.2911,-361.837 52.0139,-336.693"/>
<polygon fill="grey" stroke="grey" points="55.0007,-334.859 47.1353,-327.761 48.8574,-338.215 55.0007,-334.859"/>
</g>
<!-- 0_0_0_2_kids -->
<g id="node8" class="node"><title>0_0_0_2_kids</title>
<path fill="none" stroke="grey" d="M98,-291.5C98,-291.5 128,-291.5 128,-291.5 134,-291.5 140,-297.5 140,-303.5 140,-303.5 140,-315.5 140,-315.5 140,-321.5 134,-327.5 128,-327.5 128,-327.5 98,-327.5 98,-327.5 92,-327.5 86,-321.5 86,-315.5 86,-315.5 86,-303.5 86,-303.5 86,-297.5 92,-291.5 98,-291.5"/>
<text text-anchor="middle" x="113" y="-305.8" font-family="Times,serif" font-size="14.00" fill="blue">$c123</text>
</g>
<!-- 0_0_0_kids&#45;&gt;0_0_0_2_kids -->
<g id="edge7" class="edge"><title>0_0_0_kids:port3&#45;&gt;0_0_0_2_kids:port1</title>
<path fill="none" stroke="grey" d="M133,-437C133,-402.341 125.698,-363.015 119.918,-337.316"/>
<polygon fill="grey" stroke="grey" points="123.313,-336.465 117.639,-327.518 116.495,-338.051 123.313,-336.465"/>
</g>
<!-- 0_0_0_3_kids -->
<g id="node9" class="node"><title>0_0_0_3_kids</title>
<path fill="none" stroke="grey" d="M196.5,-364.5C196.5,-364.5 239.5,-364.5 239.5,-364.5 245.5,-364.5 251.5,-370.5 251.5,-376.5 251.5,-376.5 251.5,-388.5 251.5,-388.5 251.5,-394.5 245.5,-400.5 239.5,-400.5 239.5,-400.5 196.5,-400.5 196.5,-400.5 190.5,-400.5 184.5,-394.5 184.5,-388.5 184.5,-388.5 184.5,-376.5 184.5,-376.5 184.5,-370.5 190.5,-364.5 196.5,-364.5"/>
<text text-anchor="middle" x="218" y="-378.8" font-family="Times,serif" font-size="14.00" fill="blue">Object: d</text>
</g>
<!-- 0_0_0_kids&#45;&gt;0_0_0_3_kids -->
<g id="edge9" class="edge"><title>0_0_0_kids:port4&#45;&gt;0_0_0_3_kids:port1</title>
<path fill="none" stroke="grey" d="M166,-437C166,-425.686 171.939,-415.794 179.803,-407.656"/>
<polygon fill="grey" stroke="grey" points="182.418,-410.008 187.451,-400.685 177.702,-404.835 182.418,-410.008"/>
</g>
<!-- &amp;CODE(0x1c2ee40) -->
<g id="node7" class="node"><title>&amp;CODE(0x1c2ee40)</title>
<ellipse fill="none" stroke="grey" cx="113" cy="-236.5" rx="85.5853" ry="18"/>
<text text-anchor="middle" x="113" y="-232.8" font-family="Times,serif" font-size="14.00" fill="red">&amp;CODE(0x1c2ee40)</text>
</g>
<!-- 0_0_0_1_kids&#45;&gt;&amp;CODE(0x1c2ee40) -->
<g id="edge6" class="edge"><title>0_0_0_1_kids:port1&#45;&gt;&amp;CODE(0x1c2ee40)</title>
<path fill="none" stroke="grey" d="M55.4304,-291.331C65.2534,-282.146 77.2922,-270.889 87.8167,-261.048"/>
<polygon fill="grey" stroke="grey" points="90.2455,-263.569 95.1593,-254.182 85.4645,-258.456 90.2455,-263.569"/>
</g>
<!-- 0_0_0_2_kids&#45;&gt;&amp;CODE(0x1c2ee40) -->
<g id="edge8" class="edge"><title>0_0_0_2_kids:port1&#45;&gt;&amp;CODE(0x1c2ee40)</title>
<path fill="none" stroke="grey" d="M113,-291.331C113,-283.394 113,-273.909 113,-265.128"/>
<polygon fill="grey" stroke="grey" points="116.5,-264.918 113,-254.918 109.5,-264.918 116.5,-264.918"/>
</g>
<!-- $REF(0x1ad2aa8) -->
<g id="node10" class="node"><title>$REF(0x1ad2aa8)</title>
<ellipse fill="none" stroke="grey" cx="233" cy="-309.5" rx="75.2868" ry="18"/>
<text text-anchor="middle" x="233" y="-305.8" font-family="Times,serif" font-size="14.00" fill="red">$REF(0x1ad2aa8)</text>
</g>
<!-- 0_0_0_3_kids&#45;&gt;$REF(0x1ad2aa8) -->
<g id="edge10" class="edge"><title>0_0_0_3_kids:port1&#45;&gt;$REF(0x1ad2aa8)</title>
<path fill="none" stroke="grey" d="M221.785,-364.331C223.457,-356.307 225.458,-346.701 227.304,-337.839"/>
<polygon fill="grey" stroke="grey" points="230.758,-338.421 229.371,-327.918 223.905,-336.994 230.758,-338.421"/>
</g>
<!-- $REF(0x1ad2aa8)&#45;&gt;&amp;CODE(0x1c2ee40) -->
<g id="edge11" class="edge"><title>$REF(0x1ad2aa8)&#45;&gt;&amp;CODE(0x1c2ee40)</title>
<path fill="none" stroke="grey" d="M206.07,-292.566C189.205,-282.588 167.27,-269.61 148.931,-258.759"/>
<polygon fill="grey" stroke="grey" points="150.644,-255.706 140.256,-253.626 147.08,-261.731 150.644,-255.706"/>
</g>
<!-- 0_1_0_kids -->
<g id="node12" class="node"><title>0_1_0_kids</title>
<path fill="none" stroke="grey" d="M233,-437.5C233,-437.5 263,-437.5 263,-437.5 269,-437.5 275,-443.5 275,-449.5 275,-449.5 275,-461.5 275,-461.5 275,-467.5 269,-473.5 263,-473.5 263,-473.5 233,-473.5 233,-473.5 227,-473.5 221,-467.5 221,-461.5 221,-461.5 221,-449.5 221,-449.5 221,-443.5 227,-437.5 233,-437.5"/>
<text text-anchor="middle" x="248" y="-451.8" font-family="Times,serif" font-size="14.00" fill="blue">b</text>
</g>
<!-- 0_1_kids&#45;&gt;0_1_0_kids -->
<g id="edge13" class="edge"><title>0_1_kids:port1&#45;&gt;0_1_0_kids:port1</title>
<path fill="none" stroke="grey" d="M248,-510.455C248,-502.383 248,-492.676 248,-483.682"/>
<polygon fill="grey" stroke="grey" points="251.5,-483.59 248,-473.59 244.5,-483.59 251.5,-483.59"/>
</g>
<!-- 0_1_0_0_kids -->
<g id="node13" class="node"><title>0_1_0_0_kids</title>
<path fill="none" stroke="grey" d="M317,-364.5C317,-364.5 347,-364.5 347,-364.5 353,-364.5 359,-370.5 359,-376.5 359,-376.5 359,-388.5 359,-388.5 359,-394.5 353,-400.5 347,-400.5 347,-400.5 317,-400.5 317,-400.5 311,-400.5 305,-394.5 305,-388.5 305,-388.5 305,-376.5 305,-376.5 305,-370.5 311,-364.5 317,-364.5"/>
<text text-anchor="middle" x="332" y="-378.8" font-family="Times,serif" font-size="14.00" fill="blue">%$b</text>
</g>
<!-- 0_1_0_kids&#45;&gt;0_1_0_0_kids -->
<g id="edge14" class="edge"><title>0_1_0_kids:port1&#45;&gt;0_1_0_0_kids:port1</title>
<path fill="none" stroke="grey" d="M268.764,-437.455C279.264,-428.33 292.167,-417.116 303.574,-407.204"/>
<polygon fill="grey" stroke="grey" points="305.932,-409.792 311.184,-400.59 301.34,-404.508 305.932,-409.792"/>
</g>
<!-- 0_1_0_0_0_kids -->
<g id="node14" class="node"><title>0_1_0_0_0_kids</title>
<path fill="none" stroke="grey" d="M338,-291.5C338,-291.5 368,-291.5 368,-291.5 374,-291.5 380,-297.5 380,-303.5 380,-303.5 380,-315.5 380,-315.5 380,-321.5 374,-327.5 368,-327.5 368,-327.5 338,-327.5 338,-327.5 332,-327.5 326,-321.5 326,-315.5 326,-315.5 326,-303.5 326,-303.5 326,-297.5 332,-291.5 338,-291.5"/>
<text text-anchor="middle" x="353" y="-305.8" font-family="Times,serif" font-size="14.00" fill="blue">a</text>
</g>
<!-- 0_1_0_0_kids&#45;&gt;0_1_0_0_0_kids -->
<g id="edge15" class="edge"><title>0_1_0_0_kids:port1&#45;&gt;0_1_0_0_0_kids:port1</title>
<path fill="none" stroke="grey" d="M337.191,-364.455C339.538,-356.295 342.366,-346.465 344.977,-337.389"/>
<polygon fill="grey" stroke="grey" points="348.395,-338.168 347.796,-327.59 341.668,-336.233 348.395,-338.168"/>
</g>
<!-- 0_1_0_0_0_0_kids -->
<g id="node15" class="node"><title>0_1_0_0_0_0_kids</title>
<path fill="none" stroke="grey" d="M338,-218.5C338,-218.5 368,-218.5 368,-218.5 374,-218.5 380,-224.5 380,-230.5 380,-230.5 380,-242.5 380,-242.5 380,-248.5 374,-254.5 368,-254.5 368,-254.5 338,-254.5 338,-254.5 332,-254.5 326,-248.5 326,-242.5 326,-242.5 326,-230.5 326,-230.5 326,-224.5 332,-218.5 338,-218.5"/>
<text text-anchor="middle" x="353" y="-232.8" font-family="Times,serif" font-size="14.00" fill="blue">%$a</text>
</g>
<!-- 0_1_0_0_0_kids&#45;&gt;0_1_0_0_0_0_kids -->
<g id="edge16" class="edge"><title>0_1_0_0_0_kids:port1&#45;&gt;0_1_0_0_0_0_kids:port1</title>
<path fill="none" stroke="grey" d="M353,-291.455C353,-283.383 353,-273.676 353,-264.682"/>
<polygon fill="grey" stroke="grey" points="356.5,-264.59 353,-254.59 349.5,-264.59 356.5,-264.59"/>
</g>
<!-- 0_1_0_0_0_0_0_kids -->
<g id="node16" class="node"><title>0_1_0_0_0_0_0_kids</title>
<path fill="none" stroke="grey" d="M330.5,-145.5C330.5,-145.5 375.5,-145.5 375.5,-145.5 381.5,-145.5 387.5,-151.5 387.5,-157.5 387.5,-157.5 387.5,-169.5 387.5,-169.5 387.5,-175.5 381.5,-181.5 375.5,-181.5 375.5,-181.5 330.5,-181.5 330.5,-181.5 324.5,-181.5 318.5,-175.5 318.5,-169.5 318.5,-169.5 318.5,-157.5 318.5,-157.5 318.5,-151.5 324.5,-145.5 330.5,-145.5"/>
<text text-anchor="middle" x="330" y="-159.8" font-family="Times,serif" font-size="14.00" fill="blue">a</text>
<polyline fill="none" stroke="grey" points="341.5,-145.5 341.5,-181.5 "/>
<text text-anchor="middle" x="353" y="-159.8" font-family="Times,serif" font-size="14.00" fill="blue">b</text>
<polyline fill="none" stroke="grey" points="364.5,-145.5 364.5,-181.5 "/>
<text text-anchor="middle" x="376" y="-159.8" font-family="Times,serif" font-size="14.00" fill="blue">c</text>
</g>
<!-- 0_1_0_0_0_0_kids&#45;&gt;0_1_0_0_0_0_0_kids -->
<g id="edge17" class="edge"><title>0_1_0_0_0_0_kids:port1&#45;&gt;0_1_0_0_0_0_0_kids:port2</title>
<path fill="none" stroke="grey" d="M353,-218.333C353,-210.634 353,-201.336 353,-192.182"/>
<polygon fill="grey" stroke="grey" points="356.5,-192 353,-182 349.5,-192 356.5,-192"/>
</g>
<!-- 0_1_0_0_0_0_0_0_kids -->
<g id="node17" class="node"><title>0_1_0_0_0_0_0_0_kids</title>
<path fill="none" stroke="grey" d="M266,-72.5C266,-72.5 296,-72.5 296,-72.5 302,-72.5 308,-78.5 308,-84.5 308,-84.5 308,-96.5 308,-96.5 308,-102.5 302,-108.5 296,-108.5 296,-108.5 266,-108.5 266,-108.5 260,-108.5 254,-102.5 254,-96.5 254,-96.5 254,-84.5 254,-84.5 254,-78.5 260,-72.5 266,-72.5"/>
<text text-anchor="middle" x="281" y="-86.8" font-family="Times,serif" font-size="14.00" fill="blue">%$a</text>
</g>
<!-- 0_1_0_0_0_0_0_kids&#45;&gt;0_1_0_0_0_0_0_0_kids -->
<g id="edge18" class="edge"><title>0_1_0_0_0_0_0_kids:port1&#45;&gt;0_1_0_0_0_0_0_0_kids:port1</title>
<path fill="none" stroke="grey" d="M330,-145C330,-137.815 320.463,-126.363 309.805,-115.806"/>
<polygon fill="grey" stroke="grey" points="312.004,-113.068 302.35,-108.705 307.176,-118.136 312.004,-113.068"/>
</g>
<!-- 0_1_0_0_0_0_0_1_kids -->
<g id="node18" class="node"><title>0_1_0_0_0_0_0_1_kids</title>
<path fill="none" stroke="grey" d="M338,-72.5C338,-72.5 368,-72.5 368,-72.5 374,-72.5 380,-78.5 380,-84.5 380,-84.5 380,-96.5 380,-96.5 380,-102.5 374,-108.5 368,-108.5 368,-108.5 338,-108.5 338,-108.5 332,-108.5 326,-102.5 326,-96.5 326,-96.5 326,-84.5 326,-84.5 326,-78.5 332,-72.5 338,-72.5"/>
<text text-anchor="middle" x="353" y="-86.8" font-family="Times,serif" font-size="14.00" fill="blue">$b</text>
</g>
<!-- 0_1_0_0_0_0_0_kids&#45;&gt;0_1_0_0_0_0_0_1_kids -->
<g id="edge19" class="edge"><title>0_1_0_0_0_0_0_kids:port2&#45;&gt;0_1_0_0_0_0_0_1_kids:port1</title>
<path fill="none" stroke="grey" d="M353,-145C353,-136.484 353,-127.22 353,-118.787"/>
<polygon fill="grey" stroke="grey" points="356.5,-118.667 353,-108.667 349.5,-118.667 356.5,-118.667"/>
</g>
<!-- 0_1_0_0_0_0_0_2_kids -->
<g id="node20" class="node"><title>0_1_0_0_0_0_0_2_kids</title>
<path fill="none" stroke="grey" d="M410,-72.5C410,-72.5 440,-72.5 440,-72.5 446,-72.5 452,-78.5 452,-84.5 452,-84.5 452,-96.5 452,-96.5 452,-102.5 446,-108.5 440,-108.5 440,-108.5 410,-108.5 410,-108.5 404,-108.5 398,-102.5 398,-96.5 398,-96.5 398,-84.5 398,-84.5 398,-78.5 404,-72.5 410,-72.5"/>
<text text-anchor="middle" x="425" y="-86.8" font-family="Times,serif" font-size="14.00" fill="blue">42</text>
</g>
<!-- 0_1_0_0_0_0_0_kids&#45;&gt;0_1_0_0_0_0_0_2_kids -->
<g id="edge21" class="edge"><title>0_1_0_0_0_0_0_kids:port3&#45;&gt;0_1_0_0_0_0_0_2_kids:port1</title>
<path fill="none" stroke="grey" d="M376,-145C376,-137.815 385.537,-126.363 396.195,-115.806"/>
<polygon fill="grey" stroke="grey" points="398.824,-118.136 403.65,-108.705 393.996,-113.068 398.824,-118.136"/>
</g>
<!-- &amp;CODE(0x1c2ebe8) -->
<g id="node19" class="node"><title>&amp;CODE(0x1c2ebe8)</title>
<ellipse fill="none" stroke="grey" cx="353" cy="-18" rx="85.5853" ry="18"/>
<text text-anchor="middle" x="353" y="-14.3" font-family="Times,serif" font-size="14.00" fill="red">&amp;CODE(0x1c2ebe8)</text>
</g>
<!-- 0_1_0_0_0_0_0_1_kids&#45;&gt;&amp;CODE(0x1c2ebe8) -->
<g id="edge20" class="edge"><title>0_1_0_0_0_0_0_1_kids:port1&#45;&gt;&amp;CODE(0x1c2ebe8)</title>
<path fill="none" stroke="grey" d="M353,-72.4575C353,-64.5753 353,-55.1566 353,-46.4366"/>
<polygon fill="grey" stroke="grey" points="356.5,-46.2967 353,-36.2968 349.5,-46.2968 356.5,-46.2967"/>
</g>
<!-- 0_2_0_kids -->
<g id="node22" class="node"><title>0_2_0_kids</title>
<path fill="none" stroke="grey" d="M305,-437.5C305,-437.5 503,-437.5 503,-437.5 509,-437.5 515,-443.5 515,-449.5 515,-449.5 515,-461.5 515,-461.5 515,-467.5 509,-473.5 503,-473.5 503,-473.5 305,-473.5 305,-473.5 299,-473.5 293,-467.5 293,-461.5 293,-461.5 293,-449.5 293,-449.5 293,-443.5 299,-437.5 305,-437.5"/>
<text text-anchor="middle" x="330" y="-451.8" font-family="Times,serif" font-size="14.00" fill="blue">element_1</text>
<polyline fill="none" stroke="grey" points="367,-437.5 367,-473.5 "/>
<text text-anchor="middle" x="404" y="-451.8" font-family="Times,serif" font-size="14.00" fill="blue">element_2</text>
<polyline fill="none" stroke="grey" points="441,-437.5 441,-473.5 "/>
<text text-anchor="middle" x="478" y="-451.8" font-family="Times,serif" font-size="14.00" fill="blue">element_3</text>
</g>
<!-- 0_2_kids&#45;&gt;0_2_0_kids -->
<g id="edge23" class="edge"><title>0_2_kids:port1&#45;&gt;0_2_0_kids:port2</title>
<path fill="none" stroke="grey" d="M385.456,-510.351C392.747,-503.095 399.637,-494.056 402.547,-483.968"/>
<polygon fill="grey" stroke="grey" points="406.021,-484.4 404,-474 399.094,-483.39 406.021,-484.4"/>
</g>
</g>
</svg>
