<?xml version="1.0" encoding="UTF-8" standalone="no"?>
<!DOCTYPE svg PUBLIC "-//W3C//DTD SVG 1.1//EN"
 "http://www.w3.org/Graphics/SVG/1.1/DTD/svg11.dtd">
<!-- Generated by graphviz version 2.37.20140310.0445 (20140310.0445)
 -->
<!-- Title: Perl Pages: 1 -->
<svg width="444pt" height="194pt"
 viewBox="0.00 0.00 444.00 194.00" xmlns="http://www.w3.org/2000/svg" xmlns:xlink="http://www.w3.org/1999/xlink">
<g id="graph0" class="graph" transform="scale(1 1) rotate(0) translate(4 190)">
<title>Perl</title>
<polygon fill="white" stroke="none" points="-4,4 -4,-190 440,-190 440,4 -4,4"/>
<!-- Adult -->
<g id="node1" class="node"><title>Adult</title>
<path fill="none" stroke="blue" d="M86,-149C86,-149 116,-149 116,-149 122,-149 128,-155 128,-161 128,-161 128,-173 128,-173 128,-179 122,-185 116,-185 116,-185 86,-185 86,-185 80,-185 74,-179 74,-173 74,-173 74,-161 74,-161 74,-155 80,-149 86,-149"/>
<text text-anchor="middle" x="101" y="-163.3" font-family="Times,serif" font-size="14.00">Adult</text>
</g>
<!-- Adult::Child1 -->
<g id="node2" class="node"><title>Adult::Child1</title>
<path fill="none" stroke="blue" d="M12,-75C12,-75 80,-75 80,-75 86,-75 92,-81 92,-87 92,-87 92,-99 92,-99 92,-105 86,-111 80,-111 80,-111 12,-111 12,-111 6,-111 0,-105 0,-99 0,-99 0,-87 0,-87 0,-81 6,-75 12,-75"/>
<text text-anchor="middle" x="46" y="-89.3" font-family="Times,serif" font-size="14.00">Adult::Child1</text>
</g>
<!-- Adult::Child1&#45;&gt;Adult -->
<g id="edge1" class="edge"><title>Adult::Child1&#45;&gt;Adult</title>
<path fill="none" stroke="grey" d="M59.0342,-111.063C65.717,-119.811 73.9931,-130.646 81.4249,-140.374"/>
<polygon fill="grey" stroke="grey" points="78.8255,-142.737 87.6773,-148.559 84.3882,-138.488 78.8255,-142.737"/>
</g>
<!-- Adult::Child2 -->
<g id="node3" class="node"><title>Adult::Child2</title>
<path fill="none" stroke="blue" d="M122,-75C122,-75 190,-75 190,-75 196,-75 202,-81 202,-87 202,-87 202,-99 202,-99 202,-105 196,-111 190,-111 190,-111 122,-111 122,-111 116,-111 110,-105 110,-99 110,-99 110,-87 110,-87 110,-81 116,-75 122,-75"/>
<text text-anchor="middle" x="156" y="-89.3" font-family="Times,serif" font-size="14.00">Adult::Child2</text>
</g>
<!-- Adult::Child2&#45;&gt;Adult -->
<g id="edge2" class="edge"><title>Adult::Child2&#45;&gt;Adult</title>
<path fill="none" stroke="grey" d="M142.966,-111.063C136.283,-119.811 128.007,-130.646 120.575,-140.374"/>
<polygon fill="grey" stroke="grey" points="117.612,-138.488 114.323,-148.559 123.175,-142.737 117.612,-138.488"/>
</g>
<!-- Adult::Child::Grandchild -->
<g id="node4" class="node"><title>Adult::Child::Grandchild</title>
<path fill="none" stroke="blue" d="M24.5,-1C24.5,-1 153.5,-1 153.5,-1 159.5,-1 165.5,-7 165.5,-13 165.5,-13 165.5,-25 165.5,-25 165.5,-31 159.5,-37 153.5,-37 153.5,-37 24.5,-37 24.5,-37 18.5,-37 12.5,-31 12.5,-25 12.5,-25 12.5,-13 12.5,-13 12.5,-7 18.5,-1 24.5,-1"/>
<text text-anchor="middle" x="89" y="-15.3" font-family="Times,serif" font-size="14.00">Adult::Child::Grandchild</text>
</g>
<!-- Adult::Child::Grandchild&#45;&gt;Adult::Child1 -->
<g id="edge3" class="edge"><title>Adult::Child::Grandchild&#45;&gt;Adult::Child1</title>
<path fill="none" stroke="grey" d="M78.8096,-37.063C73.6904,-45.6346 67.3754,-56.2086 61.6571,-65.7835"/>
<polygon fill="grey" stroke="grey" points="58.5385,-64.1793 56.416,-74.5593 64.5483,-67.7685 58.5385,-64.1793"/>
</g>
<!-- Adult::Child::Grandchild&#45;&gt;Adult::Child2 -->
<g id="edge4" class="edge"><title>Adult::Child::Grandchild&#45;&gt;Adult::Child2</title>
<path fill="none" stroke="grey" d="M104.878,-37.063C113.183,-45.9881 123.509,-57.0841 132.701,-66.9627"/>
<polygon fill="grey" stroke="grey" points="130.396,-69.6229 139.77,-74.5593 135.52,-64.8543 130.396,-69.6229"/>
</g>
<!-- GoldenDelicious -->
<g id="node5" class="node"><title>GoldenDelicious</title>
<path fill="none" stroke="blue" d="M232,-75C232,-75 316,-75 316,-75 322,-75 328,-81 328,-87 328,-87 328,-99 328,-99 328,-105 322,-111 316,-111 316,-111 232,-111 232,-111 226,-111 220,-105 220,-99 220,-99 220,-87 220,-87 220,-81 226,-75 232,-75"/>
<text text-anchor="middle" x="274" y="-89.3" font-family="Times,serif" font-size="14.00">GoldenDelicious</text>
</g>
<!-- GrannySmith -->
<g id="node6" class="node"><title>GrannySmith</title>
<path fill="none" stroke="blue" d="M358,-75C358,-75 424,-75 424,-75 430,-75 436,-81 436,-87 436,-87 436,-99 436,-99 436,-105 430,-111 424,-111 424,-111 358,-111 358,-111 352,-111 346,-105 346,-99 346,-99 346,-87 346,-87 346,-81 352,-75 358,-75"/>
<text text-anchor="middle" x="391" y="-89.3" font-family="Times,serif" font-size="14.00">GrannySmith</text>
</g>
<!-- HybridVariety -->
<g id="node7" class="node"><title>HybridVariety</title>
<path fill="none" stroke="blue" d="M296.5,-1C296.5,-1 367.5,-1 367.5,-1 373.5,-1 379.5,-7 379.5,-13 379.5,-13 379.5,-25 379.5,-25 379.5,-31 373.5,-37 367.5,-37 367.5,-37 296.5,-37 296.5,-37 290.5,-37 284.5,-31 284.5,-25 284.5,-25 284.5,-13 284.5,-13 284.5,-7 290.5,-1 296.5,-1"/>
<text text-anchor="middle" x="332" y="-15.3" font-family="Times,serif" font-size="14.00">HybridVariety</text>
</g>
<!-- HybridVariety&#45;&gt;GoldenDelicious -->
<g id="edge5" class="edge"><title>HybridVariety&#45;&gt;GoldenDelicious</title>
<path fill="none" stroke="grey" d="M318.255,-37.063C311.136,-45.8997 302.304,-56.8646 294.406,-66.6689"/>
<polygon fill="grey" stroke="grey" points="291.597,-64.5761 288.049,-74.5593 297.048,-68.9674 291.597,-64.5761"/>
</g>
<!-- HybridVariety&#45;&gt;GrannySmith -->
<g id="edge6" class="edge"><title>HybridVariety&#45;&gt;GrannySmith</title>
<path fill="none" stroke="grey" d="M345.982,-37.063C353.223,-45.8997 362.209,-56.8646 370.243,-66.6689"/>
<polygon fill="grey" stroke="grey" points="367.663,-69.0429 376.708,-74.5593 373.077,-64.6061 367.663,-69.0429"/>
</g>
</g>
</svg>
