<?xml version="1.0" encoding="UTF-8" standalone="no"?>
<!DOCTYPE svg PUBLIC "-//W3C//DTD SVG 1.1//EN"
 "http://www.w3.org/Graphics/SVG/1.1/DTD/svg11.dtd">
<!-- Generated by graphviz version 2.26.3 (20100126.1600)
 -->
<!-- Title: Perl Pages: 1 -->
<svg width="3721pt" height="342pt"
 viewBox="0.00 0.00 3721.00 342.00" xmlns="http://www.w3.org/2000/svg" xmlns:xlink="http://www.w3.org/1999/xlink">
<g id="graph1" class="graph" transform="scale(1 1) rotate(0) translate(4 338)">
<title>Perl</title>
<polygon fill="white" stroke="white" points="-4,5 -4,-338 3718,-338 3718,5 -4,5"/>
<!-- Grammar -->
<g id="node1" class="node"><title>Grammar</title>
<ellipse fill="none" stroke="blue" cx="1361" cy="-315" rx="48.9975" ry="19.0919"/>
<text text-anchor="middle" x="1361" y="-311.9" font-family="Times Roman,serif" font-size="14.00">Grammar</text>
</g>
<!-- typename -->
<g id="node2" class="node"><title>typename</title>
<ellipse fill="none" stroke="blue" cx="30" cy="-19" rx="29.9071" ry="19.0919"/>
<text text-anchor="middle" x="30" y="-15.9" font-family="Times Roman,serif" font-size="14.00">&#39;int&#39; &#160;</text>
</g>
<!-- Grammar&#45;&gt;typename -->
<g id="edge2" class="edge"><title>Grammar&#45;&gt;typename</title>
<path fill="none" stroke="grey" d="M1311.95,-314.688C1080.39,-312.996 105.808,-303.312 59,-260 0.234239,-205.623 12.7205,-99.2221 23.0677,-47.9636"/>
<polygon fill="grey" stroke="grey" points="26.5509,-48.4117 25.2168,-37.9012 19.7052,-46.9496 26.5509,-48.4117"/>
</g>
<!-- the -->
<g id="node4" class="node"><title>the</title>
<ellipse fill="none" stroke="blue" cx="731" cy="-241" rx="31.8198" ry="19.0919"/>
<text text-anchor="middle" x="731" y="-237.9" font-family="Times Roman,serif" font-size="14.00">&#39;the&#39; &#160;</text>
</g>
<!-- Grammar&#45;&gt;the -->
<g id="edge4" class="edge"><title>Grammar&#45;&gt;the</title>
<path fill="none" stroke="grey" d="M1312.29,-312.586C1190.19,-306.195 873.635,-287.422 772,-260 769.548,-259.338 767.06,-258.54 764.585,-257.651"/>
<polygon fill="grey" stroke="grey" points="765.787,-254.362 755.204,-253.862 763.166,-260.852 765.787,-254.362"/>
</g>
<!-- a -->
<g id="node6" class="node"><title>a</title>
<ellipse fill="none" stroke="blue" cx="808" cy="-241" rx="27" ry="19.0919"/>
<text text-anchor="middle" x="808" y="-237.9" font-family="Times Roman,serif" font-size="14.00">&#39;a&#39; &#160;</text>
</g>
<!-- Grammar&#45;&gt;a -->
<g id="edge6" class="edge"><title>Grammar&#45;&gt;a</title>
<path fill="none" stroke="grey" d="M1312.66,-311.827C1202.5,-304.272 935.688,-284.037 849,-260 845.648,-259.07 842.226,-257.893 838.861,-256.581"/>
<polygon fill="grey" stroke="grey" points="840.197,-253.346 829.627,-252.623 837.439,-259.78 840.197,-253.346"/>
</g>
<!-- test1 -->
<g id="node8" class="node"><title>test1</title>
<ellipse fill="none" stroke="blue" cx="1195" cy="-241" rx="304.056" ry="19.0919"/>
<text text-anchor="middle" x="1195" y="-237.9" font-family="Times Roman,serif" font-size="14.00">&#39;(&#39; &#39;the&#39; &#39;$::first&#39; /te+st/ is _alternation_1_of_production_1_of_rule_test1(s?) &#160;</text>
</g>
<!-- Grammar&#45;&gt;test1 -->
<g id="edge12" class="edge"><title>Grammar&#45;&gt;test1</title>
<path fill="none" stroke="grey" d="M1328.6,-300.556C1305.3,-290.172 1273.41,-275.954 1246.63,-264.014"/>
<polygon fill="grey" stroke="grey" points="1247.95,-260.771 1237.39,-259.896 1245.1,-267.165 1247.95,-260.771"/>
</g>
<!-- is -->
<g id="node9" class="node"><title>is</title>
<ellipse fill="none" stroke="blue" cx="978" cy="-167" rx="46.1672" ry="19.0919"/>
<text text-anchor="middle" x="978" y="-163.9" font-family="Times Roman,serif" font-size="14.00">&#39;is&#39; &#160;&#39;are&#39; &#160;</text>
</g>
<!-- Grammar&#45;&gt;is -->
<g id="edge14" class="edge"><title>Grammar&#45;&gt;is</title>
<path fill="none" stroke="grey" d="M1311.97,-313C1195.6,-307.751 910.308,-291.745 882,-260 870.76,-247.395 873.531,-236.612 882,-222 892.712,-203.518 912.234,-190.714 930.89,-182.143"/>
<polygon fill="grey" stroke="grey" points="932.404,-185.302 940.225,-178.155 929.654,-178.865 932.404,-185.302"/>
</g>
<!-- _alternation_1_of_production_1_of_rule_test1 -->
<g id="node11" class="node"><title>_alternation_1_of_production_1_of_rule_test1</title>
<ellipse fill="none" stroke="blue" cx="1361" cy="-167" rx="36.977" ry="19.0919"/>
<text text-anchor="middle" x="1361" y="-163.9" font-family="Times Roman,serif" font-size="14.00">&#39;easy&#39; &#160;</text>
</g>
<!-- Grammar&#45;&gt;_alternation_1_of_production_1_of_rule_test1 -->
<g id="edge34" class="edge"><title>Grammar&#45;&gt;_alternation_1_of_production_1_of_rule_test1</title>
<path fill="none" stroke="grey" d="M1403,-304.962C1441.94,-294.706 1495.65,-277.801 1508,-260 1517.62,-246.122 1517.62,-235.878 1508,-222 1495.85,-204.478 1443.61,-187.823 1404.84,-177.524"/>
<polygon fill="grey" stroke="grey" points="1405.37,-174.045 1394.81,-174.919 1403.61,-180.82 1405.37,-174.045"/>
</g>
<!-- test2 -->
<g id="node15" class="node"><title>test2</title>
<ellipse fill="none" stroke="blue" cx="1709" cy="-241" rx="154.149" ry="19.0919"/>
<text text-anchor="middle" x="1709" y="-237.9" font-family="Times Roman,serif" font-size="14.00">$arg{article} $arg[3][$arg{sound}] &#160;</text>
</g>
<!-- Grammar&#45;&gt;test2 -->
<g id="edge16" class="edge"><title>Grammar&#45;&gt;test2</title>
<path fill="none" stroke="grey" d="M1404.02,-305.852C1458.01,-294.371 1551.94,-274.398 1621.33,-259.642"/>
<polygon fill="grey" stroke="grey" points="1622.33,-263.008 1631.38,-257.505 1620.87,-256.161 1622.33,-263.008"/>
</g>
<!-- test5 -->
<g id="node17" class="node"><title>test5</title>
<ellipse fill="none" stroke="blue" cx="2020" cy="-241" rx="101.116" ry="19.0919"/>
<text text-anchor="middle" x="2020" y="-237.9" font-family="Times Roman,serif" font-size="14.00">name notname &#160;name &#160;</text>
</g>
<!-- Grammar&#45;&gt;test5 -->
<g id="edge22" class="edge"><title>Grammar&#45;&gt;test5</title>
<path fill="none" stroke="grey" d="M1409.15,-311.158C1504.17,-303.348 1722.45,-284.284 1905,-260 1915.03,-258.665 1925.53,-257.127 1935.94,-255.515"/>
<polygon fill="grey" stroke="grey" points="1936.53,-258.965 1945.87,-253.952 1935.45,-252.05 1936.53,-258.965"/>
</g>
<!-- name -->
<g id="node18" class="node"><title>name</title>
<ellipse fill="none" stroke="blue" cx="1900" cy="-167" rx="34.8574" ry="19.0919"/>
<text text-anchor="middle" x="1900" y="-163.9" font-family="Times Roman,serif" font-size="14.00">&#39;fred&#39; &#160;</text>
</g>
<!-- Grammar&#45;&gt;name -->
<g id="edge40" class="edge"><title>Grammar&#45;&gt;name</title>
<path fill="none" stroke="grey" d="M1410.01,-312.777C1531.05,-306.863 1836.86,-289.171 1872,-260 1890.54,-244.615 1897.1,-217.438 1899.29,-196.422"/>
<polygon fill="grey" stroke="grey" points="1902.78,-196.623 1900.06,-186.385 1895.8,-196.088 1902.78,-196.623"/>
</g>
<!-- notname -->
<g id="node20" class="node"><title>notname</title>
<ellipse fill="none" stroke="blue" cx="2084" cy="-167" rx="56.7776" ry="19.0919"/>
<text text-anchor="middle" x="2084" y="-163.9" font-family="Times Roman,serif" font-size="14.00">/[a&#45;z]\w*/i &#160;</text>
</g>
<!-- Grammar&#45;&gt;notname -->
<g id="edge42" class="edge"><title>Grammar&#45;&gt;notname</title>
<path fill="none" stroke="grey" d="M1409.94,-313.318C1575.46,-307.397 2105.39,-286.435 2130,-260 2148.18,-240.478 2129.93,-212.423 2111.32,-192.239"/>
<polygon fill="grey" stroke="grey" points="2113.71,-189.678 2104.25,-184.923 2108.68,-194.544 2113.71,-189.678"/>
</g>
<!-- cat -->
<g id="node23" class="node"><title>cat</title>
<ellipse fill="none" stroke="blue" cx="2325" cy="-241" rx="147.785" ry="19.0919"/>
<text text-anchor="middle" x="2325" y="-237.9" font-family="Times Roman,serif" font-size="14.00">&lt;reject: $arg[0] ne &#39;meows&#39;&gt; &#39;cat&#39; &#160;&#160;</text>
</g>
<!-- Grammar&#45;&gt;cat -->
<g id="edge24" class="edge"><title>Grammar&#45;&gt;cat</title>
<path fill="none" stroke="grey" d="M1409.89,-312.471C1535.21,-305.811 1878.12,-286.459 2163,-260 2177.69,-258.636 2193.11,-257.04 2208.35,-255.364"/>
<polygon fill="grey" stroke="grey" points="2208.78,-258.838 2218.33,-254.252 2208,-251.881 2208.78,-258.838"/>
</g>
<!-- typedef -->
<g id="node25" class="node"><title>typedef</title>
<ellipse fill="none" stroke="blue" cx="464" cy="-93" rx="106.98" ry="19.0919"/>
<text text-anchor="middle" x="464" y="-89.9" font-family="Times Roman,serif" font-size="14.00">&#39;type&#39; id &#39;is&#39; typename &#39;;&#39; &#160;</text>
</g>
<!-- Grammar&#45;&gt;typedef -->
<g id="edge30" class="edge"><title>Grammar&#45;&gt;typedef</title>
<path fill="none" stroke="grey" d="M1311.84,-313.903C1156.83,-310.091 685.149,-295.649 627,-260 577.353,-229.563 600.605,-188.746 559,-148 545.911,-135.181 529.256,-124.234 513.559,-115.56"/>
<polygon fill="grey" stroke="grey" points="514.934,-112.327 504.461,-110.719 511.645,-118.507 514.934,-112.327"/>
</g>
<!-- id -->
<g id="node26" class="node"><title>id</title>
<ellipse fill="none" stroke="blue" cx="659" cy="-19" rx="581.242" ry="19.0919"/>
<text text-anchor="middle" x="659" y="-15.9" font-family="Times Roman,serif" font-size="14.00">/[a&#45;z]		# LEADING ALPHABETIC\n		 &#160;\w*		# FOLLOWED BY ALPHAS, DIGITS, OR UNDERSCORES\n		 /ix &#160;</text>
</g>
<!-- Grammar&#45;&gt;id -->
<g id="edge32" class="edge"><title>Grammar&#45;&gt;id</title>
<path fill="none" stroke="grey" d="M1311.8,-314.468C1164.55,-312.402 734.75,-302.731 690,-260 660.191,-231.536 657.827,-106.11 658.378,-48.3299"/>
<polygon fill="grey" stroke="grey" points="661.881,-48.0907 658.514,-38.0452 654.882,-47.9979 661.881,-48.0907"/>
</g>
<!-- test7 -->
<g id="node32" class="node"><title>test7</title>
<ellipse fill="none" stroke="blue" cx="2573" cy="-241" rx="82.2301" ry="19.0919"/>
<text text-anchor="middle" x="2573" y="-237.9" font-family="Times Roman,serif" font-size="14.00">&#39;x&#39; &lt;resync&gt; /y+/ &#160;</text>
</g>
<!-- Grammar&#45;&gt;test7 -->
<g id="edge36" class="edge"><title>Grammar&#45;&gt;test7</title>
<path fill="none" stroke="grey" d="M1409.93,-313.622C1597.39,-308.184 2269.88,-287.177 2482,-260 2489.46,-259.044 2497.21,-257.808 2504.91,-256.423"/>
<polygon fill="grey" stroke="grey" points="2505.8,-259.819 2514.98,-254.53 2504.5,-252.94 2505.8,-259.819"/>
</g>
<!-- fail -->
<g id="node34" class="node"><title>fail</title>
<ellipse fill="none" stroke="blue" cx="616" cy="-93" rx="27" ry="19.0919"/>
<text text-anchor="middle" x="616" y="-89.9" font-family="Times Roman,serif" font-size="14.00"> </text>
</g>
<!-- Grammar&#45;&gt;fail -->
<g id="edge38" class="edge"><title>Grammar&#45;&gt;fail</title>
<path fill="none" stroke="grey" d="M1311.76,-314.435C1160.01,-312.247 706.703,-302.206 657,-260 617.233,-226.232 612.653,-160.749 613.751,-122.584"/>
<polygon fill="grey" stroke="grey" points="617.268,-122.282 614.214,-112.137 610.275,-121.972 617.268,-122.282"/>
</g>
<!-- _alternation_1_of_production_1_of_rule_test3 -->
<g id="node38" class="node"><title>_alternation_1_of_production_1_of_rule_test3</title>
<ellipse fill="none" stroke="blue" cx="464" cy="-167" rx="85.7684" ry="19.0919"/>
<text text-anchor="middle" x="464" y="-163.9" font-family="Times Roman,serif" font-size="14.00">defn &#160;typedef &#160;fail &#160;</text>
</g>
<!-- Grammar&#45;&gt;_alternation_1_of_production_1_of_rule_test3 -->
<g id="edge50" class="edge"><title>Grammar&#45;&gt;_alternation_1_of_production_1_of_rule_test3</title>
<path fill="none" stroke="grey" d="M1312.01,-313.372C1151.54,-307.786 648.212,-288.185 581,-260 557.48,-250.137 557.808,-238.066 538,-222 525.15,-211.578 510.614,-200.606 497.847,-191.227"/>
<polygon fill="grey" stroke="grey" points="499.889,-188.385 489.749,-185.316 495.762,-194.039 499.889,-188.385"/>
</g>
<!-- defn -->
<g id="node39" class="node"><title>defn</title>
<ellipse fill="none" stroke="blue" cx="193" cy="-93" rx="118.087" ry="19.0919"/>
<text text-anchor="middle" x="193" y="-89.9" font-family="Times Roman,serif" font-size="14.00">&#39;var&#39; id &#39;holds&#39; typename &#39;;&#39; &#160;</text>
</g>
<!-- Grammar&#45;&gt;defn -->
<g id="edge58" class="edge"><title>Grammar&#45;&gt;defn</title>
<path fill="none" stroke="grey" d="M1311.72,-314.775C1081.29,-313.487 119.496,-305.397 76,-260 32.4495,-214.546 105.854,-151.661 154.747,-117.493"/>
<polygon fill="grey" stroke="grey" points="156.989,-120.2 163.258,-111.659 153.031,-114.426 156.989,-120.2"/>
</g>
<!-- test6 -->
<g id="node44" class="node"><title>test6</title>
<ellipse fill="none" stroke="blue" cx="3078" cy="-241" rx="405.172" ry="19.0919"/>
<text text-anchor="middle" x="3078" y="-237.9" font-family="Times Roman,serif" font-size="14.00">&lt;rulevar: $test6 = 1&gt; &#160;&#39;a&#39; &lt;commit&gt; &#39;b&#39; &lt;uncommit&gt; &#39;c&#39; &lt;reject: $test6 &amp;&amp; $text&gt; &#160;&#39;a&#39; &#160;&lt;uncommit&gt; &#160;</text>
</g>
<!-- Grammar&#45;&gt;test6 -->
<g id="edge52" class="edge"><title>Grammar&#45;&gt;test6</title>
<path fill="none" stroke="grey" d="M1409.81,-313.004C1581.64,-305.966 2174.57,-281.56 2664,-260 2701.36,-258.354 2740.62,-256.593 2779.47,-254.832"/>
<polygon fill="grey" stroke="grey" points="2780.04,-258.31 2789.87,-254.36 2779.72,-251.317 2780.04,-258.31"/>
</g>
<!-- b -->
<g id="node49" class="node"><title>b</title>
<ellipse fill="none" stroke="blue" cx="3547" cy="-167" rx="27" ry="19.0919"/>
<text text-anchor="middle" x="3547" y="-163.9" font-family="Times Roman,serif" font-size="14.00">&#39;b&#39; &#160;</text>
</g>
<!-- Grammar&#45;&gt;b -->
<g id="edge60" class="edge"><title>Grammar&#45;&gt;b</title>
<path fill="none" stroke="grey" d="M1410.15,-314.387C1724.84,-310.38 3445.62,-287.253 3492,-260 3515.84,-245.99 3530.46,-217.275 3538.58,-195.437"/>
<polygon fill="grey" stroke="grey" points="3541.89,-196.56 3541.86,-185.965 3535.28,-194.269 3541.89,-196.56"/>
</g>
<!-- dog -->
<g id="node51" class="node"><title>dog</title>
<ellipse fill="none" stroke="blue" cx="3679" cy="-241" rx="34.1461" ry="19.0919"/>
<text text-anchor="middle" x="3679" y="-237.9" font-family="Times Roman,serif" font-size="14.00">&#39;dog&#39; &#160;</text>
</g>
<!-- Grammar&#45;&gt;dog -->
<g id="edge62" class="edge"><title>Grammar&#45;&gt;dog</title>
<path fill="none" stroke="grey" d="M1410.07,-314.356C1731.25,-310.076 3523.71,-285.124 3636,-260 3638.84,-259.365 3641.72,-258.539 3644.57,-257.587"/>
<polygon fill="grey" stroke="grey" points="3646,-260.791 3654.1,-253.962 3643.51,-254.249 3646,-260.791"/>
</g>
<!-- test4 -->
<g id="node53" class="node"><title>test4</title>
<ellipse fill="none" stroke="blue" cx="3583" cy="-241" rx="43.8406" ry="19.0919"/>
<text text-anchor="middle" x="3583" y="-237.9" font-family="Times Roman,serif" font-size="14.00">&#39;a&#39; b /c/ &#160;</text>
</g>
<!-- Grammar&#45;&gt;test4 -->
<g id="edge66" class="edge"><title>Grammar&#45;&gt;test4</title>
<path fill="none" stroke="grey" d="M1410.29,-314.606C1712.63,-312.077 3310.55,-297.03 3525,-260 3530.03,-259.132 3535.21,-257.919 3540.32,-256.52"/>
<polygon fill="grey" stroke="grey" points="3541.4,-259.851 3549.99,-253.646 3539.41,-253.141 3541.4,-259.851"/>
</g>
<!-- test3 -->
<g id="node56" class="node"><title>test3</title>
<ellipse fill="none" stroke="blue" cx="307" cy="-241" rx="222.032" ry="19.0919"/>
<text text-anchor="middle" x="307" y="-237.9" font-family="Times Roman,serif" font-size="14.00">_alternation_1_of_production_1_of_rule_test3(5..10) &#160;</text>
</g>
<!-- Grammar&#45;&gt;test3 -->
<g id="edge70" class="edge"><title>Grammar&#45;&gt;test3</title>
<path fill="none" stroke="grey" d="M1312.58,-311.968C1186.04,-303.997 835.058,-281.574 543,-260 521.76,-258.431 499.449,-256.719 477.373,-254.986"/>
<polygon fill="grey" stroke="grey" points="477.494,-251.484 467.25,-254.188 476.945,-258.463 477.494,-251.484"/>
</g>
<!-- test1&#45;&gt;is -->
<g id="edge8" class="edge"><title>test1&#45;&gt;is</title>
<path fill="none" stroke="grey" d="M1139.96,-222.231C1103.85,-209.916 1057.2,-194.008 1023.25,-182.431"/>
<polygon fill="grey" stroke="grey" points="1024.18,-179.051 1013.59,-179.136 1021.92,-185.676 1024.18,-179.051"/>
</g>
<!-- test1&#45;&gt;_alternation_1_of_production_1_of_rule_test1 -->
<g id="edge10" class="edge"><title>test1&#45;&gt;_alternation_1_of_production_1_of_rule_test1</title>
<path fill="none" stroke="grey" d="M1237.32,-222.135C1263.89,-210.289 1297.86,-195.146 1323.47,-183.729"/>
<polygon fill="grey" stroke="grey" points="1325.14,-186.819 1332.85,-179.55 1322.29,-180.425 1325.14,-186.819"/>
</g>
<!-- test5&#45;&gt;name -->
<g id="edge18" class="edge"><title>test5&#45;&gt;name</title>
<path fill="none" stroke="grey" d="M1990.34,-222.708C1972.72,-211.847 1950.38,-198.067 1932.32,-186.93"/>
<polygon fill="grey" stroke="grey" points="1933.66,-183.646 1923.31,-181.376 1929.99,-189.604 1933.66,-183.646"/>
</g>
<!-- test5&#45;&gt;notname -->
<g id="edge20" class="edge"><title>test5&#45;&gt;notname</title>
<path fill="none" stroke="grey" d="M2036.48,-221.943C2044.06,-213.178 2053.18,-202.64 2061.39,-193.147"/>
<polygon fill="grey" stroke="grey" points="2064.12,-195.334 2068.02,-185.481 2058.83,-190.755 2064.12,-195.334"/>
</g>
<!-- typedef&#45;&gt;typename -->
<g id="edge28" class="edge"><title>typedef&#45;&gt;typename</title>
<path fill="none" stroke="grey" d="M378.868,-81.4842C264.985,-66.031 76.3784,-40.2489 69,-38 66.6901,-37.296 64.347,-36.4702 62.0153,-35.5644"/>
<polygon fill="grey" stroke="grey" points="63.176,-32.2531 52.6083,-31.4955 60.397,-38.6778 63.176,-32.2531"/>
</g>
<!-- typedef&#45;&gt;id -->
<g id="edge26" class="edge"><title>typedef&#45;&gt;id</title>
<path fill="none" stroke="grey" d="M509.719,-75.6503C536.419,-65.5179 570.418,-52.6157 599.223,-41.6845"/>
<polygon fill="grey" stroke="grey" points="600.667,-44.8802 608.775,-38.0598 598.183,-38.3356 600.667,-44.8802"/>
</g>
<!-- _alternation_1_of_production_1_of_rule_test3&#45;&gt;typedef -->
<g id="edge46" class="edge"><title>_alternation_1_of_production_1_of_rule_test3&#45;&gt;typedef</title>
<path fill="none" stroke="grey" d="M464,-147.943C464,-140.149 464,-130.954 464,-122.338"/>
<polygon fill="grey" stroke="grey" points="467.5,-122.249 464,-112.249 460.5,-122.249 467.5,-122.249"/>
</g>
<!-- _alternation_1_of_production_1_of_rule_test3&#45;&gt;fail -->
<g id="edge48" class="edge"><title>_alternation_1_of_production_1_of_rule_test3&#45;&gt;fail</title>
<path fill="none" stroke="grey" d="M501.288,-149.816C524.129,-139.167 553.892,-125.071 580,-112 581.754,-111.122 583.55,-110.211 585.359,-109.285"/>
<polygon fill="grey" stroke="grey" points="587.112,-112.318 594.376,-104.605 583.888,-106.105 587.112,-112.318"/>
</g>
<!-- _alternation_1_of_production_1_of_rule_test3&#45;&gt;defn -->
<g id="edge44" class="edge"><title>_alternation_1_of_production_1_of_rule_test3&#45;&gt;defn</title>
<path fill="none" stroke="grey" d="M409.81,-152.203C367.647,-140.69 308.815,-124.625 263.072,-112.134"/>
<polygon fill="grey" stroke="grey" points="263.795,-108.703 253.226,-109.446 261.951,-115.456 263.795,-108.703"/>
</g>
<!-- defn&#45;&gt;typename -->
<g id="edge56" class="edge"><title>defn&#45;&gt;typename</title>
<path fill="none" stroke="grey" d="M151.782,-75.1595C127.574,-64.5718 96.4387,-50.764 69,-38 67.0025,-37.0708 64.9524,-36.1059 62.8877,-35.1256"/>
<polygon fill="grey" stroke="grey" points="64.3901,-31.9645 53.8603,-30.7919 61.3606,-38.275 64.3901,-31.9645"/>
</g>
<!-- defn&#45;&gt;id -->
<g id="edge54" class="edge"><title>defn&#45;&gt;id</title>
<path fill="none" stroke="grey" d="M277.119,-79.642C348.016,-68.3837 450.558,-52.1002 531.537,-39.2409"/>
<polygon fill="grey" stroke="grey" points="532.477,-42.6355 541.805,-37.6104 531.379,-35.7222 532.477,-42.6355"/>
</g>
<!-- test4&#45;&gt;b -->
<g id="edge64" class="edge"><title>test4&#45;&gt;b</title>
<path fill="none" stroke="grey" d="M3573.92,-222.327C3569.8,-213.874 3564.86,-203.714 3560.34,-194.42"/>
<polygon fill="grey" stroke="grey" points="3563.35,-192.617 3555.83,-185.156 3557.06,-195.679 3563.35,-192.617"/>
</g>
<!-- test3&#45;&gt;_alternation_1_of_production_1_of_rule_test3 -->
<g id="edge68" class="edge"><title>test3&#45;&gt;_alternation_1_of_production_1_of_rule_test3</title>
<path fill="none" stroke="grey" d="M347.024,-222.135C368.646,-211.944 395.443,-199.314 417.931,-188.714"/>
<polygon fill="grey" stroke="grey" points="419.724,-191.738 427.277,-184.309 416.739,-185.406 419.724,-191.738"/>
</g>
</g>
</svg>
