<?xml version="1.0" encoding="UTF-8" standalone="no"?>
<!DOCTYPE svg PUBLIC "-//W3C//DTD SVG 1.1//EN"
 "http://www.w3.org/Graphics/SVG/1.1/DTD/svg11.dtd">
<!-- Generated by graphviz version 2.37.20140310.0445 (20140310.0445)
 -->
<!-- Title: Perl Pages: 1 -->
<svg width="228pt" height="487pt"
 viewBox="0.00 0.00 228.00 486.72" xmlns="http://www.w3.org/2000/svg" xmlns:xlink="http://www.w3.org/1999/xlink">
<g id="graph0" class="graph" transform="scale(1 1) rotate(0) translate(4 482.716)">
<title>Perl</title>
<polygon fill="white" stroke="none" points="-4,4 -4,-482.716 224,-482.716 224,4 -4,4"/>
<!-- list -->
<g id="node1" class="node"><title>list</title>
<path fill="none" stroke="blue" d="M62,-321.216C62,-321.216 140,-321.216 140,-321.216 146,-321.216 152,-327.216 152,-333.216 152,-333.216 152,-392.216 152,-392.216 152,-398.216 146,-404.216 140,-404.216 140,-404.216 62,-404.216 62,-404.216 56,-404.216 50,-398.216 50,-392.216 50,-392.216 50,-333.216 50,-333.216 50,-327.216 56,-321.216 62,-321.216"/>
<text text-anchor="middle" x="66.5" y="-359.016" font-family="Times,serif" font-size="14.00">list</text>
<polyline fill="none" stroke="blue" points="83,-321.216 83,-404.216 "/>
<text text-anchor="middle" x="117.5" y="-389.016" font-family="Times,serif" font-size="14.00">(empty) </text>
<text text-anchor="middle" x="117.5" y="-374.016" font-family="Times,serif" font-size="14.00">list stat &#39;</text>
<text text-anchor="middle" x="117.5" y="-359.016" font-family="Times,serif" font-size="14.00">&#39; </text>
<text text-anchor="middle" x="117.5" y="-344.016" font-family="Times,serif" font-size="14.00">list error &#39;</text>
<text text-anchor="middle" x="117.5" y="-329.016" font-family="Times,serif" font-size="14.00">&#39; </text>
</g>
<!-- list&#45;&gt;list -->
<g id="edge1" class="edge"><title>list&#45;&gt;list</title>
<path fill="none" stroke="grey" d="M152.007,-379.916C161.944,-377.918 169,-372.185 169,-362.716 169,-356.651 166.104,-352.118 161.41,-349.118"/>
<polygon fill="grey" stroke="grey" points="162.597,-345.825 152.007,-345.517 160.094,-352.362 162.597,-345.825"/>
</g>
<!-- stat -->
<g id="node2" class="node"><title>stat</title>
<path fill="none" stroke="blue" d="M38,-245.716C38,-245.716 164,-245.716 164,-245.716 170,-245.716 176,-251.716 176,-257.716 176,-257.716 176,-271.716 176,-271.716 176,-277.716 170,-283.716 164,-283.716 164,-283.716 38,-283.716 38,-283.716 32,-283.716 26,-277.716 26,-271.716 26,-271.716 26,-257.716 26,-257.716 26,-251.716 32,-245.716 38,-245.716"/>
<text text-anchor="middle" x="43.5" y="-261.016" font-family="Times,serif" font-size="14.00">stat</text>
<polyline fill="none" stroke="blue" points="61,-245.716 61,-283.716 "/>
<text text-anchor="middle" x="118.5" y="-268.516" font-family="Times,serif" font-size="14.00">expr </text>
<text text-anchor="middle" x="118.5" y="-253.516" font-family="Times,serif" font-size="14.00">LETTER &#39;=&#39; expr </text>
</g>
<!-- list&#45;&gt;stat -->
<g id="edge2" class="edge"><title>list&#45;&gt;stat</title>
<path fill="none" stroke="grey" d="M101,-321.004C101,-311.877 101,-302.391 101,-293.906"/>
<polygon fill="grey" stroke="grey" points="104.5,-293.796 101,-283.796 97.5001,-293.796 104.5,-293.796"/>
</g>
<!-- expr -->
<g id="node3" class="node"><title>expr</title>
<path fill="none" stroke="blue" d="M11,-79.7165C11,-79.7165 191,-79.7165 191,-79.7165 197,-79.7165 203,-85.7165 203,-91.7165 203,-91.7165 203,-195.716 203,-195.716 203,-201.716 197,-207.716 191,-207.716 191,-207.716 11,-207.716 11,-207.716 5,-207.716 -1,-201.716 -1,-195.716 -1,-195.716 -1,-91.7165 -1,-91.7165 -1,-85.7165 5,-79.7165 11,-79.7165"/>
<text text-anchor="middle" x="19.5" y="-140.016" font-family="Times,serif" font-size="14.00">expr</text>
<polyline fill="none" stroke="blue" points="40,-79.7165 40,-207.716 "/>
<text text-anchor="middle" x="86" y="-192.516" font-family="Times,serif" font-size="14.00">&#39;(&#39; expr &#39;)&#39; </text>
<text text-anchor="middle" x="86" y="-177.516" font-family="Times,serif" font-size="14.00">expr &#39;+&#39; expr </text>
<text text-anchor="middle" x="86" y="-162.516" font-family="Times,serif" font-size="14.00">expr &#39;&#45;&#39; expr </text>
<text text-anchor="middle" x="86" y="-147.516" font-family="Times,serif" font-size="14.00">expr &#39;*&#39; expr </text>
<text text-anchor="middle" x="86" y="-132.516" font-family="Times,serif" font-size="14.00">expr &#39;/&#39; expr </text>
<text text-anchor="middle" x="86" y="-117.516" font-family="Times,serif" font-size="14.00">expr &#39;%&#39; expr </text>
<text text-anchor="middle" x="86" y="-102.516" font-family="Times,serif" font-size="14.00">expr &#39;&amp;&#39; expr </text>
<text text-anchor="middle" x="86" y="-87.5165" font-family="Times,serif" font-size="14.00">expr &#39;</text>
<polyline fill="none" stroke="blue" points="132,-79.7165 132,-207.716 "/>
<text text-anchor="middle" x="167.5" y="-162.516" font-family="Times,serif" font-size="14.00">&#39; expr </text>
<text text-anchor="middle" x="167.5" y="-147.516" font-family="Times,serif" font-size="14.00">&#39;&#45;&#39; expr </text>
<text text-anchor="middle" x="167.5" y="-132.516" font-family="Times,serif" font-size="14.00">LETTER </text>
<text text-anchor="middle" x="167.5" y="-117.516" font-family="Times,serif" font-size="14.00">number </text>
</g>
<!-- stat&#45;&gt;expr -->
<g id="edge5" class="edge"><title>stat&#45;&gt;expr</title>
<path fill="none" stroke="grey" d="M101,-245.643C101,-237.809 101,-228.072 101,-217.763"/>
<polygon fill="grey" stroke="grey" points="104.5,-217.746 101,-207.746 97.5001,-217.746 104.5,-217.746"/>
</g>
<!-- expr&#45;&gt;expr -->
<g id="edge4" class="edge"><title>expr&#45;&gt;expr</title>
<path fill="none" stroke="grey" d="M203.407,-162.062C213.549,-158.386 220,-152.271 220,-143.716 220,-138.102 217.222,-133.539 212.445,-130.026"/>
<polygon fill="grey" stroke="grey" points="213.899,-126.838 203.407,-125.371 210.694,-133.061 213.899,-126.838"/>
</g>
<!-- number -->
<g id="node4" class="node"><title>number</title>
<path fill="none" stroke="blue" d="M32,-3.71649C32,-3.71649 170,-3.71649 170,-3.71649 176,-3.71649 182,-9.71649 182,-15.7165 182,-15.7165 182,-29.7165 182,-29.7165 182,-35.7165 176,-41.7165 170,-41.7165 170,-41.7165 32,-41.7165 32,-41.7165 26,-41.7165 20,-35.7165 20,-29.7165 20,-29.7165 20,-15.7165 20,-15.7165 20,-9.71649 26,-3.71649 32,-3.71649"/>
<text text-anchor="middle" x="49.5" y="-19.0165" font-family="Times,serif" font-size="14.00">number</text>
<polyline fill="none" stroke="blue" points="79,-3.71649 79,-41.7165 "/>
<text text-anchor="middle" x="130.5" y="-26.5165" font-family="Times,serif" font-size="14.00">DIGIT </text>
<text text-anchor="middle" x="130.5" y="-11.5165" font-family="Times,serif" font-size="14.00">number DIGIT </text>
</g>
<!-- expr&#45;&gt;number -->
<g id="edge3" class="edge"><title>expr&#45;&gt;number</title>
<path fill="none" stroke="grey" d="M101,-79.3839C101,-69.8126 101,-60.374 101,-52.0645"/>
<polygon fill="grey" stroke="grey" points="104.5,-51.875 101,-41.875 97.5001,-51.875 104.5,-51.875"/>
</g>
<!-- number&#45;&gt;number -->
<g id="edge6" class="edge"><title>number&#45;&gt;number</title>
<path fill="none" stroke="grey" d="M137.554,-41.7833C168.092,-49.9315 200,-43.5759 200,-22.7165 200,-4.13861 174.69,2.93468 147.58,-1.49661"/>
<polygon fill="grey" stroke="grey" points="146.597,1.87205 137.554,-3.64972 148.066,-4.97191 146.597,1.87205"/>
</g>
<!-- $accept -->
<g id="node5" class="node"><title>$accept</title>
<path fill="none" stroke="blue" d="M50.5,-441.716C50.5,-441.716 151.5,-441.716 151.5,-441.716 157.5,-441.716 163.5,-447.716 163.5,-453.716 163.5,-453.716 163.5,-465.716 163.5,-465.716 163.5,-471.716 157.5,-477.716 151.5,-477.716 151.5,-477.716 50.5,-477.716 50.5,-477.716 44.5,-477.716 38.5,-471.716 38.5,-465.716 38.5,-465.716 38.5,-453.716 38.5,-453.716 38.5,-447.716 44.5,-441.716 50.5,-441.716"/>
<text text-anchor="middle" x="67.5" y="-456.016" font-family="Times,serif" font-size="14.00">$accept</text>
<polyline fill="none" stroke="blue" points="96.5,-441.716 96.5,-477.716 "/>
<text text-anchor="middle" x="130" y="-456.016" font-family="Times,serif" font-size="14.00">list $end </text>
</g>
<!-- $accept&#45;&gt;list -->
<g id="edge7" class="edge"><title>$accept&#45;&gt;list</title>
<path fill="none" stroke="grey" d="M101,-441.292C101,-433.579 101,-424.07 101,-414.383"/>
<polygon fill="grey" stroke="grey" points="104.5,-414.293 101,-404.294 97.5001,-414.294 104.5,-414.293"/>
</g>
</g>
</svg>
