<?xml version="1.0" encoding="UTF-8" standalone="no"?>
<!DOCTYPE svg PUBLIC "-//W3C//DTD SVG 1.1//EN"
 "http://www.w3.org/Graphics/SVG/1.1/DTD/svg11.dtd">
<!-- Generated by graphviz version 2.30.1 (20130611.0131)
 -->
<!-- Title: Perl Pages: 1 -->
<svg width="3464pt" height="332pt"
 viewBox="0.00 0.00 3464.00 332.00" xmlns="http://www.w3.org/2000/svg" xmlns:xlink="http://www.w3.org/1999/xlink">
<g id="graph0" class="graph" transform="scale(1 1) rotate(0) translate(4 328)">
<title>Perl</title>
<polygon fill="white" stroke="white" points="-4,5 -4,-328 3461,-328 3461,5 -4,5"/>
<!-- Grammar -->
<g id="node1" class="node"><title>Grammar</title>
<ellipse fill="none" stroke="blue" cx="1271" cy="-306" rx="45.244" ry="18"/>
<text text-anchor="middle" x="1271" y="-302.3" font-family="Times,serif" font-size="14.00">Grammar</text>
</g>
<!-- typename -->
<g id="node2" class="node"><title>typename</title>
<ellipse fill="none" stroke="blue" cx="27" cy="-18" rx="27.4223" ry="18"/>
<text text-anchor="middle" x="27" y="-14.3" font-family="Times,serif" font-size="14.00">&#39;int&#39; &#160;</text>
</g>
<!-- Grammar&#45;&gt;typename -->
<g id="edge1" class="edge"><title>Grammar&#45;&gt;typename</title>
<path fill="none" stroke="grey" d="M1225.71,-304.679C1009.77,-302.941 93.4859,-293.157 50,-252 -6.52073,-198.506 8.63395,-94.7085 19.8694,-45.7663"/>
<polygon fill="grey" stroke="grey" points="23.3018,-46.4628 22.2495,-35.9204 16.4978,-44.818 23.3018,-46.4628"/>
</g>
<!-- the -->
<g id="node3" class="node"><title>the</title>
<ellipse fill="none" stroke="blue" cx="682" cy="-234" rx="29.3722" ry="18"/>
<text text-anchor="middle" x="682" y="-230.3" font-family="Times,serif" font-size="14.00">&#39;the&#39; &#160;</text>
</g>
<!-- Grammar&#45;&gt;the -->
<g id="edge2" class="edge"><title>Grammar&#45;&gt;the</title>
<path fill="none" stroke="grey" d="M1225.49,-305.558C1130.08,-305.661 902.808,-300.294 720,-252 717.701,-251.393 715.365,-250.66 713.039,-249.846"/>
<polygon fill="grey" stroke="grey" points="714.248,-246.56 703.662,-246.139 711.675,-253.07 714.248,-246.56"/>
</g>
<!-- a -->
<g id="node4" class="node"><title>a</title>
<ellipse fill="none" stroke="blue" cx="756" cy="-234" rx="27" ry="18"/>
<text text-anchor="middle" x="756" y="-230.3" font-family="Times,serif" font-size="14.00">&#39;a&#39; &#160;</text>
</g>
<!-- Grammar&#45;&gt;a -->
<g id="edge3" class="edge"><title>Grammar&#45;&gt;a</title>
<path fill="none" stroke="grey" d="M1225.8,-304.157C1140.6,-301.649 950.955,-291.673 797,-252 793.614,-251.127 790.141,-250.03 786.717,-248.815"/>
<polygon fill="grey" stroke="grey" points="787.902,-245.521 777.313,-245.168 785.371,-252.047 787.902,-245.521"/>
</g>
<!-- test1 -->
<g id="node5" class="node"><title>test1</title>
<ellipse fill="none" stroke="blue" cx="1118" cy="-234" rx="279.213" ry="18"/>
<text text-anchor="middle" x="1118" y="-230.3" font-family="Times,serif" font-size="14.00">&#39;(&#39; &#39;the&#39; &#39;$::first&#39; /te+st/ is _alternation_1_of_production_1_of_rule_test1(s?) &#160;</text>
</g>
<!-- Grammar&#45;&gt;test1 -->
<g id="edge6" class="edge"><title>Grammar&#45;&gt;test1</title>
<path fill="none" stroke="grey" d="M1242.22,-291.834C1220.35,-281.825 1189.8,-267.85 1164.48,-256.263"/>
<polygon fill="grey" stroke="grey" points="1165.6,-252.93 1155.05,-251.953 1162.69,-259.296 1165.6,-252.93"/>
</g>
<!-- is -->
<g id="node6" class="node"><title>is</title>
<ellipse fill="none" stroke="blue" cx="917" cy="-162" rx="42.3456" ry="18"/>
<text text-anchor="middle" x="917" y="-158.3" font-family="Times,serif" font-size="14.00">&#39;is&#39; &#160;&#39;are&#39; &#160;</text>
</g>
<!-- Grammar&#45;&gt;is -->
<g id="edge7" class="edge"><title>Grammar&#45;&gt;is</title>
<path fill="none" stroke="grey" d="M1226.25,-302.93C1119.35,-297.529 856.033,-281.349 830,-252 819.383,-240.03 822.164,-229.95 830,-216 839.72,-198.696 857.636,-186.379 874.695,-178.001"/>
<polygon fill="grey" stroke="grey" points="876.38,-181.079 884.026,-173.745 873.475,-174.71 876.38,-181.079"/>
</g>
<!-- test2 -->
<g id="node8" class="node"><title>test2</title>
<ellipse fill="none" stroke="blue" cx="1595" cy="-234" rx="141.531" ry="18"/>
<text text-anchor="middle" x="1595" y="-230.3" font-family="Times,serif" font-size="14.00">$arg{article} $arg[3][$arg{sound}] &#160;</text>
</g>
<!-- Grammar&#45;&gt;test2 -->
<g id="edge8" class="edge"><title>Grammar&#45;&gt;test2</title>
<path fill="none" stroke="grey" d="M1309.76,-296.626C1360.65,-285.632 1451.18,-266.073 1516.62,-251.933"/>
<polygon fill="grey" stroke="grey" points="1517.46,-255.333 1526.49,-249.8 1515.98,-248.491 1517.46,-255.333"/>
</g>
<!-- test5 -->
<g id="node9" class="node"><title>test5</title>
<ellipse fill="none" stroke="blue" cx="1886" cy="-234" rx="92.413" ry="18"/>
<text text-anchor="middle" x="1886" y="-230.3" font-family="Times,serif" font-size="14.00">name notname &#160;name &#160;</text>
</g>
<!-- Grammar&#45;&gt;test5 -->
<g id="edge11" class="edge"><title>Grammar&#45;&gt;test5</title>
<path fill="none" stroke="grey" d="M1314.92,-301.217C1403.08,-293.447 1607.78,-274.516 1779,-252 1788.48,-250.753 1798.42,-249.331 1808.25,-247.853"/>
<polygon fill="grey" stroke="grey" points="1809.08,-251.266 1818.44,-246.296 1808.03,-244.346 1809.08,-251.266"/>
</g>
<!-- cat -->
<g id="node12" class="node"><title>cat</title>
<ellipse fill="none" stroke="blue" cx="2171" cy="-234" rx="135.258" ry="18"/>
<text text-anchor="middle" x="2171" y="-230.3" font-family="Times,serif" font-size="14.00">&lt;reject: $arg[0] ne &#39;meows&#39;&gt; &#39;cat&#39; &#160;&#160;</text>
</g>
<!-- Grammar&#45;&gt;cat -->
<g id="edge12" class="edge"><title>Grammar&#45;&gt;cat</title>
<path fill="none" stroke="grey" d="M1315.43,-302.518C1431.54,-295.89 1753.56,-276.594 2021,-252 2034.76,-250.735 2049.21,-249.27 2063.48,-247.742"/>
<polygon fill="grey" stroke="grey" points="2064.27,-251.177 2073.83,-246.619 2063.51,-244.218 2064.27,-251.177"/>
</g>
<!-- typedef -->
<g id="node13" class="node"><title>typedef</title>
<ellipse fill="none" stroke="blue" cx="426" cy="-90" rx="98.1881" ry="18"/>
<text text-anchor="middle" x="426" y="-86.3" font-family="Times,serif" font-size="14.00">&#39;type&#39; id &#39;is&#39; typename &#39;;&#39; &#160;</text>
</g>
<!-- Grammar&#45;&gt;typedef -->
<g id="edge15" class="edge"><title>Grammar&#45;&gt;typedef</title>
<path fill="none" stroke="grey" d="M1225.89,-303.866C1081.5,-299.915 636.958,-285.155 582,-252 533.432,-222.7 554.504,-183.709 514,-144 501.239,-131.489 484.985,-120.652 469.928,-112.096"/>
<polygon fill="grey" stroke="grey" points="471.202,-108.803 460.75,-107.068 467.839,-114.942 471.202,-108.803"/>
</g>
<!-- id -->
<g id="node14" class="node"><title>id</title>
<ellipse fill="none" stroke="blue" cx="607" cy="-18" rx="533.879" ry="18"/>
<text text-anchor="middle" x="607" y="-14.3" font-family="Times,serif" font-size="14.00">/[a&#45;z]		# LEADING ALPHABETIC\n		 &#160;\w*		# FOLLOWED BY ALPHAS, DIGITS, OR UNDERSCORES\n		 /ix &#160;</text>
</g>
<!-- Grammar&#45;&gt;id -->
<g id="edge16" class="edge"><title>Grammar&#45;&gt;id</title>
<path fill="none" stroke="grey" d="M1225.56,-304.334C1088.57,-301.896 686.41,-291.416 644,-252 614.467,-224.552 608.476,-101.519 607.283,-46.1523"/>
<polygon fill="grey" stroke="grey" points="610.781,-45.9657 607.103,-36.0295 603.782,-46.0902 610.781,-45.9657"/>
</g>
<!-- _alternation_1_of_production_1_of_rule_test1 -->
<g id="node7" class="node"><title>_alternation_1_of_production_1_of_rule_test1</title>
<ellipse fill="none" stroke="blue" cx="1271" cy="-162" rx="34.1708" ry="18"/>
<text text-anchor="middle" x="1271" y="-158.3" font-family="Times,serif" font-size="14.00">&#39;easy&#39; &#160;</text>
</g>
<!-- Grammar&#45;&gt;_alternation_1_of_production_1_of_rule_test1 -->
<g id="edge17" class="edge"><title>Grammar&#45;&gt;_alternation_1_of_production_1_of_rule_test1</title>
<path fill="none" stroke="grey" d="M1314.51,-300.586C1345.69,-294.893 1385.65,-281.855 1406,-252 1415.01,-238.78 1415.01,-229.22 1406,-216 1385.74,-186.28 1346.05,-173.225 1314.93,-167.491"/>
<polygon fill="grey" stroke="grey" points="1315.18,-163.985 1304.75,-165.814 1314.04,-170.892 1315.18,-163.985"/>
</g>
<!-- test7 -->
<g id="node15" class="node"><title>test7</title>
<ellipse fill="none" stroke="blue" cx="2401" cy="-234" rx="76.0649" ry="18"/>
<text text-anchor="middle" x="2401" y="-230.3" font-family="Times,serif" font-size="14.00">&#39;x&#39; &lt;resync&gt; /y+/ &#160;</text>
</g>
<!-- Grammar&#45;&gt;test7 -->
<g id="edge18" class="edge"><title>Grammar&#45;&gt;test7</title>
<path fill="none" stroke="grey" d="M1316.23,-305.031C1461.74,-304.634 1930.68,-299.488 2315,-252 2322.35,-251.092 2330.02,-249.914 2337.61,-248.603"/>
<polygon fill="grey" stroke="grey" points="2338.3,-252.035 2347.52,-246.813 2337.06,-245.146 2338.3,-252.035"/>
</g>
<!-- fail -->
<g id="node16" class="node"><title>fail</title>
<ellipse fill="none" stroke="blue" cx="570" cy="-90" rx="27" ry="18"/>
<text text-anchor="middle" x="570" y="-86.3" font-family="Times,serif" font-size="14.00"> </text>
</g>
<!-- Grammar&#45;&gt;fail -->
<g id="edge19" class="edge"><title>Grammar&#45;&gt;fail</title>
<path fill="none" stroke="grey" d="M1225.85,-304.366C1084.62,-301.975 657.842,-291.517 611,-252 572.14,-219.217 567.356,-155.251 568.145,-118.585"/>
<polygon fill="grey" stroke="grey" points="571.659,-118.272 568.538,-108.148 564.664,-118.009 571.659,-118.272"/>
</g>
<!-- name -->
<g id="node10" class="node"><title>name</title>
<ellipse fill="none" stroke="blue" cx="1774" cy="-162" rx="32.2457" ry="18"/>
<text text-anchor="middle" x="1774" y="-158.3" font-family="Times,serif" font-size="14.00">&#39;fred&#39; &#160;</text>
</g>
<!-- Grammar&#45;&gt;name -->
<g id="edge20" class="edge"><title>Grammar&#45;&gt;name</title>
<path fill="none" stroke="grey" d="M1315.61,-302.741C1427.24,-296.709 1712.06,-278.835 1745,-252 1763.26,-237.123 1770.14,-210.56 1772.67,-190.314"/>
<polygon fill="grey" stroke="grey" points="1776.18,-190.405 1773.66,-180.115 1769.21,-189.733 1776.18,-190.405"/>
</g>
<!-- notname -->
<g id="node11" class="node"><title>notname</title>
<ellipse fill="none" stroke="blue" cx="1946" cy="-162" rx="52.4675" ry="18"/>
<text text-anchor="middle" x="1946" y="-158.3" font-family="Times,serif" font-size="14.00">/[a&#45;z]\w*/i &#160;</text>
</g>
<!-- Grammar&#45;&gt;notname -->
<g id="edge21" class="edge"><title>Grammar&#45;&gt;notname</title>
<path fill="none" stroke="grey" d="M1316.44,-305.135C1466.82,-305.112 1941.38,-301.12 1987,-252 2004.3,-233.375 1987.44,-206.173 1970.4,-186.751"/>
<polygon fill="grey" stroke="grey" points="1972.79,-184.182 1963.44,-179.209 1967.65,-188.931 1972.79,-184.182"/>
</g>
<!-- _alternation_1_of_production_1_of_rule_test3 -->
<g id="node17" class="node"><title>_alternation_1_of_production_1_of_rule_test3</title>
<ellipse fill="none" stroke="blue" cx="426" cy="-162" rx="78.9404" ry="18"/>
<text text-anchor="middle" x="426" y="-158.3" font-family="Times,serif" font-size="14.00">defn &#160;typedef &#160;fail &#160;</text>
</g>
<!-- Grammar&#45;&gt;_alternation_1_of_production_1_of_rule_test3 -->
<g id="edge25" class="edge"><title>Grammar&#45;&gt;_alternation_1_of_production_1_of_rule_test3</title>
<path fill="none" stroke="grey" d="M1225.4,-305.351C1085.01,-305.868 661.179,-303.051 535,-252 511.895,-242.652 511.274,-231.804 492,-216 479.93,-206.103 466.513,-195.294 454.946,-186.034"/>
<polygon fill="grey" stroke="grey" points="456.893,-183.11 446.896,-179.601 452.523,-188.578 456.893,-183.11"/>
</g>
<!-- test6 -->
<g id="node19" class="node"><title>test6</title>
<ellipse fill="none" stroke="blue" cx="2867" cy="-234" rx="372.125" ry="18"/>
<text text-anchor="middle" x="2867" y="-230.3" font-family="Times,serif" font-size="14.00">&lt;rulevar: $test6 = 1&gt; &#160;&#39;a&#39; &lt;commit&gt; &#39;b&#39; &lt;uncommit&gt; &#39;c&#39; &lt;reject: $test6 &amp;&amp; $text&gt; &#160;&#39;a&#39; &#160;&lt;uncommit&gt; &#160;</text>
</g>
<!-- Grammar&#45;&gt;test6 -->
<g id="edge26" class="edge"><title>Grammar&#45;&gt;test6</title>
<path fill="none" stroke="grey" d="M1315.68,-303.067C1474.81,-296.179 2028.8,-272.172 2486,-252 2520.92,-250.459 2557.63,-248.831 2593.92,-247.217"/>
<polygon fill="grey" stroke="grey" points="2594.31,-250.704 2604.15,-246.763 2594,-243.711 2594.31,-250.704"/>
</g>
<!-- defn -->
<g id="node18" class="node"><title>defn</title>
<ellipse fill="none" stroke="blue" cx="174" cy="-90" rx="108.31" ry="18"/>
<text text-anchor="middle" x="174" y="-86.3" font-family="Times,serif" font-size="14.00">&#39;var&#39; id &#39;holds&#39; typename &#39;;&#39; &#160;</text>
</g>
<!-- Grammar&#45;&gt;defn -->
<g id="edge29" class="edge"><title>Grammar&#45;&gt;defn</title>
<path fill="none" stroke="grey" d="M1225.86,-304.741C1011.7,-303.294 106.833,-294.668 66,-252 24.0475,-208.162 94.7416,-146.224 140.232,-113.418"/>
<polygon fill="grey" stroke="grey" points="142.256,-116.274 148.4,-107.643 138.215,-110.558 142.256,-116.274"/>
</g>
<!-- b -->
<g id="node20" class="node"><title>b</title>
<ellipse fill="none" stroke="blue" cx="3301" cy="-162" rx="27" ry="18"/>
<text text-anchor="middle" x="3301" y="-158.3" font-family="Times,serif" font-size="14.00">&#39;b&#39; &#160;</text>
</g>
<!-- Grammar&#45;&gt;b -->
<g id="edge30" class="edge"><title>Grammar&#45;&gt;b</title>
<path fill="none" stroke="grey" d="M1316.21,-305.018C1603.18,-304.979 3161.96,-302.44 3248,-252 3271.07,-238.478 3285.22,-210.645 3293.03,-189.683"/>
<polygon fill="grey" stroke="grey" points="3296.4,-190.633 3296.36,-180.038 3289.79,-188.344 3296.4,-190.633"/>
</g>
<!-- dog -->
<g id="node21" class="node"><title>dog</title>
<ellipse fill="none" stroke="blue" cx="3425" cy="-234" rx="31.2735" ry="18"/>
<text text-anchor="middle" x="3425" y="-230.3" font-family="Times,serif" font-size="14.00">&#39;dog&#39; &#160;</text>
</g>
<!-- Grammar&#45;&gt;dog -->
<g id="edge31" class="edge"><title>Grammar&#45;&gt;dog</title>
<path fill="none" stroke="grey" d="M1316.34,-304.86C1604.51,-303.835 3175.46,-296.245 3384,-252 3386.66,-251.435 3389.37,-250.702 3392.07,-249.858"/>
<polygon fill="grey" stroke="grey" points="3393.4,-253.097 3401.63,-246.418 3391.03,-246.51 3393.4,-253.097"/>
</g>
<!-- test4 -->
<g id="node22" class="node"><title>test4</title>
<ellipse fill="none" stroke="blue" cx="3335" cy="-234" rx="39.9464" ry="18"/>
<text text-anchor="middle" x="3335" y="-230.3" font-family="Times,serif" font-size="14.00">&#39;a&#39; b /c/ &#160;</text>
</g>
<!-- Grammar&#45;&gt;test4 -->
<g id="edge33" class="edge"><title>Grammar&#45;&gt;test4</title>
<path fill="none" stroke="grey" d="M1316.32,-304.561C1595.97,-301.754 3081.52,-285.355 3281,-252 3285.72,-251.211 3290.6,-250.107 3295.4,-248.837"/>
<polygon fill="grey" stroke="grey" points="3296.45,-252.177 3305.09,-246.043 3294.51,-245.451 3296.45,-252.177"/>
</g>
<!-- test3 -->
<g id="node23" class="node"><title>test3</title>
<ellipse fill="none" stroke="blue" cx="279" cy="-234" rx="204.123" ry="18"/>
<text text-anchor="middle" x="279" y="-230.3" font-family="Times,serif" font-size="14.00">_alternation_1_of_production_1_of_rule_test3(5..10) &#160;</text>
</g>
<!-- Grammar&#45;&gt;test3 -->
<g id="edge35" class="edge"><title>Grammar&#45;&gt;test3</title>
<path fill="none" stroke="grey" d="M1226.49,-302.1C1107.89,-294.341 774.391,-272.313 497,-252 477.071,-250.541 456.122,-248.963 435.413,-247.377"/>
<polygon fill="grey" stroke="grey" points="435.511,-243.874 425.272,-246.598 434.975,-250.853 435.511,-243.874"/>
</g>
<!-- test1&#45;&gt;is -->
<g id="edge4" class="edge"><title>test1&#45;&gt;is</title>
<path fill="none" stroke="grey" d="M1069.86,-216.233C1035.86,-204.394 990.773,-188.692 958.389,-177.414"/>
<polygon fill="grey" stroke="grey" points="959.368,-174.049 948.774,-174.065 957.066,-180.66 959.368,-174.049"/>
</g>
<!-- test1&#45;&gt;_alternation_1_of_production_1_of_rule_test1 -->
<g id="edge5" class="edge"><title>test1&#45;&gt;_alternation_1_of_production_1_of_rule_test1</title>
<path fill="none" stroke="grey" d="M1155.04,-216.055C1179.86,-204.696 1212.33,-189.843 1236.59,-178.742"/>
<polygon fill="grey" stroke="grey" points="1238.15,-181.88 1245.78,-174.537 1235.23,-175.515 1238.15,-181.88"/>
</g>
<!-- test5&#45;&gt;name -->
<g id="edge9" class="edge"><title>test5&#45;&gt;name</title>
<path fill="none" stroke="grey" d="M1859.74,-216.588C1842.89,-206.058 1820.99,-192.366 1803.53,-181.458"/>
<polygon fill="grey" stroke="grey" points="1805.2,-178.371 1794.86,-176.039 1801.49,-184.307 1805.2,-178.371"/>
</g>
<!-- test5&#45;&gt;notname -->
<g id="edge10" class="edge"><title>test5&#45;&gt;notname</title>
<path fill="none" stroke="grey" d="M1900.52,-216.055C1907.89,-207.457 1916.98,-196.857 1925.09,-187.397"/>
<polygon fill="grey" stroke="grey" points="1927.76,-189.659 1931.61,-179.789 1922.44,-185.104 1927.76,-189.659"/>
</g>
<!-- typedef&#45;&gt;id -->
<g id="edge13" class="edge"><title>typedef&#45;&gt;id</title>
<path fill="none" stroke="grey" d="M466.17,-73.4647C491.883,-63.5204 525.545,-50.5021 553.51,-39.6868"/>
<polygon fill="grey" stroke="grey" points="555.077,-42.8333 563.142,-35.9618 552.552,-36.3045 555.077,-42.8333"/>
</g>
<!-- typedef&#45;&gt;typename -->
<g id="edge14" class="edge"><title>typedef&#45;&gt;typename</title>
<path fill="none" stroke="grey" d="M348.634,-78.8665C250.479,-65.8248 90.6821,-43.9052 64,-36 61.8522,-35.3637 59.6693,-34.6244 57.4927,-33.8174"/>
<polygon fill="grey" stroke="grey" points="58.6999,-30.5294 48.1206,-29.9554 56.0328,-37.0014 58.6999,-30.5294"/>
</g>
<!-- _alternation_1_of_production_1_of_rule_test3&#45;&gt;defn -->
<g id="edge22" class="edge"><title>_alternation_1_of_production_1_of_rule_test3&#45;&gt;defn</title>
<path fill="none" stroke="grey" d="M378.008,-147.669C337.913,-136.531 280.445,-120.568 236.714,-108.421"/>
<polygon fill="grey" stroke="grey" points="237.613,-105.038 227.041,-105.734 235.739,-111.782 237.613,-105.038"/>
</g>
<!-- _alternation_1_of_production_1_of_rule_test3&#45;&gt;typedef -->
<g id="edge23" class="edge"><title>_alternation_1_of_production_1_of_rule_test3&#45;&gt;typedef</title>
<path fill="none" stroke="grey" d="M426,-143.697C426,-135.983 426,-126.712 426,-118.112"/>
<polygon fill="grey" stroke="grey" points="429.5,-118.104 426,-108.104 422.5,-118.104 429.5,-118.104"/>
</g>
<!-- _alternation_1_of_production_1_of_rule_test3&#45;&gt;fail -->
<g id="edge24" class="edge"><title>_alternation_1_of_production_1_of_rule_test3&#45;&gt;fail</title>
<path fill="none" stroke="grey" d="M457.958,-145.465C482.39,-133.588 515.841,-117.327 539.82,-105.671"/>
<polygon fill="grey" stroke="grey" points="541.361,-108.813 548.825,-101.293 538.301,-102.518 541.361,-108.813"/>
</g>
<!-- defn&#45;&gt;id -->
<g id="edge27" class="edge"><title>defn&#45;&gt;id</title>
<path fill="none" stroke="grey" d="M248.929,-76.8868C316.339,-65.9891 416.357,-49.8199 493.565,-37.3382"/>
<polygon fill="grey" stroke="grey" points="494.509,-40.7312 503.822,-35.6801 493.391,-33.8209 494.509,-40.7312"/>
</g>
<!-- defn&#45;&gt;typename -->
<g id="edge28" class="edge"><title>defn&#45;&gt;typename</title>
<path fill="none" stroke="grey" d="M139.906,-72.7646C115.157,-60.9795 81.9454,-45.1645 57.9557,-33.7408"/>
<polygon fill="grey" stroke="grey" points="59.1448,-30.4305 48.6114,-29.2911 56.1352,-36.7505 59.1448,-30.4305"/>
</g>
<!-- test4&#45;&gt;b -->
<g id="edge32" class="edge"><title>test4&#45;&gt;b</title>
<path fill="none" stroke="grey" d="M3326.77,-216.055C3322.74,-207.767 3317.81,-197.618 3313.35,-188.424"/>
<polygon fill="grey" stroke="grey" points="3316.44,-186.773 3308.92,-179.307 3310.14,-189.831 3316.44,-186.773"/>
</g>
<!-- test3&#45;&gt;_alternation_1_of_production_1_of_rule_test3 -->
<g id="edge34" class="edge"><title>test3&#45;&gt;_alternation_1_of_production_1_of_rule_test3</title>
<path fill="none" stroke="grey" d="M314.21,-216.233C335.317,-206.182 362.27,-193.348 384.421,-182.799"/>
<polygon fill="grey" stroke="grey" points="386.066,-185.893 393.59,-178.434 383.056,-179.573 386.066,-185.893"/>
</g>
</g>
</svg>
