<?xml version="1.0" encoding="UTF-8" standalone="no"?>
<!DOCTYPE svg PUBLIC "-//W3C//DTD SVG 1.1//EN"
 "http://www.w3.org/Graphics/SVG/1.1/DTD/svg11.dtd">
<!-- Generated by graphviz version 2.29.20121107.0545 (20121107.0545)
 -->
<!-- Title: Perl Pages: 1 -->
<svg width="314pt" height="348pt"
 viewBox="0.00 0.00 314.00 348.00" xmlns="http://www.w3.org/2000/svg" xmlns:xlink="http://www.w3.org/1999/xlink">
<g id="graph0" class="graph" transform="scale(1 1) rotate(0) translate(4 344)">
<title>Perl</title>
<polygon fill="white" stroke="white" points="-4,5 -4,-344 311,-344 311,5 -4,5"/>
<!-- 0 -->
<g id="node1" class="node"><title>0</title>
<polygon fill="none" stroke="green" points="186.417,-310.544 186.417,-325.456 161.57,-336 126.43,-336 101.583,-325.456 101.583,-310.544 126.43,-300 161.57,-300 186.417,-310.544"/>
<polygon fill="none" stroke="green" points="190.371,-307.884 190.371,-328.116 162.365,-340 125.635,-340 97.6294,-328.116 97.6294,-307.884 125.635,-296 162.365,-296 190.371,-307.884"/>
<text text-anchor="middle" x="144" y="-314.3" font-family="Times,serif" font-size="14.00">%$html</text>
</g>
<!-- 0_kids -->
<g id="node2" class="node"><title>0_kids</title>
<path fill="none" stroke="grey" d="M134,-223C134,-223 196,-223 196,-223 202,-223 208,-229 208,-235 208,-235 208,-247 208,-247 208,-253 202,-259 196,-259 196,-259 134,-259 134,-259 128,-259 122,-253 122,-247 122,-247 122,-235 122,-235 122,-229 128,-223 134,-223"/>
<text text-anchor="middle" x="144" y="-237.3" font-family="Times,serif" font-size="14.00" fill="blue">body</text>
<polyline fill="none" stroke="grey" points="166,-223 166,-259 "/>
<text text-anchor="middle" x="187" y="-237.3" font-family="Times,serif" font-size="14.00" fill="blue">head</text>
</g>
<!-- 0&#45;&gt;0_kids -->
<g id="edge1" class="edge"><title>0&#45;&gt;0_kids:port1</title>
<path fill="none" stroke="grey" d="M144,-295.886C144,-288.163 144,-279.138 144,-270.263"/>
<polygon fill="grey" stroke="grey" points="147.5,-270 144,-260 140.5,-270 147.5,-270"/>
</g>
<!-- 0_0_kids -->
<g id="node3" class="node"><title>0_0_kids</title>
<path fill="none" stroke="grey" d="M103,-149C103,-149 141,-149 141,-149 147,-149 153,-155 153,-161 153,-161 153,-173 153,-173 153,-179 147,-185 141,-185 141,-185 103,-185 103,-185 97,-185 91,-179 91,-173 91,-173 91,-161 91,-161 91,-155 97,-149 103,-149"/>
<text text-anchor="middle" x="122" y="-163.3" font-family="Times,serif" font-size="14.00" fill="blue">%$body</text>
</g>
<!-- 0_kids&#45;&gt;0_0_kids -->
<g id="edge2" class="edge"><title>0_kids:port1&#45;&gt;0_0_kids:port1</title>
<path fill="none" stroke="grey" d="M144,-222C144,-212.585 141.187,-202.87 137.572,-194.274"/>
<polygon fill="grey" stroke="grey" points="140.687,-192.674 133.258,-185.12 134.355,-195.658 140.687,-192.674"/>
</g>
<!-- 0_1_kids -->
<g id="node7" class="node"><title>0_1_kids</title>
<path fill="none" stroke="grey" d="M191.5,-149C191.5,-149 228.5,-149 228.5,-149 234.5,-149 240.5,-155 240.5,-161 240.5,-161 240.5,-173 240.5,-173 240.5,-179 234.5,-185 228.5,-185 228.5,-185 191.5,-185 191.5,-185 185.5,-185 179.5,-179 179.5,-173 179.5,-173 179.5,-161 179.5,-161 179.5,-155 185.5,-149 191.5,-149"/>
<text text-anchor="middle" x="210" y="-163.3" font-family="Times,serif" font-size="14.00" fill="blue">%$head</text>
</g>
<!-- 0_kids&#45;&gt;0_1_kids -->
<g id="edge6" class="edge"><title>0_kids:port2&#45;&gt;0_1_kids:port1</title>
<path fill="none" stroke="grey" d="M187,-222C187,-212.525 189.941,-202.793 193.72,-194.2"/>
<polygon fill="grey" stroke="grey" points="196.946,-195.572 198.23,-185.056 190.668,-192.476 196.946,-195.572"/>
</g>
<!-- 0_0_0_kids -->
<g id="node4" class="node"><title>0_0_0_kids</title>
<path fill="none" stroke="grey" d="M102,-75C102,-75 132,-75 132,-75 138,-75 144,-81 144,-87 144,-87 144,-99 144,-99 144,-105 138,-111 132,-111 132,-111 102,-111 102,-111 96,-111 90,-105 90,-99 90,-99 90,-87 90,-87 90,-81 96,-75 102,-75"/>
<text text-anchor="middle" x="105" y="-89.3" font-family="Times,serif" font-size="14.00" fill="blue">h1</text>
<polyline fill="none" stroke="grey" points="120,-75 120,-111 "/>
<text text-anchor="middle" x="132" y="-89.3" font-family="Times,serif" font-size="14.00" fill="blue">p</text>
</g>
<!-- 0_0_kids&#45;&gt;0_0_0_kids -->
<g id="edge3" class="edge"><title>0_0_kids:port1&#45;&gt;0_0_0_kids:port1</title>
<path fill="none" stroke="grey" d="M113.4,-148.847C110.304,-141.122 107.225,-131.717 105.808,-122.238"/>
<polygon fill="grey" stroke="grey" points="109.276,-121.694 105,-112 102.298,-122.244 109.276,-121.694"/>
</g>
<!-- 0_0_0_0_kids -->
<g id="node5" class="node"><title>0_0_0_0_kids</title>
<path fill="none" stroke="grey" d="M11.5,-1C11.5,-1 60.5,-1 60.5,-1 66.5,-1 72.5,-7 72.5,-13 72.5,-13 72.5,-25 72.5,-25 72.5,-31 66.5,-37 60.5,-37 60.5,-37 11.5,-37 11.5,-37 5.5,-37 -0.5,-31 -0.5,-25 -0.5,-25 -0.5,-13 -0.5,-13 -0.5,-7 5.5,-1 11.5,-1"/>
<text text-anchor="middle" x="36" y="-15.3" font-family="Times,serif" font-size="14.00" fill="blue">Heading 1</text>
</g>
<!-- 0_0_0_kids&#45;&gt;0_0_0_0_kids -->
<g id="edge4" class="edge"><title>0_0_0_kids:port1&#45;&gt;0_0_0_0_kids:port1</title>
<path fill="none" stroke="grey" d="M105,-74C105,-65.2106 91.1364,-53.2501 75.8378,-42.7274"/>
<polygon fill="grey" stroke="grey" points="77.541,-39.6575 67.2698,-37.0585 73.6784,-45.4954 77.541,-39.6575"/>
</g>
<!-- 0_0_0_1_kids -->
<g id="node6" class="node"><title>0_0_0_1_kids</title>
<path fill="none" stroke="grey" d="M103,-1C103,-1 161,-1 161,-1 167,-1 173,-7 173,-13 173,-13 173,-25 173,-25 173,-31 167,-37 161,-37 161,-37 103,-37 103,-37 97,-37 91,-31 91,-25 91,-25 91,-13 91,-13 91,-7 97,-1 103,-1"/>
<text text-anchor="middle" x="132" y="-15.3" font-family="Times,serif" font-size="14.00" fill="blue">Paragraph 1</text>
</g>
<!-- 0_0_0_kids&#45;&gt;0_0_0_1_kids -->
<g id="edge5" class="edge"><title>0_0_0_kids:port2&#45;&gt;0_0_0_1_kids:port1</title>
<path fill="none" stroke="grey" d="M132,-74C132,-65.4062 132,-56.0572 132,-47.5461"/>
<polygon fill="grey" stroke="grey" points="135.5,-47.3333 132,-37.3333 128.5,-47.3334 135.5,-47.3333"/>
</g>
<!-- 0_1_0_kids -->
<g id="node8" class="node"><title>0_1_0_kids</title>
<path fill="none" stroke="grey" d="M204,-75C204,-75 234,-75 234,-75 240,-75 246,-81 246,-87 246,-87 246,-99 246,-99 246,-105 240,-111 234,-111 234,-111 204,-111 204,-111 198,-111 192,-105 192,-99 192,-99 192,-87 192,-87 192,-81 198,-75 204,-75"/>
<text text-anchor="middle" x="219" y="-89.3" font-family="Times,serif" font-size="14.00" fill="blue">title</text>
</g>
<!-- 0_1_kids&#45;&gt;0_1_0_kids -->
<g id="edge7" class="edge"><title>0_1_kids:port1&#45;&gt;0_1_0_kids:port1</title>
<path fill="none" stroke="grey" d="M212.225,-148.708C213.238,-140.374 214.461,-130.322 215.587,-121.063"/>
<polygon fill="grey" stroke="grey" points="219.068,-121.431 216.801,-111.082 212.119,-120.586 219.068,-121.431"/>
</g>
<!-- 0_1_0_0_kids -->
<g id="node9" class="node"><title>0_1_0_0_kids</title>
<path fill="none" stroke="grey" d="M203.5,-1C203.5,-1 294.5,-1 294.5,-1 300.5,-1 306.5,-7 306.5,-13 306.5,-13 306.5,-25 306.5,-25 306.5,-31 300.5,-37 294.5,-37 294.5,-37 203.5,-37 203.5,-37 197.5,-37 191.5,-31 191.5,-25 191.5,-25 191.5,-13 191.5,-13 191.5,-7 197.5,-1 203.5,-1"/>
<text text-anchor="middle" x="249" y="-15.3" font-family="Times,serif" font-size="14.00" fill="blue">Title of document</text>
</g>
<!-- 0_1_0_kids&#45;&gt;0_1_0_0_kids -->
<g id="edge8" class="edge"><title>0_1_0_kids:port1&#45;&gt;0_1_0_0_kids:port1</title>
<path fill="none" stroke="grey" d="M226.416,-74.7079C229.867,-66.1947 234.045,-55.8885 237.865,-46.4671"/>
<polygon fill="grey" stroke="grey" points="241.156,-47.6641 241.67,-37.0817 234.669,-45.0341 241.156,-47.6641"/>
</g>
</g>
</svg>
