<?xml version="1.0" encoding="UTF-8" standalone="no"?>
<!DOCTYPE svg PUBLIC "-//W3C//DTD SVG 1.1//EN"
 "http://www.w3.org/Graphics/SVG/1.1/DTD/svg11.dtd">
<!-- Generated by graphviz version 2.37.20140310.0445 (20140310.0445)
 -->
<!-- Title: Perl Pages: 1 -->
<svg width="272pt" height="79pt"
 viewBox="0.00 0.00 272.00 79.42" xmlns="http://www.w3.org/2000/svg" xmlns:xlink="http://www.w3.org/1999/xlink">
<g id="graph0" class="graph" transform="scale(1 1) rotate(0) translate(4 75.4154)">
<title>Perl</title>
<polygon fill="white" stroke="none" points="-4,4 -4,-75.4154 268,-75.4154 268,4 -4,4"/>
<!-- foo -->
<g id="node1" class="node"><title>foo</title>
<ellipse fill="none" stroke="green" cx="27" cy="-20.4154" rx="27" ry="18"/>
<text text-anchor="middle" x="27" y="-16.7154" font-family="Times,serif" font-size="14.00">foo</text>
</g>
<!-- foo&#45;&gt;foo -->
<g id="edge1" class="edge"><title>foo&#45;&gt;foo</title>
<path fill="none" stroke="grey" d="M17.7856,-37.4527C15.9051,-47.2733 18.9766,-56.4154 27,-56.4154 32.0146,-56.4154 35.0949,-52.8443 36.2409,-47.7683"/>
<polygon fill="grey" stroke="grey" points="39.7401,-47.4437 36.2144,-37.4527 32.7402,-47.4617 39.7401,-47.4437"/>
<text text-anchor="middle" x="27" y="-60.2154" font-family="Times,serif" font-size="14.00">/./</text>
</g>
<!-- bar -->
<g id="node2" class="node"><title>bar</title>
<ellipse fill="none" stroke="green" cx="133" cy="-20.4154" rx="27" ry="18"/>
<text text-anchor="middle" x="133" y="-16.7154" font-family="Times,serif" font-size="14.00">bar</text>
</g>
<!-- foo&#45;&gt;bar -->
<g id="edge2" class="edge"><title>foo&#45;&gt;bar</title>
<path fill="none" stroke="grey" d="M54.2436,-20.4154C66.8068,-20.4154 82.0535,-20.4154 95.7061,-20.4154"/>
<polygon fill="grey" stroke="grey" points="95.7648,-23.9155 105.765,-20.4154 95.7648,-16.9155 95.7648,-23.9155"/>
<text text-anchor="middle" x="80" y="-24.2154" font-family="Times,serif" font-size="14.00">/b/</text>
</g>
<!-- bar&#45;&gt;foo -->
<g id="edge4" class="edge"><title>bar&#45;&gt;foo</title>
<path fill="none" stroke="grey" d="M112.272,-8.79229C100.696,-3.33458 85.6964,1.41542 72,-1.41542 67.4776,-2.35014 62.8481,-3.77258 58.3704,-5.42734"/>
<polygon fill="grey" stroke="grey" points="56.8256,-2.27825 48.9111,-9.32183 59.4906,-8.75113 56.8256,-2.27825"/>
<text text-anchor="middle" x="80" y="-5.21542" font-family="Times,serif" font-size="14.00">/a/</text>
</g>
<!-- bar&#45;&gt;bar -->
<g id="edge5" class="edge"><title>bar&#45;&gt;bar</title>
<path fill="none" stroke="grey" d="M123.786,-37.4527C121.905,-47.2733 124.977,-56.4154 133,-56.4154 138.015,-56.4154 141.095,-52.8443 142.241,-47.7683"/>
<polygon fill="grey" stroke="grey" points="145.74,-47.4437 142.214,-37.4527 138.74,-47.4617 145.74,-47.4437"/>
<text text-anchor="middle" x="133" y="-60.2154" font-family="Times,serif" font-size="14.00">/b/</text>
</g>
<!-- baz -->
<g id="node3" class="node"><title>baz</title>
<ellipse fill="none" stroke="green" cx="237" cy="-20.4154" rx="27" ry="18"/>
<text text-anchor="middle" x="237" y="-16.7154" font-family="Times,serif" font-size="14.00">baz</text>
</g>
<!-- bar&#45;&gt;baz -->
<g id="edge3" class="edge"><title>bar&#45;&gt;baz</title>
<path fill="none" stroke="grey" d="M160.003,-20.4154C172.019,-20.4154 186.494,-20.4154 199.574,-20.4154"/>
<polygon fill="grey" stroke="grey" points="199.69,-23.9155 209.69,-20.4154 199.69,-16.9155 199.69,-23.9155"/>
<text text-anchor="middle" x="185" y="-24.2154" font-family="Times,serif" font-size="14.00">/c/</text>
</g>
<!-- baz&#45;&gt;baz -->
<g id="edge6" class="edge"><title>baz&#45;&gt;baz</title>
<path fill="none" stroke="grey" d="M227.786,-37.4527C225.905,-47.2733 228.977,-56.4154 237,-56.4154 242.015,-56.4154 245.095,-52.8443 246.241,-47.7683"/>
<polygon fill="grey" stroke="grey" points="249.74,-47.4437 246.214,-37.4527 242.74,-47.4617 249.74,-47.4437"/>
<text text-anchor="middle" x="237" y="-60.2154" font-family="Times,serif" font-size="14.00">/./</text>
</g>
</g>
</svg>
