<?xml version="1.0" encoding="UTF-8" standalone="no"?>
<!DOCTYPE svg PUBLIC "-//W3C//DTD SVG 1.1//EN"
 "http://www.w3.org/Graphics/SVG/1.1/DTD/svg11.dtd">
<!-- Generated by graphviz version 2.26.3 (20100126.1600)
 -->
<!-- Title: Perl Pages: 1 -->
<svg width="522pt" height="724pt"
 viewBox="0.00 0.00 522.00 724.00" xmlns="http://www.w3.org/2000/svg" xmlns:xlink="http://www.w3.org/1999/xlink">
<g id="graph1" class="graph" transform="scale(1 1) rotate(0) translate(4 720)">
<title>Perl</title>
<polygon fill="white" stroke="white" points="-4,5 -4,-720 519,-720 519,5 -4,5"/>
<!-- 0 -->
<g id="node1" class="node"><title>0</title>
<polygon fill="none" stroke="green" points="277.938,-682.44 277.938,-699.56 259.815,-711.665 234.185,-711.665 216.062,-699.56 216.062,-682.44 234.185,-670.335 259.815,-670.335 277.938,-682.44"/>
<polygon fill="none" stroke="green" points="281.882,-680.285 281.882,-701.715 260.997,-715.665 233.003,-715.665 212.118,-701.715 212.118,-680.285 233.003,-666.335 260.997,-666.335 281.882,-680.285"/>
<text text-anchor="middle" x="247" y="-687.9" font-family="Times Roman,serif" font-size="14.00">%$s</text>
</g>
<!-- 0_kids -->
<g id="node2" class="node"><title>0_kids</title>
<polyline fill="none" stroke="grey" points="220,-593 280,-593 "/>
<path fill="none" stroke="grey" d="M280,-593C286,-593 292,-599 292,-605"/>
<polyline fill="none" stroke="grey" points="292,-605 292,-617 "/>
<path fill="none" stroke="grey" d="M292,-617C292,-623 286,-629 280,-629"/>
<polyline fill="none" stroke="grey" points="280,-629 220,-629 "/>
<path fill="none" stroke="grey" d="M220,-629C214,-629 208,-623 208,-617"/>
<polyline fill="none" stroke="grey" points="208,-617 208,-605 "/>
<path fill="none" stroke="grey" d="M208,-605C208,-599 214,-593 220,-593"/>
<text text-anchor="middle" x="221" y="-607.9" font-family="Times Roman,serif" font-size="14.00" fill="blue">A</text>
<polyline fill="none" stroke="grey" points="234,-593 234,-629 "/>
<text text-anchor="middle" x="247" y="-607.9" font-family="Times Roman,serif" font-size="14.00" fill="blue">C</text>
<polyline fill="none" stroke="grey" points="260,-593 260,-629 "/>
<text text-anchor="middle" x="276" y="-607.9" font-family="Times Roman,serif" font-size="14.00" fill="blue">els</text>
</g>
<!-- 0&#45;&gt;0_kids -->
<g id="edge2" class="edge"><title>0&#45;&gt;0_kids:port2</title>
<path fill="none" stroke="grey" d="M247,-666.261C247,-658.012 247,-648.558 247,-639.298"/>
<polygon fill="grey" stroke="grey" points="250.5,-639 247,-629 243.5,-639 250.5,-639"/>
</g>
<!-- 0_0_kids -->
<g id="node4" class="node"><title>0_0_kids</title>
<polyline fill="none" stroke="grey" points="101,-519 131,-519 "/>
<path fill="none" stroke="grey" d="M131,-519C137,-519 143,-525 143,-531"/>
<polyline fill="none" stroke="grey" points="143,-531 143,-543 "/>
<path fill="none" stroke="grey" d="M143,-543C143,-549 137,-555 131,-555"/>
<polyline fill="none" stroke="grey" points="131,-555 101,-555 "/>
<path fill="none" stroke="grey" d="M101,-555C95,-555 89,-549 89,-543"/>
<polyline fill="none" stroke="grey" points="89,-543 89,-531 "/>
<path fill="none" stroke="grey" d="M89,-531C89,-525 95,-519 101,-519"/>
<text text-anchor="middle" x="116" y="-533.9" font-family="Times Roman,serif" font-size="14.00" fill="blue">%$A</text>
</g>
<!-- 0_kids&#45;&gt;0_0_kids -->
<g id="edge4" class="edge"><title>0_kids:port1&#45;&gt;0_0_kids:port1</title>
<path fill="none" stroke="grey" d="M207,-611C175.9,-611 149.52,-584.662 133.296,-563.412"/>
<polygon fill="grey" stroke="grey" points="136.1,-561.317 127.385,-555.292 130.441,-565.437 136.1,-561.317"/>
</g>
<!-- 0_1_kids -->
<g id="node22" class="node"><title>0_1_kids</title>
<polyline fill="none" stroke="grey" points="232,-519 262,-519 "/>
<path fill="none" stroke="grey" d="M262,-519C268,-519 274,-525 274,-531"/>
<polyline fill="none" stroke="grey" points="274,-531 274,-543 "/>
<path fill="none" stroke="grey" d="M274,-543C274,-549 268,-555 262,-555"/>
<polyline fill="none" stroke="grey" points="262,-555 232,-555 "/>
<path fill="none" stroke="grey" d="M232,-555C226,-555 220,-549 220,-543"/>
<polyline fill="none" stroke="grey" points="220,-543 220,-531 "/>
<path fill="none" stroke="grey" d="M220,-531C220,-525 226,-519 232,-519"/>
<text text-anchor="middle" x="247" y="-533.9" font-family="Times Roman,serif" font-size="14.00" fill="blue">%$C</text>
</g>
<!-- 0_kids&#45;&gt;0_1_kids -->
<g id="edge24" class="edge"><title>0_kids:port2&#45;&gt;0_1_kids:port1</title>
<path fill="none" stroke="grey" d="M247,-592C247,-583.406 247,-574.057 247,-565.546"/>
<polygon fill="grey" stroke="grey" points="250.5,-565.333 247,-555.333 243.5,-565.333 250.5,-565.333"/>
</g>
<!-- 0_2_kids -->
<g id="node42" class="node"><title>0_2_kids</title>
<polyline fill="none" stroke="grey" points="346,-519 376,-519 "/>
<path fill="none" stroke="grey" d="M376,-519C382,-519 388,-525 388,-531"/>
<polyline fill="none" stroke="grey" points="388,-531 388,-543 "/>
<path fill="none" stroke="grey" d="M388,-543C388,-549 382,-555 376,-555"/>
<polyline fill="none" stroke="grey" points="376,-555 346,-555 "/>
<path fill="none" stroke="grey" d="M346,-555C340,-555 334,-549 334,-543"/>
<polyline fill="none" stroke="grey" points="334,-543 334,-531 "/>
<path fill="none" stroke="grey" d="M334,-531C334,-525 340,-519 346,-519"/>
<text text-anchor="middle" x="361" y="-533.9" font-family="Times Roman,serif" font-size="14.00" fill="blue">@$els</text>
</g>
<!-- 0_kids&#45;&gt;0_2_kids -->
<g id="edge44" class="edge"><title>0_kids:port3&#45;&gt;0_2_kids:port1</title>
<path fill="none" stroke="grey" d="M293,-611C319.176,-611 338.025,-585.586 349.146,-564.545"/>
<polygon fill="grey" stroke="grey" points="352.425,-565.809 353.71,-555.292 346.147,-562.712 352.425,-565.809"/>
</g>
<!-- 0_0_0_kids -->
<g id="node6" class="node"><title>0_0_0_kids</title>
<polyline fill="none" stroke="grey" points="43,-445 165,-445 "/>
<path fill="none" stroke="grey" d="M165,-445C171,-445 177,-451 177,-457"/>
<polyline fill="none" stroke="grey" points="177,-457 177,-469 "/>
<path fill="none" stroke="grey" d="M177,-469C177,-475 171,-481 165,-481"/>
<polyline fill="none" stroke="grey" points="165,-481 43,-481 "/>
<path fill="none" stroke="grey" d="M43,-481C37,-481 31,-475 31,-469"/>
<polyline fill="none" stroke="grey" points="31,-469 31,-457 "/>
<path fill="none" stroke="grey" d="M31,-457C31,-451 37,-445 43,-445"/>
<text text-anchor="middle" x="42.5" y="-459.9" font-family="Times Roman,serif" font-size="14.00" fill="blue">a</text>
<polyline fill="none" stroke="grey" points="54,-445 54,-481 "/>
<text text-anchor="middle" x="82.5" y="-459.9" font-family="Times Roman,serif" font-size="14.00" fill="blue">bbbbbb</text>
<polyline fill="none" stroke="grey" points="111,-445 111,-481 "/>
<text text-anchor="middle" x="132.5" y="-459.9" font-family="Times Roman,serif" font-size="14.00" fill="blue">c123</text>
<polyline fill="none" stroke="grey" points="154,-445 154,-481 "/>
<text text-anchor="middle" x="165.5" y="-459.9" font-family="Times Roman,serif" font-size="14.00" fill="blue">d</text>
</g>
<!-- 0_0_kids&#45;&gt;0_0_0_kids -->
<g id="edge6" class="edge"><title>0_0_kids:port1&#45;&gt;0_0_0_kids:port2</title>
<path fill="none" stroke="grey" d="M97.6069,-518.796C91.5359,-510.947 85.7035,-501.296 83.2346,-491.013"/>
<polygon fill="grey" stroke="grey" points="86.6975,-490.497 82,-481 79.7501,-491.353 86.6975,-490.497"/>
</g>
<!-- 0_0_0_0_kids -->
<g id="node8" class="node"><title>0_0_0_0_kids</title>
<polyline fill="none" stroke="grey" points="12,-371 42,-371 "/>
<path fill="none" stroke="grey" d="M42,-371C48,-371 54,-377 54,-383"/>
<polyline fill="none" stroke="grey" points="54,-383 54,-395 "/>
<path fill="none" stroke="grey" d="M54,-395C54,-401 48,-407 42,-407"/>
<polyline fill="none" stroke="grey" points="42,-407 12,-407 "/>
<path fill="none" stroke="grey" d="M12,-407C6,-407 0,-401 0,-395"/>
<polyline fill="none" stroke="grey" points="0,-395 0,-383 "/>
<path fill="none" stroke="grey" d="M0,-383C0,-377 6,-371 12,-371"/>
<text text-anchor="middle" x="27" y="-385.9" font-family="Times Roman,serif" font-size="14.00" fill="blue">%$a</text>
</g>
<!-- 0_0_0_kids&#45;&gt;0_0_0_0_kids -->
<g id="edge8" class="edge"><title>0_0_0_kids:port1&#45;&gt;0_0_0_0_kids:port1</title>
<path fill="none" stroke="grey" d="M42,-444C42,-434.966 40.0929,-425.381 37.6387,-416.788"/>
<polygon fill="grey" stroke="grey" points="40.9675,-415.706 34.5879,-407.247 34.3001,-417.838 40.9675,-415.706"/>
</g>
<!-- 0_0_0_1_kids -->
<g id="node10" class="node"><title>0_0_0_1_kids</title>
<polyline fill="none" stroke="grey" points="14,-297 54,-297 "/>
<path fill="none" stroke="grey" d="M54,-297C60,-297 66,-303 66,-309"/>
<polyline fill="none" stroke="grey" points="66,-309 66,-321 "/>
<path fill="none" stroke="grey" d="M66,-321C66,-327 60,-333 54,-333"/>
<polyline fill="none" stroke="grey" points="54,-333 14,-333 "/>
<path fill="none" stroke="grey" d="M14,-333C8,-333 2,-327 2,-321"/>
<polyline fill="none" stroke="grey" points="2,-321 2,-309 "/>
<path fill="none" stroke="grey" d="M2,-309C2,-303 8,-297 14,-297"/>
<text text-anchor="middle" x="34" y="-311.9" font-family="Times Roman,serif" font-size="14.00" fill="blue">$bbbbbb</text>
</g>
<!-- 0_0_0_kids&#45;&gt;0_0_0_1_kids -->
<g id="edge10" class="edge"><title>0_0_0_kids:port2&#45;&gt;0_0_0_1_kids:port1</title>
<path fill="none" stroke="grey" d="M82,-444C82,-406.919 64.3636,-367.394 50.4717,-342.012"/>
<polygon fill="grey" stroke="grey" points="53.3482,-339.989 45.3753,-333.012 47.2568,-343.438 53.3482,-339.989"/>
</g>
<!-- 0_0_0_2_kids -->
<g id="node14" class="node"><title>0_0_0_2_kids</title>
<polyline fill="none" stroke="grey" points="96,-297 126,-297 "/>
<path fill="none" stroke="grey" d="M126,-297C132,-297 138,-303 138,-309"/>
<polyline fill="none" stroke="grey" points="138,-309 138,-321 "/>
<path fill="none" stroke="grey" d="M138,-321C138,-327 132,-333 126,-333"/>
<polyline fill="none" stroke="grey" points="126,-333 96,-333 "/>
<path fill="none" stroke="grey" d="M96,-333C90,-333 84,-327 84,-321"/>
<polyline fill="none" stroke="grey" points="84,-321 84,-309 "/>
<path fill="none" stroke="grey" d="M84,-309C84,-303 90,-297 96,-297"/>
<text text-anchor="middle" x="111" y="-311.9" font-family="Times Roman,serif" font-size="14.00" fill="blue">$c123</text>
</g>
<!-- 0_0_0_kids&#45;&gt;0_0_0_2_kids -->
<g id="edge14" class="edge"><title>0_0_0_kids:port3&#45;&gt;0_0_0_2_kids:port1</title>
<path fill="none" stroke="grey" d="M133,-444C133,-408.856 124.967,-369.084 118.61,-343.108"/>
<polygon fill="grey" stroke="grey" points="121.95,-342.04 116.103,-333.205 115.164,-343.758 121.95,-342.04"/>
</g>
<!-- 0_0_0_3_kids -->
<g id="node17" class="node"><title>0_0_0_3_kids</title>
<polyline fill="none" stroke="grey" points="198.5,-371 241.5,-371 "/>
<path fill="none" stroke="grey" d="M241.5,-371C247.5,-371 253.5,-377 253.5,-383"/>
<polyline fill="none" stroke="grey" points="253.5,-383 253.5,-395 "/>
<path fill="none" stroke="grey" d="M253.5,-395C253.5,-401 247.5,-407 241.5,-407"/>
<polyline fill="none" stroke="grey" points="241.5,-407 198.5,-407 "/>
<path fill="none" stroke="grey" d="M198.5,-407C192.5,-407 186.5,-401 186.5,-395"/>
<polyline fill="none" stroke="grey" points="186.5,-395 186.5,-383 "/>
<path fill="none" stroke="grey" d="M186.5,-383C186.5,-377 192.5,-371 198.5,-371"/>
<text text-anchor="middle" x="220" y="-385.9" font-family="Times Roman,serif" font-size="14.00" fill="blue">Object: d</text>
</g>
<!-- 0_0_0_kids&#45;&gt;0_0_0_3_kids -->
<g id="edge18" class="edge"><title>0_0_0_kids:port4&#45;&gt;0_0_0_3_kids:port1</title>
<path fill="none" stroke="grey" d="M166,-444C166,-432.305 172.294,-422.184 180.584,-413.927"/>
<polygon fill="grey" stroke="grey" points="183.082,-416.392 188.276,-407.157 178.457,-411.137 183.082,-416.392"/>
</g>
<!-- &amp;CODE(0x1a4ead0) -->
<g id="node12" class="node"><title>&amp;CODE(0x1a4ead0)</title>
<ellipse fill="none" stroke="grey" cx="111" cy="-241" rx="92.839" ry="19.0919"/>
<text text-anchor="middle" x="111" y="-237.9" font-family="Times Roman,serif" font-size="14.00" fill="red">&amp;CODE(0x1a4ead0)</text>
</g>
<!-- 0_0_0_1_kids&#45;&gt;&amp;CODE(0x1a4ead0) -->
<g id="edge12" class="edge"><title>0_0_0_1_kids:port1&#45;&gt;&amp;CODE(0x1a4ead0)</title>
<path fill="none" stroke="grey" d="M53.8294,-296.686C63.1326,-287.624 74.355,-276.693 84.3844,-266.924"/>
<polygon fill="grey" stroke="grey" points="87.0484,-269.215 91.7698,-259.731 82.1642,-264.201 87.0484,-269.215"/>
</g>
<!-- 0_0_0_2_kids&#45;&gt;&amp;CODE(0x1a4ead0) -->
<g id="edge16" class="edge"><title>0_0_0_2_kids:port1&#45;&gt;&amp;CODE(0x1a4ead0)</title>
<path fill="none" stroke="grey" d="M111,-296.686C111,-288.725 111,-279.321 111,-270.53"/>
<polygon fill="grey" stroke="grey" points="114.5,-270.249 111,-260.249 107.5,-270.249 114.5,-270.249"/>
</g>
<!-- $REF(0x19ff240) -->
<g id="node19" class="node"><title>$REF(0x19ff240)</title>
<ellipse fill="none" stroke="grey" cx="236" cy="-315" rx="79.9031" ry="19.0919"/>
<text text-anchor="middle" x="236" y="-311.9" font-family="Times Roman,serif" font-size="14.00" fill="red">$REF(0x19ff240)</text>
</g>
<!-- 0_0_0_3_kids&#45;&gt;$REF(0x19ff240) -->
<g id="edge20" class="edge"><title>0_0_0_3_kids:port1&#45;&gt;$REF(0x19ff240)</title>
<path fill="none" stroke="grey" d="M224.12,-370.686C225.851,-362.575 227.9,-352.966 229.806,-344.034"/>
<polygon fill="grey" stroke="grey" points="233.285,-344.499 231.949,-333.989 226.44,-343.039 233.285,-344.499"/>
</g>
<!-- $REF(0x19ff240)&#45;&gt;&amp;CODE(0x1a4ead0) -->
<g id="edge22" class="edge"><title>$REF(0x19ff240)&#45;&gt;&amp;CODE(0x1a4ead0)</title>
<path fill="none" stroke="grey" d="M206.059,-297.275C189.453,-287.444 168.591,-275.094 150.646,-264.47"/>
<polygon fill="grey" stroke="grey" points="151.953,-261.177 141.565,-259.094 148.387,-267.2 151.953,-261.177"/>
</g>
<!-- 0_1_0_kids -->
<g id="node24" class="node"><title>0_1_0_kids</title>
<polyline fill="none" stroke="grey" points="232,-445 262,-445 "/>
<path fill="none" stroke="grey" d="M262,-445C268,-445 274,-451 274,-457"/>
<polyline fill="none" stroke="grey" points="274,-457 274,-469 "/>
<path fill="none" stroke="grey" d="M274,-469C274,-475 268,-481 262,-481"/>
<polyline fill="none" stroke="grey" points="262,-481 232,-481 "/>
<path fill="none" stroke="grey" d="M232,-481C226,-481 220,-475 220,-469"/>
<polyline fill="none" stroke="grey" points="220,-469 220,-457 "/>
<path fill="none" stroke="grey" d="M220,-457C220,-451 226,-445 232,-445"/>
<text text-anchor="middle" x="247" y="-459.9" font-family="Times Roman,serif" font-size="14.00" fill="blue">b</text>
</g>
<!-- 0_1_kids&#45;&gt;0_1_0_kids -->
<g id="edge26" class="edge"><title>0_1_kids:port1&#45;&gt;0_1_0_kids:port1</title>
<path fill="none" stroke="grey" d="M247,-518.708C247,-510.464 247,-500.538 247,-491.362"/>
<polygon fill="grey" stroke="grey" points="250.5,-491.082 247,-481.082 243.5,-491.082 250.5,-491.082"/>
</g>
<!-- 0_1_0_0_kids -->
<g id="node26" class="node"><title>0_1_0_0_kids</title>
<polyline fill="none" stroke="grey" points="322,-371 352,-371 "/>
<path fill="none" stroke="grey" d="M352,-371C358,-371 364,-377 364,-383"/>
<polyline fill="none" stroke="grey" points="364,-383 364,-395 "/>
<path fill="none" stroke="grey" d="M364,-395C364,-401 358,-407 352,-407"/>
<polyline fill="none" stroke="grey" points="352,-407 322,-407 "/>
<path fill="none" stroke="grey" d="M322,-407C316,-407 310,-401 310,-395"/>
<polyline fill="none" stroke="grey" points="310,-395 310,-383 "/>
<path fill="none" stroke="grey" d="M310,-383C310,-377 316,-371 322,-371"/>
<text text-anchor="middle" x="337" y="-385.9" font-family="Times Roman,serif" font-size="14.00" fill="blue">%$b</text>
</g>
<!-- 0_1_0_kids&#45;&gt;0_1_0_0_kids -->
<g id="edge28" class="edge"><title>0_1_0_kids:port1&#45;&gt;0_1_0_0_kids:port1</title>
<path fill="none" stroke="grey" d="M269.247,-444.708C280.691,-435.299 294.799,-423.699 307.173,-413.525"/>
<polygon fill="grey" stroke="grey" points="309.507,-416.136 315.009,-407.082 305.062,-410.729 309.507,-416.136"/>
</g>
<!-- 0_1_0_0_0_kids -->
<g id="node28" class="node"><title>0_1_0_0_0_kids</title>
<polyline fill="none" stroke="grey" points="346,-297 376,-297 "/>
<path fill="none" stroke="grey" d="M376,-297C382,-297 388,-303 388,-309"/>
<polyline fill="none" stroke="grey" points="388,-309 388,-321 "/>
<path fill="none" stroke="grey" d="M388,-321C388,-327 382,-333 376,-333"/>
<polyline fill="none" stroke="grey" points="376,-333 346,-333 "/>
<path fill="none" stroke="grey" d="M346,-333C340,-333 334,-327 334,-321"/>
<polyline fill="none" stroke="grey" points="334,-321 334,-309 "/>
<path fill="none" stroke="grey" d="M334,-309C334,-303 340,-297 346,-297"/>
<text text-anchor="middle" x="361" y="-311.9" font-family="Times Roman,serif" font-size="14.00" fill="blue">a</text>
</g>
<!-- 0_1_0_0_kids&#45;&gt;0_1_0_0_0_kids -->
<g id="edge30" class="edge"><title>0_1_0_0_kids:port1&#45;&gt;0_1_0_0_0_kids:port1</title>
<path fill="none" stroke="grey" d="M342.933,-370.708C345.665,-362.284 348.966,-352.105 351.995,-342.765"/>
<polygon fill="grey" stroke="grey" points="355.38,-343.674 355.136,-333.082 348.721,-341.514 355.38,-343.674"/>
</g>
<!-- 0_1_0_0_0_0_kids -->
<g id="node30" class="node"><title>0_1_0_0_0_0_kids</title>
<polyline fill="none" stroke="grey" points="346,-223 376,-223 "/>
<path fill="none" stroke="grey" d="M376,-223C382,-223 388,-229 388,-235"/>
<polyline fill="none" stroke="grey" points="388,-235 388,-247 "/>
<path fill="none" stroke="grey" d="M388,-247C388,-253 382,-259 376,-259"/>
<polyline fill="none" stroke="grey" points="376,-259 346,-259 "/>
<path fill="none" stroke="grey" d="M346,-259C340,-259 334,-253 334,-247"/>
<polyline fill="none" stroke="grey" points="334,-247 334,-235 "/>
<path fill="none" stroke="grey" d="M334,-235C334,-229 340,-223 346,-223"/>
<text text-anchor="middle" x="361" y="-237.9" font-family="Times Roman,serif" font-size="14.00" fill="blue">%$a</text>
</g>
<!-- 0_1_0_0_0_kids&#45;&gt;0_1_0_0_0_0_kids -->
<g id="edge32" class="edge"><title>0_1_0_0_0_kids:port1&#45;&gt;0_1_0_0_0_0_kids:port1</title>
<path fill="none" stroke="grey" d="M361,-296.708C361,-288.464 361,-278.538 361,-269.362"/>
<polygon fill="grey" stroke="grey" points="364.5,-269.082 361,-259.082 357.5,-269.082 364.5,-269.082"/>
</g>
<!-- 0_1_0_0_0_0_0_kids -->
<g id="node32" class="node"><title>0_1_0_0_0_0_0_kids</title>
<polyline fill="none" stroke="grey" points="338.5,-149 383.5,-149 "/>
<path fill="none" stroke="grey" d="M383.5,-149C389.5,-149 395.5,-155 395.5,-161"/>
<polyline fill="none" stroke="grey" points="395.5,-161 395.5,-173 "/>
<path fill="none" stroke="grey" d="M395.5,-173C395.5,-179 389.5,-185 383.5,-185"/>
<polyline fill="none" stroke="grey" points="383.5,-185 338.5,-185 "/>
<path fill="none" stroke="grey" d="M338.5,-185C332.5,-185 326.5,-179 326.5,-173"/>
<polyline fill="none" stroke="grey" points="326.5,-173 326.5,-161 "/>
<path fill="none" stroke="grey" d="M326.5,-161C326.5,-155 332.5,-149 338.5,-149"/>
<text text-anchor="middle" x="338" y="-163.9" font-family="Times Roman,serif" font-size="14.00" fill="blue">a</text>
<polyline fill="none" stroke="grey" points="349.5,-149 349.5,-185 "/>
<text text-anchor="middle" x="361" y="-163.9" font-family="Times Roman,serif" font-size="14.00" fill="blue">b</text>
<polyline fill="none" stroke="grey" points="372.5,-149 372.5,-185 "/>
<text text-anchor="middle" x="384" y="-163.9" font-family="Times Roman,serif" font-size="14.00" fill="blue">c</text>
</g>
<!-- 0_1_0_0_0_0_kids&#45;&gt;0_1_0_0_0_0_0_kids -->
<g id="edge34" class="edge"><title>0_1_0_0_0_0_kids:port1&#45;&gt;0_1_0_0_0_0_0_kids:port2</title>
<path fill="none" stroke="grey" d="M361,-222.74C361,-214.628 361,-204.855 361,-195.258"/>
<polygon fill="grey" stroke="grey" points="364.5,-195 361,-185 357.5,-195 364.5,-195"/>
</g>
<!-- 0_1_0_0_0_0_0_0_kids -->
<g id="node34" class="node"><title>0_1_0_0_0_0_0_0_kids</title>
<polyline fill="none" stroke="grey" points="274,-75 304,-75 "/>
<path fill="none" stroke="grey" d="M304,-75C310,-75 316,-81 316,-87"/>
<polyline fill="none" stroke="grey" points="316,-87 316,-99 "/>
<path fill="none" stroke="grey" d="M316,-99C316,-105 310,-111 304,-111"/>
<polyline fill="none" stroke="grey" points="304,-111 274,-111 "/>
<path fill="none" stroke="grey" d="M274,-111C268,-111 262,-105 262,-99"/>
<polyline fill="none" stroke="grey" points="262,-99 262,-87 "/>
<path fill="none" stroke="grey" d="M262,-87C262,-81 268,-75 274,-75"/>
<text text-anchor="middle" x="289" y="-89.9" font-family="Times Roman,serif" font-size="14.00" fill="blue">%$a</text>
</g>
<!-- 0_1_0_0_0_0_0_kids&#45;&gt;0_1_0_0_0_0_0_0_kids -->
<g id="edge36" class="edge"><title>0_1_0_0_0_0_0_kids:port1&#45;&gt;0_1_0_0_0_0_0_0_kids:port1</title>
<path fill="none" stroke="grey" d="M338,-148C338,-140.727 328.326,-129.058 317.574,-118.336"/>
<polygon fill="grey" stroke="grey" points="319.704,-115.528 310.065,-111.13 314.857,-120.579 319.704,-115.528"/>
</g>
<!-- 0_1_0_0_0_0_0_1_kids -->
<g id="node36" class="node"><title>0_1_0_0_0_0_0_1_kids</title>
<polyline fill="none" stroke="grey" points="346,-75 376,-75 "/>
<path fill="none" stroke="grey" d="M376,-75C382,-75 388,-81 388,-87"/>
<polyline fill="none" stroke="grey" points="388,-87 388,-99 "/>
<path fill="none" stroke="grey" d="M388,-99C388,-105 382,-111 376,-111"/>
<polyline fill="none" stroke="grey" points="376,-111 346,-111 "/>
<path fill="none" stroke="grey" d="M346,-111C340,-111 334,-105 334,-99"/>
<polyline fill="none" stroke="grey" points="334,-99 334,-87 "/>
<path fill="none" stroke="grey" d="M334,-87C334,-81 340,-75 346,-75"/>
<text text-anchor="middle" x="361" y="-89.9" font-family="Times Roman,serif" font-size="14.00" fill="blue">$b</text>
</g>
<!-- 0_1_0_0_0_0_0_kids&#45;&gt;0_1_0_0_0_0_0_1_kids -->
<g id="edge38" class="edge"><title>0_1_0_0_0_0_0_kids:port2&#45;&gt;0_1_0_0_0_0_0_1_kids:port1</title>
<path fill="none" stroke="grey" d="M361,-148C361,-139.406 361,-130.057 361,-121.546"/>
<polygon fill="grey" stroke="grey" points="364.5,-121.333 361,-111.333 357.5,-121.333 364.5,-121.333"/>
</g>
<!-- 0_1_0_0_0_0_0_2_kids -->
<g id="node40" class="node"><title>0_1_0_0_0_0_0_2_kids</title>
<polyline fill="none" stroke="grey" points="418,-75 448,-75 "/>
<path fill="none" stroke="grey" d="M448,-75C454,-75 460,-81 460,-87"/>
<polyline fill="none" stroke="grey" points="460,-87 460,-99 "/>
<path fill="none" stroke="grey" d="M460,-99C460,-105 454,-111 448,-111"/>
<polyline fill="none" stroke="grey" points="448,-111 418,-111 "/>
<path fill="none" stroke="grey" d="M418,-111C412,-111 406,-105 406,-99"/>
<polyline fill="none" stroke="grey" points="406,-99 406,-87 "/>
<path fill="none" stroke="grey" d="M406,-87C406,-81 412,-75 418,-75"/>
<text text-anchor="middle" x="433" y="-89.9" font-family="Times Roman,serif" font-size="14.00" fill="blue">42</text>
</g>
<!-- 0_1_0_0_0_0_0_kids&#45;&gt;0_1_0_0_0_0_0_2_kids -->
<g id="edge42" class="edge"><title>0_1_0_0_0_0_0_kids:port3&#45;&gt;0_1_0_0_0_0_0_2_kids:port1</title>
<path fill="none" stroke="grey" d="M384,-148C384,-140.727 393.674,-129.058 404.426,-118.336"/>
<polygon fill="grey" stroke="grey" points="407.143,-120.579 411.935,-111.13 402.296,-115.528 407.143,-120.579"/>
</g>
<!-- &amp;CODE(0x1cd40b8) -->
<g id="node38" class="node"><title>&amp;CODE(0x1cd40b8)</title>
<ellipse fill="none" stroke="grey" cx="361" cy="-19" rx="94.7523" ry="19.0919"/>
<text text-anchor="middle" x="361" y="-15.9" font-family="Times Roman,serif" font-size="14.00" fill="red">&amp;CODE(0x1cd40b8)</text>
</g>
<!-- 0_1_0_0_0_0_0_1_kids&#45;&gt;&amp;CODE(0x1cd40b8) -->
<g id="edge40" class="edge"><title>0_1_0_0_0_0_0_1_kids:port1&#45;&gt;&amp;CODE(0x1cd40b8)</title>
<path fill="none" stroke="grey" d="M361,-74.6856C361,-66.7247 361,-57.321 361,-48.53"/>
<polygon fill="grey" stroke="grey" points="364.5,-48.2489 361,-38.2489 357.5,-48.2489 364.5,-48.2489"/>
</g>
<!-- 0_2_0_kids -->
<g id="node44" class="node"><title>0_2_0_kids</title>
<polyline fill="none" stroke="grey" points="304,-445 502,-445 "/>
<path fill="none" stroke="grey" d="M502,-445C508,-445 514,-451 514,-457"/>
<polyline fill="none" stroke="grey" points="514,-457 514,-469 "/>
<path fill="none" stroke="grey" d="M514,-469C514,-475 508,-481 502,-481"/>
<polyline fill="none" stroke="grey" points="502,-481 304,-481 "/>
<path fill="none" stroke="grey" d="M304,-481C298,-481 292,-475 292,-469"/>
<polyline fill="none" stroke="grey" points="292,-469 292,-457 "/>
<path fill="none" stroke="grey" d="M292,-457C292,-451 298,-445 304,-445"/>
<text text-anchor="middle" x="329" y="-459.9" font-family="Times Roman,serif" font-size="14.00" fill="blue">element_1</text>
<polyline fill="none" stroke="grey" points="366,-445 366,-481 "/>
<text text-anchor="middle" x="403" y="-459.9" font-family="Times Roman,serif" font-size="14.00" fill="blue">element_2</text>
<polyline fill="none" stroke="grey" points="440,-445 440,-481 "/>
<text text-anchor="middle" x="477" y="-459.9" font-family="Times Roman,serif" font-size="14.00" fill="blue">element_3</text>
</g>
<!-- 0_2_kids&#45;&gt;0_2_0_kids -->
<g id="edge46" class="edge"><title>0_2_kids:port1&#45;&gt;0_2_0_kids:port2</title>
<path fill="none" stroke="grey" d="M384.456,-518.812C391.822,-511.107 398.779,-501.538 401.635,-490.966"/>
<polygon fill="grey" stroke="grey" points="405.111,-491.382 403,-481 398.176,-490.433 405.111,-491.382"/>
</g>
</g>
</svg>
