<?xml version="1.0" encoding="UTF-8" standalone="no"?>
<!DOCTYPE svg PUBLIC "-//W3C//DTD SVG 1.1//EN"
 "http://www.w3.org/Graphics/SVG/1.1/DTD/svg11.dtd">
<!-- Generated by graphviz version 2.30.1 (20130611.0131)
 -->
<!-- Title: Perl Pages: 1 -->
<svg width="522pt" height="716pt"
 viewBox="0.00 0.00 522.00 716.00" xmlns="http://www.w3.org/2000/svg" xmlns:xlink="http://www.w3.org/1999/xlink">
<g id="graph0" class="graph" transform="scale(1 1) rotate(0) translate(4 712)">
<title>Perl</title>
<polygon fill="white" stroke="white" points="-4,5 -4,-712 519,-712 519,5 -4,5"/>
<!-- 0 -->
<g id="node1" class="node"><title>0</title>
<polygon fill="none" stroke="green" points="276.338,-678.544 276.338,-693.456 259.738,-704 236.262,-704 219.662,-693.456 219.662,-678.544 236.262,-668 259.738,-668 276.338,-678.544"/>
<polygon fill="none" stroke="green" points="280.268,-676.325 280.268,-695.675 260.863,-708 235.137,-708 215.732,-695.675 215.732,-676.325 235.137,-664 260.863,-664 280.268,-676.325"/>
<text text-anchor="middle" x="248" y="-682.3" font-family="Times,serif" font-size="14.00">%$s</text>
</g>
<!-- 0_kids -->
<g id="node2" class="node"><title>0_kids</title>
<path fill="none" stroke="grey" d="M221,-591C221,-591 281,-591 281,-591 287,-591 293,-597 293,-603 293,-603 293,-615 293,-615 293,-621 287,-627 281,-627 281,-627 221,-627 221,-627 215,-627 209,-621 209,-615 209,-615 209,-603 209,-603 209,-597 215,-591 221,-591"/>
<text text-anchor="middle" x="222" y="-605.3" font-family="Times,serif" font-size="14.00" fill="blue">A</text>
<polyline fill="none" stroke="grey" points="235,-591 235,-627 "/>
<text text-anchor="middle" x="248" y="-605.3" font-family="Times,serif" font-size="14.00" fill="blue">C</text>
<polyline fill="none" stroke="grey" points="261,-591 261,-627 "/>
<text text-anchor="middle" x="277" y="-605.3" font-family="Times,serif" font-size="14.00" fill="blue">els</text>
</g>
<!-- 0&#45;&gt;0_kids -->
<g id="edge1" class="edge"><title>0&#45;&gt;0_kids:port2</title>
<path fill="none" stroke="grey" d="M248,-663.886C248,-656.163 248,-647.138 248,-638.263"/>
<polygon fill="grey" stroke="grey" points="251.5,-638 248,-628 244.5,-638 251.5,-638"/>
</g>
<!-- 0_0_kids -->
<g id="node3" class="node"><title>0_0_kids</title>
<path fill="none" stroke="grey" d="M101,-517C101,-517 131,-517 131,-517 137,-517 143,-523 143,-529 143,-529 143,-541 143,-541 143,-547 137,-553 131,-553 131,-553 101,-553 101,-553 95,-553 89,-547 89,-541 89,-541 89,-529 89,-529 89,-523 95,-517 101,-517"/>
<text text-anchor="middle" x="116" y="-531.3" font-family="Times,serif" font-size="14.00" fill="blue">%$A</text>
</g>
<!-- 0_kids&#45;&gt;0_0_kids -->
<g id="edge2" class="edge"><title>0_kids:port1&#45;&gt;0_0_kids:port1</title>
<path fill="none" stroke="grey" d="M208,-609C176.694,-609 149.997,-582.662 133.552,-561.412"/>
<polygon fill="grey" stroke="grey" points="136.314,-559.259 127.559,-553.292 130.682,-563.416 136.314,-559.259"/>
</g>
<!-- 0_1_kids -->
<g id="node11" class="node"><title>0_1_kids</title>
<path fill="none" stroke="grey" d="M233,-517C233,-517 263,-517 263,-517 269,-517 275,-523 275,-529 275,-529 275,-541 275,-541 275,-547 269,-553 263,-553 263,-553 233,-553 233,-553 227,-553 221,-547 221,-541 221,-541 221,-529 221,-529 221,-523 227,-517 233,-517"/>
<text text-anchor="middle" x="248" y="-531.3" font-family="Times,serif" font-size="14.00" fill="blue">%$C</text>
</g>
<!-- 0_kids&#45;&gt;0_1_kids -->
<g id="edge12" class="edge"><title>0_kids:port2&#45;&gt;0_1_kids:port1</title>
<path fill="none" stroke="grey" d="M248,-590C248,-581.406 248,-572.057 248,-563.546"/>
<polygon fill="grey" stroke="grey" points="251.5,-563.333 248,-553.333 244.5,-563.333 251.5,-563.333"/>
</g>
<!-- 0_2_kids -->
<g id="node21" class="node"><title>0_2_kids</title>
<path fill="none" stroke="grey" d="M347,-517C347,-517 377,-517 377,-517 383,-517 389,-523 389,-529 389,-529 389,-541 389,-541 389,-547 383,-553 377,-553 377,-553 347,-553 347,-553 341,-553 335,-547 335,-541 335,-541 335,-529 335,-529 335,-523 341,-517 347,-517"/>
<text text-anchor="middle" x="362" y="-531.3" font-family="Times,serif" font-size="14.00" fill="blue">@$els</text>
</g>
<!-- 0_kids&#45;&gt;0_2_kids -->
<g id="edge22" class="edge"><title>0_kids:port3&#45;&gt;0_2_kids:port1</title>
<path fill="none" stroke="grey" d="M294,-609C320.176,-609 339.025,-583.586 350.146,-562.545"/>
<polygon fill="grey" stroke="grey" points="353.425,-563.809 354.71,-553.292 347.147,-560.712 353.425,-563.809"/>
</g>
<!-- 0_0_0_kids -->
<g id="node4" class="node"><title>0_0_0_kids</title>
<path fill="none" stroke="grey" d="M43,-443C43,-443 165,-443 165,-443 171,-443 177,-449 177,-455 177,-455 177,-467 177,-467 177,-473 171,-479 165,-479 165,-479 43,-479 43,-479 37,-479 31,-473 31,-467 31,-467 31,-455 31,-455 31,-449 37,-443 43,-443"/>
<text text-anchor="middle" x="42.5" y="-457.3" font-family="Times,serif" font-size="14.00" fill="blue">a</text>
<polyline fill="none" stroke="grey" points="54,-443 54,-479 "/>
<text text-anchor="middle" x="82.5" y="-457.3" font-family="Times,serif" font-size="14.00" fill="blue">bbbbbb</text>
<polyline fill="none" stroke="grey" points="111,-443 111,-479 "/>
<text text-anchor="middle" x="132.5" y="-457.3" font-family="Times,serif" font-size="14.00" fill="blue">c123</text>
<polyline fill="none" stroke="grey" points="154,-443 154,-479 "/>
<text text-anchor="middle" x="165.5" y="-457.3" font-family="Times,serif" font-size="14.00" fill="blue">d</text>
</g>
<!-- 0_0_kids&#45;&gt;0_0_0_kids -->
<g id="edge3" class="edge"><title>0_0_kids:port1&#45;&gt;0_0_0_kids:port2</title>
<path fill="none" stroke="grey" d="M97.8056,-516.825C91.7427,-509.328 85.8835,-500.066 83.3328,-490.126"/>
<polygon fill="grey" stroke="grey" points="86.7752,-489.458 82,-480 79.835,-490.371 86.7752,-489.458"/>
</g>
<!-- 0_0_0_0_kids -->
<g id="node5" class="node"><title>0_0_0_0_kids</title>
<path fill="none" stroke="grey" d="M12,-369C12,-369 42,-369 42,-369 48,-369 54,-375 54,-381 54,-381 54,-393 54,-393 54,-399 48,-405 42,-405 42,-405 12,-405 12,-405 6,-405 0,-399 0,-393 0,-393 0,-381 0,-381 0,-375 6,-369 12,-369"/>
<text text-anchor="middle" x="27" y="-383.3" font-family="Times,serif" font-size="14.00" fill="blue">%$a</text>
</g>
<!-- 0_0_0_kids&#45;&gt;0_0_0_0_kids -->
<g id="edge4" class="edge"><title>0_0_0_kids:port1&#45;&gt;0_0_0_0_kids:port1</title>
<path fill="none" stroke="grey" d="M42,-442C42,-432.966 40.0929,-423.381 37.6387,-414.788"/>
<polygon fill="grey" stroke="grey" points="40.9675,-413.706 34.5879,-405.247 34.3001,-415.838 40.9675,-413.706"/>
</g>
<!-- 0_0_0_1_kids -->
<g id="node6" class="node"><title>0_0_0_1_kids</title>
<path fill="none" stroke="grey" d="M17,-295C17,-295 57,-295 57,-295 63,-295 69,-301 69,-307 69,-307 69,-319 69,-319 69,-325 63,-331 57,-331 57,-331 17,-331 17,-331 11,-331 5,-325 5,-319 5,-319 5,-307 5,-307 5,-301 11,-295 17,-295"/>
<text text-anchor="middle" x="37" y="-309.3" font-family="Times,serif" font-size="14.00" fill="blue">$bbbbbb</text>
</g>
<!-- 0_0_0_kids&#45;&gt;0_0_0_1_kids -->
<g id="edge5" class="edge"><title>0_0_0_kids:port2&#45;&gt;0_0_0_1_kids:port1</title>
<path fill="none" stroke="grey" d="M82,-442C82,-405.193 65.4659,-365.61 52.4422,-340.14"/>
<polygon fill="grey" stroke="grey" points="55.433,-338.309 47.6644,-331.104 49.2449,-341.581 55.433,-338.309"/>
</g>
<!-- 0_0_0_2_kids -->
<g id="node8" class="node"><title>0_0_0_2_kids</title>
<path fill="none" stroke="grey" d="M99,-295C99,-295 129,-295 129,-295 135,-295 141,-301 141,-307 141,-307 141,-319 141,-319 141,-325 135,-331 129,-331 129,-331 99,-331 99,-331 93,-331 87,-325 87,-319 87,-319 87,-307 87,-307 87,-301 93,-295 99,-295"/>
<text text-anchor="middle" x="114" y="-309.3" font-family="Times,serif" font-size="14.00" fill="blue">$c123</text>
</g>
<!-- 0_0_0_kids&#45;&gt;0_0_0_2_kids -->
<g id="edge7" class="edge"><title>0_0_0_kids:port3&#45;&gt;0_0_0_2_kids:port1</title>
<path fill="none" stroke="grey" d="M133,-442C133,-406.983 126.063,-367.184 120.572,-341.167"/>
<polygon fill="grey" stroke="grey" points="123.959,-340.271 118.407,-331.247 117.12,-341.763 123.959,-340.271"/>
</g>
<!-- 0_0_0_3_kids -->
<g id="node9" class="node"><title>0_0_0_3_kids</title>
<path fill="none" stroke="grey" d="M193.5,-369C193.5,-369 236.5,-369 236.5,-369 242.5,-369 248.5,-375 248.5,-381 248.5,-381 248.5,-393 248.5,-393 248.5,-399 242.5,-405 236.5,-405 236.5,-405 193.5,-405 193.5,-405 187.5,-405 181.5,-399 181.5,-393 181.5,-393 181.5,-381 181.5,-381 181.5,-375 187.5,-369 193.5,-369"/>
<text text-anchor="middle" x="215" y="-383.3" font-family="Times,serif" font-size="14.00" fill="blue">Object: d</text>
</g>
<!-- 0_0_0_kids&#45;&gt;0_0_0_3_kids -->
<g id="edge9" class="edge"><title>0_0_0_kids:port4&#45;&gt;0_0_0_3_kids:port1</title>
<path fill="none" stroke="grey" d="M166,-442C166,-430.642 171.897,-420.545 179.6,-412.202"/>
<polygon fill="grey" stroke="grey" points="182.268,-414.493 187.065,-405.046 177.424,-409.44 182.268,-414.493"/>
</g>
<!-- &amp;CODE(0x1126f78) -->
<g id="node7" class="node"><title>&amp;CODE(0x1126f78)</title>
<ellipse fill="none" stroke="grey" cx="114" cy="-239" rx="85.19" ry="18"/>
<text text-anchor="middle" x="114" y="-235.3" font-family="Times,serif" font-size="14.00" fill="red">&amp;CODE(0x1126f78)</text>
</g>
<!-- 0_0_0_1_kids&#45;&gt;&amp;CODE(0x1126f78) -->
<g id="edge6" class="edge"><title>0_0_0_1_kids:port1&#45;&gt;&amp;CODE(0x1126f78)</title>
<path fill="none" stroke="grey" d="M56.0337,-294.955C65.9247,-285.578 78.1417,-273.995 88.8058,-263.885"/>
<polygon fill="grey" stroke="grey" points="91.3919,-266.257 96.241,-256.836 86.5759,-261.177 91.3919,-266.257"/>
</g>
<!-- 0_0_0_2_kids&#45;&gt;&amp;CODE(0x1126f78) -->
<g id="edge8" class="edge"><title>0_0_0_2_kids:port1&#45;&gt;&amp;CODE(0x1126f78)</title>
<path fill="none" stroke="grey" d="M114,-294.955C114,-286.701 114,-276.738 114,-267.574"/>
<polygon fill="grey" stroke="grey" points="117.5,-267.335 114,-257.335 110.5,-267.335 117.5,-267.335"/>
</g>
<!-- $REF(0xfc4058) -->
<g id="node10" class="node"><title>$REF(0xfc4058)</title>
<ellipse fill="none" stroke="grey" cx="229" cy="-313" rx="70.2909" ry="18"/>
<text text-anchor="middle" x="229" y="-309.3" font-family="Times,serif" font-size="14.00" fill="red">$REF(0xfc4058)</text>
</g>
<!-- 0_0_0_3_kids&#45;&gt;$REF(0xfc4058) -->
<g id="edge10" class="edge"><title>0_0_0_3_kids:port1&#45;&gt;$REF(0xfc4058)</title>
<path fill="none" stroke="grey" d="M218.461,-368.955C220.061,-360.611 221.996,-350.521 223.769,-341.276"/>
<polygon fill="grey" stroke="grey" points="227.229,-341.815 225.676,-331.335 220.355,-340.496 227.229,-341.815"/>
</g>
<!-- $REF(0xfc4058)&#45;&gt;&amp;CODE(0x1126f78) -->
<g id="edge11" class="edge"><title>$REF(0xfc4058)&#45;&gt;&amp;CODE(0x1126f78)</title>
<path fill="none" stroke="grey" d="M203.763,-296.199C187.66,-286.118 166.566,-272.911 148.873,-261.834"/>
<polygon fill="grey" stroke="grey" points="150.308,-258.603 139.975,-256.263 146.594,-264.536 150.308,-258.603"/>
</g>
<!-- 0_1_0_kids -->
<g id="node12" class="node"><title>0_1_0_kids</title>
<path fill="none" stroke="grey" d="M233,-443C233,-443 263,-443 263,-443 269,-443 275,-449 275,-455 275,-455 275,-467 275,-467 275,-473 269,-479 263,-479 263,-479 233,-479 233,-479 227,-479 221,-473 221,-467 221,-467 221,-455 221,-455 221,-449 227,-443 233,-443"/>
<text text-anchor="middle" x="248" y="-457.3" font-family="Times,serif" font-size="14.00" fill="blue">b</text>
</g>
<!-- 0_1_kids&#45;&gt;0_1_0_kids -->
<g id="edge13" class="edge"><title>0_1_kids:port1&#45;&gt;0_1_0_kids:port1</title>
<path fill="none" stroke="grey" d="M248,-516.708C248,-508.464 248,-498.538 248,-489.362"/>
<polygon fill="grey" stroke="grey" points="251.5,-489.082 248,-479.082 244.5,-489.082 251.5,-489.082"/>
</g>
<!-- 0_1_0_0_kids -->
<g id="node13" class="node"><title>0_1_0_0_kids</title>
<path fill="none" stroke="grey" d="M310,-369C310,-369 340,-369 340,-369 346,-369 352,-375 352,-381 352,-381 352,-393 352,-393 352,-399 346,-405 340,-405 340,-405 310,-405 310,-405 304,-405 298,-399 298,-393 298,-393 298,-381 298,-381 298,-375 304,-369 310,-369"/>
<text text-anchor="middle" x="325" y="-383.3" font-family="Times,serif" font-size="14.00" fill="blue">%$b</text>
</g>
<!-- 0_1_0_kids&#45;&gt;0_1_0_0_kids -->
<g id="edge14" class="edge"><title>0_1_0_kids:port1&#45;&gt;0_1_0_0_kids:port1</title>
<path fill="none" stroke="grey" d="M267.034,-442.708C276.638,-433.478 288.435,-422.14 298.875,-412.107"/>
<polygon fill="grey" stroke="grey" points="301.4,-414.535 306.185,-405.082 296.55,-409.487 301.4,-414.535"/>
</g>
<!-- 0_1_0_0_0_kids -->
<g id="node14" class="node"><title>0_1_0_0_0_kids</title>
<path fill="none" stroke="grey" d="M329,-295C329,-295 359,-295 359,-295 365,-295 371,-301 371,-307 371,-307 371,-319 371,-319 371,-325 365,-331 359,-331 359,-331 329,-331 329,-331 323,-331 317,-325 317,-319 317,-319 317,-307 317,-307 317,-301 323,-295 329,-295"/>
<text text-anchor="middle" x="344" y="-309.3" font-family="Times,serif" font-size="14.00" fill="blue">a</text>
</g>
<!-- 0_1_0_0_kids&#45;&gt;0_1_0_0_0_kids -->
<g id="edge15" class="edge"><title>0_1_0_0_kids:port1&#45;&gt;0_1_0_0_0_kids:port1</title>
<path fill="none" stroke="grey" d="M329.697,-368.708C331.836,-360.374 334.417,-350.322 336.795,-341.063"/>
<polygon fill="grey" stroke="grey" points="340.26,-341.638 339.357,-331.082 333.48,-339.897 340.26,-341.638"/>
</g>
<!-- 0_1_0_0_0_0_kids -->
<g id="node15" class="node"><title>0_1_0_0_0_0_kids</title>
<path fill="none" stroke="grey" d="M329,-221C329,-221 359,-221 359,-221 365,-221 371,-227 371,-233 371,-233 371,-245 371,-245 371,-251 365,-257 359,-257 359,-257 329,-257 329,-257 323,-257 317,-251 317,-245 317,-245 317,-233 317,-233 317,-227 323,-221 329,-221"/>
<text text-anchor="middle" x="344" y="-235.3" font-family="Times,serif" font-size="14.00" fill="blue">%$a</text>
</g>
<!-- 0_1_0_0_0_kids&#45;&gt;0_1_0_0_0_0_kids -->
<g id="edge16" class="edge"><title>0_1_0_0_0_kids:port1&#45;&gt;0_1_0_0_0_0_kids:port1</title>
<path fill="none" stroke="grey" d="M344,-294.708C344,-286.464 344,-276.538 344,-267.362"/>
<polygon fill="grey" stroke="grey" points="347.5,-267.082 344,-257.082 340.5,-267.082 347.5,-267.082"/>
</g>
<!-- 0_1_0_0_0_0_0_kids -->
<g id="node16" class="node"><title>0_1_0_0_0_0_0_kids</title>
<path fill="none" stroke="grey" d="M321.5,-147C321.5,-147 366.5,-147 366.5,-147 372.5,-147 378.5,-153 378.5,-159 378.5,-159 378.5,-171 378.5,-171 378.5,-177 372.5,-183 366.5,-183 366.5,-183 321.5,-183 321.5,-183 315.5,-183 309.5,-177 309.5,-171 309.5,-171 309.5,-159 309.5,-159 309.5,-153 315.5,-147 321.5,-147"/>
<text text-anchor="middle" x="321" y="-161.3" font-family="Times,serif" font-size="14.00" fill="blue">a</text>
<polyline fill="none" stroke="grey" points="332.5,-147 332.5,-183 "/>
<text text-anchor="middle" x="344" y="-161.3" font-family="Times,serif" font-size="14.00" fill="blue">b</text>
<polyline fill="none" stroke="grey" points="355.5,-147 355.5,-183 "/>
<text text-anchor="middle" x="367" y="-161.3" font-family="Times,serif" font-size="14.00" fill="blue">c</text>
</g>
<!-- 0_1_0_0_0_0_kids&#45;&gt;0_1_0_0_0_0_0_kids -->
<g id="edge17" class="edge"><title>0_1_0_0_0_0_kids:port1&#45;&gt;0_1_0_0_0_0_0_kids:port2</title>
<path fill="none" stroke="grey" d="M344,-220.667C344,-212.896 344,-203.513 344,-194.275"/>
<polygon fill="grey" stroke="grey" points="347.5,-194 344,-184 340.5,-194 347.5,-194"/>
</g>
<!-- 0_1_0_0_0_0_0_0_kids -->
<g id="node17" class="node"><title>0_1_0_0_0_0_0_0_kids</title>
<path fill="none" stroke="grey" d="M257,-73C257,-73 287,-73 287,-73 293,-73 299,-79 299,-85 299,-85 299,-97 299,-97 299,-103 293,-109 287,-109 287,-109 257,-109 257,-109 251,-109 245,-103 245,-97 245,-97 245,-85 245,-85 245,-79 251,-73 257,-73"/>
<text text-anchor="middle" x="272" y="-87.3" font-family="Times,serif" font-size="14.00" fill="blue">%$a</text>
</g>
<!-- 0_1_0_0_0_0_0_kids&#45;&gt;0_1_0_0_0_0_0_0_kids -->
<g id="edge18" class="edge"><title>0_1_0_0_0_0_0_kids:port1&#45;&gt;0_1_0_0_0_0_0_0_kids:port1</title>
<path fill="none" stroke="grey" d="M321,-146C321,-138.727 311.326,-127.058 300.574,-116.336"/>
<polygon fill="grey" stroke="grey" points="302.704,-113.528 293.065,-109.13 297.857,-118.579 302.704,-113.528"/>
</g>
<!-- 0_1_0_0_0_0_0_1_kids -->
<g id="node18" class="node"><title>0_1_0_0_0_0_0_1_kids</title>
<path fill="none" stroke="grey" d="M329,-73C329,-73 359,-73 359,-73 365,-73 371,-79 371,-85 371,-85 371,-97 371,-97 371,-103 365,-109 359,-109 359,-109 329,-109 329,-109 323,-109 317,-103 317,-97 317,-97 317,-85 317,-85 317,-79 323,-73 329,-73"/>
<text text-anchor="middle" x="344" y="-87.3" font-family="Times,serif" font-size="14.00" fill="blue">$b</text>
</g>
<!-- 0_1_0_0_0_0_0_kids&#45;&gt;0_1_0_0_0_0_0_1_kids -->
<g id="edge19" class="edge"><title>0_1_0_0_0_0_0_kids:port2&#45;&gt;0_1_0_0_0_0_0_1_kids:port1</title>
<path fill="none" stroke="grey" d="M344,-146C344,-137.406 344,-128.057 344,-119.546"/>
<polygon fill="grey" stroke="grey" points="347.5,-119.333 344,-109.333 340.5,-119.333 347.5,-119.333"/>
</g>
<!-- 0_1_0_0_0_0_0_2_kids -->
<g id="node20" class="node"><title>0_1_0_0_0_0_0_2_kids</title>
<path fill="none" stroke="grey" d="M401,-73C401,-73 431,-73 431,-73 437,-73 443,-79 443,-85 443,-85 443,-97 443,-97 443,-103 437,-109 431,-109 431,-109 401,-109 401,-109 395,-109 389,-103 389,-97 389,-97 389,-85 389,-85 389,-79 395,-73 401,-73"/>
<text text-anchor="middle" x="416" y="-87.3" font-family="Times,serif" font-size="14.00" fill="blue">42</text>
</g>
<!-- 0_1_0_0_0_0_0_kids&#45;&gt;0_1_0_0_0_0_0_2_kids -->
<g id="edge21" class="edge"><title>0_1_0_0_0_0_0_kids:port3&#45;&gt;0_1_0_0_0_0_0_2_kids:port1</title>
<path fill="none" stroke="grey" d="M367,-146C367,-138.727 376.674,-127.058 387.426,-116.336"/>
<polygon fill="grey" stroke="grey" points="390.143,-118.579 394.935,-109.13 385.296,-113.528 390.143,-118.579"/>
</g>
<!-- &amp;CODE(0x123cec8) -->
<g id="node19" class="node"><title>&amp;CODE(0x123cec8)</title>
<ellipse fill="none" stroke="grey" cx="344" cy="-18" rx="85.19" ry="18"/>
<text text-anchor="middle" x="344" y="-14.3" font-family="Times,serif" font-size="14.00" fill="red">&amp;CODE(0x123cec8)</text>
</g>
<!-- 0_1_0_0_0_0_0_1_kids&#45;&gt;&amp;CODE(0x123cec8) -->
<g id="edge20" class="edge"><title>0_1_0_0_0_0_0_1_kids:port1&#45;&gt;&amp;CODE(0x123cec8)</title>
<path fill="none" stroke="grey" d="M344,-72.8314C344,-64.894 344,-55.4095 344,-46.6285"/>
<polygon fill="grey" stroke="grey" points="347.5,-46.4177 344,-36.4177 340.5,-46.4177 347.5,-46.4177"/>
</g>
<!-- 0_2_0_kids -->
<g id="node22" class="node"><title>0_2_0_kids</title>
<path fill="none" stroke="grey" d="M305,-443C305,-443 503,-443 503,-443 509,-443 515,-449 515,-455 515,-455 515,-467 515,-467 515,-473 509,-479 503,-479 503,-479 305,-479 305,-479 299,-479 293,-473 293,-467 293,-467 293,-455 293,-455 293,-449 299,-443 305,-443"/>
<text text-anchor="middle" x="330" y="-457.3" font-family="Times,serif" font-size="14.00" fill="blue">element_1</text>
<polyline fill="none" stroke="grey" points="367,-443 367,-479 "/>
<text text-anchor="middle" x="404" y="-457.3" font-family="Times,serif" font-size="14.00" fill="blue">element_2</text>
<polyline fill="none" stroke="grey" points="441,-443 441,-479 "/>
<text text-anchor="middle" x="478" y="-457.3" font-family="Times,serif" font-size="14.00" fill="blue">element_3</text>
</g>
<!-- 0_2_kids&#45;&gt;0_2_0_kids -->
<g id="edge23" class="edge"><title>0_2_kids:port1&#45;&gt;0_2_0_kids:port2</title>
<path fill="none" stroke="grey" d="M385.456,-516.643C392.747,-509.313 399.637,-500.191 402.547,-490.032"/>
<polygon fill="grey" stroke="grey" points="406.03,-490.399 404,-480 399.102,-489.395 406.03,-490.399"/>
</g>
</g>
</svg>
