<?xml version="1.0" encoding="UTF-8" standalone="no"?>
<!DOCTYPE svg PUBLIC "-//W3C//DTD SVG 1.1//EN"
 "http://www.w3.org/Graphics/SVG/1.1/DTD/svg11.dtd">
<!-- Generated by graphviz version 2.26.3 (20100126.1600)
 -->
<!-- Title: Perl Pages: 1 -->
<svg width="312pt" height="354pt"
 viewBox="0.00 0.00 312.00 354.00" xmlns="http://www.w3.org/2000/svg" xmlns:xlink="http://www.w3.org/1999/xlink">
<g id="graph1" class="graph" transform="scale(1 1) rotate(0) translate(4 350)">
<title>Perl</title>
<polygon fill="white" stroke="white" points="-4,5 -4,-350 309,-350 309,5 -4,5"/>
<!-- 0 -->
<g id="node1" class="node"><title>0</title>
<polygon fill="none" stroke="green" points="181.225,-312.44 181.225,-329.56 154.147,-341.665 115.853,-341.665 88.7749,-329.56 88.7749,-312.44 115.853,-300.335 154.147,-300.335 181.225,-312.44"/>
<polygon fill="none" stroke="green" points="185.186,-309.836 185.186,-332.164 154.984,-345.665 115.016,-345.665 84.8145,-332.164 84.8145,-309.836 115.016,-296.335 154.984,-296.335 185.186,-309.836"/>
<text text-anchor="middle" x="135" y="-317.9" font-family="Times Roman,serif" font-size="14.00">%$html</text>
</g>
<!-- 0_kids -->
<g id="node2" class="node"><title>0_kids</title>
<polyline fill="none" stroke="grey" points="125,-223 187,-223 "/>
<path fill="none" stroke="grey" d="M187,-223C193,-223 199,-229 199,-235"/>
<polyline fill="none" stroke="grey" points="199,-235 199,-247 "/>
<path fill="none" stroke="grey" d="M199,-247C199,-253 193,-259 187,-259"/>
<polyline fill="none" stroke="grey" points="187,-259 125,-259 "/>
<path fill="none" stroke="grey" d="M125,-259C119,-259 113,-253 113,-247"/>
<polyline fill="none" stroke="grey" points="113,-247 113,-235 "/>
<path fill="none" stroke="grey" d="M113,-235C113,-229 119,-223 125,-223"/>
<text text-anchor="middle" x="135" y="-237.9" font-family="Times Roman,serif" font-size="14.00" fill="blue">body</text>
<polyline fill="none" stroke="grey" points="157,-223 157,-259 "/>
<text text-anchor="middle" x="178" y="-237.9" font-family="Times Roman,serif" font-size="14.00" fill="blue">head</text>
</g>
<!-- 0&#45;&gt;0_kids -->
<g id="edge2" class="edge"><title>0&#45;&gt;0_kids:port1</title>
<path fill="none" stroke="grey" d="M135,-296.261C135,-288.012 135,-278.558 135,-269.298"/>
<polygon fill="grey" stroke="grey" points="138.5,-269 135,-259 131.5,-269 138.5,-269"/>
</g>
<!-- 0_0_kids -->
<g id="node4" class="node"><title>0_0_kids</title>
<polyline fill="none" stroke="grey" points="94,-149 132,-149 "/>
<path fill="none" stroke="grey" d="M132,-149C138,-149 144,-155 144,-161"/>
<polyline fill="none" stroke="grey" points="144,-161 144,-173 "/>
<path fill="none" stroke="grey" d="M144,-173C144,-179 138,-185 132,-185"/>
<polyline fill="none" stroke="grey" points="132,-185 94,-185 "/>
<path fill="none" stroke="grey" d="M94,-185C88,-185 82,-179 82,-173"/>
<polyline fill="none" stroke="grey" points="82,-173 82,-161 "/>
<path fill="none" stroke="grey" d="M82,-161C82,-155 88,-149 94,-149"/>
<text text-anchor="middle" x="113" y="-163.9" font-family="Times Roman,serif" font-size="14.00" fill="blue">%$body</text>
</g>
<!-- 0_kids&#45;&gt;0_0_kids -->
<g id="edge4" class="edge"><title>0_kids:port1&#45;&gt;0_0_kids:port1</title>
<path fill="none" stroke="grey" d="M135,-222C135,-212.585 132.187,-202.87 128.572,-194.274"/>
<polygon fill="grey" stroke="grey" points="131.687,-192.674 124.258,-185.12 125.355,-195.658 131.687,-192.674"/>
</g>
<!-- 0_1_kids -->
<g id="node12" class="node"><title>0_1_kids</title>
<polyline fill="none" stroke="grey" points="181.5,-149 218.5,-149 "/>
<path fill="none" stroke="grey" d="M218.5,-149C224.5,-149 230.5,-155 230.5,-161"/>
<polyline fill="none" stroke="grey" points="230.5,-161 230.5,-173 "/>
<path fill="none" stroke="grey" d="M230.5,-173C230.5,-179 224.5,-185 218.5,-185"/>
<polyline fill="none" stroke="grey" points="218.5,-185 181.5,-185 "/>
<path fill="none" stroke="grey" d="M181.5,-185C175.5,-185 169.5,-179 169.5,-173"/>
<polyline fill="none" stroke="grey" points="169.5,-173 169.5,-161 "/>
<path fill="none" stroke="grey" d="M169.5,-161C169.5,-155 175.5,-149 181.5,-149"/>
<text text-anchor="middle" x="200" y="-163.9" font-family="Times Roman,serif" font-size="14.00" fill="blue">%$head</text>
</g>
<!-- 0_kids&#45;&gt;0_1_kids -->
<g id="edge12" class="edge"><title>0_kids:port2&#45;&gt;0_1_kids:port1</title>
<path fill="none" stroke="grey" d="M178,-222C178,-212.585 180.813,-202.87 184.428,-194.274"/>
<polygon fill="grey" stroke="grey" points="187.645,-195.658 188.742,-185.12 181.313,-192.674 187.645,-195.658"/>
</g>
<!-- 0_0_0_kids -->
<g id="node6" class="node"><title>0_0_0_kids</title>
<polyline fill="none" stroke="grey" points="101,-75 131,-75 "/>
<path fill="none" stroke="grey" d="M131,-75C137,-75 143,-81 143,-87"/>
<polyline fill="none" stroke="grey" points="143,-87 143,-99 "/>
<path fill="none" stroke="grey" d="M143,-99C143,-105 137,-111 131,-111"/>
<polyline fill="none" stroke="grey" points="131,-111 101,-111 "/>
<path fill="none" stroke="grey" d="M101,-111C95,-111 89,-105 89,-99"/>
<polyline fill="none" stroke="grey" points="89,-99 89,-87 "/>
<path fill="none" stroke="grey" d="M89,-87C89,-81 95,-75 101,-75"/>
<text text-anchor="middle" x="104" y="-89.9" font-family="Times Roman,serif" font-size="14.00" fill="blue">h1</text>
<polyline fill="none" stroke="grey" points="119,-75 119,-111 "/>
<text text-anchor="middle" x="131" y="-89.9" font-family="Times Roman,serif" font-size="14.00" fill="blue">p</text>
</g>
<!-- 0_0_kids&#45;&gt;0_0_0_kids -->
<g id="edge6" class="edge"><title>0_0_kids:port1&#45;&gt;0_0_0_kids:port1</title>
<path fill="none" stroke="grey" d="M108.447,-148.858C106.79,-140.689 105.143,-130.801 104.404,-121.043"/>
<polygon fill="grey" stroke="grey" points="107.899,-120.851 104,-111 100.905,-121.133 107.899,-120.851"/>
</g>
<!-- 0_0_0_0_kids -->
<g id="node8" class="node"><title>0_0_0_0_kids</title>
<polyline fill="none" stroke="grey" points="11.5,-1 60.5,-1 "/>
<path fill="none" stroke="grey" d="M60.5,-1C66.5,-1 72.5,-7 72.5,-13"/>
<polyline fill="none" stroke="grey" points="72.5,-13 72.5,-25 "/>
<path fill="none" stroke="grey" d="M72.5,-25C72.5,-31 66.5,-37 60.5,-37"/>
<polyline fill="none" stroke="grey" points="60.5,-37 11.5,-37 "/>
<path fill="none" stroke="grey" d="M11.5,-37C5.5,-37 -0.5,-31 -0.5,-25"/>
<polyline fill="none" stroke="grey" points="-0.5,-25 -0.5,-13 "/>
<path fill="none" stroke="grey" d="M-0.5,-13C-0.5,-7 5.5,-1 11.5,-1"/>
<text text-anchor="middle" x="36" y="-15.9" font-family="Times Roman,serif" font-size="14.00" fill="blue">Heading 1</text>
</g>
<!-- 0_0_0_kids&#45;&gt;0_0_0_0_kids -->
<g id="edge8" class="edge"><title>0_0_0_kids:port1&#45;&gt;0_0_0_0_kids:port1</title>
<path fill="none" stroke="grey" d="M104,-74C104,-65.2883 90.3374,-53.3359 75.2604,-42.7983"/>
<polygon fill="grey" stroke="grey" points="77.0678,-39.7959 66.8167,-37.1192 73.1612,-45.6044 77.0678,-39.7959"/>
</g>
<!-- 0_0_0_1_kids -->
<g id="node10" class="node"><title>0_0_0_1_kids</title>
<polyline fill="none" stroke="grey" points="102,-1 160,-1 "/>
<path fill="none" stroke="grey" d="M160,-1C166,-1 172,-7 172,-13"/>
<polyline fill="none" stroke="grey" points="172,-13 172,-25 "/>
<path fill="none" stroke="grey" d="M172,-25C172,-31 166,-37 160,-37"/>
<polyline fill="none" stroke="grey" points="160,-37 102,-37 "/>
<path fill="none" stroke="grey" d="M102,-37C96,-37 90,-31 90,-25"/>
<polyline fill="none" stroke="grey" points="90,-25 90,-13 "/>
<path fill="none" stroke="grey" d="M90,-13C90,-7 96,-1 102,-1"/>
<text text-anchor="middle" x="131" y="-15.9" font-family="Times Roman,serif" font-size="14.00" fill="blue">Paragraph 1</text>
</g>
<!-- 0_0_0_kids&#45;&gt;0_0_0_1_kids -->
<g id="edge10" class="edge"><title>0_0_0_kids:port2&#45;&gt;0_0_0_1_kids:port1</title>
<path fill="none" stroke="grey" d="M131,-74C131,-65.4062 131,-56.0572 131,-47.5461"/>
<polygon fill="grey" stroke="grey" points="134.5,-47.3333 131,-37.3333 127.5,-47.3334 134.5,-47.3333"/>
</g>
<!-- 0_1_0_kids -->
<g id="node14" class="node"><title>0_1_0_kids</title>
<polyline fill="none" stroke="grey" points="202,-75 232,-75 "/>
<path fill="none" stroke="grey" d="M232,-75C238,-75 244,-81 244,-87"/>
<polyline fill="none" stroke="grey" points="244,-87 244,-99 "/>
<path fill="none" stroke="grey" d="M244,-99C244,-105 238,-111 232,-111"/>
<polyline fill="none" stroke="grey" points="232,-111 202,-111 "/>
<path fill="none" stroke="grey" d="M202,-111C196,-111 190,-105 190,-99"/>
<polyline fill="none" stroke="grey" points="190,-99 190,-87 "/>
<path fill="none" stroke="grey" d="M190,-87C190,-81 196,-75 202,-75"/>
<text text-anchor="middle" x="217" y="-89.9" font-family="Times Roman,serif" font-size="14.00" fill="blue">title</text>
</g>
<!-- 0_1_kids&#45;&gt;0_1_0_kids -->
<g id="edge14" class="edge"><title>0_1_kids:port1&#45;&gt;0_1_0_kids:port1</title>
<path fill="none" stroke="grey" d="M204.202,-148.708C206.117,-140.374 208.426,-130.322 210.553,-121.063"/>
<polygon fill="grey" stroke="grey" points="214.018,-121.612 212.846,-111.082 207.196,-120.044 214.018,-121.612"/>
</g>
<!-- 0_1_0_0_kids -->
<g id="node16" class="node"><title>0_1_0_0_kids</title>
<polyline fill="none" stroke="grey" points="201.5,-1 292.5,-1 "/>
<path fill="none" stroke="grey" d="M292.5,-1C298.5,-1 304.5,-7 304.5,-13"/>
<polyline fill="none" stroke="grey" points="304.5,-13 304.5,-25 "/>
<path fill="none" stroke="grey" d="M304.5,-25C304.5,-31 298.5,-37 292.5,-37"/>
<polyline fill="none" stroke="grey" points="292.5,-37 201.5,-37 "/>
<path fill="none" stroke="grey" d="M201.5,-37C195.5,-37 189.5,-31 189.5,-25"/>
<polyline fill="none" stroke="grey" points="189.5,-25 189.5,-13 "/>
<path fill="none" stroke="grey" d="M189.5,-13C189.5,-7 195.5,-1 201.5,-1"/>
<text text-anchor="middle" x="247" y="-15.9" font-family="Times Roman,serif" font-size="14.00" fill="blue">Title of document</text>
</g>
<!-- 0_1_0_kids&#45;&gt;0_1_0_0_kids -->
<g id="edge16" class="edge"><title>0_1_0_kids:port1&#45;&gt;0_1_0_0_kids:port1</title>
<path fill="none" stroke="grey" d="M224.416,-74.7079C227.867,-66.1947 232.045,-55.8885 235.865,-46.4671"/>
<polygon fill="grey" stroke="grey" points="239.156,-47.6641 239.67,-37.0817 232.669,-45.0341 239.156,-47.6641"/>
</g>
</g>
</svg>
