<?xml version="1.0" encoding="UTF-8" standalone="no"?>
<!DOCTYPE svg PUBLIC "-//W3C//DTD SVG 1.1//EN"
 "http://www.w3.org/Graphics/SVG/1.1/DTD/svg11.dtd">
<!-- Generated by graphviz version 2.38.0 (20140413.2041)
 -->
<!-- Title: Perl Pages: 1 -->
<svg width="271pt" height="78pt"
 viewBox="0.00 0.00 271.00 78.29" xmlns="http://www.w3.org/2000/svg" xmlns:xlink="http://www.w3.org/1999/xlink">
<g id="graph0" class="graph" transform="scale(1 1) rotate(0) translate(4 74.2914)">
<title>Perl</title>
<polygon fill="white" stroke="none" points="-4,4 -4,-74.2914 267,-74.2914 267,4 -4,4"/>
<!-- foo -->
<g id="node1" class="node"><title>foo</title>
<ellipse fill="none" stroke="green" cx="27" cy="-19.2914" rx="27" ry="18"/>
<text text-anchor="middle" x="27" y="-15.5914" font-family="Times,serif" font-size="14.00">foo</text>
</g>
<!-- foo&#45;&gt;foo -->
<g id="edge5" class="edge"><title>foo&#45;&gt;foo</title>
<path fill="none" stroke="grey" d="M17.7856,-36.3287C15.9051,-46.1493 18.9766,-55.2914 27,-55.2914 32.0146,-55.2914 35.0949,-51.7203 36.2409,-46.6443"/>
<polygon fill="grey" stroke="grey" points="39.7401,-46.3197 36.2144,-36.3287 32.7402,-46.3377 39.7401,-46.3197"/>
<text text-anchor="middle" x="27" y="-59.0914" font-family="Times,serif" font-size="14.00">/./</text>
</g>
<!-- bar -->
<g id="node2" class="node"><title>bar</title>
<ellipse fill="none" stroke="green" cx="132" cy="-19.2914" rx="27" ry="18"/>
<text text-anchor="middle" x="132" y="-15.5914" font-family="Times,serif" font-size="14.00">bar</text>
</g>
<!-- foo&#45;&gt;bar -->
<g id="edge6" class="edge"><title>foo&#45;&gt;bar</title>
<path fill="none" stroke="grey" d="M54.2578,-19.2914C66.4855,-19.2914 81.2356,-19.2914 94.5233,-19.2914"/>
<polygon fill="grey" stroke="grey" points="94.7902,-22.7915 104.79,-19.2914 94.7902,-15.7915 94.7902,-22.7915"/>
<text text-anchor="middle" x="79.5" y="-23.0914" font-family="Times,serif" font-size="14.00">/b/</text>
</g>
<!-- bar&#45;&gt;foo -->
<g id="edge3" class="edge"><title>bar&#45;&gt;foo</title>
<path fill="none" stroke="grey" d="M110.781,-7.94609C99.5094,-2.9396 85.1349,1.2914 72,-1.2914 67.5054,-2.17519 62.8917,-3.5218 58.4216,-5.089"/>
<polygon fill="grey" stroke="grey" points="57.011,-1.88232 48.9675,-8.77819 59.5557,-8.40342 57.011,-1.88232"/>
<text text-anchor="middle" x="79.5" y="-5.0914" font-family="Times,serif" font-size="14.00">/a/</text>
</g>
<!-- bar&#45;&gt;bar -->
<g id="edge4" class="edge"><title>bar&#45;&gt;bar</title>
<path fill="none" stroke="grey" d="M122.786,-36.3287C120.905,-46.1493 123.977,-55.2914 132,-55.2914 137.015,-55.2914 140.095,-51.7203 141.241,-46.6443"/>
<polygon fill="grey" stroke="grey" points="144.74,-46.3197 141.214,-36.3287 137.74,-46.3377 144.74,-46.3197"/>
<text text-anchor="middle" x="132" y="-59.0914" font-family="Times,serif" font-size="14.00">/b/</text>
</g>
<!-- baz -->
<g id="node3" class="node"><title>baz</title>
<ellipse fill="none" stroke="green" cx="236" cy="-19.2914" rx="27" ry="18"/>
<text text-anchor="middle" x="236" y="-15.5914" font-family="Times,serif" font-size="14.00">baz</text>
</g>
<!-- bar&#45;&gt;baz -->
<g id="edge2" class="edge"><title>bar&#45;&gt;baz</title>
<path fill="none" stroke="grey" d="M159.003,-19.2914C171.019,-19.2914 185.494,-19.2914 198.574,-19.2914"/>
<polygon fill="grey" stroke="grey" points="198.69,-22.7915 208.69,-19.2914 198.69,-15.7915 198.69,-22.7915"/>
<text text-anchor="middle" x="184" y="-23.0914" font-family="Times,serif" font-size="14.00">/c/</text>
</g>
<!-- baz&#45;&gt;baz -->
<g id="edge1" class="edge"><title>baz&#45;&gt;baz</title>
<path fill="none" stroke="grey" d="M226.786,-36.3287C224.905,-46.1493 227.977,-55.2914 236,-55.2914 241.015,-55.2914 244.095,-51.7203 245.241,-46.6443"/>
<polygon fill="grey" stroke="grey" points="248.74,-46.3197 245.214,-36.3287 241.74,-46.3377 248.74,-46.3197"/>
<text text-anchor="middle" x="236" y="-59.0914" font-family="Times,serif" font-size="14.00">/./</text>
</g>
</g>
</svg>
