<?xml version="1.0" encoding="UTF-8" standalone="no"?>
<!DOCTYPE svg PUBLIC "-//W3C//DTD SVG 1.1//EN"
 "http://www.w3.org/Graphics/SVG/1.1/DTD/svg11.dtd">
<!-- Generated by graphviz version 2.29.20121107.0545 (20121107.0545)
 -->
<!-- Title: Perl Pages: 1 -->
<svg width="134pt" height="654pt"
 viewBox="0.00 0.00 134.00 654.22" xmlns="http://www.w3.org/2000/svg" xmlns:xlink="http://www.w3.org/1999/xlink">
<g id="graph0" class="graph" transform="scale(1 1) rotate(0) translate(4 650.218)">
<title>Perl</title>
<polygon fill="white" stroke="white" points="-4,5 -4,-650.218 131,-650.218 131,5 -4,5"/>
<!-- number -->
<g id="node1" class="node"><title>number</title>
<polygon fill="none" stroke="blue" points="5.5,-2.71823 5.5,-63.7182 108.5,-63.7182 108.5,-2.71823 5.5,-2.71823"/>
<text text-anchor="middle" x="57" y="-48.5182" font-family="Times,serif" font-size="14.00">number</text>
<polyline fill="none" stroke="blue" points="5.5,-40.7182 108.5,-40.7182 "/>
<text text-anchor="middle" x="57" y="-25.5182" font-family="Times,serif" font-size="14.00">DIGIT </text>
<text text-anchor="middle" x="57" y="-10.5182" font-family="Times,serif" font-size="14.00">number DIGIT </text>
</g>
<!-- number&#45;&gt;number -->
<g id="edge1" class="edge"><title>number&#45;&gt;number</title>
<path fill="none" stroke="grey" d="M87.8645,-63.7509C107.351,-71.4114 126,-61.2339 126,-33.2182 126,-10.0178 113.211,0.949456 97.7476,-0.316485"/>
<polygon fill="grey" stroke="grey" points="96.7731,3.04915 87.8645,-2.68558 98.4049,-3.75801 96.7731,3.04915"/>
</g>
<!-- expr -->
<g id="node2" class="node"><title>expr</title>
<polygon fill="none" stroke="blue" points="11,-100.718 11,-319.718 103,-319.718 103,-100.718 11,-100.718"/>
<text text-anchor="middle" x="57" y="-304.518" font-family="Times,serif" font-size="14.00">expr</text>
<polyline fill="none" stroke="blue" points="11,-296.718 103,-296.718 "/>
<text text-anchor="middle" x="57" y="-281.518" font-family="Times,serif" font-size="14.00">&#39;(&#39; expr &#39;)&#39; </text>
<text text-anchor="middle" x="57" y="-266.518" font-family="Times,serif" font-size="14.00">expr &#39;+&#39; expr </text>
<text text-anchor="middle" x="57" y="-251.518" font-family="Times,serif" font-size="14.00">expr &#39;&#45;&#39; expr </text>
<text text-anchor="middle" x="57" y="-236.518" font-family="Times,serif" font-size="14.00">expr &#39;*&#39; expr </text>
<text text-anchor="middle" x="57" y="-221.518" font-family="Times,serif" font-size="14.00">expr &#39;/&#39; expr </text>
<text text-anchor="middle" x="57" y="-206.518" font-family="Times,serif" font-size="14.00">expr &#39;%&#39; expr </text>
<text text-anchor="middle" x="57" y="-191.518" font-family="Times,serif" font-size="14.00">expr &#39;&amp;&#39; expr </text>
<text text-anchor="middle" x="57" y="-176.518" font-family="Times,serif" font-size="14.00">expr &#39;</text>
<polyline fill="none" stroke="blue" points="11,-168.718 103,-168.718 "/>
<text text-anchor="middle" x="57" y="-153.518" font-family="Times,serif" font-size="14.00">&#39; expr </text>
<text text-anchor="middle" x="57" y="-138.518" font-family="Times,serif" font-size="14.00">&#39;&#45;&#39; expr </text>
<text text-anchor="middle" x="57" y="-123.518" font-family="Times,serif" font-size="14.00">LETTER </text>
<text text-anchor="middle" x="57" y="-108.518" font-family="Times,serif" font-size="14.00">number </text>
</g>
<!-- expr&#45;&gt;number -->
<g id="edge2" class="edge"><title>expr&#45;&gt;number</title>
<path fill="none" stroke="grey" d="M57,-100.378C57,-91.099 57,-82.1607 57,-74.0165"/>
<polygon fill="grey" stroke="grey" points="60.5001,-73.8056 57,-63.8056 53.5001,-73.8056 60.5001,-73.8056"/>
</g>
<!-- expr&#45;&gt;expr -->
<g id="edge3" class="edge"><title>expr&#45;&gt;expr</title>
<path fill="none" stroke="grey" d="M103.024,-242.413C113.406,-239.512 121,-228.781 121,-210.218 121,-197.457 117.411,-188.396 111.794,-183.037"/>
<polygon fill="grey" stroke="grey" points="113.443,-179.948 103.024,-178.024 109.969,-186.025 113.443,-179.948"/>
</g>
<!-- $accept -->
<g id="node3" class="node"><title>$accept</title>
<polygon fill="none" stroke="blue" points="23.5,-599.218 23.5,-645.218 90.5,-645.218 90.5,-599.218 23.5,-599.218"/>
<text text-anchor="middle" x="57" y="-630.018" font-family="Times,serif" font-size="14.00">$accept</text>
<polyline fill="none" stroke="blue" points="23.5,-622.218 90.5,-622.218 "/>
<text text-anchor="middle" x="57" y="-607.018" font-family="Times,serif" font-size="14.00">list $end </text>
</g>
<!-- list -->
<g id="node4" class="node"><title>list</title>
<polygon fill="none" stroke="blue" points="22.5,-455.218 22.5,-561.218 91.5,-561.218 91.5,-455.218 22.5,-455.218"/>
<text text-anchor="middle" x="57" y="-546.018" font-family="Times,serif" font-size="14.00">list</text>
<polyline fill="none" stroke="blue" points="22.5,-538.218 91.5,-538.218 "/>
<text text-anchor="middle" x="57" y="-523.018" font-family="Times,serif" font-size="14.00">(empty) </text>
<text text-anchor="middle" x="57" y="-508.018" font-family="Times,serif" font-size="14.00">list stat &#39;</text>
<text text-anchor="middle" x="57" y="-493.018" font-family="Times,serif" font-size="14.00">&#39; </text>
<text text-anchor="middle" x="57" y="-478.018" font-family="Times,serif" font-size="14.00">list error &#39;</text>
<text text-anchor="middle" x="57" y="-463.018" font-family="Times,serif" font-size="14.00">&#39; </text>
</g>
<!-- $accept&#45;&gt;list -->
<g id="edge4" class="edge"><title>$accept&#45;&gt;list</title>
<path fill="none" stroke="grey" d="M57,-599.091C57,-591.047 57,-581.51 57,-571.704"/>
<polygon fill="grey" stroke="grey" points="60.5001,-571.44 57,-561.44 53.5001,-571.44 60.5001,-571.44"/>
</g>
<!-- stat -->
<g id="node5" class="node"><title>stat</title>
<polygon fill="none" stroke="blue" points="-0.5,-356.718 -0.5,-417.718 114.5,-417.718 114.5,-356.718 -0.5,-356.718"/>
<text text-anchor="middle" x="57" y="-402.518" font-family="Times,serif" font-size="14.00">stat</text>
<polyline fill="none" stroke="blue" points="-0.5,-394.718 114.5,-394.718 "/>
<text text-anchor="middle" x="57" y="-379.518" font-family="Times,serif" font-size="14.00">expr </text>
<text text-anchor="middle" x="57" y="-364.518" font-family="Times,serif" font-size="14.00">LETTER &#39;=&#39; expr </text>
</g>
<!-- list&#45;&gt;stat -->
<g id="edge6" class="edge"><title>list&#45;&gt;stat</title>
<path fill="none" stroke="grey" d="M57,-455.023C57,-445.966 57,-436.68 57,-428.021"/>
<polygon fill="grey" stroke="grey" points="60.5001,-427.827 57,-417.828 53.5001,-427.828 60.5001,-427.827"/>
</g>
<!-- list&#45;&gt;list -->
<g id="edge7" class="edge"><title>list&#45;&gt;list</title>
<path fill="none" stroke="grey" d="M91.5043,-529.51C101.383,-528.675 109,-521.578 109,-508.218 109,-499.66 105.874,-493.672 101.03,-490.253"/>
<polygon fill="grey" stroke="grey" points="102.099,-486.919 91.5043,-486.927 99.7912,-493.528 102.099,-486.919"/>
</g>
<!-- stat&#45;&gt;expr -->
<g id="edge5" class="edge"><title>stat&#45;&gt;expr</title>
<path fill="none" stroke="grey" d="M57,-356.532C57,-348.643 57,-339.619 57,-330.016"/>
<polygon fill="grey" stroke="grey" points="60.5001,-329.822 57,-319.822 53.5001,-329.822 60.5001,-329.822"/>
</g>
</g>
</svg>
