<?xml version="1.0" encoding="UTF-8" standalone="no"?>
<!DOCTYPE svg PUBLIC "-//W3C//DTD SVG 1.1//EN"
 "http://www.w3.org/Graphics/SVG/1.1/DTD/svg11.dtd">
<!-- Generated by graphviz version 2.38.0 (20140413.2041)
 -->
<!-- Title: Perl Pages: 1 -->
<svg width="523pt" height="708pt"
 viewBox="0.00 0.00 523.00 708.00" xmlns="http://www.w3.org/2000/svg" xmlns:xlink="http://www.w3.org/1999/xlink">
<g id="graph0" class="graph" transform="scale(1 1) rotate(0) translate(4 704)">
<title>Perl</title>
<polygon fill="white" stroke="none" points="-4,4 -4,-704 519,-704 519,4 -4,4"/>
<!-- 0 -->
<g id="node1" class="node"><title>0</title>
<polygon fill="none" stroke="green" points="276.706,-670.544 276.706,-685.456 259.89,-696 236.11,-696 219.294,-685.456 219.294,-670.544 236.11,-660 259.89,-660 276.706,-670.544"/>
<polygon fill="none" stroke="green" points="280.687,-668.325 280.687,-687.675 261.031,-700 234.969,-700 215.313,-687.675 215.313,-668.325 234.969,-656 261.031,-656 280.687,-668.325"/>
<text text-anchor="middle" x="248" y="-674.3" font-family="Times,serif" font-size="14.00">%$s</text>
</g>
<!-- 0_kids -->
<g id="node2" class="node"><title>0_kids</title>
<path fill="none" stroke="grey" d="M221,-583.5C221,-583.5 281,-583.5 281,-583.5 287,-583.5 293,-589.5 293,-595.5 293,-595.5 293,-607.5 293,-607.5 293,-613.5 287,-619.5 281,-619.5 281,-619.5 221,-619.5 221,-619.5 215,-619.5 209,-613.5 209,-607.5 209,-607.5 209,-595.5 209,-595.5 209,-589.5 215,-583.5 221,-583.5"/>
<text text-anchor="middle" x="222" y="-597.8" font-family="Times,serif" font-size="14.00" fill="blue">A</text>
<polyline fill="none" stroke="grey" points="235,-583.5 235,-619.5 "/>
<text text-anchor="middle" x="248" y="-597.8" font-family="Times,serif" font-size="14.00" fill="blue">C</text>
<polyline fill="none" stroke="grey" points="261,-583.5 261,-619.5 "/>
<text text-anchor="middle" x="277" y="-597.8" font-family="Times,serif" font-size="14.00" fill="blue">els</text>
</g>
<!-- 0&#45;&gt;0_kids -->
<g id="edge1" class="edge"><title>0&#45;&gt;0_kids:port2</title>
<path fill="none" stroke="grey" d="M248,-655.886C248,-648.163 248,-639.138 248,-630.263"/>
<polygon fill="grey" stroke="grey" points="251.5,-630 248,-620 244.5,-630 251.5,-630"/>
</g>
<!-- 0_0_kids -->
<g id="node3" class="node"><title>0_0_kids</title>
<path fill="none" stroke="grey" d="M101,-510.5C101,-510.5 131,-510.5 131,-510.5 137,-510.5 143,-516.5 143,-522.5 143,-522.5 143,-534.5 143,-534.5 143,-540.5 137,-546.5 131,-546.5 131,-546.5 101,-546.5 101,-546.5 95,-546.5 89,-540.5 89,-534.5 89,-534.5 89,-522.5 89,-522.5 89,-516.5 95,-510.5 101,-510.5"/>
<text text-anchor="middle" x="116" y="-524.8" font-family="Times,serif" font-size="14.00" fill="blue">%$A</text>
</g>
<!-- 0_kids&#45;&gt;0_0_kids -->
<g id="edge2" class="edge"><title>0_kids:port1&#45;&gt;0_0_kids:port1</title>
<path fill="none" stroke="grey" d="M208,-601.5C176.86,-601.5 150.131,-575.518 133.633,-554.555"/>
<polygon fill="grey" stroke="grey" points="136.422,-552.44 127.618,-546.545 130.824,-556.643 136.422,-552.44"/>
</g>
<!-- 0_1_kids -->
<g id="node11" class="node"><title>0_1_kids</title>
<path fill="none" stroke="grey" d="M233,-510.5C233,-510.5 263,-510.5 263,-510.5 269,-510.5 275,-516.5 275,-522.5 275,-522.5 275,-534.5 275,-534.5 275,-540.5 269,-546.5 263,-546.5 263,-546.5 233,-546.5 233,-546.5 227,-546.5 221,-540.5 221,-534.5 221,-534.5 221,-522.5 221,-522.5 221,-516.5 227,-510.5 233,-510.5"/>
<text text-anchor="middle" x="248" y="-524.8" font-family="Times,serif" font-size="14.00" fill="blue">%$C</text>
</g>
<!-- 0_kids&#45;&gt;0_1_kids -->
<g id="edge12" class="edge"><title>0_kids:port2&#45;&gt;0_1_kids:port1</title>
<path fill="none" stroke="grey" d="M248,-583C248,-574.484 248,-565.22 248,-556.787"/>
<polygon fill="grey" stroke="grey" points="251.5,-556.667 248,-546.667 244.5,-556.667 251.5,-556.667"/>
</g>
<!-- 0_2_kids -->
<g id="node21" class="node"><title>0_2_kids</title>
<path fill="none" stroke="grey" d="M347,-510.5C347,-510.5 377,-510.5 377,-510.5 383,-510.5 389,-516.5 389,-522.5 389,-522.5 389,-534.5 389,-534.5 389,-540.5 383,-546.5 377,-546.5 377,-546.5 347,-546.5 347,-546.5 341,-546.5 335,-540.5 335,-534.5 335,-534.5 335,-522.5 335,-522.5 335,-516.5 341,-510.5 347,-510.5"/>
<text text-anchor="middle" x="362" y="-524.8" font-family="Times,serif" font-size="14.00" fill="blue">@$els</text>
</g>
<!-- 0_kids&#45;&gt;0_2_kids -->
<g id="edge22" class="edge"><title>0_kids:port3&#45;&gt;0_2_kids:port1</title>
<path fill="none" stroke="grey" d="M294,-601.5C319.984,-601.5 338.867,-576.43 350.047,-555.673"/>
<polygon fill="grey" stroke="grey" points="353.272,-557.051 354.64,-546.545 347.019,-553.905 353.272,-557.051"/>
</g>
<!-- 0_0_0_kids -->
<g id="node4" class="node"><title>0_0_0_kids</title>
<path fill="none" stroke="grey" d="M43,-437.5C43,-437.5 165,-437.5 165,-437.5 171,-437.5 177,-443.5 177,-449.5 177,-449.5 177,-461.5 177,-461.5 177,-467.5 171,-473.5 165,-473.5 165,-473.5 43,-473.5 43,-473.5 37,-473.5 31,-467.5 31,-461.5 31,-461.5 31,-449.5 31,-449.5 31,-443.5 37,-437.5 43,-437.5"/>
<text text-anchor="middle" x="42.5" y="-451.8" font-family="Times,serif" font-size="14.00" fill="blue">a</text>
<polyline fill="none" stroke="grey" points="54,-437.5 54,-473.5 "/>
<text text-anchor="middle" x="82.5" y="-451.8" font-family="Times,serif" font-size="14.00" fill="blue">bbbbbb</text>
<polyline fill="none" stroke="grey" points="111,-437.5 111,-473.5 "/>
<text text-anchor="middle" x="132.5" y="-451.8" font-family="Times,serif" font-size="14.00" fill="blue">c123</text>
<polyline fill="none" stroke="grey" points="154,-437.5 154,-473.5 "/>
<text text-anchor="middle" x="165.5" y="-451.8" font-family="Times,serif" font-size="14.00" fill="blue">d</text>
</g>
<!-- 0_0_kids&#45;&gt;0_0_0_kids -->
<g id="edge3" class="edge"><title>0_0_kids:port1&#45;&gt;0_0_0_kids:port2</title>
<path fill="none" stroke="grey" d="M97.4083,-510.029C91.5171,-502.73 85.8831,-493.791 83.3697,-484.195"/>
<polygon fill="grey" stroke="grey" points="86.8004,-483.445 82,-474 79.8627,-484.377 86.8004,-483.445"/>
</g>
<!-- 0_0_0_0_kids -->
<g id="node5" class="node"><title>0_0_0_0_kids</title>
<path fill="none" stroke="grey" d="M12,-364.5C12,-364.5 42,-364.5 42,-364.5 48,-364.5 54,-370.5 54,-376.5 54,-376.5 54,-388.5 54,-388.5 54,-394.5 48,-400.5 42,-400.5 42,-400.5 12,-400.5 12,-400.5 6,-400.5 0,-394.5 0,-388.5 0,-388.5 0,-376.5 0,-376.5 0,-370.5 6,-364.5 12,-364.5"/>
<text text-anchor="middle" x="27" y="-378.8" font-family="Times,serif" font-size="14.00" fill="blue">%$a</text>
</g>
<!-- 0_0_0_kids&#45;&gt;0_0_0_0_kids -->
<g id="edge4" class="edge"><title>0_0_0_kids:port1&#45;&gt;0_0_0_0_kids:port1</title>
<path fill="none" stroke="grey" d="M42,-437C42,-428.209 40.1634,-418.897 37.7755,-410.506"/>
<polygon fill="grey" stroke="grey" points="41.058,-409.279 34.6758,-400.823 34.3913,-411.414 41.058,-409.279"/>
</g>
<!-- 0_0_0_1_kids -->
<g id="node6" class="node"><title>0_0_0_1_kids</title>
<path fill="none" stroke="grey" d="M15,-291.5C15,-291.5 55,-291.5 55,-291.5 61,-291.5 67,-297.5 67,-303.5 67,-303.5 67,-315.5 67,-315.5 67,-321.5 61,-327.5 55,-327.5 55,-327.5 15,-327.5 15,-327.5 9,-327.5 3,-321.5 3,-315.5 3,-315.5 3,-303.5 3,-303.5 3,-297.5 9,-291.5 15,-291.5"/>
<text text-anchor="middle" x="35" y="-305.8" font-family="Times,serif" font-size="14.00" fill="blue">$bbbbbb</text>
</g>
<!-- 0_0_0_kids&#45;&gt;0_0_0_1_kids -->
<g id="edge5" class="edge"><title>0_0_0_kids:port2&#45;&gt;0_0_0_1_kids:port1</title>
<path fill="none" stroke="grey" d="M82,-437C82,-400.601 64.9279,-361.764 51.362,-336.649"/>
<polygon fill="grey" stroke="grey" points="54.311,-334.751 46.3774,-327.729 48.2003,-338.166 54.311,-334.751"/>
</g>
<!-- 0_0_0_2_kids -->
<g id="node8" class="node"><title>0_0_0_2_kids</title>
<path fill="none" stroke="grey" d="M97,-291.5C97,-291.5 127,-291.5 127,-291.5 133,-291.5 139,-297.5 139,-303.5 139,-303.5 139,-315.5 139,-315.5 139,-321.5 133,-327.5 127,-327.5 127,-327.5 97,-327.5 97,-327.5 91,-327.5 85,-321.5 85,-315.5 85,-315.5 85,-303.5 85,-303.5 85,-297.5 91,-291.5 97,-291.5"/>
<text text-anchor="middle" x="112" y="-305.8" font-family="Times,serif" font-size="14.00" fill="blue">$c123</text>
</g>
<!-- 0_0_0_kids&#45;&gt;0_0_0_2_kids -->
<g id="edge7" class="edge"><title>0_0_0_kids:port3&#45;&gt;0_0_0_2_kids:port1</title>
<path fill="none" stroke="grey" d="M133,-437C133,-402.298 125.333,-362.981 119.264,-337.296"/>
<polygon fill="grey" stroke="grey" points="122.645,-336.387 116.871,-327.504 115.845,-338.049 122.645,-336.387"/>
</g>
<!-- 0_0_0_3_kids -->
<g id="node9" class="node"><title>0_0_0_3_kids</title>
<path fill="none" stroke="grey" d="M196.5,-364.5C196.5,-364.5 239.5,-364.5 239.5,-364.5 245.5,-364.5 251.5,-370.5 251.5,-376.5 251.5,-376.5 251.5,-388.5 251.5,-388.5 251.5,-394.5 245.5,-400.5 239.5,-400.5 239.5,-400.5 196.5,-400.5 196.5,-400.5 190.5,-400.5 184.5,-394.5 184.5,-388.5 184.5,-388.5 184.5,-376.5 184.5,-376.5 184.5,-370.5 190.5,-364.5 196.5,-364.5"/>
<text text-anchor="middle" x="218" y="-378.8" font-family="Times,serif" font-size="14.00" fill="blue">Object: d</text>
</g>
<!-- 0_0_0_kids&#45;&gt;0_0_0_3_kids -->
<g id="edge9" class="edge"><title>0_0_0_kids:port4&#45;&gt;0_0_0_3_kids:port1</title>
<path fill="none" stroke="grey" d="M166,-437C166,-425.686 171.939,-415.794 179.803,-407.656"/>
<polygon fill="grey" stroke="grey" points="182.418,-410.008 187.451,-400.685 177.702,-404.835 182.418,-410.008"/>
</g>
<!-- &amp;CODE(0x2438790) -->
<g id="node7" class="node"><title>&amp;CODE(0x2438790)</title>
<ellipse fill="none" stroke="grey" cx="112" cy="-236.5" rx="87.1846" ry="18"/>
<text text-anchor="middle" x="112" y="-232.8" font-family="Times,serif" font-size="14.00" fill="red">&amp;CODE(0x2438790)</text>
</g>
<!-- 0_0_0_1_kids&#45;&gt;&amp;CODE(0x2438790) -->
<g id="edge6" class="edge"><title>0_0_0_1_kids:port1&#45;&gt;&amp;CODE(0x2438790)</title>
<path fill="none" stroke="grey" d="M54.4304,-291.331C64.2534,-282.146 76.2922,-270.889 86.8167,-261.048"/>
<polygon fill="grey" stroke="grey" points="89.2455,-263.569 94.1593,-254.182 84.4645,-258.456 89.2455,-263.569"/>
</g>
<!-- 0_0_0_2_kids&#45;&gt;&amp;CODE(0x2438790) -->
<g id="edge8" class="edge"><title>0_0_0_2_kids:port1&#45;&gt;&amp;CODE(0x2438790)</title>
<path fill="none" stroke="grey" d="M112,-291.331C112,-283.394 112,-273.909 112,-265.128"/>
<polygon fill="grey" stroke="grey" points="115.5,-264.918 112,-254.918 108.5,-264.918 115.5,-264.918"/>
</g>
<!-- $REF(0x218e588) -->
<g id="node10" class="node"><title>$REF(0x218e588)</title>
<ellipse fill="none" stroke="grey" cx="233" cy="-309.5" rx="76.0865" ry="18"/>
<text text-anchor="middle" x="233" y="-305.8" font-family="Times,serif" font-size="14.00" fill="red">$REF(0x218e588)</text>
</g>
<!-- 0_0_0_3_kids&#45;&gt;$REF(0x218e588) -->
<g id="edge10" class="edge"><title>0_0_0_3_kids:port1&#45;&gt;$REF(0x218e588)</title>
<path fill="none" stroke="grey" d="M221.785,-364.331C223.457,-356.307 225.458,-346.701 227.304,-337.839"/>
<polygon fill="grey" stroke="grey" points="230.758,-338.421 229.371,-327.918 223.905,-336.994 230.758,-338.421"/>
</g>
<!-- $REF(0x218e588)&#45;&gt;&amp;CODE(0x2438790) -->
<g id="edge11" class="edge"><title>$REF(0x218e588)&#45;&gt;&amp;CODE(0x2438790)</title>
<path fill="none" stroke="grey" d="M205.845,-292.566C188.84,-282.588 166.722,-269.61 148.231,-258.759"/>
<polygon fill="grey" stroke="grey" points="149.879,-255.668 139.483,-253.626 146.336,-261.706 149.879,-255.668"/>
</g>
<!-- 0_1_0_kids -->
<g id="node12" class="node"><title>0_1_0_kids</title>
<path fill="none" stroke="grey" d="M233,-437.5C233,-437.5 263,-437.5 263,-437.5 269,-437.5 275,-443.5 275,-449.5 275,-449.5 275,-461.5 275,-461.5 275,-467.5 269,-473.5 263,-473.5 263,-473.5 233,-473.5 233,-473.5 227,-473.5 221,-467.5 221,-461.5 221,-461.5 221,-449.5 221,-449.5 221,-443.5 227,-437.5 233,-437.5"/>
<text text-anchor="middle" x="248" y="-451.8" font-family="Times,serif" font-size="14.00" fill="blue">b</text>
</g>
<!-- 0_1_kids&#45;&gt;0_1_0_kids -->
<g id="edge13" class="edge"><title>0_1_kids:port1&#45;&gt;0_1_0_kids:port1</title>
<path fill="none" stroke="grey" d="M248,-510.455C248,-502.383 248,-492.676 248,-483.682"/>
<polygon fill="grey" stroke="grey" points="251.5,-483.59 248,-473.59 244.5,-483.59 251.5,-483.59"/>
</g>
<!-- 0_1_0_0_kids -->
<g id="node13" class="node"><title>0_1_0_0_kids</title>
<path fill="none" stroke="grey" d="M318,-364.5C318,-364.5 348,-364.5 348,-364.5 354,-364.5 360,-370.5 360,-376.5 360,-376.5 360,-388.5 360,-388.5 360,-394.5 354,-400.5 348,-400.5 348,-400.5 318,-400.5 318,-400.5 312,-400.5 306,-394.5 306,-388.5 306,-388.5 306,-376.5 306,-376.5 306,-370.5 312,-364.5 318,-364.5"/>
<text text-anchor="middle" x="333" y="-378.8" font-family="Times,serif" font-size="14.00" fill="blue">%$b</text>
</g>
<!-- 0_1_0_kids&#45;&gt;0_1_0_0_kids -->
<g id="edge14" class="edge"><title>0_1_0_kids:port1&#45;&gt;0_1_0_0_kids:port1</title>
<path fill="none" stroke="grey" d="M269.011,-437.455C279.636,-428.33 292.693,-417.116 304.235,-407.204"/>
<polygon fill="grey" stroke="grey" points="306.63,-409.761 311.936,-400.59 302.069,-404.45 306.63,-409.761"/>
</g>
<!-- 0_1_0_0_0_kids -->
<g id="node14" class="node"><title>0_1_0_0_0_kids</title>
<path fill="none" stroke="grey" d="M339,-291.5C339,-291.5 369,-291.5 369,-291.5 375,-291.5 381,-297.5 381,-303.5 381,-303.5 381,-315.5 381,-315.5 381,-321.5 375,-327.5 369,-327.5 369,-327.5 339,-327.5 339,-327.5 333,-327.5 327,-321.5 327,-315.5 327,-315.5 327,-303.5 327,-303.5 327,-297.5 333,-291.5 339,-291.5"/>
<text text-anchor="middle" x="354" y="-305.8" font-family="Times,serif" font-size="14.00" fill="blue">a</text>
</g>
<!-- 0_1_0_0_kids&#45;&gt;0_1_0_0_0_kids -->
<g id="edge15" class="edge"><title>0_1_0_0_kids:port1&#45;&gt;0_1_0_0_0_kids:port1</title>
<path fill="none" stroke="grey" d="M338.191,-364.455C340.538,-356.295 343.366,-346.465 345.977,-337.389"/>
<polygon fill="grey" stroke="grey" points="349.395,-338.168 348.796,-327.59 342.668,-336.233 349.395,-338.168"/>
</g>
<!-- 0_1_0_0_0_0_kids -->
<g id="node15" class="node"><title>0_1_0_0_0_0_kids</title>
<path fill="none" stroke="grey" d="M339,-218.5C339,-218.5 369,-218.5 369,-218.5 375,-218.5 381,-224.5 381,-230.5 381,-230.5 381,-242.5 381,-242.5 381,-248.5 375,-254.5 369,-254.5 369,-254.5 339,-254.5 339,-254.5 333,-254.5 327,-248.5 327,-242.5 327,-242.5 327,-230.5 327,-230.5 327,-224.5 333,-218.5 339,-218.5"/>
<text text-anchor="middle" x="354" y="-232.8" font-family="Times,serif" font-size="14.00" fill="blue">%$a</text>
</g>
<!-- 0_1_0_0_0_kids&#45;&gt;0_1_0_0_0_0_kids -->
<g id="edge16" class="edge"><title>0_1_0_0_0_kids:port1&#45;&gt;0_1_0_0_0_0_kids:port1</title>
<path fill="none" stroke="grey" d="M354,-291.455C354,-283.383 354,-273.676 354,-264.682"/>
<polygon fill="grey" stroke="grey" points="357.5,-264.59 354,-254.59 350.5,-264.59 357.5,-264.59"/>
</g>
<!-- 0_1_0_0_0_0_0_kids -->
<g id="node16" class="node"><title>0_1_0_0_0_0_0_kids</title>
<path fill="none" stroke="grey" d="M331.5,-145.5C331.5,-145.5 376.5,-145.5 376.5,-145.5 382.5,-145.5 388.5,-151.5 388.5,-157.5 388.5,-157.5 388.5,-169.5 388.5,-169.5 388.5,-175.5 382.5,-181.5 376.5,-181.5 376.5,-181.5 331.5,-181.5 331.5,-181.5 325.5,-181.5 319.5,-175.5 319.5,-169.5 319.5,-169.5 319.5,-157.5 319.5,-157.5 319.5,-151.5 325.5,-145.5 331.5,-145.5"/>
<text text-anchor="middle" x="331" y="-159.8" font-family="Times,serif" font-size="14.00" fill="blue">a</text>
<polyline fill="none" stroke="grey" points="342.5,-145.5 342.5,-181.5 "/>
<text text-anchor="middle" x="354" y="-159.8" font-family="Times,serif" font-size="14.00" fill="blue">b</text>
<polyline fill="none" stroke="grey" points="365.5,-145.5 365.5,-181.5 "/>
<text text-anchor="middle" x="377" y="-159.8" font-family="Times,serif" font-size="14.00" fill="blue">c</text>
</g>
<!-- 0_1_0_0_0_0_kids&#45;&gt;0_1_0_0_0_0_0_kids -->
<g id="edge17" class="edge"><title>0_1_0_0_0_0_kids:port1&#45;&gt;0_1_0_0_0_0_0_kids:port2</title>
<path fill="none" stroke="grey" d="M354,-218.333C354,-210.634 354,-201.336 354,-192.182"/>
<polygon fill="grey" stroke="grey" points="357.5,-192 354,-182 350.5,-192 357.5,-192"/>
</g>
<!-- 0_1_0_0_0_0_0_0_kids -->
<g id="node17" class="node"><title>0_1_0_0_0_0_0_0_kids</title>
<path fill="none" stroke="grey" d="M267,-72.5C267,-72.5 297,-72.5 297,-72.5 303,-72.5 309,-78.5 309,-84.5 309,-84.5 309,-96.5 309,-96.5 309,-102.5 303,-108.5 297,-108.5 297,-108.5 267,-108.5 267,-108.5 261,-108.5 255,-102.5 255,-96.5 255,-96.5 255,-84.5 255,-84.5 255,-78.5 261,-72.5 267,-72.5"/>
<text text-anchor="middle" x="282" y="-86.8" font-family="Times,serif" font-size="14.00" fill="blue">%$a</text>
</g>
<!-- 0_1_0_0_0_0_0_kids&#45;&gt;0_1_0_0_0_0_0_0_kids -->
<g id="edge18" class="edge"><title>0_1_0_0_0_0_0_kids:port1&#45;&gt;0_1_0_0_0_0_0_0_kids:port1</title>
<path fill="none" stroke="grey" d="M331,-145C331,-137.815 321.463,-126.363 310.805,-115.806"/>
<polygon fill="grey" stroke="grey" points="313.004,-113.068 303.35,-108.705 308.176,-118.136 313.004,-113.068"/>
</g>
<!-- 0_1_0_0_0_0_0_1_kids -->
<g id="node18" class="node"><title>0_1_0_0_0_0_0_1_kids</title>
<path fill="none" stroke="grey" d="M339,-72.5C339,-72.5 369,-72.5 369,-72.5 375,-72.5 381,-78.5 381,-84.5 381,-84.5 381,-96.5 381,-96.5 381,-102.5 375,-108.5 369,-108.5 369,-108.5 339,-108.5 339,-108.5 333,-108.5 327,-102.5 327,-96.5 327,-96.5 327,-84.5 327,-84.5 327,-78.5 333,-72.5 339,-72.5"/>
<text text-anchor="middle" x="354" y="-86.8" font-family="Times,serif" font-size="14.00" fill="blue">$b</text>
</g>
<!-- 0_1_0_0_0_0_0_kids&#45;&gt;0_1_0_0_0_0_0_1_kids -->
<g id="edge19" class="edge"><title>0_1_0_0_0_0_0_kids:port2&#45;&gt;0_1_0_0_0_0_0_1_kids:port1</title>
<path fill="none" stroke="grey" d="M354,-145C354,-136.484 354,-127.22 354,-118.787"/>
<polygon fill="grey" stroke="grey" points="357.5,-118.667 354,-108.667 350.5,-118.667 357.5,-118.667"/>
</g>
<!-- 0_1_0_0_0_0_0_2_kids -->
<g id="node20" class="node"><title>0_1_0_0_0_0_0_2_kids</title>
<path fill="none" stroke="grey" d="M411,-72.5C411,-72.5 441,-72.5 441,-72.5 447,-72.5 453,-78.5 453,-84.5 453,-84.5 453,-96.5 453,-96.5 453,-102.5 447,-108.5 441,-108.5 441,-108.5 411,-108.5 411,-108.5 405,-108.5 399,-102.5 399,-96.5 399,-96.5 399,-84.5 399,-84.5 399,-78.5 405,-72.5 411,-72.5"/>
<text text-anchor="middle" x="426" y="-86.8" font-family="Times,serif" font-size="14.00" fill="blue">42</text>
</g>
<!-- 0_1_0_0_0_0_0_kids&#45;&gt;0_1_0_0_0_0_0_2_kids -->
<g id="edge21" class="edge"><title>0_1_0_0_0_0_0_kids:port3&#45;&gt;0_1_0_0_0_0_0_2_kids:port1</title>
<path fill="none" stroke="grey" d="M377,-145C377,-137.815 386.537,-126.363 397.195,-115.806"/>
<polygon fill="grey" stroke="grey" points="399.824,-118.136 404.65,-108.705 394.996,-113.068 399.824,-118.136"/>
</g>
<!-- &amp;CODE(0x2436830) -->
<g id="node19" class="node"><title>&amp;CODE(0x2436830)</title>
<ellipse fill="none" stroke="grey" cx="354" cy="-18" rx="87.1846" ry="18"/>
<text text-anchor="middle" x="354" y="-14.3" font-family="Times,serif" font-size="14.00" fill="red">&amp;CODE(0x2436830)</text>
</g>
<!-- 0_1_0_0_0_0_0_1_kids&#45;&gt;&amp;CODE(0x2436830) -->
<g id="edge20" class="edge"><title>0_1_0_0_0_0_0_1_kids:port1&#45;&gt;&amp;CODE(0x2436830)</title>
<path fill="none" stroke="grey" d="M354,-72.4575C354,-64.5753 354,-55.1566 354,-46.4366"/>
<polygon fill="grey" stroke="grey" points="357.5,-46.2967 354,-36.2968 350.5,-46.2968 357.5,-46.2967"/>
</g>
<!-- 0_2_0_kids -->
<g id="node22" class="node"><title>0_2_0_kids</title>
<path fill="none" stroke="grey" d="M305,-437.5C305,-437.5 503,-437.5 503,-437.5 509,-437.5 515,-443.5 515,-449.5 515,-449.5 515,-461.5 515,-461.5 515,-467.5 509,-473.5 503,-473.5 503,-473.5 305,-473.5 305,-473.5 299,-473.5 293,-467.5 293,-461.5 293,-461.5 293,-449.5 293,-449.5 293,-443.5 299,-437.5 305,-437.5"/>
<text text-anchor="middle" x="330" y="-451.8" font-family="Times,serif" font-size="14.00" fill="blue">element_1</text>
<polyline fill="none" stroke="grey" points="367,-437.5 367,-473.5 "/>
<text text-anchor="middle" x="404" y="-451.8" font-family="Times,serif" font-size="14.00" fill="blue">element_2</text>
<polyline fill="none" stroke="grey" points="441,-437.5 441,-473.5 "/>
<text text-anchor="middle" x="478" y="-451.8" font-family="Times,serif" font-size="14.00" fill="blue">element_3</text>
</g>
<!-- 0_2_kids&#45;&gt;0_2_0_kids -->
<g id="edge23" class="edge"><title>0_2_kids:port1&#45;&gt;0_2_0_kids:port2</title>
<path fill="none" stroke="grey" d="M385.456,-510.351C392.747,-503.095 399.637,-494.056 402.547,-483.968"/>
<polygon fill="grey" stroke="grey" points="406.021,-484.4 404,-474 399.094,-483.39 406.021,-484.4"/>
</g>
</g>
</svg>
