<?xml version="1.0" encoding="UTF-8" standalone="no"?>
<!DOCTYPE svg PUBLIC "-//W3C//DTD SVG 1.1//EN"
 "http://www.w3.org/Graphics/SVG/1.1/DTD/svg11.dtd">
<!-- Generated by graphviz version 2.38.0 (20140413.2041)
 -->
<!-- Title: Perl Pages: 1 -->
<svg width="3953pt" height="332pt"
 viewBox="0.00 0.00 3953.10 332.00" xmlns="http://www.w3.org/2000/svg" xmlns:xlink="http://www.w3.org/1999/xlink">
<g id="graph0" class="graph" transform="scale(1 1) rotate(0) translate(4 328)">
<title>Perl</title>
<polygon fill="white" stroke="none" points="-4,4 -4,-328 3949.1,-328 3949.1,4 -4,4"/>
<!-- Grammar -->
<g id="node1" class="node"><title>Grammar</title>
<ellipse fill="none" stroke="blue" cx="2065.55" cy="-306" rx="46.5926" ry="18"/>
<text text-anchor="middle" x="2065.55" y="-302.3" font-family="Times,serif" font-size="14.00">Grammar</text>
</g>
<!-- defn -->
<g id="node2" class="node"><title>defn</title>
<ellipse fill="none" stroke="blue" cx="890.555" cy="-90" rx="109.381" ry="18"/>
<text text-anchor="middle" x="890.555" y="-86.3" font-family="Times,serif" font-size="14.00">&#39;var&#39; id &#39;holds&#39; typename &#39;;&#39; &#160;</text>
</g>
<!-- Grammar&#45;&gt;defn -->
<g id="edge3" class="edge"><title>Grammar&#45;&gt;defn</title>
<path fill="none" stroke="grey" d="M2018.55,-304.886C1830.81,-304.112 1140.84,-298.13 1055.55,-252 1003.25,-223.705 1020.24,-184.354 976.555,-144 963.432,-131.878 947.137,-121.012 932.272,-112.321"/>
<polygon fill="grey" stroke="grey" points="933.667,-109.089 923.242,-107.199 930.213,-115.178 933.667,-109.089"/>
</g>
<!-- id -->
<g id="node3" class="node"><title>id</title>
<ellipse fill="none" stroke="blue" cx="509.555" cy="-18" rx="509.61" ry="18"/>
<text text-anchor="middle" x="509.555" y="-14.3" font-family="Times,serif" font-size="14.00">/[a&#45;z]		# LEADING ALPHABETIC\n		 &#160;\w*		# FOLLOWED BY ALPHAS, DIGITS, OR UNDERSCORES\n		 /ix &#160;</text>
</g>
<!-- Grammar&#45;&gt;id -->
<g id="edge13" class="edge"><title>Grammar&#45;&gt;id</title>
<path fill="none" stroke="grey" d="M2018.48,-305.179C1764.9,-305.924 570.846,-306.518 516.555,-252 462.015,-197.233 484.957,-94.5005 500.127,-45.8529"/>
<polygon fill="grey" stroke="grey" points="503.548,-46.6503 503.307,-36.0582 496.89,-44.4886 503.548,-46.6503"/>
</g>
<!-- typename -->
<g id="node4" class="node"><title>typename</title>
<ellipse fill="none" stroke="blue" cx="1065.55" cy="-18" rx="28.6953" ry="18"/>
<text text-anchor="middle" x="1065.55" y="-14.3" font-family="Times,serif" font-size="14.00">&#39;int&#39; &#160;</text>
</g>
<!-- Grammar&#45;&gt;typename -->
<g id="edge25" class="edge"><title>Grammar&#45;&gt;typename</title>
<path fill="none" stroke="grey" d="M2018.69,-305.323C1840.88,-306.144 1214.44,-305.207 1144.55,-252 1136.02,-245.501 1092.21,-105.659 1073.76,-45.8005"/>
<polygon fill="grey" stroke="grey" points="1077.01,-44.459 1070.73,-35.9298 1070.32,-46.5169 1077.01,-44.459"/>
</g>
<!-- b -->
<g id="node5" class="node"><title>b</title>
<ellipse fill="none" stroke="blue" cx="1179.55" cy="-162" rx="27" ry="18"/>
<text text-anchor="middle" x="1179.55" y="-158.3" font-family="Times,serif" font-size="14.00">&#39;b&#39; &#160;</text>
</g>
<!-- Grammar&#45;&gt;b -->
<g id="edge4" class="edge"><title>Grammar&#45;&gt;b</title>
<path fill="none" stroke="grey" d="M2018.76,-304.033C1837,-300.054 1186.4,-283.639 1156.55,-252 1140.03,-234.484 1150.98,-206.697 1162.75,-186.832"/>
<polygon fill="grey" stroke="grey" points="1165.74,-188.651 1168.12,-178.327 1159.82,-184.912 1165.74,-188.651"/>
</g>
<!-- test7 -->
<g id="node6" class="node"><title>test7</title>
<ellipse fill="none" stroke="blue" cx="1337.55" cy="-234" rx="74.9875" ry="18"/>
<text text-anchor="middle" x="1337.55" y="-230.3" font-family="Times,serif" font-size="14.00">&#39;x&#39; &lt;resync&gt; /y+/ &#160;</text>
</g>
<!-- Grammar&#45;&gt;test7 -->
<g id="edge5" class="edge"><title>Grammar&#45;&gt;test7</title>
<path fill="none" stroke="grey" d="M2019.27,-303.061C1913.15,-298.207 1644.25,-283.587 1421.55,-252 1414.82,-251.045 1407.82,-249.89 1400.86,-248.636"/>
<polygon fill="grey" stroke="grey" points="1401.19,-245.138 1390.72,-246.74 1399.9,-252.018 1401.19,-245.138"/>
</g>
<!-- test6 -->
<g id="node7" class="node"><title>test6</title>
<ellipse fill="none" stroke="blue" cx="1802.55" cy="-234" rx="371.534" ry="18"/>
<text text-anchor="middle" x="1802.55" y="-230.3" font-family="Times,serif" font-size="14.00">&lt;rulevar: $test6 = 1&gt; &#160;&#39;a&#39; &lt;commit&gt; &#39;b&#39; &lt;uncommit&gt; &#39;c&#39; &lt;reject: $test6 &amp;&amp; $text&gt; &#160;&lt;uncommit&gt; &#160;&#39;a&#39; &#160;</text>
</g>
<!-- Grammar&#45;&gt;test6 -->
<g id="edge6" class="edge"><title>Grammar&#45;&gt;test6</title>
<path fill="none" stroke="grey" d="M2028.15,-295.045C1988.53,-284.5 1924.98,-267.585 1875.41,-254.391"/>
<polygon fill="grey" stroke="grey" points="1876.26,-250.995 1865.69,-251.805 1874.46,-257.76 1876.26,-250.995"/>
</g>
<!-- cat -->
<g id="node8" class="node"><title>cat</title>
<ellipse fill="none" stroke="blue" cx="2328.55" cy="-234" rx="135.676" ry="18"/>
<text text-anchor="middle" x="2328.55" y="-230.3" font-family="Times,serif" font-size="14.00">&lt;reject: $arg[0] ne &#39;meows&#39;&gt; &#39;cat&#39; &#160;&#160;</text>
</g>
<!-- Grammar&#45;&gt;cat -->
<g id="edge7" class="edge"><title>Grammar&#45;&gt;cat</title>
<path fill="none" stroke="grey" d="M2102.96,-295.045C2144.04,-284.111 2210.85,-266.328 2261.13,-252.946"/>
<polygon fill="grey" stroke="grey" points="2262.19,-256.286 2270.95,-250.332 2260.39,-249.522 2262.19,-256.286"/>
</g>
<!-- test4 -->
<g id="node9" class="node"><title>test4</title>
<ellipse fill="none" stroke="blue" cx="1205.55" cy="-234" rx="39.7935" ry="18"/>
<text text-anchor="middle" x="1205.55" y="-230.3" font-family="Times,serif" font-size="14.00">&#39;a&#39; b /c/ &#160;</text>
</g>
<!-- Grammar&#45;&gt;test4 -->
<g id="edge9" class="edge"><title>Grammar&#45;&gt;test4</title>
<path fill="none" stroke="grey" d="M2019.11,-303.647C1869.56,-299.025 1401.62,-282.443 1253.55,-252 1250.35,-251.341 1247.07,-250.518 1243.8,-249.591"/>
<polygon fill="grey" stroke="grey" points="1244.71,-246.209 1234.12,-246.562 1242.62,-252.889 1244.71,-246.209"/>
</g>
<!-- is -->
<g id="node10" class="node"><title>is</title>
<ellipse fill="none" stroke="blue" cx="2602.55" cy="-162" rx="43.5923" ry="18"/>
<text text-anchor="middle" x="2602.55" y="-158.3" font-family="Times,serif" font-size="14.00">&#39;is&#39; &#160;&#39;are&#39; &#160;</text>
</g>
<!-- Grammar&#45;&gt;is -->
<g id="edge10" class="edge"><title>Grammar&#45;&gt;is</title>
<path fill="none" stroke="grey" d="M2111.51,-302.604C2204.23,-297.194 2410.25,-282.093 2473.55,-252 2494.57,-242.011 2492.93,-229.947 2511.55,-216 2528.84,-203.053 2549.55,-190.769 2566.84,-181.294"/>
<polygon fill="grey" stroke="grey" points="2568.91,-184.156 2576.05,-176.332 2565.59,-177.993 2568.91,-184.156"/>
</g>
<!-- test3 -->
<g id="node11" class="node"><title>test3</title>
<ellipse fill="none" stroke="blue" cx="749.555" cy="-234" rx="207.963" ry="18"/>
<text text-anchor="middle" x="749.555" y="-230.3" font-family="Times,serif" font-size="14.00">_alternation_1_of_production_1_of_rule_test3(5..10) &#160;</text>
</g>
<!-- Grammar&#45;&gt;test3 -->
<g id="edge12" class="edge"><title>Grammar&#45;&gt;test3</title>
<path fill="none" stroke="grey" d="M2019.14,-303.217C1868.15,-297.318 1377.22,-277.353 971.555,-252 950.394,-250.677 928.11,-249.141 906.155,-247.544"/>
<polygon fill="grey" stroke="grey" points="906.326,-244.047 896.096,-246.806 905.814,-251.028 906.326,-244.047"/>
</g>
<!-- _alternation_1_of_production_1_of_rule_test3 -->
<g id="node12" class="node"><title>_alternation_1_of_production_1_of_rule_test3</title>
<ellipse fill="none" stroke="blue" cx="890.555" cy="-162" rx="76.8869" ry="18"/>
<text text-anchor="middle" x="890.555" y="-158.3" font-family="Times,serif" font-size="14.00">defn &#160;typedef &#160;fail &#160;</text>
</g>
<!-- Grammar&#45;&gt;_alternation_1_of_production_1_of_rule_test3 -->
<g id="edge20" class="edge"><title>Grammar&#45;&gt;_alternation_1_of_production_1_of_rule_test3</title>
<path fill="none" stroke="grey" d="M2018.67,-304.398C1826.43,-301.69 1104.25,-289.118 1009.55,-252 986.349,-242.904 986.352,-231.143 966.555,-216 952.72,-205.417 936.992,-194.305 923.447,-185.004"/>
<polygon fill="grey" stroke="grey" points="925.137,-181.921 914.903,-179.178 921.193,-187.704 925.137,-181.921"/>
</g>
<!-- a -->
<g id="node13" class="node"><title>a</title>
<ellipse fill="none" stroke="blue" cx="3177.55" cy="-234" rx="27" ry="18"/>
<text text-anchor="middle" x="3177.55" y="-230.3" font-family="Times,serif" font-size="14.00">&#39;a&#39; &#160;</text>
</g>
<!-- Grammar&#45;&gt;a -->
<g id="edge14" class="edge"><title>Grammar&#45;&gt;a</title>
<path fill="none" stroke="grey" d="M2112.51,-304.809C2292.34,-303.75 2937.22,-296.837 3136.55,-252 3139.97,-251.233 3143.46,-250.203 3146.89,-249.029"/>
<polygon fill="grey" stroke="grey" points="3148.21,-252.27 3156.31,-245.432 3145.72,-245.731 3148.21,-252.27"/>
</g>
<!-- fail -->
<g id="node14" class="node"><title>fail</title>
<ellipse fill="none" stroke="blue" cx="1044.55" cy="-90" rx="27" ry="18"/>
<text text-anchor="middle" x="1044.55" y="-86.3" font-family="Times,serif" font-size="14.00"> </text>
</g>
<!-- Grammar&#45;&gt;fail -->
<g id="edge15" class="edge"><title>Grammar&#45;&gt;fail</title>
<path fill="none" stroke="grey" d="M2018.94,-304.003C1829.04,-299.749 1122.01,-281.947 1085.55,-252 1046.17,-219.644 1041.62,-155.239 1042.58,-118.45"/>
<polygon fill="grey" stroke="grey" points="1046.1,-118.125 1043.03,-107.986 1039.11,-117.829 1046.1,-118.125"/>
</g>
<!-- name -->
<g id="node15" class="node"><title>name</title>
<ellipse fill="none" stroke="blue" cx="3241.55" cy="-162" rx="33.2948" ry="18"/>
<text text-anchor="middle" x="3241.55" y="-158.3" font-family="Times,serif" font-size="14.00">&#39;fred&#39; &#160;</text>
</g>
<!-- Grammar&#45;&gt;name -->
<g id="edge16" class="edge"><title>Grammar&#45;&gt;name</title>
<path fill="none" stroke="grey" d="M2112.46,-304.325C2322.61,-301.114 3169.26,-286.097 3213.55,-252 3232.25,-237.612 3238.73,-210.796 3240.85,-190.346"/>
<polygon fill="grey" stroke="grey" points="3244.34,-190.565 3241.6,-180.332 3237.36,-190.042 3244.34,-190.565"/>
</g>
<!-- typedef -->
<g id="node16" class="node"><title>typedef</title>
<ellipse fill="none" stroke="blue" cx="633.555" cy="-90" rx="98.5829" ry="18"/>
<text text-anchor="middle" x="633.555" y="-86.3" font-family="Times,serif" font-size="14.00">&#39;type&#39; id &#39;is&#39; typename &#39;;&#39; &#160;</text>
</g>
<!-- Grammar&#45;&gt;typedef -->
<g id="edge31" class="edge"><title>Grammar&#45;&gt;typedef</title>
<path fill="none" stroke="grey" d="M2018.53,-305.189C1766.53,-305.977 585.431,-306.736 532.555,-252 491.203,-209.194 558.265,-146.782 601.494,-113.642"/>
<polygon fill="grey" stroke="grey" points="603.627,-116.418 609.52,-107.613 599.423,-110.821 603.627,-116.418"/>
</g>
<!-- dog -->
<g id="node17" class="node"><title>dog</title>
<ellipse fill="none" stroke="blue" cx="3533.55" cy="-234" rx="31.3957" ry="18"/>
<text text-anchor="middle" x="3533.55" y="-230.3" font-family="Times,serif" font-size="14.00">&#39;dog&#39; &#160;</text>
</g>
<!-- Grammar&#45;&gt;dog -->
<g id="edge21" class="edge"><title>Grammar&#45;&gt;dog</title>
<path fill="none" stroke="grey" d="M2112.53,-305.285C2327.26,-306.275 3216.54,-306.918 3488.55,-252 3492.29,-251.245 3496.13,-250.218 3499.92,-249.04"/>
<polygon fill="grey" stroke="grey" points="3501.39,-252.234 3509.69,-245.653 3499.1,-245.62 3501.39,-252.234"/>
</g>
<!-- test5 -->
<g id="node18" class="node"><title>test5</title>
<ellipse fill="none" stroke="blue" cx="3353.55" cy="-234" rx="92.8835" ry="18"/>
<text text-anchor="middle" x="3353.55" y="-230.3" font-family="Times,serif" font-size="14.00">name notname &#160;name &#160;</text>
</g>
<!-- Grammar&#45;&gt;test5 -->
<g id="edge24" class="edge"><title>Grammar&#45;&gt;test5</title>
<path fill="none" stroke="grey" d="M2112.39,-304.792C2271.69,-303.68 2807.03,-296.634 3246.55,-252 3256.62,-250.978 3267.19,-249.634 3277.59,-248.149"/>
<polygon fill="grey" stroke="grey" points="3278.11,-251.61 3287.5,-246.689 3277.09,-244.685 3278.11,-251.61"/>
</g>
<!-- notname -->
<g id="node19" class="node"><title>notname</title>
<ellipse fill="none" stroke="blue" cx="3413.55" cy="-162" rx="51.1914" ry="18"/>
<text text-anchor="middle" x="3413.55" y="-158.3" font-family="Times,serif" font-size="14.00">/[a&#45;z]\w*/i &#160;</text>
</g>
<!-- Grammar&#45;&gt;notname -->
<g id="edge35" class="edge"><title>Grammar&#45;&gt;notname</title>
<path fill="none" stroke="grey" d="M2112.41,-305.015C2349.55,-304.865 3407.98,-301.423 3455.55,-252 3473.44,-233.418 3455.63,-205.803 3438,-186.27"/>
<polygon fill="grey" stroke="grey" points="3440.49,-183.81 3431.07,-178.958 3435.41,-188.625 3440.49,-183.81"/>
</g>
<!-- test2 -->
<g id="node20" class="node"><title>test2</title>
<ellipse fill="none" stroke="blue" cx="3724.55" cy="-234" rx="141.875" ry="18"/>
<text text-anchor="middle" x="3724.55" y="-230.3" font-family="Times,serif" font-size="14.00">$arg{article} $arg[3][$arg{sound}] &#160;</text>
</g>
<!-- Grammar&#45;&gt;test2 -->
<g id="edge26" class="edge"><title>Grammar&#45;&gt;test2</title>
<path fill="none" stroke="grey" d="M2112.53,-304.665C2298.21,-303.064 2998.79,-294.392 3573.55,-252 3587.66,-250.959 3602.49,-249.609 3617.11,-248.124"/>
<polygon fill="grey" stroke="grey" points="3617.6,-251.592 3627.18,-247.076 3616.88,-244.629 3617.6,-251.592"/>
</g>
<!-- _alternation_1_of_production_1_of_rule_test1 -->
<g id="node21" class="node"><title>_alternation_1_of_production_1_of_rule_test1</title>
<ellipse fill="none" stroke="blue" cx="2964.55" cy="-162" rx="33.5952" ry="18"/>
<text text-anchor="middle" x="2964.55" y="-158.3" font-family="Times,serif" font-size="14.00">&#39;easy&#39; &#160;</text>
</g>
<!-- Grammar&#45;&gt;_alternation_1_of_production_1_of_rule_test1 -->
<g id="edge27" class="edge"><title>Grammar&#45;&gt;_alternation_1_of_production_1_of_rule_test1</title>
<path fill="none" stroke="grey" d="M2112.45,-304.384C2310.4,-301.558 3068.98,-288.38 3103.55,-252 3114.58,-240.401 3112.63,-229.176 3103.55,-216 3082.27,-185.102 3040.38,-172.205 3008.12,-166.828"/>
<polygon fill="grey" stroke="grey" points="3008.43,-163.335 2998.03,-165.333 3007.41,-170.26 3008.43,-163.335"/>
</g>
<!-- the -->
<g id="node22" class="node"><title>the</title>
<ellipse fill="none" stroke="blue" cx="3914.55" cy="-234" rx="30.5947" ry="18"/>
<text text-anchor="middle" x="3914.55" y="-230.3" font-family="Times,serif" font-size="14.00">&#39;the&#39; &#160;</text>
</g>
<!-- Grammar&#45;&gt;the -->
<g id="edge28" class="edge"><title>Grammar&#45;&gt;the</title>
<path fill="none" stroke="grey" d="M2112.31,-304.693C2378.71,-302.8 3699.16,-291.478 3875.55,-252 3878.01,-251.45 3880.51,-250.744 3882.99,-249.934"/>
<polygon fill="grey" stroke="grey" points="3884.24,-253.204 3892.36,-246.402 3881.77,-246.653 3884.24,-253.204"/>
</g>
<!-- test1 -->
<g id="node23" class="node"><title>test1</title>
<ellipse fill="none" stroke="blue" cx="2807.55" cy="-234" rx="287.049" ry="18"/>
<text text-anchor="middle" x="2807.55" y="-230.3" font-family="Times,serif" font-size="14.00">&#39;(&#39; &#39;the&#39; &#39;$::first&#39; /te+st/ is _alternation_1_of_production_1_of_rule_test1(s?) &#160;</text>
</g>
<!-- Grammar&#45;&gt;test1 -->
<g id="edge34" class="edge"><title>Grammar&#45;&gt;test1</title>
<path fill="none" stroke="grey" d="M2110.58,-300.753C2214.32,-290.965 2474.44,-266.426 2645.89,-250.252"/>
<polygon fill="grey" stroke="grey" points="2646.4,-253.719 2656.03,-249.295 2645.74,-246.75 2646.4,-253.719"/>
</g>
<!-- defn&#45;&gt;id -->
<g id="edge1" class="edge"><title>defn&#45;&gt;id</title>
<path fill="none" stroke="grey" d="M820.674,-76.1609C761.824,-65.3487 676.886,-49.7434 610.623,-37.5689"/>
<polygon fill="grey" stroke="grey" points="611.04,-34.087 600.572,-35.7223 609.775,-40.9717 611.04,-34.087"/>
</g>
<!-- defn&#45;&gt;typename -->
<g id="edge2" class="edge"><title>defn&#45;&gt;typename</title>
<path fill="none" stroke="grey" d="M933.42,-73.3438C960.808,-63.1426 996.98,-49.301 1028.55,-36 1030.36,-35.2384 1032.21,-34.4422 1034.08,-33.6278"/>
<polygon fill="grey" stroke="grey" points="1035.65,-36.7574 1043.35,-29.4805 1032.79,-30.367 1035.65,-36.7574"/>
</g>
<!-- test4&#45;&gt;b -->
<g id="edge8" class="edge"><title>test4&#45;&gt;b</title>
<path fill="none" stroke="grey" d="M1199.26,-216.055C1196.29,-208.059 1192.68,-198.331 1189.36,-189.4"/>
<polygon fill="grey" stroke="grey" points="1192.55,-187.945 1185.79,-179.789 1185.99,-190.382 1192.55,-187.945"/>
</g>
<!-- test3&#45;&gt;_alternation_1_of_production_1_of_rule_test3 -->
<g id="edge11" class="edge"><title>test3&#45;&gt;_alternation_1_of_production_1_of_rule_test3</title>
<path fill="none" stroke="grey" d="M783.328,-216.233C803.341,-206.298 828.833,-193.642 849.94,-183.164"/>
<polygon fill="grey" stroke="grey" points="851.589,-186.252 858.99,-178.671 848.477,-179.982 851.589,-186.252"/>
</g>
<!-- _alternation_1_of_production_1_of_rule_test3&#45;&gt;defn -->
<g id="edge17" class="edge"><title>_alternation_1_of_production_1_of_rule_test3&#45;&gt;defn</title>
<path fill="none" stroke="grey" d="M890.555,-143.697C890.555,-135.983 890.555,-126.712 890.555,-118.112"/>
<polygon fill="grey" stroke="grey" points="894.055,-118.104 890.555,-108.104 887.055,-118.104 894.055,-118.104"/>
</g>
<!-- _alternation_1_of_production_1_of_rule_test3&#45;&gt;fail -->
<g id="edge19" class="edge"><title>_alternation_1_of_production_1_of_rule_test3&#45;&gt;fail</title>
<path fill="none" stroke="grey" d="M924.713,-145.864C948.316,-135.355 980.406,-120.966 1008.55,-108 1010.34,-107.176 1012.18,-106.324 1014.03,-105.462"/>
<polygon fill="grey" stroke="grey" points="1015.7,-108.548 1023.27,-101.135 1012.73,-102.21 1015.7,-108.548"/>
</g>
<!-- _alternation_1_of_production_1_of_rule_test3&#45;&gt;typedef -->
<g id="edge18" class="edge"><title>_alternation_1_of_production_1_of_rule_test3&#45;&gt;typedef</title>
<path fill="none" stroke="grey" d="M842.517,-147.916C801.099,-136.635 741.02,-120.271 695.902,-107.982"/>
<polygon fill="grey" stroke="grey" points="696.794,-104.597 686.225,-105.346 694.954,-111.351 696.794,-104.597"/>
</g>
<!-- typedef&#45;&gt;id -->
<g id="edge29" class="edge"><title>typedef&#45;&gt;id</title>
<path fill="none" stroke="grey" d="M604.795,-72.7646C588.223,-63.4098 567.154,-51.5156 549.047,-41.2942"/>
<polygon fill="grey" stroke="grey" points="550.317,-37.992 539.889,-36.1239 546.876,-44.0878 550.317,-37.992"/>
</g>
<!-- typedef&#45;&gt;typename -->
<g id="edge30" class="edge"><title>typedef&#45;&gt;typename</title>
<path fill="none" stroke="grey" d="M712.447,-79.0232C823.342,-64.9109 1013.56,-40.3448 1028.55,-36 1030.49,-35.4393 1032.45,-34.7927 1034.41,-34.0864"/>
<polygon fill="grey" stroke="grey" points="1036.1,-37.178 1044.06,-30.177 1033.47,-30.6909 1036.1,-37.178"/>
</g>
<!-- test5&#45;&gt;name -->
<g id="edge22" class="edge"><title>test5&#45;&gt;name</title>
<path fill="none" stroke="grey" d="M3327.3,-216.588C3310.45,-206.058 3288.54,-192.366 3271.09,-181.458"/>
<polygon fill="grey" stroke="grey" points="3272.75,-178.371 3262.42,-176.039 3269.04,-184.307 3272.75,-178.371"/>
</g>
<!-- test5&#45;&gt;notname -->
<g id="edge23" class="edge"><title>test5&#45;&gt;notname</title>
<path fill="none" stroke="grey" d="M3368.08,-216.055C3375.45,-207.457 3384.53,-196.857 3392.64,-187.397"/>
<polygon fill="grey" stroke="grey" points="3395.31,-189.659 3399.16,-179.789 3390,-185.104 3395.31,-189.659"/>
</g>
<!-- test1&#45;&gt;is -->
<g id="edge32" class="edge"><title>test1&#45;&gt;is</title>
<path fill="none" stroke="grey" d="M2758.45,-216.233C2723.78,-204.394 2677.8,-188.692 2644.77,-177.414"/>
<polygon fill="grey" stroke="grey" points="2645.56,-173.985 2634.96,-174.065 2643.29,-180.609 2645.56,-173.985"/>
</g>
<!-- test1&#45;&gt;_alternation_1_of_production_1_of_rule_test1 -->
<g id="edge33" class="edge"><title>test1&#45;&gt;_alternation_1_of_production_1_of_rule_test1</title>
<path fill="none" stroke="grey" d="M2845.56,-216.055C2871.2,-204.624 2904.77,-189.656 2929.72,-178.533"/>
<polygon fill="grey" stroke="grey" points="2931.45,-181.593 2939.16,-174.325 2928.6,-175.2 2931.45,-181.593"/>
</g>
</g>
</svg>
