<?xml version="1.0" encoding="UTF-8" standalone="no"?>
<!DOCTYPE svg PUBLIC "-//W3C//DTD SVG 1.1//EN"
 "http://www.w3.org/Graphics/SVG/1.1/DTD/svg11.dtd">
<!-- Generated by graphviz version 2.26.3 (20100126.1600)
 -->
<!-- Title: Perl Pages: 1 -->
<svg width="242pt" height="486pt"
 viewBox="0.00 0.00 242.00 486.00" xmlns="http://www.w3.org/2000/svg" xmlns:xlink="http://www.w3.org/1999/xlink">
<g id="graph1" class="graph" transform="scale(1 1) rotate(0) translate(4 482)">
<title>Perl</title>
<polygon fill="white" stroke="white" points="-4,5 -4,-482 239,-482 239,5 -4,5"/>
<!-- 1 -->
<g id="node1" class="node"><title>1</title>
<ellipse fill="none" stroke="blue" cx="117" cy="-459" rx="53.9477" ry="19.0919"/>
<text text-anchor="middle" x="117" y="-455.9" font-family="Times Roman,serif" font-size="14.00">START $1</text>
</g>
<!-- 3 -->
<g id="node2" class="node"><title>3</title>
<polygon fill="none" stroke="blue" points="117,-404 90,-386 117,-368 144,-386 117,-404"/>
</g>
<!-- 1&#45;&gt;3 -->
<g id="edge2" class="edge"><title>1&#45;&gt;3</title>
<path fill="none" stroke="grey" d="M117,-439.82C117,-432.097 117,-423.028 117,-414.558"/>
<polygon fill="grey" stroke="grey" points="120.5,-414.297 117,-404.297 113.5,-414.297 120.5,-414.297"/>
</g>
<!-- 4 -->
<g id="node4" class="node"><title>4</title>
<ellipse fill="none" stroke="blue" cx="54" cy="-313" rx="53.9477" ry="19.0919"/>
<text text-anchor="middle" x="54" y="-309.9" font-family="Times Roman,serif" font-size="14.00">START $2</text>
</g>
<!-- 3&#45;&gt;4 -->
<g id="edge4" class="edge"><title>3&#45;&gt;4</title>
<path fill="none" stroke="grey" d="M106.878,-374.271C98.6606,-364.75 86.7682,-350.969 76.3419,-338.888"/>
<polygon fill="grey" stroke="grey" points="78.9386,-336.54 69.7553,-331.256 73.6392,-341.114 78.9386,-336.54"/>
</g>
<!-- 20 -->
<g id="node6" class="node"><title>20</title>
<ellipse fill="none" stroke="blue" cx="180" cy="-313" rx="53.9477" ry="19.0919"/>
<text text-anchor="middle" x="180" y="-309.9" font-family="Times Roman,serif" font-size="14.00">START $3</text>
</g>
<!-- 3&#45;&gt;20 -->
<g id="edge6" class="edge"><title>3&#45;&gt;20</title>
<path fill="none" stroke="grey" d="M127.122,-374.271C135.339,-364.75 147.232,-350.969 157.658,-338.888"/>
<polygon fill="grey" stroke="grey" points="160.361,-341.114 164.245,-331.256 155.061,-336.54 160.361,-341.114"/>
</g>
<!-- 6 -->
<g id="node16" class="node"><title>6</title>
<polygon fill="none" stroke="blue" points="99,-258 29,-258 29,-222 99,-222 99,-258"/>
<text text-anchor="middle" x="64" y="-236.9" font-family="Times Roman,serif" font-size="14.00">[0&#45;9a&#45;d][]</text>
</g>
<!-- 4&#45;&gt;6 -->
<g id="edge16" class="edge"><title>4&#45;&gt;6</title>
<path fill="none" stroke="grey" d="M56.6274,-293.82C57.697,-286.012 58.9553,-276.827 60.1265,-268.276"/>
<polygon fill="grey" stroke="grey" points="63.6039,-268.68 61.4935,-258.297 56.6686,-267.73 63.6039,-268.68"/>
</g>
<!-- 22 -->
<g id="node8" class="node"><title>22</title>
<polygon fill="none" stroke="blue" points="205,-258 151,-258 151,-222 205,-222 205,-258"/>
<text text-anchor="middle" x="178" y="-236.9" font-family="Times Roman,serif" font-size="14.00">foo</text>
</g>
<!-- 20&#45;&gt;22 -->
<g id="edge8" class="edge"><title>20&#45;&gt;22</title>
<path fill="none" stroke="grey" d="M179.475,-293.82C179.263,-286.097 179.014,-277.028 178.782,-268.558"/>
<polygon fill="grey" stroke="grey" points="182.274,-268.198 178.501,-258.297 175.277,-268.389 182.274,-268.198"/>
</g>
<!-- 24 -->
<g id="node10" class="node"><title>24</title>
<ellipse fill="none" stroke="blue" cx="177" cy="-167" rx="43.8406" ry="19.0919"/>
<text text-anchor="middle" x="177" y="-163.9" font-family="Times Roman,serif" font-size="14.00">END $3</text>
</g>
<!-- 22&#45;&gt;24 -->
<g id="edge10" class="edge"><title>22&#45;&gt;24</title>
<path fill="none" stroke="grey" d="M177.753,-221.955C177.647,-214.211 177.52,-204.962 177.401,-196.281"/>
<polygon fill="grey" stroke="grey" points="180.899,-196.064 177.262,-186.113 173.899,-196.16 180.899,-196.064"/>
</g>
<!-- 26 -->
<g id="node12" class="node"><title>26</title>
<ellipse fill="none" stroke="blue" cx="123" cy="-93" rx="43.8406" ry="19.0919"/>
<text text-anchor="middle" x="123" y="-89.9" font-family="Times Roman,serif" font-size="14.00">END $1</text>
</g>
<!-- 24&#45;&gt;26 -->
<g id="edge12" class="edge"><title>24&#45;&gt;26</title>
<path fill="none" stroke="grey" d="M163.652,-148.708C157.226,-139.902 149.401,-129.179 142.338,-119.5"/>
<polygon fill="grey" stroke="grey" points="145.104,-117.353 136.382,-111.338 139.449,-121.479 145.104,-117.353"/>
</g>
<!-- 28 -->
<g id="node14" class="node"><title>28</title>
<ellipse fill="none" stroke="blue" cx="123" cy="-19" rx="31.1127" ry="19.0919"/>
<text text-anchor="middle" x="123" y="-15.9" font-family="Times Roman,serif" font-size="14.00">END</text>
</g>
<!-- 26&#45;&gt;28 -->
<g id="edge14" class="edge"><title>26&#45;&gt;28</title>
<path fill="none" stroke="grey" d="M123,-73.9432C123,-66.1493 123,-56.9538 123,-48.3381"/>
<polygon fill="grey" stroke="grey" points="126.5,-48.2494 123,-38.2495 119.5,-48.2495 126.5,-48.2494"/>
</g>
<!-- 17 -->
<g id="node18" class="node"><title>17</title>
<ellipse fill="none" stroke="blue" cx="69" cy="-167" rx="43.8406" ry="19.0919"/>
<text text-anchor="middle" x="69" y="-163.9" font-family="Times Roman,serif" font-size="14.00">END $2</text>
</g>
<!-- 6&#45;&gt;17 -->
<g id="edge18" class="edge"><title>6&#45;&gt;17</title>
<path fill="none" stroke="grey" d="M65.236,-221.955C65.7664,-214.211 66.3998,-204.962 66.9944,-196.281"/>
<polygon fill="grey" stroke="grey" points="70.4993,-196.329 67.6909,-186.113 63.5157,-195.85 70.4993,-196.329"/>
</g>
<!-- 17&#45;&gt;26 -->
<g id="edge20" class="edge"><title>17&#45;&gt;26</title>
<path fill="none" stroke="grey" d="M82.3483,-148.708C88.7739,-139.902 96.5993,-129.179 103.662,-119.5"/>
<polygon fill="grey" stroke="grey" points="106.551,-121.479 109.618,-111.338 100.896,-117.353 106.551,-121.479"/>
</g>
</g>
</svg>
