<?xml version="1.0" encoding="UTF-8" standalone="no"?>
<!DOCTYPE svg PUBLIC "-//W3C//DTD SVG 1.1//EN"
 "http://www.w3.org/Graphics/SVG/1.1/DTD/svg11.dtd">
<!-- Generated by graphviz version 2.34.0 (20131125.0033)
 -->
<!-- Title: Perl Pages: 1 -->
<svg width="226pt" height="476pt"
 viewBox="0.00 0.00 226.00 476.00" xmlns="http://www.w3.org/2000/svg" xmlns:xlink="http://www.w3.org/1999/xlink">
<g id="graph0" class="graph" transform="scale(1 1) rotate(0) translate(4 472)">
<title>Perl</title>
<polygon fill="white" stroke="white" points="-4,4 -4,-472 222,-472 222,4 -4,4"/>
<!-- 1 -->
<g id="node1" class="node"><title>1</title>
<ellipse fill="none" stroke="blue" cx="109" cy="-450" rx="50.0684" ry="18"/>
<text text-anchor="middle" x="109" y="-446.3" font-family="Times,serif" font-size="14.00">START $1</text>
</g>
<!-- 3 -->
<g id="node2" class="node"><title>3</title>
<polygon fill="none" stroke="blue" points="109,-396 82,-378 109,-360 136,-378 109,-396"/>
</g>
<!-- 1&#45;&gt;3 -->
<g id="edge1" class="edge"><title>1&#45;&gt;3</title>
<path fill="none" stroke="grey" d="M109,-431.697C109,-423.983 109,-414.712 109,-406.112"/>
<polygon fill="grey" stroke="grey" points="112.5,-406.104 109,-396.104 105.5,-406.104 112.5,-406.104"/>
</g>
<!-- 4 -->
<g id="node3" class="node"><title>4</title>
<ellipse fill="none" stroke="blue" cx="50" cy="-306" rx="50.0684" ry="18"/>
<text text-anchor="middle" x="50" y="-302.3" font-family="Times,serif" font-size="14.00">START $2</text>
</g>
<!-- 3&#45;&gt;4 -->
<g id="edge2" class="edge"><title>3&#45;&gt;4</title>
<path fill="none" stroke="grey" d="M99.7812,-366.062C91.9341,-356.752 80.3759,-343.039 70.3716,-331.17"/>
<polygon fill="grey" stroke="grey" points="72.8794,-328.714 63.7584,-323.324 67.527,-333.226 72.8794,-328.714"/>
</g>
<!-- 20 -->
<g id="node4" class="node"><title>20</title>
<ellipse fill="none" stroke="blue" cx="168" cy="-306" rx="50.0684" ry="18"/>
<text text-anchor="middle" x="168" y="-302.3" font-family="Times,serif" font-size="14.00">START $3</text>
</g>
<!-- 3&#45;&gt;20 -->
<g id="edge3" class="edge"><title>3&#45;&gt;20</title>
<path fill="none" stroke="grey" d="M118.219,-366.062C126.066,-356.752 137.624,-343.039 147.628,-331.17"/>
<polygon fill="grey" stroke="grey" points="150.473,-333.226 154.242,-323.324 145.121,-328.714 150.473,-333.226"/>
</g>
<!-- 6 -->
<g id="node9" class="node"><title>6</title>
<polygon fill="none" stroke="blue" points="94,-252 24,-252 24,-216 94,-216 94,-252"/>
<text text-anchor="middle" x="59" y="-230.3" font-family="Times,serif" font-size="14.00">[0&#45;9a&#45;d][]</text>
</g>
<!-- 4&#45;&gt;6 -->
<g id="edge8" class="edge"><title>4&#45;&gt;6</title>
<path fill="none" stroke="grey" d="M52.2247,-287.697C53.2165,-279.983 54.4084,-270.712 55.5141,-262.112"/>
<polygon fill="grey" stroke="grey" points="58.997,-262.469 56.8009,-252.104 52.0541,-261.576 58.997,-262.469"/>
</g>
<!-- 22 -->
<g id="node5" class="node"><title>22</title>
<polygon fill="none" stroke="blue" points="193,-252 139,-252 139,-216 193,-216 193,-252"/>
<text text-anchor="middle" x="166" y="-230.3" font-family="Times,serif" font-size="14.00">foo</text>
</g>
<!-- 20&#45;&gt;22 -->
<g id="edge4" class="edge"><title>20&#45;&gt;22</title>
<path fill="none" stroke="grey" d="M167.506,-287.697C167.285,-279.983 167.02,-270.712 166.775,-262.112"/>
<polygon fill="grey" stroke="grey" points="170.273,-262 166.489,-252.104 163.276,-262.2 170.273,-262"/>
</g>
<!-- 24 -->
<g id="node6" class="node"><title>24</title>
<ellipse fill="none" stroke="blue" cx="165" cy="-162" rx="39.9464" ry="18"/>
<text text-anchor="middle" x="165" y="-158.3" font-family="Times,serif" font-size="14.00">END $3</text>
</g>
<!-- 22&#45;&gt;24 -->
<g id="edge5" class="edge"><title>22&#45;&gt;24</title>
<path fill="none" stroke="grey" d="M165.753,-215.697C165.643,-207.983 165.51,-198.712 165.387,-190.112"/>
<polygon fill="grey" stroke="grey" points="168.887,-190.053 165.244,-180.104 161.888,-190.153 168.887,-190.053"/>
</g>
<!-- 26 -->
<g id="node7" class="node"><title>26</title>
<ellipse fill="none" stroke="blue" cx="114" cy="-90" rx="39.9464" ry="18"/>
<text text-anchor="middle" x="114" y="-86.3" font-family="Times,serif" font-size="14.00">END $1</text>
</g>
<!-- 24&#45;&gt;26 -->
<g id="edge6" class="edge"><title>24&#45;&gt;26</title>
<path fill="none" stroke="grey" d="M153.171,-144.765C146.89,-136.143 139.037,-125.365 132.015,-115.727"/>
<polygon fill="grey" stroke="grey" points="134.836,-113.655 126.119,-107.633 129.178,-117.777 134.836,-113.655"/>
</g>
<!-- 28 -->
<g id="node8" class="node"><title>28</title>
<ellipse fill="none" stroke="blue" cx="114" cy="-18" rx="28.3955" ry="18"/>
<text text-anchor="middle" x="114" y="-14.3" font-family="Times,serif" font-size="14.00">END</text>
</g>
<!-- 26&#45;&gt;28 -->
<g id="edge7" class="edge"><title>26&#45;&gt;28</title>
<path fill="none" stroke="grey" d="M114,-71.6966C114,-63.9827 114,-54.7125 114,-46.1124"/>
<polygon fill="grey" stroke="grey" points="117.5,-46.1043 114,-36.1043 110.5,-46.1044 117.5,-46.1043"/>
</g>
<!-- 17 -->
<g id="node10" class="node"><title>17</title>
<ellipse fill="none" stroke="blue" cx="64" cy="-162" rx="39.9464" ry="18"/>
<text text-anchor="middle" x="64" y="-158.3" font-family="Times,serif" font-size="14.00">END $2</text>
</g>
<!-- 6&#45;&gt;17 -->
<g id="edge9" class="edge"><title>6&#45;&gt;17</title>
<path fill="none" stroke="grey" d="M60.236,-215.697C60.7869,-207.983 61.4491,-198.712 62.0634,-190.112"/>
<polygon fill="grey" stroke="grey" points="65.5568,-190.328 62.7783,-180.104 58.5746,-189.83 65.5568,-190.328"/>
</g>
<!-- 17&#45;&gt;26 -->
<g id="edge10" class="edge"><title>17&#45;&gt;26</title>
<path fill="none" stroke="grey" d="M75.5967,-144.765C81.6928,-136.23 89.2984,-125.582 96.1292,-116.019"/>
<polygon fill="grey" stroke="grey" points="99.1547,-117.805 102.119,-107.633 93.4585,-113.736 99.1547,-117.805"/>
</g>
</g>
</svg>
