<?xml version="1.0" encoding="UTF-8" standalone="no"?>
<!DOCTYPE svg PUBLIC "-//W3C//DTD SVG 1.1//EN"
 "http://www.w3.org/Graphics/SVG/1.1/DTD/svg11.dtd">
<!-- Generated by graphviz version 2.30.1 (20130611.0131)
 -->
<!-- Title: Perl Pages: 1 -->
<svg width="150pt" height="454pt"
 viewBox="0.00 0.00 150.00 454.00" xmlns="http://www.w3.org/2000/svg" xmlns:xlink="http://www.w3.org/1999/xlink">
<g id="graph0" class="graph" transform="scale(1 1) rotate(0) translate(4 450)">
<title>Perl</title>
<polygon fill="white" stroke="white" points="-4,5 -4,-450 147,-450 147,5 -4,5"/>
<!-- exp -->
<g id="node1" class="node"><title>exp</title>
<polygon fill="none" stroke="blue" points="-0.5,-1 -0.5,-159 124.5,-159 124.5,-1 -0.5,-1"/>
<text text-anchor="middle" x="17.5" y="-76.3" font-family="Times,serif" font-size="14.00">exp</text>
<polyline fill="none" stroke="blue" points="35.5,-1 35.5,-159 "/>
<text text-anchor="middle" x="80" y="-143.8" font-family="Times,serif" font-size="14.00">NUM </text>
<text text-anchor="middle" x="80" y="-128.8" font-family="Times,serif" font-size="14.00">VAR </text>
<text text-anchor="middle" x="80" y="-113.8" font-family="Times,serif" font-size="14.00">VAR &#39;=&#39; exp </text>
<text text-anchor="middle" x="80" y="-98.8" font-family="Times,serif" font-size="14.00">exp &#39;+&#39; exp </text>
<text text-anchor="middle" x="80" y="-83.8" font-family="Times,serif" font-size="14.00">exp &#39;&#45;&#39; exp </text>
<text text-anchor="middle" x="80" y="-68.8" font-family="Times,serif" font-size="14.00">exp &#39;*&#39; exp </text>
<text text-anchor="middle" x="80" y="-53.8" font-family="Times,serif" font-size="14.00">exp &#39;/&#39; exp </text>
<text text-anchor="middle" x="80" y="-38.8" font-family="Times,serif" font-size="14.00">&#39;&#45;&#39; exp </text>
<text text-anchor="middle" x="80" y="-23.8" font-family="Times,serif" font-size="14.00">exp &#39;^&#39; exp </text>
<text text-anchor="middle" x="80" y="-8.8" font-family="Times,serif" font-size="14.00">&#39;(&#39; exp &#39;)&#39; </text>
</g>
<!-- exp&#45;&gt;exp -->
<g id="edge1" class="edge"><title>exp&#45;&gt;exp</title>
<path fill="none" stroke="grey" d="M124.72,-108.798C134.961,-104.675 142,-95.0762 142,-80 142,-69.6351 138.673,-61.859 133.266,-56.6715"/>
<polygon fill="grey" stroke="grey" points="135.029,-53.6446 124.72,-51.2022 131.256,-59.5406 135.029,-53.6446"/>
</g>
<!-- $start -->
<g id="node2" class="node"><title>$start</title>
<polygon fill="none" stroke="blue" points="-0.5,-409 -0.5,-445 124.5,-445 124.5,-409 -0.5,-409"/>
<text text-anchor="middle" x="23" y="-423.3" font-family="Times,serif" font-size="14.00">$start</text>
<polyline fill="none" stroke="blue" points="46.5,-409 46.5,-445 "/>
<text text-anchor="middle" x="85.5" y="-423.3" font-family="Times,serif" font-size="14.00">input $end </text>
</g>
<!-- input -->
<g id="node3" class="node"><title>input</title>
<polygon fill="none" stroke="blue" points="4,-333 4,-371 120,-371 120,-333 4,-333"/>
<text text-anchor="middle" x="26" y="-348.3" font-family="Times,serif" font-size="14.00">input</text>
<polyline fill="none" stroke="blue" points="48,-333 48,-371 "/>
<text text-anchor="middle" x="84" y="-355.8" font-family="Times,serif" font-size="14.00">(empty) </text>
<text text-anchor="middle" x="84" y="-340.8" font-family="Times,serif" font-size="14.00">input line </text>
</g>
<!-- $start&#45;&gt;input -->
<g id="edge2" class="edge"><title>$start&#45;&gt;input</title>
<path fill="none" stroke="grey" d="M62,-408.7C62,-400.49 62,-390.469 62,-381.201"/>
<polygon fill="grey" stroke="grey" points="65.5001,-381.194 62,-371.194 58.5001,-381.195 65.5001,-381.194"/>
</g>
<!-- input&#45;&gt;input -->
<g id="edge3" class="edge"><title>input&#45;&gt;input</title>
<path fill="none" stroke="grey" d="M120.176,-364.953C130.114,-363.183 137,-358.865 137,-352 137,-347.709 134.31,-344.414 129.867,-342.113"/>
<polygon fill="grey" stroke="grey" points="130.766,-338.727 120.176,-339.047 128.655,-345.401 130.766,-338.727"/>
</g>
<!-- line -->
<g id="node4" class="node"><title>line</title>
<polygon fill="none" stroke="blue" points="19,-197 19,-295 105,-295 105,-197 19,-197"/>
<text text-anchor="middle" x="37.5" y="-242.3" font-family="Times,serif" font-size="14.00">line</text>
<polyline fill="none" stroke="blue" points="56,-197 56,-295 "/>
<text text-anchor="middle" x="80.5" y="-279.8" font-family="Times,serif" font-size="14.00">&#39;</text>
<text text-anchor="middle" x="80.5" y="-264.8" font-family="Times,serif" font-size="14.00">&#39; </text>
<text text-anchor="middle" x="80.5" y="-249.8" font-family="Times,serif" font-size="14.00">exp &#39;</text>
<text text-anchor="middle" x="80.5" y="-234.8" font-family="Times,serif" font-size="14.00">&#39; </text>
<text text-anchor="middle" x="80.5" y="-219.8" font-family="Times,serif" font-size="14.00">error &#39;</text>
<text text-anchor="middle" x="80.5" y="-204.8" font-family="Times,serif" font-size="14.00">&#39; </text>
</g>
<!-- input&#45;&gt;line -->
<g id="edge4" class="edge"><title>input&#45;&gt;line</title>
<path fill="none" stroke="grey" d="M62,-332.885C62,-325.028 62,-315.344 62,-305.342"/>
<polygon fill="grey" stroke="grey" points="65.5001,-305.289 62,-295.289 58.5001,-305.289 65.5001,-305.289"/>
</g>
<!-- line&#45;&gt;exp -->
<g id="edge5" class="edge"><title>line&#45;&gt;exp</title>
<path fill="none" stroke="grey" d="M62,-196.682C62,-188.008 62,-178.726 62,-169.333"/>
<polygon fill="grey" stroke="grey" points="65.5001,-169.12 62,-159.12 58.5001,-169.12 65.5001,-169.12"/>
</g>
</g>
</svg>
