<?xml version="1.0" encoding="UTF-8" standalone="no"?>
<!DOCTYPE svg PUBLIC "-//W3C//DTD SVG 1.1//EN"
 "http://www.w3.org/Graphics/SVG/1.1/DTD/svg11.dtd">
<!-- Generated by graphviz version 2.26.3 (20100126.1600)
 -->
<!-- Title: Perl Pages: 1 -->
<svg width="134pt" height="762pt"
 viewBox="0.00 0.00 134.00 762.14" xmlns="http://www.w3.org/2000/svg" xmlns:xlink="http://www.w3.org/1999/xlink">
<g id="graph1" class="graph" transform="scale(1 1) rotate(0) translate(4 758.144)">
<title>Perl</title>
<polygon fill="white" stroke="white" points="-4,5 -4,-758.144 131,-758.144 131,5 -4,5"/>
<!-- number -->
<g id="node1" class="node"><title>number</title>
<polygon fill="none" stroke="blue" points="5.5,-2.64409 5.5,-75.6441 108.5,-75.6441 108.5,-2.64409 5.5,-2.64409"/>
<text text-anchor="middle" x="57" y="-59.0441" font-family="Times Roman,serif" font-size="14.00">number</text>
<polyline fill="none" stroke="blue" points="5.5,-48.6441 108.5,-48.6441 "/>
<text text-anchor="middle" x="57" y="-32.0441" font-family="Times Roman,serif" font-size="14.00">DIGIT </text>
<text text-anchor="middle" x="57" y="-13.0441" font-family="Times Roman,serif" font-size="14.00">number DIGIT </text>
</g>
<!-- number&#45;&gt;number -->
<g id="edge2" class="edge"><title>number&#45;&gt;number</title>
<path fill="none" stroke="grey" d="M88.9395,-75.7066C108.031,-83.8316 126,-71.6441 126,-39.1441 126,-12.4839 113.909,0.507689 99.0246,-0.16923"/>
<polygon fill="grey" stroke="grey" points="97.8508,3.14882 88.9395,-2.58159 99.4793,-3.65913 97.8508,3.14882"/>
</g>
<!-- expr -->
<g id="node3" class="node"><title>expr</title>
<polygon fill="none" stroke="blue" points="11,-112.644 11,-383.644 103,-383.644 103,-112.644 11,-112.644"/>
<text text-anchor="middle" x="57" y="-367.044" font-family="Times Roman,serif" font-size="14.00">expr</text>
<polyline fill="none" stroke="blue" points="11,-356.644 103,-356.644 "/>
<text text-anchor="middle" x="57" y="-340.044" font-family="Times Roman,serif" font-size="14.00">&#39;(&#39; expr &#39;)&#39; </text>
<text text-anchor="middle" x="57" y="-321.044" font-family="Times Roman,serif" font-size="14.00">expr &#39;+&#39; expr </text>
<text text-anchor="middle" x="57" y="-302.044" font-family="Times Roman,serif" font-size="14.00">expr &#39;&#45;&#39; expr </text>
<text text-anchor="middle" x="57" y="-283.044" font-family="Times Roman,serif" font-size="14.00">expr &#39;*&#39; expr </text>
<text text-anchor="middle" x="57" y="-264.044" font-family="Times Roman,serif" font-size="14.00">expr &#39;/&#39; expr </text>
<text text-anchor="middle" x="57" y="-245.044" font-family="Times Roman,serif" font-size="14.00">expr &#39;%&#39; expr </text>
<text text-anchor="middle" x="57" y="-226.044" font-family="Times Roman,serif" font-size="14.00">expr &#39;&amp;&#39; expr </text>
<text text-anchor="middle" x="57" y="-207.044" font-family="Times Roman,serif" font-size="14.00">expr &#39;</text>
<polyline fill="none" stroke="blue" points="11,-196.644 103,-196.644 "/>
<text text-anchor="middle" x="57" y="-180.044" font-family="Times Roman,serif" font-size="14.00">&#39; expr </text>
<text text-anchor="middle" x="57" y="-161.044" font-family="Times Roman,serif" font-size="14.00">&#39;&#45;&#39; expr </text>
<text text-anchor="middle" x="57" y="-142.044" font-family="Times Roman,serif" font-size="14.00">LETTER </text>
<text text-anchor="middle" x="57" y="-123.044" font-family="Times Roman,serif" font-size="14.00">number </text>
</g>
<!-- expr&#45;&gt;number -->
<g id="edge4" class="edge"><title>expr&#45;&gt;number</title>
<path fill="none" stroke="grey" d="M57,-112.536C57,-103.186 57,-94.2015 57,-85.9216"/>
<polygon fill="grey" stroke="grey" points="60.5001,-85.8359 57,-75.836 53.5001,-85.836 60.5001,-85.8359"/>
</g>
<!-- expr&#45;&gt;expr -->
<g id="edge6" class="edge"><title>expr&#45;&gt;expr</title>
<path fill="none" stroke="grey" d="M103.024,-286.192C113.406,-282.764 121,-270.082 121,-248.144 121,-232.719 117.246,-221.87 111.408,-215.596"/>
<polygon fill="grey" stroke="grey" points="113.305,-212.655 103.024,-210.096 109.466,-218.508 113.305,-212.655"/>
</g>
<!-- $accept -->
<g id="node6" class="node"><title>$accept</title>
<polygon fill="none" stroke="blue" points="23.5,-699.144 23.5,-753.144 90.5,-753.144 90.5,-699.144 23.5,-699.144"/>
<text text-anchor="middle" x="57" y="-736.544" font-family="Times Roman,serif" font-size="14.00">$accept</text>
<polyline fill="none" stroke="blue" points="23.5,-726.144 90.5,-726.144 "/>
<text text-anchor="middle" x="57" y="-709.544" font-family="Times Roman,serif" font-size="14.00">list $end </text>
</g>
<!-- list -->
<g id="node7" class="node"><title>list</title>
<polygon fill="none" stroke="blue" points="22.5,-531.144 22.5,-661.144 91.5,-661.144 91.5,-531.144 22.5,-531.144"/>
<text text-anchor="middle" x="57" y="-644.544" font-family="Times Roman,serif" font-size="14.00">list</text>
<polyline fill="none" stroke="blue" points="22.5,-634.144 91.5,-634.144 "/>
<text text-anchor="middle" x="57" y="-617.544" font-family="Times Roman,serif" font-size="14.00">(empty) </text>
<text text-anchor="middle" x="57" y="-598.544" font-family="Times Roman,serif" font-size="14.00">list stat &#39;</text>
<text text-anchor="middle" x="57" y="-579.544" font-family="Times Roman,serif" font-size="14.00">&#39; </text>
<text text-anchor="middle" x="57" y="-560.544" font-family="Times Roman,serif" font-size="14.00">list error &#39;</text>
<text text-anchor="middle" x="57" y="-541.544" font-family="Times Roman,serif" font-size="14.00">&#39; </text>
</g>
<!-- $accept&#45;&gt;list -->
<g id="edge8" class="edge"><title>$accept&#45;&gt;list</title>
<path fill="none" stroke="grey" d="M57,-698.892C57,-690.714 57,-681.315 57,-671.597"/>
<polygon fill="grey" stroke="grey" points="60.5001,-671.391 57,-661.391 53.5001,-671.391 60.5001,-671.391"/>
</g>
<!-- list&#45;&gt;list -->
<g id="edge14" class="edge"><title>list&#45;&gt;list</title>
<path fill="none" stroke="grey" d="M91.5043,-620.424C101.383,-619.472 109,-611.378 109,-596.144 109,-586.385 105.874,-579.556 101.03,-575.658"/>
<polygon fill="grey" stroke="grey" points="102.09,-572.312 91.5043,-571.864 99.4998,-578.816 102.09,-572.312"/>
</g>
<!-- stat -->
<g id="node9" class="node"><title>stat</title>
<polygon fill="none" stroke="blue" points="-0.5,-420.644 -0.5,-493.644 114.5,-493.644 114.5,-420.644 -0.5,-420.644"/>
<text text-anchor="middle" x="57" y="-477.044" font-family="Times Roman,serif" font-size="14.00">stat</text>
<polyline fill="none" stroke="blue" points="-0.5,-466.644 114.5,-466.644 "/>
<text text-anchor="middle" x="57" y="-450.044" font-family="Times Roman,serif" font-size="14.00">expr </text>
<text text-anchor="middle" x="57" y="-431.044" font-family="Times Roman,serif" font-size="14.00">LETTER &#39;=&#39; expr </text>
</g>
<!-- list&#45;&gt;stat -->
<g id="edge12" class="edge"><title>list&#45;&gt;stat</title>
<path fill="none" stroke="grey" d="M57,-531.121C57,-521.878 57,-512.529 57,-503.732"/>
<polygon fill="grey" stroke="grey" points="60.5001,-503.697 57,-493.697 53.5001,-503.697 60.5001,-503.697"/>
</g>
<!-- stat&#45;&gt;expr -->
<g id="edge10" class="edge"><title>stat&#45;&gt;expr</title>
<path fill="none" stroke="grey" d="M57,-420.26C57,-412.259 57,-403.33 57,-393.864"/>
<polygon fill="grey" stroke="grey" points="60.5001,-393.821 57,-383.821 53.5001,-393.821 60.5001,-393.821"/>
</g>
</g>
</svg>
