<?xml version="1.0" encoding="UTF-8" standalone="no"?>
<!DOCTYPE svg PUBLIC "-//W3C//DTD SVG 1.1//EN"
 "http://www.w3.org/Graphics/SVG/1.1/DTD/svg11.dtd">
<!-- Generated by graphviz version 2.38.0 (20140413.2041)
 -->
<!-- Title: Perl Pages: 1 -->
<svg width="3481pt" height="332pt"
 viewBox="0.00 0.00 3480.74 332.00" xmlns="http://www.w3.org/2000/svg" xmlns:xlink="http://www.w3.org/1999/xlink">
<g id="graph0" class="graph" transform="scale(1 1) rotate(0) translate(4 328)">
<title>Perl</title>
<polygon fill="white" stroke="none" points="-4,4 -4,-328 3476.74,-328 3476.74,4 -4,4"/>
<!-- Grammar -->
<g id="node1" class="node"><title>Grammar</title>
<ellipse fill="none" stroke="blue" cx="1168.5" cy="-306" rx="27" ry="18"/>
</g>
<!-- name -->
<g id="node2" class="node"><title>name</title>
<ellipse fill="none" stroke="blue" cx="32.4971" cy="-162" rx="32.4942" ry="18"/>
<text text-anchor="middle" x="32.4971" y="-158.3" font-family="Times,serif" font-size="14.00">&#39;fred&#39; &#160;</text>
</g>
<!-- Grammar&#45;&gt;name -->
<g id="edge1" class="edge"><title>Grammar&#45;&gt;name</title>
<path fill="none" stroke="grey" d="M1141.49,-304.71C974.073,-302.792 83.8858,-290.788 42.4971,-252 26.0523,-236.589 25.0239,-210.097 27.2263,-190.013"/>
<polygon fill="grey" stroke="grey" points="30.7206,-190.298 28.656,-179.907 23.7897,-189.318 30.7206,-190.298"/>
</g>
<!-- b -->
<g id="node3" class="node"><title>b</title>
<ellipse fill="none" stroke="blue" cx="337.497" cy="-162" rx="27" ry="18"/>
<text text-anchor="middle" x="337.497" y="-158.3" font-family="Times,serif" font-size="14.00">&#39;b&#39; &#160;</text>
</g>
<!-- Grammar&#45;&gt;b -->
<g id="edge2" class="edge"><title>Grammar&#45;&gt;b</title>
<path fill="none" stroke="grey" d="M1141.38,-304.334C999.837,-300.728 351.212,-282.57 322.497,-252 306.64,-235.118 314.095,-208.06 323.228,-188.206"/>
<polygon fill="grey" stroke="grey" points="326.431,-189.626 327.752,-179.113 320.164,-186.507 326.431,-189.626"/>
</g>
<!-- test7 -->
<g id="node4" class="node"><title>test7</title>
<ellipse fill="none" stroke="blue" cx="505.497" cy="-234" rx="76.0865" ry="18"/>
<text text-anchor="middle" x="505.497" y="-230.3" font-family="Times,serif" font-size="14.00">&#39;x&#39; &lt;resync&gt; /y+/ &#160;</text>
</g>
<!-- Grammar&#45;&gt;test7 -->
<g id="edge3" class="edge"><title>Grammar&#45;&gt;test7</title>
<path fill="none" stroke="grey" d="M1141.54,-303.415C1059.35,-298.387 804.742,-281.372 595.497,-252 587.549,-250.884 579.236,-249.548 571.011,-248.12"/>
<polygon fill="grey" stroke="grey" points="571.512,-244.655 561.053,-246.344 570.282,-251.546 571.512,-244.655"/>
</g>
<!-- _alternation_1_of_production_1_of_rule_test3 -->
<g id="node5" class="node"><title>_alternation_1_of_production_1_of_rule_test3</title>
<ellipse fill="none" stroke="blue" cx="1016.5" cy="-162" rx="79.0865" ry="18"/>
<text text-anchor="middle" x="1016.5" y="-158.3" font-family="Times,serif" font-size="14.00">defn &#160;typedef &#160;fail &#160;</text>
</g>
<!-- Grammar&#45;&gt;_alternation_1_of_production_1_of_rule_test3 -->
<g id="edge7" class="edge"><title>Grammar&#45;&gt;_alternation_1_of_production_1_of_rule_test3</title>
<path fill="none" stroke="grey" d="M1157.19,-289.471C1143.2,-270.835 1118.09,-239.201 1092.5,-216 1079.98,-204.655 1064.95,-193.7 1051.57,-184.724"/>
<polygon fill="grey" stroke="grey" points="1053.34,-181.697 1043.06,-179.127 1049.49,-187.546 1053.34,-181.697"/>
</g>
<!-- defn -->
<g id="node6" class="node"><title>defn</title>
<ellipse fill="none" stroke="blue" cx="1016.5" cy="-90" rx="108.581" ry="18"/>
<text text-anchor="middle" x="1016.5" y="-86.3" font-family="Times,serif" font-size="14.00">&#39;var&#39; id &#39;holds&#39; typename &#39;;&#39; &#160;</text>
</g>
<!-- Grammar&#45;&gt;defn -->
<g id="edge21" class="edge"><title>Grammar&#45;&gt;defn</title>
<path fill="none" stroke="grey" d="M1165.5,-288.101C1159.18,-256.582 1141.86,-188.039 1104.5,-144 1093.41,-130.935 1078.26,-120.213 1063.65,-111.914"/>
<polygon fill="grey" stroke="grey" points="1065.12,-108.733 1054.66,-107.061 1061.79,-114.893 1065.12,-108.733"/>
</g>
<!-- typedef -->
<g id="node7" class="node"><title>typedef</title>
<ellipse fill="none" stroke="blue" cx="763.497" cy="-90" rx="98.5829" ry="18"/>
<text text-anchor="middle" x="763.497" y="-86.3" font-family="Times,serif" font-size="14.00">&#39;type&#39; id &#39;is&#39; typename &#39;;&#39; &#160;</text>
</g>
<!-- Grammar&#45;&gt;typedef -->
<g id="edge26" class="edge"><title>Grammar&#45;&gt;typedef</title>
<path fill="none" stroke="grey" d="M1141.4,-304.212C1041.58,-301.035 698.521,-287.583 666.497,-252 627.306,-208.453 690.79,-146.803 732.213,-113.857"/>
<polygon fill="grey" stroke="grey" points="734.426,-116.57 740.166,-107.665 730.125,-111.047 734.426,-116.57"/>
</g>
<!-- fail -->
<g id="node8" class="node"><title>fail</title>
<ellipse fill="none" stroke="blue" cx="1170.5" cy="-90" rx="27" ry="18"/>
<text text-anchor="middle" x="1170.5" y="-86.3" font-family="Times,serif" font-size="14.00"> </text>
</g>
<!-- Grammar&#45;&gt;fail -->
<g id="edge13" class="edge"><title>Grammar&#45;&gt;fail</title>
<path fill="none" stroke="grey" d="M1168.66,-287.849C1169,-250.832 1169.82,-163.181 1170.24,-118.386"/>
<polygon fill="grey" stroke="grey" points="1173.74,-118.265 1170.34,-108.232 1166.74,-118.199 1173.74,-118.265"/>
</g>
<!-- typename -->
<g id="node9" class="node"><title>typename</title>
<ellipse fill="none" stroke="blue" cx="627.497" cy="-18" rx="27.8951" ry="18"/>
<text text-anchor="middle" x="627.497" y="-14.3" font-family="Times,serif" font-size="14.00">&#39;int&#39; &#160;</text>
</g>
<!-- Grammar&#45;&gt;typename -->
<g id="edge8" class="edge"><title>Grammar&#45;&gt;typename</title>
<path fill="none" stroke="grey" d="M1141.35,-304.196C1039.68,-300.921 685.432,-287.06 650.497,-252 595.701,-197.008 609.864,-94.3862 620.592,-45.8094"/>
<polygon fill="grey" stroke="grey" points="624.01,-46.5627 622.869,-36.0295 617.192,-44.9751 624.01,-46.5627"/>
</g>
<!-- id -->
<g id="node10" class="node"><title>id</title>
<ellipse fill="none" stroke="blue" cx="1207.5" cy="-18" rx="534.005" ry="18"/>
<text text-anchor="middle" x="1207.5" y="-14.3" font-family="Times,serif" font-size="14.00">/[a&#45;z]		# LEADING ALPHABETIC\n		 &#160;\w*		# FOLLOWED BY ALPHAS, DIGITS, OR UNDERSCORES\n		 /ix &#160;</text>
</g>
<!-- Grammar&#45;&gt;id -->
<g id="edge9" class="edge"><title>Grammar&#45;&gt;id</title>
<path fill="none" stroke="grey" d="M1173.88,-287.944C1176.99,-277.617 1180.82,-264.14 1183.5,-252 1197.46,-188.71 1201.01,-172.578 1206.5,-108 1208.25,-87.3442 1208.44,-63.8959 1208.23,-46.2546"/>
<polygon fill="grey" stroke="grey" points="1211.72,-46.035 1208.05,-36.0976 1204.72,-46.1572 1211.72,-46.035"/>
</g>
<!-- a -->
<g id="node11" class="node"><title>a</title>
<ellipse fill="none" stroke="blue" cx="1280.5" cy="-234" rx="27" ry="18"/>
<text text-anchor="middle" x="1280.5" y="-230.3" font-family="Times,serif" font-size="14.00">&#39;a&#39; &#160;</text>
</g>
<!-- Grammar&#45;&gt;a -->
<g id="edge10" class="edge"><title>Grammar&#45;&gt;a</title>
<path fill="none" stroke="grey" d="M1187.5,-293.125C1205.44,-281.913 1232.55,-264.968 1252.88,-252.263"/>
<polygon fill="grey" stroke="grey" points="1254.78,-255.201 1261.4,-246.933 1251.07,-249.265 1254.78,-255.201"/>
</g>
<!-- test3 -->
<g id="node12" class="node"><title>test3</title>
<ellipse fill="none" stroke="blue" cx="879.497" cy="-234" rx="204.164" ry="18"/>
<text text-anchor="middle" x="879.497" y="-230.3" font-family="Times,serif" font-size="14.00">_alternation_1_of_production_1_of_rule_test3(5..10) &#160;</text>
</g>
<!-- Grammar&#45;&gt;test3 -->
<g id="edge12" class="edge"><title>Grammar&#45;&gt;test3</title>
<path fill="none" stroke="grey" d="M1143.61,-298.971C1102.28,-288.961 1017.88,-268.519 955.566,-253.425"/>
<polygon fill="grey" stroke="grey" points="956.307,-250.003 945.764,-251.051 954.659,-256.807 956.307,-250.003"/>
</g>
<!-- is -->
<g id="node13" class="node"><title>is</title>
<ellipse fill="none" stroke="blue" cx="1441.5" cy="-162" rx="42.7926" ry="18"/>
<text text-anchor="middle" x="1441.5" y="-158.3" font-family="Times,serif" font-size="14.00">&#39;is&#39; &#160;&#39;are&#39; &#160;</text>
</g>
<!-- Grammar&#45;&gt;is -->
<g id="edge14" class="edge"><title>Grammar&#45;&gt;is</title>
<path fill="none" stroke="grey" d="M1193.73,-299.367C1224.37,-291.786 1276.85,-276.367 1316.5,-252 1336.32,-239.818 1336.02,-230.13 1354.5,-216 1370.98,-203.401 1390.61,-191.222 1407.06,-181.723"/>
<polygon fill="grey" stroke="grey" points="1408.87,-184.722 1415.83,-176.736 1405.41,-178.638 1408.87,-184.722"/>
</g>
<!-- notname -->
<g id="node14" class="node"><title>notname</title>
<ellipse fill="none" stroke="blue" cx="174.497" cy="-162" rx="52.7911" ry="18"/>
<text text-anchor="middle" x="174.497" y="-158.3" font-family="Times,serif" font-size="14.00">/[a&#45;z]\w*/i &#160;</text>
</g>
<!-- Grammar&#45;&gt;notname -->
<g id="edge15" class="edge"><title>Grammar&#45;&gt;notname</title>
<path fill="none" stroke="grey" d="M1141.2,-305.196C1012.88,-305.835 469.115,-305.293 309.497,-252 287.132,-244.533 235.987,-208.542 203.464,-184.677"/>
<polygon fill="grey" stroke="grey" points="205.35,-181.719 195.225,-178.599 201.195,-187.352 205.35,-181.719"/>
</g>
<!-- cat -->
<g id="node15" class="node"><title>cat</title>
<ellipse fill="none" stroke="blue" cx="2113.5" cy="-234" rx="135.676" ry="18"/>
<text text-anchor="middle" x="2113.5" y="-230.3" font-family="Times,serif" font-size="14.00">&lt;reject: $arg[0] ne &#39;meows&#39;&gt; &#39;cat&#39; &#160;&#160;</text>
</g>
<!-- Grammar&#45;&gt;cat -->
<g id="edge16" class="edge"><title>Grammar&#45;&gt;cat</title>
<path fill="none" stroke="grey" d="M1195.3,-303.665C1296.16,-298.543 1662.47,-279.078 1963.5,-252 1977.26,-250.762 1991.71,-249.314 2005.98,-247.794"/>
<polygon fill="grey" stroke="grey" points="2006.77,-251.229 2016.33,-246.676 2006.02,-244.27 2006.77,-251.229"/>
</g>
<!-- dog -->
<g id="node16" class="node"><title>dog</title>
<ellipse fill="none" stroke="blue" cx="2299.5" cy="-234" rx="31.6951" ry="18"/>
<text text-anchor="middle" x="2299.5" y="-230.3" font-family="Times,serif" font-size="14.00">&#39;dog&#39; &#160;</text>
</g>
<!-- Grammar&#45;&gt;dog -->
<g id="edge17" class="edge"><title>Grammar&#45;&gt;dog</title>
<path fill="none" stroke="grey" d="M1195.73,-304.94C1343.19,-304.422 2047.06,-299.463 2258.5,-252 2261.15,-251.403 2263.86,-250.648 2266.55,-249.788"/>
<polygon fill="grey" stroke="grey" points="2267.9,-253.022 2276.1,-246.318 2265.51,-246.442 2267.9,-253.022"/>
</g>
<!-- test2 -->
<g id="node17" class="node"><title>test2</title>
<ellipse fill="none" stroke="blue" cx="2491.5" cy="-234" rx="141.875" ry="18"/>
<text text-anchor="middle" x="2491.5" y="-230.3" font-family="Times,serif" font-size="14.00">$arg{article} $arg[3][$arg{sound}] &#160;</text>
</g>
<!-- Grammar&#45;&gt;test2 -->
<g id="edge18" class="edge"><title>Grammar&#45;&gt;test2</title>
<path fill="none" stroke="grey" d="M1195.79,-304.441C1324.51,-301.662 1883.63,-288.007 2340.5,-252 2354.25,-250.916 2368.69,-249.565 2382.96,-248.102"/>
<polygon fill="grey" stroke="grey" points="2383.72,-251.541 2393.31,-247.019 2383,-244.579 2383.72,-251.541"/>
</g>
<!-- test6 -->
<g id="node18" class="node"><title>test6</title>
<ellipse fill="none" stroke="blue" cx="3023.5" cy="-234" rx="372.334" ry="18"/>
<text text-anchor="middle" x="3023.5" y="-230.3" font-family="Times,serif" font-size="14.00">&lt;rulevar: $test6 = 1&gt; &#160;&#39;a&#39; &lt;commit&gt; &#39;b&#39; &lt;uncommit&gt; &#39;c&#39; &lt;reject: $test6 &amp;&amp; $text&gt; &#160;&lt;uncommit&gt; &#160;&#39;a&#39; &#160;</text>
</g>
<!-- Grammar&#45;&gt;test6 -->
<g id="edge22" class="edge"><title>Grammar&#45;&gt;test6</title>
<path fill="none" stroke="grey" d="M1195.63,-304.112C1342.56,-299.285 2057.86,-275.554 2642.5,-252 2678.25,-250.56 2715.89,-248.97 2753.02,-247.358"/>
<polygon fill="grey" stroke="grey" points="2753.64,-250.834 2763.48,-246.902 2753.34,-243.841 2753.64,-250.834"/>
</g>
<!-- _alternation_1_of_production_1_of_rule_test1 -->
<g id="node19" class="node"><title>_alternation_1_of_production_1_of_rule_test1</title>
<ellipse fill="none" stroke="blue" cx="1795.5" cy="-162" rx="34.394" ry="18"/>
<text text-anchor="middle" x="1795.5" y="-158.3" font-family="Times,serif" font-size="14.00">&#39;easy&#39; &#160;</text>
</g>
<!-- Grammar&#45;&gt;_alternation_1_of_production_1_of_rule_test1 -->
<g id="edge23" class="edge"><title>Grammar&#45;&gt;_alternation_1_of_production_1_of_rule_test1</title>
<path fill="none" stroke="grey" d="M1195.76,-305.247C1325.87,-306.148 1879.44,-306.727 1930.5,-252 1941.41,-240.3 1939.51,-229.22 1930.5,-216 1910.24,-186.28 1870.55,-173.225 1839.43,-167.491"/>
<polygon fill="grey" stroke="grey" points="1839.68,-163.985 1829.24,-165.814 1838.54,-170.892 1839.68,-163.985"/>
</g>
<!-- test4 -->
<g id="node20" class="node"><title>test4</title>
<ellipse fill="none" stroke="blue" cx="371.497" cy="-234" rx="40.0939" ry="18"/>
<text text-anchor="middle" x="371.497" y="-230.3" font-family="Times,serif" font-size="14.00">&#39;a&#39; b /c/ &#160;</text>
</g>
<!-- Grammar&#45;&gt;test4 -->
<g id="edge28" class="edge"><title>Grammar&#45;&gt;test4</title>
<path fill="none" stroke="grey" d="M1141.5,-304.039C1024.74,-299.737 562.694,-281.171 420.497,-252 417.131,-251.31 413.681,-250.447 410.245,-249.48"/>
<polygon fill="grey" stroke="grey" points="411.271,-246.134 400.684,-246.529 409.207,-252.823 411.271,-246.134"/>
</g>
<!-- test1 -->
<g id="node21" class="node"><title>test1</title>
<ellipse fill="none" stroke="blue" cx="1642.5" cy="-234" rx="279.45" ry="18"/>
<text text-anchor="middle" x="1642.5" y="-230.3" font-family="Times,serif" font-size="14.00">&#39;(&#39; &#39;the&#39; &#39;$::first&#39; /te+st/ is _alternation_1_of_production_1_of_rule_test1(s?) &#160;</text>
</g>
<!-- Grammar&#45;&gt;test1 -->
<g id="edge31" class="edge"><title>Grammar&#45;&gt;test1</title>
<path fill="none" stroke="grey" d="M1194.66,-301.137C1256.69,-291.976 1415.78,-268.482 1526.59,-252.118"/>
<polygon fill="grey" stroke="grey" points="1527.1,-255.579 1536.48,-250.656 1526.08,-248.655 1527.1,-255.579"/>
</g>
<!-- the -->
<g id="node22" class="node"><title>the</title>
<ellipse fill="none" stroke="blue" cx="3443.5" cy="-234" rx="29.4969" ry="18"/>
<text text-anchor="middle" x="3443.5" y="-230.3" font-family="Times,serif" font-size="14.00">&#39;the&#39; &#160;</text>
</g>
<!-- Grammar&#45;&gt;the -->
<g id="edge32" class="edge"><title>Grammar&#45;&gt;the</title>
<path fill="none" stroke="grey" d="M1195.62,-304.991C1434.67,-304.825 3178.54,-301.908 3404.5,-252 3407.02,-251.442 3409.58,-250.72 3412.13,-249.887"/>
<polygon fill="grey" stroke="grey" points="3413.61,-253.067 3421.72,-246.25 3411.13,-246.522 3413.61,-253.067"/>
</g>
<!-- test5 -->
<g id="node23" class="node"><title>test5</title>
<ellipse fill="none" stroke="blue" cx="144.497" cy="-234" rx="92.8835" ry="18"/>
<text text-anchor="middle" x="144.497" y="-230.3" font-family="Times,serif" font-size="14.00">name notname &#160;name &#160;</text>
</g>
<!-- Grammar&#45;&gt;test5 -->
<g id="edge35" class="edge"><title>Grammar&#45;&gt;test5</title>
<path fill="none" stroke="grey" d="M1141.41,-304.422C1030.7,-301.852 601.879,-289.864 251.497,-252 241.679,-250.939 231.388,-249.598 221.231,-248.137"/>
<polygon fill="grey" stroke="grey" points="221.546,-244.646 211.141,-246.642 220.52,-251.57 221.546,-244.646"/>
</g>
<!-- _alternation_1_of_production_1_of_rule_test3&#45;&gt;defn -->
<g id="edge4" class="edge"><title>_alternation_1_of_production_1_of_rule_test3&#45;&gt;defn</title>
<path fill="none" stroke="grey" d="M1016.5,-143.697C1016.5,-135.983 1016.5,-126.712 1016.5,-118.112"/>
<polygon fill="grey" stroke="grey" points="1020,-118.104 1016.5,-108.104 1013,-118.104 1020,-118.104"/>
</g>
<!-- _alternation_1_of_production_1_of_rule_test3&#45;&gt;typedef -->
<g id="edge5" class="edge"><title>_alternation_1_of_production_1_of_rule_test3&#45;&gt;typedef</title>
<path fill="none" stroke="grey" d="M968.314,-147.669C927.661,-136.421 869.216,-120.25 825.156,-108.06"/>
<polygon fill="grey" stroke="grey" points="825.991,-104.659 815.419,-105.366 824.124,-111.406 825.991,-104.659"/>
</g>
<!-- _alternation_1_of_production_1_of_rule_test3&#45;&gt;fail -->
<g id="edge6" class="edge"><title>_alternation_1_of_production_1_of_rule_test3&#45;&gt;fail</title>
<path fill="none" stroke="grey" d="M1050.91,-145.749C1074.49,-135.25 1106.45,-120.919 1134.5,-108 1136.29,-107.176 1138.12,-106.324 1139.98,-105.462"/>
<polygon fill="grey" stroke="grey" points="1141.64,-108.548 1149.21,-101.135 1138.67,-102.21 1141.64,-108.548"/>
</g>
<!-- defn&#45;&gt;typename -->
<g id="edge20" class="edge"><title>defn&#45;&gt;typename</title>
<path fill="none" stroke="grey" d="M930.8,-78.9015C843.063,-68.0612 712.908,-50.4501 664.497,-36 662.351,-35.3593 660.169,-34.6168 657.993,-33.8074"/>
<polygon fill="grey" stroke="grey" points="659.201,-30.5198 648.622,-29.9398 656.531,-36.9903 659.201,-30.5198"/>
</g>
<!-- defn&#45;&gt;id -->
<g id="edge19" class="edge"><title>defn&#45;&gt;id</title>
<path fill="none" stroke="grey" d="M1059.36,-73.2906C1086.54,-63.3314 1121.98,-50.3417 1151.38,-39.5655"/>
<polygon fill="grey" stroke="grey" points="1152.92,-42.7307 1161.1,-36.0033 1150.51,-36.1582 1152.92,-42.7307"/>
</g>
<!-- typedef&#45;&gt;typename -->
<g id="edge25" class="edge"><title>typedef&#45;&gt;typename</title>
<path fill="none" stroke="grey" d="M731.954,-72.7646C709.571,-61.2439 679.706,-45.8721 657.643,-34.5163"/>
<polygon fill="grey" stroke="grey" points="659.203,-31.3828 648.71,-29.9183 655.999,-37.6067 659.203,-31.3828"/>
</g>
<!-- typedef&#45;&gt;id -->
<g id="edge24" class="edge"><title>typedef&#45;&gt;id</title>
<path fill="none" stroke="grey" d="M835.822,-77.5975C904.985,-66.6934 1010.43,-50.0696 1091.36,-37.3099"/>
<polygon fill="grey" stroke="grey" points="1092.27,-40.7094 1101.61,-35.6946 1091.18,-33.7948 1092.27,-40.7094"/>
</g>
<!-- test3&#45;&gt;_alternation_1_of_production_1_of_rule_test3 -->
<g id="edge11" class="edge"><title>test3&#45;&gt;_alternation_1_of_production_1_of_rule_test3</title>
<path fill="none" stroke="grey" d="M912.312,-216.233C931.671,-206.342 956.304,-193.755 976.758,-183.305"/>
<polygon fill="grey" stroke="grey" points="978.515,-186.337 985.828,-178.671 975.33,-180.104 978.515,-186.337"/>
</g>
<!-- test4&#45;&gt;b -->
<g id="edge27" class="edge"><title>test4&#45;&gt;b</title>
<path fill="none" stroke="grey" d="M363.267,-216.055C359.241,-207.767 354.311,-197.618 349.846,-188.424"/>
<polygon fill="grey" stroke="grey" points="352.935,-186.773 345.418,-179.307 346.638,-189.831 352.935,-186.773"/>
</g>
<!-- test1&#45;&gt;is -->
<g id="edge29" class="edge"><title>test1&#45;&gt;is</title>
<path fill="none" stroke="grey" d="M1594.35,-216.233C1560.46,-204.43 1515.55,-188.789 1483.19,-177.519"/>
<polygon fill="grey" stroke="grey" points="1484.17,-174.155 1473.57,-174.171 1481.87,-180.765 1484.17,-174.155"/>
</g>
<!-- test1&#45;&gt;_alternation_1_of_production_1_of_rule_test1 -->
<g id="edge30" class="edge"><title>test1&#45;&gt;_alternation_1_of_production_1_of_rule_test1</title>
<path fill="none" stroke="grey" d="M1679.53,-216.055C1704.36,-204.696 1736.83,-189.843 1761.09,-178.742"/>
<polygon fill="grey" stroke="grey" points="1762.64,-181.88 1770.28,-174.537 1759.73,-175.515 1762.64,-181.88"/>
</g>
<!-- test5&#45;&gt;name -->
<g id="edge33" class="edge"><title>test5&#45;&gt;name</title>
<path fill="none" stroke="grey" d="M118.238,-216.588C101.39,-206.058 79.4827,-192.366 62.0297,-181.458"/>
<polygon fill="grey" stroke="grey" points="63.6943,-178.371 53.3593,-176.039 59.9843,-184.307 63.6943,-178.371"/>
</g>
<!-- test5&#45;&gt;notname -->
<g id="edge34" class="edge"><title>test5&#45;&gt;notname</title>
<path fill="none" stroke="grey" d="M151.759,-216.055C155.172,-208.091 159.321,-198.411 163.136,-189.51"/>
<polygon fill="grey" stroke="grey" points="166.371,-190.845 167.093,-180.275 159.937,-188.088 166.371,-190.845"/>
</g>
</g>
</svg>
