<?xml version="1.0" encoding="UTF-8" standalone="no"?>
<!DOCTYPE svg PUBLIC "-//W3C//DTD SVG 1.1//EN"
 "http://www.w3.org/Graphics/SVG/1.1/DTD/svg11.dtd">
<!-- Generated by graphviz version 2.30.1 (20130611.0131)
 -->
<!-- Title: Perl Pages: 1 -->
<svg width="522pt" height="716pt"
 viewBox="0.00 0.00 522.00 716.00" xmlns="http://www.w3.org/2000/svg" xmlns:xlink="http://www.w3.org/1999/xlink">
<g id="graph0" class="graph" transform="scale(1 1) rotate(0) translate(4 712)">
<title>Perl</title>
<polygon fill="white" stroke="white" points="-4,5 -4,-712 519,-712 519,5 -4,5"/>
<!-- 0 -->
<g id="node1" class="node"><title>0</title>
<polygon fill="none" stroke="green" points="276.338,-678.544 276.338,-693.456 259.738,-704 236.262,-704 219.662,-693.456 219.662,-678.544 236.262,-668 259.738,-668 276.338,-678.544"/>
<polygon fill="none" stroke="green" points="280.268,-676.325 280.268,-695.675 260.863,-708 235.137,-708 215.732,-695.675 215.732,-676.325 235.137,-664 260.863,-664 280.268,-676.325"/>
<text text-anchor="middle" x="248" y="-682.3" font-family="Times,serif" font-size="14.00">%$s</text>
</g>
<!-- 0_kids -->
<g id="node2" class="node"><title>0_kids</title>
<path fill="none" stroke="grey" d="M221,-591C221,-591 281,-591 281,-591 287,-591 293,-597 293,-603 293,-603 293,-615 293,-615 293,-621 287,-627 281,-627 281,-627 221,-627 221,-627 215,-627 209,-621 209,-615 209,-615 209,-603 209,-603 209,-597 215,-591 221,-591"/>
<text text-anchor="middle" x="222" y="-605.3" font-family="Times,serif" font-size="14.00" fill="blue">A</text>
<polyline fill="none" stroke="grey" points="235,-591 235,-627 "/>
<text text-anchor="middle" x="248" y="-605.3" font-family="Times,serif" font-size="14.00" fill="blue">C</text>
<polyline fill="none" stroke="grey" points="261,-591 261,-627 "/>
<text text-anchor="middle" x="277" y="-605.3" font-family="Times,serif" font-size="14.00" fill="blue">els</text>
</g>
<!-- 0&#45;&gt;0_kids -->
<g id="edge1" class="edge"><title>0&#45;&gt;0_kids:port2</title>
<path fill="none" stroke="grey" d="M248,-663.886C248,-656.163 248,-647.138 248,-638.263"/>
<polygon fill="grey" stroke="grey" points="251.5,-638 248,-628 244.5,-638 251.5,-638"/>
</g>
<!-- 0_0_kids -->
<g id="node3" class="node"><title>0_0_kids</title>
<path fill="none" stroke="grey" d="M101,-517C101,-517 131,-517 131,-517 137,-517 143,-523 143,-529 143,-529 143,-541 143,-541 143,-547 137,-553 131,-553 131,-553 101,-553 101,-553 95,-553 89,-547 89,-541 89,-541 89,-529 89,-529 89,-523 95,-517 101,-517"/>
<text text-anchor="middle" x="116" y="-531.3" font-family="Times,serif" font-size="14.00" fill="blue">%$A</text>
</g>
<!-- 0_kids&#45;&gt;0_0_kids -->
<g id="edge2" class="edge"><title>0_kids:port1&#45;&gt;0_0_kids:port1</title>
<path fill="none" stroke="grey" d="M208,-609C176.694,-609 149.997,-582.662 133.552,-561.412"/>
<polygon fill="grey" stroke="grey" points="136.314,-559.259 127.559,-553.292 130.682,-563.416 136.314,-559.259"/>
</g>
<!-- 0_1_kids -->
<g id="node11" class="node"><title>0_1_kids</title>
<path fill="none" stroke="grey" d="M233,-517C233,-517 263,-517 263,-517 269,-517 275,-523 275,-529 275,-529 275,-541 275,-541 275,-547 269,-553 263,-553 263,-553 233,-553 233,-553 227,-553 221,-547 221,-541 221,-541 221,-529 221,-529 221,-523 227,-517 233,-517"/>
<text text-anchor="middle" x="248" y="-531.3" font-family="Times,serif" font-size="14.00" fill="blue">%$C</text>
</g>
<!-- 0_kids&#45;&gt;0_1_kids -->
<g id="edge12" class="edge"><title>0_kids:port2&#45;&gt;0_1_kids:port1</title>
<path fill="none" stroke="grey" d="M248,-590C248,-581.406 248,-572.057 248,-563.546"/>
<polygon fill="grey" stroke="grey" points="251.5,-563.333 248,-553.333 244.5,-563.333 251.5,-563.333"/>
</g>
<!-- 0_2_kids -->
<g id="node21" class="node"><title>0_2_kids</title>
<path fill="none" stroke="grey" d="M347,-517C347,-517 377,-517 377,-517 383,-517 389,-523 389,-529 389,-529 389,-541 389,-541 389,-547 383,-553 377,-553 377,-553 347,-553 347,-553 341,-553 335,-547 335,-541 335,-541 335,-529 335,-529 335,-523 341,-517 347,-517"/>
<text text-anchor="middle" x="362" y="-531.3" font-family="Times,serif" font-size="14.00" fill="blue">@$els</text>
</g>
<!-- 0_kids&#45;&gt;0_2_kids -->
<g id="edge22" class="edge"><title>0_kids:port3&#45;&gt;0_2_kids:port1</title>
<path fill="none" stroke="grey" d="M294,-609C320.176,-609 339.025,-583.586 350.146,-562.545"/>
<polygon fill="grey" stroke="grey" points="353.425,-563.809 354.71,-553.292 347.147,-560.712 353.425,-563.809"/>
</g>
<!-- 0_0_0_kids -->
<g id="node4" class="node"><title>0_0_0_kids</title>
<path fill="none" stroke="grey" d="M43,-443C43,-443 165,-443 165,-443 171,-443 177,-449 177,-455 177,-455 177,-467 177,-467 177,-473 171,-479 165,-479 165,-479 43,-479 43,-479 37,-479 31,-473 31,-467 31,-467 31,-455 31,-455 31,-449 37,-443 43,-443"/>
<text text-anchor="middle" x="42.5" y="-457.3" font-family="Times,serif" font-size="14.00" fill="blue">a</text>
<polyline fill="none" stroke="grey" points="54,-443 54,-479 "/>
<text text-anchor="middle" x="82.5" y="-457.3" font-family="Times,serif" font-size="14.00" fill="blue">bbbbbb</text>
<polyline fill="none" stroke="grey" points="111,-443 111,-479 "/>
<text text-anchor="middle" x="132.5" y="-457.3" font-family="Times,serif" font-size="14.00" fill="blue">c123</text>
<polyline fill="none" stroke="grey" points="154,-443 154,-479 "/>
<text text-anchor="middle" x="165.5" y="-457.3" font-family="Times,serif" font-size="14.00" fill="blue">d</text>
</g>
<!-- 0_0_kids&#45;&gt;0_0_0_kids -->
<g id="edge3" class="edge"><title>0_0_kids:port1&#45;&gt;0_0_0_kids:port2</title>
<path fill="none" stroke="grey" d="M97.8056,-516.825C91.7427,-509.328 85.8835,-500.066 83.3328,-490.126"/>
<polygon fill="grey" stroke="grey" points="86.7752,-489.458 82,-480 79.835,-490.371 86.7752,-489.458"/>
</g>
<!-- 0_0_0_0_kids -->
<g id="node5" class="node"><title>0_0_0_0_kids</title>
<path fill="none" stroke="grey" d="M12,-369C12,-369 42,-369 42,-369 48,-369 54,-375 54,-381 54,-381 54,-393 54,-393 54,-399 48,-405 42,-405 42,-405 12,-405 12,-405 6,-405 0,-399 0,-393 0,-393 0,-381 0,-381 0,-375 6,-369 12,-369"/>
<text text-anchor="middle" x="27" y="-383.3" font-family="Times,serif" font-size="14.00" fill="blue">%$a</text>
</g>
<!-- 0_0_0_kids&#45;&gt;0_0_0_0_kids -->
<g id="edge4" class="edge"><title>0_0_0_kids:port1&#45;&gt;0_0_0_0_kids:port1</title>
<path fill="none" stroke="grey" d="M42,-442C42,-432.966 40.0929,-423.381 37.6387,-414.788"/>
<polygon fill="grey" stroke="grey" points="40.9675,-413.706 34.5879,-405.247 34.3001,-415.838 40.9675,-413.706"/>
</g>
<!-- 0_0_0_1_kids -->
<g id="node6" class="node"><title>0_0_0_1_kids</title>
<path fill="none" stroke="grey" d="M15,-295C15,-295 55,-295 55,-295 61,-295 67,-301 67,-307 67,-307 67,-319 67,-319 67,-325 61,-331 55,-331 55,-331 15,-331 15,-331 9,-331 3,-325 3,-319 3,-319 3,-307 3,-307 3,-301 9,-295 15,-295"/>
<text text-anchor="middle" x="35" y="-309.3" font-family="Times,serif" font-size="14.00" fill="blue">$bbbbbb</text>
</g>
<!-- 0_0_0_kids&#45;&gt;0_0_0_1_kids -->
<g id="edge5" class="edge"><title>0_0_0_kids:port2&#45;&gt;0_0_0_1_kids:port1</title>
<path fill="none" stroke="grey" d="M82,-442C82,-405.012 64.7311,-365.467 51.1285,-340.056"/>
<polygon fill="grey" stroke="grey" points="54.0443,-338.096 46.1383,-331.043 47.9204,-341.487 54.0443,-338.096"/>
</g>
<!-- 0_0_0_2_kids -->
<g id="node8" class="node"><title>0_0_0_2_kids</title>
<path fill="none" stroke="grey" d="M97,-295C97,-295 127,-295 127,-295 133,-295 139,-301 139,-307 139,-307 139,-319 139,-319 139,-325 133,-331 127,-331 127,-331 97,-331 97,-331 91,-331 85,-325 85,-319 85,-319 85,-307 85,-307 85,-301 91,-295 97,-295"/>
<text text-anchor="middle" x="112" y="-309.3" font-family="Times,serif" font-size="14.00" fill="blue">$c123</text>
</g>
<!-- 0_0_0_kids&#45;&gt;0_0_0_2_kids -->
<g id="edge7" class="edge"><title>0_0_0_kids:port3&#45;&gt;0_0_0_2_kids:port1</title>
<path fill="none" stroke="grey" d="M133,-442C133,-406.9 125.333,-367.119 119.264,-341.128"/>
<polygon fill="grey" stroke="grey" points="122.621,-340.118 116.871,-331.22 115.816,-341.762 122.621,-340.118"/>
</g>
<!-- 0_0_0_3_kids -->
<g id="node9" class="node"><title>0_0_0_3_kids</title>
<path fill="none" stroke="grey" d="M196.5,-369C196.5,-369 239.5,-369 239.5,-369 245.5,-369 251.5,-375 251.5,-381 251.5,-381 251.5,-393 251.5,-393 251.5,-399 245.5,-405 239.5,-405 239.5,-405 196.5,-405 196.5,-405 190.5,-405 184.5,-399 184.5,-393 184.5,-393 184.5,-381 184.5,-381 184.5,-375 190.5,-369 196.5,-369"/>
<text text-anchor="middle" x="218" y="-383.3" font-family="Times,serif" font-size="14.00" fill="blue">Object: d</text>
</g>
<!-- 0_0_0_kids&#45;&gt;0_0_0_3_kids -->
<g id="edge9" class="edge"><title>0_0_0_kids:port4&#45;&gt;0_0_0_3_kids:port1</title>
<path fill="none" stroke="grey" d="M166,-442C166,-430.414 172.169,-420.284 180.257,-411.982"/>
<polygon fill="grey" stroke="grey" points="182.708,-414.484 187.751,-405.166 177.998,-409.305 182.708,-414.484"/>
</g>
<!-- &amp;CODE(0x2a033f0) -->
<g id="node7" class="node"><title>&amp;CODE(0x2a033f0)</title>
<ellipse fill="none" stroke="grey" cx="112" cy="-239" rx="85.2138" ry="18"/>
<text text-anchor="middle" x="112" y="-235.3" font-family="Times,serif" font-size="14.00" fill="red">&amp;CODE(0x2a033f0)</text>
</g>
<!-- 0_0_0_1_kids&#45;&gt;&amp;CODE(0x2a033f0) -->
<g id="edge6" class="edge"><title>0_0_0_1_kids:port1&#45;&gt;&amp;CODE(0x2a033f0)</title>
<path fill="none" stroke="grey" d="M54.0337,-294.955C63.9247,-285.578 76.1417,-273.995 86.8058,-263.885"/>
<polygon fill="grey" stroke="grey" points="89.3919,-266.257 94.241,-256.836 84.5759,-261.177 89.3919,-266.257"/>
</g>
<!-- 0_0_0_2_kids&#45;&gt;&amp;CODE(0x2a033f0) -->
<g id="edge8" class="edge"><title>0_0_0_2_kids:port1&#45;&gt;&amp;CODE(0x2a033f0)</title>
<path fill="none" stroke="grey" d="M112,-294.955C112,-286.701 112,-276.738 112,-267.574"/>
<polygon fill="grey" stroke="grey" points="115.5,-267.335 112,-257.335 108.5,-267.335 115.5,-267.335"/>
</g>
<!-- $REF(0x28a0058) -->
<g id="node10" class="node"><title>$REF(0x28a0058)</title>
<ellipse fill="none" stroke="grey" cx="233" cy="-313" rx="76.0649" ry="18"/>
<text text-anchor="middle" x="233" y="-309.3" font-family="Times,serif" font-size="14.00" fill="red">$REF(0x28a0058)</text>
</g>
<!-- 0_0_0_3_kids&#45;&gt;$REF(0x28a0058) -->
<g id="edge10" class="edge"><title>0_0_0_3_kids:port1&#45;&gt;$REF(0x28a0058)</title>
<path fill="none" stroke="grey" d="M221.708,-368.955C223.422,-360.611 225.496,-350.521 227.395,-341.276"/>
<polygon fill="grey" stroke="grey" points="230.854,-341.835 229.438,-331.335 223.997,-340.426 230.854,-341.835"/>
</g>
<!-- $REF(0x28a0058)&#45;&gt;&amp;CODE(0x2a033f0) -->
<g id="edge11" class="edge"><title>$REF(0x28a0058)&#45;&gt;&amp;CODE(0x2a033f0)</title>
<path fill="none" stroke="grey" d="M206.146,-296.021C189.034,-285.838 166.656,-272.522 148.011,-261.428"/>
<polygon fill="grey" stroke="grey" points="149.581,-258.289 139.197,-256.183 146.001,-264.305 149.581,-258.289"/>
</g>
<!-- 0_1_0_kids -->
<g id="node12" class="node"><title>0_1_0_kids</title>
<path fill="none" stroke="grey" d="M233,-443C233,-443 263,-443 263,-443 269,-443 275,-449 275,-455 275,-455 275,-467 275,-467 275,-473 269,-479 263,-479 263,-479 233,-479 233,-479 227,-479 221,-473 221,-467 221,-467 221,-455 221,-455 221,-449 227,-443 233,-443"/>
<text text-anchor="middle" x="248" y="-457.3" font-family="Times,serif" font-size="14.00" fill="blue">b</text>
</g>
<!-- 0_1_kids&#45;&gt;0_1_0_kids -->
<g id="edge13" class="edge"><title>0_1_kids:port1&#45;&gt;0_1_0_kids:port1</title>
<path fill="none" stroke="grey" d="M248,-516.708C248,-508.464 248,-498.538 248,-489.362"/>
<polygon fill="grey" stroke="grey" points="251.5,-489.082 248,-479.082 244.5,-489.082 251.5,-489.082"/>
</g>
<!-- 0_1_0_0_kids -->
<g id="node13" class="node"><title>0_1_0_0_kids</title>
<path fill="none" stroke="grey" d="M318,-369C318,-369 348,-369 348,-369 354,-369 360,-375 360,-381 360,-381 360,-393 360,-393 360,-399 354,-405 348,-405 348,-405 318,-405 318,-405 312,-405 306,-399 306,-393 306,-393 306,-381 306,-381 306,-375 312,-369 318,-369"/>
<text text-anchor="middle" x="333" y="-383.3" font-family="Times,serif" font-size="14.00" fill="blue">%$b</text>
</g>
<!-- 0_1_0_kids&#45;&gt;0_1_0_0_kids -->
<g id="edge14" class="edge"><title>0_1_0_kids:port1&#45;&gt;0_1_0_0_kids:port1</title>
<path fill="none" stroke="grey" d="M269.011,-442.708C279.716,-433.388 292.89,-421.92 304.496,-411.816"/>
<polygon fill="grey" stroke="grey" points="306.986,-414.288 312.23,-405.082 302.39,-409.008 306.986,-414.288"/>
</g>
<!-- 0_1_0_0_0_kids -->
<g id="node14" class="node"><title>0_1_0_0_0_kids</title>
<path fill="none" stroke="grey" d="M339,-295C339,-295 369,-295 369,-295 375,-295 381,-301 381,-307 381,-307 381,-319 381,-319 381,-325 375,-331 369,-331 369,-331 339,-331 339,-331 333,-331 327,-325 327,-319 327,-319 327,-307 327,-307 327,-301 333,-295 339,-295"/>
<text text-anchor="middle" x="354" y="-309.3" font-family="Times,serif" font-size="14.00" fill="blue">a</text>
</g>
<!-- 0_1_0_0_kids&#45;&gt;0_1_0_0_0_kids -->
<g id="edge15" class="edge"><title>0_1_0_0_kids:port1&#45;&gt;0_1_0_0_0_kids:port1</title>
<path fill="none" stroke="grey" d="M338.191,-368.708C340.581,-360.284 343.47,-350.105 346.121,-340.765"/>
<polygon fill="grey" stroke="grey" points="349.506,-341.657 348.869,-331.082 342.772,-339.746 349.506,-341.657"/>
</g>
<!-- 0_1_0_0_0_0_kids -->
<g id="node15" class="node"><title>0_1_0_0_0_0_kids</title>
<path fill="none" stroke="grey" d="M339,-221C339,-221 369,-221 369,-221 375,-221 381,-227 381,-233 381,-233 381,-245 381,-245 381,-251 375,-257 369,-257 369,-257 339,-257 339,-257 333,-257 327,-251 327,-245 327,-245 327,-233 327,-233 327,-227 333,-221 339,-221"/>
<text text-anchor="middle" x="354" y="-235.3" font-family="Times,serif" font-size="14.00" fill="blue">%$a</text>
</g>
<!-- 0_1_0_0_0_kids&#45;&gt;0_1_0_0_0_0_kids -->
<g id="edge16" class="edge"><title>0_1_0_0_0_kids:port1&#45;&gt;0_1_0_0_0_0_kids:port1</title>
<path fill="none" stroke="grey" d="M354,-294.708C354,-286.464 354,-276.538 354,-267.362"/>
<polygon fill="grey" stroke="grey" points="357.5,-267.082 354,-257.082 350.5,-267.082 357.5,-267.082"/>
</g>
<!-- 0_1_0_0_0_0_0_kids -->
<g id="node16" class="node"><title>0_1_0_0_0_0_0_kids</title>
<path fill="none" stroke="grey" d="M331.5,-147C331.5,-147 376.5,-147 376.5,-147 382.5,-147 388.5,-153 388.5,-159 388.5,-159 388.5,-171 388.5,-171 388.5,-177 382.5,-183 376.5,-183 376.5,-183 331.5,-183 331.5,-183 325.5,-183 319.5,-177 319.5,-171 319.5,-171 319.5,-159 319.5,-159 319.5,-153 325.5,-147 331.5,-147"/>
<text text-anchor="middle" x="331" y="-161.3" font-family="Times,serif" font-size="14.00" fill="blue">a</text>
<polyline fill="none" stroke="grey" points="342.5,-147 342.5,-183 "/>
<text text-anchor="middle" x="354" y="-161.3" font-family="Times,serif" font-size="14.00" fill="blue">b</text>
<polyline fill="none" stroke="grey" points="365.5,-147 365.5,-183 "/>
<text text-anchor="middle" x="377" y="-161.3" font-family="Times,serif" font-size="14.00" fill="blue">c</text>
</g>
<!-- 0_1_0_0_0_0_kids&#45;&gt;0_1_0_0_0_0_0_kids -->
<g id="edge17" class="edge"><title>0_1_0_0_0_0_kids:port1&#45;&gt;0_1_0_0_0_0_0_kids:port2</title>
<path fill="none" stroke="grey" d="M354,-220.667C354,-212.896 354,-203.513 354,-194.275"/>
<polygon fill="grey" stroke="grey" points="357.5,-194 354,-184 350.5,-194 357.5,-194"/>
</g>
<!-- 0_1_0_0_0_0_0_0_kids -->
<g id="node17" class="node"><title>0_1_0_0_0_0_0_0_kids</title>
<path fill="none" stroke="grey" d="M267,-73C267,-73 297,-73 297,-73 303,-73 309,-79 309,-85 309,-85 309,-97 309,-97 309,-103 303,-109 297,-109 297,-109 267,-109 267,-109 261,-109 255,-103 255,-97 255,-97 255,-85 255,-85 255,-79 261,-73 267,-73"/>
<text text-anchor="middle" x="282" y="-87.3" font-family="Times,serif" font-size="14.00" fill="blue">%$a</text>
</g>
<!-- 0_1_0_0_0_0_0_kids&#45;&gt;0_1_0_0_0_0_0_0_kids -->
<g id="edge18" class="edge"><title>0_1_0_0_0_0_0_kids:port1&#45;&gt;0_1_0_0_0_0_0_0_kids:port1</title>
<path fill="none" stroke="grey" d="M331,-146C331,-138.727 321.326,-127.058 310.574,-116.336"/>
<polygon fill="grey" stroke="grey" points="312.704,-113.528 303.065,-109.13 307.857,-118.579 312.704,-113.528"/>
</g>
<!-- 0_1_0_0_0_0_0_1_kids -->
<g id="node18" class="node"><title>0_1_0_0_0_0_0_1_kids</title>
<path fill="none" stroke="grey" d="M339,-73C339,-73 369,-73 369,-73 375,-73 381,-79 381,-85 381,-85 381,-97 381,-97 381,-103 375,-109 369,-109 369,-109 339,-109 339,-109 333,-109 327,-103 327,-97 327,-97 327,-85 327,-85 327,-79 333,-73 339,-73"/>
<text text-anchor="middle" x="354" y="-87.3" font-family="Times,serif" font-size="14.00" fill="blue">$b</text>
</g>
<!-- 0_1_0_0_0_0_0_kids&#45;&gt;0_1_0_0_0_0_0_1_kids -->
<g id="edge19" class="edge"><title>0_1_0_0_0_0_0_kids:port2&#45;&gt;0_1_0_0_0_0_0_1_kids:port1</title>
<path fill="none" stroke="grey" d="M354,-146C354,-137.406 354,-128.057 354,-119.546"/>
<polygon fill="grey" stroke="grey" points="357.5,-119.333 354,-109.333 350.5,-119.333 357.5,-119.333"/>
</g>
<!-- 0_1_0_0_0_0_0_2_kids -->
<g id="node20" class="node"><title>0_1_0_0_0_0_0_2_kids</title>
<path fill="none" stroke="grey" d="M411,-73C411,-73 441,-73 441,-73 447,-73 453,-79 453,-85 453,-85 453,-97 453,-97 453,-103 447,-109 441,-109 441,-109 411,-109 411,-109 405,-109 399,-103 399,-97 399,-97 399,-85 399,-85 399,-79 405,-73 411,-73"/>
<text text-anchor="middle" x="426" y="-87.3" font-family="Times,serif" font-size="14.00" fill="blue">42</text>
</g>
<!-- 0_1_0_0_0_0_0_kids&#45;&gt;0_1_0_0_0_0_0_2_kids -->
<g id="edge21" class="edge"><title>0_1_0_0_0_0_0_kids:port3&#45;&gt;0_1_0_0_0_0_0_2_kids:port1</title>
<path fill="none" stroke="grey" d="M377,-146C377,-138.727 386.674,-127.058 397.426,-116.336"/>
<polygon fill="grey" stroke="grey" points="400.143,-118.579 404.935,-109.13 395.296,-113.528 400.143,-118.579"/>
</g>
<!-- &amp;CODE(0x2b1a7b0) -->
<g id="node19" class="node"><title>&amp;CODE(0x2b1a7b0)</title>
<ellipse fill="none" stroke="grey" cx="354" cy="-18" rx="87.1385" ry="18"/>
<text text-anchor="middle" x="354" y="-14.3" font-family="Times,serif" font-size="14.00" fill="red">&amp;CODE(0x2b1a7b0)</text>
</g>
<!-- 0_1_0_0_0_0_0_1_kids&#45;&gt;&amp;CODE(0x2b1a7b0) -->
<g id="edge20" class="edge"><title>0_1_0_0_0_0_0_1_kids:port1&#45;&gt;&amp;CODE(0x2b1a7b0)</title>
<path fill="none" stroke="grey" d="M354,-72.8314C354,-64.894 354,-55.4095 354,-46.6285"/>
<polygon fill="grey" stroke="grey" points="357.5,-46.4177 354,-36.4177 350.5,-46.4177 357.5,-46.4177"/>
</g>
<!-- 0_2_0_kids -->
<g id="node22" class="node"><title>0_2_0_kids</title>
<path fill="none" stroke="grey" d="M305,-443C305,-443 503,-443 503,-443 509,-443 515,-449 515,-455 515,-455 515,-467 515,-467 515,-473 509,-479 503,-479 503,-479 305,-479 305,-479 299,-479 293,-473 293,-467 293,-467 293,-455 293,-455 293,-449 299,-443 305,-443"/>
<text text-anchor="middle" x="330" y="-457.3" font-family="Times,serif" font-size="14.00" fill="blue">element_1</text>
<polyline fill="none" stroke="grey" points="367,-443 367,-479 "/>
<text text-anchor="middle" x="404" y="-457.3" font-family="Times,serif" font-size="14.00" fill="blue">element_2</text>
<polyline fill="none" stroke="grey" points="441,-443 441,-479 "/>
<text text-anchor="middle" x="478" y="-457.3" font-family="Times,serif" font-size="14.00" fill="blue">element_3</text>
</g>
<!-- 0_2_kids&#45;&gt;0_2_0_kids -->
<g id="edge23" class="edge"><title>0_2_kids:port1&#45;&gt;0_2_0_kids:port2</title>
<path fill="none" stroke="grey" d="M385.456,-516.643C392.747,-509.313 399.637,-500.191 402.547,-490.032"/>
<polygon fill="grey" stroke="grey" points="406.03,-490.399 404,-480 399.102,-489.395 406.03,-490.399"/>
</g>
</g>
</svg>
