<?xml version="1.0" encoding="UTF-8" standalone="no"?>
<!DOCTYPE svg PUBLIC "-//W3C//DTD SVG 1.1//EN"
 "http://www.w3.org/Graphics/SVG/1.1/DTD/svg11.dtd">
<!-- Generated by graphviz version 2.38.0 (20140413.2041)
 -->
<!-- Title: Perl Pages: 1 -->
<svg width="3466pt" height="332pt"
 viewBox="0.00 0.00 3465.93 332.00" xmlns="http://www.w3.org/2000/svg" xmlns:xlink="http://www.w3.org/1999/xlink">
<g id="graph0" class="graph" transform="scale(1 1) rotate(0) translate(4 328)">
<title>Perl</title>
<polygon fill="white" stroke="none" points="-4,4 -4,-328 3461.93,-328 3461.93,4 -4,4"/>
<!-- Grammar -->
<g id="node1" class="node"><title>Grammar</title>
<ellipse fill="none" stroke="blue" cx="1406.25" cy="-306" rx="27" ry="18"/>
</g>
<!-- the -->
<g id="node2" class="node"><title>the</title>
<ellipse fill="none" stroke="blue" cx="29.2474" cy="-234" rx="29.4969" ry="18"/>
<text text-anchor="middle" x="29.2474" y="-230.3" font-family="Times,serif" font-size="14.00">&#39;the&#39; &#160;</text>
</g>
<!-- Grammar&#45;&gt;the -->
<g id="edge1" class="edge"><title>Grammar&#45;&gt;the</title>
<path fill="none" stroke="grey" d="M1379.14,-305.16C1213.37,-305.95 334.744,-307.428 72.2474,-252 68.7645,-251.265 65.198,-250.274 61.6814,-249.138"/>
<polygon fill="grey" stroke="grey" points="62.6079,-245.752 52.0136,-245.647 60.23,-252.335 62.6079,-245.752"/>
</g>
<!-- is -->
<g id="node3" class="node"><title>is</title>
<ellipse fill="none" stroke="blue" cx="192.247" cy="-162" rx="42.7926" ry="18"/>
<text text-anchor="middle" x="192.247" y="-158.3" font-family="Times,serif" font-size="14.00">&#39;is&#39; &#160;&#39;are&#39; &#160;</text>
</g>
<!-- Grammar&#45;&gt;is -->
<g id="edge2" class="edge"><title>Grammar&#45;&gt;is</title>
<path fill="none" stroke="grey" d="M1379.22,-304.947C1196.76,-304.464 150.967,-299.62 105.247,-252 94.1663,-240.458 97.4111,-229.95 105.247,-216 114.968,-198.696 132.884,-186.379 149.942,-178.001"/>
<polygon fill="grey" stroke="grey" points="151.627,-181.079 159.274,-173.745 148.723,-174.71 151.627,-181.079"/>
</g>
<!-- fail -->
<g id="node4" class="node"><title>fail</title>
<ellipse fill="none" stroke="blue" cx="820.247" cy="-90" rx="27" ry="18"/>
<text text-anchor="middle" x="820.247" y="-86.3" font-family="Times,serif" font-size="14.00"> </text>
</g>
<!-- Grammar&#45;&gt;fail -->
<g id="edge3" class="edge"><title>Grammar&#45;&gt;fail</title>
<path fill="none" stroke="grey" d="M1379.32,-304.637C1269.5,-302.883 859.463,-293.575 821.247,-252 787.847,-215.664 800.045,-152.86 810.83,-117.386"/>
<polygon fill="grey" stroke="grey" points="814.205,-118.323 813.938,-107.731 807.542,-116.178 814.205,-118.323"/>
</g>
<!-- test7 -->
<g id="node5" class="node"><title>test7</title>
<ellipse fill="none" stroke="blue" cx="1458.25" cy="-234" rx="76.0865" ry="18"/>
<text text-anchor="middle" x="1458.25" y="-230.3" font-family="Times,serif" font-size="14.00">&#39;x&#39; &lt;resync&gt; /y+/ &#160;</text>
</g>
<!-- Grammar&#45;&gt;test7 -->
<g id="edge4" class="edge"><title>Grammar&#45;&gt;test7</title>
<path fill="none" stroke="grey" d="M1417.79,-289.465C1424.18,-280.867 1432.27,-269.97 1439.54,-260.187"/>
<polygon fill="grey" stroke="grey" points="1442.49,-262.076 1445.65,-251.962 1436.87,-257.902 1442.49,-262.076"/>
</g>
<!-- _alternation_1_of_production_1_of_rule_test1 -->
<g id="node6" class="node"><title>_alternation_1_of_production_1_of_rule_test1</title>
<ellipse fill="none" stroke="blue" cx="534.247" cy="-162" rx="34.394" ry="18"/>
<text text-anchor="middle" x="534.247" y="-158.3" font-family="Times,serif" font-size="14.00">&#39;easy&#39; &#160;</text>
</g>
<!-- Grammar&#45;&gt;_alternation_1_of_production_1_of_rule_test1 -->
<g id="edge5" class="edge"><title>Grammar&#45;&gt;_alternation_1_of_production_1_of_rule_test1</title>
<path fill="none" stroke="grey" d="M1379.06,-305.078C1267.64,-305.066 846.033,-301.675 724.247,-252 701.169,-242.586 702.858,-228.418 681.247,-216 647.328,-196.51 604.981,-182.161 574.461,-173.345"/>
<polygon fill="grey" stroke="grey" points="575.168,-169.908 564.594,-170.568 573.272,-176.646 575.168,-169.908"/>
</g>
<!-- b -->
<g id="node7" class="node"><title>b</title>
<ellipse fill="none" stroke="blue" cx="1596.25" cy="-162" rx="27" ry="18"/>
<text text-anchor="middle" x="1596.25" y="-158.3" font-family="Times,serif" font-size="14.00">&#39;b&#39; &#160;</text>
</g>
<!-- Grammar&#45;&gt;b -->
<g id="edge6" class="edge"><title>Grammar&#45;&gt;b</title>
<path fill="none" stroke="grey" d="M1432.08,-300.318C1461.74,-293.833 1510.52,-279.647 1543.25,-252 1563.23,-235.123 1577.61,-208.699 1586.31,-189.022"/>
<polygon fill="grey" stroke="grey" points="1589.58,-190.279 1590.23,-179.705 1583.12,-187.564 1589.58,-190.279"/>
</g>
<!-- a -->
<g id="node8" class="node"><title>a</title>
<ellipse fill="none" stroke="blue" cx="1715.25" cy="-234" rx="27" ry="18"/>
<text text-anchor="middle" x="1715.25" y="-230.3" font-family="Times,serif" font-size="14.00">&#39;a&#39; &#160;</text>
</g>
<!-- Grammar&#45;&gt;a -->
<g id="edge7" class="edge"><title>Grammar&#45;&gt;a</title>
<path fill="none" stroke="grey" d="M1432.77,-302.082C1482.21,-296.157 1591.38,-280.774 1679.25,-252 1681.17,-251.371 1683.12,-250.663 1685.07,-249.904"/>
<polygon fill="grey" stroke="grey" points="1686.85,-252.948 1694.67,-245.794 1684.1,-246.514 1686.85,-252.948"/>
</g>
<!-- id -->
<g id="node9" class="node"><title>id</title>
<ellipse fill="none" stroke="blue" cx="756.247" cy="-18" rx="534.005" ry="18"/>
<text text-anchor="middle" x="756.247" y="-14.3" font-family="Times,serif" font-size="14.00">/[a&#45;z]		# LEADING ALPHABETIC\n		 &#160;\w*		# FOLLOWED BY ALPHAS, DIGITS, OR UNDERSCORES\n		 /ix &#160;</text>
</g>
<!-- Grammar&#45;&gt;id -->
<g id="edge8" class="edge"><title>Grammar&#45;&gt;id</title>
<path fill="none" stroke="grey" d="M1379.32,-304.525C1267.51,-302.305 843.701,-291.336 800.247,-252 741.96,-199.237 746.153,-95.5182 752.042,-46.2406"/>
<polygon fill="grey" stroke="grey" points="755.513,-46.6841 753.341,-36.3143 748.573,-45.7752 755.513,-46.6841"/>
</g>
<!-- name -->
<g id="node10" class="node"><title>name</title>
<ellipse fill="none" stroke="blue" cx="1779.25" cy="-162" rx="32.4942" ry="18"/>
<text text-anchor="middle" x="1779.25" y="-158.3" font-family="Times,serif" font-size="14.00">&#39;fred&#39; &#160;</text>
</g>
<!-- Grammar&#45;&gt;name -->
<g id="edge9" class="edge"><title>Grammar&#45;&gt;name</title>
<path fill="none" stroke="grey" d="M1433.3,-304.43C1506.03,-302.357 1703.48,-292.993 1751.25,-252 1768.96,-236.799 1775.6,-210.511 1778.03,-190.435"/>
<polygon fill="grey" stroke="grey" points="1781.53,-190.593 1778.97,-180.312 1774.56,-189.947 1781.53,-190.593"/>
</g>
<!-- test6 -->
<g id="node11" class="node"><title>test6</title>
<ellipse fill="none" stroke="blue" cx="2412.25" cy="-234" rx="372.334" ry="18"/>
<text text-anchor="middle" x="2412.25" y="-230.3" font-family="Times,serif" font-size="14.00">&lt;rulevar: $test6 = 1&gt; &#160;&#39;a&#39; &lt;commit&gt; &#39;b&#39; &lt;uncommit&gt; &#39;c&#39; &lt;reject: $test6 &amp;&amp; $text&gt; &#160;&lt;uncommit&gt; &#160;&#39;a&#39; &#160;</text>
</g>
<!-- Grammar&#45;&gt;test6 -->
<g id="edge10" class="edge"><title>Grammar&#45;&gt;test6</title>
<path fill="none" stroke="grey" d="M1433.16,-303.128C1540.58,-295.653 1945.16,-267.501 2199.42,-249.809"/>
<polygon fill="grey" stroke="grey" points="2199.79,-253.292 2209.53,-249.106 2199.31,-246.309 2199.79,-253.292"/>
</g>
<!-- test1 -->
<g id="node12" class="node"><title>test1</title>
<ellipse fill="none" stroke="blue" cx="393.247" cy="-234" rx="279.45" ry="18"/>
<text text-anchor="middle" x="393.247" y="-230.3" font-family="Times,serif" font-size="14.00">&#39;(&#39; &#39;the&#39; &#39;$::first&#39; /te+st/ is _alternation_1_of_production_1_of_rule_test1(s?) &#160;</text>
</g>
<!-- Grammar&#45;&gt;test1 -->
<g id="edge13" class="edge"><title>Grammar&#45;&gt;test1</title>
<path fill="none" stroke="grey" d="M1379.41,-303.146C1268.58,-295.487 840.357,-265.896 586.081,-248.325"/>
<polygon fill="grey" stroke="grey" points="586.202,-244.825 575.984,-247.627 585.719,-251.809 586.202,-244.825"/>
</g>
<!-- _alternation_1_of_production_1_of_rule_test3 -->
<g id="node13" class="node"><title>_alternation_1_of_production_1_of_rule_test3</title>
<ellipse fill="none" stroke="blue" cx="992.247" cy="-162" rx="79.0865" ry="18"/>
<text text-anchor="middle" x="992.247" y="-158.3" font-family="Times,serif" font-size="14.00">defn &#160;typedef &#160;fail &#160;</text>
</g>
<!-- Grammar&#45;&gt;_alternation_1_of_production_1_of_rule_test3 -->
<g id="edge17" class="edge"><title>Grammar&#45;&gt;_alternation_1_of_production_1_of_rule_test3</title>
<path fill="none" stroke="grey" d="M1379.13,-304.586C1270.45,-302.651 870.437,-292.788 833.247,-252 799.952,-215.483 866.495,-190.393 923.43,-176.381"/>
<polygon fill="grey" stroke="grey" points="924.274,-179.778 933.193,-174.06 922.655,-172.967 924.274,-179.778"/>
</g>
<!-- defn -->
<g id="node14" class="node"><title>defn</title>
<ellipse fill="none" stroke="blue" cx="1217.25" cy="-90" rx="108.581" ry="18"/>
<text text-anchor="middle" x="1217.25" y="-86.3" font-family="Times,serif" font-size="14.00">&#39;var&#39; id &#39;holds&#39; typename &#39;;&#39; &#160;</text>
</g>
<!-- Grammar&#45;&gt;defn -->
<g id="edge26" class="edge"><title>Grammar&#45;&gt;defn</title>
<path fill="none" stroke="grey" d="M1387.12,-293.27C1372.7,-283.644 1353.25,-268.883 1340.25,-252 1308.2,-210.382 1325.56,-184.614 1292.25,-144 1282.39,-131.98 1269.16,-121.428 1256.56,-112.97"/>
<polygon fill="grey" stroke="grey" points="1258.29,-109.921 1247.99,-107.456 1254.5,-115.808 1258.29,-109.921"/>
</g>
<!-- typedef -->
<g id="node15" class="node"><title>typedef</title>
<ellipse fill="none" stroke="blue" cx="992.247" cy="-90" rx="98.5829" ry="18"/>
<text text-anchor="middle" x="992.247" y="-86.3" font-family="Times,serif" font-size="14.00">&#39;type&#39; id &#39;is&#39; typename &#39;;&#39; &#160;</text>
</g>
<!-- Grammar&#45;&gt;typedef -->
<g id="edge34" class="edge"><title>Grammar&#45;&gt;typedef</title>
<path fill="none" stroke="grey" d="M1386.66,-293.244C1368.81,-282.525 1341.73,-266.238 1318.25,-252 1291.98,-236.076 1286.31,-230.534 1259.25,-216 1183.53,-175.335 1092.27,-134.237 1038.43,-110.769"/>
<polygon fill="grey" stroke="grey" points="1039.72,-107.511 1029.15,-106.736 1036.93,-113.931 1039.72,-107.511"/>
</g>
<!-- test4 -->
<g id="node16" class="node"><title>test4</title>
<ellipse fill="none" stroke="blue" cx="1630.25" cy="-234" rx="40.0939" ry="18"/>
<text text-anchor="middle" x="1630.25" y="-230.3" font-family="Times,serif" font-size="14.00">&#39;a&#39; b /c/ &#160;</text>
</g>
<!-- Grammar&#45;&gt;test4 -->
<g id="edge19" class="edge"><title>Grammar&#45;&gt;test4</title>
<path fill="none" stroke="grey" d="M1430.18,-297.56C1463.1,-287.325 1524.18,-268.313 1576.25,-252 1580.26,-250.744 1584.43,-249.433 1588.61,-248.121"/>
<polygon fill="grey" stroke="grey" points="1589.78,-251.421 1598.27,-245.083 1587.68,-244.744 1589.78,-251.421"/>
</g>
<!-- test3 -->
<g id="node17" class="node"><title>test3</title>
<ellipse fill="none" stroke="blue" cx="1046.25" cy="-234" rx="204.164" ry="18"/>
<text text-anchor="middle" x="1046.25" y="-230.3" font-family="Times,serif" font-size="14.00">_alternation_1_of_production_1_of_rule_test3(5..10) &#160;</text>
</g>
<!-- Grammar&#45;&gt;test3 -->
<g id="edge21" class="edge"><title>Grammar&#45;&gt;test3</title>
<path fill="none" stroke="grey" d="M1380.65,-300.022C1330.58,-290.287 1217.56,-268.31 1136.77,-252.602"/>
<polygon fill="grey" stroke="grey" points="1137.08,-249.096 1126.59,-250.623 1135.74,-255.967 1137.08,-249.096"/>
</g>
<!-- typename -->
<g id="node18" class="node"><title>typename</title>
<ellipse fill="none" stroke="blue" cx="1336.25" cy="-18" rx="27.8951" ry="18"/>
<text text-anchor="middle" x="1336.25" y="-14.3" font-family="Times,serif" font-size="14.00">&#39;int&#39; &#160;</text>
</g>
<!-- Grammar&#45;&gt;typename -->
<g id="edge22" class="edge"><title>Grammar&#45;&gt;typename</title>
<path fill="none" stroke="grey" d="M1394.37,-289.633C1387.13,-279.491 1378.33,-265.608 1373.25,-252 1346.72,-180.923 1339.21,-90.721 1337.09,-46.2799"/>
<polygon fill="grey" stroke="grey" points="1340.58,-46.1001 1336.66,-36.2568 1333.59,-46.3957 1340.58,-46.1001"/>
</g>
<!-- dog -->
<g id="node19" class="node"><title>dog</title>
<ellipse fill="none" stroke="blue" cx="2834.25" cy="-234" rx="31.6951" ry="18"/>
<text text-anchor="middle" x="2834.25" y="-230.3" font-family="Times,serif" font-size="14.00">&#39;dog&#39; &#160;</text>
</g>
<!-- Grammar&#45;&gt;dog -->
<g id="edge23" class="edge"><title>Grammar&#45;&gt;dog</title>
<path fill="none" stroke="grey" d="M1433.32,-304.541C1615.19,-301.384 2655.84,-282.097 2793.25,-252 2795.91,-251.417 2798.62,-250.671 2801.31,-249.819"/>
<polygon fill="grey" stroke="grey" points="2802.65,-253.055 2810.86,-246.362 2800.27,-246.472 2802.65,-253.055"/>
</g>
<!-- notname -->
<g id="node20" class="node"><title>notname</title>
<ellipse fill="none" stroke="blue" cx="1951.25" cy="-162" rx="52.7911" ry="18"/>
<text text-anchor="middle" x="1951.25" y="-158.3" font-family="Times,serif" font-size="14.00">/[a&#45;z]\w*/i &#160;</text>
</g>
<!-- Grammar&#45;&gt;notname -->
<g id="edge27" class="edge"><title>Grammar&#45;&gt;notname</title>
<path fill="none" stroke="grey" d="M1433.27,-304.651C1543.5,-302.952 1955.03,-293.829 1993.25,-252 2010.47,-233.155 1993.28,-205.99 1975.98,-186.637"/>
<polygon fill="grey" stroke="grey" points="1978.32,-184.01 1968.92,-179.124 1973.22,-188.806 1978.32,-184.01"/>
</g>
<!-- cat -->
<g id="node21" class="node"><title>cat</title>
<ellipse fill="none" stroke="blue" cx="3020.25" cy="-234" rx="135.676" ry="18"/>
<text text-anchor="middle" x="3020.25" y="-230.3" font-family="Times,serif" font-size="14.00">&lt;reject: $arg[0] ne &#39;meows&#39;&gt; &#39;cat&#39; &#160;&#160;</text>
</g>
<!-- Grammar&#45;&gt;cat -->
<g id="edge28" class="edge"><title>Grammar&#45;&gt;cat</title>
<path fill="none" stroke="grey" d="M1433.33,-304.837C1579.98,-303.785 2293.81,-296.5 2875.25,-252 2888.67,-250.973 2902.76,-249.64 2916.67,-248.173"/>
<polygon fill="grey" stroke="grey" points="2917.19,-251.637 2926.75,-247.083 2916.44,-244.678 2917.19,-251.637"/>
</g>
<!-- test5 -->
<g id="node22" class="node"><title>test5</title>
<ellipse fill="none" stroke="blue" cx="1891.25" cy="-234" rx="92.8835" ry="18"/>
<text text-anchor="middle" x="1891.25" y="-230.3" font-family="Times,serif" font-size="14.00">name notname &#160;name &#160;</text>
</g>
<!-- Grammar&#45;&gt;test5 -->
<g id="edge31" class="edge"><title>Grammar&#45;&gt;test5</title>
<path fill="none" stroke="grey" d="M1432.39,-301.501C1493.83,-293.244 1652.19,-271.747 1784.25,-252 1793.43,-250.627 1803.05,-249.152 1812.59,-247.664"/>
<polygon fill="grey" stroke="grey" points="1813.15,-251.119 1822.49,-246.114 1812.07,-244.203 1813.15,-251.119"/>
</g>
<!-- test2 -->
<g id="node23" class="node"><title>test2</title>
<ellipse fill="none" stroke="blue" cx="3316.25" cy="-234" rx="141.875" ry="18"/>
<text text-anchor="middle" x="3316.25" y="-230.3" font-family="Times,serif" font-size="14.00">$arg{article} $arg[3][$arg{sound}] &#160;</text>
</g>
<!-- Grammar&#45;&gt;test2 -->
<g id="edge35" class="edge"><title>Grammar&#45;&gt;test2</title>
<path fill="none" stroke="grey" d="M1433.42,-305.017C1596.47,-304.945 2461.66,-302.121 3165.25,-252 3179.36,-250.995 3194.18,-249.665 3208.8,-248.19"/>
<polygon fill="grey" stroke="grey" points="3209.29,-251.658 3218.88,-247.148 3208.58,-244.695 3209.29,-251.658"/>
</g>
<!-- test1&#45;&gt;is -->
<g id="edge11" class="edge"><title>test1&#45;&gt;is</title>
<path fill="none" stroke="grey" d="M345.103,-216.233C311.212,-204.43 266.299,-188.789 233.938,-177.519"/>
<polygon fill="grey" stroke="grey" points="234.919,-174.155 224.324,-174.171 232.617,-180.765 234.919,-174.155"/>
</g>
<!-- test1&#45;&gt;_alternation_1_of_production_1_of_rule_test1 -->
<g id="edge12" class="edge"><title>test1&#45;&gt;_alternation_1_of_production_1_of_rule_test1</title>
<path fill="none" stroke="grey" d="M427.38,-216.055C449.772,-204.938 478.906,-190.474 501.098,-179.457"/>
<polygon fill="grey" stroke="grey" points="502.743,-182.548 510.144,-174.966 499.631,-176.278 502.743,-182.548"/>
</g>
<!-- _alternation_1_of_production_1_of_rule_test3&#45;&gt;fail -->
<g id="edge16" class="edge"><title>_alternation_1_of_production_1_of_rule_test3&#45;&gt;fail</title>
<path fill="none" stroke="grey" d="M955.349,-145.983C924.664,-133.495 881.438,-115.903 852.21,-104.008"/>
<polygon fill="grey" stroke="grey" points="853.455,-100.736 842.873,-100.208 850.816,-107.219 853.455,-100.736"/>
</g>
<!-- _alternation_1_of_production_1_of_rule_test3&#45;&gt;defn -->
<g id="edge14" class="edge"><title>_alternation_1_of_production_1_of_rule_test3&#45;&gt;defn</title>
<path fill="none" stroke="grey" d="M1036.97,-147.087C1071.79,-136.253 1120.43,-121.122 1158.41,-109.306"/>
<polygon fill="grey" stroke="grey" points="1159.81,-112.535 1168.32,-106.223 1157.73,-105.851 1159.81,-112.535"/>
</g>
<!-- _alternation_1_of_production_1_of_rule_test3&#45;&gt;typedef -->
<g id="edge15" class="edge"><title>_alternation_1_of_production_1_of_rule_test3&#45;&gt;typedef</title>
<path fill="none" stroke="grey" d="M992.247,-143.697C992.247,-135.983 992.247,-126.712 992.247,-118.112"/>
<polygon fill="grey" stroke="grey" points="995.748,-118.104 992.247,-108.104 988.748,-118.104 995.748,-118.104"/>
</g>
<!-- defn&#45;&gt;id -->
<g id="edge24" class="edge"><title>defn&#45;&gt;id</title>
<path fill="none" stroke="grey" d="M1140.09,-77.2836C1068.04,-66.344 959.42,-49.8505 876.093,-37.1978"/>
<polygon fill="grey" stroke="grey" points="876.473,-33.7155 866.061,-35.6745 875.422,-40.6362 876.473,-33.7155"/>
</g>
<!-- defn&#45;&gt;typename -->
<g id="edge25" class="edge"><title>defn&#45;&gt;typename</title>
<path fill="none" stroke="grey" d="M1245.15,-72.5881C1263.92,-61.5448 1288.61,-47.0235 1307.55,-35.8831"/>
<polygon fill="grey" stroke="grey" points="1309.49,-38.8028 1316.33,-30.7158 1305.94,-32.7693 1309.49,-38.8028"/>
</g>
<!-- typedef&#45;&gt;id -->
<g id="edge32" class="edge"><title>typedef&#45;&gt;id</title>
<path fill="none" stroke="grey" d="M942.774,-74.3257C908.157,-64.058 861.5,-50.2189 823.509,-38.9506"/>
<polygon fill="grey" stroke="grey" points="824.129,-35.4839 813.547,-35.9956 822.139,-42.1949 824.129,-35.4839"/>
</g>
<!-- typedef&#45;&gt;typename -->
<g id="edge33" class="edge"><title>typedef&#45;&gt;typename</title>
<path fill="none" stroke="grey" d="M1064,-77.6171C1147.6,-64.1973 1277.16,-42.8513 1299.25,-36 1301.39,-35.3363 1303.56,-34.5764 1305.74,-33.7543"/>
<polygon fill="grey" stroke="grey" points="1307.21,-36.9317 1315.1,-29.8575 1304.52,-30.4692 1307.21,-36.9317"/>
</g>
<!-- test4&#45;&gt;b -->
<g id="edge18" class="edge"><title>test4&#45;&gt;b</title>
<path fill="none" stroke="grey" d="M1622.02,-216.055C1617.99,-207.767 1613.06,-197.618 1608.6,-188.424"/>
<polygon fill="grey" stroke="grey" points="1611.69,-186.773 1604.17,-179.307 1605.39,-189.831 1611.69,-186.773"/>
</g>
<!-- test3&#45;&gt;_alternation_1_of_production_1_of_rule_test3 -->
<g id="edge20" class="edge"><title>test3&#45;&gt;_alternation_1_of_production_1_of_rule_test3</title>
<path fill="none" stroke="grey" d="M1032.9,-215.697C1026.49,-207.389 1018.69,-197.277 1011.64,-188.141"/>
<polygon fill="grey" stroke="grey" points="1014.32,-185.884 1005.44,-180.104 1008.78,-190.16 1014.32,-185.884"/>
</g>
<!-- test5&#45;&gt;name -->
<g id="edge29" class="edge"><title>test5&#45;&gt;name</title>
<path fill="none" stroke="grey" d="M1864.99,-216.588C1848.14,-206.058 1826.23,-192.366 1808.78,-181.458"/>
<polygon fill="grey" stroke="grey" points="1810.44,-178.371 1800.11,-176.039 1806.73,-184.307 1810.44,-178.371"/>
</g>
<!-- test5&#45;&gt;notname -->
<g id="edge30" class="edge"><title>test5&#45;&gt;notname</title>
<path fill="none" stroke="grey" d="M1905.77,-216.055C1913.14,-207.457 1922.23,-196.857 1930.34,-187.397"/>
<polygon fill="grey" stroke="grey" points="1933.01,-189.659 1936.86,-179.789 1927.69,-185.104 1933.01,-189.659"/>
</g>
</g>
</svg>
