<?xml version="1.0" encoding="UTF-8" standalone="no"?>
<!DOCTYPE svg PUBLIC "-//W3C//DTD SVG 1.1//EN"
 "http://www.w3.org/Graphics/SVG/1.1/DTD/svg11.dtd">
<!-- Generated by graphviz version 2.34.0 (20131125.0033)
 -->
<!-- Title: Perl Pages: 1 -->
<svg width="3971pt" height="332pt"
 viewBox="0.00 0.00 3971.00 332.00" xmlns="http://www.w3.org/2000/svg" xmlns:xlink="http://www.w3.org/1999/xlink">
<g id="graph0" class="graph" transform="scale(1 1) rotate(0) translate(4 328)">
<title>Perl</title>
<polygon fill="white" stroke="white" points="-4,4 -4,-328 3967,-328 3967,4 -4,4"/>
<!-- Grammar -->
<g id="node1" class="node"><title>Grammar</title>
<ellipse fill="none" stroke="blue" cx="1882" cy="-306" rx="45.244" ry="18"/>
<text text-anchor="middle" x="1882" y="-302.3" font-family="Times,serif" font-size="14.00">Grammar</text>
</g>
<!-- id -->
<g id="node2" class="node"><title>id</title>
<ellipse fill="none" stroke="blue" cx="534" cy="-18" rx="533.879" ry="18"/>
<text text-anchor="middle" x="534" y="-14.3" font-family="Times,serif" font-size="14.00">/[a&#45;z]		# LEADING ALPHABETIC\n		 &#160;\w*		# FOLLOWED BY ALPHAS, DIGITS, OR UNDERSCORES\n		 /ix &#160;</text>
</g>
<!-- Grammar&#45;&gt;id -->
<g id="edge1" class="edge"><title>Grammar&#45;&gt;id</title>
<path fill="none" stroke="grey" d="M1836.67,-304.839C1609.57,-303.827 604.521,-296.823 557,-252 500.526,-198.732 515.515,-95.2621 526.77,-46.143"/>
<polygon fill="grey" stroke="grey" points="530.214,-46.7919 529.157,-36.2499 523.409,-45.1497 530.214,-46.7919"/>
</g>
<!-- test3 -->
<g id="node3" class="node"><title>test3</title>
<ellipse fill="none" stroke="blue" cx="786" cy="-234" rx="204.123" ry="18"/>
<text text-anchor="middle" x="786" y="-230.3" font-family="Times,serif" font-size="14.00">_alternation_1_of_production_1_of_rule_test3(5..10) &#160;</text>
</g>
<!-- Grammar&#45;&gt;test3 -->
<g id="edge3" class="edge"><title>Grammar&#45;&gt;test3</title>
<path fill="none" stroke="grey" d="M1837.21,-302.574C1707.95,-295.514 1323.16,-274.076 1004,-252 983.648,-250.592 962.234,-249.026 941.101,-247.431"/>
<polygon fill="grey" stroke="grey" points="941.323,-243.938 931.087,-246.671 940.794,-250.918 941.323,-243.938"/>
</g>
<!-- _alternation_1_of_production_1_of_rule_test3 -->
<g id="node4" class="node"><title>_alternation_1_of_production_1_of_rule_test3</title>
<ellipse fill="none" stroke="blue" cx="933" cy="-162" rx="78.9404" ry="18"/>
<text text-anchor="middle" x="933" y="-158.3" font-family="Times,serif" font-size="14.00">defn &#160;typedef &#160;fail &#160;</text>
</g>
<!-- Grammar&#45;&gt;_alternation_1_of_production_1_of_rule_test3 -->
<g id="edge35" class="edge"><title>Grammar&#45;&gt;_alternation_1_of_production_1_of_rule_test3</title>
<path fill="none" stroke="grey" d="M1836.86,-303.796C1673.09,-299.203 1115.96,-281.54 1042,-252 1018.85,-242.755 1018.27,-231.804 999,-216 986.93,-206.103 973.513,-195.294 961.946,-186.034"/>
<polygon fill="grey" stroke="grey" points="963.893,-183.11 953.896,-179.601 959.523,-188.578 963.893,-183.11"/>
</g>
<!-- is -->
<g id="node5" class="node"><title>is</title>
<ellipse fill="none" stroke="blue" cx="1292" cy="-162" rx="42.3456" ry="18"/>
<text text-anchor="middle" x="1292" y="-158.3" font-family="Times,serif" font-size="14.00">&#39;is&#39; &#160;&#39;are&#39; &#160;</text>
</g>
<!-- Grammar&#45;&gt;is -->
<g id="edge4" class="edge"><title>Grammar&#45;&gt;is</title>
<path fill="none" stroke="grey" d="M1836.74,-305.015C1689.79,-304.599 1232.97,-299.467 1189,-252 1178.13,-240.263 1180.67,-229.659 1189,-216 1201.49,-195.529 1224.69,-182.63 1245.91,-174.69"/>
<polygon fill="grey" stroke="grey" points="1247.17,-177.958 1255.48,-171.381 1244.89,-171.342 1247.17,-177.958"/>
</g>
<!-- name -->
<g id="node6" class="node"><title>name</title>
<ellipse fill="none" stroke="blue" cx="1831" cy="-162" rx="32.2457" ry="18"/>
<text text-anchor="middle" x="1831" y="-158.3" font-family="Times,serif" font-size="14.00">&#39;fred&#39; &#160;</text>
</g>
<!-- Grammar&#45;&gt;name -->
<g id="edge5" class="edge"><title>Grammar&#45;&gt;name</title>
<path fill="none" stroke="grey" d="M1865.7,-288.85C1856.84,-279.05 1846.59,-265.8 1841,-252 1833.03,-232.338 1830.71,-208.35 1830.29,-190.235"/>
<polygon fill="grey" stroke="grey" points="1833.79,-190.046 1830.23,-180.065 1826.79,-190.085 1833.79,-190.046"/>
</g>
<!-- test5 -->
<g id="node7" class="node"><title>test5</title>
<ellipse fill="none" stroke="blue" cx="1943" cy="-234" rx="92.413" ry="18"/>
<text text-anchor="middle" x="1943" y="-230.3" font-family="Times,serif" font-size="14.00">name notname &#160;name &#160;</text>
</g>
<!-- Grammar&#45;&gt;test5 -->
<g id="edge8" class="edge"><title>Grammar&#45;&gt;test5</title>
<path fill="none" stroke="grey" d="M1896.15,-288.765C1903.63,-280.182 1912.97,-269.462 1921.34,-259.858"/>
<polygon fill="grey" stroke="grey" points="1924.15,-261.962 1928.08,-252.124 1918.87,-257.364 1924.15,-261.962"/>
</g>
<!-- notname -->
<g id="node8" class="node"><title>notname</title>
<ellipse fill="none" stroke="blue" cx="2003" cy="-162" rx="52.4675" ry="18"/>
<text text-anchor="middle" x="2003" y="-158.3" font-family="Times,serif" font-size="14.00">/[a&#45;z]\w*/i &#160;</text>
</g>
<!-- Grammar&#45;&gt;notname -->
<g id="edge17" class="edge"><title>Grammar&#45;&gt;notname</title>
<path fill="none" stroke="grey" d="M1927.04,-303.932C1965.09,-300.35 2017.51,-288.536 2044,-252 2058.68,-231.753 2042.98,-205.413 2026.95,-186.653"/>
<polygon fill="grey" stroke="grey" points="2029.45,-184.195 2020.15,-179.117 2024.25,-188.886 2029.45,-184.195"/>
</g>
<!-- _alternation_1_of_production_1_of_rule_test1 -->
<g id="node9" class="node"><title>_alternation_1_of_production_1_of_rule_test1</title>
<ellipse fill="none" stroke="blue" cx="1607" cy="-162" rx="34.1708" ry="18"/>
<text text-anchor="middle" x="1607" y="-158.3" font-family="Times,serif" font-size="14.00">&#39;easy&#39; &#160;</text>
</g>
<!-- Grammar&#45;&gt;_alternation_1_of_production_1_of_rule_test1 -->
<g id="edge9" class="edge"><title>Grammar&#45;&gt;_alternation_1_of_production_1_of_rule_test1</title>
<path fill="none" stroke="grey" d="M1865.01,-289.176C1843.27,-269.657 1803.79,-236.542 1765,-216 1727.11,-195.939 1680.15,-181.345 1647.32,-172.61"/>
<polygon fill="grey" stroke="grey" points="1648.16,-169.214 1637.6,-170.088 1646.4,-175.989 1648.16,-169.214"/>
</g>
<!-- test6 -->
<g id="node10" class="node"><title>test6</title>
<ellipse fill="none" stroke="blue" cx="2464" cy="-234" rx="372.125" ry="18"/>
<text text-anchor="middle" x="2464" y="-230.3" font-family="Times,serif" font-size="14.00">&lt;rulevar: $test6 = 1&gt; &#160;&#39;a&#39; &lt;commit&gt; &#39;b&#39; &lt;uncommit&gt; &#39;c&#39; &lt;reject: $test6 &amp;&amp; $text&gt; &#160;&lt;uncommit&gt; &#160;&#39;a&#39; &#160;</text>
</g>
<!-- Grammar&#45;&gt;test6 -->
<g id="edge10" class="edge"><title>Grammar&#45;&gt;test6</title>
<path fill="none" stroke="grey" d="M1924.8,-299.853C2007.37,-289.921 2192,-267.714 2322.12,-252.064"/>
<polygon fill="grey" stroke="grey" points="2322.67,-255.524 2332.18,-250.855 2321.83,-248.574 2322.67,-255.524"/>
</g>
<!-- a -->
<g id="node11" class="node"><title>a</title>
<ellipse fill="none" stroke="blue" cx="2881" cy="-234" rx="27" ry="18"/>
<text text-anchor="middle" x="2881" y="-230.3" font-family="Times,serif" font-size="14.00">&#39;a&#39; &#160;</text>
</g>
<!-- Grammar&#45;&gt;a -->
<g id="edge11" class="edge"><title>Grammar&#45;&gt;a</title>
<path fill="none" stroke="grey" d="M1927.38,-304.807C2093.49,-303.746 2667.98,-296.84 2845,-252 2847.18,-251.448 2849.38,-250.763 2851.57,-249.986"/>
<polygon fill="grey" stroke="grey" points="2853.03,-253.171 2860.95,-246.132 2850.37,-246.696 2853.03,-253.171"/>
</g>
<!-- test7 -->
<g id="node12" class="node"><title>test7</title>
<ellipse fill="none" stroke="blue" cx="3002" cy="-234" rx="76.0649" ry="18"/>
<text text-anchor="middle" x="3002" y="-230.3" font-family="Times,serif" font-size="14.00">&#39;x&#39; &lt;resync&gt; /y+/ &#160;</text>
</g>
<!-- Grammar&#45;&gt;test7 -->
<g id="edge12" class="edge"><title>Grammar&#45;&gt;test7</title>
<path fill="none" stroke="grey" d="M1927.35,-305.038C2072.2,-304.656 2536.5,-299.534 2917,-252 2924.08,-251.115 2931.46,-249.974 2938.78,-248.703"/>
<polygon fill="grey" stroke="grey" points="2939.48,-252.134 2948.69,-246.9 2938.23,-245.247 2939.48,-252.134"/>
</g>
<!-- the -->
<g id="node13" class="node"><title>the</title>
<ellipse fill="none" stroke="blue" cx="3125" cy="-234" rx="29.3722" ry="18"/>
<text text-anchor="middle" x="3125" y="-230.3" font-family="Times,serif" font-size="14.00">&#39;the&#39; &#160;</text>
</g>
<!-- Grammar&#45;&gt;the -->
<g id="edge13" class="edge"><title>Grammar&#45;&gt;the</title>
<path fill="none" stroke="grey" d="M1927.5,-305.273C2119.07,-306.072 2860.55,-305.573 3087,-252 3089.31,-251.452 3091.66,-250.765 3094,-249.982"/>
<polygon fill="grey" stroke="grey" points="3095.33,-253.219 3103.39,-246.345 3092.8,-246.691 3095.33,-253.219"/>
</g>
<!-- typedef -->
<g id="node14" class="node"><title>typedef</title>
<ellipse fill="none" stroke="blue" cx="933" cy="-90" rx="98.1881" ry="18"/>
<text text-anchor="middle" x="933" y="-86.3" font-family="Times,serif" font-size="14.00">&#39;type&#39; id &#39;is&#39; typename &#39;;&#39; &#160;</text>
</g>
<!-- Grammar&#45;&gt;typedef -->
<g id="edge16" class="edge"><title>Grammar&#45;&gt;typedef</title>
<path fill="none" stroke="grey" d="M1836.8,-304.372C1678.08,-301.844 1152.24,-290.604 1088,-252 1039.58,-222.905 1061.2,-183.678 1021,-144 1008.28,-131.447 992.036,-120.601 976.975,-112.049"/>
<polygon fill="grey" stroke="grey" points="978.245,-108.754 967.792,-107.025 974.885,-114.895 978.245,-108.754"/>
</g>
<!-- typename -->
<g id="node15" class="node"><title>typename</title>
<ellipse fill="none" stroke="blue" cx="1114" cy="-18" rx="27.4223" ry="18"/>
<text text-anchor="middle" x="1114" y="-14.3" font-family="Times,serif" font-size="14.00">&#39;int&#39; &#160;</text>
</g>
<!-- Grammar&#45;&gt;typename -->
<g id="edge18" class="edge"><title>Grammar&#45;&gt;typename</title>
<path fill="none" stroke="grey" d="M1836.75,-304.57C1689.24,-302.767 1228.77,-293.808 1178,-252 1146.12,-225.749 1125.42,-102.072 1117.56,-46.3437"/>
<polygon fill="grey" stroke="grey" points="1120.99,-45.5835 1116.16,-36.1531 1114.06,-46.5366 1120.99,-45.5835"/>
</g>
<!-- cat -->
<g id="node16" class="node"><title>cat</title>
<ellipse fill="none" stroke="blue" cx="3308" cy="-234" rx="135.258" ry="18"/>
<text text-anchor="middle" x="3308" y="-230.3" font-family="Times,serif" font-size="14.00">&lt;reject: $arg[0] ne &#39;meows&#39;&gt; &#39;cat&#39; &#160;&#160;</text>
</g>
<!-- Grammar&#45;&gt;cat -->
<g id="edge19" class="edge"><title>Grammar&#45;&gt;cat</title>
<path fill="none" stroke="grey" d="M1927.17,-304.362C2092.49,-301.767 2680.11,-290.242 3163,-252 3176.32,-250.945 3190.3,-249.604 3204.1,-248.14"/>
<polygon fill="grey" stroke="grey" points="3204.55,-251.612 3214.11,-247.054 3203.79,-244.653 3204.55,-251.612"/>
</g>
<!-- fail -->
<g id="node17" class="node"><title>fail</title>
<ellipse fill="none" stroke="blue" cx="1077" cy="-90" rx="27" ry="18"/>
<text text-anchor="middle" x="1077" y="-86.3" font-family="Times,serif" font-size="14.00"> </text>
</g>
<!-- Grammar&#45;&gt;fail -->
<g id="edge20" class="edge"><title>Grammar&#45;&gt;fail</title>
<path fill="none" stroke="grey" d="M1836.72,-304.895C1680.89,-304.127 1173.22,-298.077 1118,-252 1078.96,-219.428 1074.25,-155.383 1075.09,-118.647"/>
<polygon fill="grey" stroke="grey" points="1078.61,-118.318 1075.5,-108.188 1071.61,-118.043 1078.61,-118.318"/>
</g>
<!-- dog -->
<g id="node18" class="node"><title>dog</title>
<ellipse fill="none" stroke="blue" cx="3494" cy="-234" rx="31.2735" ry="18"/>
<text text-anchor="middle" x="3494" y="-230.3" font-family="Times,serif" font-size="14.00">&#39;dog&#39; &#160;</text>
</g>
<!-- Grammar&#45;&gt;dog -->
<g id="edge21" class="edge"><title>Grammar&#45;&gt;dog</title>
<path fill="none" stroke="grey" d="M1927.18,-304.417C2168.45,-301.175 3299.6,-284.351 3452,-252 3454.98,-251.367 3458.02,-250.536 3461.04,-249.582"/>
<polygon fill="grey" stroke="grey" points="3462.24,-252.871 3470.47,-246.204 3459.88,-246.28 3462.24,-252.871"/>
</g>
<!-- b -->
<g id="node19" class="node"><title>b</title>
<ellipse fill="none" stroke="blue" cx="3588" cy="-162" rx="27" ry="18"/>
<text text-anchor="middle" x="3588" y="-158.3" font-family="Times,serif" font-size="14.00">&#39;b&#39; &#160;</text>
</g>
<!-- Grammar&#45;&gt;b -->
<g id="edge22" class="edge"><title>Grammar&#45;&gt;b</title>
<path fill="none" stroke="grey" d="M1927.46,-304.759C2186.05,-303.235 3462.77,-293.617 3534,-252 3557.2,-238.445 3571.67,-210.617 3579.72,-189.666"/>
<polygon fill="grey" stroke="grey" points="3583.09,-190.621 3583.17,-180.026 3576.5,-188.263 3583.09,-190.621"/>
</g>
<!-- test4 -->
<g id="node20" class="node"><title>test4</title>
<ellipse fill="none" stroke="blue" cx="3622" cy="-234" rx="39.9464" ry="18"/>
<text text-anchor="middle" x="3622" y="-230.3" font-family="Times,serif" font-size="14.00">&#39;a&#39; b /c/ &#160;</text>
</g>
<!-- Grammar&#45;&gt;test4 -->
<g id="edge24" class="edge"><title>Grammar&#45;&gt;test4</title>
<path fill="none" stroke="grey" d="M1927.44,-305.248C2162.19,-306.272 3239.4,-307.8 3568,-252 3572.72,-251.199 3577.59,-250.088 3582.4,-248.813"/>
<polygon fill="grey" stroke="grey" points="3583.45,-252.153 3592.08,-246.015 3581.51,-245.428 3583.45,-252.153"/>
</g>
<!-- test1 -->
<g id="node21" class="node"><title>test1</title>
<ellipse fill="none" stroke="blue" cx="1477" cy="-234" rx="279.213" ry="18"/>
<text text-anchor="middle" x="1477" y="-230.3" font-family="Times,serif" font-size="14.00">&#39;(&#39; &#39;the&#39; &#39;$::first&#39; /te+st/ is _alternation_1_of_production_1_of_rule_test1(s?) &#160;</text>
</g>
<!-- Grammar&#45;&gt;test1 -->
<g id="edge27" class="edge"><title>Grammar&#45;&gt;test1</title>
<path fill="none" stroke="grey" d="M1841.31,-297.968C1780.63,-287.479 1664.47,-267.402 1579.58,-252.729"/>
<polygon fill="grey" stroke="grey" points="1580.09,-249.267 1569.64,-251.013 1578.9,-256.165 1580.09,-249.267"/>
</g>
<!-- test2 -->
<g id="node22" class="node"><title>test2</title>
<ellipse fill="none" stroke="blue" cx="3822" cy="-234" rx="141.531" ry="18"/>
<text text-anchor="middle" x="3822" y="-230.3" font-family="Times,serif" font-size="14.00">$arg{article} $arg[3][$arg{sound}] &#160;</text>
</g>
<!-- Grammar&#45;&gt;test2 -->
<g id="edge28" class="edge"><title>Grammar&#45;&gt;test2</title>
<path fill="none" stroke="grey" d="M1927.34,-305.032C2130.57,-304.886 2977.88,-301.199 3671,-252 3685.22,-250.991 3700.16,-249.65 3714.89,-248.163"/>
<polygon fill="grey" stroke="grey" points="3715.45,-251.624 3725.04,-247.113 3714.73,-244.661 3715.45,-251.624"/>
</g>
<!-- defn -->
<g id="node23" class="node"><title>defn</title>
<ellipse fill="none" stroke="blue" cx="681" cy="-90" rx="108.31" ry="18"/>
<text text-anchor="middle" x="681" y="-86.3" font-family="Times,serif" font-size="14.00">&#39;var&#39; id &#39;holds&#39; typename &#39;;&#39; &#160;</text>
</g>
<!-- Grammar&#45;&gt;defn -->
<g id="edge31" class="edge"><title>Grammar&#45;&gt;defn</title>
<path fill="none" stroke="grey" d="M1836.76,-304.905C1611.26,-304.212 617.677,-298.523 573,-252 530.971,-208.235 601.696,-146.267 647.212,-113.437"/>
<polygon fill="grey" stroke="grey" points="649.241,-116.289 655.385,-107.658 645.199,-110.574 649.241,-116.289"/>
</g>
<!-- test3&#45;&gt;_alternation_1_of_production_1_of_rule_test3 -->
<g id="edge2" class="edge"><title>test3&#45;&gt;_alternation_1_of_production_1_of_rule_test3</title>
<path fill="none" stroke="grey" d="M821.21,-216.233C842.317,-206.182 869.27,-193.348 891.421,-182.799"/>
<polygon fill="grey" stroke="grey" points="893.066,-185.893 900.59,-178.434 890.056,-179.573 893.066,-185.893"/>
</g>
<!-- _alternation_1_of_production_1_of_rule_test3&#45;&gt;typedef -->
<g id="edge33" class="edge"><title>_alternation_1_of_production_1_of_rule_test3&#45;&gt;typedef</title>
<path fill="none" stroke="grey" d="M933,-143.697C933,-135.983 933,-126.712 933,-118.112"/>
<polygon fill="grey" stroke="grey" points="936.5,-118.104 933,-108.104 929.5,-118.104 936.5,-118.104"/>
</g>
<!-- _alternation_1_of_production_1_of_rule_test3&#45;&gt;fail -->
<g id="edge34" class="edge"><title>_alternation_1_of_production_1_of_rule_test3&#45;&gt;fail</title>
<path fill="none" stroke="grey" d="M964.958,-145.465C989.39,-133.588 1022.84,-117.327 1046.82,-105.671"/>
<polygon fill="grey" stroke="grey" points="1048.36,-108.813 1055.82,-101.293 1045.3,-102.518 1048.36,-108.813"/>
</g>
<!-- _alternation_1_of_production_1_of_rule_test3&#45;&gt;defn -->
<g id="edge32" class="edge"><title>_alternation_1_of_production_1_of_rule_test3&#45;&gt;defn</title>
<path fill="none" stroke="grey" d="M885.008,-147.669C844.913,-136.531 787.445,-120.568 743.714,-108.421"/>
<polygon fill="grey" stroke="grey" points="744.613,-105.038 734.041,-105.734 742.739,-111.782 744.613,-105.038"/>
</g>
<!-- test5&#45;&gt;name -->
<g id="edge6" class="edge"><title>test5&#45;&gt;name</title>
<path fill="none" stroke="grey" d="M1916.74,-216.588C1899.89,-206.058 1877.99,-192.366 1860.53,-181.458"/>
<polygon fill="grey" stroke="grey" points="1862.2,-178.371 1851.86,-176.039 1858.49,-184.307 1862.2,-178.371"/>
</g>
<!-- test5&#45;&gt;notname -->
<g id="edge7" class="edge"><title>test5&#45;&gt;notname</title>
<path fill="none" stroke="grey" d="M1957.52,-216.055C1964.89,-207.457 1973.98,-196.857 1982.09,-187.397"/>
<polygon fill="grey" stroke="grey" points="1984.76,-189.659 1988.61,-179.789 1979.44,-185.104 1984.76,-189.659"/>
</g>
<!-- typedef&#45;&gt;id -->
<g id="edge14" class="edge"><title>typedef&#45;&gt;id</title>
<path fill="none" stroke="grey" d="M864.409,-76.9666C802.484,-66.1024 710.429,-49.9524 639.202,-37.4565"/>
<polygon fill="grey" stroke="grey" points="639.749,-33.9992 629.295,-35.7184 638.54,-40.8939 639.749,-33.9992"/>
</g>
<!-- typedef&#45;&gt;typename -->
<g id="edge15" class="edge"><title>typedef&#45;&gt;typename</title>
<path fill="none" stroke="grey" d="M976.822,-73.8728C1005.53,-63.7168 1043.76,-49.7287 1077,-36 1078.86,-35.2309 1080.77,-34.4223 1082.69,-33.5927"/>
<polygon fill="grey" stroke="grey" points="1084.5,-36.6166 1092.21,-29.3529 1081.65,-30.2214 1084.5,-36.6166"/>
</g>
<!-- test4&#45;&gt;b -->
<g id="edge23" class="edge"><title>test4&#45;&gt;b</title>
<path fill="none" stroke="grey" d="M3613.77,-216.055C3609.74,-207.767 3604.81,-197.618 3600.35,-188.424"/>
<polygon fill="grey" stroke="grey" points="3603.44,-186.773 3595.92,-179.307 3597.14,-189.831 3603.44,-186.773"/>
</g>
<!-- test1&#45;&gt;is -->
<g id="edge25" class="edge"><title>test1&#45;&gt;is</title>
<path fill="none" stroke="grey" d="M1432.22,-216.055C1401.66,-204.495 1361.55,-189.316 1332.06,-178.156"/>
<polygon fill="grey" stroke="grey" points="1333.08,-174.802 1322.49,-174.537 1330.6,-181.349 1333.08,-174.802"/>
</g>
<!-- test1&#45;&gt;_alternation_1_of_production_1_of_rule_test1 -->
<g id="edge26" class="edge"><title>test1&#45;&gt;_alternation_1_of_production_1_of_rule_test1</title>
<path fill="none" stroke="grey" d="M1508.47,-216.055C1528.67,-205.178 1554.82,-191.096 1575.1,-180.174"/>
<polygon fill="grey" stroke="grey" points="1576.82,-183.224 1583.97,-175.401 1573.51,-177.061 1576.82,-183.224"/>
</g>
<!-- defn&#45;&gt;id -->
<g id="edge29" class="edge"><title>defn&#45;&gt;id</title>
<path fill="none" stroke="grey" d="M646.906,-72.7646C626.646,-63.1169 600.714,-50.7685 578.813,-40.3395"/>
<polygon fill="grey" stroke="grey" points="580.235,-37.1403 569.702,-36.0009 577.226,-43.4603 580.235,-37.1403"/>
</g>
<!-- defn&#45;&gt;typename -->
<g id="edge30" class="edge"><title>defn&#45;&gt;typename</title>
<path fill="none" stroke="grey" d="M766.553,-78.9197C874.001,-66.0466 1047.89,-44.4288 1077,-36 1079.29,-35.3364 1081.62,-34.5522 1083.94,-33.6909"/>
<polygon fill="grey" stroke="grey" points="1085.38,-36.8831 1093.28,-29.8266 1082.71,-30.4146 1085.38,-36.8831"/>
</g>
</g>
</svg>
