<?xml version="1.0" encoding="UTF-8" standalone="no"?>
<!DOCTYPE svg PUBLIC "-//W3C//DTD SVG 1.1//EN"
 "http://www.w3.org/Graphics/SVG/1.1/DTD/svg11.dtd">
<!-- Generated by graphviz version 2.38.0 (20140413.2041)
 -->
<!-- Title: Perl Pages: 1 -->
<svg width="3471pt" height="332pt"
 viewBox="0.00 0.00 3471.20 332.00" xmlns="http://www.w3.org/2000/svg" xmlns:xlink="http://www.w3.org/1999/xlink">
<g id="graph0" class="graph" transform="scale(1 1) rotate(0) translate(4 328)">
<title>Perl</title>
<polygon fill="white" stroke="none" points="-4,4 -4,-328 3467.2,-328 3467.2,4 -4,4"/>
<!-- Grammar -->
<g id="node1" class="node"><title>Grammar</title>
<ellipse fill="none" stroke="blue" cx="1295" cy="-306" rx="46.5926" ry="18"/>
<text text-anchor="middle" x="1295" y="-302.3" font-family="Times,serif" font-size="14.00">Grammar</text>
</g>
<!-- test4 -->
<g id="node2" class="node"><title>test4</title>
<ellipse fill="none" stroke="blue" cx="61" cy="-234" rx="39.7935" ry="18"/>
<text text-anchor="middle" x="61" y="-230.3" font-family="Times,serif" font-size="14.00">&#39;a&#39; b /c/ &#160;</text>
</g>
<!-- Grammar&#45;&gt;test4 -->
<g id="edge2" class="edge"><title>Grammar&#45;&gt;test4</title>
<path fill="none" stroke="grey" d="M1248.07,-304.749C1056.45,-303.44 332.921,-295.65 109,-252 105.789,-251.374 102.504,-250.574 99.233,-249.663"/>
<polygon fill="grey" stroke="grey" points="100.138,-246.28 89.5501,-246.662 98.0655,-252.966 100.138,-246.28"/>
</g>
<!-- b -->
<g id="node3" class="node"><title>b</title>
<ellipse fill="none" stroke="blue" cx="27" cy="-162" rx="27" ry="18"/>
<text text-anchor="middle" x="27" y="-158.3" font-family="Times,serif" font-size="14.00">&#39;b&#39; &#160;</text>
</g>
<!-- Grammar&#45;&gt;b -->
<g id="edge34" class="edge"><title>Grammar&#45;&gt;b</title>
<path fill="none" stroke="grey" d="M1248.07,-304.859C1022.14,-303.957 55.6039,-297.442 12,-252 -4.12912,-235.191 3.53476,-207.888 12.796,-187.95"/>
<polygon fill="grey" stroke="grey" points="16.0148,-189.339 17.3734,-178.832 9.75888,-186.199 16.0148,-189.339"/>
</g>
<!-- cat -->
<g id="node4" class="node"><title>cat</title>
<ellipse fill="none" stroke="blue" cx="254" cy="-234" rx="135.676" ry="18"/>
<text text-anchor="middle" x="254" y="-230.3" font-family="Times,serif" font-size="14.00">&lt;reject: $arg[0] ne &#39;meows&#39;&gt; &#39;cat&#39; &#160;&#160;</text>
</g>
<!-- Grammar&#45;&gt;cat -->
<g id="edge3" class="edge"><title>Grammar&#45;&gt;cat</title>
<path fill="none" stroke="grey" d="M1248.77,-303.207C1116.26,-297.864 723.81,-280.623 399,-252 386.123,-250.865 372.623,-249.508 359.257,-248.062"/>
<polygon fill="grey" stroke="grey" points="359.399,-244.556 349.076,-246.941 358.633,-251.514 359.399,-244.556"/>
</g>
<!-- test7 -->
<g id="node5" class="node"><title>test7</title>
<ellipse fill="none" stroke="blue" cx="483" cy="-234" rx="74.9875" ry="18"/>
<text text-anchor="middle" x="483" y="-230.3" font-family="Times,serif" font-size="14.00">&#39;x&#39; &lt;resync&gt; /y+/ &#160;</text>
</g>
<!-- Grammar&#45;&gt;test7 -->
<g id="edge4" class="edge"><title>Grammar&#45;&gt;test7</title>
<path fill="none" stroke="grey" d="M1248.29,-303.447C1133.01,-299.208 825.927,-285.445 572,-252 564.017,-250.949 555.668,-249.638 547.419,-248.214"/>
<polygon fill="grey" stroke="grey" points="547.897,-244.744 537.437,-246.43 546.665,-251.635 547.897,-244.744"/>
</g>
<!-- id -->
<g id="node6" class="node"><title>id</title>
<ellipse fill="none" stroke="blue" cx="620" cy="-18" rx="509.61" ry="18"/>
<text text-anchor="middle" x="620" y="-14.3" font-family="Times,serif" font-size="14.00">/[a&#45;z]		# LEADING ALPHABETIC\n		 &#160;\w*		# FOLLOWED BY ALPHAS, DIGITS, OR UNDERSCORES\n		 /ix &#160;</text>
</g>
<!-- Grammar&#45;&gt;id -->
<g id="edge5" class="edge"><title>Grammar&#45;&gt;id</title>
<path fill="none" stroke="grey" d="M1248.15,-304.812C1103.28,-303.755 669.69,-296.841 627,-252 573.836,-196.157 595.926,-94.3826 610.705,-45.9725"/>
<polygon fill="grey" stroke="grey" points="614.112,-46.8078 613.808,-36.2173 607.441,-44.6862 614.112,-46.8078"/>
</g>
<!-- test3 -->
<g id="node7" class="node"><title>test3</title>
<ellipse fill="none" stroke="blue" cx="860" cy="-234" rx="207.963" ry="18"/>
<text text-anchor="middle" x="860" y="-230.3" font-family="Times,serif" font-size="14.00">_alternation_1_of_production_1_of_rule_test3(5..10) &#160;</text>
</g>
<!-- Grammar&#45;&gt;test3 -->
<g id="edge7" class="edge"><title>Grammar&#45;&gt;test3</title>
<path fill="none" stroke="grey" d="M1252.5,-298.161C1186.18,-287.489 1056.15,-266.565 963.953,-251.728"/>
<polygon fill="grey" stroke="grey" points="964.459,-248.264 954.03,-250.131 963.347,-255.176 964.459,-248.264"/>
</g>
<!-- _alternation_1_of_production_1_of_rule_test3 -->
<g id="node8" class="node"><title>_alternation_1_of_production_1_of_rule_test3</title>
<ellipse fill="none" stroke="blue" cx="1011" cy="-162" rx="76.8869" ry="18"/>
<text text-anchor="middle" x="1011" y="-158.3" font-family="Times,serif" font-size="14.00">defn &#160;typedef &#160;fail &#160;</text>
</g>
<!-- Grammar&#45;&gt;_alternation_1_of_production_1_of_rule_test3 -->
<g id="edge22" class="edge"><title>Grammar&#45;&gt;_alternation_1_of_production_1_of_rule_test3</title>
<path fill="none" stroke="grey" d="M1253.56,-297.381C1216.89,-289.516 1162.73,-275.095 1120,-252 1098.07,-240.148 1096.27,-231.804 1077,-216 1064.84,-206.028 1051.31,-195.13 1039.68,-185.824"/>
<polygon fill="grey" stroke="grey" points="1041.6,-182.874 1031.6,-179.365 1037.23,-188.342 1041.6,-182.874"/>
</g>
<!-- typedef -->
<g id="node9" class="node"><title>typedef</title>
<ellipse fill="none" stroke="blue" cx="1011" cy="-90" rx="98.5829" ry="18"/>
<text text-anchor="middle" x="1011" y="-86.3" font-family="Times,serif" font-size="14.00">&#39;type&#39; id &#39;is&#39; typename &#39;;&#39; &#160;</text>
</g>
<!-- Grammar&#45;&gt;typedef -->
<g id="edge10" class="edge"><title>Grammar&#45;&gt;typedef</title>
<path fill="none" stroke="grey" d="M1257.99,-294.795C1232.2,-286.358 1198.06,-272.422 1173,-252 1127.5,-214.925 1139.75,-184.22 1097,-144 1083.99,-131.759 1067.72,-120.868 1052.84,-112.191"/>
<polygon fill="grey" stroke="grey" points="1054.22,-108.954 1043.8,-107.082 1050.78,-115.049 1054.22,-108.954"/>
</g>
<!-- typename -->
<g id="node10" class="node"><title>typename</title>
<ellipse fill="none" stroke="blue" cx="1176" cy="-18" rx="28.6953" ry="18"/>
<text text-anchor="middle" x="1176" y="-14.3" font-family="Times,serif" font-size="14.00">&#39;int&#39; &#160;</text>
</g>
<!-- Grammar&#45;&gt;typename -->
<g id="edge12" class="edge"><title>Grammar&#45;&gt;typename</title>
<path fill="none" stroke="grey" d="M1269.72,-290.735C1255.61,-281.482 1238.93,-268.15 1229,-252 1186.18,-182.343 1210.59,-151.382 1191,-72 1188.88,-63.4193 1186.34,-54.1263 1183.95,-45.7538"/>
<polygon fill="grey" stroke="grey" points="1187.3,-44.7394 1181.16,-36.1074 1180.58,-46.6863 1187.3,-44.7394"/>
</g>
<!-- fail -->
<g id="node11" class="node"><title>fail</title>
<ellipse fill="none" stroke="blue" cx="1155" cy="-90" rx="27" ry="18"/>
<text text-anchor="middle" x="1155" y="-86.3" font-family="Times,serif" font-size="14.00"> </text>
</g>
<!-- Grammar&#45;&gt;fail -->
<g id="edge11" class="edge"><title>Grammar&#45;&gt;fail</title>
<path fill="none" stroke="grey" d="M1259.47,-294.19C1238.08,-285.923 1211.99,-272.415 1196,-252 1165.27,-212.758 1157.35,-153.138 1155.44,-118.529"/>
<polygon fill="grey" stroke="grey" points="1158.92,-118.075 1155.01,-108.229 1151.93,-118.366 1158.92,-118.075"/>
</g>
<!-- test2 -->
<g id="node12" class="node"><title>test2</title>
<ellipse fill="none" stroke="blue" cx="1380" cy="-234" rx="141.875" ry="18"/>
<text text-anchor="middle" x="1380" y="-230.3" font-family="Times,serif" font-size="14.00">$arg{article} $arg[3][$arg{sound}] &#160;</text>
</g>
<!-- Grammar&#45;&gt;test2 -->
<g id="edge13" class="edge"><title>Grammar&#45;&gt;test2</title>
<path fill="none" stroke="grey" d="M1313.86,-289.465C1324.94,-280.345 1339.15,-268.641 1351.56,-258.421"/>
<polygon fill="grey" stroke="grey" points="1353.91,-261.021 1359.4,-251.962 1349.46,-255.617 1353.91,-261.021"/>
</g>
<!-- test6 -->
<g id="node13" class="node"><title>test6</title>
<ellipse fill="none" stroke="blue" cx="1911" cy="-234" rx="371.534" ry="18"/>
<text text-anchor="middle" x="1911" y="-230.3" font-family="Times,serif" font-size="14.00">&lt;rulevar: $test6 = 1&gt; &#160;&#39;a&#39; &lt;commit&gt; &#39;b&#39; &lt;uncommit&gt; &#39;c&#39; &lt;reject: $test6 &amp;&amp; $text&gt; &#160;&lt;uncommit&gt; &#160;&#39;a&#39; &#160;</text>
</g>
<!-- Grammar&#45;&gt;test6 -->
<g id="edge14" class="edge"><title>Grammar&#45;&gt;test6</title>
<path fill="none" stroke="grey" d="M1339.3,-299.966C1426.5,-290.057 1623.93,-267.622 1762.25,-251.904"/>
<polygon fill="grey" stroke="grey" points="1762.98,-255.343 1772.52,-250.737 1762.19,-248.388 1762.98,-255.343"/>
</g>
<!-- a -->
<g id="node14" class="node"><title>a</title>
<ellipse fill="none" stroke="blue" cx="2328" cy="-234" rx="27" ry="18"/>
<text text-anchor="middle" x="2328" y="-230.3" font-family="Times,serif" font-size="14.00">&#39;a&#39; &#160;</text>
</g>
<!-- Grammar&#45;&gt;a -->
<g id="edge15" class="edge"><title>Grammar&#45;&gt;a</title>
<path fill="none" stroke="grey" d="M1341.98,-304.9C1513.95,-304.162 2108.7,-298.247 2292,-252 2294.18,-251.45 2296.38,-250.766 2298.57,-249.991"/>
<polygon fill="grey" stroke="grey" points="2300.03,-253.176 2307.95,-246.139 2297.37,-246.701 2300.03,-253.176"/>
</g>
<!-- test5 -->
<g id="node15" class="node"><title>test5</title>
<ellipse fill="none" stroke="blue" cx="2504" cy="-234" rx="92.8835" ry="18"/>
<text text-anchor="middle" x="2504" y="-230.3" font-family="Times,serif" font-size="14.00">name notname &#160;name &#160;</text>
</g>
<!-- Grammar&#45;&gt;test5 -->
<g id="edge18" class="edge"><title>Grammar&#45;&gt;test5</title>
<path fill="none" stroke="grey" d="M1341.86,-304.579C1494.3,-302.819 1989.74,-294.018 2397,-252 2406.89,-250.979 2417.26,-249.655 2427.49,-248.196"/>
<polygon fill="grey" stroke="grey" points="2428.27,-251.62 2437.65,-246.699 2427.25,-244.694 2428.27,-251.62"/>
</g>
<!-- name -->
<g id="node16" class="node"><title>name</title>
<ellipse fill="none" stroke="blue" cx="2392" cy="-162" rx="33.2948" ry="18"/>
<text text-anchor="middle" x="2392" y="-158.3" font-family="Times,serif" font-size="14.00">&#39;fred&#39; &#160;</text>
</g>
<!-- Grammar&#45;&gt;name -->
<g id="edge33" class="edge"><title>Grammar&#45;&gt;name</title>
<path fill="none" stroke="grey" d="M1341.67,-304.164C1542.27,-300.381 2323.01,-283.666 2364,-252 2382.67,-237.58 2389.16,-210.768 2391.28,-190.328"/>
<polygon fill="grey" stroke="grey" points="2394.78,-190.554 2392.04,-180.319 2387.8,-190.027 2394.78,-190.554"/>
</g>
<!-- notname -->
<g id="node17" class="node"><title>notname</title>
<ellipse fill="none" stroke="blue" cx="2564" cy="-162" rx="51.1914" ry="18"/>
<text text-anchor="middle" x="2564" y="-158.3" font-family="Times,serif" font-size="14.00">/[a&#45;z]\w*/i &#160;</text>
</g>
<!-- Grammar&#45;&gt;notname -->
<g id="edge24" class="edge"><title>Grammar&#45;&gt;notname</title>
<path fill="none" stroke="grey" d="M1341.81,-304.903C1570.53,-304.203 2561.35,-298.49 2606,-252 2623.87,-233.397 2606.06,-205.786 2588.43,-186.259"/>
<polygon fill="grey" stroke="grey" points="2590.93,-183.803 2581.51,-178.95 2585.85,-188.617 2590.93,-183.803"/>
</g>
<!-- defn -->
<g id="node18" class="node"><title>defn</title>
<ellipse fill="none" stroke="blue" cx="754" cy="-90" rx="109.381" ry="18"/>
<text text-anchor="middle" x="754" y="-86.3" font-family="Times,serif" font-size="14.00">&#39;var&#39; id &#39;holds&#39; typename &#39;;&#39; &#160;</text>
</g>
<!-- Grammar&#45;&gt;defn -->
<g id="edge31" class="edge"><title>Grammar&#45;&gt;defn</title>
<path fill="none" stroke="grey" d="M1248.21,-304.769C1105.65,-303.584 683.873,-296.33 643,-252 601.619,-207.119 673.128,-145.858 719.359,-113.368"/>
<polygon fill="grey" stroke="grey" points="721.415,-116.202 727.665,-107.647 717.444,-110.438 721.415,-116.202"/>
</g>
<!-- the -->
<g id="node19" class="node"><title>the</title>
<ellipse fill="none" stroke="blue" cx="2684" cy="-234" rx="30.5947" ry="18"/>
<text text-anchor="middle" x="2684" y="-230.3" font-family="Times,serif" font-size="14.00">&#39;the&#39; &#160;</text>
</g>
<!-- Grammar&#45;&gt;the -->
<g id="edge23" class="edge"><title>Grammar&#45;&gt;the</title>
<path fill="none" stroke="grey" d="M1341.77,-305.164C1548.72,-305.582 2383.12,-303.951 2639,-252 2642.74,-251.241 2646.58,-250.211 2650.36,-249.032"/>
<polygon fill="grey" stroke="grey" points="2651.83,-252.225 2660.13,-245.643 2649.54,-245.611 2651.83,-252.225"/>
</g>
<!-- _alternation_1_of_production_1_of_rule_test1 -->
<g id="node20" class="node"><title>_alternation_1_of_production_1_of_rule_test1</title>
<ellipse fill="none" stroke="blue" cx="2853" cy="-162" rx="33.5952" ry="18"/>
<text text-anchor="middle" x="2853" y="-158.3" font-family="Times,serif" font-size="14.00">&#39;easy&#39; &#160;</text>
</g>
<!-- Grammar&#45;&gt;_alternation_1_of_production_1_of_rule_test1 -->
<g id="edge25" class="edge"><title>Grammar&#45;&gt;_alternation_1_of_production_1_of_rule_test1</title>
<path fill="none" stroke="grey" d="M1342.01,-305.219C1574.37,-306.037 2594.32,-306.479 2724,-252 2745.45,-242.989 2743.38,-229.947 2762,-216 2780.32,-202.279 2802.48,-189.305 2820.35,-179.627"/>
<polygon fill="grey" stroke="grey" points="2822.08,-182.671 2829.26,-174.88 2818.78,-176.494 2822.08,-182.671"/>
</g>
<!-- test1 -->
<g id="node21" class="node"><title>test1</title>
<ellipse fill="none" stroke="blue" cx="3058" cy="-234" rx="287.049" ry="18"/>
<text text-anchor="middle" x="3058" y="-230.3" font-family="Times,serif" font-size="14.00">&#39;(&#39; &#39;the&#39; &#39;$::first&#39; /te+st/ is _alternation_1_of_production_1_of_rule_test1(s?) &#160;</text>
</g>
<!-- Grammar&#45;&gt;test1 -->
<g id="edge28" class="edge"><title>Grammar&#45;&gt;test1</title>
<path fill="none" stroke="grey" d="M1341.41,-303.659C1522.6,-298.35 2199.78,-277.833 2757,-252 2786.12,-250.65 2816.82,-249.082 2847.04,-247.456"/>
<polygon fill="grey" stroke="grey" points="2847.47,-250.938 2857.26,-246.902 2847.09,-243.948 2847.47,-250.938"/>
</g>
<!-- is -->
<g id="node22" class="node"><title>is</title>
<ellipse fill="none" stroke="blue" cx="3215" cy="-162" rx="43.5923" ry="18"/>
<text text-anchor="middle" x="3215" y="-158.3" font-family="Times,serif" font-size="14.00">&#39;is&#39; &#160;&#39;are&#39; &#160;</text>
</g>
<!-- Grammar&#45;&gt;is -->
<g id="edge35" class="edge"><title>Grammar&#45;&gt;is</title>
<path fill="none" stroke="grey" d="M1341.97,-304.69C1645.42,-302.577 3317.69,-289.252 3354,-252 3365.17,-240.542 3363.08,-229.176 3354,-216 3334.65,-187.911 3298.27,-174.698 3267.58,-168.488"/>
<polygon fill="grey" stroke="grey" points="3267.89,-164.987 3257.42,-166.639 3266.64,-171.874 3267.89,-164.987"/>
</g>
<!-- dog -->
<g id="node23" class="node"><title>dog</title>
<ellipse fill="none" stroke="blue" cx="3432" cy="-234" rx="31.3957" ry="18"/>
<text text-anchor="middle" x="3432" y="-230.3" font-family="Times,serif" font-size="14.00">&#39;dog&#39; &#160;</text>
</g>
<!-- Grammar&#45;&gt;dog -->
<g id="edge32" class="edge"><title>Grammar&#45;&gt;dog</title>
<path fill="none" stroke="grey" d="M1341.73,-304.754C1631.76,-303.105 3180.31,-292.45 3387,-252 3390.74,-251.267 3394.59,-250.254 3398.37,-249.085"/>
<polygon fill="grey" stroke="grey" points="3399.84,-252.281 3408.15,-245.709 3397.55,-245.664 3399.84,-252.281"/>
</g>
<!-- test4&#45;&gt;b -->
<g id="edge1" class="edge"><title>test4&#45;&gt;b</title>
<path fill="none" stroke="grey" d="M52.7695,-216.055C48.7437,-207.767 43.8144,-197.618 39.3489,-188.424"/>
<polygon fill="grey" stroke="grey" points="42.4379,-186.773 34.9205,-179.307 36.1414,-189.831 42.4379,-186.773"/>
</g>
<!-- test3&#45;&gt;_alternation_1_of_production_1_of_rule_test3 -->
<g id="edge6" class="edge"><title>test3&#45;&gt;_alternation_1_of_production_1_of_rule_test3</title>
<path fill="none" stroke="grey" d="M896.168,-216.233C918.023,-206.102 945.979,-193.142 968.835,-182.547"/>
<polygon fill="grey" stroke="grey" points="970.362,-185.697 977.962,-178.315 967.418,-179.346 970.362,-185.697"/>
</g>
<!-- _alternation_1_of_production_1_of_rule_test3&#45;&gt;typedef -->
<g id="edge20" class="edge"><title>_alternation_1_of_production_1_of_rule_test3&#45;&gt;typedef</title>
<path fill="none" stroke="grey" d="M1011,-143.697C1011,-135.983 1011,-126.712 1011,-118.112"/>
<polygon fill="grey" stroke="grey" points="1014.5,-118.104 1011,-108.104 1007.5,-118.104 1014.5,-118.104"/>
</g>
<!-- _alternation_1_of_production_1_of_rule_test3&#45;&gt;fail -->
<g id="edge21" class="edge"><title>_alternation_1_of_production_1_of_rule_test3&#45;&gt;fail</title>
<path fill="none" stroke="grey" d="M1042.96,-145.465C1067.39,-133.588 1100.84,-117.327 1124.82,-105.671"/>
<polygon fill="grey" stroke="grey" points="1126.36,-108.813 1133.82,-101.293 1123.3,-102.518 1126.36,-108.813"/>
</g>
<!-- _alternation_1_of_production_1_of_rule_test3&#45;&gt;defn -->
<g id="edge19" class="edge"><title>_alternation_1_of_production_1_of_rule_test3&#45;&gt;defn</title>
<path fill="none" stroke="grey" d="M962.962,-147.916C921.95,-136.745 862.642,-120.591 817.678,-108.344"/>
<polygon fill="grey" stroke="grey" points="818.594,-104.966 808.026,-105.715 816.754,-111.72 818.594,-104.966"/>
</g>
<!-- typedef&#45;&gt;id -->
<g id="edge8" class="edge"><title>typedef&#45;&gt;id</title>
<path fill="none" stroke="grey" d="M942.893,-76.8069C882.312,-65.9612 792.824,-49.9403 723.41,-37.5133"/>
<polygon fill="grey" stroke="grey" points="723.781,-34.0241 713.32,-35.707 722.547,-40.9145 723.781,-34.0241"/>
</g>
<!-- typedef&#45;&gt;typename -->
<g id="edge9" class="edge"><title>typedef&#45;&gt;typename</title>
<path fill="none" stroke="grey" d="M1049.81,-73.3787C1075.27,-63.0198 1109.24,-48.9914 1139,-36 1140.8,-35.2151 1142.64,-34.4006 1144.5,-33.5722"/>
<polygon fill="grey" stroke="grey" points="1146.09,-36.6949 1153.76,-29.3861 1143.2,-30.3164 1146.09,-36.6949"/>
</g>
<!-- test5&#45;&gt;name -->
<g id="edge16" class="edge"><title>test5&#45;&gt;name</title>
<path fill="none" stroke="grey" d="M2477.74,-216.588C2460.89,-206.058 2438.99,-192.366 2421.53,-181.458"/>
<polygon fill="grey" stroke="grey" points="2423.2,-178.371 2412.86,-176.039 2419.49,-184.307 2423.2,-178.371"/>
</g>
<!-- test5&#45;&gt;notname -->
<g id="edge17" class="edge"><title>test5&#45;&gt;notname</title>
<path fill="none" stroke="grey" d="M2518.52,-216.055C2525.89,-207.457 2534.98,-196.857 2543.09,-187.397"/>
<polygon fill="grey" stroke="grey" points="2545.76,-189.659 2549.61,-179.789 2540.44,-185.104 2545.76,-189.659"/>
</g>
<!-- defn&#45;&gt;id -->
<g id="edge29" class="edge"><title>defn&#45;&gt;id</title>
<path fill="none" stroke="grey" d="M722.583,-72.5881C704.419,-63.0993 681.339,-51.0428 661.673,-40.7695"/>
<polygon fill="grey" stroke="grey" points="663.104,-37.568 652.619,-36.04 659.862,-43.7725 663.104,-37.568"/>
</g>
<!-- defn&#45;&gt;typename -->
<g id="edge30" class="edge"><title>defn&#45;&gt;typename</title>
<path fill="none" stroke="grey" d="M838.976,-78.6434C943.571,-65.6866 1110.86,-44.2048 1139,-36 1140.93,-35.436 1142.9,-34.7868 1144.86,-34.0785"/>
<polygon fill="grey" stroke="grey" points="1146.55,-37.1691 1154.5,-30.1639 1143.91,-30.6834 1146.55,-37.1691"/>
</g>
<!-- test1&#45;&gt;_alternation_1_of_production_1_of_rule_test1 -->
<g id="edge27" class="edge"><title>test1&#45;&gt;_alternation_1_of_production_1_of_rule_test1</title>
<path fill="none" stroke="grey" d="M3008.9,-216.233C2972.51,-203.807 2923.66,-187.127 2890.4,-175.772"/>
<polygon fill="grey" stroke="grey" points="2891.21,-172.349 2880.61,-172.429 2888.95,-178.973 2891.21,-172.349"/>
</g>
<!-- test1&#45;&gt;is -->
<g id="edge26" class="edge"><title>test1&#45;&gt;is</title>
<path fill="none" stroke="grey" d="M3096.01,-216.055C3120.52,-205.124 3152.29,-190.959 3176.84,-180.015"/>
<polygon fill="grey" stroke="grey" points="3178.49,-183.111 3186.2,-175.842 3175.64,-176.717 3178.49,-183.111"/>
</g>
</g>
</svg>
