<?xml version="1.0" encoding="UTF-8" standalone="no"?>
<!DOCTYPE svg PUBLIC "-//W3C//DTD SVG 1.1//EN"
 "http://www.w3.org/Graphics/SVG/1.1/DTD/svg11.dtd">
<!-- Generated by graphviz version 2.29.20121107.0545 (20121107.0545)
 -->
<!-- Title: Perl Pages: 1 -->
<svg width="522pt" height="716pt"
 viewBox="0.00 0.00 522.00 716.00" xmlns="http://www.w3.org/2000/svg" xmlns:xlink="http://www.w3.org/1999/xlink">
<g id="graph0" class="graph" transform="scale(1 1) rotate(0) translate(4 712)">
<title>Perl</title>
<polygon fill="white" stroke="white" points="-4,5 -4,-712 519,-712 519,5 -4,5"/>
<!-- 0 -->
<g id="node1" class="node"><title>0</title>
<polygon fill="none" stroke="green" points="276.338,-678.544 276.338,-693.456 259.738,-704 236.262,-704 219.662,-693.456 219.662,-678.544 236.262,-668 259.738,-668 276.338,-678.544"/>
<polygon fill="none" stroke="green" points="280.268,-676.325 280.268,-695.675 260.863,-708 235.137,-708 215.732,-695.675 215.732,-676.325 235.137,-664 260.863,-664 280.268,-676.325"/>
<text text-anchor="middle" x="248" y="-682.3" font-family="Times,serif" font-size="14.00">%$s</text>
</g>
<!-- 0_kids -->
<g id="node2" class="node"><title>0_kids</title>
<path fill="none" stroke="grey" d="M221,-591C221,-591 281,-591 281,-591 287,-591 293,-597 293,-603 293,-603 293,-615 293,-615 293,-621 287,-627 281,-627 281,-627 221,-627 221,-627 215,-627 209,-621 209,-615 209,-615 209,-603 209,-603 209,-597 215,-591 221,-591"/>
<text text-anchor="middle" x="222" y="-605.3" font-family="Times,serif" font-size="14.00" fill="blue">A</text>
<polyline fill="none" stroke="grey" points="235,-591 235,-627 "/>
<text text-anchor="middle" x="248" y="-605.3" font-family="Times,serif" font-size="14.00" fill="blue">C</text>
<polyline fill="none" stroke="grey" points="261,-591 261,-627 "/>
<text text-anchor="middle" x="277" y="-605.3" font-family="Times,serif" font-size="14.00" fill="blue">els</text>
</g>
<!-- 0&#45;&gt;0_kids -->
<g id="edge1" class="edge"><title>0&#45;&gt;0_kids:port2</title>
<path fill="none" stroke="grey" d="M248,-663.886C248,-656.163 248,-647.138 248,-638.263"/>
<polygon fill="grey" stroke="grey" points="251.5,-638 248,-628 244.5,-638 251.5,-638"/>
</g>
<!-- 0_0_kids -->
<g id="node3" class="node"><title>0_0_kids</title>
<path fill="none" stroke="grey" d="M101,-517C101,-517 131,-517 131,-517 137,-517 143,-523 143,-529 143,-529 143,-541 143,-541 143,-547 137,-553 131,-553 131,-553 101,-553 101,-553 95,-553 89,-547 89,-541 89,-541 89,-529 89,-529 89,-523 95,-517 101,-517"/>
<text text-anchor="middle" x="116" y="-531.3" font-family="Times,serif" font-size="14.00" fill="blue">%$A</text>
</g>
<!-- 0_kids&#45;&gt;0_0_kids -->
<g id="edge2" class="edge"><title>0_kids:port1&#45;&gt;0_0_kids:port1</title>
<path fill="none" stroke="grey" d="M208,-609C176.694,-609 149.997,-582.662 133.552,-561.412"/>
<polygon fill="grey" stroke="grey" points="136.314,-559.259 127.559,-553.292 130.682,-563.416 136.314,-559.259"/>
</g>
<!-- 0_1_kids -->
<g id="node11" class="node"><title>0_1_kids</title>
<path fill="none" stroke="grey" d="M233,-517C233,-517 263,-517 263,-517 269,-517 275,-523 275,-529 275,-529 275,-541 275,-541 275,-547 269,-553 263,-553 263,-553 233,-553 233,-553 227,-553 221,-547 221,-541 221,-541 221,-529 221,-529 221,-523 227,-517 233,-517"/>
<text text-anchor="middle" x="248" y="-531.3" font-family="Times,serif" font-size="14.00" fill="blue">%$C</text>
</g>
<!-- 0_kids&#45;&gt;0_1_kids -->
<g id="edge12" class="edge"><title>0_kids:port2&#45;&gt;0_1_kids:port1</title>
<path fill="none" stroke="grey" d="M248,-590C248,-581.406 248,-572.057 248,-563.546"/>
<polygon fill="grey" stroke="grey" points="251.5,-563.333 248,-553.333 244.5,-563.333 251.5,-563.333"/>
</g>
<!-- 0_2_kids -->
<g id="node21" class="node"><title>0_2_kids</title>
<path fill="none" stroke="grey" d="M347,-517C347,-517 377,-517 377,-517 383,-517 389,-523 389,-529 389,-529 389,-541 389,-541 389,-547 383,-553 377,-553 377,-553 347,-553 347,-553 341,-553 335,-547 335,-541 335,-541 335,-529 335,-529 335,-523 341,-517 347,-517"/>
<text text-anchor="middle" x="362" y="-531.3" font-family="Times,serif" font-size="14.00" fill="blue">@$els</text>
</g>
<!-- 0_kids&#45;&gt;0_2_kids -->
<g id="edge22" class="edge"><title>0_kids:port3&#45;&gt;0_2_kids:port1</title>
<path fill="none" stroke="grey" d="M294,-609C320.176,-609 339.025,-583.586 350.146,-562.545"/>
<polygon fill="grey" stroke="grey" points="353.425,-563.809 354.71,-553.292 347.147,-560.712 353.425,-563.809"/>
</g>
<!-- 0_0_0_kids -->
<g id="node4" class="node"><title>0_0_0_kids</title>
<path fill="none" stroke="grey" d="M43,-443C43,-443 165,-443 165,-443 171,-443 177,-449 177,-455 177,-455 177,-467 177,-467 177,-473 171,-479 165,-479 165,-479 43,-479 43,-479 37,-479 31,-473 31,-467 31,-467 31,-455 31,-455 31,-449 37,-443 43,-443"/>
<text text-anchor="middle" x="42.5" y="-457.3" font-family="Times,serif" font-size="14.00" fill="blue">a</text>
<polyline fill="none" stroke="grey" points="54,-443 54,-479 "/>
<text text-anchor="middle" x="82.5" y="-457.3" font-family="Times,serif" font-size="14.00" fill="blue">bbbbbb</text>
<polyline fill="none" stroke="grey" points="111,-443 111,-479 "/>
<text text-anchor="middle" x="132.5" y="-457.3" font-family="Times,serif" font-size="14.00" fill="blue">c123</text>
<polyline fill="none" stroke="grey" points="154,-443 154,-479 "/>
<text text-anchor="middle" x="165.5" y="-457.3" font-family="Times,serif" font-size="14.00" fill="blue">d</text>
</g>
<!-- 0_0_kids&#45;&gt;0_0_0_kids -->
<g id="edge3" class="edge"><title>0_0_kids:port1&#45;&gt;0_0_0_kids:port2</title>
<path fill="none" stroke="grey" d="M97.8056,-516.825C91.7427,-509.328 85.8835,-500.066 83.3328,-490.126"/>
<polygon fill="grey" stroke="grey" points="86.7752,-489.458 82,-480 79.835,-490.371 86.7752,-489.458"/>
</g>
<!-- 0_0_0_0_kids -->
<g id="node5" class="node"><title>0_0_0_0_kids</title>
<path fill="none" stroke="grey" d="M12,-369C12,-369 42,-369 42,-369 48,-369 54,-375 54,-381 54,-381 54,-393 54,-393 54,-399 48,-405 42,-405 42,-405 12,-405 12,-405 6,-405 0,-399 0,-393 0,-393 0,-381 0,-381 0,-375 6,-369 12,-369"/>
<text text-anchor="middle" x="27" y="-383.3" font-family="Times,serif" font-size="14.00" fill="blue">%$a</text>
</g>
<!-- 0_0_0_kids&#45;&gt;0_0_0_0_kids -->
<g id="edge4" class="edge"><title>0_0_0_kids:port1&#45;&gt;0_0_0_0_kids:port1</title>
<path fill="none" stroke="grey" d="M42,-442C42,-432.966 40.0929,-423.381 37.6387,-414.788"/>
<polygon fill="grey" stroke="grey" points="40.9675,-413.706 34.5879,-405.247 34.3001,-415.838 40.9675,-413.706"/>
</g>
<!-- 0_0_0_1_kids -->
<g id="node6" class="node"><title>0_0_0_1_kids</title>
<path fill="none" stroke="grey" d="M16,-295C16,-295 56,-295 56,-295 62,-295 68,-301 68,-307 68,-307 68,-319 68,-319 68,-325 62,-331 56,-331 56,-331 16,-331 16,-331 10,-331 4,-325 4,-319 4,-319 4,-307 4,-307 4,-301 10,-295 16,-295"/>
<text text-anchor="middle" x="36" y="-309.3" font-family="Times,serif" font-size="14.00" fill="blue">$bbbbbb</text>
</g>
<!-- 0_0_0_kids&#45;&gt;0_0_0_1_kids -->
<g id="edge5" class="edge"><title>0_0_0_kids:port2&#45;&gt;0_0_0_1_kids:port1</title>
<path fill="none" stroke="grey" d="M82,-442C82,-405.104 65.0985,-365.539 51.7853,-340.098"/>
<polygon fill="grey" stroke="grey" points="54.7393,-338.203 46.9014,-331.074 48.5831,-341.535 54.7393,-338.203"/>
</g>
<!-- 0_0_0_2_kids -->
<g id="node8" class="node"><title>0_0_0_2_kids</title>
<path fill="none" stroke="grey" d="M98,-295C98,-295 128,-295 128,-295 134,-295 140,-301 140,-307 140,-307 140,-319 140,-319 140,-325 134,-331 128,-331 128,-331 98,-331 98,-331 92,-331 86,-325 86,-319 86,-319 86,-307 86,-307 86,-301 92,-295 98,-295"/>
<text text-anchor="middle" x="113" y="-309.3" font-family="Times,serif" font-size="14.00" fill="blue">$c123</text>
</g>
<!-- 0_0_0_kids&#45;&gt;0_0_0_2_kids -->
<g id="edge7" class="edge"><title>0_0_0_kids:port3&#45;&gt;0_0_0_2_kids:port1</title>
<path fill="none" stroke="grey" d="M133,-442C133,-406.943 125.698,-367.152 119.918,-341.148"/>
<polygon fill="grey" stroke="grey" points="123.29,-340.195 117.639,-331.234 116.468,-341.764 123.29,-340.195"/>
</g>
<!-- 0_0_0_3_kids -->
<g id="node9" class="node"><title>0_0_0_3_kids</title>
<path fill="none" stroke="grey" d="M196.5,-369C196.5,-369 239.5,-369 239.5,-369 245.5,-369 251.5,-375 251.5,-381 251.5,-381 251.5,-393 251.5,-393 251.5,-399 245.5,-405 239.5,-405 239.5,-405 196.5,-405 196.5,-405 190.5,-405 184.5,-399 184.5,-393 184.5,-393 184.5,-381 184.5,-381 184.5,-375 190.5,-369 196.5,-369"/>
<text text-anchor="middle" x="218" y="-383.3" font-family="Times,serif" font-size="14.00" fill="blue">Object: d</text>
</g>
<!-- 0_0_0_kids&#45;&gt;0_0_0_3_kids -->
<g id="edge9" class="edge"><title>0_0_0_kids:port4&#45;&gt;0_0_0_3_kids:port1</title>
<path fill="none" stroke="grey" d="M166,-442C166,-430.414 172.169,-420.284 180.257,-411.982"/>
<polygon fill="grey" stroke="grey" points="182.708,-414.484 187.751,-405.166 177.998,-409.305 182.708,-414.484"/>
</g>
<!-- &amp;CODE(0x1fe55e0) -->
<g id="node7" class="node"><title>&amp;CODE(0x1fe55e0)</title>
<ellipse fill="none" stroke="grey" cx="113" cy="-239" rx="85.2138" ry="18"/>
<text text-anchor="middle" x="113" y="-235.3" font-family="Times,serif" font-size="14.00" fill="red">&amp;CODE(0x1fe55e0)</text>
</g>
<!-- 0_0_0_1_kids&#45;&gt;&amp;CODE(0x1fe55e0) -->
<g id="edge6" class="edge"><title>0_0_0_1_kids:port1&#45;&gt;&amp;CODE(0x1fe55e0)</title>
<path fill="none" stroke="grey" d="M55.0337,-294.955C64.9247,-285.578 77.1417,-273.995 87.8058,-263.885"/>
<polygon fill="grey" stroke="grey" points="90.3919,-266.257 95.241,-256.836 85.5759,-261.177 90.3919,-266.257"/>
</g>
<!-- 0_0_0_2_kids&#45;&gt;&amp;CODE(0x1fe55e0) -->
<g id="edge8" class="edge"><title>0_0_0_2_kids:port1&#45;&gt;&amp;CODE(0x1fe55e0)</title>
<path fill="none" stroke="grey" d="M113,-294.955C113,-286.701 113,-276.738 113,-267.574"/>
<polygon fill="grey" stroke="grey" points="116.5,-267.335 113,-257.335 109.5,-267.335 116.5,-267.335"/>
</g>
<!-- $REF(0x1e820e8) -->
<g id="node10" class="node"><title>$REF(0x1e820e8)</title>
<ellipse fill="none" stroke="grey" cx="233" cy="-313" rx="75.0904" ry="18"/>
<text text-anchor="middle" x="233" y="-309.3" font-family="Times,serif" font-size="14.00" fill="red">$REF(0x1e820e8)</text>
</g>
<!-- 0_0_0_3_kids&#45;&gt;$REF(0x1e820e8) -->
<g id="edge10" class="edge"><title>0_0_0_3_kids:port1&#45;&gt;$REF(0x1e820e8)</title>
<path fill="none" stroke="grey" d="M221.708,-368.955C223.422,-360.611 225.496,-350.521 227.395,-341.276"/>
<polygon fill="grey" stroke="grey" points="230.854,-341.835 229.438,-331.335 223.997,-340.426 230.854,-341.835"/>
</g>
<!-- $REF(0x1e820e8)&#45;&gt;&amp;CODE(0x1fe55e0) -->
<g id="edge11" class="edge"><title>$REF(0x1e820e8)&#45;&gt;&amp;CODE(0x1fe55e0)</title>
<path fill="none" stroke="grey" d="M206.368,-296.021C189.397,-285.838 167.204,-272.522 148.713,-261.428"/>
<polygon fill="grey" stroke="grey" points="150.348,-258.327 139.972,-256.183 146.747,-264.33 150.348,-258.327"/>
</g>
<!-- 0_1_0_kids -->
<g id="node12" class="node"><title>0_1_0_kids</title>
<path fill="none" stroke="grey" d="M233,-443C233,-443 263,-443 263,-443 269,-443 275,-449 275,-455 275,-455 275,-467 275,-467 275,-473 269,-479 263,-479 263,-479 233,-479 233,-479 227,-479 221,-473 221,-467 221,-467 221,-455 221,-455 221,-449 227,-443 233,-443"/>
<text text-anchor="middle" x="248" y="-457.3" font-family="Times,serif" font-size="14.00" fill="blue">b</text>
</g>
<!-- 0_1_kids&#45;&gt;0_1_0_kids -->
<g id="edge13" class="edge"><title>0_1_kids:port1&#45;&gt;0_1_0_kids:port1</title>
<path fill="none" stroke="grey" d="M248,-516.708C248,-508.464 248,-498.538 248,-489.362"/>
<polygon fill="grey" stroke="grey" points="251.5,-489.082 248,-479.082 244.5,-489.082 251.5,-489.082"/>
</g>
<!-- 0_1_0_0_kids -->
<g id="node13" class="node"><title>0_1_0_0_kids</title>
<path fill="none" stroke="grey" d="M317,-369C317,-369 347,-369 347,-369 353,-369 359,-375 359,-381 359,-381 359,-393 359,-393 359,-399 353,-405 347,-405 347,-405 317,-405 317,-405 311,-405 305,-399 305,-393 305,-393 305,-381 305,-381 305,-375 311,-369 317,-369"/>
<text text-anchor="middle" x="332" y="-383.3" font-family="Times,serif" font-size="14.00" fill="blue">%$b</text>
</g>
<!-- 0_1_0_kids&#45;&gt;0_1_0_0_kids -->
<g id="edge14" class="edge"><title>0_1_0_kids:port1&#45;&gt;0_1_0_0_kids:port1</title>
<path fill="none" stroke="grey" d="M268.764,-442.708C279.343,-433.388 292.362,-421.92 303.831,-411.816"/>
<polygon fill="grey" stroke="grey" points="306.285,-414.318 311.475,-405.082 301.658,-409.066 306.285,-414.318"/>
</g>
<!-- 0_1_0_0_0_kids -->
<g id="node14" class="node"><title>0_1_0_0_0_kids</title>
<path fill="none" stroke="grey" d="M338,-295C338,-295 368,-295 368,-295 374,-295 380,-301 380,-307 380,-307 380,-319 380,-319 380,-325 374,-331 368,-331 368,-331 338,-331 338,-331 332,-331 326,-325 326,-319 326,-319 326,-307 326,-307 326,-301 332,-295 338,-295"/>
<text text-anchor="middle" x="353" y="-309.3" font-family="Times,serif" font-size="14.00" fill="blue">a</text>
</g>
<!-- 0_1_0_0_kids&#45;&gt;0_1_0_0_0_kids -->
<g id="edge15" class="edge"><title>0_1_0_0_kids:port1&#45;&gt;0_1_0_0_0_kids:port1</title>
<path fill="none" stroke="grey" d="M337.191,-368.708C339.581,-360.284 342.47,-350.105 345.121,-340.765"/>
<polygon fill="grey" stroke="grey" points="348.506,-341.657 347.869,-331.082 341.772,-339.746 348.506,-341.657"/>
</g>
<!-- 0_1_0_0_0_0_kids -->
<g id="node15" class="node"><title>0_1_0_0_0_0_kids</title>
<path fill="none" stroke="grey" d="M338,-221C338,-221 368,-221 368,-221 374,-221 380,-227 380,-233 380,-233 380,-245 380,-245 380,-251 374,-257 368,-257 368,-257 338,-257 338,-257 332,-257 326,-251 326,-245 326,-245 326,-233 326,-233 326,-227 332,-221 338,-221"/>
<text text-anchor="middle" x="353" y="-235.3" font-family="Times,serif" font-size="14.00" fill="blue">%$a</text>
</g>
<!-- 0_1_0_0_0_kids&#45;&gt;0_1_0_0_0_0_kids -->
<g id="edge16" class="edge"><title>0_1_0_0_0_kids:port1&#45;&gt;0_1_0_0_0_0_kids:port1</title>
<path fill="none" stroke="grey" d="M353,-294.708C353,-286.464 353,-276.538 353,-267.362"/>
<polygon fill="grey" stroke="grey" points="356.5,-267.082 353,-257.082 349.5,-267.082 356.5,-267.082"/>
</g>
<!-- 0_1_0_0_0_0_0_kids -->
<g id="node16" class="node"><title>0_1_0_0_0_0_0_kids</title>
<path fill="none" stroke="grey" d="M330.5,-147C330.5,-147 375.5,-147 375.5,-147 381.5,-147 387.5,-153 387.5,-159 387.5,-159 387.5,-171 387.5,-171 387.5,-177 381.5,-183 375.5,-183 375.5,-183 330.5,-183 330.5,-183 324.5,-183 318.5,-177 318.5,-171 318.5,-171 318.5,-159 318.5,-159 318.5,-153 324.5,-147 330.5,-147"/>
<text text-anchor="middle" x="330" y="-161.3" font-family="Times,serif" font-size="14.00" fill="blue">a</text>
<polyline fill="none" stroke="grey" points="341.5,-147 341.5,-183 "/>
<text text-anchor="middle" x="353" y="-161.3" font-family="Times,serif" font-size="14.00" fill="blue">b</text>
<polyline fill="none" stroke="grey" points="364.5,-147 364.5,-183 "/>
<text text-anchor="middle" x="376" y="-161.3" font-family="Times,serif" font-size="14.00" fill="blue">c</text>
</g>
<!-- 0_1_0_0_0_0_kids&#45;&gt;0_1_0_0_0_0_0_kids -->
<g id="edge17" class="edge"><title>0_1_0_0_0_0_kids:port1&#45;&gt;0_1_0_0_0_0_0_kids:port2</title>
<path fill="none" stroke="grey" d="M353,-220.667C353,-212.896 353,-203.513 353,-194.275"/>
<polygon fill="grey" stroke="grey" points="356.5,-194 353,-184 349.5,-194 356.5,-194"/>
</g>
<!-- 0_1_0_0_0_0_0_0_kids -->
<g id="node17" class="node"><title>0_1_0_0_0_0_0_0_kids</title>
<path fill="none" stroke="grey" d="M266,-73C266,-73 296,-73 296,-73 302,-73 308,-79 308,-85 308,-85 308,-97 308,-97 308,-103 302,-109 296,-109 296,-109 266,-109 266,-109 260,-109 254,-103 254,-97 254,-97 254,-85 254,-85 254,-79 260,-73 266,-73"/>
<text text-anchor="middle" x="281" y="-87.3" font-family="Times,serif" font-size="14.00" fill="blue">%$a</text>
</g>
<!-- 0_1_0_0_0_0_0_kids&#45;&gt;0_1_0_0_0_0_0_0_kids -->
<g id="edge18" class="edge"><title>0_1_0_0_0_0_0_kids:port1&#45;&gt;0_1_0_0_0_0_0_0_kids:port1</title>
<path fill="none" stroke="grey" d="M330,-146C330,-138.727 320.326,-127.058 309.574,-116.336"/>
<polygon fill="grey" stroke="grey" points="311.704,-113.528 302.065,-109.13 306.857,-118.579 311.704,-113.528"/>
</g>
<!-- 0_1_0_0_0_0_0_1_kids -->
<g id="node18" class="node"><title>0_1_0_0_0_0_0_1_kids</title>
<path fill="none" stroke="grey" d="M338,-73C338,-73 368,-73 368,-73 374,-73 380,-79 380,-85 380,-85 380,-97 380,-97 380,-103 374,-109 368,-109 368,-109 338,-109 338,-109 332,-109 326,-103 326,-97 326,-97 326,-85 326,-85 326,-79 332,-73 338,-73"/>
<text text-anchor="middle" x="353" y="-87.3" font-family="Times,serif" font-size="14.00" fill="blue">$b</text>
</g>
<!-- 0_1_0_0_0_0_0_kids&#45;&gt;0_1_0_0_0_0_0_1_kids -->
<g id="edge19" class="edge"><title>0_1_0_0_0_0_0_kids:port2&#45;&gt;0_1_0_0_0_0_0_1_kids:port1</title>
<path fill="none" stroke="grey" d="M353,-146C353,-137.406 353,-128.057 353,-119.546"/>
<polygon fill="grey" stroke="grey" points="356.5,-119.333 353,-109.333 349.5,-119.333 356.5,-119.333"/>
</g>
<!-- 0_1_0_0_0_0_0_2_kids -->
<g id="node20" class="node"><title>0_1_0_0_0_0_0_2_kids</title>
<path fill="none" stroke="grey" d="M410,-73C410,-73 440,-73 440,-73 446,-73 452,-79 452,-85 452,-85 452,-97 452,-97 452,-103 446,-109 440,-109 440,-109 410,-109 410,-109 404,-109 398,-103 398,-97 398,-97 398,-85 398,-85 398,-79 404,-73 410,-73"/>
<text text-anchor="middle" x="425" y="-87.3" font-family="Times,serif" font-size="14.00" fill="blue">42</text>
</g>
<!-- 0_1_0_0_0_0_0_kids&#45;&gt;0_1_0_0_0_0_0_2_kids -->
<g id="edge21" class="edge"><title>0_1_0_0_0_0_0_kids:port3&#45;&gt;0_1_0_0_0_0_0_2_kids:port1</title>
<path fill="none" stroke="grey" d="M376,-146C376,-138.727 385.674,-127.058 396.426,-116.336"/>
<polygon fill="grey" stroke="grey" points="399.143,-118.579 403.935,-109.13 394.296,-113.528 399.143,-118.579"/>
</g>
<!-- &amp;CODE(0x20fb028) -->
<g id="node19" class="node"><title>&amp;CODE(0x20fb028)</title>
<ellipse fill="none" stroke="grey" cx="353" cy="-18" rx="85.19" ry="18"/>
<text text-anchor="middle" x="353" y="-14.3" font-family="Times,serif" font-size="14.00" fill="red">&amp;CODE(0x20fb028)</text>
</g>
<!-- 0_1_0_0_0_0_0_1_kids&#45;&gt;&amp;CODE(0x20fb028) -->
<g id="edge20" class="edge"><title>0_1_0_0_0_0_0_1_kids:port1&#45;&gt;&amp;CODE(0x20fb028)</title>
<path fill="none" stroke="grey" d="M353,-72.8314C353,-64.894 353,-55.4095 353,-46.6285"/>
<polygon fill="grey" stroke="grey" points="356.5,-46.4177 353,-36.4177 349.5,-46.4177 356.5,-46.4177"/>
</g>
<!-- 0_2_0_kids -->
<g id="node22" class="node"><title>0_2_0_kids</title>
<path fill="none" stroke="grey" d="M305,-443C305,-443 503,-443 503,-443 509,-443 515,-449 515,-455 515,-455 515,-467 515,-467 515,-473 509,-479 503,-479 503,-479 305,-479 305,-479 299,-479 293,-473 293,-467 293,-467 293,-455 293,-455 293,-449 299,-443 305,-443"/>
<text text-anchor="middle" x="330" y="-457.3" font-family="Times,serif" font-size="14.00" fill="blue">element_1</text>
<polyline fill="none" stroke="grey" points="367,-443 367,-479 "/>
<text text-anchor="middle" x="404" y="-457.3" font-family="Times,serif" font-size="14.00" fill="blue">element_2</text>
<polyline fill="none" stroke="grey" points="441,-443 441,-479 "/>
<text text-anchor="middle" x="478" y="-457.3" font-family="Times,serif" font-size="14.00" fill="blue">element_3</text>
</g>
<!-- 0_2_kids&#45;&gt;0_2_0_kids -->
<g id="edge23" class="edge"><title>0_2_kids:port1&#45;&gt;0_2_0_kids:port2</title>
<path fill="none" stroke="grey" d="M385.456,-516.643C392.747,-509.313 399.637,-500.191 402.547,-490.032"/>
<polygon fill="grey" stroke="grey" points="406.03,-490.399 404,-480 399.102,-489.395 406.03,-490.399"/>
</g>
</g>
</svg>
