<?xml version="1.0" encoding="UTF-8" standalone="no"?>
<!DOCTYPE svg PUBLIC "-//W3C//DTD SVG 1.1//EN"
 "http://www.w3.org/Graphics/SVG/1.1/DTD/svg11.dtd">
<!-- Generated by graphviz version 2.26.3 (20100126.1600)
 -->
<!-- Title: Perl Pages: 1 -->
<svg width="409pt" height="502pt"
 viewBox="0.00 0.00 409.00 502.00" xmlns="http://www.w3.org/2000/svg" xmlns:xlink="http://www.w3.org/1999/xlink">
<g id="graph1" class="graph" transform="scale(1 1) rotate(0) translate(4 498)">
<title>Perl</title>
<polygon fill="white" stroke="white" points="-4,5 -4,-498 406,-498 406,5 -4,5"/>
<!-- 0 -->
<g id="node1" class="node"><title>0</title>
<polygon fill="none" stroke="green" points="261.877,-460.44 261.877,-477.56 230.316,-489.665 185.684,-489.665 154.123,-477.56 154.123,-460.44 185.684,-448.335 230.316,-448.335 261.877,-460.44"/>
<polygon fill="none" stroke="green" points="265.842,-457.682 265.842,-480.318 231.045,-493.665 184.955,-493.665 150.158,-480.318 150.158,-457.682 184.955,-444.335 231.045,-444.335 265.842,-457.682"/>
<text text-anchor="middle" x="208" y="-465.9" font-family="Times Roman,serif" font-size="14.00">%$person</text>
</g>
<!-- 0_kids -->
<g id="node2" class="node"><title>0_kids</title>
<polyline fill="none" stroke="grey" points="192,-371 272,-371 "/>
<path fill="none" stroke="grey" d="M272,-371C278,-371 284,-377 284,-383"/>
<polyline fill="none" stroke="grey" points="284,-383 284,-395 "/>
<path fill="none" stroke="grey" d="M284,-395C284,-401 278,-407 272,-407"/>
<polyline fill="none" stroke="grey" points="272,-407 192,-407 "/>
<path fill="none" stroke="grey" d="M192,-407C186,-407 180,-401 180,-395"/>
<polyline fill="none" stroke="grey" points="180,-395 180,-383 "/>
<path fill="none" stroke="grey" d="M180,-383C180,-377 186,-371 192,-371"/>
<text text-anchor="middle" x="208.5" y="-385.9" font-family="Times Roman,serif" font-size="14.00" fill="blue">address</text>
<polyline fill="none" stroke="grey" points="237,-371 237,-407 "/>
<text text-anchor="middle" x="260.5" y="-385.9" font-family="Times Roman,serif" font-size="14.00" fill="blue">name</text>
</g>
<!-- 0&#45;&gt;0_kids -->
<g id="edge2" class="edge"><title>0&#45;&gt;0_kids:port1</title>
<path fill="none" stroke="grey" d="M208,-444.261C208,-436.012 208,-426.558 208,-417.298"/>
<polygon fill="grey" stroke="grey" points="211.5,-417 208,-407 204.5,-417 211.5,-417"/>
</g>
<!-- 0_0_kids -->
<g id="node4" class="node"><title>0_0_kids</title>
<polyline fill="none" stroke="grey" points="156,-297 208,-297 "/>
<path fill="none" stroke="grey" d="M208,-297C214,-297 220,-303 220,-309"/>
<polyline fill="none" stroke="grey" points="220,-309 220,-321 "/>
<path fill="none" stroke="grey" d="M220,-321C220,-327 214,-333 208,-333"/>
<polyline fill="none" stroke="grey" points="208,-333 156,-333 "/>
<path fill="none" stroke="grey" d="M156,-333C150,-333 144,-327 144,-321"/>
<polyline fill="none" stroke="grey" points="144,-321 144,-309 "/>
<path fill="none" stroke="grey" d="M144,-309C144,-303 150,-297 156,-297"/>
<text text-anchor="middle" x="182" y="-311.9" font-family="Times Roman,serif" font-size="14.00" fill="blue">%$address</text>
</g>
<!-- 0_kids&#45;&gt;0_0_kids -->
<g id="edge4" class="edge"><title>0_kids:port1&#45;&gt;0_0_kids:port1</title>
<path fill="none" stroke="grey" d="M208,-370C208,-360.382 204.71,-350.647 200.471,-342.096"/>
<polygon fill="grey" stroke="grey" points="203.525,-340.385 195.609,-333.343 197.405,-343.784 203.525,-340.385"/>
</g>
<!-- 0_1_kids -->
<g id="node20" class="node"><title>0_1_kids</title>
<polyline fill="none" stroke="grey" points="266.5,-297 307.5,-297 "/>
<path fill="none" stroke="grey" d="M307.5,-297C313.5,-297 319.5,-303 319.5,-309"/>
<polyline fill="none" stroke="grey" points="319.5,-309 319.5,-321 "/>
<path fill="none" stroke="grey" d="M319.5,-321C319.5,-327 313.5,-333 307.5,-333"/>
<polyline fill="none" stroke="grey" points="307.5,-333 266.5,-333 "/>
<path fill="none" stroke="grey" d="M266.5,-333C260.5,-333 254.5,-327 254.5,-321"/>
<polyline fill="none" stroke="grey" points="254.5,-321 254.5,-309 "/>
<path fill="none" stroke="grey" d="M254.5,-309C254.5,-303 260.5,-297 266.5,-297"/>
<text text-anchor="middle" x="287" y="-311.9" font-family="Times Roman,serif" font-size="14.00" fill="blue">%$name</text>
</g>
<!-- 0_kids&#45;&gt;0_1_kids -->
<g id="edge20" class="edge"><title>0_kids:port2&#45;&gt;0_1_kids:port1</title>
<path fill="none" stroke="grey" d="M261,-370C261,-360.382 264.29,-350.647 268.529,-342.096"/>
<polygon fill="grey" stroke="grey" points="271.595,-343.784 273.391,-333.343 265.475,-340.385 271.595,-343.784"/>
</g>
<!-- 0_0_0_kids -->
<g id="node6" class="node"><title>0_0_0_kids</title>
<polyline fill="none" stroke="grey" points="95,-223 207,-223 "/>
<path fill="none" stroke="grey" d="M207,-223C213,-223 219,-229 219,-235"/>
<polyline fill="none" stroke="grey" points="219,-235 219,-247 "/>
<path fill="none" stroke="grey" d="M219,-247C219,-253 213,-259 207,-259"/>
<polyline fill="none" stroke="grey" points="207,-259 95,-259 "/>
<path fill="none" stroke="grey" d="M95,-259C89,-259 83,-253 83,-247"/>
<polyline fill="none" stroke="grey" points="83,-247 83,-235 "/>
<path fill="none" stroke="grey" d="M83,-235C83,-229 89,-223 95,-223"/>
<text text-anchor="middle" x="101.5" y="-237.9" font-family="Times Roman,serif" font-size="14.00" fill="blue">city</text>
<polyline fill="none" stroke="grey" points="120,-223 120,-259 "/>
<text text-anchor="middle" x="149" y="-237.9" font-family="Times Roman,serif" font-size="14.00" fill="blue">country</text>
<polyline fill="none" stroke="grey" points="178,-223 178,-259 "/>
<text text-anchor="middle" x="198.5" y="-237.9" font-family="Times Roman,serif" font-size="14.00" fill="blue">state</text>
</g>
<!-- 0_0_kids&#45;&gt;0_0_0_kids -->
<g id="edge6" class="edge"><title>0_0_kids:port1&#45;&gt;0_0_0_kids:port2</title>
<path fill="none" stroke="grey" d="M164.341,-296.964C158.395,-289.072 152.651,-279.351 150.217,-269.034"/>
<polygon fill="grey" stroke="grey" points="153.679,-268.506 149,-259 146.73,-269.349 153.679,-268.506"/>
</g>
<!-- 0_0_0_0_kids -->
<g id="node8" class="node"><title>0_0_0_0_kids</title>
<polyline fill="none" stroke="grey" points="46,-149 78,-149 "/>
<path fill="none" stroke="grey" d="M78,-149C84,-149 90,-155 90,-161"/>
<polyline fill="none" stroke="grey" points="90,-161 90,-173 "/>
<path fill="none" stroke="grey" d="M90,-173C90,-179 84,-185 78,-185"/>
<polyline fill="none" stroke="grey" points="78,-185 46,-185 "/>
<path fill="none" stroke="grey" d="M46,-185C40,-185 34,-179 34,-173"/>
<polyline fill="none" stroke="grey" points="34,-173 34,-161 "/>
<path fill="none" stroke="grey" d="M34,-161C34,-155 40,-149 46,-149"/>
<text text-anchor="middle" x="62" y="-163.9" font-family="Times Roman,serif" font-size="14.00" fill="blue">%$city</text>
</g>
<!-- 0_0_0_kids&#45;&gt;0_0_0_0_kids -->
<g id="edge8" class="edge"><title>0_0_0_kids:port1&#45;&gt;0_0_0_0_kids:port1</title>
<path fill="none" stroke="grey" d="M101,-222C101,-211.465 96.1797,-201.54 89.9285,-193.097"/>
<polygon fill="grey" stroke="grey" points="92.419,-190.619 83.3257,-185.182 87.0436,-195.103 92.419,-190.619"/>
</g>
<!-- 0_0_0_1_kids -->
<g id="node16" class="node"><title>0_0_0_1_kids</title>
<polyline fill="none" stroke="grey" points="120,-149 162,-149 "/>
<path fill="none" stroke="grey" d="M162,-149C168,-149 174,-155 174,-161"/>
<polyline fill="none" stroke="grey" points="174,-161 174,-173 "/>
<path fill="none" stroke="grey" d="M174,-173C174,-179 168,-185 162,-185"/>
<polyline fill="none" stroke="grey" points="162,-185 120,-185 "/>
<path fill="none" stroke="grey" d="M120,-185C114,-185 108,-179 108,-173"/>
<polyline fill="none" stroke="grey" points="108,-173 108,-161 "/>
<path fill="none" stroke="grey" d="M108,-161C108,-155 114,-149 120,-149"/>
<text text-anchor="middle" x="141" y="-163.9" font-family="Times Roman,serif" font-size="14.00" fill="blue">Australia</text>
</g>
<!-- 0_0_0_kids&#45;&gt;0_0_0_1_kids -->
<g id="edge16" class="edge"><title>0_0_0_kids:port2&#45;&gt;0_0_0_1_kids:port1</title>
<path fill="none" stroke="grey" d="M149,-222C149,-213.219 147.989,-203.731 146.686,-195.149"/>
<polygon fill="grey" stroke="grey" points="150.127,-194.508 145,-185.237 143.227,-195.682 150.127,-194.508"/>
</g>
<!-- 0_0_0_2_kids -->
<g id="node18" class="node"><title>0_0_0_2_kids</title>
<polyline fill="none" stroke="grey" points="203.5,-149 240.5,-149 "/>
<path fill="none" stroke="grey" d="M240.5,-149C246.5,-149 252.5,-155 252.5,-161"/>
<polyline fill="none" stroke="grey" points="252.5,-161 252.5,-173 "/>
<path fill="none" stroke="grey" d="M252.5,-173C252.5,-179 246.5,-185 240.5,-185"/>
<polyline fill="none" stroke="grey" points="240.5,-185 203.5,-185 "/>
<path fill="none" stroke="grey" d="M203.5,-185C197.5,-185 191.5,-179 191.5,-173"/>
<polyline fill="none" stroke="grey" points="191.5,-173 191.5,-161 "/>
<path fill="none" stroke="grey" d="M191.5,-161C191.5,-155 197.5,-149 203.5,-149"/>
<text text-anchor="middle" x="222" y="-163.9" font-family="Times Roman,serif" font-size="14.00" fill="blue">Victoria</text>
</g>
<!-- 0_0_0_kids&#45;&gt;0_0_0_2_kids -->
<g id="edge18" class="edge"><title>0_0_0_kids:port3&#45;&gt;0_0_0_2_kids:port1</title>
<path fill="none" stroke="grey" d="M199,-222C199,-212.525 201.941,-202.793 205.72,-194.2"/>
<polygon fill="grey" stroke="grey" points="208.946,-195.572 210.23,-185.056 202.668,-192.476 208.946,-195.572"/>
</g>
<!-- 0_0_0_0_0_kids -->
<g id="node10" class="node"><title>0_0_0_0_0_kids</title>
<polyline fill="none" stroke="grey" points="46,-75 144,-75 "/>
<path fill="none" stroke="grey" d="M144,-75C150,-75 156,-81 156,-87"/>
<polyline fill="none" stroke="grey" points="156,-87 156,-99 "/>
<path fill="none" stroke="grey" d="M156,-99C156,-105 150,-111 144,-111"/>
<polyline fill="none" stroke="grey" points="144,-111 46,-111 "/>
<path fill="none" stroke="grey" d="M46,-111C40,-111 34,-105 34,-99"/>
<polyline fill="none" stroke="grey" points="34,-99 34,-87 "/>
<path fill="none" stroke="grey" d="M34,-87C34,-81 40,-75 46,-75"/>
<text text-anchor="middle" x="62.5" y="-89.9" font-family="Times Roman,serif" font-size="14.00" fill="blue">locality</text>
<polyline fill="none" stroke="grey" points="91,-75 91,-111 "/>
<text text-anchor="middle" x="123.5" y="-89.9" font-family="Times Roman,serif" font-size="14.00" fill="blue">postcode</text>
</g>
<!-- 0_0_0_0_kids&#45;&gt;0_0_0_0_0_kids -->
<g id="edge10" class="edge"><title>0_0_0_0_kids:port1&#45;&gt;0_0_0_0_0_kids:port1</title>
<path fill="none" stroke="grey" d="M62,-148.74C62,-140.628 62,-130.855 62,-121.258"/>
<polygon fill="grey" stroke="grey" points="65.5001,-121 62,-111 58.5001,-121 65.5001,-121"/>
</g>
<!-- 0_0_0_0_0_0_kids -->
<g id="node12" class="node"><title>0_0_0_0_0_0_kids</title>
<polyline fill="none" stroke="grey" points="11.5,-1 82.5,-1 "/>
<path fill="none" stroke="grey" d="M82.5,-1C88.5,-1 94.5,-7 94.5,-13"/>
<polyline fill="none" stroke="grey" points="94.5,-13 94.5,-25 "/>
<path fill="none" stroke="grey" d="M94.5,-25C94.5,-31 88.5,-37 82.5,-37"/>
<polyline fill="none" stroke="grey" points="82.5,-37 11.5,-37 "/>
<path fill="none" stroke="grey" d="M11.5,-37C5.5,-37 -0.5,-31 -0.5,-25"/>
<polyline fill="none" stroke="grey" points="-0.5,-25 -0.5,-13 "/>
<path fill="none" stroke="grey" d="M-0.5,-13C-0.5,-7 5.5,-1 11.5,-1"/>
<text text-anchor="middle" x="47" y="-15.9" font-family="Times Roman,serif" font-size="14.00" fill="blue">Murrumbeena</text>
</g>
<!-- 0_0_0_0_0_kids&#45;&gt;0_0_0_0_0_0_kids -->
<g id="edge12" class="edge"><title>0_0_0_0_0_kids:port1&#45;&gt;0_0_0_0_0_0_kids:port1</title>
<path fill="none" stroke="grey" d="M62,-74C62,-64.9656 60.0929,-55.3812 57.6387,-46.7877"/>
<polygon fill="grey" stroke="grey" points="60.9675,-45.706 54.5879,-37.2472 54.3001,-47.8381 60.9675,-45.706"/>
</g>
<!-- 0_0_0_0_0_1_kids -->
<g id="node14" class="node"><title>0_0_0_0_0_1_kids</title>
<polyline fill="none" stroke="grey" points="124,-1 154,-1 "/>
<path fill="none" stroke="grey" d="M154,-1C160,-1 166,-7 166,-13"/>
<polyline fill="none" stroke="grey" points="166,-13 166,-25 "/>
<path fill="none" stroke="grey" d="M166,-25C166,-31 160,-37 154,-37"/>
<polyline fill="none" stroke="grey" points="154,-37 124,-37 "/>
<path fill="none" stroke="grey" d="M124,-37C118,-37 112,-31 112,-25"/>
<polyline fill="none" stroke="grey" points="112,-25 112,-13 "/>
<path fill="none" stroke="grey" d="M112,-13C112,-7 118,-1 124,-1"/>
<text text-anchor="middle" x="139" y="-15.9" font-family="Times Roman,serif" font-size="14.00" fill="blue">3163</text>
</g>
<!-- 0_0_0_0_0_kids&#45;&gt;0_0_0_0_0_1_kids -->
<g id="edge14" class="edge"><title>0_0_0_0_0_kids:port2&#45;&gt;0_0_0_0_0_1_kids:port1</title>
<path fill="none" stroke="grey" d="M124,-74C124,-64.9656 125.907,-55.3812 128.361,-46.7877"/>
<polygon fill="grey" stroke="grey" points="131.7,-47.8381 131.412,-37.2472 125.033,-45.706 131.7,-47.8381"/>
</g>
<!-- 0_1_0_kids -->
<g id="node22" class="node"><title>0_1_0_kids</title>
<polyline fill="none" stroke="grey" points="267,-223 389,-223 "/>
<path fill="none" stroke="grey" d="M389,-223C395,-223 401,-229 401,-235"/>
<polyline fill="none" stroke="grey" points="401,-235 401,-247 "/>
<path fill="none" stroke="grey" d="M401,-247C401,-253 395,-259 389,-259"/>
<polyline fill="none" stroke="grey" points="389,-259 267,-259 "/>
<path fill="none" stroke="grey" d="M267,-259C261,-259 255,-253 255,-247"/>
<polyline fill="none" stroke="grey" points="255,-247 255,-235 "/>
<path fill="none" stroke="grey" d="M255,-235C255,-229 261,-223 267,-223"/>
<text text-anchor="middle" x="296.5" y="-237.9" font-family="Times Roman,serif" font-size="14.00" fill="blue">given_name</text>
<polyline fill="none" stroke="grey" points="338,-223 338,-259 "/>
<text text-anchor="middle" x="369.5" y="-237.9" font-family="Times Roman,serif" font-size="14.00" fill="blue">surname</text>
</g>
<!-- 0_1_kids&#45;&gt;0_1_0_kids -->
<g id="edge22" class="edge"><title>0_1_kids:port1&#45;&gt;0_1_0_kids:port1</title>
<path fill="none" stroke="grey" d="M291.553,-296.858C293.21,-288.689 294.857,-278.801 295.596,-269.043"/>
<polygon fill="grey" stroke="grey" points="299.095,-269.133 296,-259 292.101,-268.851 299.095,-269.133"/>
</g>
<!-- 0_1_0_0_kids -->
<g id="node24" class="node"><title>0_1_0_0_kids</title>
<polyline fill="none" stroke="grey" points="282,-149 312,-149 "/>
<path fill="none" stroke="grey" d="M312,-149C318,-149 324,-155 324,-161"/>
<polyline fill="none" stroke="grey" points="324,-161 324,-173 "/>
<path fill="none" stroke="grey" d="M324,-173C324,-179 318,-185 312,-185"/>
<polyline fill="none" stroke="grey" points="312,-185 282,-185 "/>
<path fill="none" stroke="grey" d="M282,-185C276,-185 270,-179 270,-173"/>
<polyline fill="none" stroke="grey" points="270,-173 270,-161 "/>
<path fill="none" stroke="grey" d="M270,-161C270,-155 276,-149 282,-149"/>
<text text-anchor="middle" x="297" y="-163.9" font-family="Times Roman,serif" font-size="14.00" fill="blue">Ron</text>
</g>
<!-- 0_1_0_kids&#45;&gt;0_1_0_0_kids -->
<g id="edge24" class="edge"><title>0_1_0_kids:port1&#45;&gt;0_1_0_0_kids:port1</title>
<path fill="none" stroke="grey" d="M296,-222C296,-213.405 296.124,-204.055 296.284,-195.544"/>
<polygon fill="grey" stroke="grey" points="299.788,-195.404 296.5,-185.332 292.789,-195.255 299.788,-195.404"/>
</g>
<!-- 0_1_0_1_kids -->
<g id="node26" class="node"><title>0_1_0_1_kids</title>
<polyline fill="none" stroke="grey" points="354,-149 386,-149 "/>
<path fill="none" stroke="grey" d="M386,-149C392,-149 398,-155 398,-161"/>
<polyline fill="none" stroke="grey" points="398,-161 398,-173 "/>
<path fill="none" stroke="grey" d="M398,-173C398,-179 392,-185 386,-185"/>
<polyline fill="none" stroke="grey" points="386,-185 354,-185 "/>
<path fill="none" stroke="grey" d="M354,-185C348,-185 342,-179 342,-173"/>
<polyline fill="none" stroke="grey" points="342,-173 342,-161 "/>
<path fill="none" stroke="grey" d="M342,-161C342,-155 348,-149 354,-149"/>
<text text-anchor="middle" x="370" y="-163.9" font-family="Times Roman,serif" font-size="14.00" fill="blue">Savage</text>
</g>
<!-- 0_1_0_kids&#45;&gt;0_1_0_1_kids -->
<g id="edge26" class="edge"><title>0_1_0_kids:port2&#45;&gt;0_1_0_1_kids:port1</title>
<path fill="none" stroke="grey" d="M370,-222C370,-213.406 370,-204.057 370,-195.546"/>
<polygon fill="grey" stroke="grey" points="373.5,-195.333 370,-185.333 366.5,-195.333 373.5,-195.333"/>
</g>
</g>
</svg>
