<?xml version="1.0" encoding="UTF-8" standalone="no"?>
<!DOCTYPE svg PUBLIC "-//W3C//DTD SVG 1.1//EN"
 "http://www.w3.org/Graphics/SVG/1.1/DTD/svg11.dtd">
<!-- Generated by graphviz version 2.37.20140310.0445 (20140310.0445)
 -->
<!-- Title: Perl Pages: 1 -->
<svg width="3973pt" height="332pt"
 viewBox="0.00 0.00 3973.00 332.00" xmlns="http://www.w3.org/2000/svg" xmlns:xlink="http://www.w3.org/1999/xlink">
<g id="graph0" class="graph" transform="scale(1 1) rotate(0) translate(4 328)">
<title>Perl</title>
<polygon fill="white" stroke="none" points="-4,4 -4,-328 3969,-328 3969,4 -4,4"/>
<!-- Grammar -->
<g id="node1" class="node"><title>Grammar</title>
<ellipse fill="none" stroke="blue" cx="1560" cy="-306" rx="45.244" ry="18"/>
<text text-anchor="middle" x="1560" y="-302.3" font-family="Times,serif" font-size="14.00">Grammar</text>
</g>
<!-- _alternation_1_of_production_1_of_rule_test3 -->
<g id="node2" class="node"><title>_alternation_1_of_production_1_of_rule_test3</title>
<ellipse fill="none" stroke="blue" cx="923" cy="-162" rx="78.9404" ry="18"/>
<text text-anchor="middle" x="923" y="-158.3" font-family="Times,serif" font-size="14.00">defn &#160;typedef &#160;fail &#160;</text>
</g>
<!-- Grammar&#45;&gt;_alternation_1_of_production_1_of_rule_test3 -->
<g id="edge4" class="edge"><title>Grammar&#45;&gt;_alternation_1_of_production_1_of_rule_test3</title>
<path fill="none" stroke="grey" d="M1515.08,-303.767C1405.44,-300.225 1126.95,-287.864 1042,-252 1019.04,-242.306 1018.8,-231.143 999,-216 985.165,-205.417 969.437,-194.305 955.892,-185.004"/>
<polygon fill="grey" stroke="grey" points="957.582,-181.921 947.349,-179.178 953.638,-187.704 957.582,-181.921"/>
</g>
<!-- defn -->
<g id="node3" class="node"><title>defn</title>
<ellipse fill="none" stroke="blue" cx="923" cy="-90" rx="108.31" ry="18"/>
<text text-anchor="middle" x="923" y="-86.3" font-family="Times,serif" font-size="14.00">&#39;var&#39; id &#39;holds&#39; typename &#39;;&#39; &#160;</text>
</g>
<!-- Grammar&#45;&gt;defn -->
<g id="edge22" class="edge"><title>Grammar&#45;&gt;defn</title>
<path fill="none" stroke="grey" d="M1514.78,-304.502C1411.28,-302.64 1160.59,-293.817 1089,-252 1037.87,-222.135 1054.58,-184.086 1011,-144 997.614,-131.686 980.927,-120.772 965.694,-112.097"/>
<polygon fill="grey" stroke="grey" points="967.375,-109.026 956.929,-107.254 963.989,-115.153 967.375,-109.026"/>
</g>
<!-- typedef -->
<g id="node4" class="node"><title>typedef</title>
<ellipse fill="none" stroke="blue" cx="671" cy="-90" rx="98.1881" ry="18"/>
<text text-anchor="middle" x="671" y="-86.3" font-family="Times,serif" font-size="14.00">&#39;type&#39; id &#39;is&#39; typename &#39;;&#39; &#160;</text>
</g>
<!-- Grammar&#45;&gt;typedef -->
<g id="edge32" class="edge"><title>Grammar&#45;&gt;typedef</title>
<path fill="none" stroke="grey" d="M1514.77,-304.284C1325.56,-301.07 605.794,-286.602 573,-252 532.483,-209.249 597.393,-147.021 639.504,-113.84"/>
<polygon fill="grey" stroke="grey" points="641.805,-116.486 647.584,-107.606 637.529,-110.944 641.805,-116.486"/>
</g>
<!-- fail -->
<g id="node5" class="node"><title>fail</title>
<ellipse fill="none" stroke="blue" cx="1077" cy="-90" rx="27" ry="18"/>
<text text-anchor="middle" x="1077" y="-86.3" font-family="Times,serif" font-size="14.00"> </text>
</g>
<!-- Grammar&#45;&gt;fail -->
<g id="edge27" class="edge"><title>Grammar&#45;&gt;fail</title>
<path fill="none" stroke="grey" d="M1514.52,-305.817C1413.78,-306.663 1176.16,-303.047 1118,-252 1079.79,-218.461 1074.76,-154.78 1075.33,-118.365"/>
<polygon fill="grey" stroke="grey" points="1078.84,-118.109 1075.66,-108.003 1071.85,-117.888 1078.84,-118.109"/>
</g>
<!-- test5 -->
<g id="node6" class="node"><title>test5</title>
<ellipse fill="none" stroke="blue" cx="1291" cy="-234" rx="92.413" ry="18"/>
<text text-anchor="middle" x="1291" y="-230.3" font-family="Times,serif" font-size="14.00">name notname &#160;name &#160;</text>
</g>
<!-- Grammar&#45;&gt;test5 -->
<g id="edge7" class="edge"><title>Grammar&#45;&gt;test5</title>
<path fill="none" stroke="grey" d="M1523.16,-295.414C1479.63,-284.087 1406.5,-265.055 1353.94,-251.377"/>
<polygon fill="grey" stroke="grey" points="1354.6,-247.934 1344.04,-248.803 1352.84,-254.709 1354.6,-247.934"/>
</g>
<!-- name -->
<g id="node7" class="node"><title>name</title>
<ellipse fill="none" stroke="blue" cx="1221" cy="-162" rx="32.2457" ry="18"/>
<text text-anchor="middle" x="1221" y="-158.3" font-family="Times,serif" font-size="14.00">&#39;fred&#39; &#160;</text>
</g>
<!-- Grammar&#45;&gt;name -->
<g id="edge17" class="edge"><title>Grammar&#45;&gt;name</title>
<path fill="none" stroke="grey" d="M1514.61,-305.569C1425.06,-305.619 1230.67,-300.047 1189,-252 1172.88,-233.415 1186.59,-206.098 1200.74,-186.637"/>
<polygon fill="grey" stroke="grey" points="1203.62,-188.626 1206.95,-178.567 1198.07,-184.356 1203.62,-188.626"/>
</g>
<!-- notname -->
<g id="node8" class="node"><title>notname</title>
<ellipse fill="none" stroke="blue" cx="1382" cy="-162" rx="52.4675" ry="18"/>
<text text-anchor="middle" x="1382" y="-158.3" font-family="Times,serif" font-size="14.00">/[a&#45;z]\w*/i &#160;</text>
</g>
<!-- Grammar&#45;&gt;notname -->
<g id="edge33" class="edge"><title>Grammar&#45;&gt;notname</title>
<path fill="none" stroke="grey" d="M1521.3,-296.45C1493.54,-288.697 1456.65,-274.894 1431,-252 1412.06,-235.097 1398.93,-209.072 1391.06,-189.523"/>
<polygon fill="grey" stroke="grey" points="1394.26,-188.072 1387.43,-179.973 1387.71,-190.564 1394.26,-188.072"/>
</g>
<!-- a -->
<g id="node9" class="node"><title>a</title>
<ellipse fill="none" stroke="blue" cx="1467" cy="-234" rx="27" ry="18"/>
<text text-anchor="middle" x="1467" y="-230.3" font-family="Times,serif" font-size="14.00">&#39;a&#39; &#160;</text>
</g>
<!-- Grammar&#45;&gt;a -->
<g id="edge8" class="edge"><title>Grammar&#45;&gt;a</title>
<path fill="none" stroke="grey" d="M1539.82,-289.811C1525.98,-279.391 1507.49,-265.478 1492.61,-254.277"/>
<polygon fill="grey" stroke="grey" points="1494.42,-251.259 1484.33,-248.042 1490.21,-256.852 1494.42,-251.259"/>
</g>
<!-- test2 -->
<g id="node10" class="node"><title>test2</title>
<ellipse fill="none" stroke="blue" cx="1654" cy="-234" rx="141.531" ry="18"/>
<text text-anchor="middle" x="1654" y="-230.3" font-family="Times,serif" font-size="14.00">$arg{article} $arg[3][$arg{sound}] &#160;</text>
</g>
<!-- Grammar&#45;&gt;test2 -->
<g id="edge9" class="edge"><title>Grammar&#45;&gt;test2</title>
<path fill="none" stroke="grey" d="M1580.4,-289.811C1592.83,-280.554 1608.96,-268.54 1622.95,-258.12"/>
<polygon fill="grey" stroke="grey" points="1625.41,-260.657 1631.34,-251.877 1621.23,-255.042 1625.41,-260.657"/>
</g>
<!-- test1 -->
<g id="node11" class="node"><title>test1</title>
<ellipse fill="none" stroke="blue" cx="2131" cy="-234" rx="279.213" ry="18"/>
<text text-anchor="middle" x="2131" y="-230.3" font-family="Times,serif" font-size="14.00">&#39;(&#39; &#39;the&#39; &#39;$::first&#39; /te+st/ is _alternation_1_of_production_1_of_rule_test1(s?) &#160;</text>
</g>
<!-- Grammar&#45;&gt;test1 -->
<g id="edge12" class="edge"><title>Grammar&#45;&gt;test1</title>
<path fill="none" stroke="grey" d="M1602.92,-299.739C1685.49,-289.616 1869.57,-267.049 1996.98,-251.43"/>
<polygon fill="grey" stroke="grey" points="1997.71,-254.867 2007.21,-250.176 1996.85,-247.919 1997.71,-254.867"/>
</g>
<!-- is -->
<g id="node12" class="node"><title>is</title>
<ellipse fill="none" stroke="blue" cx="1930" cy="-162" rx="42.3456" ry="18"/>
<text text-anchor="middle" x="1930" y="-158.3" font-family="Times,serif" font-size="14.00">&#39;is&#39; &#160;&#39;are&#39; &#160;</text>
</g>
<!-- Grammar&#45;&gt;is -->
<g id="edge26" class="edge"><title>Grammar&#45;&gt;is</title>
<path fill="none" stroke="grey" d="M1604.68,-302.35C1655.51,-297.783 1739.78,-285.407 1804,-252 1824.93,-241.114 1824.17,-230.206 1843,-216 1859.68,-203.418 1879.49,-191.163 1895.99,-181.612"/>
<polygon fill="grey" stroke="grey" points="1897.82,-184.595 1904.78,-176.599 1894.35,-178.515 1897.82,-184.595"/>
</g>
<!-- _alternation_1_of_production_1_of_rule_test1 -->
<g id="node13" class="node"><title>_alternation_1_of_production_1_of_rule_test1</title>
<ellipse fill="none" stroke="blue" cx="2284" cy="-162" rx="34.1708" ry="18"/>
<text text-anchor="middle" x="2284" y="-158.3" font-family="Times,serif" font-size="14.00">&#39;easy&#39; &#160;</text>
</g>
<!-- Grammar&#45;&gt;_alternation_1_of_production_1_of_rule_test1 -->
<g id="edge28" class="edge"><title>Grammar&#45;&gt;_alternation_1_of_production_1_of_rule_test1</title>
<path fill="none" stroke="grey" d="M1605.1,-303.912C1778.09,-299.521 2390.89,-281.902 2419,-252 2429.96,-240.343 2428.01,-229.22 2419,-216 2398.74,-186.28 2359.05,-173.225 2327.93,-167.491"/>
<polygon fill="grey" stroke="grey" points="2328.18,-163.985 2317.75,-165.814 2327.04,-170.892 2328.18,-163.985"/>
</g>
<!-- cat -->
<g id="node14" class="node"><title>cat</title>
<ellipse fill="none" stroke="blue" cx="2602" cy="-234" rx="135.258" ry="18"/>
<text text-anchor="middle" x="2602" y="-230.3" font-family="Times,serif" font-size="14.00">&lt;reject: $arg[0] ne &#39;meows&#39;&gt; &#39;cat&#39; &#160;&#160;</text>
</g>
<!-- Grammar&#45;&gt;cat -->
<g id="edge13" class="edge"><title>Grammar&#45;&gt;cat</title>
<path fill="none" stroke="grey" d="M1605.08,-303.175C1736.05,-297.69 2127.81,-279.982 2452,-252 2466.11,-250.782 2480.94,-249.321 2495.57,-247.774"/>
<polygon fill="grey" stroke="grey" points="2496.08,-251.239 2505.65,-246.691 2495.33,-244.279 2496.08,-251.239"/>
</g>
<!-- test7 -->
<g id="node15" class="node"><title>test7</title>
<ellipse fill="none" stroke="blue" cx="2832" cy="-234" rx="76.0649" ry="18"/>
<text text-anchor="middle" x="2832" y="-230.3" font-family="Times,serif" font-size="14.00">&#39;x&#39; &lt;resync&gt; /y+/ &#160;</text>
</g>
<!-- Grammar&#45;&gt;test7 -->
<g id="edge14" class="edge"><title>Grammar&#45;&gt;test7</title>
<path fill="none" stroke="grey" d="M1605.44,-305.423C1763.55,-306.374 2304,-305.255 2746,-252 2753.35,-251.114 2761.02,-249.95 2768.62,-248.647"/>
<polygon fill="grey" stroke="grey" points="2769.3,-252.079 2778.52,-246.864 2768.06,-245.19 2769.3,-252.079"/>
</g>
<!-- test3 -->
<g id="node16" class="node"><title>test3</title>
<ellipse fill="none" stroke="blue" cx="786" cy="-234" rx="204.123" ry="18"/>
<text text-anchor="middle" x="786" y="-230.3" font-family="Times,serif" font-size="14.00">_alternation_1_of_production_1_of_rule_test3(5..10) &#160;</text>
</g>
<!-- Grammar&#45;&gt;test3 -->
<g id="edge16" class="edge"><title>Grammar&#45;&gt;test3</title>
<path fill="none" stroke="grey" d="M1516.45,-301.061C1406.3,-291.099 1112.6,-264.538 932.956,-248.291"/>
<polygon fill="grey" stroke="grey" points="933.166,-244.795 922.891,-247.38 932.535,-251.767 933.166,-244.795"/>
</g>
<!-- id -->
<g id="node17" class="node"><title>id</title>
<ellipse fill="none" stroke="blue" cx="534" cy="-18" rx="533.879" ry="18"/>
<text text-anchor="middle" x="534" y="-14.3" font-family="Times,serif" font-size="14.00">/[a&#45;z]		# LEADING ALPHABETIC\n		 &#160;\w*		# FOLLOWED BY ALPHAS, DIGITS, OR UNDERSCORES\n		 /ix &#160;</text>
</g>
<!-- Grammar&#45;&gt;id -->
<g id="edge18" class="edge"><title>Grammar&#45;&gt;id</title>
<path fill="none" stroke="grey" d="M1514.77,-304.236C1323.85,-300.805 592.066,-285.503 557,-252 500.869,-198.372 515.689,-95.0788 526.836,-46.0733"/>
<polygon fill="grey" stroke="grey" points="530.274,-46.7441 529.201,-36.2038 523.467,-45.1128 530.274,-46.7441"/>
</g>
<!-- b -->
<g id="node18" class="node"><title>b</title>
<ellipse fill="none" stroke="blue" cx="2970" cy="-162" rx="27" ry="18"/>
<text text-anchor="middle" x="2970" y="-158.3" font-family="Times,serif" font-size="14.00">&#39;b&#39; &#160;</text>
</g>
<!-- Grammar&#45;&gt;b -->
<g id="edge19" class="edge"><title>Grammar&#45;&gt;b</title>
<path fill="none" stroke="grey" d="M1605.32,-304.44C1834.75,-301.451 2859.43,-286.224 2917,-252 2939.98,-238.337 2954.15,-210.527 2961.98,-189.609"/>
<polygon fill="grey" stroke="grey" points="2965.35,-190.581 2965.33,-179.986 2958.74,-188.28 2965.35,-190.581"/>
</g>
<!-- typename -->
<g id="node19" class="node"><title>typename</title>
<ellipse fill="none" stroke="blue" cx="1114" cy="-18" rx="27.4223" ry="18"/>
<text text-anchor="middle" x="1114" y="-14.3" font-family="Times,serif" font-size="14.00">&#39;int&#39; &#160;</text>
</g>
<!-- Grammar&#45;&gt;typename -->
<g id="edge23" class="edge"><title>Grammar&#45;&gt;typename</title>
<path fill="none" stroke="grey" d="M1514.67,-304.758C1424.53,-303.335 1227.25,-295.225 1178,-252 1146.96,-224.762 1125.81,-101.616 1117.7,-46.1859"/>
<polygon fill="grey" stroke="grey" points="1121.13,-45.4556 1116.25,-36.0512 1114.2,-46.4458 1121.13,-45.4556"/>
</g>
<!-- test4 -->
<g id="node20" class="node"><title>test4</title>
<ellipse fill="none" stroke="blue" cx="3004" cy="-234" rx="39.9464" ry="18"/>
<text text-anchor="middle" x="3004" y="-230.3" font-family="Times,serif" font-size="14.00">&#39;a&#39; b /c/ &#160;</text>
</g>
<!-- Grammar&#45;&gt;test4 -->
<g id="edge25" class="edge"><title>Grammar&#45;&gt;test4</title>
<path fill="none" stroke="grey" d="M1605.48,-304.893C1814.33,-304.154 2682.75,-298.302 2950,-252 2954.53,-251.214 2959.22,-250.147 2963.84,-248.928"/>
<polygon fill="grey" stroke="grey" points="2965.15,-252.194 2973.79,-246.066 2963.22,-245.466 2965.15,-252.194"/>
</g>
<!-- test6 -->
<g id="node21" class="node"><title>test6</title>
<ellipse fill="none" stroke="blue" cx="3435" cy="-234" rx="372.125" ry="18"/>
<text text-anchor="middle" x="3435" y="-230.3" font-family="Times,serif" font-size="14.00">&lt;rulevar: $test6 = 1&gt; &#160;&#39;a&#39; &lt;commit&gt; &#39;b&#39; &lt;uncommit&gt; &#39;c&#39; &lt;reject: $test6 &amp;&amp; $text&gt; &#160;&lt;uncommit&gt; &#160;&#39;a&#39; &#160;</text>
</g>
<!-- Grammar&#45;&gt;test6 -->
<g id="edge29" class="edge"><title>Grammar&#45;&gt;test6</title>
<path fill="none" stroke="grey" d="M1604.89,-303.554C1786.09,-297.685 2481.23,-274.871 3053,-252 3089.15,-250.554 3127.23,-248.953 3164.77,-247.329"/>
<polygon fill="grey" stroke="grey" points="3164.98,-250.823 3174.82,-246.893 3164.67,-243.829 3164.98,-250.823"/>
</g>
<!-- the -->
<g id="node22" class="node"><title>the</title>
<ellipse fill="none" stroke="blue" cx="3855" cy="-234" rx="29.3722" ry="18"/>
<text text-anchor="middle" x="3855" y="-230.3" font-family="Times,serif" font-size="14.00">&#39;the&#39; &#160;</text>
</g>
<!-- Grammar&#45;&gt;the -->
<g id="edge34" class="edge"><title>Grammar&#45;&gt;the</title>
<path fill="none" stroke="grey" d="M1605.48,-304.985C1905.31,-304.748 3593.04,-301.222 3816,-252 3818.52,-251.443 3821.09,-250.72 3823.63,-249.888"/>
<polygon fill="grey" stroke="grey" points="3825.12,-253.068 3833.23,-246.251 3822.64,-246.522 3825.12,-253.068"/>
</g>
<!-- dog -->
<g id="node23" class="node"><title>dog</title>
<ellipse fill="none" stroke="blue" cx="3934" cy="-234" rx="31.2735" ry="18"/>
<text text-anchor="middle" x="3934" y="-230.3" font-family="Times,serif" font-size="14.00">&#39;dog&#39; &#160;</text>
</g>
<!-- Grammar&#45;&gt;dog -->
<g id="edge35" class="edge"><title>Grammar&#45;&gt;dog</title>
<path fill="none" stroke="grey" d="M1605.53,-304.975C1911.4,-304.673 3661.59,-300.812 3893,-252 3895.66,-251.438 3898.38,-250.707 3901.07,-249.865"/>
<polygon fill="grey" stroke="grey" points="3902.4,-253.104 3910.63,-246.428 3900.03,-246.517 3902.4,-253.104"/>
</g>
<!-- _alternation_1_of_production_1_of_rule_test3&#45;&gt;defn -->
<g id="edge1" class="edge"><title>_alternation_1_of_production_1_of_rule_test3&#45;&gt;defn</title>
<path fill="none" stroke="grey" d="M923,-143.697C923,-135.983 923,-126.712 923,-118.112"/>
<polygon fill="grey" stroke="grey" points="926.5,-118.104 923,-108.104 919.5,-118.104 926.5,-118.104"/>
</g>
<!-- _alternation_1_of_production_1_of_rule_test3&#45;&gt;typedef -->
<g id="edge2" class="edge"><title>_alternation_1_of_production_1_of_rule_test3&#45;&gt;typedef</title>
<path fill="none" stroke="grey" d="M875.008,-147.669C834.515,-136.421 776.301,-120.25 732.415,-108.06"/>
<polygon fill="grey" stroke="grey" points="733.289,-104.67 722.717,-105.366 731.416,-111.415 733.289,-104.67"/>
</g>
<!-- _alternation_1_of_production_1_of_rule_test3&#45;&gt;fail -->
<g id="edge3" class="edge"><title>_alternation_1_of_production_1_of_rule_test3&#45;&gt;fail</title>
<path fill="none" stroke="grey" d="M957.068,-145.625C980.422,-135.072 1012.1,-120.727 1040,-108 1042.04,-107.07 1044.14,-106.11 1046.25,-105.142"/>
<polygon fill="grey" stroke="grey" points="1047.86,-108.257 1055.49,-100.908 1044.94,-101.895 1047.86,-108.257"/>
</g>
<!-- defn&#45;&gt;id -->
<g id="edge20" class="edge"><title>defn&#45;&gt;id</title>
<path fill="none" stroke="grey" d="M852.555,-76.3235C792.351,-65.4898 704.93,-49.7587 636.893,-37.5154"/>
<polygon fill="grey" stroke="grey" points="637.462,-34.0617 627,-35.7353 636.222,-40.9511 637.462,-34.0617"/>
</g>
<!-- defn&#45;&gt;typename -->
<g id="edge21" class="edge"><title>defn&#45;&gt;typename</title>
<path fill="none" stroke="grey" d="M970.97,-73.8508C1001.59,-63.8489 1041.96,-50.039 1077,-36 1078.87,-35.2507 1080.78,-34.4575 1082.7,-33.6395"/>
<polygon fill="grey" stroke="grey" points="1084.51,-36.6698 1092.24,-29.4311 1081.68,-30.2654 1084.51,-36.6698"/>
</g>
<!-- typedef&#45;&gt;id -->
<g id="edge30" class="edge"><title>typedef&#45;&gt;id</title>
<path fill="none" stroke="grey" d="M639.569,-72.9406C620.936,-63.4197 597.065,-51.223 576.737,-40.8366"/>
<polygon fill="grey" stroke="grey" points="578.176,-37.6413 567.678,-36.208 574.991,-43.8747 578.176,-37.6413"/>
</g>
<!-- typedef&#45;&gt;typename -->
<g id="edge31" class="edge"><title>typedef&#45;&gt;typename</title>
<path fill="none" stroke="grey" d="M749.307,-79.0775C865.077,-64.3656 1069.19,-38.2488 1077,-36 1079.29,-35.3401 1081.62,-34.5587 1083.94,-33.6993"/>
<polygon fill="grey" stroke="grey" points="1085.38,-36.8923 1093.29,-29.8391 1082.71,-30.4226 1085.38,-36.8923"/>
</g>
<!-- test5&#45;&gt;name -->
<g id="edge5" class="edge"><title>test5&#45;&gt;name</title>
<path fill="none" stroke="grey" d="M1274.05,-216.055C1264.9,-206.898 1253.47,-195.47 1243.57,-185.568"/>
<polygon fill="grey" stroke="grey" points="1245.9,-182.953 1236.36,-178.356 1240.95,-187.902 1245.9,-182.953"/>
</g>
<!-- test5&#45;&gt;notname -->
<g id="edge6" class="edge"><title>test5&#45;&gt;notname</title>
<path fill="none" stroke="grey" d="M1312.57,-216.411C1324.72,-207.058 1340.07,-195.254 1353.24,-185.123"/>
<polygon fill="grey" stroke="grey" points="1355.73,-187.62 1361.53,-178.749 1351.47,-182.072 1355.73,-187.62"/>
</g>
<!-- test1&#45;&gt;is -->
<g id="edge10" class="edge"><title>test1&#45;&gt;is</title>
<path fill="none" stroke="grey" d="M2082.86,-216.233C2048.86,-204.394 2003.77,-188.692 1971.39,-177.414"/>
<polygon fill="grey" stroke="grey" points="1972.37,-174.049 1961.77,-174.065 1970.07,-180.66 1972.37,-174.049"/>
</g>
<!-- test1&#45;&gt;_alternation_1_of_production_1_of_rule_test1 -->
<g id="edge11" class="edge"><title>test1&#45;&gt;_alternation_1_of_production_1_of_rule_test1</title>
<path fill="none" stroke="grey" d="M2168.04,-216.055C2192.86,-204.696 2225.33,-189.843 2249.59,-178.742"/>
<polygon fill="grey" stroke="grey" points="2251.15,-181.88 2258.78,-174.537 2248.23,-175.515 2251.15,-181.88"/>
</g>
<!-- test3&#45;&gt;_alternation_1_of_production_1_of_rule_test3 -->
<g id="edge15" class="edge"><title>test3&#45;&gt;_alternation_1_of_production_1_of_rule_test3</title>
<path fill="none" stroke="grey" d="M818.815,-216.233C838.173,-206.342 862.807,-193.755 883.261,-183.305"/>
<polygon fill="grey" stroke="grey" points="885.018,-186.337 892.33,-178.671 881.833,-180.104 885.018,-186.337"/>
</g>
<!-- test4&#45;&gt;b -->
<g id="edge24" class="edge"><title>test4&#45;&gt;b</title>
<path fill="none" stroke="grey" d="M2995.77,-216.055C2991.74,-207.767 2986.81,-197.618 2982.35,-188.424"/>
<polygon fill="grey" stroke="grey" points="2985.44,-186.773 2977.92,-179.307 2979.14,-189.831 2985.44,-186.773"/>
</g>
</g>
</svg>
