<?xml version="1.0" encoding="UTF-8" standalone="no"?>
<!DOCTYPE svg PUBLIC "-//W3C//DTD SVG 1.1//EN"
 "http://www.w3.org/Graphics/SVG/1.1/DTD/svg11.dtd">
<!-- Generated by graphviz version 2.26.3 (20100126.1600)
 -->
<!-- Title: Perl Pages: 1 -->
<svg width="522pt" height="724pt"
 viewBox="0.00 0.00 522.00 724.00" xmlns="http://www.w3.org/2000/svg" xmlns:xlink="http://www.w3.org/1999/xlink">
<g id="graph1" class="graph" transform="scale(1 1) rotate(0) translate(4 720)">
<title>Perl</title>
<polygon fill="white" stroke="white" points="-4,5 -4,-720 519,-720 519,5 -4,5"/>
<!-- 0 -->
<g id="node1" class="node"><title>0</title>
<polygon fill="none" stroke="green" points="277.938,-682.44 277.938,-699.56 259.815,-711.665 234.185,-711.665 216.062,-699.56 216.062,-682.44 234.185,-670.335 259.815,-670.335 277.938,-682.44"/>
<polygon fill="none" stroke="green" points="281.882,-680.285 281.882,-701.715 260.997,-715.665 233.003,-715.665 212.118,-701.715 212.118,-680.285 233.003,-666.335 260.997,-666.335 281.882,-680.285"/>
<text text-anchor="middle" x="247" y="-687.9" font-family="Times Roman,serif" font-size="14.00">%$s</text>
</g>
<!-- 0_kids -->
<g id="node2" class="node"><title>0_kids</title>
<polyline fill="none" stroke="grey" points="220,-593 280,-593 "/>
<path fill="none" stroke="grey" d="M280,-593C286,-593 292,-599 292,-605"/>
<polyline fill="none" stroke="grey" points="292,-605 292,-617 "/>
<path fill="none" stroke="grey" d="M292,-617C292,-623 286,-629 280,-629"/>
<polyline fill="none" stroke="grey" points="280,-629 220,-629 "/>
<path fill="none" stroke="grey" d="M220,-629C214,-629 208,-623 208,-617"/>
<polyline fill="none" stroke="grey" points="208,-617 208,-605 "/>
<path fill="none" stroke="grey" d="M208,-605C208,-599 214,-593 220,-593"/>
<text text-anchor="middle" x="221" y="-607.9" font-family="Times Roman,serif" font-size="14.00" fill="blue">A</text>
<polyline fill="none" stroke="grey" points="234,-593 234,-629 "/>
<text text-anchor="middle" x="247" y="-607.9" font-family="Times Roman,serif" font-size="14.00" fill="blue">C</text>
<polyline fill="none" stroke="grey" points="260,-593 260,-629 "/>
<text text-anchor="middle" x="276" y="-607.9" font-family="Times Roman,serif" font-size="14.00" fill="blue">els</text>
</g>
<!-- 0&#45;&gt;0_kids -->
<g id="edge2" class="edge"><title>0&#45;&gt;0_kids:port2</title>
<path fill="none" stroke="grey" d="M247,-666.261C247,-658.012 247,-648.558 247,-639.298"/>
<polygon fill="grey" stroke="grey" points="250.5,-639 247,-629 243.5,-639 250.5,-639"/>
</g>
<!-- 0_0_kids -->
<g id="node4" class="node"><title>0_0_kids</title>
<polyline fill="none" stroke="grey" points="101,-519 131,-519 "/>
<path fill="none" stroke="grey" d="M131,-519C137,-519 143,-525 143,-531"/>
<polyline fill="none" stroke="grey" points="143,-531 143,-543 "/>
<path fill="none" stroke="grey" d="M143,-543C143,-549 137,-555 131,-555"/>
<polyline fill="none" stroke="grey" points="131,-555 101,-555 "/>
<path fill="none" stroke="grey" d="M101,-555C95,-555 89,-549 89,-543"/>
<polyline fill="none" stroke="grey" points="89,-543 89,-531 "/>
<path fill="none" stroke="grey" d="M89,-531C89,-525 95,-519 101,-519"/>
<text text-anchor="middle" x="116" y="-533.9" font-family="Times Roman,serif" font-size="14.00" fill="blue">%$A</text>
</g>
<!-- 0_kids&#45;&gt;0_0_kids -->
<g id="edge4" class="edge"><title>0_kids:port1&#45;&gt;0_0_kids:port1</title>
<path fill="none" stroke="grey" d="M207,-611C175.9,-611 149.52,-584.662 133.296,-563.412"/>
<polygon fill="grey" stroke="grey" points="136.1,-561.317 127.385,-555.292 130.441,-565.437 136.1,-561.317"/>
</g>
<!-- 0_1_kids -->
<g id="node22" class="node"><title>0_1_kids</title>
<polyline fill="none" stroke="grey" points="232,-519 262,-519 "/>
<path fill="none" stroke="grey" d="M262,-519C268,-519 274,-525 274,-531"/>
<polyline fill="none" stroke="grey" points="274,-531 274,-543 "/>
<path fill="none" stroke="grey" d="M274,-543C274,-549 268,-555 262,-555"/>
<polyline fill="none" stroke="grey" points="262,-555 232,-555 "/>
<path fill="none" stroke="grey" d="M232,-555C226,-555 220,-549 220,-543"/>
<polyline fill="none" stroke="grey" points="220,-543 220,-531 "/>
<path fill="none" stroke="grey" d="M220,-531C220,-525 226,-519 232,-519"/>
<text text-anchor="middle" x="247" y="-533.9" font-family="Times Roman,serif" font-size="14.00" fill="blue">%$C</text>
</g>
<!-- 0_kids&#45;&gt;0_1_kids -->
<g id="edge24" class="edge"><title>0_kids:port2&#45;&gt;0_1_kids:port1</title>
<path fill="none" stroke="grey" d="M247,-592C247,-583.406 247,-574.057 247,-565.546"/>
<polygon fill="grey" stroke="grey" points="250.5,-565.333 247,-555.333 243.5,-565.333 250.5,-565.333"/>
</g>
<!-- 0_2_kids -->
<g id="node42" class="node"><title>0_2_kids</title>
<polyline fill="none" stroke="grey" points="346,-519 376,-519 "/>
<path fill="none" stroke="grey" d="M376,-519C382,-519 388,-525 388,-531"/>
<polyline fill="none" stroke="grey" points="388,-531 388,-543 "/>
<path fill="none" stroke="grey" d="M388,-543C388,-549 382,-555 376,-555"/>
<polyline fill="none" stroke="grey" points="376,-555 346,-555 "/>
<path fill="none" stroke="grey" d="M346,-555C340,-555 334,-549 334,-543"/>
<polyline fill="none" stroke="grey" points="334,-543 334,-531 "/>
<path fill="none" stroke="grey" d="M334,-531C334,-525 340,-519 346,-519"/>
<text text-anchor="middle" x="361" y="-533.9" font-family="Times Roman,serif" font-size="14.00" fill="blue">@$els</text>
</g>
<!-- 0_kids&#45;&gt;0_2_kids -->
<g id="edge44" class="edge"><title>0_kids:port3&#45;&gt;0_2_kids:port1</title>
<path fill="none" stroke="grey" d="M293,-611C319.176,-611 338.025,-585.586 349.146,-564.545"/>
<polygon fill="grey" stroke="grey" points="352.425,-565.809 353.71,-555.292 346.147,-562.712 352.425,-565.809"/>
</g>
<!-- 0_0_0_kids -->
<g id="node6" class="node"><title>0_0_0_kids</title>
<polyline fill="none" stroke="grey" points="43,-445 165,-445 "/>
<path fill="none" stroke="grey" d="M165,-445C171,-445 177,-451 177,-457"/>
<polyline fill="none" stroke="grey" points="177,-457 177,-469 "/>
<path fill="none" stroke="grey" d="M177,-469C177,-475 171,-481 165,-481"/>
<polyline fill="none" stroke="grey" points="165,-481 43,-481 "/>
<path fill="none" stroke="grey" d="M43,-481C37,-481 31,-475 31,-469"/>
<polyline fill="none" stroke="grey" points="31,-469 31,-457 "/>
<path fill="none" stroke="grey" d="M31,-457C31,-451 37,-445 43,-445"/>
<text text-anchor="middle" x="42.5" y="-459.9" font-family="Times Roman,serif" font-size="14.00" fill="blue">a</text>
<polyline fill="none" stroke="grey" points="54,-445 54,-481 "/>
<text text-anchor="middle" x="82.5" y="-459.9" font-family="Times Roman,serif" font-size="14.00" fill="blue">bbbbbb</text>
<polyline fill="none" stroke="grey" points="111,-445 111,-481 "/>
<text text-anchor="middle" x="132.5" y="-459.9" font-family="Times Roman,serif" font-size="14.00" fill="blue">c123</text>
<polyline fill="none" stroke="grey" points="154,-445 154,-481 "/>
<text text-anchor="middle" x="165.5" y="-459.9" font-family="Times Roman,serif" font-size="14.00" fill="blue">d</text>
</g>
<!-- 0_0_kids&#45;&gt;0_0_0_kids -->
<g id="edge6" class="edge"><title>0_0_kids:port1&#45;&gt;0_0_0_kids:port2</title>
<path fill="none" stroke="grey" d="M97.6069,-518.796C91.5359,-510.947 85.7035,-501.296 83.2346,-491.013"/>
<polygon fill="grey" stroke="grey" points="86.6975,-490.497 82,-481 79.7501,-491.353 86.6975,-490.497"/>
</g>
<!-- 0_0_0_0_kids -->
<g id="node8" class="node"><title>0_0_0_0_kids</title>
<polyline fill="none" stroke="grey" points="12,-371 42,-371 "/>
<path fill="none" stroke="grey" d="M42,-371C48,-371 54,-377 54,-383"/>
<polyline fill="none" stroke="grey" points="54,-383 54,-395 "/>
<path fill="none" stroke="grey" d="M54,-395C54,-401 48,-407 42,-407"/>
<polyline fill="none" stroke="grey" points="42,-407 12,-407 "/>
<path fill="none" stroke="grey" d="M12,-407C6,-407 0,-401 0,-395"/>
<polyline fill="none" stroke="grey" points="0,-395 0,-383 "/>
<path fill="none" stroke="grey" d="M0,-383C0,-377 6,-371 12,-371"/>
<text text-anchor="middle" x="27" y="-385.9" font-family="Times Roman,serif" font-size="14.00" fill="blue">%$a</text>
</g>
<!-- 0_0_0_kids&#45;&gt;0_0_0_0_kids -->
<g id="edge8" class="edge"><title>0_0_0_kids:port1&#45;&gt;0_0_0_0_kids:port1</title>
<path fill="none" stroke="grey" d="M42,-444C42,-434.966 40.0929,-425.381 37.6387,-416.788"/>
<polygon fill="grey" stroke="grey" points="40.9675,-415.706 34.5879,-407.247 34.3001,-417.838 40.9675,-415.706"/>
</g>
<!-- 0_0_0_1_kids -->
<g id="node10" class="node"><title>0_0_0_1_kids</title>
<polyline fill="none" stroke="grey" points="13,-297 53,-297 "/>
<path fill="none" stroke="grey" d="M53,-297C59,-297 65,-303 65,-309"/>
<polyline fill="none" stroke="grey" points="65,-309 65,-321 "/>
<path fill="none" stroke="grey" d="M65,-321C65,-327 59,-333 53,-333"/>
<polyline fill="none" stroke="grey" points="53,-333 13,-333 "/>
<path fill="none" stroke="grey" d="M13,-333C7,-333 1,-327 1,-321"/>
<polyline fill="none" stroke="grey" points="1,-321 1,-309 "/>
<path fill="none" stroke="grey" d="M1,-309C1,-303 7,-297 13,-297"/>
<text text-anchor="middle" x="33" y="-311.9" font-family="Times Roman,serif" font-size="14.00" fill="blue">$bbbbbb</text>
</g>
<!-- 0_0_0_kids&#45;&gt;0_0_0_1_kids -->
<g id="edge10" class="edge"><title>0_0_0_kids:port2&#45;&gt;0_0_0_1_kids:port1</title>
<path fill="none" stroke="grey" d="M82,-444C82,-406.874 64.0442,-367.425 49.8716,-342.07"/>
<polygon fill="grey" stroke="grey" points="52.8942,-340.305 44.8615,-333.397 46.8328,-343.806 52.8942,-340.305"/>
</g>
<!-- 0_0_0_2_kids -->
<g id="node14" class="node"><title>0_0_0_2_kids</title>
<polyline fill="none" stroke="grey" points="95,-297 125,-297 "/>
<path fill="none" stroke="grey" d="M125,-297C131,-297 137,-303 137,-309"/>
<polyline fill="none" stroke="grey" points="137,-309 137,-321 "/>
<path fill="none" stroke="grey" d="M137,-321C137,-327 131,-333 125,-333"/>
<polyline fill="none" stroke="grey" points="125,-333 95,-333 "/>
<path fill="none" stroke="grey" d="M95,-333C89,-333 83,-327 83,-321"/>
<polyline fill="none" stroke="grey" points="83,-321 83,-309 "/>
<path fill="none" stroke="grey" d="M83,-309C83,-303 89,-297 95,-297"/>
<text text-anchor="middle" x="110" y="-311.9" font-family="Times Roman,serif" font-size="14.00" fill="blue">$c123</text>
</g>
<!-- 0_0_0_kids&#45;&gt;0_0_0_2_kids -->
<g id="edge14" class="edge"><title>0_0_0_kids:port3&#45;&gt;0_0_0_2_kids:port1</title>
<path fill="none" stroke="grey" d="M133,-444C133,-408.81 124.602,-369.047 117.956,-343.086"/>
<polygon fill="grey" stroke="grey" points="121.278,-341.96 115.334,-333.189 114.511,-343.752 121.278,-341.96"/>
</g>
<!-- 0_0_0_3_kids -->
<g id="node17" class="node"><title>0_0_0_3_kids</title>
<polyline fill="none" stroke="grey" points="199.5,-371 242.5,-371 "/>
<path fill="none" stroke="grey" d="M242.5,-371C248.5,-371 254.5,-377 254.5,-383"/>
<polyline fill="none" stroke="grey" points="254.5,-383 254.5,-395 "/>
<path fill="none" stroke="grey" d="M254.5,-395C254.5,-401 248.5,-407 242.5,-407"/>
<polyline fill="none" stroke="grey" points="242.5,-407 199.5,-407 "/>
<path fill="none" stroke="grey" d="M199.5,-407C193.5,-407 187.5,-401 187.5,-395"/>
<polyline fill="none" stroke="grey" points="187.5,-395 187.5,-383 "/>
<path fill="none" stroke="grey" d="M187.5,-383C187.5,-377 193.5,-371 199.5,-371"/>
<text text-anchor="middle" x="221" y="-385.9" font-family="Times Roman,serif" font-size="14.00" fill="blue">Object: d</text>
</g>
<!-- 0_0_0_kids&#45;&gt;0_0_0_3_kids -->
<g id="edge18" class="edge"><title>0_0_0_kids:port4&#45;&gt;0_0_0_3_kids:port1</title>
<path fill="none" stroke="grey" d="M166,-444C166,-432.198 172.41,-422.044 180.854,-413.788"/>
<polygon fill="grey" stroke="grey" points="183.404,-416.211 188.688,-407.028 178.831,-410.911 183.404,-416.211"/>
</g>
<!-- &amp;CODE(0x18ac8f0) -->
<g id="node12" class="node"><title>&amp;CODE(0x18ac8f0)</title>
<ellipse fill="none" stroke="grey" cx="110" cy="-241" rx="92.1303" ry="19.0919"/>
<text text-anchor="middle" x="110" y="-237.9" font-family="Times Roman,serif" font-size="14.00" fill="red">&amp;CODE(0x18ac8f0)</text>
</g>
<!-- 0_0_0_1_kids&#45;&gt;&amp;CODE(0x18ac8f0) -->
<g id="edge12" class="edge"><title>0_0_0_1_kids:port1&#45;&gt;&amp;CODE(0x18ac8f0)</title>
<path fill="none" stroke="grey" d="M52.8294,-296.686C62.1326,-287.624 73.355,-276.693 83.3844,-266.924"/>
<polygon fill="grey" stroke="grey" points="86.0484,-269.215 90.7698,-259.731 81.1642,-264.201 86.0484,-269.215"/>
</g>
<!-- 0_0_0_2_kids&#45;&gt;&amp;CODE(0x18ac8f0) -->
<g id="edge16" class="edge"><title>0_0_0_2_kids:port1&#45;&gt;&amp;CODE(0x18ac8f0)</title>
<path fill="none" stroke="grey" d="M110,-296.686C110,-288.725 110,-279.321 110,-270.53"/>
<polygon fill="grey" stroke="grey" points="113.5,-270.249 110,-260.249 106.5,-270.249 113.5,-270.249"/>
</g>
<!-- $REF(0x1745028) -->
<g id="node19" class="node"><title>$REF(0x1745028)</title>
<ellipse fill="none" stroke="grey" cx="238" cy="-315" rx="82.939" ry="19.0919"/>
<text text-anchor="middle" x="238" y="-311.9" font-family="Times Roman,serif" font-size="14.00" fill="red">$REF(0x1745028)</text>
</g>
<!-- 0_0_0_3_kids&#45;&gt;$REF(0x1745028) -->
<g id="edge20" class="edge"><title>0_0_0_3_kids:port1&#45;&gt;$REF(0x1745028)</title>
<path fill="none" stroke="grey" d="M225.378,-370.686C227.236,-362.487 229.442,-352.757 231.485,-343.743"/>
<polygon fill="grey" stroke="grey" points="234.899,-344.516 233.696,-333.989 228.072,-342.968 234.899,-344.516"/>
</g>
<!-- $REF(0x1745028)&#45;&gt;&amp;CODE(0x18ac8f0) -->
<g id="edge22" class="edge"><title>$REF(0x1745028)&#45;&gt;&amp;CODE(0x18ac8f0)</title>
<path fill="none" stroke="grey" d="M207.341,-297.275C190.18,-287.354 168.581,-274.867 150.092,-264.178"/>
<polygon fill="grey" stroke="grey" points="151.707,-261.069 141.298,-259.094 148.204,-267.129 151.707,-261.069"/>
</g>
<!-- 0_1_0_kids -->
<g id="node24" class="node"><title>0_1_0_kids</title>
<polyline fill="none" stroke="grey" points="232,-445 262,-445 "/>
<path fill="none" stroke="grey" d="M262,-445C268,-445 274,-451 274,-457"/>
<polyline fill="none" stroke="grey" points="274,-457 274,-469 "/>
<path fill="none" stroke="grey" d="M274,-469C274,-475 268,-481 262,-481"/>
<polyline fill="none" stroke="grey" points="262,-481 232,-481 "/>
<path fill="none" stroke="grey" d="M232,-481C226,-481 220,-475 220,-469"/>
<polyline fill="none" stroke="grey" points="220,-469 220,-457 "/>
<path fill="none" stroke="grey" d="M220,-457C220,-451 226,-445 232,-445"/>
<text text-anchor="middle" x="247" y="-459.9" font-family="Times Roman,serif" font-size="14.00" fill="blue">b</text>
</g>
<!-- 0_1_kids&#45;&gt;0_1_0_kids -->
<g id="edge26" class="edge"><title>0_1_kids:port1&#45;&gt;0_1_0_kids:port1</title>
<path fill="none" stroke="grey" d="M247,-518.708C247,-510.464 247,-500.538 247,-491.362"/>
<polygon fill="grey" stroke="grey" points="250.5,-491.082 247,-481.082 243.5,-491.082 250.5,-491.082"/>
</g>
<!-- 0_1_0_0_kids -->
<g id="node26" class="node"><title>0_1_0_0_kids</title>
<polyline fill="none" stroke="grey" points="326,-371 356,-371 "/>
<path fill="none" stroke="grey" d="M356,-371C362,-371 368,-377 368,-383"/>
<polyline fill="none" stroke="grey" points="368,-383 368,-395 "/>
<path fill="none" stroke="grey" d="M368,-395C368,-401 362,-407 356,-407"/>
<polyline fill="none" stroke="grey" points="356,-407 326,-407 "/>
<path fill="none" stroke="grey" d="M326,-407C320,-407 314,-401 314,-395"/>
<polyline fill="none" stroke="grey" points="314,-395 314,-383 "/>
<path fill="none" stroke="grey" d="M314,-383C314,-377 320,-371 326,-371"/>
<text text-anchor="middle" x="341" y="-385.9" font-family="Times Roman,serif" font-size="14.00" fill="blue">%$b</text>
</g>
<!-- 0_1_0_kids&#45;&gt;0_1_0_0_kids -->
<g id="edge28" class="edge"><title>0_1_0_kids:port1&#45;&gt;0_1_0_0_kids:port1</title>
<path fill="none" stroke="grey" d="M270.236,-444.708C282.188,-435.299 296.923,-423.699 309.847,-413.525"/>
<polygon fill="grey" stroke="grey" points="312.339,-416.017 318.031,-407.082 308.009,-410.517 312.339,-416.017"/>
</g>
<!-- 0_1_0_0_0_kids -->
<g id="node28" class="node"><title>0_1_0_0_0_kids</title>
<polyline fill="none" stroke="grey" points="351,-297 381,-297 "/>
<path fill="none" stroke="grey" d="M381,-297C387,-297 393,-303 393,-309"/>
<polyline fill="none" stroke="grey" points="393,-309 393,-321 "/>
<path fill="none" stroke="grey" d="M393,-321C393,-327 387,-333 381,-333"/>
<polyline fill="none" stroke="grey" points="381,-333 351,-333 "/>
<path fill="none" stroke="grey" d="M351,-333C345,-333 339,-327 339,-321"/>
<polyline fill="none" stroke="grey" points="339,-321 339,-309 "/>
<path fill="none" stroke="grey" d="M339,-309C339,-303 345,-297 351,-297"/>
<text text-anchor="middle" x="366" y="-311.9" font-family="Times Roman,serif" font-size="14.00" fill="blue">a</text>
</g>
<!-- 0_1_0_0_kids&#45;&gt;0_1_0_0_0_kids -->
<g id="edge30" class="edge"><title>0_1_0_0_kids:port1&#45;&gt;0_1_0_0_0_kids:port1</title>
<path fill="none" stroke="grey" d="M347.18,-370.708C350.026,-362.284 353.464,-352.105 356.62,-342.765"/>
<polygon fill="grey" stroke="grey" points="360.006,-343.676 359.891,-333.082 353.375,-341.435 360.006,-343.676"/>
</g>
<!-- 0_1_0_0_0_0_kids -->
<g id="node30" class="node"><title>0_1_0_0_0_0_kids</title>
<polyline fill="none" stroke="grey" points="351,-223 381,-223 "/>
<path fill="none" stroke="grey" d="M381,-223C387,-223 393,-229 393,-235"/>
<polyline fill="none" stroke="grey" points="393,-235 393,-247 "/>
<path fill="none" stroke="grey" d="M393,-247C393,-253 387,-259 381,-259"/>
<polyline fill="none" stroke="grey" points="381,-259 351,-259 "/>
<path fill="none" stroke="grey" d="M351,-259C345,-259 339,-253 339,-247"/>
<polyline fill="none" stroke="grey" points="339,-247 339,-235 "/>
<path fill="none" stroke="grey" d="M339,-235C339,-229 345,-223 351,-223"/>
<text text-anchor="middle" x="366" y="-237.9" font-family="Times Roman,serif" font-size="14.00" fill="blue">%$a</text>
</g>
<!-- 0_1_0_0_0_kids&#45;&gt;0_1_0_0_0_0_kids -->
<g id="edge32" class="edge"><title>0_1_0_0_0_kids:port1&#45;&gt;0_1_0_0_0_0_kids:port1</title>
<path fill="none" stroke="grey" d="M366,-296.708C366,-288.464 366,-278.538 366,-269.362"/>
<polygon fill="grey" stroke="grey" points="369.5,-269.082 366,-259.082 362.5,-269.082 369.5,-269.082"/>
</g>
<!-- 0_1_0_0_0_0_0_kids -->
<g id="node32" class="node"><title>0_1_0_0_0_0_0_kids</title>
<polyline fill="none" stroke="grey" points="343.5,-149 388.5,-149 "/>
<path fill="none" stroke="grey" d="M388.5,-149C394.5,-149 400.5,-155 400.5,-161"/>
<polyline fill="none" stroke="grey" points="400.5,-161 400.5,-173 "/>
<path fill="none" stroke="grey" d="M400.5,-173C400.5,-179 394.5,-185 388.5,-185"/>
<polyline fill="none" stroke="grey" points="388.5,-185 343.5,-185 "/>
<path fill="none" stroke="grey" d="M343.5,-185C337.5,-185 331.5,-179 331.5,-173"/>
<polyline fill="none" stroke="grey" points="331.5,-173 331.5,-161 "/>
<path fill="none" stroke="grey" d="M331.5,-161C331.5,-155 337.5,-149 343.5,-149"/>
<text text-anchor="middle" x="343" y="-163.9" font-family="Times Roman,serif" font-size="14.00" fill="blue">a</text>
<polyline fill="none" stroke="grey" points="354.5,-149 354.5,-185 "/>
<text text-anchor="middle" x="366" y="-163.9" font-family="Times Roman,serif" font-size="14.00" fill="blue">b</text>
<polyline fill="none" stroke="grey" points="377.5,-149 377.5,-185 "/>
<text text-anchor="middle" x="389" y="-163.9" font-family="Times Roman,serif" font-size="14.00" fill="blue">c</text>
</g>
<!-- 0_1_0_0_0_0_kids&#45;&gt;0_1_0_0_0_0_0_kids -->
<g id="edge34" class="edge"><title>0_1_0_0_0_0_kids:port1&#45;&gt;0_1_0_0_0_0_0_kids:port2</title>
<path fill="none" stroke="grey" d="M366,-222.74C366,-214.628 366,-204.855 366,-195.258"/>
<polygon fill="grey" stroke="grey" points="369.5,-195 366,-185 362.5,-195 369.5,-195"/>
</g>
<!-- 0_1_0_0_0_0_0_0_kids -->
<g id="node34" class="node"><title>0_1_0_0_0_0_0_0_kids</title>
<polyline fill="none" stroke="grey" points="279,-75 309,-75 "/>
<path fill="none" stroke="grey" d="M309,-75C315,-75 321,-81 321,-87"/>
<polyline fill="none" stroke="grey" points="321,-87 321,-99 "/>
<path fill="none" stroke="grey" d="M321,-99C321,-105 315,-111 309,-111"/>
<polyline fill="none" stroke="grey" points="309,-111 279,-111 "/>
<path fill="none" stroke="grey" d="M279,-111C273,-111 267,-105 267,-99"/>
<polyline fill="none" stroke="grey" points="267,-99 267,-87 "/>
<path fill="none" stroke="grey" d="M267,-87C267,-81 273,-75 279,-75"/>
<text text-anchor="middle" x="294" y="-89.9" font-family="Times Roman,serif" font-size="14.00" fill="blue">%$a</text>
</g>
<!-- 0_1_0_0_0_0_0_kids&#45;&gt;0_1_0_0_0_0_0_0_kids -->
<g id="edge36" class="edge"><title>0_1_0_0_0_0_0_kids:port1&#45;&gt;0_1_0_0_0_0_0_0_kids:port1</title>
<path fill="none" stroke="grey" d="M343,-148C343,-140.727 333.326,-129.058 322.574,-118.336"/>
<polygon fill="grey" stroke="grey" points="324.704,-115.528 315.065,-111.13 319.857,-120.579 324.704,-115.528"/>
</g>
<!-- 0_1_0_0_0_0_0_1_kids -->
<g id="node36" class="node"><title>0_1_0_0_0_0_0_1_kids</title>
<polyline fill="none" stroke="grey" points="351,-75 381,-75 "/>
<path fill="none" stroke="grey" d="M381,-75C387,-75 393,-81 393,-87"/>
<polyline fill="none" stroke="grey" points="393,-87 393,-99 "/>
<path fill="none" stroke="grey" d="M393,-99C393,-105 387,-111 381,-111"/>
<polyline fill="none" stroke="grey" points="381,-111 351,-111 "/>
<path fill="none" stroke="grey" d="M351,-111C345,-111 339,-105 339,-99"/>
<polyline fill="none" stroke="grey" points="339,-99 339,-87 "/>
<path fill="none" stroke="grey" d="M339,-87C339,-81 345,-75 351,-75"/>
<text text-anchor="middle" x="366" y="-89.9" font-family="Times Roman,serif" font-size="14.00" fill="blue">$b</text>
</g>
<!-- 0_1_0_0_0_0_0_kids&#45;&gt;0_1_0_0_0_0_0_1_kids -->
<g id="edge38" class="edge"><title>0_1_0_0_0_0_0_kids:port2&#45;&gt;0_1_0_0_0_0_0_1_kids:port1</title>
<path fill="none" stroke="grey" d="M366,-148C366,-139.406 366,-130.057 366,-121.546"/>
<polygon fill="grey" stroke="grey" points="369.5,-121.333 366,-111.333 362.5,-121.333 369.5,-121.333"/>
</g>
<!-- 0_1_0_0_0_0_0_2_kids -->
<g id="node40" class="node"><title>0_1_0_0_0_0_0_2_kids</title>
<polyline fill="none" stroke="grey" points="423,-75 453,-75 "/>
<path fill="none" stroke="grey" d="M453,-75C459,-75 465,-81 465,-87"/>
<polyline fill="none" stroke="grey" points="465,-87 465,-99 "/>
<path fill="none" stroke="grey" d="M465,-99C465,-105 459,-111 453,-111"/>
<polyline fill="none" stroke="grey" points="453,-111 423,-111 "/>
<path fill="none" stroke="grey" d="M423,-111C417,-111 411,-105 411,-99"/>
<polyline fill="none" stroke="grey" points="411,-99 411,-87 "/>
<path fill="none" stroke="grey" d="M411,-87C411,-81 417,-75 423,-75"/>
<text text-anchor="middle" x="438" y="-89.9" font-family="Times Roman,serif" font-size="14.00" fill="blue">42</text>
</g>
<!-- 0_1_0_0_0_0_0_kids&#45;&gt;0_1_0_0_0_0_0_2_kids -->
<g id="edge42" class="edge"><title>0_1_0_0_0_0_0_kids:port3&#45;&gt;0_1_0_0_0_0_0_2_kids:port1</title>
<path fill="none" stroke="grey" d="M389,-148C389,-140.727 398.674,-129.058 409.426,-118.336"/>
<polygon fill="grey" stroke="grey" points="412.143,-120.579 416.935,-111.13 407.296,-115.528 412.143,-120.579"/>
</g>
<!-- &amp;CODE(0x199d4a8) -->
<g id="node38" class="node"><title>&amp;CODE(0x199d4a8)</title>
<ellipse fill="none" stroke="grey" cx="366" cy="-19" rx="94.7523" ry="19.0919"/>
<text text-anchor="middle" x="366" y="-15.9" font-family="Times Roman,serif" font-size="14.00" fill="red">&amp;CODE(0x199d4a8)</text>
</g>
<!-- 0_1_0_0_0_0_0_1_kids&#45;&gt;&amp;CODE(0x199d4a8) -->
<g id="edge40" class="edge"><title>0_1_0_0_0_0_0_1_kids:port1&#45;&gt;&amp;CODE(0x199d4a8)</title>
<path fill="none" stroke="grey" d="M366,-74.6856C366,-66.7247 366,-57.321 366,-48.53"/>
<polygon fill="grey" stroke="grey" points="369.5,-48.2489 366,-38.2489 362.5,-48.2489 369.5,-48.2489"/>
</g>
<!-- 0_2_0_kids -->
<g id="node44" class="node"><title>0_2_0_kids</title>
<polyline fill="none" stroke="grey" points="304,-445 502,-445 "/>
<path fill="none" stroke="grey" d="M502,-445C508,-445 514,-451 514,-457"/>
<polyline fill="none" stroke="grey" points="514,-457 514,-469 "/>
<path fill="none" stroke="grey" d="M514,-469C514,-475 508,-481 502,-481"/>
<polyline fill="none" stroke="grey" points="502,-481 304,-481 "/>
<path fill="none" stroke="grey" d="M304,-481C298,-481 292,-475 292,-469"/>
<polyline fill="none" stroke="grey" points="292,-469 292,-457 "/>
<path fill="none" stroke="grey" d="M292,-457C292,-451 298,-445 304,-445"/>
<text text-anchor="middle" x="329" y="-459.9" font-family="Times Roman,serif" font-size="14.00" fill="blue">element_1</text>
<polyline fill="none" stroke="grey" points="366,-445 366,-481 "/>
<text text-anchor="middle" x="403" y="-459.9" font-family="Times Roman,serif" font-size="14.00" fill="blue">element_2</text>
<polyline fill="none" stroke="grey" points="440,-445 440,-481 "/>
<text text-anchor="middle" x="477" y="-459.9" font-family="Times Roman,serif" font-size="14.00" fill="blue">element_3</text>
</g>
<!-- 0_2_kids&#45;&gt;0_2_0_kids -->
<g id="edge46" class="edge"><title>0_2_kids:port1&#45;&gt;0_2_0_kids:port2</title>
<path fill="none" stroke="grey" d="M384.456,-518.812C391.822,-511.107 398.779,-501.538 401.635,-490.966"/>
<polygon fill="grey" stroke="grey" points="405.111,-491.382 403,-481 398.176,-490.433 405.111,-491.382"/>
</g>
</g>
</svg>
