<?xml version="1.0" encoding="UTF-8" standalone="no"?>
<!DOCTYPE svg PUBLIC "-//W3C//DTD SVG 1.1//EN"
 "http://www.w3.org/Graphics/SVG/1.1/DTD/svg11.dtd">
<!-- Generated by graphviz version 2.26.3 (20100126.1600)
 -->
<!-- Title: Perl Pages: 1 -->
<svg width="522pt" height="724pt"
 viewBox="0.00 0.00 522.00 724.00" xmlns="http://www.w3.org/2000/svg" xmlns:xlink="http://www.w3.org/1999/xlink">
<g id="graph1" class="graph" transform="scale(1 1) rotate(0) translate(4 720)">
<title>Perl</title>
<polygon fill="white" stroke="white" points="-4,5 -4,-720 519,-720 519,5 -4,5"/>
<!-- 0 -->
<g id="node1" class="node"><title>0</title>
<polygon fill="none" stroke="green" points="277.938,-682.44 277.938,-699.56 259.815,-711.665 234.185,-711.665 216.062,-699.56 216.062,-682.44 234.185,-670.335 259.815,-670.335 277.938,-682.44"/>
<polygon fill="none" stroke="green" points="281.882,-680.285 281.882,-701.715 260.997,-715.665 233.003,-715.665 212.118,-701.715 212.118,-680.285 233.003,-666.335 260.997,-666.335 281.882,-680.285"/>
<text text-anchor="middle" x="247" y="-687.9" font-family="Times Roman,serif" font-size="14.00">%$s</text>
</g>
<!-- 0_kids -->
<g id="node2" class="node"><title>0_kids</title>
<polyline fill="none" stroke="grey" points="220,-593 280,-593 "/>
<path fill="none" stroke="grey" d="M280,-593C286,-593 292,-599 292,-605"/>
<polyline fill="none" stroke="grey" points="292,-605 292,-617 "/>
<path fill="none" stroke="grey" d="M292,-617C292,-623 286,-629 280,-629"/>
<polyline fill="none" stroke="grey" points="280,-629 220,-629 "/>
<path fill="none" stroke="grey" d="M220,-629C214,-629 208,-623 208,-617"/>
<polyline fill="none" stroke="grey" points="208,-617 208,-605 "/>
<path fill="none" stroke="grey" d="M208,-605C208,-599 214,-593 220,-593"/>
<text text-anchor="middle" x="221" y="-607.9" font-family="Times Roman,serif" font-size="14.00" fill="blue">A</text>
<polyline fill="none" stroke="grey" points="234,-593 234,-629 "/>
<text text-anchor="middle" x="247" y="-607.9" font-family="Times Roman,serif" font-size="14.00" fill="blue">C</text>
<polyline fill="none" stroke="grey" points="260,-593 260,-629 "/>
<text text-anchor="middle" x="276" y="-607.9" font-family="Times Roman,serif" font-size="14.00" fill="blue">els</text>
</g>
<!-- 0&#45;&gt;0_kids -->
<g id="edge2" class="edge"><title>0&#45;&gt;0_kids:port2</title>
<path fill="none" stroke="grey" d="M247,-666.261C247,-658.012 247,-648.558 247,-639.298"/>
<polygon fill="grey" stroke="grey" points="250.5,-639 247,-629 243.5,-639 250.5,-639"/>
</g>
<!-- 0_0_kids -->
<g id="node4" class="node"><title>0_0_kids</title>
<polyline fill="none" stroke="grey" points="101,-519 131,-519 "/>
<path fill="none" stroke="grey" d="M131,-519C137,-519 143,-525 143,-531"/>
<polyline fill="none" stroke="grey" points="143,-531 143,-543 "/>
<path fill="none" stroke="grey" d="M143,-543C143,-549 137,-555 131,-555"/>
<polyline fill="none" stroke="grey" points="131,-555 101,-555 "/>
<path fill="none" stroke="grey" d="M101,-555C95,-555 89,-549 89,-543"/>
<polyline fill="none" stroke="grey" points="89,-543 89,-531 "/>
<path fill="none" stroke="grey" d="M89,-531C89,-525 95,-519 101,-519"/>
<text text-anchor="middle" x="116" y="-533.9" font-family="Times Roman,serif" font-size="14.00" fill="blue">%$A</text>
</g>
<!-- 0_kids&#45;&gt;0_0_kids -->
<g id="edge4" class="edge"><title>0_kids:port1&#45;&gt;0_0_kids:port1</title>
<path fill="none" stroke="grey" d="M207,-611C175.9,-611 149.52,-584.662 133.296,-563.412"/>
<polygon fill="grey" stroke="grey" points="136.1,-561.317 127.385,-555.292 130.441,-565.437 136.1,-561.317"/>
</g>
<!-- 0_1_kids -->
<g id="node22" class="node"><title>0_1_kids</title>
<polyline fill="none" stroke="grey" points="232,-519 262,-519 "/>
<path fill="none" stroke="grey" d="M262,-519C268,-519 274,-525 274,-531"/>
<polyline fill="none" stroke="grey" points="274,-531 274,-543 "/>
<path fill="none" stroke="grey" d="M274,-543C274,-549 268,-555 262,-555"/>
<polyline fill="none" stroke="grey" points="262,-555 232,-555 "/>
<path fill="none" stroke="grey" d="M232,-555C226,-555 220,-549 220,-543"/>
<polyline fill="none" stroke="grey" points="220,-543 220,-531 "/>
<path fill="none" stroke="grey" d="M220,-531C220,-525 226,-519 232,-519"/>
<text text-anchor="middle" x="247" y="-533.9" font-family="Times Roman,serif" font-size="14.00" fill="blue">%$C</text>
</g>
<!-- 0_kids&#45;&gt;0_1_kids -->
<g id="edge24" class="edge"><title>0_kids:port2&#45;&gt;0_1_kids:port1</title>
<path fill="none" stroke="grey" d="M247,-592C247,-583.406 247,-574.057 247,-565.546"/>
<polygon fill="grey" stroke="grey" points="250.5,-565.333 247,-555.333 243.5,-565.333 250.5,-565.333"/>
</g>
<!-- 0_2_kids -->
<g id="node42" class="node"><title>0_2_kids</title>
<polyline fill="none" stroke="grey" points="346,-519 376,-519 "/>
<path fill="none" stroke="grey" d="M376,-519C382,-519 388,-525 388,-531"/>
<polyline fill="none" stroke="grey" points="388,-531 388,-543 "/>
<path fill="none" stroke="grey" d="M388,-543C388,-549 382,-555 376,-555"/>
<polyline fill="none" stroke="grey" points="376,-555 346,-555 "/>
<path fill="none" stroke="grey" d="M346,-555C340,-555 334,-549 334,-543"/>
<polyline fill="none" stroke="grey" points="334,-543 334,-531 "/>
<path fill="none" stroke="grey" d="M334,-531C334,-525 340,-519 346,-519"/>
<text text-anchor="middle" x="361" y="-533.9" font-family="Times Roman,serif" font-size="14.00" fill="blue">@$els</text>
</g>
<!-- 0_kids&#45;&gt;0_2_kids -->
<g id="edge44" class="edge"><title>0_kids:port3&#45;&gt;0_2_kids:port1</title>
<path fill="none" stroke="grey" d="M293,-611C319.176,-611 338.025,-585.586 349.146,-564.545"/>
<polygon fill="grey" stroke="grey" points="352.425,-565.809 353.71,-555.292 346.147,-562.712 352.425,-565.809"/>
</g>
<!-- 0_0_0_kids -->
<g id="node6" class="node"><title>0_0_0_kids</title>
<polyline fill="none" stroke="grey" points="43,-445 165,-445 "/>
<path fill="none" stroke="grey" d="M165,-445C171,-445 177,-451 177,-457"/>
<polyline fill="none" stroke="grey" points="177,-457 177,-469 "/>
<path fill="none" stroke="grey" d="M177,-469C177,-475 171,-481 165,-481"/>
<polyline fill="none" stroke="grey" points="165,-481 43,-481 "/>
<path fill="none" stroke="grey" d="M43,-481C37,-481 31,-475 31,-469"/>
<polyline fill="none" stroke="grey" points="31,-469 31,-457 "/>
<path fill="none" stroke="grey" d="M31,-457C31,-451 37,-445 43,-445"/>
<text text-anchor="middle" x="42.5" y="-459.9" font-family="Times Roman,serif" font-size="14.00" fill="blue">a</text>
<polyline fill="none" stroke="grey" points="54,-445 54,-481 "/>
<text text-anchor="middle" x="82.5" y="-459.9" font-family="Times Roman,serif" font-size="14.00" fill="blue">bbbbbb</text>
<polyline fill="none" stroke="grey" points="111,-445 111,-481 "/>
<text text-anchor="middle" x="132.5" y="-459.9" font-family="Times Roman,serif" font-size="14.00" fill="blue">c123</text>
<polyline fill="none" stroke="grey" points="154,-445 154,-481 "/>
<text text-anchor="middle" x="165.5" y="-459.9" font-family="Times Roman,serif" font-size="14.00" fill="blue">d</text>
</g>
<!-- 0_0_kids&#45;&gt;0_0_0_kids -->
<g id="edge6" class="edge"><title>0_0_kids:port1&#45;&gt;0_0_0_kids:port2</title>
<path fill="none" stroke="grey" d="M97.6069,-518.796C91.5359,-510.947 85.7035,-501.296 83.2346,-491.013"/>
<polygon fill="grey" stroke="grey" points="86.6975,-490.497 82,-481 79.7501,-491.353 86.6975,-490.497"/>
</g>
<!-- 0_0_0_0_kids -->
<g id="node8" class="node"><title>0_0_0_0_kids</title>
<polyline fill="none" stroke="grey" points="12,-371 42,-371 "/>
<path fill="none" stroke="grey" d="M42,-371C48,-371 54,-377 54,-383"/>
<polyline fill="none" stroke="grey" points="54,-383 54,-395 "/>
<path fill="none" stroke="grey" d="M54,-395C54,-401 48,-407 42,-407"/>
<polyline fill="none" stroke="grey" points="42,-407 12,-407 "/>
<path fill="none" stroke="grey" d="M12,-407C6,-407 0,-401 0,-395"/>
<polyline fill="none" stroke="grey" points="0,-395 0,-383 "/>
<path fill="none" stroke="grey" d="M0,-383C0,-377 6,-371 12,-371"/>
<text text-anchor="middle" x="27" y="-385.9" font-family="Times Roman,serif" font-size="14.00" fill="blue">%$a</text>
</g>
<!-- 0_0_0_kids&#45;&gt;0_0_0_0_kids -->
<g id="edge8" class="edge"><title>0_0_0_kids:port1&#45;&gt;0_0_0_0_kids:port1</title>
<path fill="none" stroke="grey" d="M42,-444C42,-434.966 40.0929,-425.381 37.6387,-416.788"/>
<polygon fill="grey" stroke="grey" points="40.9675,-415.706 34.5879,-407.247 34.3001,-417.838 40.9675,-415.706"/>
</g>
<!-- 0_0_0_1_kids -->
<g id="node10" class="node"><title>0_0_0_1_kids</title>
<polyline fill="none" stroke="grey" points="14,-297 54,-297 "/>
<path fill="none" stroke="grey" d="M54,-297C60,-297 66,-303 66,-309"/>
<polyline fill="none" stroke="grey" points="66,-309 66,-321 "/>
<path fill="none" stroke="grey" d="M66,-321C66,-327 60,-333 54,-333"/>
<polyline fill="none" stroke="grey" points="54,-333 14,-333 "/>
<path fill="none" stroke="grey" d="M14,-333C8,-333 2,-327 2,-321"/>
<polyline fill="none" stroke="grey" points="2,-321 2,-309 "/>
<path fill="none" stroke="grey" d="M2,-309C2,-303 8,-297 14,-297"/>
<text text-anchor="middle" x="34" y="-311.9" font-family="Times Roman,serif" font-size="14.00" fill="blue">$bbbbbb</text>
</g>
<!-- 0_0_0_kids&#45;&gt;0_0_0_1_kids -->
<g id="edge10" class="edge"><title>0_0_0_kids:port2&#45;&gt;0_0_0_1_kids:port1</title>
<path fill="none" stroke="grey" d="M82,-444C82,-406.919 64.3636,-367.394 50.4717,-342.012"/>
<polygon fill="grey" stroke="grey" points="53.3482,-339.989 45.3753,-333.012 47.2568,-343.438 53.3482,-339.989"/>
</g>
<!-- 0_0_0_2_kids -->
<g id="node14" class="node"><title>0_0_0_2_kids</title>
<polyline fill="none" stroke="grey" points="96,-297 126,-297 "/>
<path fill="none" stroke="grey" d="M126,-297C132,-297 138,-303 138,-309"/>
<polyline fill="none" stroke="grey" points="138,-309 138,-321 "/>
<path fill="none" stroke="grey" d="M138,-321C138,-327 132,-333 126,-333"/>
<polyline fill="none" stroke="grey" points="126,-333 96,-333 "/>
<path fill="none" stroke="grey" d="M96,-333C90,-333 84,-327 84,-321"/>
<polyline fill="none" stroke="grey" points="84,-321 84,-309 "/>
<path fill="none" stroke="grey" d="M84,-309C84,-303 90,-297 96,-297"/>
<text text-anchor="middle" x="111" y="-311.9" font-family="Times Roman,serif" font-size="14.00" fill="blue">$c123</text>
</g>
<!-- 0_0_0_kids&#45;&gt;0_0_0_2_kids -->
<g id="edge14" class="edge"><title>0_0_0_kids:port3&#45;&gt;0_0_0_2_kids:port1</title>
<path fill="none" stroke="grey" d="M133,-444C133,-408.856 124.967,-369.084 118.61,-343.108"/>
<polygon fill="grey" stroke="grey" points="121.95,-342.04 116.103,-333.205 115.164,-343.758 121.95,-342.04"/>
</g>
<!-- 0_0_0_3_kids -->
<g id="node17" class="node"><title>0_0_0_3_kids</title>
<polyline fill="none" stroke="grey" points="199.5,-371 242.5,-371 "/>
<path fill="none" stroke="grey" d="M242.5,-371C248.5,-371 254.5,-377 254.5,-383"/>
<polyline fill="none" stroke="grey" points="254.5,-383 254.5,-395 "/>
<path fill="none" stroke="grey" d="M254.5,-395C254.5,-401 248.5,-407 242.5,-407"/>
<polyline fill="none" stroke="grey" points="242.5,-407 199.5,-407 "/>
<path fill="none" stroke="grey" d="M199.5,-407C193.5,-407 187.5,-401 187.5,-395"/>
<polyline fill="none" stroke="grey" points="187.5,-395 187.5,-383 "/>
<path fill="none" stroke="grey" d="M187.5,-383C187.5,-377 193.5,-371 199.5,-371"/>
<text text-anchor="middle" x="221" y="-385.9" font-family="Times Roman,serif" font-size="14.00" fill="blue">Object: d</text>
</g>
<!-- 0_0_0_kids&#45;&gt;0_0_0_3_kids -->
<g id="edge18" class="edge"><title>0_0_0_kids:port4&#45;&gt;0_0_0_3_kids:port1</title>
<path fill="none" stroke="grey" d="M166,-444C166,-432.198 172.41,-422.044 180.854,-413.788"/>
<polygon fill="grey" stroke="grey" points="183.404,-416.211 188.688,-407.028 178.831,-410.911 183.404,-416.211"/>
</g>
<!-- &amp;CODE(0x2d34ac8) -->
<g id="node12" class="node"><title>&amp;CODE(0x2d34ac8)</title>
<ellipse fill="none" stroke="grey" cx="111" cy="-241" rx="94.0452" ry="19.0919"/>
<text text-anchor="middle" x="111" y="-237.9" font-family="Times Roman,serif" font-size="14.00" fill="red">&amp;CODE(0x2d34ac8)</text>
</g>
<!-- 0_0_0_1_kids&#45;&gt;&amp;CODE(0x2d34ac8) -->
<g id="edge12" class="edge"><title>0_0_0_1_kids:port1&#45;&gt;&amp;CODE(0x2d34ac8)</title>
<path fill="none" stroke="grey" d="M53.8294,-296.686C63.1326,-287.624 74.355,-276.693 84.3844,-266.924"/>
<polygon fill="grey" stroke="grey" points="87.0484,-269.215 91.7698,-259.731 82.1642,-264.201 87.0484,-269.215"/>
</g>
<!-- 0_0_0_2_kids&#45;&gt;&amp;CODE(0x2d34ac8) -->
<g id="edge16" class="edge"><title>0_0_0_2_kids:port1&#45;&gt;&amp;CODE(0x2d34ac8)</title>
<path fill="none" stroke="grey" d="M111,-296.686C111,-288.725 111,-279.321 111,-270.53"/>
<polygon fill="grey" stroke="grey" points="114.5,-270.249 111,-260.249 107.5,-270.249 114.5,-270.249"/>
</g>
<!-- $REF(0x2bc51c8) -->
<g id="node19" class="node"><title>$REF(0x2bc51c8)</title>
<ellipse fill="none" stroke="grey" cx="238" cy="-315" rx="82.0244" ry="19.0919"/>
<text text-anchor="middle" x="238" y="-311.9" font-family="Times Roman,serif" font-size="14.00" fill="red">$REF(0x2bc51c8)</text>
</g>
<!-- 0_0_0_3_kids&#45;&gt;$REF(0x2bc51c8) -->
<g id="edge20" class="edge"><title>0_0_0_3_kids:port1&#45;&gt;$REF(0x2bc51c8)</title>
<path fill="none" stroke="grey" d="M225.378,-370.686C227.236,-362.487 229.442,-352.757 231.485,-343.743"/>
<polygon fill="grey" stroke="grey" points="234.899,-344.516 233.696,-333.989 228.072,-342.968 234.899,-344.516"/>
</g>
<!-- $REF(0x2bc51c8)&#45;&gt;&amp;CODE(0x2d34ac8) -->
<g id="edge22" class="edge"><title>$REF(0x2bc51c8)&#45;&gt;&amp;CODE(0x2d34ac8)</title>
<path fill="none" stroke="grey" d="M207.58,-297.275C190.553,-287.354 169.124,-274.867 150.779,-264.178"/>
<polygon fill="grey" stroke="grey" points="152.456,-261.105 142.054,-259.094 148.932,-267.153 152.456,-261.105"/>
</g>
<!-- 0_1_0_kids -->
<g id="node24" class="node"><title>0_1_0_kids</title>
<polyline fill="none" stroke="grey" points="232,-445 262,-445 "/>
<path fill="none" stroke="grey" d="M262,-445C268,-445 274,-451 274,-457"/>
<polyline fill="none" stroke="grey" points="274,-457 274,-469 "/>
<path fill="none" stroke="grey" d="M274,-469C274,-475 268,-481 262,-481"/>
<polyline fill="none" stroke="grey" points="262,-481 232,-481 "/>
<path fill="none" stroke="grey" d="M232,-481C226,-481 220,-475 220,-469"/>
<polyline fill="none" stroke="grey" points="220,-469 220,-457 "/>
<path fill="none" stroke="grey" d="M220,-457C220,-451 226,-445 232,-445"/>
<text text-anchor="middle" x="247" y="-459.9" font-family="Times Roman,serif" font-size="14.00" fill="blue">b</text>
</g>
<!-- 0_1_kids&#45;&gt;0_1_0_kids -->
<g id="edge26" class="edge"><title>0_1_kids:port1&#45;&gt;0_1_0_kids:port1</title>
<path fill="none" stroke="grey" d="M247,-518.708C247,-510.464 247,-500.538 247,-491.362"/>
<polygon fill="grey" stroke="grey" points="250.5,-491.082 247,-481.082 243.5,-491.082 250.5,-491.082"/>
</g>
<!-- 0_1_0_0_kids -->
<g id="node26" class="node"><title>0_1_0_0_kids</title>
<polyline fill="none" stroke="grey" points="325,-371 355,-371 "/>
<path fill="none" stroke="grey" d="M355,-371C361,-371 367,-377 367,-383"/>
<polyline fill="none" stroke="grey" points="367,-383 367,-395 "/>
<path fill="none" stroke="grey" d="M367,-395C367,-401 361,-407 355,-407"/>
<polyline fill="none" stroke="grey" points="355,-407 325,-407 "/>
<path fill="none" stroke="grey" d="M325,-407C319,-407 313,-401 313,-395"/>
<polyline fill="none" stroke="grey" points="313,-395 313,-383 "/>
<path fill="none" stroke="grey" d="M313,-383C313,-377 319,-371 325,-371"/>
<text text-anchor="middle" x="340" y="-385.9" font-family="Times Roman,serif" font-size="14.00" fill="blue">%$b</text>
</g>
<!-- 0_1_0_kids&#45;&gt;0_1_0_0_kids -->
<g id="edge28" class="edge"><title>0_1_0_kids:port1&#45;&gt;0_1_0_0_kids:port1</title>
<path fill="none" stroke="grey" d="M269.989,-444.708C281.814,-435.299 296.392,-423.699 309.179,-413.525"/>
<polygon fill="grey" stroke="grey" points="311.63,-416.047 317.276,-407.082 307.271,-410.569 311.63,-416.047"/>
</g>
<!-- 0_1_0_0_0_kids -->
<g id="node28" class="node"><title>0_1_0_0_0_kids</title>
<polyline fill="none" stroke="grey" points="350,-297 380,-297 "/>
<path fill="none" stroke="grey" d="M380,-297C386,-297 392,-303 392,-309"/>
<polyline fill="none" stroke="grey" points="392,-309 392,-321 "/>
<path fill="none" stroke="grey" d="M392,-321C392,-327 386,-333 380,-333"/>
<polyline fill="none" stroke="grey" points="380,-333 350,-333 "/>
<path fill="none" stroke="grey" d="M350,-333C344,-333 338,-327 338,-321"/>
<polyline fill="none" stroke="grey" points="338,-321 338,-309 "/>
<path fill="none" stroke="grey" d="M338,-309C338,-303 344,-297 350,-297"/>
<text text-anchor="middle" x="365" y="-311.9" font-family="Times Roman,serif" font-size="14.00" fill="blue">a</text>
</g>
<!-- 0_1_0_0_kids&#45;&gt;0_1_0_0_0_kids -->
<g id="edge30" class="edge"><title>0_1_0_0_kids:port1&#45;&gt;0_1_0_0_0_kids:port1</title>
<path fill="none" stroke="grey" d="M346.18,-370.708C349.026,-362.284 352.464,-352.105 355.62,-342.765"/>
<polygon fill="grey" stroke="grey" points="359.006,-343.676 358.891,-333.082 352.375,-341.435 359.006,-343.676"/>
</g>
<!-- 0_1_0_0_0_0_kids -->
<g id="node30" class="node"><title>0_1_0_0_0_0_kids</title>
<polyline fill="none" stroke="grey" points="350,-223 380,-223 "/>
<path fill="none" stroke="grey" d="M380,-223C386,-223 392,-229 392,-235"/>
<polyline fill="none" stroke="grey" points="392,-235 392,-247 "/>
<path fill="none" stroke="grey" d="M392,-247C392,-253 386,-259 380,-259"/>
<polyline fill="none" stroke="grey" points="380,-259 350,-259 "/>
<path fill="none" stroke="grey" d="M350,-259C344,-259 338,-253 338,-247"/>
<polyline fill="none" stroke="grey" points="338,-247 338,-235 "/>
<path fill="none" stroke="grey" d="M338,-235C338,-229 344,-223 350,-223"/>
<text text-anchor="middle" x="365" y="-237.9" font-family="Times Roman,serif" font-size="14.00" fill="blue">%$a</text>
</g>
<!-- 0_1_0_0_0_kids&#45;&gt;0_1_0_0_0_0_kids -->
<g id="edge32" class="edge"><title>0_1_0_0_0_kids:port1&#45;&gt;0_1_0_0_0_0_kids:port1</title>
<path fill="none" stroke="grey" d="M365,-296.708C365,-288.464 365,-278.538 365,-269.362"/>
<polygon fill="grey" stroke="grey" points="368.5,-269.082 365,-259.082 361.5,-269.082 368.5,-269.082"/>
</g>
<!-- 0_1_0_0_0_0_0_kids -->
<g id="node32" class="node"><title>0_1_0_0_0_0_0_kids</title>
<polyline fill="none" stroke="grey" points="342.5,-149 387.5,-149 "/>
<path fill="none" stroke="grey" d="M387.5,-149C393.5,-149 399.5,-155 399.5,-161"/>
<polyline fill="none" stroke="grey" points="399.5,-161 399.5,-173 "/>
<path fill="none" stroke="grey" d="M399.5,-173C399.5,-179 393.5,-185 387.5,-185"/>
<polyline fill="none" stroke="grey" points="387.5,-185 342.5,-185 "/>
<path fill="none" stroke="grey" d="M342.5,-185C336.5,-185 330.5,-179 330.5,-173"/>
<polyline fill="none" stroke="grey" points="330.5,-173 330.5,-161 "/>
<path fill="none" stroke="grey" d="M330.5,-161C330.5,-155 336.5,-149 342.5,-149"/>
<text text-anchor="middle" x="342" y="-163.9" font-family="Times Roman,serif" font-size="14.00" fill="blue">a</text>
<polyline fill="none" stroke="grey" points="353.5,-149 353.5,-185 "/>
<text text-anchor="middle" x="365" y="-163.9" font-family="Times Roman,serif" font-size="14.00" fill="blue">b</text>
<polyline fill="none" stroke="grey" points="376.5,-149 376.5,-185 "/>
<text text-anchor="middle" x="388" y="-163.9" font-family="Times Roman,serif" font-size="14.00" fill="blue">c</text>
</g>
<!-- 0_1_0_0_0_0_kids&#45;&gt;0_1_0_0_0_0_0_kids -->
<g id="edge34" class="edge"><title>0_1_0_0_0_0_kids:port1&#45;&gt;0_1_0_0_0_0_0_kids:port2</title>
<path fill="none" stroke="grey" d="M365,-222.74C365,-214.628 365,-204.855 365,-195.258"/>
<polygon fill="grey" stroke="grey" points="368.5,-195 365,-185 361.5,-195 368.5,-195"/>
</g>
<!-- 0_1_0_0_0_0_0_0_kids -->
<g id="node34" class="node"><title>0_1_0_0_0_0_0_0_kids</title>
<polyline fill="none" stroke="grey" points="278,-75 308,-75 "/>
<path fill="none" stroke="grey" d="M308,-75C314,-75 320,-81 320,-87"/>
<polyline fill="none" stroke="grey" points="320,-87 320,-99 "/>
<path fill="none" stroke="grey" d="M320,-99C320,-105 314,-111 308,-111"/>
<polyline fill="none" stroke="grey" points="308,-111 278,-111 "/>
<path fill="none" stroke="grey" d="M278,-111C272,-111 266,-105 266,-99"/>
<polyline fill="none" stroke="grey" points="266,-99 266,-87 "/>
<path fill="none" stroke="grey" d="M266,-87C266,-81 272,-75 278,-75"/>
<text text-anchor="middle" x="293" y="-89.9" font-family="Times Roman,serif" font-size="14.00" fill="blue">%$a</text>
</g>
<!-- 0_1_0_0_0_0_0_kids&#45;&gt;0_1_0_0_0_0_0_0_kids -->
<g id="edge36" class="edge"><title>0_1_0_0_0_0_0_kids:port1&#45;&gt;0_1_0_0_0_0_0_0_kids:port1</title>
<path fill="none" stroke="grey" d="M342,-148C342,-140.727 332.326,-129.058 321.574,-118.336"/>
<polygon fill="grey" stroke="grey" points="323.704,-115.528 314.065,-111.13 318.857,-120.579 323.704,-115.528"/>
</g>
<!-- 0_1_0_0_0_0_0_1_kids -->
<g id="node36" class="node"><title>0_1_0_0_0_0_0_1_kids</title>
<polyline fill="none" stroke="grey" points="350,-75 380,-75 "/>
<path fill="none" stroke="grey" d="M380,-75C386,-75 392,-81 392,-87"/>
<polyline fill="none" stroke="grey" points="392,-87 392,-99 "/>
<path fill="none" stroke="grey" d="M392,-99C392,-105 386,-111 380,-111"/>
<polyline fill="none" stroke="grey" points="380,-111 350,-111 "/>
<path fill="none" stroke="grey" d="M350,-111C344,-111 338,-105 338,-99"/>
<polyline fill="none" stroke="grey" points="338,-99 338,-87 "/>
<path fill="none" stroke="grey" d="M338,-87C338,-81 344,-75 350,-75"/>
<text text-anchor="middle" x="365" y="-89.9" font-family="Times Roman,serif" font-size="14.00" fill="blue">$b</text>
</g>
<!-- 0_1_0_0_0_0_0_kids&#45;&gt;0_1_0_0_0_0_0_1_kids -->
<g id="edge38" class="edge"><title>0_1_0_0_0_0_0_kids:port2&#45;&gt;0_1_0_0_0_0_0_1_kids:port1</title>
<path fill="none" stroke="grey" d="M365,-148C365,-139.406 365,-130.057 365,-121.546"/>
<polygon fill="grey" stroke="grey" points="368.5,-121.333 365,-111.333 361.5,-121.333 368.5,-121.333"/>
</g>
<!-- 0_1_0_0_0_0_0_2_kids -->
<g id="node40" class="node"><title>0_1_0_0_0_0_0_2_kids</title>
<polyline fill="none" stroke="grey" points="422,-75 452,-75 "/>
<path fill="none" stroke="grey" d="M452,-75C458,-75 464,-81 464,-87"/>
<polyline fill="none" stroke="grey" points="464,-87 464,-99 "/>
<path fill="none" stroke="grey" d="M464,-99C464,-105 458,-111 452,-111"/>
<polyline fill="none" stroke="grey" points="452,-111 422,-111 "/>
<path fill="none" stroke="grey" d="M422,-111C416,-111 410,-105 410,-99"/>
<polyline fill="none" stroke="grey" points="410,-99 410,-87 "/>
<path fill="none" stroke="grey" d="M410,-87C410,-81 416,-75 422,-75"/>
<text text-anchor="middle" x="437" y="-89.9" font-family="Times Roman,serif" font-size="14.00" fill="blue">42</text>
</g>
<!-- 0_1_0_0_0_0_0_kids&#45;&gt;0_1_0_0_0_0_0_2_kids -->
<g id="edge42" class="edge"><title>0_1_0_0_0_0_0_kids:port3&#45;&gt;0_1_0_0_0_0_0_2_kids:port1</title>
<path fill="none" stroke="grey" d="M388,-148C388,-140.727 397.674,-129.058 408.426,-118.336"/>
<polygon fill="grey" stroke="grey" points="411.143,-120.579 415.935,-111.13 406.296,-115.528 411.143,-120.579"/>
</g>
<!-- &amp;CODE(0x2e214c8) -->
<g id="node38" class="node"><title>&amp;CODE(0x2e214c8)</title>
<ellipse fill="none" stroke="grey" cx="365" cy="-19" rx="94.0452" ry="19.0919"/>
<text text-anchor="middle" x="365" y="-15.9" font-family="Times Roman,serif" font-size="14.00" fill="red">&amp;CODE(0x2e214c8)</text>
</g>
<!-- 0_1_0_0_0_0_0_1_kids&#45;&gt;&amp;CODE(0x2e214c8) -->
<g id="edge40" class="edge"><title>0_1_0_0_0_0_0_1_kids:port1&#45;&gt;&amp;CODE(0x2e214c8)</title>
<path fill="none" stroke="grey" d="M365,-74.6856C365,-66.7247 365,-57.321 365,-48.53"/>
<polygon fill="grey" stroke="grey" points="368.5,-48.2489 365,-38.2489 361.5,-48.2489 368.5,-48.2489"/>
</g>
<!-- 0_2_0_kids -->
<g id="node44" class="node"><title>0_2_0_kids</title>
<polyline fill="none" stroke="grey" points="304,-445 502,-445 "/>
<path fill="none" stroke="grey" d="M502,-445C508,-445 514,-451 514,-457"/>
<polyline fill="none" stroke="grey" points="514,-457 514,-469 "/>
<path fill="none" stroke="grey" d="M514,-469C514,-475 508,-481 502,-481"/>
<polyline fill="none" stroke="grey" points="502,-481 304,-481 "/>
<path fill="none" stroke="grey" d="M304,-481C298,-481 292,-475 292,-469"/>
<polyline fill="none" stroke="grey" points="292,-469 292,-457 "/>
<path fill="none" stroke="grey" d="M292,-457C292,-451 298,-445 304,-445"/>
<text text-anchor="middle" x="329" y="-459.9" font-family="Times Roman,serif" font-size="14.00" fill="blue">element_1</text>
<polyline fill="none" stroke="grey" points="366,-445 366,-481 "/>
<text text-anchor="middle" x="403" y="-459.9" font-family="Times Roman,serif" font-size="14.00" fill="blue">element_2</text>
<polyline fill="none" stroke="grey" points="440,-445 440,-481 "/>
<text text-anchor="middle" x="477" y="-459.9" font-family="Times Roman,serif" font-size="14.00" fill="blue">element_3</text>
</g>
<!-- 0_2_kids&#45;&gt;0_2_0_kids -->
<g id="edge46" class="edge"><title>0_2_kids:port1&#45;&gt;0_2_0_kids:port2</title>
<path fill="none" stroke="grey" d="M384.456,-518.812C391.822,-511.107 398.779,-501.538 401.635,-490.966"/>
<polygon fill="grey" stroke="grey" points="405.111,-491.382 403,-481 398.176,-490.433 405.111,-491.382"/>
</g>
</g>
</svg>
