<?xml version="1.0" encoding="UTF-8" standalone="no"?>
<!DOCTYPE svg PUBLIC "-//W3C//DTD SVG 1.1//EN"
 "http://www.w3.org/Graphics/SVG/1.1/DTD/svg11.dtd">
<!-- Generated by graphviz version 2.26.3 (20100126.1600)
 -->
<!-- Title: Perl Pages: 1 -->
<svg width="444pt" height="194pt"
 viewBox="0.00 0.00 444.00 194.00" xmlns="http://www.w3.org/2000/svg" xmlns:xlink="http://www.w3.org/1999/xlink">
<g id="graph1" class="graph" transform="scale(1 1) rotate(0) translate(4 190)">
<title>Perl</title>
<polygon fill="white" stroke="white" points="-4,5 -4,-190 441,-190 441,5 -4,5"/>
<!-- Adult -->
<g id="node1" class="node"><title>Adult</title>
<polyline fill="none" stroke="blue" points="86,-149 116,-149 "/>
<path fill="none" stroke="blue" d="M116,-149C122,-149 128,-155 128,-161"/>
<polyline fill="none" stroke="blue" points="128,-161 128,-173 "/>
<path fill="none" stroke="blue" d="M128,-173C128,-179 122,-185 116,-185"/>
<polyline fill="none" stroke="blue" points="116,-185 86,-185 "/>
<path fill="none" stroke="blue" d="M86,-185C80,-185 74,-179 74,-173"/>
<polyline fill="none" stroke="blue" points="74,-173 74,-161 "/>
<path fill="none" stroke="blue" d="M74,-161C74,-155 80,-149 86,-149"/>
<text text-anchor="middle" x="101" y="-163.9" font-family="Times Roman,serif" font-size="14.00">Adult</text>
</g>
<!-- Adult::Child1 -->
<g id="node2" class="node"><title>Adult::Child1</title>
<polyline fill="none" stroke="blue" points="12,-75 80,-75 "/>
<path fill="none" stroke="blue" d="M80,-75C86,-75 92,-81 92,-87"/>
<polyline fill="none" stroke="blue" points="92,-87 92,-99 "/>
<path fill="none" stroke="blue" d="M92,-99C92,-105 86,-111 80,-111"/>
<polyline fill="none" stroke="blue" points="80,-111 12,-111 "/>
<path fill="none" stroke="blue" d="M12,-111C6,-111 0,-105 0,-99"/>
<polyline fill="none" stroke="blue" points="0,-99 0,-87 "/>
<path fill="none" stroke="blue" d="M0,-87C0,-81 6,-75 12,-75"/>
<text text-anchor="middle" x="46" y="-89.9" font-family="Times Roman,serif" font-size="14.00">Adult::Child1</text>
</g>
<!-- Adult::Child1&#45;&gt;Adult -->
<g id="edge2" class="edge"><title>Adult::Child1&#45;&gt;Adult</title>
<path fill="none" stroke="grey" d="M59.5955,-111.292C66.1893,-120.164 74.2303,-130.983 81.4661,-140.718"/>
<polygon fill="grey" stroke="grey" points="78.7865,-142.98 87.5609,-148.918 84.4047,-138.804 78.7865,-142.98"/>
</g>
<!-- Adult::Child2 -->
<g id="node3" class="node"><title>Adult::Child2</title>
<polyline fill="none" stroke="blue" points="122,-75 190,-75 "/>
<path fill="none" stroke="blue" d="M190,-75C196,-75 202,-81 202,-87"/>
<polyline fill="none" stroke="blue" points="202,-87 202,-99 "/>
<path fill="none" stroke="blue" d="M202,-99C202,-105 196,-111 190,-111"/>
<polyline fill="none" stroke="blue" points="190,-111 122,-111 "/>
<path fill="none" stroke="blue" d="M122,-111C116,-111 110,-105 110,-99"/>
<polyline fill="none" stroke="blue" points="110,-99 110,-87 "/>
<path fill="none" stroke="blue" d="M110,-87C110,-81 116,-75 122,-75"/>
<text text-anchor="middle" x="156" y="-89.9" font-family="Times Roman,serif" font-size="14.00">Adult::Child2</text>
</g>
<!-- Adult::Child2&#45;&gt;Adult -->
<g id="edge4" class="edge"><title>Adult::Child2&#45;&gt;Adult</title>
<path fill="none" stroke="grey" d="M142.404,-111.292C135.811,-120.164 127.77,-130.983 120.534,-140.718"/>
<polygon fill="grey" stroke="grey" points="117.595,-138.804 114.439,-148.918 123.213,-142.98 117.595,-138.804"/>
</g>
<!-- Adult::Child::Grandchild -->
<g id="node4" class="node"><title>Adult::Child::Grandchild</title>
<polyline fill="none" stroke="blue" points="24.5,-1 153.5,-1 "/>
<path fill="none" stroke="blue" d="M153.5,-1C159.5,-1 165.5,-7 165.5,-13"/>
<polyline fill="none" stroke="blue" points="165.5,-13 165.5,-25 "/>
<path fill="none" stroke="blue" d="M165.5,-25C165.5,-31 159.5,-37 153.5,-37"/>
<polyline fill="none" stroke="blue" points="153.5,-37 24.5,-37 "/>
<path fill="none" stroke="blue" d="M24.5,-37C18.5,-37 12.5,-31 12.5,-25"/>
<polyline fill="none" stroke="blue" points="12.5,-25 12.5,-13 "/>
<path fill="none" stroke="blue" d="M12.5,-13C12.5,-7 18.5,-1 24.5,-1"/>
<text text-anchor="middle" x="89" y="-15.9" font-family="Times Roman,serif" font-size="14.00">Adult::Child::Grandchild</text>
</g>
<!-- Adult::Child::Grandchild&#45;&gt;Adult::Child1 -->
<g id="edge6" class="edge"><title>Adult::Child::Grandchild&#45;&gt;Adult::Child1</title>
<path fill="none" stroke="grey" d="M78.3708,-37.2921C73.3198,-45.9845 67.1826,-56.5463 61.6156,-66.1267"/>
<polygon fill="grey" stroke="grey" points="58.505,-64.5135 56.5069,-74.9183 64.5574,-68.0305 58.505,-64.5135"/>
</g>
<!-- Adult::Child::Grandchild&#45;&gt;Adult::Child2 -->
<g id="edge8" class="edge"><title>Adult::Child::Grandchild&#45;&gt;Adult::Child2</title>
<path fill="none" stroke="grey" d="M105.562,-37.2921C113.756,-46.343 123.786,-57.4205 132.737,-67.3067"/>
<polygon fill="grey" stroke="grey" points="130.322,-69.8544 139.629,-74.9183 135.511,-65.1561 130.322,-69.8544"/>
</g>
<!-- GoldenDelicious -->
<g id="node5" class="node"><title>GoldenDelicious</title>
<polyline fill="none" stroke="blue" points="232,-75 316,-75 "/>
<path fill="none" stroke="blue" d="M316,-75C322,-75 328,-81 328,-87"/>
<polyline fill="none" stroke="blue" points="328,-87 328,-99 "/>
<path fill="none" stroke="blue" d="M328,-99C328,-105 322,-111 316,-111"/>
<polyline fill="none" stroke="blue" points="316,-111 232,-111 "/>
<path fill="none" stroke="blue" d="M232,-111C226,-111 220,-105 220,-99"/>
<polyline fill="none" stroke="blue" points="220,-99 220,-87 "/>
<path fill="none" stroke="blue" d="M220,-87C220,-81 226,-75 232,-75"/>
<text text-anchor="middle" x="274" y="-89.9" font-family="Times Roman,serif" font-size="14.00">GoldenDelicious</text>
</g>
<!-- GrannySmith -->
<g id="node6" class="node"><title>GrannySmith</title>
<polyline fill="none" stroke="blue" points="358,-75 424,-75 "/>
<path fill="none" stroke="blue" d="M424,-75C430,-75 436,-81 436,-87"/>
<polyline fill="none" stroke="blue" points="436,-87 436,-99 "/>
<path fill="none" stroke="blue" d="M436,-99C436,-105 430,-111 424,-111"/>
<polyline fill="none" stroke="blue" points="424,-111 358,-111 "/>
<path fill="none" stroke="blue" d="M358,-111C352,-111 346,-105 346,-99"/>
<polyline fill="none" stroke="blue" points="346,-99 346,-87 "/>
<path fill="none" stroke="blue" d="M346,-87C346,-81 352,-75 358,-75"/>
<text text-anchor="middle" x="391" y="-89.9" font-family="Times Roman,serif" font-size="14.00">GrannySmith</text>
</g>
<!-- HybridVariety -->
<g id="node7" class="node"><title>HybridVariety</title>
<polyline fill="none" stroke="blue" points="296.5,-1 367.5,-1 "/>
<path fill="none" stroke="blue" d="M367.5,-1C373.5,-1 379.5,-7 379.5,-13"/>
<polyline fill="none" stroke="blue" points="379.5,-13 379.5,-25 "/>
<path fill="none" stroke="blue" d="M379.5,-25C379.5,-31 373.5,-37 367.5,-37"/>
<polyline fill="none" stroke="blue" points="367.5,-37 296.5,-37 "/>
<path fill="none" stroke="blue" d="M296.5,-37C290.5,-37 284.5,-31 284.5,-25"/>
<polyline fill="none" stroke="blue" points="284.5,-25 284.5,-13 "/>
<path fill="none" stroke="blue" d="M284.5,-13C284.5,-7 290.5,-1 296.5,-1"/>
<text text-anchor="middle" x="332" y="-15.9" font-family="Times Roman,serif" font-size="14.00">HybridVariety</text>
</g>
<!-- HybridVariety&#45;&gt;GoldenDelicious -->
<g id="edge10" class="edge"><title>HybridVariety&#45;&gt;GoldenDelicious</title>
<path fill="none" stroke="grey" d="M317.663,-37.2921C310.639,-46.2534 302.058,-57.2014 294.368,-67.0127"/>
<polygon fill="grey" stroke="grey" points="291.586,-64.8886 288.172,-74.9183 297.096,-69.2068 291.586,-64.8886"/>
</g>
<!-- HybridVariety&#45;&gt;GrannySmith -->
<g id="edge12" class="edge"><title>HybridVariety&#45;&gt;GrannySmith</title>
<path fill="none" stroke="grey" d="M346.584,-37.2921C353.729,-46.2534 362.458,-57.2014 370.28,-67.0127"/>
<polygon fill="grey" stroke="grey" points="367.613,-69.2812 376.583,-74.9183 373.086,-64.9173 367.613,-69.2812"/>
</g>
</g>
</svg>
