<?xml version="1.0" encoding="UTF-8" standalone="no"?>
<!DOCTYPE svg PUBLIC "-//W3C//DTD SVG 1.1//EN"
 "http://www.w3.org/Graphics/SVG/1.1/DTD/svg11.dtd">
<!-- Generated by graphviz version 2.30.1 (20130611.0131)
 -->
<!-- Title: Perl Pages: 1 -->
<svg width="522pt" height="716pt"
 viewBox="0.00 0.00 522.00 716.00" xmlns="http://www.w3.org/2000/svg" xmlns:xlink="http://www.w3.org/1999/xlink">
<g id="graph0" class="graph" transform="scale(1 1) rotate(0) translate(4 712)">
<title>Perl</title>
<polygon fill="white" stroke="white" points="-4,5 -4,-712 519,-712 519,5 -4,5"/>
<!-- 0 -->
<g id="node1" class="node"><title>0</title>
<polygon fill="none" stroke="green" points="276.338,-678.544 276.338,-693.456 259.738,-704 236.262,-704 219.662,-693.456 219.662,-678.544 236.262,-668 259.738,-668 276.338,-678.544"/>
<polygon fill="none" stroke="green" points="280.268,-676.325 280.268,-695.675 260.863,-708 235.137,-708 215.732,-695.675 215.732,-676.325 235.137,-664 260.863,-664 280.268,-676.325"/>
<text text-anchor="middle" x="248" y="-682.3" font-family="Times,serif" font-size="14.00">%$s</text>
</g>
<!-- 0_kids -->
<g id="node2" class="node"><title>0_kids</title>
<path fill="none" stroke="grey" d="M221,-591C221,-591 281,-591 281,-591 287,-591 293,-597 293,-603 293,-603 293,-615 293,-615 293,-621 287,-627 281,-627 281,-627 221,-627 221,-627 215,-627 209,-621 209,-615 209,-615 209,-603 209,-603 209,-597 215,-591 221,-591"/>
<text text-anchor="middle" x="222" y="-605.3" font-family="Times,serif" font-size="14.00" fill="blue">A</text>
<polyline fill="none" stroke="grey" points="235,-591 235,-627 "/>
<text text-anchor="middle" x="248" y="-605.3" font-family="Times,serif" font-size="14.00" fill="blue">C</text>
<polyline fill="none" stroke="grey" points="261,-591 261,-627 "/>
<text text-anchor="middle" x="277" y="-605.3" font-family="Times,serif" font-size="14.00" fill="blue">els</text>
</g>
<!-- 0&#45;&gt;0_kids -->
<g id="edge1" class="edge"><title>0&#45;&gt;0_kids:port2</title>
<path fill="none" stroke="grey" d="M248,-663.886C248,-656.163 248,-647.138 248,-638.263"/>
<polygon fill="grey" stroke="grey" points="251.5,-638 248,-628 244.5,-638 251.5,-638"/>
</g>
<!-- 0_0_kids -->
<g id="node3" class="node"><title>0_0_kids</title>
<path fill="none" stroke="grey" d="M101,-517C101,-517 131,-517 131,-517 137,-517 143,-523 143,-529 143,-529 143,-541 143,-541 143,-547 137,-553 131,-553 131,-553 101,-553 101,-553 95,-553 89,-547 89,-541 89,-541 89,-529 89,-529 89,-523 95,-517 101,-517"/>
<text text-anchor="middle" x="116" y="-531.3" font-family="Times,serif" font-size="14.00" fill="blue">%$A</text>
</g>
<!-- 0_kids&#45;&gt;0_0_kids -->
<g id="edge2" class="edge"><title>0_kids:port1&#45;&gt;0_0_kids:port1</title>
<path fill="none" stroke="grey" d="M208,-609C176.694,-609 149.997,-582.662 133.552,-561.412"/>
<polygon fill="grey" stroke="grey" points="136.314,-559.259 127.559,-553.292 130.682,-563.416 136.314,-559.259"/>
</g>
<!-- 0_1_kids -->
<g id="node11" class="node"><title>0_1_kids</title>
<path fill="none" stroke="grey" d="M233,-517C233,-517 263,-517 263,-517 269,-517 275,-523 275,-529 275,-529 275,-541 275,-541 275,-547 269,-553 263,-553 263,-553 233,-553 233,-553 227,-553 221,-547 221,-541 221,-541 221,-529 221,-529 221,-523 227,-517 233,-517"/>
<text text-anchor="middle" x="248" y="-531.3" font-family="Times,serif" font-size="14.00" fill="blue">%$C</text>
</g>
<!-- 0_kids&#45;&gt;0_1_kids -->
<g id="edge12" class="edge"><title>0_kids:port2&#45;&gt;0_1_kids:port1</title>
<path fill="none" stroke="grey" d="M248,-590C248,-581.406 248,-572.057 248,-563.546"/>
<polygon fill="grey" stroke="grey" points="251.5,-563.333 248,-553.333 244.5,-563.333 251.5,-563.333"/>
</g>
<!-- 0_2_kids -->
<g id="node21" class="node"><title>0_2_kids</title>
<path fill="none" stroke="grey" d="M347,-517C347,-517 377,-517 377,-517 383,-517 389,-523 389,-529 389,-529 389,-541 389,-541 389,-547 383,-553 377,-553 377,-553 347,-553 347,-553 341,-553 335,-547 335,-541 335,-541 335,-529 335,-529 335,-523 341,-517 347,-517"/>
<text text-anchor="middle" x="362" y="-531.3" font-family="Times,serif" font-size="14.00" fill="blue">@$els</text>
</g>
<!-- 0_kids&#45;&gt;0_2_kids -->
<g id="edge22" class="edge"><title>0_kids:port3&#45;&gt;0_2_kids:port1</title>
<path fill="none" stroke="grey" d="M294,-609C320.176,-609 339.025,-583.586 350.146,-562.545"/>
<polygon fill="grey" stroke="grey" points="353.425,-563.809 354.71,-553.292 347.147,-560.712 353.425,-563.809"/>
</g>
<!-- 0_0_0_kids -->
<g id="node4" class="node"><title>0_0_0_kids</title>
<path fill="none" stroke="grey" d="M43,-443C43,-443 165,-443 165,-443 171,-443 177,-449 177,-455 177,-455 177,-467 177,-467 177,-473 171,-479 165,-479 165,-479 43,-479 43,-479 37,-479 31,-473 31,-467 31,-467 31,-455 31,-455 31,-449 37,-443 43,-443"/>
<text text-anchor="middle" x="42.5" y="-457.3" font-family="Times,serif" font-size="14.00" fill="blue">a</text>
<polyline fill="none" stroke="grey" points="54,-443 54,-479 "/>
<text text-anchor="middle" x="82.5" y="-457.3" font-family="Times,serif" font-size="14.00" fill="blue">bbbbbb</text>
<polyline fill="none" stroke="grey" points="111,-443 111,-479 "/>
<text text-anchor="middle" x="132.5" y="-457.3" font-family="Times,serif" font-size="14.00" fill="blue">c123</text>
<polyline fill="none" stroke="grey" points="154,-443 154,-479 "/>
<text text-anchor="middle" x="165.5" y="-457.3" font-family="Times,serif" font-size="14.00" fill="blue">d</text>
</g>
<!-- 0_0_kids&#45;&gt;0_0_0_kids -->
<g id="edge3" class="edge"><title>0_0_kids:port1&#45;&gt;0_0_0_kids:port2</title>
<path fill="none" stroke="grey" d="M97.8056,-516.825C91.7427,-509.328 85.8835,-500.066 83.3328,-490.126"/>
<polygon fill="grey" stroke="grey" points="86.7752,-489.458 82,-480 79.835,-490.371 86.7752,-489.458"/>
</g>
<!-- 0_0_0_0_kids -->
<g id="node5" class="node"><title>0_0_0_0_kids</title>
<path fill="none" stroke="grey" d="M12,-369C12,-369 42,-369 42,-369 48,-369 54,-375 54,-381 54,-381 54,-393 54,-393 54,-399 48,-405 42,-405 42,-405 12,-405 12,-405 6,-405 0,-399 0,-393 0,-393 0,-381 0,-381 0,-375 6,-369 12,-369"/>
<text text-anchor="middle" x="27" y="-383.3" font-family="Times,serif" font-size="14.00" fill="blue">%$a</text>
</g>
<!-- 0_0_0_kids&#45;&gt;0_0_0_0_kids -->
<g id="edge4" class="edge"><title>0_0_0_kids:port1&#45;&gt;0_0_0_0_kids:port1</title>
<path fill="none" stroke="grey" d="M42,-442C42,-432.966 40.0929,-423.381 37.6387,-414.788"/>
<polygon fill="grey" stroke="grey" points="40.9675,-413.706 34.5879,-405.247 34.3001,-415.838 40.9675,-413.706"/>
</g>
<!-- 0_0_0_1_kids -->
<g id="node6" class="node"><title>0_0_0_1_kids</title>
<path fill="none" stroke="grey" d="M15,-295C15,-295 55,-295 55,-295 61,-295 67,-301 67,-307 67,-307 67,-319 67,-319 67,-325 61,-331 55,-331 55,-331 15,-331 15,-331 9,-331 3,-325 3,-319 3,-319 3,-307 3,-307 3,-301 9,-295 15,-295"/>
<text text-anchor="middle" x="35" y="-309.3" font-family="Times,serif" font-size="14.00" fill="blue">$bbbbbb</text>
</g>
<!-- 0_0_0_kids&#45;&gt;0_0_0_1_kids -->
<g id="edge5" class="edge"><title>0_0_0_kids:port2&#45;&gt;0_0_0_1_kids:port1</title>
<path fill="none" stroke="grey" d="M82,-442C82,-405.012 64.7311,-365.467 51.1285,-340.056"/>
<polygon fill="grey" stroke="grey" points="54.0443,-338.096 46.1383,-331.043 47.9204,-341.487 54.0443,-338.096"/>
</g>
<!-- 0_0_0_2_kids -->
<g id="node8" class="node"><title>0_0_0_2_kids</title>
<path fill="none" stroke="grey" d="M97,-295C97,-295 127,-295 127,-295 133,-295 139,-301 139,-307 139,-307 139,-319 139,-319 139,-325 133,-331 127,-331 127,-331 97,-331 97,-331 91,-331 85,-325 85,-319 85,-319 85,-307 85,-307 85,-301 91,-295 97,-295"/>
<text text-anchor="middle" x="112" y="-309.3" font-family="Times,serif" font-size="14.00" fill="blue">$c123</text>
</g>
<!-- 0_0_0_kids&#45;&gt;0_0_0_2_kids -->
<g id="edge7" class="edge"><title>0_0_0_kids:port3&#45;&gt;0_0_0_2_kids:port1</title>
<path fill="none" stroke="grey" d="M133,-442C133,-406.9 125.333,-367.119 119.264,-341.128"/>
<polygon fill="grey" stroke="grey" points="122.621,-340.118 116.871,-331.22 115.816,-341.762 122.621,-340.118"/>
</g>
<!-- 0_0_0_3_kids -->
<g id="node9" class="node"><title>0_0_0_3_kids</title>
<path fill="none" stroke="grey" d="M197.5,-369C197.5,-369 240.5,-369 240.5,-369 246.5,-369 252.5,-375 252.5,-381 252.5,-381 252.5,-393 252.5,-393 252.5,-399 246.5,-405 240.5,-405 240.5,-405 197.5,-405 197.5,-405 191.5,-405 185.5,-399 185.5,-393 185.5,-393 185.5,-381 185.5,-381 185.5,-375 191.5,-369 197.5,-369"/>
<text text-anchor="middle" x="219" y="-383.3" font-family="Times,serif" font-size="14.00" fill="blue">Object: d</text>
</g>
<!-- 0_0_0_kids&#45;&gt;0_0_0_3_kids -->
<g id="edge9" class="edge"><title>0_0_0_kids:port4&#45;&gt;0_0_0_3_kids:port1</title>
<path fill="none" stroke="grey" d="M166,-442C166,-430.308 172.287,-420.145 180.531,-411.846"/>
<polygon fill="grey" stroke="grey" points="183.031,-414.306 188.17,-405.04 178.375,-409.079 183.031,-414.306"/>
</g>
<!-- &amp;CODE(0x11d6f78) -->
<g id="node7" class="node"><title>&amp;CODE(0x11d6f78)</title>
<ellipse fill="none" stroke="grey" cx="112" cy="-239" rx="85.19" ry="18"/>
<text text-anchor="middle" x="112" y="-235.3" font-family="Times,serif" font-size="14.00" fill="red">&amp;CODE(0x11d6f78)</text>
</g>
<!-- 0_0_0_1_kids&#45;&gt;&amp;CODE(0x11d6f78) -->
<g id="edge6" class="edge"><title>0_0_0_1_kids:port1&#45;&gt;&amp;CODE(0x11d6f78)</title>
<path fill="none" stroke="grey" d="M54.0337,-294.955C63.9247,-285.578 76.1417,-273.995 86.8058,-263.885"/>
<polygon fill="grey" stroke="grey" points="89.3919,-266.257 94.241,-256.836 84.5759,-261.177 89.3919,-266.257"/>
</g>
<!-- 0_0_0_2_kids&#45;&gt;&amp;CODE(0x11d6f78) -->
<g id="edge8" class="edge"><title>0_0_0_2_kids:port1&#45;&gt;&amp;CODE(0x11d6f78)</title>
<path fill="none" stroke="grey" d="M112,-294.955C112,-286.701 112,-276.738 112,-267.574"/>
<polygon fill="grey" stroke="grey" points="115.5,-267.335 112,-257.335 108.5,-267.335 115.5,-267.335"/>
</g>
<!-- $REF(0x1074058) -->
<g id="node10" class="node"><title>$REF(0x1074058)</title>
<ellipse fill="none" stroke="grey" cx="234" cy="-313" rx="76.5394" ry="18"/>
<text text-anchor="middle" x="234" y="-309.3" font-family="Times,serif" font-size="14.00" fill="red">$REF(0x1074058)</text>
</g>
<!-- 0_0_0_3_kids&#45;&gt;$REF(0x1074058) -->
<g id="edge10" class="edge"><title>0_0_0_3_kids:port1&#45;&gt;$REF(0x1074058)</title>
<path fill="none" stroke="grey" d="M222.708,-368.955C224.422,-360.611 226.496,-350.521 228.395,-341.276"/>
<polygon fill="grey" stroke="grey" points="231.854,-341.835 230.438,-331.335 224.997,-340.426 231.854,-341.835"/>
</g>
<!-- $REF(0x1074058)&#45;&gt;&amp;CODE(0x11d6f78) -->
<g id="edge11" class="edge"><title>$REF(0x1074058)&#45;&gt;&amp;CODE(0x11d6f78)</title>
<path fill="none" stroke="grey" d="M206.924,-296.021C189.592,-285.792 166.902,-272.401 148.052,-261.277"/>
<polygon fill="grey" stroke="grey" points="149.813,-258.252 139.422,-256.183 146.255,-264.28 149.813,-258.252"/>
</g>
<!-- 0_1_0_kids -->
<g id="node12" class="node"><title>0_1_0_kids</title>
<path fill="none" stroke="grey" d="M233,-443C233,-443 263,-443 263,-443 269,-443 275,-449 275,-455 275,-455 275,-467 275,-467 275,-473 269,-479 263,-479 263,-479 233,-479 233,-479 227,-479 221,-473 221,-467 221,-467 221,-455 221,-455 221,-449 227,-443 233,-443"/>
<text text-anchor="middle" x="248" y="-457.3" font-family="Times,serif" font-size="14.00" fill="blue">b</text>
</g>
<!-- 0_1_kids&#45;&gt;0_1_0_kids -->
<g id="edge13" class="edge"><title>0_1_kids:port1&#45;&gt;0_1_0_kids:port1</title>
<path fill="none" stroke="grey" d="M248,-516.708C248,-508.464 248,-498.538 248,-489.362"/>
<polygon fill="grey" stroke="grey" points="251.5,-489.082 248,-479.082 244.5,-489.082 251.5,-489.082"/>
</g>
<!-- 0_1_0_0_kids -->
<g id="node13" class="node"><title>0_1_0_0_kids</title>
<path fill="none" stroke="grey" d="M319,-369C319,-369 349,-369 349,-369 355,-369 361,-375 361,-381 361,-381 361,-393 361,-393 361,-399 355,-405 349,-405 349,-405 319,-405 319,-405 313,-405 307,-399 307,-393 307,-393 307,-381 307,-381 307,-375 313,-369 319,-369"/>
<text text-anchor="middle" x="334" y="-383.3" font-family="Times,serif" font-size="14.00" fill="blue">%$b</text>
</g>
<!-- 0_1_0_kids&#45;&gt;0_1_0_0_kids -->
<g id="edge14" class="edge"><title>0_1_0_kids:port1&#45;&gt;0_1_0_0_kids:port1</title>
<path fill="none" stroke="grey" d="M269.258,-442.708C280.089,-433.388 293.418,-421.92 305.16,-411.816"/>
<polygon fill="grey" stroke="grey" points="307.689,-414.257 312.986,-405.082 303.123,-408.951 307.689,-414.257"/>
</g>
<!-- 0_1_0_0_0_kids -->
<g id="node14" class="node"><title>0_1_0_0_0_kids</title>
<path fill="none" stroke="grey" d="M341,-295C341,-295 371,-295 371,-295 377,-295 383,-301 383,-307 383,-307 383,-319 383,-319 383,-325 377,-331 371,-331 371,-331 341,-331 341,-331 335,-331 329,-325 329,-319 329,-319 329,-307 329,-307 329,-301 335,-295 341,-295"/>
<text text-anchor="middle" x="356" y="-309.3" font-family="Times,serif" font-size="14.00" fill="blue">a</text>
</g>
<!-- 0_1_0_0_kids&#45;&gt;0_1_0_0_0_kids -->
<g id="edge15" class="edge"><title>0_1_0_0_kids:port1&#45;&gt;0_1_0_0_0_kids:port1</title>
<path fill="none" stroke="grey" d="M339.438,-368.708C341.943,-360.284 344.969,-350.105 347.746,-340.765"/>
<polygon fill="grey" stroke="grey" points="351.129,-341.665 350.624,-331.082 344.42,-339.67 351.129,-341.665"/>
</g>
<!-- 0_1_0_0_0_0_kids -->
<g id="node15" class="node"><title>0_1_0_0_0_0_kids</title>
<path fill="none" stroke="grey" d="M341,-221C341,-221 371,-221 371,-221 377,-221 383,-227 383,-233 383,-233 383,-245 383,-245 383,-251 377,-257 371,-257 371,-257 341,-257 341,-257 335,-257 329,-251 329,-245 329,-245 329,-233 329,-233 329,-227 335,-221 341,-221"/>
<text text-anchor="middle" x="356" y="-235.3" font-family="Times,serif" font-size="14.00" fill="blue">%$a</text>
</g>
<!-- 0_1_0_0_0_kids&#45;&gt;0_1_0_0_0_0_kids -->
<g id="edge16" class="edge"><title>0_1_0_0_0_kids:port1&#45;&gt;0_1_0_0_0_0_kids:port1</title>
<path fill="none" stroke="grey" d="M356,-294.708C356,-286.464 356,-276.538 356,-267.362"/>
<polygon fill="grey" stroke="grey" points="359.5,-267.082 356,-257.082 352.5,-267.082 359.5,-267.082"/>
</g>
<!-- 0_1_0_0_0_0_0_kids -->
<g id="node16" class="node"><title>0_1_0_0_0_0_0_kids</title>
<path fill="none" stroke="grey" d="M333.5,-147C333.5,-147 378.5,-147 378.5,-147 384.5,-147 390.5,-153 390.5,-159 390.5,-159 390.5,-171 390.5,-171 390.5,-177 384.5,-183 378.5,-183 378.5,-183 333.5,-183 333.5,-183 327.5,-183 321.5,-177 321.5,-171 321.5,-171 321.5,-159 321.5,-159 321.5,-153 327.5,-147 333.5,-147"/>
<text text-anchor="middle" x="333" y="-161.3" font-family="Times,serif" font-size="14.00" fill="blue">a</text>
<polyline fill="none" stroke="grey" points="344.5,-147 344.5,-183 "/>
<text text-anchor="middle" x="356" y="-161.3" font-family="Times,serif" font-size="14.00" fill="blue">b</text>
<polyline fill="none" stroke="grey" points="367.5,-147 367.5,-183 "/>
<text text-anchor="middle" x="379" y="-161.3" font-family="Times,serif" font-size="14.00" fill="blue">c</text>
</g>
<!-- 0_1_0_0_0_0_kids&#45;&gt;0_1_0_0_0_0_0_kids -->
<g id="edge17" class="edge"><title>0_1_0_0_0_0_kids:port1&#45;&gt;0_1_0_0_0_0_0_kids:port2</title>
<path fill="none" stroke="grey" d="M356,-220.667C356,-212.896 356,-203.513 356,-194.275"/>
<polygon fill="grey" stroke="grey" points="359.5,-194 356,-184 352.5,-194 359.5,-194"/>
</g>
<!-- 0_1_0_0_0_0_0_0_kids -->
<g id="node17" class="node"><title>0_1_0_0_0_0_0_0_kids</title>
<path fill="none" stroke="grey" d="M269,-73C269,-73 299,-73 299,-73 305,-73 311,-79 311,-85 311,-85 311,-97 311,-97 311,-103 305,-109 299,-109 299,-109 269,-109 269,-109 263,-109 257,-103 257,-97 257,-97 257,-85 257,-85 257,-79 263,-73 269,-73"/>
<text text-anchor="middle" x="284" y="-87.3" font-family="Times,serif" font-size="14.00" fill="blue">%$a</text>
</g>
<!-- 0_1_0_0_0_0_0_kids&#45;&gt;0_1_0_0_0_0_0_0_kids -->
<g id="edge18" class="edge"><title>0_1_0_0_0_0_0_kids:port1&#45;&gt;0_1_0_0_0_0_0_0_kids:port1</title>
<path fill="none" stroke="grey" d="M333,-146C333,-138.727 323.326,-127.058 312.574,-116.336"/>
<polygon fill="grey" stroke="grey" points="314.704,-113.528 305.065,-109.13 309.857,-118.579 314.704,-113.528"/>
</g>
<!-- 0_1_0_0_0_0_0_1_kids -->
<g id="node18" class="node"><title>0_1_0_0_0_0_0_1_kids</title>
<path fill="none" stroke="grey" d="M341,-73C341,-73 371,-73 371,-73 377,-73 383,-79 383,-85 383,-85 383,-97 383,-97 383,-103 377,-109 371,-109 371,-109 341,-109 341,-109 335,-109 329,-103 329,-97 329,-97 329,-85 329,-85 329,-79 335,-73 341,-73"/>
<text text-anchor="middle" x="356" y="-87.3" font-family="Times,serif" font-size="14.00" fill="blue">$b</text>
</g>
<!-- 0_1_0_0_0_0_0_kids&#45;&gt;0_1_0_0_0_0_0_1_kids -->
<g id="edge19" class="edge"><title>0_1_0_0_0_0_0_kids:port2&#45;&gt;0_1_0_0_0_0_0_1_kids:port1</title>
<path fill="none" stroke="grey" d="M356,-146C356,-137.406 356,-128.057 356,-119.546"/>
<polygon fill="grey" stroke="grey" points="359.5,-119.333 356,-109.333 352.5,-119.333 359.5,-119.333"/>
</g>
<!-- 0_1_0_0_0_0_0_2_kids -->
<g id="node20" class="node"><title>0_1_0_0_0_0_0_2_kids</title>
<path fill="none" stroke="grey" d="M413,-73C413,-73 443,-73 443,-73 449,-73 455,-79 455,-85 455,-85 455,-97 455,-97 455,-103 449,-109 443,-109 443,-109 413,-109 413,-109 407,-109 401,-103 401,-97 401,-97 401,-85 401,-85 401,-79 407,-73 413,-73"/>
<text text-anchor="middle" x="428" y="-87.3" font-family="Times,serif" font-size="14.00" fill="blue">42</text>
</g>
<!-- 0_1_0_0_0_0_0_kids&#45;&gt;0_1_0_0_0_0_0_2_kids -->
<g id="edge21" class="edge"><title>0_1_0_0_0_0_0_kids:port3&#45;&gt;0_1_0_0_0_0_0_2_kids:port1</title>
<path fill="none" stroke="grey" d="M379,-146C379,-138.727 388.674,-127.058 399.426,-116.336"/>
<polygon fill="grey" stroke="grey" points="402.143,-118.579 406.935,-109.13 397.296,-113.528 402.143,-118.579"/>
</g>
<!-- &amp;CODE(0x12ecec8) -->
<g id="node19" class="node"><title>&amp;CODE(0x12ecec8)</title>
<ellipse fill="none" stroke="grey" cx="356" cy="-18" rx="85.2138" ry="18"/>
<text text-anchor="middle" x="356" y="-14.3" font-family="Times,serif" font-size="14.00" fill="red">&amp;CODE(0x12ecec8)</text>
</g>
<!-- 0_1_0_0_0_0_0_1_kids&#45;&gt;&amp;CODE(0x12ecec8) -->
<g id="edge20" class="edge"><title>0_1_0_0_0_0_0_1_kids:port1&#45;&gt;&amp;CODE(0x12ecec8)</title>
<path fill="none" stroke="grey" d="M356,-72.8314C356,-64.894 356,-55.4095 356,-46.6285"/>
<polygon fill="grey" stroke="grey" points="359.5,-46.4177 356,-36.4177 352.5,-46.4177 359.5,-46.4177"/>
</g>
<!-- 0_2_0_kids -->
<g id="node22" class="node"><title>0_2_0_kids</title>
<path fill="none" stroke="grey" d="M305,-443C305,-443 503,-443 503,-443 509,-443 515,-449 515,-455 515,-455 515,-467 515,-467 515,-473 509,-479 503,-479 503,-479 305,-479 305,-479 299,-479 293,-473 293,-467 293,-467 293,-455 293,-455 293,-449 299,-443 305,-443"/>
<text text-anchor="middle" x="330" y="-457.3" font-family="Times,serif" font-size="14.00" fill="blue">element_1</text>
<polyline fill="none" stroke="grey" points="367,-443 367,-479 "/>
<text text-anchor="middle" x="404" y="-457.3" font-family="Times,serif" font-size="14.00" fill="blue">element_2</text>
<polyline fill="none" stroke="grey" points="441,-443 441,-479 "/>
<text text-anchor="middle" x="478" y="-457.3" font-family="Times,serif" font-size="14.00" fill="blue">element_3</text>
</g>
<!-- 0_2_kids&#45;&gt;0_2_0_kids -->
<g id="edge23" class="edge"><title>0_2_kids:port1&#45;&gt;0_2_0_kids:port2</title>
<path fill="none" stroke="grey" d="M385.456,-516.643C392.747,-509.313 399.637,-500.191 402.547,-490.032"/>
<polygon fill="grey" stroke="grey" points="406.03,-490.399 404,-480 399.102,-489.395 406.03,-490.399"/>
</g>
</g>
</svg>
