<?xml version="1.0" encoding="UTF-8" standalone="no"?>
<!DOCTYPE svg PUBLIC "-//W3C//DTD SVG 1.1//EN"
 "http://www.w3.org/Graphics/SVG/1.1/DTD/svg11.dtd">
<!-- Generated by graphviz version 2.38.0 (20140413.2041)
 -->
<!-- Title: Perl Pages: 1 -->
<svg width="3972pt" height="332pt"
 viewBox="0.00 0.00 3972.10 332.00" xmlns="http://www.w3.org/2000/svg" xmlns:xlink="http://www.w3.org/1999/xlink">
<g id="graph0" class="graph" transform="scale(1 1) rotate(0) translate(4 328)">
<title>Perl</title>
<polygon fill="white" stroke="none" points="-4,4 -4,-328 3968.1,-328 3968.1,4 -4,4"/>
<!-- Grammar -->
<g id="node1" class="node"><title>Grammar</title>
<ellipse fill="none" stroke="blue" cx="2168.25" cy="-306" rx="45.4919" ry="18"/>
<text text-anchor="middle" x="2168.25" y="-302.3" font-family="Times,serif" font-size="14.00">Grammar</text>
</g>
<!-- defn -->
<g id="node2" class="node"><title>defn</title>
<ellipse fill="none" stroke="blue" cx="923.253" cy="-90" rx="108.581" ry="18"/>
<text text-anchor="middle" x="923.253" y="-86.3" font-family="Times,serif" font-size="14.00">&#39;var&#39; id &#39;holds&#39; typename &#39;;&#39; &#160;</text>
</g>
<!-- Grammar&#45;&gt;defn -->
<g id="edge3" class="edge"><title>Grammar&#45;&gt;defn</title>
<path fill="none" stroke="grey" d="M2122.64,-305.088C1928.91,-305.148 1179.93,-302.112 1088.25,-252 1036.53,-223.726 1054.52,-184.043 1011.25,-144 997.904,-131.645 981.225,-120.723 965.988,-112.052"/>
<polygon fill="grey" stroke="grey" points="967.665,-108.981 957.219,-107.214 964.283,-115.109 967.665,-108.981"/>
</g>
<!-- id -->
<g id="node3" class="node"><title>id</title>
<ellipse fill="none" stroke="blue" cx="534.253" cy="-18" rx="534.005" ry="18"/>
<text text-anchor="middle" x="534.253" y="-14.3" font-family="Times,serif" font-size="14.00">/[a&#45;z]		# LEADING ALPHABETIC\n		 &#160;\w*		# FOLLOWED BY ALPHAS, DIGITS, OR UNDERSCORES\n		 /ix &#160;</text>
</g>
<!-- Grammar&#45;&gt;id -->
<g id="edge28" class="edge"><title>Grammar&#45;&gt;id</title>
<path fill="none" stroke="grey" d="M2122.73,-305.18C1866.63,-305.987 614.83,-307.094 556.253,-252 499.726,-198.835 515.297,-95.3142 526.851,-46.1629"/>
<polygon fill="grey" stroke="grey" points="530.297,-46.8108 529.3,-36.263 523.501,-45.1301 530.297,-46.8108"/>
</g>
<!-- typename -->
<g id="node4" class="node"><title>typename</title>
<ellipse fill="none" stroke="blue" cx="1114.25" cy="-18" rx="27.8951" ry="18"/>
<text text-anchor="middle" x="1114.25" y="-14.3" font-family="Times,serif" font-size="14.00">&#39;int&#39; &#160;</text>
</g>
<!-- Grammar&#45;&gt;typename -->
<g id="edge26" class="edge"><title>Grammar&#45;&gt;typename</title>
<path fill="none" stroke="grey" d="M2122.77,-304.21C1929.9,-300.662 1187.83,-284.909 1151.25,-252 1121.28,-225.032 1115.53,-101.741 1114.47,-46.2291"/>
<polygon fill="grey" stroke="grey" points="1117.96,-46.0244 1114.31,-36.0791 1110.96,-46.1315 1117.96,-46.0244"/>
</g>
<!-- test2 -->
<g id="node5" class="node"><title>test2</title>
<ellipse fill="none" stroke="blue" cx="1302.25" cy="-234" rx="141.875" ry="18"/>
<text text-anchor="middle" x="1302.25" y="-230.3" font-family="Times,serif" font-size="14.00">$arg{article} $arg[3][$arg{sound}] &#160;</text>
</g>
<!-- Grammar&#45;&gt;test2 -->
<g id="edge4" class="edge"><title>Grammar&#45;&gt;test2</title>
<path fill="none" stroke="grey" d="M2123.76,-302.207C2011.86,-295.067 1709.66,-275.076 1458.25,-252 1443.92,-250.685 1428.87,-249.189 1414,-247.643"/>
<polygon fill="grey" stroke="grey" points="1414.05,-244.129 1403.74,-246.566 1413.32,-251.091 1414.05,-244.129"/>
</g>
<!-- is -->
<g id="node6" class="node"><title>is</title>
<ellipse fill="none" stroke="blue" cx="1578.25" cy="-162" rx="42.7926" ry="18"/>
<text text-anchor="middle" x="1578.25" y="-158.3" font-family="Times,serif" font-size="14.00">&#39;is&#39; &#160;&#39;are&#39; &#160;</text>
</g>
<!-- Grammar&#45;&gt;is -->
<g id="edge5" class="edge"><title>Grammar&#45;&gt;is</title>
<path fill="none" stroke="grey" d="M2122.77,-304.926C1977.87,-304.224 1534.05,-298.28 1491.25,-252 1480.39,-240.253 1483.42,-229.95 1491.25,-216 1500.97,-198.696 1518.89,-186.379 1535.95,-178.001"/>
<polygon fill="grey" stroke="grey" points="1537.63,-181.079 1545.28,-173.745 1534.73,-174.71 1537.63,-181.079"/>
</g>
<!-- test3 -->
<g id="node7" class="node"><title>test3</title>
<ellipse fill="none" stroke="blue" cx="786.253" cy="-234" rx="204.164" ry="18"/>
<text text-anchor="middle" x="786.253" y="-230.3" font-family="Times,serif" font-size="14.00">_alternation_1_of_production_1_of_rule_test3(5..10) &#160;</text>
</g>
<!-- Grammar&#45;&gt;test3 -->
<g id="edge7" class="edge"><title>Grammar&#45;&gt;test3</title>
<path fill="none" stroke="grey" d="M2123.01,-303.467C1967.37,-298.079 1439.62,-278.88 1004.25,-252 983.4,-250.713 961.438,-249.193 939.808,-247.601"/>
<polygon fill="grey" stroke="grey" points="939.794,-244.09 929.562,-246.839 939.275,-251.071 939.794,-244.09"/>
</g>
<!-- _alternation_1_of_production_1_of_rule_test3 -->
<g id="node8" class="node"><title>_alternation_1_of_production_1_of_rule_test3</title>
<ellipse fill="none" stroke="blue" cx="923.253" cy="-162" rx="79.0865" ry="18"/>
<text text-anchor="middle" x="923.253" y="-158.3" font-family="Times,serif" font-size="14.00">defn &#160;typedef &#160;fail &#160;</text>
</g>
<!-- Grammar&#45;&gt;_alternation_1_of_production_1_of_rule_test3 -->
<g id="edge32" class="edge"><title>Grammar&#45;&gt;_alternation_1_of_production_1_of_rule_test3</title>
<path fill="none" stroke="grey" d="M2122.68,-304.569C1924.62,-302.466 1144.01,-291.704 1042.25,-252 1019.03,-242.94 1019.05,-231.143 999.253,-216 985.418,-205.417 969.69,-194.305 956.145,-185.004"/>
<polygon fill="grey" stroke="grey" points="957.835,-181.921 947.601,-179.178 953.891,-187.704 957.835,-181.921"/>
</g>
<!-- cat -->
<g id="node9" class="node"><title>cat</title>
<ellipse fill="none" stroke="blue" cx="2250.25" cy="-234" rx="135.676" ry="18"/>
<text text-anchor="middle" x="2250.25" y="-230.3" font-family="Times,serif" font-size="14.00">&lt;reject: $arg[0] ne &#39;meows&#39;&gt; &#39;cat&#39; &#160;&#160;</text>
</g>
<!-- Grammar&#45;&gt;cat -->
<g id="edge8" class="edge"><title>Grammar&#45;&gt;cat</title>
<path fill="none" stroke="grey" d="M2186.45,-289.465C2197.03,-280.432 2210.58,-268.864 2222.47,-258.714"/>
<polygon fill="grey" stroke="grey" points="2225.05,-261.116 2230.38,-251.962 2220.5,-255.792 2225.05,-261.116"/>
</g>
<!-- test6 -->
<g id="node10" class="node"><title>test6</title>
<ellipse fill="none" stroke="blue" cx="2776.25" cy="-234" rx="372.334" ry="18"/>
<text text-anchor="middle" x="2776.25" y="-230.3" font-family="Times,serif" font-size="14.00">&lt;rulevar: $test6 = 1&gt; &#160;&#39;a&#39; &lt;commit&gt; &#39;b&#39; &lt;uncommit&gt; &#39;c&#39; &lt;reject: $test6 &amp;&amp; $text&gt; &#160;&lt;uncommit&gt; &#160;&#39;a&#39; &#160;</text>
</g>
<!-- Grammar&#45;&gt;test6 -->
<g id="edge9" class="edge"><title>Grammar&#45;&gt;test6</title>
<path fill="none" stroke="grey" d="M2211.49,-300.022C2297.24,-290.149 2492.37,-267.684 2629.13,-251.938"/>
<polygon fill="grey" stroke="grey" points="2629.76,-255.39 2639.29,-250.769 2628.96,-248.435 2629.76,-255.39"/>
</g>
<!-- b -->
<g id="node11" class="node"><title>b</title>
<ellipse fill="none" stroke="blue" cx="3210.25" cy="-162" rx="27" ry="18"/>
<text text-anchor="middle" x="3210.25" y="-158.3" font-family="Times,serif" font-size="14.00">&#39;b&#39; &#160;</text>
</g>
<!-- Grammar&#45;&gt;b -->
<g id="edge10" class="edge"><title>Grammar&#45;&gt;b</title>
<path fill="none" stroke="grey" d="M2213.79,-305.054C2397.2,-304.939 3075.9,-301.165 3157.25,-252 3180.13,-238.171 3194.31,-210.387 3202.18,-189.521"/>
<polygon fill="grey" stroke="grey" points="3205.54,-190.52 3205.55,-179.925 3198.94,-188.203 3205.54,-190.52"/>
</g>
<!-- test7 -->
<g id="node12" class="node"><title>test7</title>
<ellipse fill="none" stroke="blue" cx="3378.25" cy="-234" rx="76.0865" ry="18"/>
<text text-anchor="middle" x="3378.25" y="-230.3" font-family="Times,serif" font-size="14.00">&#39;x&#39; &lt;resync&gt; /y+/ &#160;</text>
</g>
<!-- Grammar&#45;&gt;test7 -->
<g id="edge11" class="edge"><title>Grammar&#45;&gt;test7</title>
<path fill="none" stroke="grey" d="M2213.74,-305.302C2366.69,-305.799 2876.24,-303.229 3293.25,-252 3300.34,-251.13 3307.72,-249.998 3315.04,-248.732"/>
<polygon fill="grey" stroke="grey" points="3315.73,-252.163 3324.95,-246.934 3314.48,-245.275 3315.73,-252.163"/>
</g>
<!-- test1 -->
<g id="node13" class="node"><title>test1</title>
<ellipse fill="none" stroke="blue" cx="1779.25" cy="-234" rx="279.45" ry="18"/>
<text text-anchor="middle" x="1779.25" y="-230.3" font-family="Times,serif" font-size="14.00">&#39;(&#39; &#39;the&#39; &#39;$::first&#39; /te+st/ is _alternation_1_of_production_1_of_rule_test1(s?) &#160;</text>
</g>
<!-- Grammar&#45;&gt;test1 -->
<g id="edge14" class="edge"><title>Grammar&#45;&gt;test1</title>
<path fill="none" stroke="grey" d="M2127.72,-297.707C2069.31,-287.196 1959.62,-267.457 1878.85,-252.923"/>
<polygon fill="grey" stroke="grey" points="1879.12,-249.414 1868.65,-251.088 1877.88,-256.304 1879.12,-249.414"/>
</g>
<!-- _alternation_1_of_production_1_of_rule_test1 -->
<g id="node14" class="node"><title>_alternation_1_of_production_1_of_rule_test1</title>
<ellipse fill="none" stroke="blue" cx="1932.25" cy="-162" rx="34.394" ry="18"/>
<text text-anchor="middle" x="1932.25" y="-158.3" font-family="Times,serif" font-size="14.00">&#39;easy&#39; &#160;</text>
</g>
<!-- Grammar&#45;&gt;_alternation_1_of_production_1_of_rule_test1 -->
<g id="edge35" class="edge"><title>Grammar&#45;&gt;_alternation_1_of_production_1_of_rule_test1</title>
<path fill="none" stroke="grey" d="M2149.26,-289.516C2136.63,-279.096 2119.75,-264.947 2105.25,-252 2087.9,-236.505 2086.89,-228.481 2067.25,-216 2037.54,-197.113 2000.01,-183.046 1972.07,-174.169"/>
<polygon fill="grey" stroke="grey" points="1972.83,-170.74 1962.24,-171.134 1970.76,-177.428 1972.83,-170.74"/>
</g>
<!-- test5 -->
<g id="node15" class="node"><title>test5</title>
<ellipse fill="none" stroke="blue" cx="3603.25" cy="-234" rx="92.8835" ry="18"/>
<text text-anchor="middle" x="3603.25" y="-230.3" font-family="Times,serif" font-size="14.00">name notname &#160;name &#160;</text>
</g>
<!-- Grammar&#45;&gt;test5 -->
<g id="edge17" class="edge"><title>Grammar&#45;&gt;test5</title>
<path fill="none" stroke="grey" d="M2213.97,-305.121C2383.94,-305.156 2995.4,-301.608 3496.25,-252 3506.32,-251.002 3516.89,-249.673 3527.29,-248.196"/>
<polygon fill="grey" stroke="grey" points="3527.81,-251.657 3537.2,-246.74 3526.8,-244.731 3527.81,-251.657"/>
</g>
<!-- name -->
<g id="node16" class="node"><title>name</title>
<ellipse fill="none" stroke="blue" cx="3491.25" cy="-162" rx="32.4942" ry="18"/>
<text text-anchor="middle" x="3491.25" y="-158.3" font-family="Times,serif" font-size="14.00">&#39;fred&#39; &#160;</text>
</g>
<!-- Grammar&#45;&gt;name -->
<g id="edge25" class="edge"><title>Grammar&#45;&gt;name</title>
<path fill="none" stroke="grey" d="M2213.86,-304.594C2437.86,-302.415 3412.67,-290.729 3463.25,-252 3481.98,-237.661 3488.46,-210.838 3490.57,-190.373"/>
<polygon fill="grey" stroke="grey" points="3494.06,-190.583 3491.32,-180.351 3487.08,-190.063 3494.06,-190.583"/>
</g>
<!-- notname -->
<g id="node17" class="node"><title>notname</title>
<ellipse fill="none" stroke="blue" cx="3663.25" cy="-162" rx="52.7911" ry="18"/>
<text text-anchor="middle" x="3663.25" y="-158.3" font-family="Times,serif" font-size="14.00">/[a&#45;z]\w*/i &#160;</text>
</g>
<!-- Grammar&#45;&gt;notname -->
<g id="edge21" class="edge"><title>Grammar&#45;&gt;notname</title>
<path fill="none" stroke="grey" d="M2213.76,-305.189C2462.87,-306.003 3652.12,-306.996 3705.25,-252 3723.07,-233.559 3705.56,-206.152 3688.02,-186.63"/>
<polygon fill="grey" stroke="grey" points="3690.53,-184.184 3681.12,-179.311 3685.44,-188.987 3690.53,-184.184"/>
</g>
<!-- typedef -->
<g id="node18" class="node"><title>typedef</title>
<ellipse fill="none" stroke="blue" cx="671.253" cy="-90" rx="98.5829" ry="18"/>
<text text-anchor="middle" x="671.253" y="-86.3" font-family="Times,serif" font-size="14.00">&#39;type&#39; id &#39;is&#39; typename &#39;;&#39; &#160;</text>
</g>
<!-- Grammar&#45;&gt;typedef -->
<g id="edge20" class="edge"><title>Grammar&#45;&gt;typedef</title>
<path fill="none" stroke="grey" d="M2122.71,-305.248C1867.92,-306.42 628.544,-309.159 573.253,-252 532.301,-209.665 597.387,-147.268 639.642,-113.95"/>
<polygon fill="grey" stroke="grey" points="641.974,-116.571 647.75,-107.689 637.696,-111.031 641.974,-116.571"/>
</g>
<!-- fail -->
<g id="node19" class="node"><title>fail</title>
<ellipse fill="none" stroke="blue" cx="1077.25" cy="-90" rx="27" ry="18"/>
<text text-anchor="middle" x="1077.25" y="-86.3" font-family="Times,serif" font-size="14.00"> </text>
</g>
<!-- Grammar&#45;&gt;fail -->
<g id="edge22" class="edge"><title>Grammar&#45;&gt;fail</title>
<path fill="none" stroke="grey" d="M2122.7,-304.198C1926.01,-300.543 1157.65,-284.244 1118.25,-252 1078.64,-219.575 1074.25,-154.726 1075.28,-117.996"/>
<polygon fill="grey" stroke="grey" points="1078.77,-118.142 1075.71,-107.999 1071.78,-117.837 1078.77,-118.142"/>
</g>
<!-- a -->
<g id="node20" class="node"><title>a</title>
<ellipse fill="none" stroke="blue" cx="3779.25" cy="-234" rx="27" ry="18"/>
<text text-anchor="middle" x="3779.25" y="-230.3" font-family="Times,serif" font-size="14.00">&#39;a&#39; &#160;</text>
</g>
<!-- Grammar&#45;&gt;a -->
<g id="edge23" class="edge"><title>Grammar&#45;&gt;a</title>
<path fill="none" stroke="grey" d="M2213.84,-304.434C2455.97,-301.296 3586.08,-284.977 3738.25,-252 3741.67,-251.26 3745.16,-250.247 3748.6,-249.083"/>
<polygon fill="grey" stroke="grey" points="3749.92,-252.327 3758.02,-245.499 3747.43,-245.785 3749.92,-252.327"/>
</g>
<!-- the -->
<g id="node21" class="node"><title>the</title>
<ellipse fill="none" stroke="blue" cx="3853.25" cy="-234" rx="29.4969" ry="18"/>
<text text-anchor="middle" x="3853.25" y="-230.3" font-family="Times,serif" font-size="14.00">&#39;the&#39; &#160;</text>
</g>
<!-- Grammar&#45;&gt;the -->
<g id="edge24" class="edge"><title>Grammar&#45;&gt;the</title>
<path fill="none" stroke="grey" d="M2213.62,-304.587C2462.38,-302.18 3655.56,-288.787 3815.25,-252 3817.57,-251.466 3819.92,-250.789 3822.25,-250.013"/>
<polygon fill="grey" stroke="grey" points="3823.58,-253.253 3831.65,-246.392 3821.06,-246.721 3823.58,-253.253"/>
</g>
<!-- dog -->
<g id="node22" class="node"><title>dog</title>
<ellipse fill="none" stroke="blue" cx="3932.25" cy="-234" rx="31.6951" ry="18"/>
<text text-anchor="middle" x="3932.25" y="-230.3" font-family="Times,serif" font-size="14.00">&#39;dog&#39; &#160;</text>
</g>
<!-- Grammar&#45;&gt;dog -->
<g id="edge27" class="edge"><title>Grammar&#45;&gt;dog</title>
<path fill="none" stroke="grey" d="M2214,-304.579C2470.39,-302.087 3723.29,-288.134 3891.25,-252 3893.92,-251.427 3896.62,-250.689 3899.32,-249.841"/>
<polygon fill="grey" stroke="grey" points="3900.65,-253.079 3908.87,-246.394 3898.28,-246.494 3900.65,-253.079"/>
</g>
<!-- test4 -->
<g id="node23" class="node"><title>test4</title>
<ellipse fill="none" stroke="blue" cx="3244.25" cy="-234" rx="40.0939" ry="18"/>
<text text-anchor="middle" x="3244.25" y="-230.3" font-family="Times,serif" font-size="14.00">&#39;a&#39; b /c/ &#160;</text>
</g>
<!-- Grammar&#45;&gt;test4 -->
<g id="edge34" class="edge"><title>Grammar&#45;&gt;test4</title>
<path fill="none" stroke="grey" d="M2213.54,-304.174C2385.58,-300.799 2998.57,-286.563 3190.25,-252 3194.78,-251.183 3199.46,-250.096 3204.08,-248.866"/>
<polygon fill="grey" stroke="grey" points="3205.4,-252.129 3214.03,-245.991 3203.45,-245.404 3205.4,-252.129"/>
</g>
<!-- defn&#45;&gt;id -->
<g id="edge1" class="edge"><title>defn&#45;&gt;id</title>
<path fill="none" stroke="grey" d="M852.356,-76.2423C792.202,-65.4176 705.114,-49.7462 637.263,-37.5365"/>
<polygon fill="grey" stroke="grey" points="637.859,-34.0876 627.397,-35.7612 636.619,-40.977 637.859,-34.0876"/>
</g>
<!-- defn&#45;&gt;typename -->
<g id="edge2" class="edge"><title>defn&#45;&gt;typename</title>
<path fill="none" stroke="grey" d="M971.223,-73.8508C1001.84,-63.8489 1042.21,-50.039 1077.25,-36 1079.12,-35.2507 1081.04,-34.4575 1082.96,-33.6395"/>
<polygon fill="grey" stroke="grey" points="1084.76,-36.6698 1092.5,-29.4311 1081.93,-30.2654 1084.76,-36.6698"/>
</g>
<!-- test3&#45;&gt;_alternation_1_of_production_1_of_rule_test3 -->
<g id="edge6" class="edge"><title>test3&#45;&gt;_alternation_1_of_production_1_of_rule_test3</title>
<path fill="none" stroke="grey" d="M819.068,-216.233C838.426,-206.342 863.06,-193.755 883.514,-183.305"/>
<polygon fill="grey" stroke="grey" points="885.271,-186.337 892.583,-178.671 882.086,-180.104 885.271,-186.337"/>
</g>
<!-- _alternation_1_of_production_1_of_rule_test3&#45;&gt;defn -->
<g id="edge29" class="edge"><title>_alternation_1_of_production_1_of_rule_test3&#45;&gt;defn</title>
<path fill="none" stroke="grey" d="M923.253,-143.697C923.253,-135.983 923.253,-126.712 923.253,-118.112"/>
<polygon fill="grey" stroke="grey" points="926.753,-118.104 923.253,-108.104 919.753,-118.104 926.753,-118.104"/>
</g>
<!-- _alternation_1_of_production_1_of_rule_test3&#45;&gt;typedef -->
<g id="edge30" class="edge"><title>_alternation_1_of_production_1_of_rule_test3&#45;&gt;typedef</title>
<path fill="none" stroke="grey" d="M875.26,-147.669C834.768,-136.421 776.554,-120.25 732.667,-108.06"/>
<polygon fill="grey" stroke="grey" points="733.542,-104.67 722.97,-105.366 731.668,-111.415 733.542,-104.67"/>
</g>
<!-- _alternation_1_of_production_1_of_rule_test3&#45;&gt;fail -->
<g id="edge31" class="edge"><title>_alternation_1_of_production_1_of_rule_test3&#45;&gt;fail</title>
<path fill="none" stroke="grey" d="M957.668,-145.749C981.246,-135.25 1013.21,-120.919 1041.25,-108 1043.04,-107.176 1044.88,-106.324 1046.73,-105.462"/>
<polygon fill="grey" stroke="grey" points="1048.39,-108.548 1055.96,-101.135 1045.42,-102.21 1048.39,-108.548"/>
</g>
<!-- test1&#45;&gt;is -->
<g id="edge12" class="edge"><title>test1&#45;&gt;is</title>
<path fill="none" stroke="grey" d="M1731.11,-216.233C1697.22,-204.43 1652.3,-188.789 1619.94,-177.519"/>
<polygon fill="grey" stroke="grey" points="1620.92,-174.155 1610.33,-174.171 1618.62,-180.765 1620.92,-174.155"/>
</g>
<!-- test1&#45;&gt;_alternation_1_of_production_1_of_rule_test1 -->
<g id="edge13" class="edge"><title>test1&#45;&gt;_alternation_1_of_production_1_of_rule_test1</title>
<path fill="none" stroke="grey" d="M1816.29,-216.055C1841.12,-204.696 1873.58,-189.843 1897.84,-178.742"/>
<polygon fill="grey" stroke="grey" points="1899.4,-181.88 1907.04,-174.537 1896.49,-175.515 1899.4,-181.88"/>
</g>
<!-- test5&#45;&gt;name -->
<g id="edge15" class="edge"><title>test5&#45;&gt;name</title>
<path fill="none" stroke="grey" d="M3576.99,-216.588C3560.15,-206.058 3538.24,-192.366 3520.79,-181.458"/>
<polygon fill="grey" stroke="grey" points="3522.45,-178.371 3512.11,-176.039 3518.74,-184.307 3522.45,-178.371"/>
</g>
<!-- test5&#45;&gt;notname -->
<g id="edge16" class="edge"><title>test5&#45;&gt;notname</title>
<path fill="none" stroke="grey" d="M3617.78,-216.055C3625.15,-207.457 3634.23,-196.857 3642.34,-187.397"/>
<polygon fill="grey" stroke="grey" points="3645.01,-189.659 3648.86,-179.789 3639.7,-185.104 3645.01,-189.659"/>
</g>
<!-- typedef&#45;&gt;id -->
<g id="edge18" class="edge"><title>typedef&#45;&gt;id</title>
<path fill="none" stroke="grey" d="M639.478,-72.7646C620.833,-63.2381 597.034,-51.0783 576.788,-40.7333"/>
<polygon fill="grey" stroke="grey" points="578.264,-37.5572 567.767,-36.1239 575.079,-43.7907 578.264,-37.5572"/>
</g>
<!-- typedef&#45;&gt;typename -->
<g id="edge19" class="edge"><title>typedef&#45;&gt;typename</title>
<path fill="none" stroke="grey" d="M750.034,-79.0171C865.887,-64.2943 1069.45,-38.2457 1077.25,-36 1079.41,-35.3804 1081.59,-34.6537 1083.77,-33.856"/>
<polygon fill="grey" stroke="grey" points="1085.22,-37.044 1093.15,-30.0151 1082.57,-30.5662 1085.22,-37.044"/>
</g>
<!-- test4&#45;&gt;b -->
<g id="edge33" class="edge"><title>test4&#45;&gt;b</title>
<path fill="none" stroke="grey" d="M3236.02,-216.055C3232,-207.767 3227.07,-197.618 3222.6,-188.424"/>
<polygon fill="grey" stroke="grey" points="3225.69,-186.773 3218.17,-179.307 3219.39,-189.831 3225.69,-186.773"/>
</g>
</g>
</svg>
