<?xml version="1.0" encoding="UTF-8" standalone="no"?>
<!DOCTYPE svg PUBLIC "-//W3C//DTD SVG 1.1//EN"
 "http://www.w3.org/Graphics/SVG/1.1/DTD/svg11.dtd">
<!-- Generated by graphviz version 2.38.0 (20140413.2041)
 -->
<!-- Title: Perl Pages: 1 -->
<svg width="3501pt" height="332pt"
 viewBox="0.00 0.00 3500.65 332.00" xmlns="http://www.w3.org/2000/svg" xmlns:xlink="http://www.w3.org/1999/xlink">
<g id="graph0" class="graph" transform="scale(1 1) rotate(0) translate(4 328)">
<title>Perl</title>
<polygon fill="white" stroke="none" points="-4,4 -4,-328 3496.65,-328 3496.65,4 -4,4"/>
<!-- Grammar -->
<g id="node1" class="node"><title>Grammar</title>
<ellipse fill="none" stroke="blue" cx="1534.65" cy="-306" rx="45.4919" ry="18"/>
<text text-anchor="middle" x="1534.65" y="-302.3" font-family="Times,serif" font-size="14.00">Grammar</text>
</g>
<!-- notname -->
<g id="node2" class="node"><title>notname</title>
<ellipse fill="none" stroke="blue" cx="52.6453" cy="-162" rx="52.7911" ry="18"/>
<text text-anchor="middle" x="52.6453" y="-158.3" font-family="Times,serif" font-size="14.00">/[a&#45;z]\w*/i &#160;</text>
</g>
<!-- Grammar&#45;&gt;notname -->
<g id="edge1" class="edge"><title>Grammar&#45;&gt;notname</title>
<path fill="none" stroke="grey" d="M1489.19,-305.015C1246.89,-304.892 116.215,-301.651 62.6453,-252 46.2123,-236.769 45.111,-210.485 47.2878,-190.418"/>
<polygon fill="grey" stroke="grey" points="50.7838,-190.69 48.7092,-180.3 43.8519,-189.716 50.7838,-190.69"/>
</g>
<!-- test1 -->
<g id="node3" class="node"><title>test1</title>
<ellipse fill="none" stroke="blue" cx="630.645" cy="-234" rx="279.45" ry="18"/>
<text text-anchor="middle" x="630.645" y="-230.3" font-family="Times,serif" font-size="14.00">&#39;(&#39; &#39;the&#39; &#39;$::first&#39; /te+st/ is _alternation_1_of_production_1_of_rule_test1(s?) &#160;</text>
</g>
<!-- Grammar&#45;&gt;test1 -->
<g id="edge4" class="edge"><title>Grammar&#45;&gt;test1</title>
<path fill="none" stroke="grey" d="M1490.43,-301.576C1369.17,-292.187 1026.16,-265.626 811.833,-249.03"/>
<polygon fill="grey" stroke="grey" points="811.966,-245.53 801.726,-248.247 811.426,-252.509 811.966,-245.53"/>
</g>
<!-- is -->
<g id="node4" class="node"><title>is</title>
<ellipse fill="none" stroke="blue" cx="429.645" cy="-162" rx="42.7926" ry="18"/>
<text text-anchor="middle" x="429.645" y="-158.3" font-family="Times,serif" font-size="14.00">&#39;is&#39; &#160;&#39;are&#39; &#160;</text>
</g>
<!-- Grammar&#45;&gt;is -->
<g id="edge24" class="edge"><title>Grammar&#45;&gt;is</title>
<path fill="none" stroke="grey" d="M1488.93,-304.714C1275.17,-303.158 382.961,-294.148 342.645,-252 331.586,-240.438 334.809,-229.95 342.645,-216 352.366,-198.696 370.282,-186.379 387.34,-178.001"/>
<polygon fill="grey" stroke="grey" points="389.025,-181.079 396.671,-173.745 386.121,-174.71 389.025,-181.079"/>
</g>
<!-- _alternation_1_of_production_1_of_rule_test1 -->
<g id="node5" class="node"><title>_alternation_1_of_production_1_of_rule_test1</title>
<ellipse fill="none" stroke="blue" cx="771.645" cy="-162" rx="34.394" ry="18"/>
<text text-anchor="middle" x="771.645" y="-158.3" font-family="Times,serif" font-size="14.00">&#39;easy&#39; &#160;</text>
</g>
<!-- Grammar&#45;&gt;_alternation_1_of_production_1_of_rule_test1 -->
<g id="edge17" class="edge"><title>Grammar&#45;&gt;_alternation_1_of_production_1_of_rule_test1</title>
<path fill="none" stroke="grey" d="M1489.34,-304.27C1371.3,-301.822 1056.87,-291.658 961.645,-252 938.636,-242.417 940.256,-228.418 918.645,-216 884.726,-196.51 842.378,-182.161 811.859,-173.345"/>
<polygon fill="grey" stroke="grey" points="812.566,-169.908 801.992,-170.568 810.67,-176.646 812.566,-169.908"/>
</g>
<!-- id -->
<g id="node6" class="node"><title>id</title>
<ellipse fill="none" stroke="blue" cx="993.645" cy="-18" rx="534.005" ry="18"/>
<text text-anchor="middle" x="993.645" y="-14.3" font-family="Times,serif" font-size="14.00">/[a&#45;z]		# LEADING ALPHABETIC\n		 &#160;\w*		# FOLLOWED BY ALPHAS, DIGITS, OR UNDERSCORES\n		 /ix &#160;</text>
</g>
<!-- Grammar&#45;&gt;id -->
<g id="edge5" class="edge"><title>Grammar&#45;&gt;id</title>
<path fill="none" stroke="grey" d="M1489.48,-303.591C1369.51,-299.407 1049.75,-285.219 1016.65,-252 961.849,-197.008 976.012,-94.3862 986.74,-45.8094"/>
<polygon fill="grey" stroke="grey" points="990.158,-46.5627 989.017,-36.0295 983.34,-44.9751 990.158,-46.5627"/>
</g>
<!-- _alternation_1_of_production_1_of_rule_test3 -->
<g id="node7" class="node"><title>_alternation_1_of_production_1_of_rule_test3</title>
<ellipse fill="none" stroke="blue" cx="1382.65" cy="-162" rx="79.0865" ry="18"/>
<text text-anchor="middle" x="1382.65" y="-158.3" font-family="Times,serif" font-size="14.00">defn &#160;typedef &#160;fail &#160;</text>
</g>
<!-- Grammar&#45;&gt;_alternation_1_of_production_1_of_rule_test3 -->
<g id="edge9" class="edge"><title>Grammar&#45;&gt;_alternation_1_of_production_1_of_rule_test3</title>
<path fill="none" stroke="grey" d="M1522.59,-288.473C1508.47,-269.722 1483.78,-238.792 1458.65,-216 1446.13,-204.655 1431.1,-193.7 1417.72,-184.724"/>
<polygon fill="grey" stroke="grey" points="1419.48,-181.697 1409.21,-179.127 1415.64,-187.546 1419.48,-181.697"/>
</g>
<!-- defn -->
<g id="node8" class="node"><title>defn</title>
<ellipse fill="none" stroke="blue" cx="1382.65" cy="-90" rx="108.581" ry="18"/>
<text text-anchor="middle" x="1382.65" y="-86.3" font-family="Times,serif" font-size="14.00">&#39;var&#39; id &#39;holds&#39; typename &#39;;&#39; &#160;</text>
</g>
<!-- Grammar&#45;&gt;defn -->
<g id="edge28" class="edge"><title>Grammar&#45;&gt;defn</title>
<path fill="none" stroke="grey" d="M1531.6,-287.854C1525.24,-256.225 1507.91,-187.924 1470.65,-144 1459.56,-130.935 1444.41,-120.213 1429.79,-111.914"/>
<polygon fill="grey" stroke="grey" points="1431.27,-108.733 1420.81,-107.061 1427.94,-114.893 1431.27,-108.733"/>
</g>
<!-- typedef -->
<g id="node9" class="node"><title>typedef</title>
<ellipse fill="none" stroke="blue" cx="1129.65" cy="-90" rx="98.5829" ry="18"/>
<text text-anchor="middle" x="1129.65" y="-86.3" font-family="Times,serif" font-size="14.00">&#39;type&#39; id &#39;is&#39; typename &#39;;&#39; &#160;</text>
</g>
<!-- Grammar&#45;&gt;typedef -->
<g id="edge31" class="edge"><title>Grammar&#45;&gt;typedef</title>
<path fill="none" stroke="grey" d="M1489.42,-303.608C1371.73,-299.524 1062.95,-285.67 1032.65,-252 993.454,-208.453 1056.94,-146.803 1098.36,-113.857"/>
<polygon fill="grey" stroke="grey" points="1100.57,-116.57 1106.31,-107.665 1096.27,-111.047 1100.57,-116.57"/>
</g>
<!-- fail -->
<g id="node10" class="node"><title>fail</title>
<ellipse fill="none" stroke="blue" cx="1536.65" cy="-90" rx="27" ry="18"/>
<text text-anchor="middle" x="1536.65" y="-86.3" font-family="Times,serif" font-size="14.00"> </text>
</g>
<!-- Grammar&#45;&gt;fail -->
<g id="edge23" class="edge"><title>Grammar&#45;&gt;fail</title>
<path fill="none" stroke="grey" d="M1534.81,-287.849C1535.15,-250.832 1535.97,-163.181 1536.39,-118.386"/>
<polygon fill="grey" stroke="grey" points="1539.89,-118.265 1536.48,-108.232 1532.89,-118.199 1539.89,-118.265"/>
</g>
<!-- name -->
<g id="node11" class="node"><title>name</title>
<ellipse fill="none" stroke="blue" cx="197.645" cy="-162" rx="32.4942" ry="18"/>
<text text-anchor="middle" x="197.645" y="-158.3" font-family="Times,serif" font-size="14.00">&#39;fred&#39; &#160;</text>
</g>
<!-- Grammar&#45;&gt;name -->
<g id="edge10" class="edge"><title>Grammar&#45;&gt;name</title>
<path fill="none" stroke="grey" d="M1489.21,-304.437C1283.33,-301.695 443.138,-288.349 331.645,-252 308.856,-244.57 256.378,-207.087 224.274,-183.196"/>
<polygon fill="grey" stroke="grey" points="226.295,-180.336 216.191,-177.147 222.101,-185.941 226.295,-180.336"/>
</g>
<!-- test4 -->
<g id="node12" class="node"><title>test4</title>
<ellipse fill="none" stroke="blue" cx="1697.65" cy="-234" rx="40.0939" ry="18"/>
<text text-anchor="middle" x="1697.65" y="-230.3" font-family="Times,serif" font-size="14.00">&#39;a&#39; b /c/ &#160;</text>
</g>
<!-- Grammar&#45;&gt;test4 -->
<g id="edge12" class="edge"><title>Grammar&#45;&gt;test4</title>
<path fill="none" stroke="grey" d="M1564.54,-292.161C1591.46,-280.601 1631.14,-263.561 1660.17,-251.094"/>
<polygon fill="grey" stroke="grey" points="1661.77,-254.218 1669.57,-247.056 1659,-247.786 1661.77,-254.218"/>
</g>
<!-- b -->
<g id="node13" class="node"><title>b</title>
<ellipse fill="none" stroke="blue" cx="1671.65" cy="-162" rx="27" ry="18"/>
<text text-anchor="middle" x="1671.65" y="-158.3" font-family="Times,serif" font-size="14.00">&#39;b&#39; &#160;</text>
</g>
<!-- Grammar&#45;&gt;b -->
<g id="edge35" class="edge"><title>Grammar&#45;&gt;b</title>
<path fill="none" stroke="grey" d="M1557.74,-290.308C1572.32,-280.435 1591.09,-266.598 1605.65,-252 1625.37,-232.214 1643.96,-206.233 1656.35,-187.454"/>
<polygon fill="grey" stroke="grey" points="1659.41,-189.168 1661.91,-178.873 1653.53,-185.36 1659.41,-189.168"/>
</g>
<!-- test6 -->
<g id="node14" class="node"><title>test6</title>
<ellipse fill="none" stroke="blue" cx="2128.65" cy="-234" rx="372.334" ry="18"/>
<text text-anchor="middle" x="2128.65" y="-230.3" font-family="Times,serif" font-size="14.00">&lt;rulevar: $test6 = 1&gt; &#160;&#39;a&#39; &lt;commit&gt; &#39;b&#39; &lt;uncommit&gt; &#39;c&#39; &lt;reject: $test6 &amp;&amp; $text&gt; &#160;&lt;uncommit&gt; &#160;&#39;a&#39; &#160;</text>
</g>
<!-- Grammar&#45;&gt;test6 -->
<g id="edge13" class="edge"><title>Grammar&#45;&gt;test6</title>
<path fill="none" stroke="grey" d="M1577.84,-299.909C1661.95,-289.998 1851.09,-267.708 1984.17,-252.026"/>
<polygon fill="grey" stroke="grey" points="1984.93,-255.46 1994.45,-250.814 1984.11,-248.508 1984.93,-255.46"/>
</g>
<!-- test2 -->
<g id="node15" class="node"><title>test2</title>
<ellipse fill="none" stroke="blue" cx="2660.65" cy="-234" rx="141.875" ry="18"/>
<text text-anchor="middle" x="2660.65" y="-230.3" font-family="Times,serif" font-size="14.00">$arg{article} $arg[3][$arg{sound}] &#160;</text>
</g>
<!-- Grammar&#45;&gt;test2 -->
<g id="edge14" class="edge"><title>Grammar&#45;&gt;test2</title>
<path fill="none" stroke="grey" d="M1579.9,-303.471C1718.91,-298.575 2151.93,-281.834 2509.65,-252 2523.29,-250.862 2537.61,-249.487 2551.77,-248.017"/>
<polygon fill="grey" stroke="grey" points="2552.46,-251.463 2562.04,-246.932 2551.73,-244.502 2552.46,-251.463"/>
</g>
<!-- test3 -->
<g id="node16" class="node"><title>test3</title>
<ellipse fill="none" stroke="blue" cx="1245.65" cy="-234" rx="204.164" ry="18"/>
<text text-anchor="middle" x="1245.65" y="-230.3" font-family="Times,serif" font-size="14.00">_alternation_1_of_production_1_of_rule_test3(5..10) &#160;</text>
</g>
<!-- Grammar&#45;&gt;test3 -->
<g id="edge16" class="edge"><title>Grammar&#45;&gt;test3</title>
<path fill="none" stroke="grey" d="M1496.86,-295.849C1452.62,-285.133 1378.23,-267.115 1321.86,-253.459"/>
<polygon fill="grey" stroke="grey" points="1322.45,-250.002 1311.91,-251.049 1320.8,-256.805 1322.45,-250.002"/>
</g>
<!-- test5 -->
<g id="node17" class="node"><title>test5</title>
<ellipse fill="none" stroke="blue" cx="164.645" cy="-234" rx="92.8835" ry="18"/>
<text text-anchor="middle" x="164.645" y="-230.3" font-family="Times,serif" font-size="14.00">name notname &#160;name &#160;</text>
</g>
<!-- Grammar&#45;&gt;test5 -->
<g id="edge20" class="edge"><title>Grammar&#45;&gt;test5</title>
<path fill="none" stroke="grey" d="M1489.2,-304.988C1324.85,-304.543 746.06,-299.481 271.645,-252 261.575,-250.992 251.012,-249.657 240.607,-248.177"/>
<polygon fill="grey" stroke="grey" points="241.104,-244.712 230.701,-246.719 240.085,-251.638 241.104,-244.712"/>
</g>
<!-- cat -->
<g id="node18" class="node"><title>cat</title>
<ellipse fill="none" stroke="blue" cx="2956.65" cy="-234" rx="135.676" ry="18"/>
<text text-anchor="middle" x="2956.65" y="-230.3" font-family="Times,serif" font-size="14.00">&lt;reject: $arg[0] ne &#39;meows&#39;&gt; &#39;cat&#39; &#160;&#160;</text>
</g>
<!-- Grammar&#45;&gt;cat -->
<g id="edge21" class="edge"><title>Grammar&#45;&gt;cat</title>
<path fill="none" stroke="grey" d="M1579.96,-304.352C1745.15,-301.727 2330.54,-290.132 2811.65,-252 2824.96,-250.944 2838.94,-249.603 2852.75,-248.138"/>
<polygon fill="grey" stroke="grey" points="2853.19,-251.61 2862.76,-247.052 2852.44,-244.651 2853.19,-251.61"/>
</g>
<!-- dog -->
<g id="node19" class="node"><title>dog</title>
<ellipse fill="none" stroke="blue" cx="3142.65" cy="-234" rx="31.6951" ry="18"/>
<text text-anchor="middle" x="3142.65" y="-230.3" font-family="Times,serif" font-size="14.00">&#39;dog&#39; &#160;</text>
</g>
<!-- Grammar&#45;&gt;dog -->
<g id="edge22" class="edge"><title>Grammar&#45;&gt;dog</title>
<path fill="none" stroke="grey" d="M1580.14,-304.432C1821.81,-301.283 2949.76,-284.919 3101.65,-252 3104.31,-251.423 3107.02,-250.681 3109.71,-249.832"/>
<polygon fill="grey" stroke="grey" points="3111.05,-253.069 3119.26,-246.381 3108.67,-246.485 3111.05,-253.069"/>
</g>
<!-- typename -->
<g id="node20" class="node"><title>typename</title>
<ellipse fill="none" stroke="blue" cx="1573.65" cy="-18" rx="27.8951" ry="18"/>
<text text-anchor="middle" x="1573.65" y="-14.3" font-family="Times,serif" font-size="14.00">&#39;int&#39; &#160;</text>
</g>
<!-- Grammar&#45;&gt;typename -->
<g id="edge25" class="edge"><title>Grammar&#45;&gt;typename</title>
<path fill="none" stroke="grey" d="M1540.02,-287.944C1543.14,-277.617 1546.97,-264.14 1549.65,-252 1563.61,-188.71 1567.16,-172.578 1572.65,-108 1574.4,-87.3442 1574.59,-63.8959 1574.37,-46.2546"/>
<polygon fill="grey" stroke="grey" points="1577.87,-46.035 1574.2,-36.0976 1570.87,-46.1572 1577.87,-46.035"/>
</g>
<!-- the -->
<g id="node21" class="node"><title>the</title>
<ellipse fill="none" stroke="blue" cx="3221.65" cy="-234" rx="29.4969" ry="18"/>
<text text-anchor="middle" x="3221.65" y="-230.3" font-family="Times,serif" font-size="14.00">&#39;the&#39; &#160;</text>
</g>
<!-- Grammar&#45;&gt;the -->
<g id="edge32" class="edge"><title>Grammar&#45;&gt;the</title>
<path fill="none" stroke="grey" d="M1580.06,-304.588C1829.13,-302.189 3023.76,-288.829 3183.65,-252 3185.96,-251.466 3188.31,-250.789 3190.65,-250.013"/>
<polygon fill="grey" stroke="grey" points="3191.97,-253.253 3200.05,-246.392 3189.46,-246.721 3191.97,-253.253"/>
</g>
<!-- test7 -->
<g id="node22" class="node"><title>test7</title>
<ellipse fill="none" stroke="blue" cx="3344.65" cy="-234" rx="76.0865" ry="18"/>
<text text-anchor="middle" x="3344.65" y="-230.3" font-family="Times,serif" font-size="14.00">&#39;x&#39; &lt;resync&gt; /y+/ &#160;</text>
</g>
<!-- Grammar&#45;&gt;test7 -->
<g id="edge33" class="edge"><title>Grammar&#45;&gt;test7</title>
<path fill="none" stroke="grey" d="M1580.25,-304.628C1818.33,-302.531 2920.48,-290.852 3259.65,-252 3266.84,-251.176 3274.33,-250.061 3281.76,-248.793"/>
<polygon fill="grey" stroke="grey" points="3282.59,-252.2 3291.81,-246.983 3281.35,-245.311 3282.59,-252.2"/>
</g>
<!-- a -->
<g id="node23" class="node"><title>a</title>
<ellipse fill="none" stroke="blue" cx="3465.65" cy="-234" rx="27" ry="18"/>
<text text-anchor="middle" x="3465.65" y="-230.3" font-family="Times,serif" font-size="14.00">&#39;a&#39; &#160;</text>
</g>
<!-- Grammar&#45;&gt;a -->
<g id="edge34" class="edge"><title>Grammar&#45;&gt;a</title>
<path fill="none" stroke="grey" d="M1580.48,-304.845C1852.09,-303.774 3244.88,-296.153 3429.65,-252 3431.83,-251.478 3434.04,-250.814 3436.23,-250.054"/>
<polygon fill="grey" stroke="grey" points="3437.68,-253.245 3445.62,-246.235 3435.04,-246.762 3437.68,-253.245"/>
</g>
<!-- test1&#45;&gt;is -->
<g id="edge2" class="edge"><title>test1&#45;&gt;is</title>
<path fill="none" stroke="grey" d="M582.501,-216.233C548.609,-204.43 503.697,-188.789 471.336,-177.519"/>
<polygon fill="grey" stroke="grey" points="472.317,-174.155 461.722,-174.171 470.014,-180.765 472.317,-174.155"/>
</g>
<!-- test1&#45;&gt;_alternation_1_of_production_1_of_rule_test1 -->
<g id="edge3" class="edge"><title>test1&#45;&gt;_alternation_1_of_production_1_of_rule_test1</title>
<path fill="none" stroke="grey" d="M664.777,-216.055C687.17,-204.938 716.304,-190.474 738.496,-179.457"/>
<polygon fill="grey" stroke="grey" points="740.141,-182.548 747.542,-174.966 737.028,-176.278 740.141,-182.548"/>
</g>
<!-- _alternation_1_of_production_1_of_rule_test3&#45;&gt;defn -->
<g id="edge6" class="edge"><title>_alternation_1_of_production_1_of_rule_test3&#45;&gt;defn</title>
<path fill="none" stroke="grey" d="M1382.65,-143.697C1382.65,-135.983 1382.65,-126.712 1382.65,-118.112"/>
<polygon fill="grey" stroke="grey" points="1386.15,-118.104 1382.65,-108.104 1379.15,-118.104 1386.15,-118.104"/>
</g>
<!-- _alternation_1_of_production_1_of_rule_test3&#45;&gt;typedef -->
<g id="edge7" class="edge"><title>_alternation_1_of_production_1_of_rule_test3&#45;&gt;typedef</title>
<path fill="none" stroke="grey" d="M1334.46,-147.669C1293.81,-136.421 1235.36,-120.25 1191.3,-108.06"/>
<polygon fill="grey" stroke="grey" points="1192.14,-104.659 1181.57,-105.366 1190.27,-111.406 1192.14,-104.659"/>
</g>
<!-- _alternation_1_of_production_1_of_rule_test3&#45;&gt;fail -->
<g id="edge8" class="edge"><title>_alternation_1_of_production_1_of_rule_test3&#45;&gt;fail</title>
<path fill="none" stroke="grey" d="M1417.06,-145.749C1440.64,-135.25 1472.6,-120.919 1500.65,-108 1502.43,-107.176 1504.27,-106.324 1506.12,-105.462"/>
<polygon fill="grey" stroke="grey" points="1507.79,-108.548 1515.36,-101.135 1504.82,-102.21 1507.79,-108.548"/>
</g>
<!-- defn&#45;&gt;id -->
<g id="edge26" class="edge"><title>defn&#45;&gt;id</title>
<path fill="none" stroke="grey" d="M1311.75,-76.2423C1251.59,-65.4176 1164.51,-49.7462 1096.66,-37.5365"/>
<polygon fill="grey" stroke="grey" points="1097.25,-34.0876 1086.79,-35.7612 1096.01,-40.977 1097.25,-34.0876"/>
</g>
<!-- defn&#45;&gt;typename -->
<g id="edge27" class="edge"><title>defn&#45;&gt;typename</title>
<path fill="none" stroke="grey" d="M1430.62,-73.8508C1461.23,-63.8489 1501.61,-50.039 1536.65,-36 1538.52,-35.2507 1540.43,-34.4575 1542.35,-33.6395"/>
<polygon fill="grey" stroke="grey" points="1544.15,-36.6698 1551.89,-29.4311 1541.33,-30.2654 1544.15,-36.6698"/>
</g>
<!-- typedef&#45;&gt;id -->
<g id="edge29" class="edge"><title>typedef&#45;&gt;id</title>
<path fill="none" stroke="grey" d="M1098.1,-72.7646C1079.59,-63.2381 1055.97,-51.0783 1035.87,-40.7333"/>
<polygon fill="grey" stroke="grey" points="1037.41,-37.5884 1026.91,-36.1239 1034.2,-43.8124 1037.41,-37.5884"/>
</g>
<!-- typedef&#45;&gt;typename -->
<g id="edge30" class="edge"><title>typedef&#45;&gt;typename</title>
<path fill="none" stroke="grey" d="M1208.62,-79.0182C1324.76,-64.2967 1528.82,-38.2499 1536.65,-36 1538.8,-35.3808 1540.98,-34.6543 1543.16,-33.8568"/>
<polygon fill="grey" stroke="grey" points="1544.61,-37.0449 1552.54,-30.0163 1541.96,-30.567 1544.61,-37.0449"/>
</g>
<!-- test4&#45;&gt;b -->
<g id="edge11" class="edge"><title>test4&#45;&gt;b</title>
<path fill="none" stroke="grey" d="M1691.35,-216.055C1688.38,-208.059 1684.77,-198.331 1681.45,-189.4"/>
<polygon fill="grey" stroke="grey" points="1684.64,-187.945 1677.88,-179.789 1678.08,-190.382 1684.64,-187.945"/>
</g>
<!-- test3&#45;&gt;_alternation_1_of_production_1_of_rule_test3 -->
<g id="edge15" class="edge"><title>test3&#45;&gt;_alternation_1_of_production_1_of_rule_test3</title>
<path fill="none" stroke="grey" d="M1278.46,-216.233C1297.82,-206.342 1322.45,-193.755 1342.91,-183.305"/>
<polygon fill="grey" stroke="grey" points="1344.66,-186.337 1351.98,-178.671 1341.48,-180.104 1344.66,-186.337"/>
</g>
<!-- test5&#45;&gt;notname -->
<g id="edge19" class="edge"><title>test5&#45;&gt;notname</title>
<path fill="none" stroke="grey" d="M138.386,-216.588C122.675,-206.768 102.564,-194.199 85.7678,-183.702"/>
<polygon fill="grey" stroke="grey" points="87.162,-180.446 76.827,-178.114 83.452,-186.382 87.162,-180.446"/>
</g>
<!-- test5&#45;&gt;name -->
<g id="edge18" class="edge"><title>test5&#45;&gt;name</title>
<path fill="none" stroke="grey" d="M172.634,-216.055C176.444,-207.973 181.088,-198.121 185.336,-189.112"/>
<polygon fill="grey" stroke="grey" points="188.632,-190.327 189.731,-179.789 182.3,-187.342 188.632,-190.327"/>
</g>
</g>
</svg>
