<?xml version="1.0" encoding="UTF-8" standalone="no"?>
<!DOCTYPE svg PUBLIC "-//W3C//DTD SVG 1.1//EN"
 "http://www.w3.org/Graphics/SVG/1.1/DTD/svg11.dtd">
<!-- Generated by graphviz version 2.38.0 (20140413.2041)
 -->
<!-- Title: Perl Pages: 1 -->
<svg width="315pt" height="344pt"
 viewBox="0.00 0.00 315.00 344.00" xmlns="http://www.w3.org/2000/svg" xmlns:xlink="http://www.w3.org/1999/xlink">
<g id="graph0" class="graph" transform="scale(1 1) rotate(0) translate(4 340)">
<title>Perl</title>
<polygon fill="white" stroke="none" points="-4,4 -4,-340 311,-340 311,4 -4,4"/>
<!-- 0 -->
<g id="node1" class="node"><title>0</title>
<polygon fill="none" stroke="green" points="187.334,-306.544 187.334,-321.456 162.242,-332 126.758,-332 101.666,-321.456 101.666,-306.544 126.758,-296 162.242,-296 187.334,-306.544"/>
<polygon fill="none" stroke="green" points="191.326,-303.884 191.326,-324.116 163.046,-336 125.954,-336 97.6738,-324.116 97.6738,-303.884 125.954,-292 163.046,-292 191.326,-303.884"/>
<text text-anchor="middle" x="144.5" y="-310.3" font-family="Times,serif" font-size="14.00">%$html</text>
</g>
<!-- 0_kids -->
<g id="node2" class="node"><title>0_kids</title>
<path fill="none" stroke="grey" d="M134.5,-219.5C134.5,-219.5 196.5,-219.5 196.5,-219.5 202.5,-219.5 208.5,-225.5 208.5,-231.5 208.5,-231.5 208.5,-243.5 208.5,-243.5 208.5,-249.5 202.5,-255.5 196.5,-255.5 196.5,-255.5 134.5,-255.5 134.5,-255.5 128.5,-255.5 122.5,-249.5 122.5,-243.5 122.5,-243.5 122.5,-231.5 122.5,-231.5 122.5,-225.5 128.5,-219.5 134.5,-219.5"/>
<text text-anchor="middle" x="144.5" y="-233.8" font-family="Times,serif" font-size="14.00" fill="blue">body</text>
<polyline fill="none" stroke="grey" points="166.5,-219.5 166.5,-255.5 "/>
<text text-anchor="middle" x="187.5" y="-233.8" font-family="Times,serif" font-size="14.00" fill="blue">head</text>
</g>
<!-- 0&#45;&gt;0_kids -->
<g id="edge1" class="edge"><title>0&#45;&gt;0_kids:port1</title>
<path fill="none" stroke="grey" d="M144.5,-291.886C144.5,-284.163 144.5,-275.138 144.5,-266.263"/>
<polygon fill="grey" stroke="grey" points="148,-266 144.5,-256 141,-266 148,-266"/>
</g>
<!-- 0_0_kids -->
<g id="node3" class="node"><title>0_0_kids</title>
<path fill="none" stroke="grey" d="M103.5,-146.5C103.5,-146.5 141.5,-146.5 141.5,-146.5 147.5,-146.5 153.5,-152.5 153.5,-158.5 153.5,-158.5 153.5,-170.5 153.5,-170.5 153.5,-176.5 147.5,-182.5 141.5,-182.5 141.5,-182.5 103.5,-182.5 103.5,-182.5 97.5,-182.5 91.5,-176.5 91.5,-170.5 91.5,-170.5 91.5,-158.5 91.5,-158.5 91.5,-152.5 97.5,-146.5 103.5,-146.5"/>
<text text-anchor="middle" x="122.5" y="-160.8" font-family="Times,serif" font-size="14.00" fill="blue">%$body</text>
</g>
<!-- 0_kids&#45;&gt;0_0_kids -->
<g id="edge2" class="edge"><title>0_kids:port1&#45;&gt;0_0_kids:port1</title>
<path fill="none" stroke="grey" d="M144.5,-219C144.5,-209.906 141.833,-200.538 138.357,-192.19"/>
<polygon fill="grey" stroke="grey" points="141.431,-190.502 134.015,-182.935 135.094,-193.475 141.431,-190.502"/>
</g>
<!-- 0_1_kids -->
<g id="node7" class="node"><title>0_1_kids</title>
<path fill="none" stroke="grey" d="M192,-146.5C192,-146.5 229,-146.5 229,-146.5 235,-146.5 241,-152.5 241,-158.5 241,-158.5 241,-170.5 241,-170.5 241,-176.5 235,-182.5 229,-182.5 229,-182.5 192,-182.5 192,-182.5 186,-182.5 180,-176.5 180,-170.5 180,-170.5 180,-158.5 180,-158.5 180,-152.5 186,-146.5 192,-146.5"/>
<text text-anchor="middle" x="210.5" y="-160.8" font-family="Times,serif" font-size="14.00" fill="blue">%$head</text>
</g>
<!-- 0_kids&#45;&gt;0_1_kids -->
<g id="edge6" class="edge"><title>0_kids:port2&#45;&gt;0_1_kids:port1</title>
<path fill="none" stroke="grey" d="M187.5,-219C187.5,-209.747 190.349,-200.257 194.041,-191.843"/>
<polygon fill="grey" stroke="grey" points="197.182,-193.387 198.461,-182.87 190.902,-190.294 197.182,-193.387"/>
</g>
<!-- 0_0_0_kids -->
<g id="node4" class="node"><title>0_0_0_kids</title>
<path fill="none" stroke="grey" d="M102.5,-73.5C102.5,-73.5 132.5,-73.5 132.5,-73.5 138.5,-73.5 144.5,-79.5 144.5,-85.5 144.5,-85.5 144.5,-97.5 144.5,-97.5 144.5,-103.5 138.5,-109.5 132.5,-109.5 132.5,-109.5 102.5,-109.5 102.5,-109.5 96.5,-109.5 90.5,-103.5 90.5,-97.5 90.5,-97.5 90.5,-85.5 90.5,-85.5 90.5,-79.5 96.5,-73.5 102.5,-73.5"/>
<text text-anchor="middle" x="105.5" y="-87.8" font-family="Times,serif" font-size="14.00" fill="blue">h1</text>
<polyline fill="none" stroke="grey" points="120.5,-73.5 120.5,-109.5 "/>
<text text-anchor="middle" x="132.5" y="-87.8" font-family="Times,serif" font-size="14.00" fill="blue">p</text>
</g>
<!-- 0_0_kids&#45;&gt;0_0_0_kids -->
<g id="edge3" class="edge"><title>0_0_kids:port1&#45;&gt;0_0_0_kids:port1</title>
<path fill="none" stroke="grey" d="M113.801,-146.273C110.729,-138.645 107.692,-129.393 106.296,-120.071"/>
<polygon fill="grey" stroke="grey" points="109.777,-119.693 105.5,-110 102.799,-120.245 109.777,-119.693"/>
</g>
<!-- 0_0_0_0_kids -->
<g id="node5" class="node"><title>0_0_0_0_kids</title>
<path fill="none" stroke="grey" d="M12,-0.5C12,-0.5 61,-0.5 61,-0.5 67,-0.5 73,-6.5 73,-12.5 73,-12.5 73,-24.5 73,-24.5 73,-30.5 67,-36.5 61,-36.5 61,-36.5 12,-36.5 12,-36.5 6,-36.5 0,-30.5 0,-24.5 0,-24.5 0,-12.5 0,-12.5 0,-6.5 6,-0.5 12,-0.5"/>
<text text-anchor="middle" x="36.5" y="-14.8" font-family="Times,serif" font-size="14.00" fill="blue">Heading 1</text>
</g>
<!-- 0_0_0_kids&#45;&gt;0_0_0_0_kids -->
<g id="edge4" class="edge"><title>0_0_0_kids:port1&#45;&gt;0_0_0_0_kids:port1</title>
<path fill="none" stroke="grey" d="M105.5,-73C105.5,-64.306 91.8396,-52.559 76.675,-42.197"/>
<polygon fill="grey" stroke="grey" points="78.4522,-39.1768 68.1727,-36.611 74.6085,-45.0272 78.4522,-39.1768"/>
</g>
<!-- 0_0_0_1_kids -->
<g id="node6" class="node"><title>0_0_0_1_kids</title>
<path fill="none" stroke="grey" d="M103.5,-0.5C103.5,-0.5 161.5,-0.5 161.5,-0.5 167.5,-0.5 173.5,-6.5 173.5,-12.5 173.5,-12.5 173.5,-24.5 173.5,-24.5 173.5,-30.5 167.5,-36.5 161.5,-36.5 161.5,-36.5 103.5,-36.5 103.5,-36.5 97.5,-36.5 91.5,-30.5 91.5,-24.5 91.5,-24.5 91.5,-12.5 91.5,-12.5 91.5,-6.5 97.5,-0.5 103.5,-0.5"/>
<text text-anchor="middle" x="132.5" y="-14.8" font-family="Times,serif" font-size="14.00" fill="blue">Paragraph 1</text>
</g>
<!-- 0_0_0_kids&#45;&gt;0_0_0_1_kids -->
<g id="edge5" class="edge"><title>0_0_0_kids:port2&#45;&gt;0_0_0_1_kids:port1</title>
<path fill="none" stroke="grey" d="M132.5,-73C132.5,-64.4844 132.5,-55.2203 132.5,-46.7865"/>
<polygon fill="grey" stroke="grey" points="136,-46.6666 132.5,-36.6667 129,-46.6667 136,-46.6666"/>
</g>
<!-- 0_1_0_kids -->
<g id="node8" class="node"><title>0_1_0_kids</title>
<path fill="none" stroke="grey" d="M204.5,-73.5C204.5,-73.5 234.5,-73.5 234.5,-73.5 240.5,-73.5 246.5,-79.5 246.5,-85.5 246.5,-85.5 246.5,-97.5 246.5,-97.5 246.5,-103.5 240.5,-109.5 234.5,-109.5 234.5,-109.5 204.5,-109.5 204.5,-109.5 198.5,-109.5 192.5,-103.5 192.5,-97.5 192.5,-97.5 192.5,-85.5 192.5,-85.5 192.5,-79.5 198.5,-73.5 204.5,-73.5"/>
<text text-anchor="middle" x="219.5" y="-87.8" font-family="Times,serif" font-size="14.00" fill="blue">title</text>
</g>
<!-- 0_1_kids&#45;&gt;0_1_0_kids -->
<g id="edge7" class="edge"><title>0_1_kids:port1&#45;&gt;0_1_0_kids:port1</title>
<path fill="none" stroke="grey" d="M212.725,-146.455C213.72,-138.383 214.917,-128.676 216.026,-119.682"/>
<polygon fill="grey" stroke="grey" points="219.52,-119.944 217.27,-109.59 212.572,-119.087 219.52,-119.944"/>
</g>
<!-- 0_1_0_0_kids -->
<g id="node9" class="node"><title>0_1_0_0_kids</title>
<path fill="none" stroke="grey" d="M204,-0.5C204,-0.5 295,-0.5 295,-0.5 301,-0.5 307,-6.5 307,-12.5 307,-12.5 307,-24.5 307,-24.5 307,-30.5 301,-36.5 295,-36.5 295,-36.5 204,-36.5 204,-36.5 198,-36.5 192,-30.5 192,-24.5 192,-24.5 192,-12.5 192,-12.5 192,-6.5 198,-0.5 204,-0.5"/>
<text text-anchor="middle" x="249.5" y="-14.8" font-family="Times,serif" font-size="14.00" fill="blue">Title of document</text>
</g>
<!-- 0_1_0_kids&#45;&gt;0_1_0_0_kids -->
<g id="edge8" class="edge"><title>0_1_0_kids:port1&#45;&gt;0_1_0_0_kids:port1</title>
<path fill="none" stroke="grey" d="M226.916,-73.4551C230.305,-65.2074 234.396,-55.2536 238.159,-46.0962"/>
<polygon fill="grey" stroke="grey" points="241.502,-47.1702 242.066,-36.5904 235.027,-44.5094 241.502,-47.1702"/>
</g>
</g>
</svg>
