<?xml version="1.0" encoding="UTF-8" standalone="no"?>
<!DOCTYPE svg PUBLIC "-//W3C//DTD SVG 1.1//EN"
 "http://www.w3.org/Graphics/SVG/1.1/DTD/svg11.dtd">
<!-- Generated by graphviz version 2.34.0 (20131125.0033)
 -->
<!-- Title: Perl Pages: 1 -->
<svg width="411pt" height="496pt"
 viewBox="0.00 0.00 411.00 496.00" xmlns="http://www.w3.org/2000/svg" xmlns:xlink="http://www.w3.org/1999/xlink">
<g id="graph0" class="graph" transform="scale(1 1) rotate(0) translate(4 492)">
<title>Perl</title>
<polygon fill="white" stroke="white" points="-4,4 -4,-492 407,-492 407,4 -4,4"/>
<!-- 0 -->
<g id="node1" class="node"><title>0</title>
<polygon fill="none" stroke="green" points="258.461,-458.544 258.461,-473.456 229.488,-484 188.512,-484 159.539,-473.456 159.539,-458.544 188.512,-448 229.488,-448 258.461,-458.544"/>
<polygon fill="none" stroke="green" points="262.422,-455.734 262.422,-476.266 230.18,-488 187.82,-488 155.578,-476.266 155.578,-455.734 187.82,-444 230.18,-444 262.422,-455.734"/>
<text text-anchor="middle" x="209" y="-462.3" font-family="Times,serif" font-size="14.00">%$person</text>
</g>
<!-- 0_kids -->
<g id="node2" class="node"><title>0_kids</title>
<path fill="none" stroke="grey" d="M193,-371C193,-371 273,-371 273,-371 279,-371 285,-377 285,-383 285,-383 285,-395 285,-395 285,-401 279,-407 273,-407 273,-407 193,-407 193,-407 187,-407 181,-401 181,-395 181,-395 181,-383 181,-383 181,-377 187,-371 193,-371"/>
<text text-anchor="middle" x="209.5" y="-385.3" font-family="Times,serif" font-size="14.00" fill="blue">address</text>
<polyline fill="none" stroke="grey" points="238,-371 238,-407 "/>
<text text-anchor="middle" x="261.5" y="-385.3" font-family="Times,serif" font-size="14.00" fill="blue">name</text>
</g>
<!-- 0&#45;&gt;0_kids -->
<g id="edge1" class="edge"><title>0&#45;&gt;0_kids:port1</title>
<path fill="none" stroke="grey" d="M209,-443.886C209,-436.163 209,-427.138 209,-418.263"/>
<polygon fill="grey" stroke="grey" points="212.5,-418 209,-408 205.5,-418 212.5,-418"/>
</g>
<!-- 0_0_kids -->
<g id="node3" class="node"><title>0_0_kids</title>
<path fill="none" stroke="grey" d="M157,-297C157,-297 209,-297 209,-297 215,-297 221,-303 221,-309 221,-309 221,-321 221,-321 221,-327 215,-333 209,-333 209,-333 157,-333 157,-333 151,-333 145,-327 145,-321 145,-321 145,-309 145,-309 145,-303 151,-297 157,-297"/>
<text text-anchor="middle" x="183" y="-311.3" font-family="Times,serif" font-size="14.00" fill="blue">%$address</text>
</g>
<!-- 0_kids&#45;&gt;0_0_kids -->
<g id="edge2" class="edge"><title>0_kids:port1&#45;&gt;0_0_kids:port1</title>
<path fill="none" stroke="grey" d="M209,-370C209,-360.382 205.71,-350.647 201.471,-342.096"/>
<polygon fill="grey" stroke="grey" points="204.525,-340.385 196.609,-333.343 198.405,-343.784 204.525,-340.385"/>
</g>
<!-- 0_1_kids -->
<g id="node11" class="node"><title>0_1_kids</title>
<path fill="none" stroke="grey" d="M268.5,-297C268.5,-297 309.5,-297 309.5,-297 315.5,-297 321.5,-303 321.5,-309 321.5,-309 321.5,-321 321.5,-321 321.5,-327 315.5,-333 309.5,-333 309.5,-333 268.5,-333 268.5,-333 262.5,-333 256.5,-327 256.5,-321 256.5,-321 256.5,-309 256.5,-309 256.5,-303 262.5,-297 268.5,-297"/>
<text text-anchor="middle" x="289" y="-311.3" font-family="Times,serif" font-size="14.00" fill="blue">%$name</text>
</g>
<!-- 0_kids&#45;&gt;0_1_kids -->
<g id="edge10" class="edge"><title>0_kids:port2&#45;&gt;0_1_kids:port1</title>
<path fill="none" stroke="grey" d="M262,-370C262,-360.314 265.416,-350.559 269.819,-342.011"/>
<polygon fill="grey" stroke="grey" points="272.897,-343.678 274.867,-333.268 266.835,-340.177 272.897,-343.678"/>
</g>
<!-- 0_0_0_kids -->
<g id="node4" class="node"><title>0_0_0_kids</title>
<path fill="none" stroke="grey" d="M95,-223C95,-223 207,-223 207,-223 213,-223 219,-229 219,-235 219,-235 219,-247 219,-247 219,-253 213,-259 207,-259 207,-259 95,-259 95,-259 89,-259 83,-253 83,-247 83,-247 83,-235 83,-235 83,-229 89,-223 95,-223"/>
<text text-anchor="middle" x="101.5" y="-237.3" font-family="Times,serif" font-size="14.00" fill="blue">city</text>
<polyline fill="none" stroke="grey" points="120,-223 120,-259 "/>
<text text-anchor="middle" x="149" y="-237.3" font-family="Times,serif" font-size="14.00" fill="blue">country</text>
<polyline fill="none" stroke="grey" points="178,-223 178,-259 "/>
<text text-anchor="middle" x="198.5" y="-237.3" font-family="Times,serif" font-size="14.00" fill="blue">state</text>
</g>
<!-- 0_0_kids&#45;&gt;0_0_0_kids -->
<g id="edge3" class="edge"><title>0_0_kids:port1&#45;&gt;0_0_0_kids:port2</title>
<path fill="none" stroke="grey" d="M164.806,-296.825C158.743,-289.328 152.884,-280.066 150.333,-270.126"/>
<polygon fill="grey" stroke="grey" points="153.775,-269.458 149,-260 146.835,-270.371 153.775,-269.458"/>
</g>
<!-- 0_0_0_0_kids -->
<g id="node5" class="node"><title>0_0_0_0_kids</title>
<path fill="none" stroke="grey" d="M46,-149C46,-149 78,-149 78,-149 84,-149 90,-155 90,-161 90,-161 90,-173 90,-173 90,-179 84,-185 78,-185 78,-185 46,-185 46,-185 40,-185 34,-179 34,-173 34,-173 34,-161 34,-161 34,-155 40,-149 46,-149"/>
<text text-anchor="middle" x="62" y="-163.3" font-family="Times,serif" font-size="14.00" fill="blue">%$city</text>
</g>
<!-- 0_0_0_kids&#45;&gt;0_0_0_0_kids -->
<g id="edge4" class="edge"><title>0_0_0_kids:port1&#45;&gt;0_0_0_0_kids:port1</title>
<path fill="none" stroke="grey" d="M101,-222C101,-211.465 96.1797,-201.54 89.9285,-193.097"/>
<polygon fill="grey" stroke="grey" points="92.419,-190.619 83.3257,-185.182 87.0436,-195.103 92.419,-190.619"/>
</g>
<!-- 0_0_0_1_kids -->
<g id="node9" class="node"><title>0_0_0_1_kids</title>
<path fill="none" stroke="grey" d="M120,-149C120,-149 162,-149 162,-149 168,-149 174,-155 174,-161 174,-161 174,-173 174,-173 174,-179 168,-185 162,-185 162,-185 120,-185 120,-185 114,-185 108,-179 108,-173 108,-173 108,-161 108,-161 108,-155 114,-149 120,-149"/>
<text text-anchor="middle" x="141" y="-163.3" font-family="Times,serif" font-size="14.00" fill="blue">Australia</text>
</g>
<!-- 0_0_0_kids&#45;&gt;0_0_0_1_kids -->
<g id="edge8" class="edge"><title>0_0_0_kids:port2&#45;&gt;0_0_0_1_kids:port1</title>
<path fill="none" stroke="grey" d="M149,-222C149,-213.219 147.989,-203.731 146.686,-195.149"/>
<polygon fill="grey" stroke="grey" points="150.127,-194.508 145,-185.237 143.227,-195.682 150.127,-194.508"/>
</g>
<!-- 0_0_0_2_kids -->
<g id="node10" class="node"><title>0_0_0_2_kids</title>
<path fill="none" stroke="grey" d="M204.5,-149C204.5,-149 241.5,-149 241.5,-149 247.5,-149 253.5,-155 253.5,-161 253.5,-161 253.5,-173 253.5,-173 253.5,-179 247.5,-185 241.5,-185 241.5,-185 204.5,-185 204.5,-185 198.5,-185 192.5,-179 192.5,-173 192.5,-173 192.5,-161 192.5,-161 192.5,-155 198.5,-149 204.5,-149"/>
<text text-anchor="middle" x="223" y="-163.3" font-family="Times,serif" font-size="14.00" fill="blue">Victoria</text>
</g>
<!-- 0_0_0_kids&#45;&gt;0_0_0_2_kids -->
<g id="edge9" class="edge"><title>0_0_0_kids:port3&#45;&gt;0_0_0_2_kids:port1</title>
<path fill="none" stroke="grey" d="M199,-222C199,-212.614 201.972,-203.022 205.825,-194.532"/>
<polygon fill="grey" stroke="grey" points="209.014,-195.984 210.438,-185.485 202.778,-192.804 209.014,-195.984"/>
</g>
<!-- 0_0_0_0_0_kids -->
<g id="node6" class="node"><title>0_0_0_0_0_kids</title>
<path fill="none" stroke="grey" d="M46,-75C46,-75 144,-75 144,-75 150,-75 156,-81 156,-87 156,-87 156,-99 156,-99 156,-105 150,-111 144,-111 144,-111 46,-111 46,-111 40,-111 34,-105 34,-99 34,-99 34,-87 34,-87 34,-81 40,-75 46,-75"/>
<text text-anchor="middle" x="62.5" y="-89.3" font-family="Times,serif" font-size="14.00" fill="blue">locality</text>
<polyline fill="none" stroke="grey" points="91,-75 91,-111 "/>
<text text-anchor="middle" x="123.5" y="-89.3" font-family="Times,serif" font-size="14.00" fill="blue">postcode</text>
</g>
<!-- 0_0_0_0_kids&#45;&gt;0_0_0_0_0_kids -->
<g id="edge5" class="edge"><title>0_0_0_0_kids:port1&#45;&gt;0_0_0_0_0_kids:port1</title>
<path fill="none" stroke="grey" d="M62,-148.667C62,-140.896 62,-131.513 62,-122.275"/>
<polygon fill="grey" stroke="grey" points="65.5001,-122 62,-112 58.5001,-122 65.5001,-122"/>
</g>
<!-- 0_0_0_0_0_0_kids -->
<g id="node7" class="node"><title>0_0_0_0_0_0_kids</title>
<path fill="none" stroke="grey" d="M11.5,-1C11.5,-1 82.5,-1 82.5,-1 88.5,-1 94.5,-7 94.5,-13 94.5,-13 94.5,-25 94.5,-25 94.5,-31 88.5,-37 82.5,-37 82.5,-37 11.5,-37 11.5,-37 5.5,-37 -0.5,-31 -0.5,-25 -0.5,-25 -0.5,-13 -0.5,-13 -0.5,-7 5.5,-1 11.5,-1"/>
<text text-anchor="middle" x="47" y="-15.3" font-family="Times,serif" font-size="14.00" fill="blue">Murrumbeena</text>
</g>
<!-- 0_0_0_0_0_kids&#45;&gt;0_0_0_0_0_0_kids -->
<g id="edge6" class="edge"><title>0_0_0_0_0_kids:port1&#45;&gt;0_0_0_0_0_0_kids:port1</title>
<path fill="none" stroke="grey" d="M62,-74C62,-64.9656 60.0929,-55.3812 57.6387,-46.7877"/>
<polygon fill="grey" stroke="grey" points="60.9675,-45.706 54.5879,-37.2472 54.3001,-47.8381 60.9675,-45.706"/>
</g>
<!-- 0_0_0_0_0_1_kids -->
<g id="node8" class="node"><title>0_0_0_0_0_1_kids</title>
<path fill="none" stroke="grey" d="M125,-1C125,-1 155,-1 155,-1 161,-1 167,-7 167,-13 167,-13 167,-25 167,-25 167,-31 161,-37 155,-37 155,-37 125,-37 125,-37 119,-37 113,-31 113,-25 113,-25 113,-13 113,-13 113,-7 119,-1 125,-1"/>
<text text-anchor="middle" x="140" y="-15.3" font-family="Times,serif" font-size="14.00" fill="blue">3163</text>
</g>
<!-- 0_0_0_0_0_kids&#45;&gt;0_0_0_0_0_1_kids -->
<g id="edge7" class="edge"><title>0_0_0_0_0_kids:port2&#45;&gt;0_0_0_0_0_1_kids:port1</title>
<path fill="none" stroke="grey" d="M124,-74C124,-64.9226 126.034,-55.3259 128.652,-46.7343"/>
<polygon fill="grey" stroke="grey" points="131.988,-47.7961 131.906,-37.2016 125.363,-45.5346 131.988,-47.7961"/>
</g>
<!-- 0_1_0_kids -->
<g id="node12" class="node"><title>0_1_0_kids</title>
<path fill="none" stroke="grey" d="M269,-223C269,-223 391,-223 391,-223 397,-223 403,-229 403,-235 403,-235 403,-247 403,-247 403,-253 397,-259 391,-259 391,-259 269,-259 269,-259 263,-259 257,-253 257,-247 257,-247 257,-235 257,-235 257,-229 263,-223 269,-223"/>
<text text-anchor="middle" x="298.5" y="-237.3" font-family="Times,serif" font-size="14.00" fill="blue">given_name</text>
<polyline fill="none" stroke="grey" points="340,-223 340,-259 "/>
<text text-anchor="middle" x="371.5" y="-237.3" font-family="Times,serif" font-size="14.00" fill="blue">surname</text>
</g>
<!-- 0_1_kids&#45;&gt;0_1_0_kids -->
<g id="edge11" class="edge"><title>0_1_kids:port1&#45;&gt;0_1_0_kids:port1</title>
<path fill="none" stroke="grey" d="M293.5,-296.789C295.152,-288.965 296.805,-279.471 297.566,-270.074"/>
<polygon fill="grey" stroke="grey" points="301.066,-270.141 298,-260 294.073,-269.84 301.066,-270.141"/>
</g>
<!-- 0_1_0_0_kids -->
<g id="node13" class="node"><title>0_1_0_0_kids</title>
<path fill="none" stroke="grey" d="M284,-149C284,-149 314,-149 314,-149 320,-149 326,-155 326,-161 326,-161 326,-173 326,-173 326,-179 320,-185 314,-185 314,-185 284,-185 284,-185 278,-185 272,-179 272,-173 272,-173 272,-161 272,-161 272,-155 278,-149 284,-149"/>
<text text-anchor="middle" x="299" y="-163.3" font-family="Times,serif" font-size="14.00" fill="blue">Ron</text>
</g>
<!-- 0_1_0_kids&#45;&gt;0_1_0_0_kids -->
<g id="edge12" class="edge"><title>0_1_0_kids:port1&#45;&gt;0_1_0_0_kids:port1</title>
<path fill="none" stroke="grey" d="M298,-222C298,-213.405 298.124,-204.055 298.284,-195.544"/>
<polygon fill="grey" stroke="grey" points="301.788,-195.404 298.5,-185.332 294.789,-195.255 301.788,-195.404"/>
</g>
<!-- 0_1_0_1_kids -->
<g id="node14" class="node"><title>0_1_0_1_kids</title>
<path fill="none" stroke="grey" d="M356,-149C356,-149 388,-149 388,-149 394,-149 400,-155 400,-161 400,-161 400,-173 400,-173 400,-179 394,-185 388,-185 388,-185 356,-185 356,-185 350,-185 344,-179 344,-173 344,-173 344,-161 344,-161 344,-155 350,-149 356,-149"/>
<text text-anchor="middle" x="372" y="-163.3" font-family="Times,serif" font-size="14.00" fill="blue">Savage</text>
</g>
<!-- 0_1_0_kids&#45;&gt;0_1_0_1_kids -->
<g id="edge13" class="edge"><title>0_1_0_kids:port2&#45;&gt;0_1_0_1_kids:port1</title>
<path fill="none" stroke="grey" d="M372,-222C372,-213.406 372,-204.057 372,-195.546"/>
<polygon fill="grey" stroke="grey" points="375.5,-195.333 372,-185.333 368.5,-195.333 375.5,-195.333"/>
</g>
</g>
</svg>
