<?xml version="1.0" encoding="UTF-8" standalone="no"?>
<!DOCTYPE svg PUBLIC "-//W3C//DTD SVG 1.1//EN"
 "http://www.w3.org/Graphics/SVG/1.1/DTD/svg11.dtd">
<!-- Generated by graphviz version 2.34.0 (20131125.0033)
 -->
<!-- Title: Perl Pages: 1 -->
<svg width="3465pt" height="332pt"
 viewBox="0.00 0.00 3465.00 332.00" xmlns="http://www.w3.org/2000/svg" xmlns:xlink="http://www.w3.org/1999/xlink">
<g id="graph0" class="graph" transform="scale(1 1) rotate(0) translate(4 328)">
<title>Perl</title>
<polygon fill="white" stroke="white" points="-4,4 -4,-328 3461,-328 3461,4 -4,4"/>
<!-- Grammar -->
<g id="node1" class="node"><title>Grammar</title>
<ellipse fill="none" stroke="blue" cx="2030" cy="-306" rx="45.244" ry="18"/>
<text text-anchor="middle" x="2030" y="-302.3" font-family="Times,serif" font-size="14.00">Grammar</text>
</g>
<!-- test6 -->
<g id="node2" class="node"><title>test6</title>
<ellipse fill="none" stroke="blue" cx="372" cy="-234" rx="372.125" ry="18"/>
<text text-anchor="middle" x="372" y="-230.3" font-family="Times,serif" font-size="14.00">&lt;rulevar: $test6 = 1&gt; &#160;&#39;a&#39; &lt;commit&gt; &#39;b&#39; &lt;uncommit&gt; &#39;c&#39; &lt;reject: $test6 &amp;&amp; $text&gt; &#160;&lt;uncommit&gt; &#160;&#39;a&#39; &#160;</text>
</g>
<!-- Grammar&#45;&gt;test6 -->
<g id="edge1" class="edge"><title>Grammar&#45;&gt;test6</title>
<path fill="none" stroke="grey" d="M1985.22,-303.173C1821.31,-296.476 1238.56,-272.594 758,-252 721.78,-250.448 683.65,-248.793 646.029,-247.149"/>
<polygon fill="grey" stroke="grey" points="646.101,-243.649 635.958,-246.708 645.795,-250.642 646.101,-243.649"/>
</g>
<!-- b -->
<g id="node3" class="node"><title>b</title>
<ellipse fill="none" stroke="blue" cx="796" cy="-162" rx="27" ry="18"/>
<text text-anchor="middle" x="796" y="-158.3" font-family="Times,serif" font-size="14.00">&#39;b&#39; &#160;</text>
</g>
<!-- Grammar&#45;&gt;b -->
<g id="edge2" class="edge"><title>Grammar&#45;&gt;b</title>
<path fill="none" stroke="grey" d="M1984.68,-304.796C1766.49,-303.599 833.079,-295.917 791,-252 775.409,-235.728 779.173,-209.172 785.317,-189.295"/>
<polygon fill="grey" stroke="grey" points="788.709,-190.195 788.657,-179.6 782.091,-187.915 788.709,-190.195"/>
</g>
<!-- is -->
<g id="node4" class="node"><title>is</title>
<ellipse fill="none" stroke="blue" cx="1014" cy="-162" rx="42.3456" ry="18"/>
<text text-anchor="middle" x="1014" y="-158.3" font-family="Times,serif" font-size="14.00">&#39;is&#39; &#160;&#39;are&#39; &#160;</text>
</g>
<!-- Grammar&#45;&gt;is -->
<g id="edge3" class="edge"><title>Grammar&#45;&gt;is</title>
<path fill="none" stroke="grey" d="M1984.68,-304.548C1781.65,-302.305 964.056,-290.879 927,-252 915.961,-240.418 919.164,-229.95 927,-216 936.72,-198.696 954.636,-186.379 971.695,-178.001"/>
<polygon fill="grey" stroke="grey" points="973.38,-181.079 981.026,-173.745 970.475,-174.71 973.38,-181.079"/>
</g>
<!-- a -->
<g id="node5" class="node"><title>a</title>
<ellipse fill="none" stroke="blue" cx="1577" cy="-234" rx="27" ry="18"/>
<text text-anchor="middle" x="1577" y="-230.3" font-family="Times,serif" font-size="14.00">&#39;a&#39; &#160;</text>
</g>
<!-- Grammar&#45;&gt;a -->
<g id="edge4" class="edge"><title>Grammar&#45;&gt;a</title>
<path fill="none" stroke="grey" d="M1985.05,-303.111C1908.51,-299.037 1748.48,-286.781 1618,-252 1614.62,-251.099 1611.15,-249.984 1607.73,-248.758"/>
<polygon fill="grey" stroke="grey" points="1608.92,-245.465 1598.33,-245.098 1606.38,-251.988 1608.92,-245.465"/>
</g>
<!-- test1 -->
<g id="node6" class="node"><title>test1</title>
<ellipse fill="none" stroke="blue" cx="1215" cy="-234" rx="279.213" ry="18"/>
<text text-anchor="middle" x="1215" y="-230.3" font-family="Times,serif" font-size="14.00">&#39;(&#39; &#39;the&#39; &#39;$::first&#39; /te+st/ is _alternation_1_of_production_1_of_rule_test1(s?) &#160;</text>
</g>
<!-- Grammar&#45;&gt;test1 -->
<g id="edge7" class="edge"><title>Grammar&#45;&gt;test1</title>
<path fill="none" stroke="grey" d="M1986.18,-301.236C1874.93,-291.681 1576.84,-266.078 1385.53,-249.647"/>
<polygon fill="grey" stroke="grey" points="1385.63,-246.142 1375.36,-248.774 1385.03,-253.117 1385.63,-246.142"/>
</g>
<!-- _alternation_1_of_production_1_of_rule_test1 -->
<g id="node7" class="node"><title>_alternation_1_of_production_1_of_rule_test1</title>
<ellipse fill="none" stroke="blue" cx="1368" cy="-162" rx="34.1708" ry="18"/>
<text text-anchor="middle" x="1368" y="-158.3" font-family="Times,serif" font-size="14.00">&#39;easy&#39; &#160;</text>
</g>
<!-- Grammar&#45;&gt;_alternation_1_of_production_1_of_rule_test1 -->
<g id="edge35" class="edge"><title>Grammar&#45;&gt;_alternation_1_of_production_1_of_rule_test1</title>
<path fill="none" stroke="grey" d="M1984.75,-303.766C1879.13,-300.301 1619.38,-288.247 1541,-252 1519.88,-242.235 1522.63,-228.481 1503,-216 1473.19,-197.052 1435.52,-182.956 1407.55,-174.084"/>
<polygon fill="grey" stroke="grey" points="1408.3,-170.654 1397.71,-171.052 1406.24,-177.343 1408.3,-170.654"/>
</g>
<!-- test5 -->
<g id="node8" class="node"><title>test5</title>
<ellipse fill="none" stroke="blue" cx="1753" cy="-234" rx="92.413" ry="18"/>
<text text-anchor="middle" x="1753" y="-230.3" font-family="Times,serif" font-size="14.00">name notname &#160;name &#160;</text>
</g>
<!-- Grammar&#45;&gt;test5 -->
<g id="edge10" class="edge"><title>Grammar&#45;&gt;test5</title>
<path fill="none" stroke="grey" d="M1992.93,-295.632C1947.96,-284.269 1871.42,-264.926 1816.89,-251.144"/>
<polygon fill="grey" stroke="grey" points="1817.52,-247.696 1806.97,-248.639 1815.81,-254.482 1817.52,-247.696"/>
</g>
<!-- name -->
<g id="node9" class="node"><title>name</title>
<ellipse fill="none" stroke="blue" cx="1641" cy="-162" rx="32.2457" ry="18"/>
<text text-anchor="middle" x="1641" y="-158.3" font-family="Times,serif" font-size="14.00">&#39;fred&#39; &#160;</text>
</g>
<!-- Grammar&#45;&gt;name -->
<g id="edge20" class="edge"><title>Grammar&#45;&gt;name</title>
<path fill="none" stroke="grey" d="M1984.44,-305.318C1893.95,-304.923 1696.35,-298.599 1651,-252 1635.37,-235.944 1634.17,-209.764 1636.1,-189.945"/>
<polygon fill="grey" stroke="grey" points="1639.58,-190.335 1637.39,-179.971 1632.64,-189.443 1639.58,-190.335"/>
</g>
<!-- notname -->
<g id="node10" class="node"><title>notname</title>
<ellipse fill="none" stroke="blue" cx="1813" cy="-162" rx="52.4675" ry="18"/>
<text text-anchor="middle" x="1813" y="-158.3" font-family="Times,serif" font-size="14.00">/[a&#45;z]\w*/i &#160;</text>
</g>
<!-- Grammar&#45;&gt;notname -->
<g id="edge34" class="edge"><title>Grammar&#45;&gt;notname</title>
<path fill="none" stroke="grey" d="M1992.53,-295.678C1963.62,-287.31 1923.54,-273.07 1893,-252 1879.37,-242.596 1851.69,-210.39 1832.75,-187.428"/>
<polygon fill="grey" stroke="grey" points="1835.25,-184.962 1826.2,-179.446 1829.84,-189.399 1835.25,-184.962"/>
</g>
<!-- test7 -->
<g id="node11" class="node"><title>test7</title>
<ellipse fill="none" stroke="blue" cx="1978" cy="-234" rx="76.0649" ry="18"/>
<text text-anchor="middle" x="1978" y="-230.3" font-family="Times,serif" font-size="14.00">&#39;x&#39; &lt;resync&gt; /y+/ &#160;</text>
</g>
<!-- Grammar&#45;&gt;test7 -->
<g id="edge11" class="edge"><title>Grammar&#45;&gt;test7</title>
<path fill="none" stroke="grey" d="M2017.68,-288.411C2011.42,-279.992 2003.69,-269.585 1996.72,-260.201"/>
<polygon fill="grey" stroke="grey" points="1999.37,-257.897 1990.6,-251.956 1993.75,-262.071 1999.37,-257.897"/>
</g>
<!-- test3 -->
<g id="node12" class="node"><title>test3</title>
<ellipse fill="none" stroke="blue" cx="2352" cy="-234" rx="204.123" ry="18"/>
<text text-anchor="middle" x="2352" y="-230.3" font-family="Times,serif" font-size="14.00">_alternation_1_of_production_1_of_rule_test3(5..10) &#160;</text>
</g>
<!-- Grammar&#45;&gt;test3 -->
<g id="edge13" class="edge"><title>Grammar&#45;&gt;test3</title>
<path fill="none" stroke="grey" d="M2068.84,-296.556C2118.14,-285.839 2204.51,-267.062 2268.94,-253.057"/>
<polygon fill="grey" stroke="grey" points="2270.05,-256.396 2279.08,-250.852 2268.57,-249.556 2270.05,-256.396"/>
</g>
<!-- _alternation_1_of_production_1_of_rule_test3 -->
<g id="node13" class="node"><title>_alternation_1_of_production_1_of_rule_test3</title>
<ellipse fill="none" stroke="blue" cx="2489" cy="-162" rx="78.9404" ry="18"/>
<text text-anchor="middle" x="2489" y="-158.3" font-family="Times,serif" font-size="14.00">defn &#160;typedef &#160;fail &#160;</text>
</g>
<!-- Grammar&#45;&gt;_alternation_1_of_production_1_of_rule_test3 -->
<g id="edge17" class="edge"><title>Grammar&#45;&gt;_alternation_1_of_production_1_of_rule_test3</title>
<path fill="none" stroke="grey" d="M2075.05,-303.927C2198,-300.538 2532.34,-288.058 2565,-252 2575.74,-240.142 2572.4,-230.185 2565,-216 2557.93,-202.443 2545.63,-191.646 2532.96,-183.429"/>
<polygon fill="grey" stroke="grey" points="2534.56,-180.308 2524.19,-178.15 2530.95,-186.306 2534.56,-180.308"/>
</g>
<!-- defn -->
<g id="node14" class="node"><title>defn</title>
<ellipse fill="none" stroke="blue" cx="2489" cy="-90" rx="108.31" ry="18"/>
<text text-anchor="middle" x="2489" y="-86.3" font-family="Times,serif" font-size="14.00">&#39;var&#39; id &#39;holds&#39; typename &#39;;&#39; &#160;</text>
</g>
<!-- Grammar&#45;&gt;defn -->
<g id="edge27" class="edge"><title>Grammar&#45;&gt;defn</title>
<path fill="none" stroke="grey" d="M2075.11,-304.072C2200.83,-301.024 2548.13,-289.275 2582,-252 2593.18,-239.699 2591.63,-167.917 2577,-144 2568.6,-130.272 2555.19,-119.637 2541.34,-111.62"/>
<polygon fill="grey" stroke="grey" points="2542.7,-108.373 2532.23,-106.724 2539.38,-114.54 2542.7,-108.373"/>
</g>
<!-- typedef -->
<g id="node15" class="node"><title>typedef</title>
<ellipse fill="none" stroke="blue" cx="2236" cy="-90" rx="98.1881" ry="18"/>
<text text-anchor="middle" x="2236" y="-86.3" font-family="Times,serif" font-size="14.00">&#39;type&#39; id &#39;is&#39; typename &#39;;&#39; &#160;</text>
</g>
<!-- Grammar&#45;&gt;typedef -->
<g id="edge33" class="edge"><title>Grammar&#45;&gt;typedef</title>
<path fill="none" stroke="grey" d="M2050.71,-289.888C2064.13,-279.738 2081.7,-265.751 2096,-252 2142.57,-207.221 2190.67,-148.726 2216.59,-115.99"/>
<polygon fill="grey" stroke="grey" points="2219.56,-117.881 2223,-107.859 2214.06,-113.55 2219.56,-117.881"/>
</g>
<!-- fail -->
<g id="node16" class="node"><title>fail</title>
<ellipse fill="none" stroke="blue" cx="2643" cy="-90" rx="27" ry="18"/>
<text text-anchor="middle" x="2643" y="-86.3" font-family="Times,serif" font-size="14.00"> </text>
</g>
<!-- Grammar&#45;&gt;fail -->
<g id="edge19" class="edge"><title>Grammar&#45;&gt;fail</title>
<path fill="none" stroke="grey" d="M2075.1,-303.711C2202.63,-299.667 2559.16,-285.453 2599,-252 2638.12,-219.157 2644.23,-155.214 2644.24,-118.568"/>
<polygon fill="grey" stroke="grey" points="2647.73,-118.08 2644.08,-108.136 2640.73,-118.189 2647.73,-118.08"/>
</g>
<!-- cat -->
<g id="node17" class="node"><title>cat</title>
<ellipse fill="none" stroke="blue" cx="2862" cy="-234" rx="135.258" ry="18"/>
<text text-anchor="middle" x="2862" y="-230.3" font-family="Times,serif" font-size="14.00">&lt;reject: $arg[0] ne &#39;meows&#39;&gt; &#39;cat&#39; &#160;&#160;</text>
</g>
<!-- Grammar&#45;&gt;cat -->
<g id="edge18" class="edge"><title>Grammar&#45;&gt;cat</title>
<path fill="none" stroke="grey" d="M2074.33,-302.099C2183.08,-294.865 2471.71,-274.946 2712,-252 2725.65,-250.697 2739.98,-249.217 2754.15,-247.686"/>
<polygon fill="grey" stroke="grey" points="2754.86,-251.129 2764.42,-246.564 2754.1,-244.17 2754.86,-251.129"/>
</g>
<!-- test4 -->
<g id="node18" class="node"><title>test4</title>
<ellipse fill="none" stroke="blue" cx="840" cy="-234" rx="39.9464" ry="18"/>
<text text-anchor="middle" x="840" y="-230.3" font-family="Times,serif" font-size="14.00">&#39;a&#39; b /c/ &#160;</text>
</g>
<!-- Grammar&#45;&gt;test4 -->
<g id="edge22" class="edge"><title>Grammar&#45;&gt;test4</title>
<path fill="none" stroke="grey" d="M1984.77,-304.447C1800.91,-301.959 1109.05,-290.201 894,-252 889.468,-251.195 884.788,-250.116 880.164,-248.889"/>
<polygon fill="grey" stroke="grey" points="880.792,-245.428 870.214,-246.019 878.852,-252.154 880.792,-245.428"/>
</g>
<!-- typename -->
<g id="node19" class="node"><title>typename</title>
<ellipse fill="none" stroke="blue" cx="2100" cy="-18" rx="27.4223" ry="18"/>
<text text-anchor="middle" x="2100" y="-14.3" font-family="Times,serif" font-size="14.00">&#39;int&#39; &#160;</text>
</g>
<!-- Grammar&#45;&gt;typename -->
<g id="edge23" class="edge"><title>Grammar&#45;&gt;typename</title>
<path fill="none" stroke="grey" d="M2042.86,-288.249C2049.9,-278.249 2058.15,-264.999 2063,-252 2089.53,-180.923 2097.04,-90.721 2099.16,-46.2799"/>
<polygon fill="grey" stroke="grey" points="2102.66,-46.3957 2099.59,-36.2568 2095.67,-46.1001 2102.66,-46.3957"/>
</g>
<!-- test2 -->
<g id="node20" class="node"><title>test2</title>
<ellipse fill="none" stroke="blue" cx="3158" cy="-234" rx="141.531" ry="18"/>
<text text-anchor="middle" x="3158" y="-230.3" font-family="Times,serif" font-size="14.00">$arg{article} $arg[3][$arg{sound}] &#160;</text>
</g>
<!-- Grammar&#45;&gt;test2 -->
<g id="edge24" class="edge"><title>Grammar&#45;&gt;test2</title>
<path fill="none" stroke="grey" d="M2074.81,-303.478C2213.43,-298.576 2647.48,-281.759 3006,-252 3019.98,-250.84 3034.65,-249.435 3049.15,-247.936"/>
<polygon fill="grey" stroke="grey" points="3049.57,-251.411 3059.15,-246.884 3048.83,-244.45 3049.57,-251.411"/>
</g>
<!-- id -->
<g id="node21" class="node"><title>id</title>
<ellipse fill="none" stroke="blue" cx="2680" cy="-18" rx="533.879" ry="18"/>
<text text-anchor="middle" x="2680" y="-14.3" font-family="Times,serif" font-size="14.00">/[a&#45;z]		# LEADING ALPHABETIC\n		 &#160;\w*		# FOLLOWED BY ALPHAS, DIGITS, OR UNDERSCORES\n		 /ix &#160;</text>
</g>
<!-- Grammar&#45;&gt;id -->
<g id="edge28" class="edge"><title>Grammar&#45;&gt;id</title>
<path fill="none" stroke="grey" d="M2075.18,-303.699C2206.6,-299.541 2582.24,-284.874 2626,-252 2689.71,-204.134 2688.25,-97.086 2683.52,-46.4925"/>
<polygon fill="grey" stroke="grey" points="2686.98,-45.8929 2682.45,-36.3131 2680.01,-46.6239 2686.98,-45.8929"/>
</g>
<!-- the -->
<g id="node22" class="node"><title>the</title>
<ellipse fill="none" stroke="blue" cx="3347" cy="-234" rx="29.3722" ry="18"/>
<text text-anchor="middle" x="3347" y="-230.3" font-family="Times,serif" font-size="14.00">&#39;the&#39; &#160;</text>
</g>
<!-- Grammar&#45;&gt;the -->
<g id="edge29" class="edge"><title>Grammar&#45;&gt;the</title>
<path fill="none" stroke="grey" d="M2075.54,-305.35C2274.27,-306.534 3066.44,-307.607 3308,-252 3310.52,-251.42 3313.08,-250.681 3315.62,-249.837"/>
<polygon fill="grey" stroke="grey" points="3317.12,-253.013 3325.21,-246.178 3314.62,-246.473 3317.12,-253.013"/>
</g>
<!-- dog -->
<g id="node23" class="node"><title>dog</title>
<ellipse fill="none" stroke="blue" cx="3426" cy="-234" rx="31.2735" ry="18"/>
<text text-anchor="middle" x="3426" y="-230.3" font-family="Times,serif" font-size="14.00">&#39;dog&#39; &#160;</text>
</g>
<!-- Grammar&#45;&gt;dog -->
<g id="edge30" class="edge"><title>Grammar&#45;&gt;dog</title>
<path fill="none" stroke="grey" d="M2075.46,-305.368C2281.31,-306.707 3127.17,-308.594 3385,-252 3387.66,-251.416 3390.37,-250.669 3393.06,-249.816"/>
<polygon fill="grey" stroke="grey" points="3394.4,-253.052 3402.61,-246.358 3392.02,-246.47 3394.4,-253.052"/>
</g>
<!-- test1&#45;&gt;is -->
<g id="edge5" class="edge"><title>test1&#45;&gt;is</title>
<path fill="none" stroke="grey" d="M1166.86,-216.233C1132.86,-204.394 1087.77,-188.692 1055.39,-177.414"/>
<polygon fill="grey" stroke="grey" points="1056.37,-174.049 1045.77,-174.065 1054.07,-180.66 1056.37,-174.049"/>
</g>
<!-- test1&#45;&gt;_alternation_1_of_production_1_of_rule_test1 -->
<g id="edge6" class="edge"><title>test1&#45;&gt;_alternation_1_of_production_1_of_rule_test1</title>
<path fill="none" stroke="grey" d="M1252.04,-216.055C1276.86,-204.696 1309.33,-189.843 1333.59,-178.742"/>
<polygon fill="grey" stroke="grey" points="1335.15,-181.88 1342.78,-174.537 1332.23,-175.515 1335.15,-181.88"/>
</g>
<!-- test5&#45;&gt;name -->
<g id="edge8" class="edge"><title>test5&#45;&gt;name</title>
<path fill="none" stroke="grey" d="M1726.74,-216.588C1709.89,-206.058 1687.99,-192.366 1670.53,-181.458"/>
<polygon fill="grey" stroke="grey" points="1672.2,-178.371 1661.86,-176.039 1668.49,-184.307 1672.2,-178.371"/>
</g>
<!-- test5&#45;&gt;notname -->
<g id="edge9" class="edge"><title>test5&#45;&gt;notname</title>
<path fill="none" stroke="grey" d="M1767.52,-216.055C1774.89,-207.457 1783.98,-196.857 1792.09,-187.397"/>
<polygon fill="grey" stroke="grey" points="1794.76,-189.659 1798.61,-179.789 1789.44,-185.104 1794.76,-189.659"/>
</g>
<!-- test3&#45;&gt;_alternation_1_of_production_1_of_rule_test3 -->
<g id="edge12" class="edge"><title>test3&#45;&gt;_alternation_1_of_production_1_of_rule_test3</title>
<path fill="none" stroke="grey" d="M2384.81,-216.233C2404.17,-206.342 2428.81,-193.755 2449.26,-183.305"/>
<polygon fill="grey" stroke="grey" points="2451.02,-186.337 2458.33,-178.671 2447.83,-180.104 2451.02,-186.337"/>
</g>
<!-- _alternation_1_of_production_1_of_rule_test3&#45;&gt;defn -->
<g id="edge14" class="edge"><title>_alternation_1_of_production_1_of_rule_test3&#45;&gt;defn</title>
<path fill="none" stroke="grey" d="M2489,-143.697C2489,-135.983 2489,-126.712 2489,-118.112"/>
<polygon fill="grey" stroke="grey" points="2492.5,-118.104 2489,-108.104 2485.5,-118.104 2492.5,-118.104"/>
</g>
<!-- _alternation_1_of_production_1_of_rule_test3&#45;&gt;typedef -->
<g id="edge15" class="edge"><title>_alternation_1_of_production_1_of_rule_test3&#45;&gt;typedef</title>
<path fill="none" stroke="grey" d="M2440.82,-147.669C2400.16,-136.421 2341.72,-120.25 2297.66,-108.06"/>
<polygon fill="grey" stroke="grey" points="2298.49,-104.659 2287.92,-105.366 2296.63,-111.406 2298.49,-104.659"/>
</g>
<!-- _alternation_1_of_production_1_of_rule_test3&#45;&gt;fail -->
<g id="edge16" class="edge"><title>_alternation_1_of_production_1_of_rule_test3&#45;&gt;fail</title>
<path fill="none" stroke="grey" d="M2523.07,-145.625C2546.42,-135.072 2578.1,-120.727 2606,-108 2608.04,-107.07 2610.14,-106.11 2612.25,-105.142"/>
<polygon fill="grey" stroke="grey" points="2613.86,-108.257 2621.49,-100.908 2610.94,-101.895 2613.86,-108.257"/>
</g>
<!-- defn&#45;&gt;typename -->
<g id="edge26" class="edge"><title>defn&#45;&gt;typename</title>
<path fill="none" stroke="grey" d="M2403.3,-78.9015C2315.57,-68.0612 2185.41,-50.4501 2137,-36 2134.85,-35.3593 2132.67,-34.6168 2130.5,-33.8074"/>
<polygon fill="grey" stroke="grey" points="2131.7,-30.5198 2121.13,-29.9398 2129.03,-36.9903 2131.7,-30.5198"/>
</g>
<!-- defn&#45;&gt;id -->
<g id="edge25" class="edge"><title>defn&#45;&gt;id</title>
<path fill="none" stroke="grey" d="M2531.86,-73.2906C2559.04,-63.3314 2594.48,-50.3417 2623.89,-39.5655"/>
<polygon fill="grey" stroke="grey" points="2625.42,-42.7307 2633.61,-36.0033 2623.01,-36.1582 2625.42,-42.7307"/>
</g>
<!-- typedef&#45;&gt;typename -->
<g id="edge32" class="edge"><title>typedef&#45;&gt;typename</title>
<path fill="none" stroke="grey" d="M2204.46,-72.7646C2182.07,-61.2439 2152.21,-45.8721 2130.15,-34.5163"/>
<polygon fill="grey" stroke="grey" points="2131.71,-31.3828 2121.21,-29.9183 2128.5,-37.6067 2131.71,-31.3828"/>
</g>
<!-- typedef&#45;&gt;id -->
<g id="edge31" class="edge"><title>typedef&#45;&gt;id</title>
<path fill="none" stroke="grey" d="M2307.83,-77.6755C2377.03,-66.7659 2482.87,-50.079 2564.02,-37.2857"/>
<polygon fill="grey" stroke="grey" points="2564.95,-40.6811 2574.29,-35.6664 2563.86,-33.7665 2564.95,-40.6811"/>
</g>
<!-- test4&#45;&gt;b -->
<g id="edge21" class="edge"><title>test4&#45;&gt;b</title>
<path fill="none" stroke="grey" d="M829.573,-216.411C824.18,-207.832 817.491,-197.191 811.507,-187.67"/>
<polygon fill="grey" stroke="grey" points="814.335,-185.592 806.05,-178.988 808.408,-189.317 814.335,-185.592"/>
</g>
</g>
</svg>
