<?xml version="1.0" encoding="UTF-8" standalone="no"?>
<!DOCTYPE svg PUBLIC "-//W3C//DTD SVG 1.1//EN"
 "http://www.w3.org/Graphics/SVG/1.1/DTD/svg11.dtd">
<!-- Generated by graphviz version 2.38.0 (20140413.2041)
 -->
<!-- Title: Perl Pages: 1 -->
<svg width="422pt" height="332pt"
 viewBox="0.00 0.00 422.00 332.00" xmlns="http://www.w3.org/2000/svg" xmlns:xlink="http://www.w3.org/1999/xlink">
<g id="graph0" class="graph" transform="scale(1 1) rotate(0) translate(4 328)">
<title>Perl</title>
<polygon fill="white" stroke="none" points="-4,4 -4,-328 418,-328 418,4 -4,4"/>
<!-- person -->
<g id="node1" class="node"><title>person</title>
<ellipse fill="none" stroke="blue" cx="153" cy="-306" rx="27" ry="18"/>
</g>
<!-- name -->
<g id="node2" class="node"><title>name</title>
<ellipse fill="none" stroke="blue" cx="99" cy="-234" rx="27" ry="18"/>
</g>
<!-- person&#45;&gt;name -->
<g id="edge1" class="edge"><title>person&#45;&gt;name</title>
<path fill="none" stroke="grey" d="M141.016,-289.465C134.024,-280.402 125.064,-268.786 117.215,-258.612"/>
<polygon fill="grey" stroke="grey" points="119.83,-256.272 110.951,-250.492 114.288,-260.548 119.83,-256.272"/>
</g>
<!-- address -->
<g id="node7" class="node"><title>address</title>
<ellipse fill="none" stroke="blue" cx="207" cy="-234" rx="27" ry="18"/>
</g>
<!-- person&#45;&gt;address -->
<g id="edge6" class="edge"><title>person&#45;&gt;address</title>
<path fill="none" stroke="grey" d="M164.984,-289.465C171.976,-280.402 180.936,-268.786 188.785,-258.612"/>
<polygon fill="grey" stroke="grey" points="191.712,-260.548 195.049,-250.492 186.17,-256.272 191.712,-260.548"/>
</g>
<!-- given_name -->
<g id="node3" class="node"><title>given_name</title>
<ellipse fill="none" stroke="blue" cx="27" cy="-162" rx="27" ry="18"/>
</g>
<!-- name&#45;&gt;given_name -->
<g id="edge2" class="edge"><title>name&#45;&gt;given_name</title>
<path fill="none" stroke="grey" d="M84.4297,-218.834C74.2501,-208.938 60.4761,-195.546 48.9694,-184.359"/>
<polygon fill="grey" stroke="grey" points="51.4055,-181.846 41.7957,-177.385 46.5259,-186.865 51.4055,-181.846"/>
</g>
<!-- surname -->
<g id="node5" class="node"><title>surname</title>
<ellipse fill="none" stroke="blue" cx="99" cy="-162" rx="27" ry="18"/>
</g>
<!-- name&#45;&gt;surname -->
<g id="edge4" class="edge"><title>name&#45;&gt;surname</title>
<path fill="none" stroke="grey" d="M99,-215.697C99,-207.983 99,-198.712 99,-190.112"/>
<polygon fill="grey" stroke="grey" points="102.5,-190.104 99,-180.104 95.5001,-190.104 102.5,-190.104"/>
</g>
<!-- Ron -->
<g id="node4" class="node"><title>Ron</title>
<polygon fill="none" stroke="blue" points="54,-108 0,-108 0,-72 54,-72 54,-108"/>
</g>
<!-- given_name&#45;&gt;Ron -->
<g id="edge3" class="edge"><title>given_name&#45;&gt;Ron</title>
<path fill="none" stroke="grey" d="M27,-143.697C27,-135.983 27,-126.712 27,-118.112"/>
<polygon fill="grey" stroke="grey" points="30.5001,-118.104 27,-108.104 23.5001,-118.104 30.5001,-118.104"/>
</g>
<!-- Savage -->
<g id="node6" class="node"><title>Savage</title>
<polygon fill="none" stroke="blue" points="126,-108 72,-108 72,-72 126,-72 126,-108"/>
</g>
<!-- surname&#45;&gt;Savage -->
<g id="edge5" class="edge"><title>surname&#45;&gt;Savage</title>
<path fill="none" stroke="grey" d="M99,-143.697C99,-135.983 99,-126.712 99,-118.112"/>
<polygon fill="grey" stroke="grey" points="102.5,-118.104 99,-108.104 95.5001,-118.104 102.5,-118.104"/>
</g>
<!-- country -->
<g id="node8" class="node"><title>country</title>
<ellipse fill="none" stroke="blue" cx="171" cy="-162" rx="27" ry="18"/>
</g>
<!-- address&#45;&gt;country -->
<g id="edge7" class="edge"><title>address&#45;&gt;country</title>
<path fill="none" stroke="grey" d="M198.65,-216.765C194.288,-208.283 188.853,-197.714 183.959,-188.197"/>
<polygon fill="grey" stroke="grey" points="186.99,-186.439 179.304,-179.147 180.765,-189.641 186.99,-186.439"/>
</g>
<!-- state -->
<g id="node10" class="node"><title>state</title>
<ellipse fill="none" stroke="blue" cx="243" cy="-162" rx="27" ry="18"/>
</g>
<!-- address&#45;&gt;state -->
<g id="edge9" class="edge"><title>address&#45;&gt;state</title>
<path fill="none" stroke="grey" d="M215.35,-216.765C219.712,-208.283 225.147,-197.714 230.041,-188.197"/>
<polygon fill="grey" stroke="grey" points="233.235,-189.641 234.696,-179.147 227.01,-186.439 233.235,-189.641"/>
</g>
<!-- city -->
<g id="node12" class="node"><title>city</title>
<ellipse fill="none" stroke="blue" cx="315" cy="-162" rx="27" ry="18"/>
</g>
<!-- address&#45;&gt;city -->
<g id="edge11" class="edge"><title>address&#45;&gt;city</title>
<path fill="none" stroke="grey" d="M225.812,-220.807C243.002,-209.665 268.618,-193.062 287.993,-180.504"/>
<polygon fill="grey" stroke="grey" points="289.916,-183.429 296.403,-175.053 286.108,-177.555 289.916,-183.429"/>
</g>
<!-- Australia -->
<g id="node9" class="node"><title>Australia</title>
<polygon fill="none" stroke="blue" points="198,-108 144,-108 144,-72 198,-72 198,-108"/>
</g>
<!-- country&#45;&gt;Australia -->
<g id="edge8" class="edge"><title>country&#45;&gt;Australia</title>
<path fill="none" stroke="grey" d="M171,-143.697C171,-135.983 171,-126.712 171,-118.112"/>
<polygon fill="grey" stroke="grey" points="174.5,-118.104 171,-108.104 167.5,-118.104 174.5,-118.104"/>
</g>
<!-- Victoria -->
<g id="node11" class="node"><title>Victoria</title>
<polygon fill="none" stroke="blue" points="270,-108 216,-108 216,-72 270,-72 270,-108"/>
</g>
<!-- state&#45;&gt;Victoria -->
<g id="edge10" class="edge"><title>state&#45;&gt;Victoria</title>
<path fill="none" stroke="grey" d="M243,-143.697C243,-135.983 243,-126.712 243,-118.112"/>
<polygon fill="grey" stroke="grey" points="246.5,-118.104 243,-108.104 239.5,-118.104 246.5,-118.104"/>
</g>
<!-- locality -->
<g id="node13" class="node"><title>locality</title>
<ellipse fill="none" stroke="blue" cx="315" cy="-90" rx="27" ry="18"/>
</g>
<!-- city&#45;&gt;locality -->
<g id="edge12" class="edge"><title>city&#45;&gt;locality</title>
<path fill="none" stroke="grey" d="M315,-143.697C315,-135.983 315,-126.712 315,-118.112"/>
<polygon fill="grey" stroke="grey" points="318.5,-118.104 315,-108.104 311.5,-118.104 318.5,-118.104"/>
</g>
<!-- postcode -->
<g id="node15" class="node"><title>postcode</title>
<ellipse fill="none" stroke="blue" cx="387" cy="-90" rx="27" ry="18"/>
</g>
<!-- city&#45;&gt;postcode -->
<g id="edge14" class="edge"><title>city&#45;&gt;postcode</title>
<path fill="none" stroke="grey" d="M329.57,-146.834C339.75,-136.938 353.524,-123.546 365.031,-112.359"/>
<polygon fill="grey" stroke="grey" points="367.474,-114.865 372.204,-105.385 362.595,-109.846 367.474,-114.865"/>
</g>
<!-- Murrumbeena -->
<g id="node14" class="node"><title>Murrumbeena</title>
<polygon fill="none" stroke="blue" points="342,-36 288,-36 288,-0 342,-0 342,-36"/>
</g>
<!-- locality&#45;&gt;Murrumbeena -->
<g id="edge13" class="edge"><title>locality&#45;&gt;Murrumbeena</title>
<path fill="none" stroke="grey" d="M315,-71.6966C315,-63.9827 315,-54.7125 315,-46.1124"/>
<polygon fill="grey" stroke="grey" points="318.5,-46.1043 315,-36.1043 311.5,-46.1044 318.5,-46.1043"/>
</g>
<!-- 3163 -->
<g id="node16" class="node"><title>3163</title>
<polygon fill="none" stroke="blue" points="414,-36 360,-36 360,-0 414,-0 414,-36"/>
</g>
<!-- postcode&#45;&gt;3163 -->
<g id="edge15" class="edge"><title>postcode&#45;&gt;3163</title>
<path fill="none" stroke="grey" d="M387,-71.6966C387,-63.9827 387,-54.7125 387,-46.1124"/>
<polygon fill="grey" stroke="grey" points="390.5,-46.1043 387,-36.1043 383.5,-46.1044 390.5,-46.1043"/>
</g>
</g>
</svg>
