<?xml version="1.0" encoding="UTF-8" standalone="no"?>
<!DOCTYPE svg PUBLIC "-//W3C//DTD SVG 1.1//EN"
 "http://www.w3.org/Graphics/SVG/1.1/DTD/svg11.dtd">
<!-- Generated by graphviz version 2.38.0 (20140413.2041)
 -->
<!-- Title: Perl Pages: 1 -->
<svg width="3471pt" height="332pt"
 viewBox="0.00 0.00 3470.84 332.00" xmlns="http://www.w3.org/2000/svg" xmlns:xlink="http://www.w3.org/1999/xlink">
<g id="graph0" class="graph" transform="scale(1 1) rotate(0) translate(4 328)">
<title>Perl</title>
<polygon fill="white" stroke="none" points="-4,4 -4,-328 3466.84,-328 3466.84,4 -4,4"/>
<!-- Grammar -->
<g id="node1" class="node"><title>Grammar</title>
<ellipse fill="none" stroke="blue" cx="1709" cy="-306" rx="46.5926" ry="18"/>
<text text-anchor="middle" x="1709" y="-302.3" font-family="Times,serif" font-size="14.00">Grammar</text>
</g>
<!-- b -->
<g id="node2" class="node"><title>b</title>
<ellipse fill="none" stroke="blue" cx="27" cy="-162" rx="27" ry="18"/>
<text text-anchor="middle" x="27" y="-158.3" font-family="Times,serif" font-size="14.00">&#39;b&#39; &#160;</text>
</g>
<!-- Grammar&#45;&gt;b -->
<g id="edge1" class="edge"><title>Grammar&#45;&gt;b</title>
<path fill="none" stroke="grey" d="M1662.28,-304.429C1392.19,-301.022 41.5383,-282.475 12,-252 -4.21351,-235.272 3.46401,-207.957 12.7515,-187.993"/>
<polygon fill="grey" stroke="grey" points="15.9775,-189.368 17.3425,-178.862 9.72342,-186.224 15.9775,-189.368"/>
</g>
<!-- test6 -->
<g id="node3" class="node"><title>test6</title>
<ellipse fill="none" stroke="blue" cx="490" cy="-234" rx="371.534" ry="18"/>
<text text-anchor="middle" x="490" y="-230.3" font-family="Times,serif" font-size="14.00">&lt;rulevar: $test6 = 1&gt; &#160;&#39;a&#39; &lt;commit&gt; &#39;b&#39; &lt;uncommit&gt; &#39;c&#39; &lt;reject: $test6 &amp;&amp; $text&gt; &#160;&lt;uncommit&gt; &#160;&#39;a&#39; &#160;</text>
</g>
<!-- Grammar&#45;&gt;test6 -->
<g id="edge2" class="edge"><title>Grammar&#45;&gt;test6</title>
<path fill="none" stroke="grey" d="M1663.07,-302.363C1512.55,-293.719 1026.78,-265.824 729.625,-248.76"/>
<polygon fill="grey" stroke="grey" points="729.758,-245.262 719.574,-248.183 729.357,-252.251 729.758,-245.262"/>
</g>
<!-- test3 -->
<g id="node4" class="node"><title>test3</title>
<ellipse fill="none" stroke="blue" cx="1202" cy="-234" rx="207.963" ry="18"/>
<text text-anchor="middle" x="1202" y="-230.3" font-family="Times,serif" font-size="14.00">_alternation_1_of_production_1_of_rule_test3(5..10) &#160;</text>
</g>
<!-- Grammar&#45;&gt;test3 -->
<g id="edge4" class="edge"><title>Grammar&#45;&gt;test3</title>
<path fill="none" stroke="grey" d="M1665.77,-299.032C1589.43,-288.492 1428.36,-266.252 1317.66,-250.969"/>
<polygon fill="grey" stroke="grey" points="1317.83,-247.46 1307.45,-249.559 1316.87,-254.394 1317.83,-247.46"/>
</g>
<!-- _alternation_1_of_production_1_of_rule_test3 -->
<g id="node5" class="node"><title>_alternation_1_of_production_1_of_rule_test3</title>
<ellipse fill="none" stroke="blue" cx="1161" cy="-162" rx="76.8869" ry="18"/>
<text text-anchor="middle" x="1161" y="-158.3" font-family="Times,serif" font-size="14.00">defn &#160;typedef &#160;fail &#160;</text>
</g>
<!-- Grammar&#45;&gt;_alternation_1_of_production_1_of_rule_test3 -->
<g id="edge17" class="edge"><title>Grammar&#45;&gt;_alternation_1_of_production_1_of_rule_test3</title>
<path fill="none" stroke="grey" d="M1662.25,-305.176C1509.32,-305.268 1031.07,-301.561 985,-252 947.937,-212.125 1024.8,-187.45 1088.37,-174.476"/>
<polygon fill="grey" stroke="grey" points="1089.31,-177.86 1098.44,-172.494 1087.95,-170.991 1089.31,-177.86"/>
</g>
<!-- fail -->
<g id="node6" class="node"><title>fail</title>
<ellipse fill="none" stroke="blue" cx="976" cy="-90" rx="27" ry="18"/>
<text text-anchor="middle" x="976" y="-86.3" font-family="Times,serif" font-size="14.00"> </text>
</g>
<!-- Grammar&#45;&gt;fail -->
<g id="edge5" class="edge"><title>Grammar&#45;&gt;fail</title>
<path fill="none" stroke="grey" d="M1662.23,-305.241C1507.45,-305.554 1019,-302.504 972,-252 938.279,-215.767 953.107,-152.658 965.465,-117.168"/>
<polygon fill="grey" stroke="grey" points="968.847,-118.112 969.004,-107.518 962.275,-115.702 968.847,-118.112"/>
</g>
<!-- _alternation_1_of_production_1_of_rule_test1 -->
<g id="node7" class="node"><title>_alternation_1_of_production_1_of_rule_test1</title>
<ellipse fill="none" stroke="blue" cx="1674" cy="-162" rx="33.5952" ry="18"/>
<text text-anchor="middle" x="1674" y="-158.3" font-family="Times,serif" font-size="14.00">&#39;easy&#39; &#160;</text>
</g>
<!-- Grammar&#45;&gt;_alternation_1_of_production_1_of_rule_test1 -->
<g id="edge6" class="edge"><title>Grammar&#45;&gt;_alternation_1_of_production_1_of_rule_test1</title>
<path fill="none" stroke="grey" d="M1663.89,-300.758C1632.12,-295.149 1591.71,-282.142 1571,-252 1561.94,-238.813 1562.67,-229.659 1571,-216 1584.59,-193.717 1610.88,-180.406 1633.49,-172.696"/>
<polygon fill="grey" stroke="grey" points="1634.75,-175.97 1643.24,-169.631 1632.65,-169.293 1634.75,-175.97"/>
</g>
<!-- id -->
<g id="node8" class="node"><title>id</title>
<ellipse fill="none" stroke="blue" cx="924" cy="-18" rx="509.61" ry="18"/>
<text text-anchor="middle" x="924" y="-14.3" font-family="Times,serif" font-size="14.00">/[a&#45;z]		# LEADING ALPHABETIC\n		 &#160;\w*		# FOLLOWED BY ALPHAS, DIGITS, OR UNDERSCORES\n		 /ix &#160;</text>
</g>
<!-- Grammar&#45;&gt;id -->
<g id="edge7" class="edge"><title>Grammar&#45;&gt;id</title>
<path fill="none" stroke="grey" d="M1662.22,-305.127C1504.98,-305.096 1002.42,-301.126 951,-252 894.767,-198.273 907.411,-95.0286 917.459,-46.0541"/>
<polygon fill="grey" stroke="grey" points="920.899,-46.7061 919.601,-36.1911 914.059,-45.2206 920.899,-46.7061"/>
</g>
<!-- typedef -->
<g id="node9" class="node"><title>typedef</title>
<ellipse fill="none" stroke="blue" cx="1387" cy="-90" rx="98.5829" ry="18"/>
<text text-anchor="middle" x="1387" y="-86.3" font-family="Times,serif" font-size="14.00">&#39;type&#39; id &#39;is&#39; typename &#39;;&#39; &#160;</text>
</g>
<!-- Grammar&#45;&gt;typedef -->
<g id="edge10" class="edge"><title>Grammar&#45;&gt;typedef</title>
<path fill="none" stroke="grey" d="M1662.19,-304.517C1615.98,-301.657 1545.79,-290.605 1500,-252 1459.84,-218.142 1483.89,-185.737 1452,-144 1443.33,-132.66 1431.78,-122.234 1420.81,-113.685"/>
<polygon fill="grey" stroke="grey" points="1422.7,-110.726 1412.6,-107.529 1418.5,-116.327 1422.7,-110.726"/>
</g>
<!-- typename -->
<g id="node10" class="node"><title>typename</title>
<ellipse fill="none" stroke="blue" cx="1480" cy="-18" rx="28.6953" ry="18"/>
<text text-anchor="middle" x="1480" y="-14.3" font-family="Times,serif" font-size="14.00">&#39;int&#39; &#160;</text>
</g>
<!-- Grammar&#45;&gt;typename -->
<g id="edge31" class="edge"><title>Grammar&#45;&gt;typename</title>
<path fill="none" stroke="grey" d="M1665.03,-299.54C1632.33,-293.291 1588.76,-280.016 1561,-252 1545.96,-236.82 1505.14,-103.696 1487.88,-45.7531"/>
<polygon fill="grey" stroke="grey" points="1491.14,-44.4451 1484.94,-35.8541 1484.43,-46.4367 1491.14,-44.4451"/>
</g>
<!-- test1 -->
<g id="node11" class="node"><title>test1</title>
<ellipse fill="none" stroke="blue" cx="1867" cy="-234" rx="287.049" ry="18"/>
<text text-anchor="middle" x="1867" y="-230.3" font-family="Times,serif" font-size="14.00">&#39;(&#39; &#39;the&#39; &#39;$::first&#39; /te+st/ is _alternation_1_of_production_1_of_rule_test1(s?) &#160;</text>
</g>
<!-- Grammar&#45;&gt;test1 -->
<g id="edge13" class="edge"><title>Grammar&#45;&gt;test1</title>
<path fill="none" stroke="grey" d="M1738.72,-291.834C1761.41,-281.781 1793.13,-267.727 1819.35,-256.11"/>
<polygon fill="grey" stroke="grey" points="1821.01,-259.203 1828.74,-251.953 1818.17,-252.803 1821.01,-259.203"/>
</g>
<!-- is -->
<g id="node12" class="node"><title>is</title>
<ellipse fill="none" stroke="blue" cx="2024" cy="-162" rx="43.5923" ry="18"/>
<text text-anchor="middle" x="2024" y="-158.3" font-family="Times,serif" font-size="14.00">&#39;is&#39; &#160;&#39;are&#39; &#160;</text>
</g>
<!-- Grammar&#45;&gt;is -->
<g id="edge24" class="edge"><title>Grammar&#45;&gt;is</title>
<path fill="none" stroke="grey" d="M1755.47,-303.013C1865.77,-297.821 2136.19,-282.12 2163,-252 2173.64,-240.048 2172.08,-229.176 2163,-216 2143.65,-187.911 2107.27,-174.698 2076.58,-168.488"/>
<polygon fill="grey" stroke="grey" points="2076.89,-164.987 2066.42,-166.639 2075.64,-171.874 2076.89,-164.987"/>
</g>
<!-- defn -->
<g id="node13" class="node"><title>defn</title>
<ellipse fill="none" stroke="blue" cx="1161" cy="-90" rx="109.381" ry="18"/>
<text text-anchor="middle" x="1161" y="-86.3" font-family="Times,serif" font-size="14.00">&#39;var&#39; id &#39;holds&#39; typename &#39;;&#39; &#160;</text>
</g>
<!-- Grammar&#45;&gt;defn -->
<g id="edge23" class="edge"><title>Grammar&#45;&gt;defn</title>
<path fill="none" stroke="grey" d="M1664.44,-299.946C1615.84,-293.316 1536.5,-279.184 1473,-252 1446.48,-240.649 1444.04,-230.322 1419,-216 1347.21,-174.938 1259.93,-134.52 1207.5,-111.208"/>
<polygon fill="grey" stroke="grey" points="1208.69,-107.907 1198.13,-107.058 1205.86,-114.307 1208.69,-107.907"/>
</g>
<!-- test4 -->
<g id="node14" class="node"><title>test4</title>
<ellipse fill="none" stroke="blue" cx="61" cy="-234" rx="39.7935" ry="18"/>
<text text-anchor="middle" x="61" y="-230.3" font-family="Times,serif" font-size="14.00">&#39;a&#39; b /c/ &#160;</text>
</g>
<!-- Grammar&#45;&gt;test4 -->
<g id="edge19" class="edge"><title>Grammar&#45;&gt;test4</title>
<path fill="none" stroke="grey" d="M1662.17,-304.305C1414.71,-300.516 264.836,-281.445 109,-252 105.742,-251.384 102.409,-250.585 99.0926,-249.667"/>
<polygon fill="grey" stroke="grey" points="99.8715,-246.245 89.2838,-246.631 97.8018,-252.932 99.8715,-246.245"/>
</g>
<!-- test2 -->
<g id="node15" class="node"><title>test2</title>
<ellipse fill="none" stroke="blue" cx="2352" cy="-234" rx="141.875" ry="18"/>
<text text-anchor="middle" x="2352" y="-230.3" font-family="Times,serif" font-size="14.00">$arg{article} $arg[3][$arg{sound}] &#160;</text>
</g>
<!-- Grammar&#45;&gt;test2 -->
<g id="edge20" class="edge"><title>Grammar&#45;&gt;test2</title>
<path fill="none" stroke="grey" d="M1753.32,-300.179C1838.89,-290.87 2032.82,-269.77 2196,-252 2209.62,-250.517 2223.91,-248.96 2238.08,-247.416"/>
<polygon fill="grey" stroke="grey" points="2238.81,-250.858 2248.37,-246.295 2238.05,-243.899 2238.81,-250.858"/>
</g>
<!-- dog -->
<g id="node16" class="node"><title>dog</title>
<ellipse fill="none" stroke="blue" cx="2543" cy="-234" rx="31.3957" ry="18"/>
<text text-anchor="middle" x="2543" y="-230.3" font-family="Times,serif" font-size="14.00">&#39;dog&#39; &#160;</text>
</g>
<!-- Grammar&#45;&gt;dog -->
<g id="edge25" class="edge"><title>Grammar&#45;&gt;dog</title>
<path fill="none" stroke="grey" d="M1755.52,-303.933C1903.12,-300.23 2359.55,-286.234 2503,-252 2505.35,-251.438 2507.74,-250.751 2510.13,-249.978"/>
<polygon fill="grey" stroke="grey" points="2511.59,-253.169 2519.76,-246.42 2509.16,-246.603 2511.59,-253.169"/>
</g>
<!-- test7 -->
<g id="node17" class="node"><title>test7</title>
<ellipse fill="none" stroke="blue" cx="2667" cy="-234" rx="74.9875" ry="18"/>
<text text-anchor="middle" x="2667" y="-230.3" font-family="Times,serif" font-size="14.00">&#39;x&#39; &lt;resync&gt; /y+/ &#160;</text>
</g>
<!-- Grammar&#45;&gt;test7 -->
<g id="edge26" class="edge"><title>Grammar&#45;&gt;test7</title>
<path fill="none" stroke="grey" d="M1755.64,-304.451C1886.62,-302.419 2268.73,-293.127 2583,-252 2589.84,-251.105 2596.96,-249.977 2604.03,-248.729"/>
<polygon fill="grey" stroke="grey" points="2605.12,-252.087 2614.31,-246.828 2603.84,-245.203 2605.12,-252.087"/>
</g>
<!-- test5 -->
<g id="node18" class="node"><title>test5</title>
<ellipse fill="none" stroke="blue" cx="2891" cy="-234" rx="92.8835" ry="18"/>
<text text-anchor="middle" x="2891" y="-230.3" font-family="Times,serif" font-size="14.00">name notname &#160;name &#160;</text>
</g>
<!-- Grammar&#45;&gt;test5 -->
<g id="edge29" class="edge"><title>Grammar&#45;&gt;test5</title>
<path fill="none" stroke="grey" d="M1755.76,-304.501C1905.68,-302.515 2387.65,-293.134 2784,-252 2793.89,-250.973 2804.26,-249.646 2814.49,-248.185"/>
<polygon fill="grey" stroke="grey" points="2815.27,-251.608 2824.65,-246.686 2814.25,-244.683 2815.27,-251.608"/>
</g>
<!-- name -->
<g id="node19" class="node"><title>name</title>
<ellipse fill="none" stroke="blue" cx="2779" cy="-162" rx="33.2948" ry="18"/>
<text text-anchor="middle" x="2779" y="-158.3" font-family="Times,serif" font-size="14.00">&#39;fred&#39; &#160;</text>
</g>
<!-- Grammar&#45;&gt;name -->
<g id="edge30" class="edge"><title>Grammar&#45;&gt;name</title>
<path fill="none" stroke="grey" d="M1755.81,-304.098C1953.44,-300.104 2711.15,-282.825 2751,-252 2769.66,-237.568 2776.15,-210.758 2778.28,-190.321"/>
<polygon fill="grey" stroke="grey" points="2781.77,-190.55 2779.04,-180.315 2774.79,-190.022 2781.77,-190.55"/>
</g>
<!-- notname -->
<g id="node20" class="node"><title>notname</title>
<ellipse fill="none" stroke="blue" cx="2951" cy="-162" rx="51.1914" ry="18"/>
<text text-anchor="middle" x="2951" y="-158.3" font-family="Times,serif" font-size="14.00">/[a&#45;z]\w*/i &#160;</text>
</g>
<!-- Grammar&#45;&gt;notname -->
<g id="edge33" class="edge"><title>Grammar&#45;&gt;notname</title>
<path fill="none" stroke="grey" d="M1755.97,-304.861C1982.08,-303.965 2949.36,-297.477 2993,-252 3010.86,-233.39 2993.05,-205.78 2975.43,-186.255"/>
<polygon fill="grey" stroke="grey" points="2977.92,-183.8 2968.51,-178.948 2972.84,-188.614 2977.92,-183.8"/>
</g>
<!-- a -->
<g id="node21" class="node"><title>a</title>
<ellipse fill="none" stroke="blue" cx="3067" cy="-234" rx="27" ry="18"/>
<text text-anchor="middle" x="3067" y="-230.3" font-family="Times,serif" font-size="14.00">&#39;a&#39; &#160;</text>
</g>
<!-- Grammar&#45;&gt;a -->
<g id="edge32" class="edge"><title>Grammar&#45;&gt;a</title>
<path fill="none" stroke="grey" d="M1755.9,-305.315C1960.59,-306.355 2776.54,-306.905 3026,-252 3029.41,-251.248 3032.91,-250.229 3036.34,-249.061"/>
<polygon fill="grey" stroke="grey" points="3037.66,-252.304 3045.76,-245.472 3035.17,-245.763 3037.66,-252.304"/>
</g>
<!-- the -->
<g id="node22" class="node"><title>the</title>
<ellipse fill="none" stroke="blue" cx="3143" cy="-234" rx="30.5947" ry="18"/>
<text text-anchor="middle" x="3143" y="-230.3" font-family="Times,serif" font-size="14.00">&#39;the&#39; &#160;</text>
</g>
<!-- Grammar&#45;&gt;the -->
<g id="edge34" class="edge"><title>Grammar&#45;&gt;the</title>
<path fill="none" stroke="grey" d="M1755.69,-304.23C1983.1,-300.344 2969.31,-281.886 3103,-252 3105.51,-251.438 3108.07,-250.724 3110.61,-249.908"/>
<polygon fill="grey" stroke="grey" points="3112.04,-253.111 3120.21,-246.365 3109.61,-246.543 3112.04,-253.111"/>
</g>
<!-- cat -->
<g id="node23" class="node"><title>cat</title>
<ellipse fill="none" stroke="blue" cx="3327" cy="-234" rx="135.676" ry="18"/>
<text text-anchor="middle" x="3327" y="-230.3" font-family="Times,serif" font-size="14.00">&lt;reject: $arg[0] ne &#39;meows&#39;&gt; &#39;cat&#39; &#160;&#160;</text>
</g>
<!-- Grammar&#45;&gt;cat -->
<g id="edge35" class="edge"><title>Grammar&#45;&gt;cat</title>
<path fill="none" stroke="grey" d="M1755.86,-304.705C1938.77,-303.259 2622.26,-295.108 3183,-252 3196.1,-250.993 3209.85,-249.69 3223.43,-248.253"/>
<polygon fill="grey" stroke="grey" points="3224.2,-251.689 3233.77,-247.131 3223.45,-244.73 3224.2,-251.689"/>
</g>
<!-- test3&#45;&gt;_alternation_1_of_production_1_of_rule_test3 -->
<g id="edge3" class="edge"><title>test3&#45;&gt;_alternation_1_of_production_1_of_rule_test3</title>
<path fill="none" stroke="grey" d="M1191.87,-215.697C1187.15,-207.644 1181.44,-197.894 1176.22,-188.982"/>
<polygon fill="grey" stroke="grey" points="1179.09,-186.964 1171.02,-180.104 1173.05,-190.502 1179.09,-186.964"/>
</g>
<!-- _alternation_1_of_production_1_of_rule_test3&#45;&gt;fail -->
<g id="edge16" class="edge"><title>_alternation_1_of_production_1_of_rule_test3&#45;&gt;fail</title>
<path fill="none" stroke="grey" d="M1122.22,-146.326C1088.56,-133.592 1040.39,-115.365 1008.67,-103.361"/>
<polygon fill="grey" stroke="grey" points="1009.58,-99.9631 998.986,-99.6976 1007.1,-106.51 1009.58,-99.9631"/>
</g>
<!-- _alternation_1_of_production_1_of_rule_test3&#45;&gt;typedef -->
<g id="edge15" class="edge"><title>_alternation_1_of_production_1_of_rule_test3&#45;&gt;typedef</title>
<path fill="none" stroke="grey" d="M1205.38,-147.254C1240.78,-136.289 1290.64,-120.845 1329.17,-108.912"/>
<polygon fill="grey" stroke="grey" points="1330.69,-112.105 1339.21,-105.803 1328.62,-105.419 1330.69,-112.105"/>
</g>
<!-- _alternation_1_of_production_1_of_rule_test3&#45;&gt;defn -->
<g id="edge14" class="edge"><title>_alternation_1_of_production_1_of_rule_test3&#45;&gt;defn</title>
<path fill="none" stroke="grey" d="M1161,-143.697C1161,-135.983 1161,-126.712 1161,-118.112"/>
<polygon fill="grey" stroke="grey" points="1164.5,-118.104 1161,-108.104 1157.5,-118.104 1164.5,-118.104"/>
</g>
<!-- typedef&#45;&gt;id -->
<g id="edge8" class="edge"><title>typedef&#45;&gt;id</title>
<path fill="none" stroke="grey" d="M1314.98,-77.5816C1302.96,-75.7007 1290.63,-73.7838 1279,-72 1201.8,-60.1613 1115.1,-47.2108 1046.7,-37.0748"/>
<polygon fill="grey" stroke="grey" points="1047.16,-33.6033 1036.75,-35.6002 1046.13,-40.5278 1047.16,-33.6033"/>
</g>
<!-- typedef&#45;&gt;typename -->
<g id="edge9" class="edge"><title>typedef&#45;&gt;typename</title>
<path fill="none" stroke="grey" d="M1409.04,-72.411C1422.47,-62.2998 1439.71,-49.3228 1453.84,-38.6922"/>
<polygon fill="grey" stroke="grey" points="1456.28,-41.2331 1462.17,-32.4229 1452.07,-35.6403 1456.28,-41.2331"/>
</g>
<!-- test1&#45;&gt;_alternation_1_of_production_1_of_rule_test1 -->
<g id="edge12" class="edge"><title>test1&#45;&gt;_alternation_1_of_production_1_of_rule_test1</title>
<path fill="none" stroke="grey" d="M1820.77,-216.233C1787.06,-204.007 1742,-187.662 1710.73,-176.323"/>
<polygon fill="grey" stroke="grey" points="1711.69,-172.949 1701.1,-172.829 1709.31,-179.529 1711.69,-172.949"/>
</g>
<!-- test1&#45;&gt;is -->
<g id="edge11" class="edge"><title>test1&#45;&gt;is</title>
<path fill="none" stroke="grey" d="M1905.01,-216.055C1929.52,-205.124 1961.29,-190.959 1985.84,-180.015"/>
<polygon fill="grey" stroke="grey" points="1987.49,-183.111 1995.2,-175.842 1984.64,-176.717 1987.49,-183.111"/>
</g>
<!-- defn&#45;&gt;id -->
<g id="edge21" class="edge"><title>defn&#45;&gt;id</title>
<path fill="none" stroke="grey" d="M1110.16,-73.9832C1075.45,-63.7314 1029.09,-50.0397 991.321,-38.884"/>
<polygon fill="grey" stroke="grey" points="991.998,-35.4343 981.416,-35.9583 990.015,-42.1476 991.998,-35.4343"/>
</g>
<!-- defn&#45;&gt;typename -->
<g id="edge22" class="edge"><title>defn&#45;&gt;typename</title>
<path fill="none" stroke="grey" d="M1236.52,-76.9496C1306.56,-65.3847 1405.44,-47.958 1443,-36 1444.92,-35.3888 1446.87,-34.703 1448.82,-33.9667"/>
<polygon fill="grey" stroke="grey" points="1450.54,-37.0418 1458.44,-29.9773 1447.86,-30.5759 1450.54,-37.0418"/>
</g>
<!-- test4&#45;&gt;b -->
<g id="edge18" class="edge"><title>test4&#45;&gt;b</title>
<path fill="none" stroke="grey" d="M52.7695,-216.055C48.7437,-207.767 43.8144,-197.618 39.3489,-188.424"/>
<polygon fill="grey" stroke="grey" points="42.4379,-186.773 34.9205,-179.307 36.1414,-189.831 42.4379,-186.773"/>
</g>
<!-- test5&#45;&gt;name -->
<g id="edge27" class="edge"><title>test5&#45;&gt;name</title>
<path fill="none" stroke="grey" d="M2864.74,-216.588C2847.89,-206.058 2825.99,-192.366 2808.53,-181.458"/>
<polygon fill="grey" stroke="grey" points="2810.2,-178.371 2799.86,-176.039 2806.49,-184.307 2810.2,-178.371"/>
</g>
<!-- test5&#45;&gt;notname -->
<g id="edge28" class="edge"><title>test5&#45;&gt;notname</title>
<path fill="none" stroke="grey" d="M2905.52,-216.055C2912.89,-207.457 2921.98,-196.857 2930.09,-187.397"/>
<polygon fill="grey" stroke="grey" points="2932.76,-189.659 2936.61,-179.789 2927.44,-185.104 2932.76,-189.659"/>
</g>
</g>
</svg>
