<?xml version="1.0" encoding="UTF-8" standalone="no"?>
<!DOCTYPE svg PUBLIC "-//W3C//DTD SVG 1.1//EN"
 "http://www.w3.org/Graphics/SVG/1.1/DTD/svg11.dtd">
<!-- Generated by graphviz version 2.38.0 (20140413.2041)
 -->
<!-- Title: Perl Pages: 1 -->
<svg width="579pt" height="332pt"
 viewBox="0.00 0.00 579.19 332.00" xmlns="http://www.w3.org/2000/svg" xmlns:xlink="http://www.w3.org/1999/xlink">
<g id="graph0" class="graph" transform="scale(1 1) rotate(0) translate(4 328)">
<title>Perl</title>
<polygon fill="white" stroke="none" points="-4,4 -4,-328 575.191,-328 575.191,4 -4,4"/>
<!-- person -->
<g id="node1" class="node"><title>person</title>
<ellipse fill="none" stroke="blue" cx="235.945" cy="-306" rx="34.394" ry="18"/>
<text text-anchor="middle" x="235.945" y="-302.3" font-family="Times,serif" font-size="14.00">person</text>
</g>
<!-- name -->
<g id="node2" class="node"><title>name</title>
<ellipse fill="none" stroke="blue" cx="166.945" cy="-234" rx="30.5947" ry="18"/>
<text text-anchor="middle" x="166.945" y="-230.3" font-family="Times,serif" font-size="14.00">name</text>
</g>
<!-- person&#45;&gt;name -->
<g id="edge1" class="edge"><title>person&#45;&gt;name</title>
<path fill="none" stroke="grey" d="M220.632,-289.465C211.303,-280.001 199.23,-267.752 188.895,-257.268"/>
<polygon fill="grey" stroke="grey" points="191.255,-254.676 181.742,-250.011 186.27,-259.59 191.255,-254.676"/>
</g>
<!-- address -->
<g id="node7" class="node"><title>address</title>
<ellipse fill="none" stroke="blue" cx="304.945" cy="-234" rx="37.0935" ry="18"/>
<text text-anchor="middle" x="304.945" y="-230.3" font-family="Times,serif" font-size="14.00">address</text>
</g>
<!-- person&#45;&gt;address -->
<g id="edge6" class="edge"><title>person&#45;&gt;address</title>
<path fill="none" stroke="grey" d="M251.259,-289.465C260.46,-280.13 272.331,-268.087 282.569,-257.7"/>
<polygon fill="grey" stroke="grey" points="285.147,-260.071 289.675,-250.492 280.162,-255.157 285.147,-260.071"/>
</g>
<!-- given_name -->
<g id="node3" class="node"><title>given_name</title>
<ellipse fill="none" stroke="blue" cx="53.9452" cy="-162" rx="53.8905" ry="18"/>
<text text-anchor="middle" x="53.9452" y="-158.3" font-family="Times,serif" font-size="14.00">given_name</text>
</g>
<!-- name&#45;&gt;given_name -->
<g id="edge2" class="edge"><title>name&#45;&gt;given_name</title>
<path fill="none" stroke="grey" d="M146.743,-220.485C130.118,-210.187 106.221,-195.383 86.8412,-183.378"/>
<polygon fill="grey" stroke="grey" points="88.6414,-180.376 78.2972,-178.085 84.9551,-186.327 88.6414,-180.376"/>
</g>
<!-- surname -->
<g id="node5" class="node"><title>surname</title>
<ellipse fill="none" stroke="blue" cx="166.945" cy="-162" rx="40.8928" ry="18"/>
<text text-anchor="middle" x="166.945" y="-158.3" font-family="Times,serif" font-size="14.00">surname</text>
</g>
<!-- name&#45;&gt;surname -->
<g id="edge4" class="edge"><title>name&#45;&gt;surname</title>
<path fill="none" stroke="grey" d="M166.945,-215.697C166.945,-207.983 166.945,-198.712 166.945,-190.112"/>
<polygon fill="grey" stroke="grey" points="170.445,-190.104 166.945,-180.104 163.445,-190.104 170.445,-190.104"/>
</g>
<!-- Ron -->
<g id="node4" class="node"><title>Ron</title>
<polygon fill="none" stroke="blue" points="80.9452,-108 26.9452,-108 26.9452,-72 80.9452,-72 80.9452,-108"/>
<text text-anchor="middle" x="53.9452" y="-86.3" font-family="Times,serif" font-size="14.00">Ron</text>
</g>
<!-- given_name&#45;&gt;Ron -->
<g id="edge3" class="edge"><title>given_name&#45;&gt;Ron</title>
<path fill="none" stroke="grey" d="M53.9452,-143.697C53.9452,-135.983 53.9452,-126.712 53.9452,-118.112"/>
<polygon fill="grey" stroke="grey" points="57.4453,-118.104 53.9452,-108.104 50.4453,-118.104 57.4453,-118.104"/>
</g>
<!-- Savage -->
<g id="node6" class="node"><title>Savage</title>
<polygon fill="none" stroke="blue" points="194.945,-108 138.945,-108 138.945,-72 194.945,-72 194.945,-108"/>
<text text-anchor="middle" x="166.945" y="-86.3" font-family="Times,serif" font-size="14.00">Savage</text>
</g>
<!-- surname&#45;&gt;Savage -->
<g id="edge5" class="edge"><title>surname&#45;&gt;Savage</title>
<path fill="none" stroke="grey" d="M166.945,-143.697C166.945,-135.983 166.945,-126.712 166.945,-118.112"/>
<polygon fill="grey" stroke="grey" points="170.445,-118.104 166.945,-108.104 163.445,-118.104 170.445,-118.104"/>
</g>
<!-- country -->
<g id="node8" class="node"><title>country</title>
<ellipse fill="none" stroke="blue" cx="263.945" cy="-162" rx="37.8943" ry="18"/>
<text text-anchor="middle" x="263.945" y="-158.3" font-family="Times,serif" font-size="14.00">country</text>
</g>
<!-- address&#45;&gt;country -->
<g id="edge7" class="edge"><title>address&#45;&gt;country</title>
<path fill="none" stroke="grey" d="M295.229,-216.411C290.327,-208.042 284.275,-197.71 278.805,-188.37"/>
<polygon fill="grey" stroke="grey" points="281.666,-186.33 273.592,-179.47 275.626,-189.868 281.666,-186.33"/>
</g>
<!-- state -->
<g id="node10" class="node"><title>state</title>
<ellipse fill="none" stroke="blue" cx="346.945" cy="-162" rx="27" ry="18"/>
<text text-anchor="middle" x="346.945" y="-158.3" font-family="Times,serif" font-size="14.00">state</text>
</g>
<!-- address&#45;&gt;state -->
<g id="edge9" class="edge"><title>address&#45;&gt;state</title>
<path fill="none" stroke="grey" d="M314.899,-216.411C320.046,-207.832 326.431,-197.191 332.143,-187.67"/>
<polygon fill="grey" stroke="grey" points="335.209,-189.364 337.352,-178.988 329.206,-185.762 335.209,-189.364"/>
</g>
<!-- city -->
<g id="node12" class="node"><title>city</title>
<ellipse fill="none" stroke="blue" cx="431.945" cy="-162" rx="27" ry="18"/>
<text text-anchor="middle" x="431.945" y="-158.3" font-family="Times,serif" font-size="14.00">city</text>
</g>
<!-- address&#45;&gt;city -->
<g id="edge11" class="edge"><title>address&#45;&gt;city</title>
<path fill="none" stroke="grey" d="M328.535,-219.998C349.593,-208.391 380.498,-191.357 403.036,-178.934"/>
<polygon fill="grey" stroke="grey" points="404.759,-181.981 411.827,-174.089 401.38,-175.851 404.759,-181.981"/>
</g>
<!-- Australia -->
<g id="node9" class="node"><title>Australia</title>
<polygon fill="none" stroke="blue" points="296.945,-108 230.945,-108 230.945,-72 296.945,-72 296.945,-108"/>
<text text-anchor="middle" x="263.945" y="-86.3" font-family="Times,serif" font-size="14.00">Australia</text>
</g>
<!-- country&#45;&gt;Australia -->
<g id="edge8" class="edge"><title>country&#45;&gt;Australia</title>
<path fill="none" stroke="grey" d="M263.945,-143.697C263.945,-135.983 263.945,-126.712 263.945,-118.112"/>
<polygon fill="grey" stroke="grey" points="267.445,-118.104 263.945,-108.104 260.445,-118.104 267.445,-118.104"/>
</g>
<!-- Victoria -->
<g id="node11" class="node"><title>Victoria</title>
<polygon fill="none" stroke="blue" points="376.445,-108 315.445,-108 315.445,-72 376.445,-72 376.445,-108"/>
<text text-anchor="middle" x="345.945" y="-86.3" font-family="Times,serif" font-size="14.00">Victoria</text>
</g>
<!-- state&#45;&gt;Victoria -->
<g id="edge10" class="edge"><title>state&#45;&gt;Victoria</title>
<path fill="none" stroke="grey" d="M346.698,-143.697C346.588,-135.983 346.455,-126.712 346.333,-118.112"/>
<polygon fill="grey" stroke="grey" points="349.832,-118.053 346.19,-108.104 342.833,-118.153 349.832,-118.053"/>
</g>
<!-- locality -->
<g id="node13" class="node"><title>locality</title>
<ellipse fill="none" stroke="blue" cx="431.945" cy="-90" rx="37.0935" ry="18"/>
<text text-anchor="middle" x="431.945" y="-86.3" font-family="Times,serif" font-size="14.00">locality</text>
</g>
<!-- city&#45;&gt;locality -->
<g id="edge12" class="edge"><title>city&#45;&gt;locality</title>
<path fill="none" stroke="grey" d="M431.945,-143.697C431.945,-135.983 431.945,-126.712 431.945,-118.112"/>
<polygon fill="grey" stroke="grey" points="435.445,-118.104 431.945,-108.104 428.445,-118.104 435.445,-118.104"/>
</g>
<!-- postcode -->
<g id="node15" class="node"><title>postcode</title>
<ellipse fill="none" stroke="blue" cx="528.945" cy="-90" rx="42.4939" ry="18"/>
<text text-anchor="middle" x="528.945" y="-86.3" font-family="Times,serif" font-size="14.00">postcode</text>
</g>
<!-- city&#45;&gt;postcode -->
<g id="edge14" class="edge"><title>city&#45;&gt;postcode</title>
<path fill="none" stroke="grey" d="M449.737,-148.161C463.802,-138.01 483.722,-123.636 500.066,-111.841"/>
<polygon fill="grey" stroke="grey" points="502.176,-114.634 508.237,-105.944 498.08,-108.958 502.176,-114.634"/>
</g>
<!-- Murrumbeena -->
<g id="node14" class="node"><title>Murrumbeena</title>
<polygon fill="none" stroke="blue" points="479.445,-36 384.445,-36 384.445,-0 479.445,-0 479.445,-36"/>
<text text-anchor="middle" x="431.945" y="-14.3" font-family="Times,serif" font-size="14.00">Murrumbeena</text>
</g>
<!-- locality&#45;&gt;Murrumbeena -->
<g id="edge13" class="edge"><title>locality&#45;&gt;Murrumbeena</title>
<path fill="none" stroke="grey" d="M431.945,-71.6966C431.945,-63.9827 431.945,-54.7125 431.945,-46.1124"/>
<polygon fill="grey" stroke="grey" points="435.445,-46.1043 431.945,-36.1043 428.445,-46.1044 435.445,-46.1043"/>
</g>
<!-- 3163 -->
<g id="node16" class="node"><title>3163</title>
<polygon fill="none" stroke="blue" points="555.945,-36 501.945,-36 501.945,-0 555.945,-0 555.945,-36"/>
<text text-anchor="middle" x="528.945" y="-14.3" font-family="Times,serif" font-size="14.00">3163</text>
</g>
<!-- postcode&#45;&gt;3163 -->
<g id="edge15" class="edge"><title>postcode&#45;&gt;3163</title>
<path fill="none" stroke="grey" d="M528.945,-71.6966C528.945,-63.9827 528.945,-54.7125 528.945,-46.1124"/>
<polygon fill="grey" stroke="grey" points="532.445,-46.1043 528.945,-36.1043 525.445,-46.1044 532.445,-46.1043"/>
</g>
</g>
</svg>
