<?xml version="1.0" encoding="UTF-8" standalone="no"?>
<!DOCTYPE svg PUBLIC "-//W3C//DTD SVG 1.1//EN"
 "http://www.w3.org/Graphics/SVG/1.1/DTD/svg11.dtd">
<!-- Generated by graphviz version 2.26.3 (20100126.1600)
 -->
<!-- Title: Perl Pages: 1 -->
<svg width="114pt" height="622pt"
 viewBox="0.00 0.00 114.00 622.00" xmlns="http://www.w3.org/2000/svg" xmlns:xlink="http://www.w3.org/1999/xlink">
<g id="graph1" class="graph" transform="scale(1 1) rotate(0) translate(4 618)">
<title>Perl</title>
<polygon fill="white" stroke="white" points="-4,5 -4,-618 111,-618 111,5 -4,5"/>
<!-- exp -->
<g id="node1" class="node"><title>exp</title>
<polygon fill="none" stroke="blue" points="-0.5,-0.5 -0.5,-225.5 88.5,-225.5 88.5,-0.5 -0.5,-0.5"/>
<text text-anchor="middle" x="44" y="-208.9" font-family="Times Roman,serif" font-size="14.00">exp</text>
<polyline fill="none" stroke="blue" points="-0.5,-198.5 88.5,-198.5 "/>
<text text-anchor="middle" x="44" y="-181.9" font-family="Times Roman,serif" font-size="14.00">NUM </text>
<text text-anchor="middle" x="44" y="-162.9" font-family="Times Roman,serif" font-size="14.00">VAR </text>
<text text-anchor="middle" x="44" y="-143.9" font-family="Times Roman,serif" font-size="14.00">VAR &#39;=&#39; exp </text>
<text text-anchor="middle" x="44" y="-124.9" font-family="Times Roman,serif" font-size="14.00">exp &#39;+&#39; exp </text>
<text text-anchor="middle" x="44" y="-105.9" font-family="Times Roman,serif" font-size="14.00">exp &#39;&#45;&#39; exp </text>
<text text-anchor="middle" x="44" y="-86.9" font-family="Times Roman,serif" font-size="14.00">exp &#39;*&#39; exp </text>
<text text-anchor="middle" x="44" y="-67.9" font-family="Times Roman,serif" font-size="14.00">exp &#39;/&#39; exp </text>
<text text-anchor="middle" x="44" y="-48.9" font-family="Times Roman,serif" font-size="14.00">&#39;&#45;&#39; exp </text>
<text text-anchor="middle" x="44" y="-29.9" font-family="Times Roman,serif" font-size="14.00">exp &#39;^&#39; exp </text>
<text text-anchor="middle" x="44" y="-10.9" font-family="Times Roman,serif" font-size="14.00">&#39;(&#39; exp &#39;)&#39; </text>
</g>
<!-- exp&#45;&gt;exp -->
<g id="edge2" class="edge"><title>exp&#45;&gt;exp</title>
<path fill="none" stroke="grey" d="M88.5859,-153.975C98.6436,-150.283 106,-136.625 106,-113 106,-96.3887 102.363,-84.7048 96.7075,-77.9483"/>
<polygon fill="grey" stroke="grey" points="98.7279,-75.0899 88.5859,-72.0254 94.6032,-80.7456 98.7279,-75.0899"/>
</g>
<!-- $start -->
<g id="node3" class="node"><title>$start</title>
<polygon fill="none" stroke="blue" points="5,-559 5,-613 83,-613 83,-559 5,-559"/>
<text text-anchor="middle" x="44" y="-596.4" font-family="Times Roman,serif" font-size="14.00">$start</text>
<polyline fill="none" stroke="blue" points="5,-586 83,-586 "/>
<text text-anchor="middle" x="44" y="-569.4" font-family="Times Roman,serif" font-size="14.00">input $end </text>
</g>
<!-- input -->
<g id="node4" class="node"><title>input</title>
<polygon fill="none" stroke="blue" points="8,-448.5 8,-521.5 80,-521.5 80,-448.5 8,-448.5"/>
<text text-anchor="middle" x="44" y="-504.9" font-family="Times Roman,serif" font-size="14.00">input</text>
<polyline fill="none" stroke="blue" points="8,-494.5 80,-494.5 "/>
<text text-anchor="middle" x="44" y="-477.9" font-family="Times Roman,serif" font-size="14.00">(empty) </text>
<text text-anchor="middle" x="44" y="-458.9" font-family="Times Roman,serif" font-size="14.00">input line </text>
</g>
<!-- $start&#45;&gt;input -->
<g id="edge4" class="edge"><title>$start&#45;&gt;input</title>
<path fill="none" stroke="grey" d="M44,-558.934C44,-550.523 44,-540.998 44,-531.65"/>
<polygon fill="grey" stroke="grey" points="47.5001,-531.637 44,-521.637 40.5001,-531.637 47.5001,-531.637"/>
</g>
<!-- input&#45;&gt;input -->
<g id="edge6" class="edge"><title>input&#45;&gt;input</title>
<path fill="none" stroke="grey" d="M80.0873,-503.657C90.2211,-502.84 98,-496.621 98,-485 98,-477.555 94.8075,-472.327 89.8487,-469.317"/>
<polygon fill="grey" stroke="grey" points="90.6733,-465.909 80.0873,-466.343 88.6332,-472.605 90.6733,-465.909"/>
</g>
<!-- line -->
<g id="node7" class="node"><title>line</title>
<polygon fill="none" stroke="blue" points="17,-262.5 17,-411.5 71,-411.5 71,-262.5 17,-262.5"/>
<text text-anchor="middle" x="44" y="-394.9" font-family="Times Roman,serif" font-size="14.00">line</text>
<polyline fill="none" stroke="blue" points="17,-384.5 71,-384.5 "/>
<text text-anchor="middle" x="44" y="-367.9" font-family="Times Roman,serif" font-size="14.00">&#39;</text>
<text text-anchor="middle" x="44" y="-348.9" font-family="Times Roman,serif" font-size="14.00">&#39; </text>
<text text-anchor="middle" x="44" y="-329.9" font-family="Times Roman,serif" font-size="14.00">exp &#39;</text>
<text text-anchor="middle" x="44" y="-310.9" font-family="Times Roman,serif" font-size="14.00">&#39; </text>
<text text-anchor="middle" x="44" y="-291.9" font-family="Times Roman,serif" font-size="14.00">error &#39;</text>
<text text-anchor="middle" x="44" y="-272.9" font-family="Times Roman,serif" font-size="14.00">&#39; </text>
</g>
<!-- input&#45;&gt;line -->
<g id="edge8" class="edge"><title>input&#45;&gt;line</title>
<path fill="none" stroke="grey" d="M44,-448.416C44,-440.181 44,-431.107 44,-421.8"/>
<polygon fill="grey" stroke="grey" points="47.5001,-421.638 44,-411.639 40.5001,-421.639 47.5001,-421.638"/>
</g>
<!-- line&#45;&gt;exp -->
<g id="edge10" class="edge"><title>line&#45;&gt;exp</title>
<path fill="none" stroke="grey" d="M44,-262.411C44,-253.812 44,-244.88 44,-235.853"/>
<polygon fill="grey" stroke="grey" points="47.5001,-235.633 44,-225.633 40.5001,-235.633 47.5001,-235.633"/>
</g>
</g>
</svg>
