<?xml version="1.0" encoding="UTF-8" standalone="no"?>
<!DOCTYPE svg PUBLIC "-//W3C//DTD SVG 1.1//EN"
 "http://www.w3.org/Graphics/SVG/1.1/DTD/svg11.dtd">
<!-- Generated by graphviz version 2.26.3 (20100126.1600)
 -->
<!-- Title: Perl Pages: 1 -->
<svg width="272pt" height="85pt"
 viewBox="0.00 0.00 272.00 85.46" xmlns="http://www.w3.org/2000/svg" xmlns:xlink="http://www.w3.org/1999/xlink">
<g id="graph1" class="graph" transform="scale(1 1) rotate(0) translate(4 81.4576)">
<title>Perl</title>
<polygon fill="white" stroke="white" points="-4,5 -4,-81.4576 269,-81.4576 269,5 -4,5"/>
<!-- foo -->
<g id="node1" class="node"><title>foo</title>
<ellipse fill="none" stroke="green" cx="27" cy="-21.4576" rx="27" ry="19.0919"/>
<text text-anchor="middle" x="27" y="-18.3576" font-family="Times Roman,serif" font-size="14.00">foo</text>
</g>
<!-- foo&#45;&gt;foo -->
<g id="edge12" class="edge"><title>foo&#45;&gt;foo</title>
<path fill="none" stroke="grey" d="M17.7166,-39.3511C15.9836,-49.2979 19.0781,-58.4576 27,-58.4576 32.075,-58.4576 35.1687,-54.6984 36.2814,-49.3814"/>
<polygon fill="grey" stroke="grey" points="39.7813,-49.3518 36.2834,-39.3511 32.7813,-49.3503 39.7813,-49.3518"/>
<text text-anchor="middle" x="27" y="-64.8576" font-family="Times Roman,serif" font-size="14.00">/./</text>
</g>
<!-- bar -->
<g id="node2" class="node"><title>bar</title>
<ellipse fill="none" stroke="green" cx="133" cy="-21.4576" rx="27" ry="19.0919"/>
<text text-anchor="middle" x="133" y="-18.3576" font-family="Times Roman,serif" font-size="14.00">bar</text>
</g>
<!-- foo&#45;&gt;bar -->
<g id="edge10" class="edge"><title>foo&#45;&gt;bar</title>
<path fill="none" stroke="grey" d="M54.0225,-21.4576C66.6333,-21.4576 81.8509,-21.4576 95.5484,-21.4576"/>
<polygon fill="grey" stroke="grey" points="95.6583,-24.9577 105.658,-21.4576 95.6582,-17.9577 95.6583,-24.9577"/>
<text text-anchor="middle" x="80" y="-27.8576" font-family="Times Roman,serif" font-size="14.00">/b/</text>
</g>
<!-- bar&#45;&gt;foo -->
<g id="edge6" class="edge"><title>bar&#45;&gt;foo</title>
<path fill="none" stroke="grey" d="M112.412,-8.968C100.729,-3.34185 85.7367,1.45757 72,-1.45757 67.233,-2.46919 62.3579,-4.02184 57.6592,-5.82444"/>
<polygon fill="grey" stroke="grey" points="56.1857,-2.64767 48.3532,-9.78231 58.9254,-9.08928 56.1857,-2.64767"/>
<text text-anchor="middle" x="80" y="-7.85757" font-family="Times Roman,serif" font-size="14.00">/a/</text>
</g>
<!-- bar&#45;&gt;bar -->
<g id="edge2" class="edge"><title>bar&#45;&gt;bar</title>
<path fill="none" stroke="grey" d="M123.717,-39.3511C121.984,-49.2979 125.078,-58.4576 133,-58.4576 138.075,-58.4576 141.169,-54.6984 142.281,-49.3814"/>
<polygon fill="grey" stroke="grey" points="145.781,-49.3518 142.283,-39.3511 138.781,-49.3503 145.781,-49.3518"/>
<text text-anchor="middle" x="133" y="-64.8576" font-family="Times Roman,serif" font-size="14.00">/b/</text>
</g>
<!-- baz -->
<g id="node3" class="node"><title>baz</title>
<ellipse fill="none" stroke="green" cx="237" cy="-21.4576" rx="27" ry="19.0919"/>
<text text-anchor="middle" x="237" y="-18.3576" font-family="Times Roman,serif" font-size="14.00">baz</text>
</g>
<!-- bar&#45;&gt;baz -->
<g id="edge4" class="edge"><title>bar&#45;&gt;baz</title>
<path fill="none" stroke="grey" d="M160.053,-21.4576C172.116,-21.4576 186.525,-21.4576 199.596,-21.4576"/>
<polygon fill="grey" stroke="grey" points="199.721,-24.9577 209.721,-21.4576 199.721,-17.9577 199.721,-24.9577"/>
<text text-anchor="middle" x="185" y="-27.8576" font-family="Times Roman,serif" font-size="14.00">/c/</text>
</g>
<!-- baz&#45;&gt;baz -->
<g id="edge8" class="edge"><title>baz&#45;&gt;baz</title>
<path fill="none" stroke="grey" d="M227.717,-39.3511C225.984,-49.2979 229.078,-58.4576 237,-58.4576 242.075,-58.4576 245.169,-54.6984 246.281,-49.3814"/>
<polygon fill="grey" stroke="grey" points="249.781,-49.3518 246.283,-39.3511 242.781,-49.3503 249.781,-49.3518"/>
<text text-anchor="middle" x="237" y="-64.8576" font-family="Times Roman,serif" font-size="14.00">/./</text>
</g>
</g>
</svg>
