<?xml version="1.0" encoding="UTF-8" standalone="no"?>
<!DOCTYPE svg PUBLIC "-//W3C//DTD SVG 1.1//EN"
 "http://www.w3.org/Graphics/SVG/1.1/DTD/svg11.dtd">
<!-- Generated by graphviz version 2.26.3 (20100126.1600)
 -->
<!-- Title: Perl Pages: 1 -->
<svg width="2639pt" height="786pt"
 viewBox="0.00 0.00 2639.00 786.00" xmlns="http://www.w3.org/2000/svg" xmlns:xlink="http://www.w3.org/1999/xlink">
<g id="graph1" class="graph" transform="scale(1 1) rotate(0) translate(4 782)">
<title>Perl</title>
<polygon fill="white" stroke="white" points="-4,5 -4,-782 2636,-782 2636,5 -4,5"/>
<!-- graph_definition_1 -->
<g id="node1" class="node"><title>graph_definition_1</title>
<polygon fill="none" stroke="blue" points="-0.5,-741 -0.5,-777 316.5,-777 316.5,-741 -0.5,-741"/>
<text text-anchor="middle" x="71" y="-755.9" font-family="Times Roman,serif" font-size="14.00">lhs: graph_definition_1</text>
<polyline fill="none" stroke="blue" points="142.5,-741 142.5,-777 "/>
<text text-anchor="middle" x="171" y="-755.9" font-family="Times Roman,serif" font-size="14.00">rhs list:</text>
<polyline fill="none" stroke="blue" points="199.5,-741 199.5,-777 "/>
<text text-anchor="middle" x="258" y="-755.9" font-family="Times Roman,serif" font-size="14.00">graph_sequence_1</text>
</g>
<!-- graph_sequence_2 -->
<g id="node12" class="node"><title>graph_sequence_2</title>
<polygon fill="none" stroke="blue" points="146.5,-593 146.5,-629 459.5,-629 459.5,-593 146.5,-593"/>
<text text-anchor="middle" x="216.5" y="-607.9" font-family="Times Roman,serif" font-size="14.00">lhs: graph_sequence_2</text>
<polyline fill="none" stroke="blue" points="286.5,-593 286.5,-629 "/>
<text text-anchor="middle" x="315" y="-607.9" font-family="Times Roman,serif" font-size="14.00">rhs list:</text>
<polyline fill="none" stroke="blue" points="343.5,-593 343.5,-629 "/>
<text text-anchor="middle" x="401.5" y="-607.9" font-family="Times Roman,serif" font-size="14.00">node_definition_2</text>
</g>
<!-- graph_definition_1&#45;&gt;graph_sequence_2 -->
<g id="edge2" class="edge"><title>graph_definition_1:port3&#45;&gt;graph_sequence_2:port1</title>
<path fill="none" stroke="grey" d="M258,-741C258,-719.829 236.632,-723.331 228,-704 215.741,-676.548 215.8,-665.281 215.959,-639.296"/>
<polygon fill="grey" stroke="grey" points="219.46,-639.014 216,-629 212.46,-638.986 219.46,-639.014"/>
</g>
<!-- graph_sequence_3 -->
<g id="node15" class="node"><title>graph_sequence_3</title>
<polygon fill="none" stroke="blue" points="236.5,-667 236.5,-703 781.5,-703 781.5,-667 236.5,-667"/>
<text text-anchor="middle" x="306.5" y="-681.9" font-family="Times Roman,serif" font-size="14.00">lhs: graph_sequence_3</text>
<polyline fill="none" stroke="blue" points="376.5,-667 376.5,-703 "/>
<text text-anchor="middle" x="405" y="-681.9" font-family="Times Roman,serif" font-size="14.00">rhs list:</text>
<polyline fill="none" stroke="blue" points="433.5,-667 433.5,-703 "/>
<text text-anchor="middle" x="492" y="-681.9" font-family="Times Roman,serif" font-size="14.00">graph_sequence_3</text>
<polyline fill="none" stroke="blue" points="550.5,-667 550.5,-703 "/>
<text text-anchor="middle" x="608" y="-681.9" font-family="Times Roman,serif" font-size="14.00">edge_definition_3</text>
<polyline fill="none" stroke="blue" points="665.5,-667 665.5,-703 "/>
<text text-anchor="middle" x="723.5" y="-681.9" font-family="Times Roman,serif" font-size="14.00">node_definition_3</text>
</g>
<!-- graph_definition_1&#45;&gt;graph_sequence_3 -->
<g id="edge4" class="edge"><title>graph_definition_1:port3&#45;&gt;graph_sequence_3:port1</title>
<path fill="none" stroke="grey" d="M317,-759C325.222,-759 321.445,-747.417 317,-740.5 295.604,-707.204 257.396,-736.796 236,-703.5 234.264,-700.798 232.629,-697.384 231.772,-694.227"/>
<polygon fill="grey" stroke="grey" points="235.016,-695.549 236,-685 228.652,-692.633 235.016,-695.549"/>
</g>
<!-- end_node_10 -->
<g id="node2" class="node"><title>end_node_10</title>
<polygon fill="none" stroke="blue" points="732.5,-297 732.5,-333 1011.5,-333 1011.5,-297 732.5,-297"/>
<text text-anchor="middle" x="789" y="-311.9" font-family="Times Roman,serif" font-size="14.00">lhs: end_node_10</text>
<polyline fill="none" stroke="blue" points="845.5,-297 845.5,-333 "/>
<text text-anchor="middle" x="874" y="-311.9" font-family="Times Roman,serif" font-size="14.00">rhs list:</text>
<polyline fill="none" stroke="blue" points="902.5,-297 902.5,-333 "/>
<text text-anchor="middle" x="957" y="-311.9" font-family="Times Roman,serif" font-size="14.00">right_bracket_10</text>
</g>
<!-- attr_definition_11 -->
<g id="node3" class="node"><title>attr_definition_11</title>
<polygon fill="none" stroke="blue" points="1029,-297 1029,-333 1337,-333 1337,-297 1029,-297"/>
<text text-anchor="middle" x="1097.5" y="-311.9" font-family="Times Roman,serif" font-size="14.00">lhs: attr_definition_11</text>
<polyline fill="none" stroke="blue" points="1166,-297 1166,-333 "/>
<text text-anchor="middle" x="1194.5" y="-311.9" font-family="Times Roman,serif" font-size="14.00">rhs list:</text>
<polyline fill="none" stroke="blue" points="1223,-297 1223,-333 "/>
<text text-anchor="middle" x="1280" y="-311.9" font-family="Times Roman,serif" font-size="14.00">attr_statement_11</text>
</g>
<!-- attr_statement_12 -->
<g id="node4" class="node"><title>attr_statement_12</title>
<polygon fill="none" stroke="blue" points="1211.5,-223 1211.5,-259 1736.5,-259 1736.5,-223 1211.5,-223"/>
<text text-anchor="middle" x="1280" y="-237.9" font-family="Times Roman,serif" font-size="14.00">lhs: attr_statement_12</text>
<polyline fill="none" stroke="blue" points="1348.5,-223 1348.5,-259 "/>
<text text-anchor="middle" x="1377" y="-237.9" font-family="Times Roman,serif" font-size="14.00">rhs list:</text>
<polyline fill="none" stroke="blue" points="1405.5,-223 1405.5,-259 "/>
<text text-anchor="middle" x="1461.5" y="-237.9" font-family="Times Roman,serif" font-size="14.00">start_attribute_12</text>
<polyline fill="none" stroke="blue" points="1517.5,-223 1517.5,-259 "/>
<text text-anchor="middle" x="1573" y="-237.9" font-family="Times Roman,serif" font-size="14.00">attr_sequence_12</text>
<polyline fill="none" stroke="blue" points="1628.5,-223 1628.5,-259 "/>
<text text-anchor="middle" x="1682.5" y="-237.9" font-family="Times Roman,serif" font-size="14.00">end_attribute_12</text>
</g>
<!-- attr_definition_11&#45;&gt;attr_statement_12 -->
<g id="edge6" class="edge"><title>attr_definition_11:port3&#45;&gt;attr_statement_12:port1</title>
<path fill="none" stroke="grey" d="M1337,-315C1345.22,-315 1341.93,-303.082 1337,-296.5 1302.02,-249.776 1245.98,-306.224 1211,-259.5 1209,-256.826 1207.27,-253.271 1206.47,-249.993"/>
<polygon fill="grey" stroke="grey" points="1209.62,-251.505 1211,-241 1203.37,-248.354 1209.62,-251.505"/>
</g>
<!-- start_attribute_13 -->
<g id="node5" class="node"><title>start_attribute_13</title>
<polygon fill="none" stroke="blue" points="1206.5,-149 1206.5,-185 1489.5,-185 1489.5,-149 1206.5,-149"/>
<text text-anchor="middle" x="1274" y="-163.9" font-family="Times Roman,serif" font-size="14.00">lhs: start_attribute_13</text>
<polyline fill="none" stroke="blue" points="1341.5,-149 1341.5,-185 "/>
<text text-anchor="middle" x="1370" y="-163.9" font-family="Times Roman,serif" font-size="14.00">rhs list:</text>
<polyline fill="none" stroke="blue" points="1398.5,-149 1398.5,-185 "/>
<text text-anchor="middle" x="1444" y="-163.9" font-family="Times Roman,serif" font-size="14.00">left_brace_13</text>
</g>
<!-- attr_statement_12&#45;&gt;start_attribute_13 -->
<g id="edge8" class="edge"><title>attr_statement_12:port3&#45;&gt;start_attribute_13:port1</title>
<path fill="none" stroke="grey" d="M1461,-223C1461,-142 1290.42,-258.421 1275.1,-195.158"/>
<polygon fill="grey" stroke="grey" points="1278.55,-194.566 1274,-185 1271.6,-195.318 1278.55,-194.566"/>
</g>
<!-- attr_sequence_14 -->
<g id="node6" class="node"><title>attr_sequence_14</title>
<polygon fill="none" stroke="blue" points="1506.5,-149 1506.5,-185 1819.5,-185 1819.5,-149 1506.5,-149"/>
<text text-anchor="middle" x="1573.5" y="-163.9" font-family="Times Roman,serif" font-size="14.00">lhs: attr_sequence_14</text>
<polyline fill="none" stroke="blue" points="1640.5,-149 1640.5,-185 "/>
<text text-anchor="middle" x="1669" y="-163.9" font-family="Times Roman,serif" font-size="14.00">rhs list:</text>
<polyline fill="none" stroke="blue" points="1697.5,-149 1697.5,-185 "/>
<text text-anchor="middle" x="1758.5" y="-163.9" font-family="Times Roman,serif" font-size="14.00">attr_declaration_14</text>
</g>
<!-- attr_statement_12&#45;&gt;attr_sequence_14 -->
<g id="edge10" class="edge"><title>attr_statement_12:port4&#45;&gt;attr_sequence_14:port1</title>
<path fill="none" stroke="grey" d="M1572,-222C1572,-188.48 1523.03,-214.374 1506,-185.5 1504.37,-182.733 1502.76,-179.305 1501.89,-176.155"/>
<polygon fill="grey" stroke="grey" points="1505.1,-177.556 1506,-167 1498.71,-174.689 1505.1,-177.556"/>
</g>
<!-- end_attribute_19 -->
<g id="node11" class="node"><title>end_attribute_19</title>
<polygon fill="none" stroke="blue" points="1837,-149 1837,-185 2123,-185 2123,-149 1837,-149"/>
<text text-anchor="middle" x="1902.5" y="-163.9" font-family="Times Roman,serif" font-size="14.00">lhs: end_attribute_19</text>
<polyline fill="none" stroke="blue" points="1968,-149 1968,-185 "/>
<text text-anchor="middle" x="1996.5" y="-163.9" font-family="Times Roman,serif" font-size="14.00">rhs list:</text>
<polyline fill="none" stroke="blue" points="2025,-149 2025,-185 "/>
<text text-anchor="middle" x="2074" y="-163.9" font-family="Times Roman,serif" font-size="14.00">right_brace_19</text>
</g>
<!-- attr_statement_12&#45;&gt;end_attribute_19 -->
<g id="edge12" class="edge"><title>attr_statement_12:port5&#45;&gt;end_attribute_19:port1</title>
<path fill="none" stroke="grey" d="M1737,-241C1784.26,-241 1796.32,-221.065 1828,-186 1830.74,-182.967 1831.02,-178.951 1831.24,-175.393"/>
<polygon fill="grey" stroke="grey" points="1834.23,-177.226 1837,-167 1828.46,-173.267 1834.23,-177.226"/>
</g>
<!-- attr_declaration_15 -->
<g id="node7" class="node"><title>attr_declaration_15</title>
<polygon fill="none" stroke="blue" points="1686.5,-75 1686.5,-111 2257.5,-111 2257.5,-75 1686.5,-75"/>
<text text-anchor="middle" x="1759" y="-89.9" font-family="Times Roman,serif" font-size="14.00">lhs: attr_declaration_15</text>
<polyline fill="none" stroke="blue" points="1831.5,-75 1831.5,-111 "/>
<text text-anchor="middle" x="1860" y="-89.9" font-family="Times Roman,serif" font-size="14.00">rhs list:</text>
<polyline fill="none" stroke="blue" points="1888.5,-75 1888.5,-111 "/>
<text text-anchor="middle" x="1934.5" y="-89.9" font-family="Times Roman,serif" font-size="14.00">attr_name_15</text>
<polyline fill="none" stroke="blue" points="1980.5,-75 1980.5,-111 "/>
<text text-anchor="middle" x="2014" y="-89.9" font-family="Times Roman,serif" font-size="14.00">colon_15</text>
<polyline fill="none" stroke="blue" points="2047.5,-75 2047.5,-111 "/>
<text text-anchor="middle" x="2093" y="-89.9" font-family="Times Roman,serif" font-size="14.00">attr_value_15</text>
<polyline fill="none" stroke="blue" points="2138.5,-75 2138.5,-111 "/>
<text text-anchor="middle" x="2198" y="-89.9" font-family="Times Roman,serif" font-size="14.00">attr_terminator_15</text>
</g>
<!-- attr_sequence_14&#45;&gt;attr_declaration_15 -->
<g id="edge14" class="edge"><title>attr_sequence_14:port3&#45;&gt;attr_declaration_15:port1</title>
<path fill="none" stroke="grey" d="M1820,-167C1828.22,-167 1824.98,-155.042 1820,-148.5 1782.57,-99.3406 1723.43,-160.659 1686,-111.5 1683.98,-108.842 1682.24,-105.291 1681.44,-102.01"/>
<polygon fill="grey" stroke="grey" points="1684.61,-103.503 1686,-93 1678.36,-100.344 1684.61,-103.503"/>
</g>
<!-- attr_name_16 -->
<g id="node8" class="node"><title>attr_name_16</title>
<polygon fill="none" stroke="blue" points="1738.5,-1 1738.5,-37 2019.5,-37 2019.5,-1 1738.5,-1"/>
<text text-anchor="middle" x="1796" y="-15.9" font-family="Times Roman,serif" font-size="14.00">lhs: attr_name_16</text>
<polyline fill="none" stroke="blue" points="1853.5,-1 1853.5,-37 "/>
<text text-anchor="middle" x="1882" y="-15.9" font-family="Times Roman,serif" font-size="14.00">rhs list:</text>
<polyline fill="none" stroke="blue" points="1910.5,-1 1910.5,-37 "/>
<text text-anchor="middle" x="1965" y="-15.9" font-family="Times Roman,serif" font-size="14.00">attr_name_id_16</text>
</g>
<!-- attr_declaration_15&#45;&gt;attr_name_16 -->
<g id="edge16" class="edge"><title>attr_declaration_15:port3&#45;&gt;attr_name_16:port1</title>
<path fill="none" stroke="grey" d="M1934,-75C1934,-15.2356 1812.21,-90.371 1797.46,-46.9421"/>
<polygon fill="grey" stroke="grey" points="1800.91,-46.3871 1796,-37 1793.99,-47.4017 1800.91,-46.3871"/>
</g>
<!-- attr_value_17 -->
<g id="node9" class="node"><title>attr_value_17</title>
<polygon fill="none" stroke="blue" points="2036.5,-1 2036.5,-37 2315.5,-37 2315.5,-1 2036.5,-1"/>
<text text-anchor="middle" x="2093.5" y="-15.9" font-family="Times Roman,serif" font-size="14.00">lhs: attr_value_17</text>
<polyline fill="none" stroke="blue" points="2150.5,-1 2150.5,-37 "/>
<text text-anchor="middle" x="2179" y="-15.9" font-family="Times Roman,serif" font-size="14.00">rhs list:</text>
<polyline fill="none" stroke="blue" points="2207.5,-1 2207.5,-37 "/>
<text text-anchor="middle" x="2261.5" y="-15.9" font-family="Times Roman,serif" font-size="14.00">attr_value_id_17</text>
</g>
<!-- attr_declaration_15&#45;&gt;attr_value_17 -->
<g id="edge18" class="edge"><title>attr_declaration_15:port5&#45;&gt;attr_value_17:port1</title>
<path fill="none" stroke="grey" d="M2092,-74C2092,-44.2911 2050.15,-63.6205 2036,-37.5 2034.53,-34.7891 2033.01,-31.5098 2032.11,-28.4696"/>
<polygon fill="grey" stroke="grey" points="2035.44,-29.5799 2036,-19 2028.96,-26.9204 2035.44,-29.5799"/>
</g>
<!-- attr_terminator_18 -->
<g id="node10" class="node"><title>attr_terminator_18</title>
<polygon fill="none" stroke="blue" points="2332.5,-1 2332.5,-37 2631.5,-37 2631.5,-1 2332.5,-1"/>
<text text-anchor="middle" x="2403.5" y="-15.9" font-family="Times Roman,serif" font-size="14.00">lhs: attr_terminator_18</text>
<polyline fill="none" stroke="blue" points="2474.5,-1 2474.5,-37 "/>
<text text-anchor="middle" x="2503" y="-15.9" font-family="Times Roman,serif" font-size="14.00">rhs list:</text>
<polyline fill="none" stroke="blue" points="2531.5,-1 2531.5,-37 "/>
<text text-anchor="middle" x="2581.5" y="-15.9" font-family="Times Roman,serif" font-size="14.00">semi_colon_18</text>
</g>
<!-- attr_declaration_15&#45;&gt;attr_terminator_18 -->
<g id="edge20" class="edge"><title>attr_declaration_15:port6&#45;&gt;attr_terminator_18:port1</title>
<path fill="none" stroke="grey" d="M2258,-93C2296.18,-93 2301.28,-68.6885 2324,-38 2326.3,-34.8933 2326.45,-31.0263 2326.55,-27.5934"/>
<polygon fill="grey" stroke="grey" points="2329.6,-29.319 2332,-19 2323.69,-25.569 2329.6,-29.319"/>
</g>
<!-- node_definition_4 -->
<g id="node16" class="node"><title>node_definition_4</title>
<polygon fill="none" stroke="blue" points="332.5,-519 332.5,-555 641.5,-555 641.5,-519 332.5,-519"/>
<text text-anchor="middle" x="402" y="-533.9" font-family="Times Roman,serif" font-size="14.00">lhs: node_definition_4</text>
<polyline fill="none" stroke="blue" points="471.5,-519 471.5,-555 "/>
<text text-anchor="middle" x="500" y="-533.9" font-family="Times Roman,serif" font-size="14.00">rhs list:</text>
<polyline fill="none" stroke="blue" points="528.5,-519 528.5,-555 "/>
<text text-anchor="middle" x="585" y="-533.9" font-family="Times Roman,serif" font-size="14.00">node_sequence_4</text>
</g>
<!-- graph_sequence_2&#45;&gt;node_definition_4 -->
<g id="edge22" class="edge"><title>graph_sequence_2:port3&#45;&gt;node_definition_4:port1</title>
<path fill="none" stroke="grey" d="M460,-611C468.222,-611 464.941,-599.072 460,-592.5 424.412,-545.168 367.588,-602.832 332,-555.5 329.993,-552.83 328.259,-549.276 327.46,-545.997"/>
<polygon fill="grey" stroke="grey" points="330.62,-547.505 332,-537 324.37,-544.351 330.62,-547.505"/>
</g>
<!-- edge_definition_20 -->
<g id="node13" class="node"><title>edge_definition_20</title>
<polygon fill="none" stroke="blue" points="558.5,-593 558.5,-629 973.5,-629 973.5,-593 558.5,-593"/>
<text text-anchor="middle" x="631" y="-607.9" font-family="Times Roman,serif" font-size="14.00">lhs: edge_definition_20</text>
<polyline fill="none" stroke="blue" points="703.5,-593 703.5,-629 "/>
<text text-anchor="middle" x="732" y="-607.9" font-family="Times Roman,serif" font-size="14.00">rhs list:</text>
<polyline fill="none" stroke="blue" points="760.5,-593 760.5,-629 "/>
<text text-anchor="middle" x="810" y="-607.9" font-family="Times Roman,serif" font-size="14.00">edge_name_20</text>
<polyline fill="none" stroke="blue" points="859.5,-593 859.5,-629 "/>
<text text-anchor="middle" x="916.5" y="-607.9" font-family="Times Roman,serif" font-size="14.00">attr_definition_20</text>
</g>
<!-- edge_definition_20&#45;&gt;attr_definition_11 -->
<g id="edge26" class="edge"><title>edge_definition_20:port4&#45;&gt;attr_definition_11:port1</title>
<path fill="none" stroke="grey" d="M975,-611C1059.33,-611 1095.82,-546.405 1096.97,-343.101"/>
<polygon fill="grey" stroke="grey" points="1100.47,-343.01 1097,-333 1093.47,-342.99 1100.47,-343.01"/>
</g>
<!-- edge_name_21 -->
<g id="node14" class="node"><title>edge_name_21</title>
<polygon fill="none" stroke="blue" points="749.5,-519 749.5,-555 1008.5,-555 1008.5,-519 749.5,-519"/>
<text text-anchor="middle" x="810.5" y="-533.9" font-family="Times Roman,serif" font-size="14.00">lhs: edge_name_21</text>
<polyline fill="none" stroke="blue" points="871.5,-519 871.5,-555 "/>
<text text-anchor="middle" x="900" y="-533.9" font-family="Times Roman,serif" font-size="14.00">rhs list:</text>
<polyline fill="none" stroke="blue" points="928.5,-519 928.5,-555 "/>
<text text-anchor="middle" x="968.5" y="-533.9" font-family="Times Roman,serif" font-size="14.00">edge_id_21</text>
</g>
<!-- edge_definition_20&#45;&gt;edge_name_21 -->
<g id="edge24" class="edge"><title>edge_definition_20:port3&#45;&gt;edge_name_21:port1</title>
<path fill="none" stroke="grey" d="M810,-593C810,-580.069 810,-574.564 810,-565.114"/>
<polygon fill="grey" stroke="grey" points="813.5,-565 810,-555 806.5,-565 813.5,-565"/>
</g>
<!-- graph_sequence_3&#45;&gt;graph_sequence_2 -->
<g id="edge28" class="edge"><title>graph_sequence_3:port3&#45;&gt;graph_sequence_2:port1</title>
<path fill="none" stroke="grey" d="M492,-667C492,-546.804 231.935,-740.826 216.697,-639.041"/>
<polygon fill="grey" stroke="grey" points="220.184,-638.734 216,-629 213.201,-639.218 220.184,-638.734"/>
</g>
<!-- graph_sequence_3&#45;&gt;edge_definition_20 -->
<g id="edge32" class="edge"><title>graph_sequence_3:port4&#45;&gt;edge_definition_20:port1</title>
<path fill="none" stroke="grey" d="M607,-666C607,-638.844 570.184,-653.769 558,-629.5 556.617,-626.744 555.114,-623.454 554.211,-620.417"/>
<polygon fill="grey" stroke="grey" points="557.514,-621.584 558,-611 551.02,-618.971 557.514,-621.584"/>
</g>
<!-- graph_sequence_3&#45;&gt;graph_sequence_3 -->
<g id="edge30" class="edge"><title>graph_sequence_3:port1&#45;&gt;graph_sequence_3:port1</title>
<path fill="none" stroke="grey" d="M236.49,-698.834C222.337,-699.367 219,-694.756 219,-685 219,-678.293 220.577,-674.017 226.162,-672.174"/>
<polygon fill="grey" stroke="grey" points="226.877,-675.621 236.49,-671.166 226.198,-668.654 226.877,-675.621"/>
</g>
<!-- graph_sequence_3&#45;&gt;node_definition_4 -->
<g id="edge34" class="edge"><title>graph_sequence_3:port5&#45;&gt;node_definition_4:port1</title>
<path fill="none" stroke="grey" d="M724,-667C724,-627.469 587.278,-643.156 550,-630 546.299,-628.694 441.578,-578.567 410.57,-560.869"/>
<polygon fill="grey" stroke="grey" points="412.228,-557.762 402,-555 408.273,-563.538 412.228,-557.762"/>
</g>
<!-- node_sequence_5 -->
<g id="node17" class="node"><title>node_sequence_5</title>
<polygon fill="none" stroke="blue" points="190.5,-445 190.5,-481 499.5,-481 499.5,-445 190.5,-445"/>
<text text-anchor="middle" x="258.5" y="-459.9" font-family="Times Roman,serif" font-size="14.00">lhs: node_sequence_5</text>
<polyline fill="none" stroke="blue" points="326.5,-445 326.5,-481 "/>
<text text-anchor="middle" x="355" y="-459.9" font-family="Times Roman,serif" font-size="14.00">rhs list:</text>
<polyline fill="none" stroke="blue" points="383.5,-445 383.5,-481 "/>
<text text-anchor="middle" x="441.5" y="-459.9" font-family="Times Roman,serif" font-size="14.00">node_statement_5</text>
</g>
<!-- node_definition_4&#45;&gt;node_sequence_5 -->
<g id="edge36" class="edge"><title>node_definition_4:port3&#45;&gt;node_sequence_5:port1</title>
<path fill="none" stroke="grey" d="M585,-519C585,-449.559 290.368,-543.623 260.444,-490.788"/>
<polygon fill="grey" stroke="grey" points="263.818,-489.854 258,-481 257.027,-491.55 263.818,-489.854"/>
</g>
<!-- node_sequence_7 -->
<g id="node19" class="node"><title>node_sequence_7</title>
<polygon fill="none" stroke="blue" points="517,-445 517,-481 921,-481 921,-445 517,-445"/>
<text text-anchor="middle" x="585" y="-459.9" font-family="Times Roman,serif" font-size="14.00">lhs: node_sequence_7</text>
<polyline fill="none" stroke="blue" points="653,-445 653,-481 "/>
<text text-anchor="middle" x="681.5" y="-459.9" font-family="Times Roman,serif" font-size="14.00">rhs list:</text>
<polyline fill="none" stroke="blue" points="710,-445 710,-481 "/>
<text text-anchor="middle" x="768" y="-459.9" font-family="Times Roman,serif" font-size="14.00">node_statement_7</text>
<polyline fill="none" stroke="blue" points="826,-445 826,-481 "/>
<text text-anchor="middle" x="873.5" y="-459.9" font-family="Times Roman,serif" font-size="14.00">daisy_chain_7</text>
</g>
<!-- node_definition_4&#45;&gt;node_sequence_7 -->
<g id="edge38" class="edge"><title>node_definition_4:port3&#45;&gt;node_sequence_7:port1</title>
<path fill="none" stroke="grey" d="M642,-537C650.222,-537 646.92,-525.088 642,-518.5 607.33,-472.08 551.67,-527.92 517,-481.5 515.001,-478.824 513.269,-475.269 512.469,-471.991"/>
<polygon fill="grey" stroke="grey" points="515.625,-473.505 517,-463 509.374,-470.355 515.625,-473.505"/>
</g>
<!-- node_statement_6 -->
<g id="node18" class="node"><title>node_statement_6</title>
<polygon fill="none" stroke="blue" points="372.5,-371 372.5,-407 937.5,-407 937.5,-371 372.5,-371"/>
<text text-anchor="middle" x="442" y="-385.9" font-family="Times Roman,serif" font-size="14.00">lhs: node_statement_6</text>
<polyline fill="none" stroke="blue" points="511.5,-371 511.5,-407 "/>
<text text-anchor="middle" x="540" y="-385.9" font-family="Times Roman,serif" font-size="14.00">rhs list:</text>
<polyline fill="none" stroke="blue" points="568.5,-371 568.5,-407 "/>
<text text-anchor="middle" x="611.5" y="-385.9" font-family="Times Roman,serif" font-size="14.00">start_node_6</text>
<polyline fill="none" stroke="blue" points="654.5,-371 654.5,-407 "/>
<text text-anchor="middle" x="701" y="-385.9" font-family="Times Roman,serif" font-size="14.00">node_name_6</text>
<polyline fill="none" stroke="blue" points="747.5,-371 747.5,-407 "/>
<text text-anchor="middle" x="789" y="-385.9" font-family="Times Roman,serif" font-size="14.00">end_node_6</text>
<polyline fill="none" stroke="blue" points="830.5,-371 830.5,-407 "/>
<text text-anchor="middle" x="884" y="-385.9" font-family="Times Roman,serif" font-size="14.00">attr_definition_6</text>
</g>
<!-- node_sequence_5&#45;&gt;node_statement_6 -->
<g id="edge40" class="edge"><title>node_sequence_5:port3&#45;&gt;node_statement_6:port1</title>
<path fill="none" stroke="grey" d="M500,-463C508.222,-463 504.941,-451.072 500,-444.5 464.412,-397.168 407.588,-454.832 372,-407.5 369.993,-404.83 368.259,-401.276 367.46,-397.997"/>
<polygon fill="grey" stroke="grey" points="370.62,-399.505 372,-389 364.37,-396.351 370.62,-399.505"/>
</g>
<!-- node_statement_6&#45;&gt;end_node_10 -->
<g id="edge46" class="edge"><title>node_statement_6:port5&#45;&gt;end_node_10:port1</title>
<path fill="none" stroke="grey" d="M788,-370C788,-340.291 746.154,-359.621 732,-333.5 730.531,-330.789 729.008,-327.51 728.111,-324.47"/>
<polygon fill="grey" stroke="grey" points="731.438,-325.58 732,-315 724.963,-322.92 731.438,-325.58"/>
</g>
<!-- node_statement_6&#45;&gt;attr_definition_11 -->
<g id="edge48" class="edge"><title>node_statement_6:port6&#45;&gt;attr_definition_11:port1</title>
<path fill="none" stroke="grey" d="M938,-389C981.883,-389 991.356,-367.246 1020,-334 1022.67,-330.903 1022.94,-326.879 1023.18,-323.332"/>
<polygon fill="grey" stroke="grey" points="1026.14,-325.201 1029,-315 1020.4,-321.191 1026.14,-325.201"/>
</g>
<!-- start_node_8 -->
<g id="node20" class="node"><title>start_node_8</title>
<polygon fill="none" stroke="blue" points="153,-297 153,-333 415,-333 415,-297 153,-297"/>
<text text-anchor="middle" x="208" y="-311.9" font-family="Times Roman,serif" font-size="14.00">lhs: start_node_8</text>
<polyline fill="none" stroke="blue" points="263,-297 263,-333 "/>
<text text-anchor="middle" x="291.5" y="-311.9" font-family="Times Roman,serif" font-size="14.00">rhs list:</text>
<polyline fill="none" stroke="blue" points="320,-297 320,-333 "/>
<text text-anchor="middle" x="367.5" y="-311.9" font-family="Times Roman,serif" font-size="14.00">left_bracket_8</text>
</g>
<!-- node_statement_6&#45;&gt;start_node_8 -->
<g id="edge42" class="edge"><title>node_statement_6:port3&#45;&gt;start_node_8:port1</title>
<path fill="none" stroke="grey" d="M611,-371C611,-284.737 240.381,-411.702 209.978,-342.93"/>
<polygon fill="grey" stroke="grey" points="213.386,-342.123 208,-333 206.521,-343.491 213.386,-342.123"/>
</g>
<!-- node_name_9 -->
<g id="node21" class="node"><title>node_name_9</title>
<polygon fill="none" stroke="blue" points="432.5,-297 432.5,-333 715.5,-333 715.5,-297 432.5,-297"/>
<text text-anchor="middle" x="490.5" y="-311.9" font-family="Times Roman,serif" font-size="14.00">lhs: node_name_9</text>
<polyline fill="none" stroke="blue" points="548.5,-297 548.5,-333 "/>
<text text-anchor="middle" x="577" y="-311.9" font-family="Times Roman,serif" font-size="14.00">rhs list:</text>
<polyline fill="none" stroke="blue" points="605.5,-297 605.5,-333 "/>
<text text-anchor="middle" x="660.5" y="-311.9" font-family="Times Roman,serif" font-size="14.00">node_name_id_9</text>
</g>
<!-- node_statement_6&#45;&gt;node_name_9 -->
<g id="edge44" class="edge"><title>node_statement_6:port4&#45;&gt;node_name_9:port1</title>
<path fill="none" stroke="grey" d="M701,-371C701,-279.436 506.162,-416.745 490.941,-343.061"/>
<polygon fill="grey" stroke="grey" points="494.416,-342.631 490,-333 487.446,-343.282 494.416,-342.631"/>
</g>
<!-- node_sequence_7&#45;&gt;node_statement_6 -->
<g id="edge50" class="edge"><title>node_sequence_7:port3&#45;&gt;node_statement_6:port1</title>
<path fill="none" stroke="grey" d="M768,-445C768,-375.769 474.269,-469.446 444.437,-416.76"/>
<polygon fill="grey" stroke="grey" points="447.818,-415.854 442,-407 441.027,-417.55 447.818,-415.854"/>
</g>
</g>
</svg>
