<?xml version="1.0" encoding="UTF-8" standalone="no"?>
<!DOCTYPE svg PUBLIC "-//W3C//DTD SVG 1.1//EN"
 "http://www.w3.org/Graphics/SVG/1.1/DTD/svg11.dtd">
<!-- Generated by graphviz version 2.38.0 (20140413.2041)
 -->
<!-- Title: Perl Pages: 1 -->
<svg width="226pt" height="476pt"
 viewBox="0.00 0.00 226.09 476.00" xmlns="http://www.w3.org/2000/svg" xmlns:xlink="http://www.w3.org/1999/xlink">
<g id="graph0" class="graph" transform="scale(1 1) rotate(0) translate(4 472)">
<title>Perl</title>
<polygon fill="white" stroke="none" points="-4,4 -4,-472 222.091,-472 222.091,4 -4,4"/>
<!-- 1 -->
<g id="node1" class="node"><title>1</title>
<ellipse fill="none" stroke="blue" cx="109.046" cy="-450" rx="50.0912" ry="18"/>
<text text-anchor="middle" x="109.046" y="-446.3" font-family="Times,serif" font-size="14.00">START $1</text>
</g>
<!-- 3 -->
<g id="node2" class="node"><title>3</title>
<polygon fill="none" stroke="blue" points="109.046,-396 82.0456,-378 109.046,-360 136.046,-378 109.046,-396"/>
</g>
<!-- 1&#45;&gt;3 -->
<g id="edge1" class="edge"><title>1&#45;&gt;3</title>
<path fill="none" stroke="grey" d="M109.046,-431.697C109.046,-423.983 109.046,-414.712 109.046,-406.112"/>
<polygon fill="grey" stroke="grey" points="112.546,-406.104 109.046,-396.104 105.546,-406.104 112.546,-406.104"/>
</g>
<!-- 4 -->
<g id="node3" class="node"><title>4</title>
<ellipse fill="none" stroke="blue" cx="50.0456" cy="-306" rx="50.0912" ry="18"/>
<text text-anchor="middle" x="50.0456" y="-302.3" font-family="Times,serif" font-size="14.00">START $2</text>
</g>
<!-- 3&#45;&gt;4 -->
<g id="edge2" class="edge"><title>3&#45;&gt;4</title>
<path fill="none" stroke="grey" d="M99.8268,-366.062C91.9796,-356.752 80.4215,-343.039 70.4171,-331.17"/>
<polygon fill="grey" stroke="grey" points="72.9249,-328.714 63.804,-323.324 67.5725,-333.226 72.9249,-328.714"/>
</g>
<!-- 20 -->
<g id="node4" class="node"><title>20</title>
<ellipse fill="none" stroke="blue" cx="168.046" cy="-306" rx="50.0912" ry="18"/>
<text text-anchor="middle" x="168.046" y="-302.3" font-family="Times,serif" font-size="14.00">START $3</text>
</g>
<!-- 3&#45;&gt;20 -->
<g id="edge3" class="edge"><title>3&#45;&gt;20</title>
<path fill="none" stroke="grey" d="M118.264,-366.062C126.112,-356.752 137.67,-343.039 147.674,-331.17"/>
<polygon fill="grey" stroke="grey" points="150.519,-333.226 154.287,-323.324 145.166,-328.714 150.519,-333.226"/>
</g>
<!-- 6 -->
<g id="node9" class="node"><title>6</title>
<polygon fill="none" stroke="blue" points="94.0456,-252 24.0456,-252 24.0456,-216 94.0456,-216 94.0456,-252"/>
<text text-anchor="middle" x="59.0456" y="-230.3" font-family="Times,serif" font-size="14.00">[0&#45;9a&#45;d][]</text>
</g>
<!-- 4&#45;&gt;6 -->
<g id="edge8" class="edge"><title>4&#45;&gt;6</title>
<path fill="none" stroke="grey" d="M52.2703,-287.697C53.2621,-279.983 54.454,-270.712 55.5597,-262.112"/>
<polygon fill="grey" stroke="grey" points="59.0426,-262.469 56.8464,-252.104 52.0997,-261.576 59.0426,-262.469"/>
</g>
<!-- 22 -->
<g id="node5" class="node"><title>22</title>
<polygon fill="none" stroke="blue" points="193.046,-252 139.046,-252 139.046,-216 193.046,-216 193.046,-252"/>
<text text-anchor="middle" x="166.046" y="-230.3" font-family="Times,serif" font-size="14.00">foo</text>
</g>
<!-- 20&#45;&gt;22 -->
<g id="edge4" class="edge"><title>20&#45;&gt;22</title>
<path fill="none" stroke="grey" d="M167.551,-287.697C167.331,-279.983 167.066,-270.712 166.82,-262.112"/>
<polygon fill="grey" stroke="grey" points="170.319,-262 166.534,-252.104 163.321,-262.2 170.319,-262"/>
</g>
<!-- 24 -->
<g id="node6" class="node"><title>24</title>
<ellipse fill="none" stroke="blue" cx="165.046" cy="-162" rx="40.0939" ry="18"/>
<text text-anchor="middle" x="165.046" y="-158.3" font-family="Times,serif" font-size="14.00">END $3</text>
</g>
<!-- 22&#45;&gt;24 -->
<g id="edge5" class="edge"><title>22&#45;&gt;24</title>
<path fill="none" stroke="grey" d="M165.798,-215.697C165.688,-207.983 165.556,-198.712 165.433,-190.112"/>
<polygon fill="grey" stroke="grey" points="168.932,-190.053 165.29,-180.104 161.933,-190.153 168.932,-190.053"/>
</g>
<!-- 26 -->
<g id="node7" class="node"><title>26</title>
<ellipse fill="none" stroke="blue" cx="114.046" cy="-90" rx="40.0939" ry="18"/>
<text text-anchor="middle" x="114.046" y="-86.3" font-family="Times,serif" font-size="14.00">END $1</text>
</g>
<!-- 24&#45;&gt;26 -->
<g id="edge6" class="edge"><title>24&#45;&gt;26</title>
<path fill="none" stroke="grey" d="M153.217,-144.765C146.935,-136.143 139.083,-125.365 132.061,-115.727"/>
<polygon fill="grey" stroke="grey" points="134.882,-113.655 126.164,-107.633 129.224,-117.777 134.882,-113.655"/>
</g>
<!-- 28 -->
<g id="node8" class="node"><title>28</title>
<ellipse fill="none" stroke="blue" cx="114.046" cy="-18" rx="28.6953" ry="18"/>
<text text-anchor="middle" x="114.046" y="-14.3" font-family="Times,serif" font-size="14.00">END</text>
</g>
<!-- 26&#45;&gt;28 -->
<g id="edge7" class="edge"><title>26&#45;&gt;28</title>
<path fill="none" stroke="grey" d="M114.046,-71.6966C114.046,-63.9827 114.046,-54.7125 114.046,-46.1124"/>
<polygon fill="grey" stroke="grey" points="117.546,-46.1043 114.046,-36.1043 110.546,-46.1044 117.546,-46.1043"/>
</g>
<!-- 17 -->
<g id="node10" class="node"><title>17</title>
<ellipse fill="none" stroke="blue" cx="64.0456" cy="-162" rx="40.0939" ry="18"/>
<text text-anchor="middle" x="64.0456" y="-158.3" font-family="Times,serif" font-size="14.00">END $2</text>
</g>
<!-- 6&#45;&gt;17 -->
<g id="edge9" class="edge"><title>6&#45;&gt;17</title>
<path fill="none" stroke="grey" d="M60.2815,-215.697C60.8325,-207.983 61.4947,-198.712 62.109,-190.112"/>
<polygon fill="grey" stroke="grey" points="65.6024,-190.328 62.8238,-180.104 58.6202,-189.83 65.6024,-190.328"/>
</g>
<!-- 17&#45;&gt;26 -->
<g id="edge10" class="edge"><title>17&#45;&gt;26</title>
<path fill="none" stroke="grey" d="M75.8949,-144.411C81.9972,-135.868 89.5609,-125.278 96.3403,-115.787"/>
<polygon fill="grey" stroke="grey" points="99.317,-117.642 102.281,-107.47 93.6208,-113.573 99.317,-117.642"/>
</g>
</g>
</svg>
