<?xml version="1.0" encoding="UTF-8" standalone="no"?>
<!DOCTYPE svg PUBLIC "-//W3C//DTD SVG 1.1//EN"
 "http://www.w3.org/Graphics/SVG/1.1/DTD/svg11.dtd">
<!-- Generated by graphviz version 2.38.0 (20140413.2041)
 -->
<!-- Title: Perl Pages: 1 -->
<svg width="195pt" height="132pt"
 viewBox="0.00 0.00 195.00 132.00" xmlns="http://www.w3.org/2000/svg" xmlns:xlink="http://www.w3.org/1999/xlink">
<g id="graph0" class="graph" transform="scale(1 1) rotate(0) translate(4 128)">
<title>Perl</title>
<polygon fill="white" stroke="none" points="-4,4 -4,-128 191,-128 191,4 -4,4"/>
<g id="clust2" class="cluster"><title>cluster Subgraph 2</title>
<polygon fill="none" stroke="black" points="55,-8 55,-60 179,-60 179,-8 55,-8"/>
</g>
<!-- Carnegie -->
<g id="node1" class="node"><title>Carnegie</title>
<ellipse fill="none" stroke="black" cx="27" cy="-34" rx="18" ry="18"/>
</g>
<!-- Chadstone -->
<g id="node2" class="node"><title>Chadstone</title>
<ellipse fill="none" stroke="red" cx="90" cy="-106" rx="18" ry="18"/>
</g>
<!-- Oakleigh -->
<g id="node5" class="node"><title>Oakleigh</title>
<ellipse fill="none" stroke="blue" cx="90" cy="-34" rx="27" ry="18"/>
</g>
<!-- Chadstone&#45;&gt;Oakleigh -->
<g id="edge1" class="edge"><title>Chadstone&#45;&gt;Oakleigh</title>
<path fill="none" stroke="grey" d="M90,-87.6966C90,-79.3893 90,-69.2771 90,-60.1407"/>
<ellipse fill="none" stroke="grey" cx="90" cy="-56.1043" rx="4" ry="4"/>
</g>
<!-- Malvern -->
<g id="node3" class="node"><title>Malvern</title>
<polygon fill="none" stroke="green" points="54,-124 0,-124 0,-88 54,-88 54,-124"/>
</g>
<!-- Malvern&#45;&gt;Carnegie -->
<g id="edge2" class="edge"><title>Malvern&#45;&gt;Carnegie</title>
<path fill="none" stroke="grey" d="M27,-87.6966C27,-82.9496 27,-77.6132 27,-72.2063"/>
<polygon fill="grey" stroke="grey" points="34.0001,-72.1043 27,-52.1043 20.0001,-72.1044 34.0001,-72.1043"/>
</g>
<!-- Malvern&#45;&gt;Oakleigh -->
<g id="edge3" class="edge"><title>Malvern&#45;&gt;Oakleigh</title>
<path fill="none" stroke="brown" d="M42.573,-87.6966C50.8535,-78.4961 61.1266,-67.0816 69.9922,-57.2309"/>
<polygon fill="brown" stroke="brown" points="72.6474,-59.5127 76.7355,-49.7383 67.4443,-54.8299 72.6474,-59.5127"/>
</g>
<!-- Murrumbeena -->
<g id="node4" class="node"><title>Murrumbeena</title>
<polygon fill="none" stroke="orange" points="171,-52 135,-52 135,-16 171,-16 171,-52"/>
</g>
<!-- Prahran -->
<g id="node6" class="node"><title>Prahran</title>
<ellipse fill="none" stroke="black" cx="153" cy="-106" rx="27" ry="18"/>
</g>
</g>
</svg>
