<?xml version="1.0" encoding="UTF-8" standalone="no"?>
<!DOCTYPE svg PUBLIC "-//W3C//DTD SVG 1.1//EN"
 "http://www.w3.org/Graphics/SVG/1.1/DTD/svg11.dtd">
<!-- Generated by graphviz version 2.38.0 (20140413.2041)
 -->
<!-- Title: Perl Pages: 1 -->
<svg width="309pt" height="235pt"
 viewBox="0.00 0.00 308.75 235.19" xmlns="http://www.w3.org/2000/svg" xmlns:xlink="http://www.w3.org/1999/xlink">
<g id="graph0" class="graph" transform="scale(1 1) rotate(0) translate(4 231.191)">
<title>Perl</title>
<polygon fill="white" stroke="none" points="-4,4 -4,-231.191 304.746,-231.191 304.746,4 -4,4"/>
<!-- Carnegie -->
<g id="node1" class="node"><title>Carnegie</title>
<ellipse fill="none" stroke="black" cx="42.2463" cy="-47.5" rx="42.4939" ry="42.4939"/>
<text text-anchor="middle" x="42.2463" y="-43.8" font-family="Times,serif" font-size="14.00">Carnegie</text>
</g>
<!-- Chadstone -->
<g id="node2" class="node"><title>Chadstone</title>
<ellipse fill="none" stroke="red" cx="145.246" cy="-179.096" rx="48.1917" ry="48.1917"/>
<text text-anchor="middle" x="145.246" y="-175.396" font-family="Times,serif" font-size="14.00">Chadstone</text>
</g>
<!-- Oakleigh -->
<g id="node5" class="node"><title>Oakleigh</title>
<ellipse fill="none" stroke="blue" cx="145.246" cy="-47.5" rx="42.7926" ry="18"/>
<text text-anchor="middle" x="145.246" y="-43.8" font-family="Times,serif" font-size="14.00">Oakleigh</text>
</g>
<!-- Chadstone&#45;&gt;Oakleigh -->
<g id="edge1" class="edge"><title>Chadstone&#45;&gt;Oakleigh</title>
<path fill="none" stroke="grey" d="M145.246,-130.942C145.246,-111.768 145.246,-90.3626 145.246,-74.1692"/>
<ellipse fill="none" stroke="grey" cx="145.246" cy="-69.7564" rx="4" ry="4"/>
</g>
<!-- Malvern -->
<g id="node3" class="node"><title>Malvern</title>
<polygon fill="none" stroke="green" points="75.7463,-197.096 12.7463,-197.096 12.7463,-161.096 75.7463,-161.096 75.7463,-197.096"/>
<text text-anchor="middle" x="44.2463" y="-175.396" font-family="Times,serif" font-size="14.00">Malvern</text>
</g>
<!-- Malvern&#45;&gt;Carnegie -->
<g id="edge2" class="edge"><title>Malvern&#45;&gt;Carnegie</title>
<path fill="none" stroke="grey" d="M43.9807,-160.886C43.7773,-147.709 43.4836,-128.68 43.1956,-110.015"/>
<polygon fill="grey" stroke="grey" points="50.1917,-109.705 42.8839,-89.8152 36.1934,-109.921 50.1917,-109.705"/>
</g>
<!-- Malvern&#45;&gt;Oakleigh -->
<g id="edge3" class="edge"><title>Malvern&#45;&gt;Oakleigh</title>
<path fill="none" stroke="brown" d="M57.6583,-160.886C75.2068,-138.369 106.072,-98.7658 126.082,-73.0895"/>
<polygon fill="brown" stroke="brown" points="129.031,-74.9997 132.418,-64.9606 123.51,-70.6967 129.031,-74.9997"/>
</g>
<!-- Murrumbeena -->
<g id="node4" class="node"><title>Murrumbeena</title>
<polygon fill="none" stroke="orange" points="300.746,-95 205.746,-95 205.746,-0 300.746,-0 300.746,-95"/>
<text text-anchor="middle" x="253.246" y="-43.8" font-family="Times,serif" font-size="14.00">Murrumbeena</text>
</g>
<!-- Prahran -->
<g id="node6" class="node"><title>Prahran</title>
<ellipse fill="none" stroke="black" cx="249.246" cy="-179.096" rx="38.1938" ry="18"/>
<text text-anchor="middle" x="249.246" y="-175.396" font-family="Times,serif" font-size="14.00">Prahran</text>
</g>
</g>
</svg>
