<?xml version="1.0" encoding="UTF-8" standalone="no"?>
<!DOCTYPE svg PUBLIC "-//W3C//DTD SVG 1.1//EN"
 "http://www.w3.org/Graphics/SVG/1.1/DTD/svg11.dtd">
<!-- Generated by graphviz version 2.38.0 (20140413.2041)
 -->
<!-- Title: Perl Pages: 1 -->
<svg width="313pt" height="239pt"
 viewBox="0.00 0.00 312.90 238.79" xmlns="http://www.w3.org/2000/svg" xmlns:xlink="http://www.w3.org/1999/xlink">
<g id="graph0" class="graph" transform="scale(1 1) rotate(0) translate(4 234.791)">
<title>Perl</title>
<polygon fill="white" stroke="none" points="-4,4 -4,-234.791 308.896,-234.791 308.896,4 -4,4"/>
<!-- Carnegie -->
<g id="node1" class="node"><title>Carnegie</title>
<ellipse fill="none" stroke="black" cx="42.8962" cy="-48" rx="42.7926" ry="42.7926"/>
<text text-anchor="middle" x="42.8962" y="-44.3" font-family="Times,serif" font-size="14.00">Carnegie</text>
</g>
<!-- Chadstone -->
<g id="node2" class="node"><title>Chadstone</title>
<ellipse fill="none" stroke="red" cx="146.896" cy="-181.396" rx="49.2915" ry="49.2915"/>
<text text-anchor="middle" x="146.896" y="-177.696" font-family="Times,serif" font-size="14.00">Chadstone</text>
</g>
<!-- Oakleigh -->
<g id="node5" class="node"><title>Oakleigh</title>
<ellipse fill="none" stroke="blue" cx="146.896" cy="-48" rx="43.5923" ry="18"/>
<text text-anchor="middle" x="146.896" y="-44.3" font-family="Times,serif" font-size="14.00">Oakleigh</text>
</g>
<!-- Chadstone&#45;&gt;Oakleigh -->
<g id="edge1" class="edge"><title>Chadstone&#45;&gt;Oakleigh</title>
<path fill="none" stroke="grey" d="M146.896,-131.842C146.896,-112.474 146.896,-90.9682 146.896,-74.7232"/>
<ellipse fill="none" stroke="grey" cx="146.896" cy="-70.2864" rx="4" ry="4"/>
</g>
<!-- Malvern -->
<g id="node3" class="node"><title>Malvern</title>
<polygon fill="none" stroke="green" points="76.8962,-199.396 12.8962,-199.396 12.8962,-163.396 76.8962,-163.396 76.8962,-199.396"/>
<text text-anchor="middle" x="44.8962" y="-177.696" font-family="Times,serif" font-size="14.00">Malvern</text>
</g>
<!-- Malvern&#45;&gt;Carnegie -->
<g id="edge2" class="edge"><title>Malvern&#45;&gt;Carnegie</title>
<path fill="none" stroke="grey" d="M44.6347,-163.218C44.431,-149.834 44.1349,-130.379 43.8446,-111.306"/>
<polygon fill="grey" stroke="grey" points="50.8402,-110.957 43.5365,-91.0657 36.8418,-111.17 50.8402,-110.957"/>
</g>
<!-- Malvern&#45;&gt;Oakleigh -->
<g id="edge3" class="edge"><title>Malvern&#45;&gt;Oakleigh</title>
<path fill="none" stroke="brown" d="M58.2309,-163.218C76.065,-140.244 107.783,-99.3855 128.053,-73.2734"/>
<polygon fill="brown" stroke="brown" points="130.833,-75.4005 134.2,-65.355 125.303,-71.108 130.833,-75.4005"/>
</g>
<!-- Murrumbeena -->
<g id="node4" class="node"><title>Murrumbeena</title>
<polygon fill="none" stroke="orange" points="304.896,-96 208.896,-96 208.896,-0 304.896,-0 304.896,-96"/>
<text text-anchor="middle" x="256.896" y="-44.3" font-family="Times,serif" font-size="14.00">Murrumbeena</text>
</g>
<!-- Prahran -->
<g id="node6" class="node"><title>Prahran</title>
<ellipse fill="none" stroke="black" cx="254.896" cy="-181.396" rx="40.0939" ry="18"/>
<text text-anchor="middle" x="254.896" y="-177.696" font-family="Times,serif" font-size="14.00">Prahran</text>
</g>
</g>
</svg>
