<?xml version="1.0" encoding="UTF-8" standalone="no"?>
<!DOCTYPE svg PUBLIC "-//W3C//DTD SVG 1.1//EN"
 "http://www.w3.org/Graphics/SVG/1.1/DTD/svg11.dtd">
<!-- Generated by graphviz version 2.29.20121107.0545 (20121107.0545)
 -->
<!-- Title: Perl Pages: 1 -->
<svg width="325pt" height="252pt"
 viewBox="0.00 0.00 325.00 252.00" xmlns="http://www.w3.org/2000/svg" xmlns:xlink="http://www.w3.org/1999/xlink">
<g id="graph0" class="graph" transform="scale(1 1) rotate(0) translate(4 248)">
<title>Perl</title>
<polygon fill="white" stroke="white" points="-4,5 -4,-248 322,-248 322,5 -4,5"/>
<g id="clust2" class="cluster"><title>cluster Subgraph 2</title>
<polygon fill="none" stroke="black" points="94,-8 94,-120 309,-120 309,-8 94,-8"/>
</g>
<!-- Carnegie -->
<g id="node1" class="node"><title>Carnegie</title>
<ellipse fill="none" stroke="black" cx="42" cy="-64" rx="42.3701" ry="42.4939"/>
<text text-anchor="middle" x="42" y="-60.3" font-family="Times,serif" font-size="14.00">Carnegie</text>
</g>
<!-- Chadstone -->
<g id="node2" class="node"><title>Chadstone</title>
<ellipse fill="none" stroke="red" cx="145" cy="-196" rx="48.1437" ry="48.1917"/>
<text text-anchor="middle" x="145" y="-192.3" font-family="Times,serif" font-size="14.00">Chadstone</text>
</g>
<!-- Oakleigh -->
<g id="node5" class="node"><title>Oakleigh</title>
<ellipse fill="none" stroke="blue" cx="145" cy="-64" rx="42.3456" ry="18"/>
<text text-anchor="middle" x="145" y="-60.3" font-family="Times,serif" font-size="14.00">Oakleigh</text>
</g>
<!-- Chadstone&#45;&gt;Oakleigh -->
<g id="edge1" class="edge"><title>Chadstone&#45;&gt;Oakleigh</title>
<path fill="none" stroke="grey" d="M145,-147.699C145,-128.465 145,-106.993 145,-90.7493"/>
<ellipse fill="none" stroke="grey" cx="145" cy="-86.3102" rx="4" ry="4"/>
</g>
<!-- Malvern -->
<g id="node3" class="node"><title>Malvern</title>
<polygon fill="none" stroke="green" points="76.25,-214 13.75,-214 13.75,-178 76.25,-178 76.25,-214"/>
<text text-anchor="middle" x="45" y="-192.3" font-family="Times,serif" font-size="14.00">Malvern</text>
</g>
<!-- Malvern&#45;&gt;Carnegie -->
<g id="edge2" class="edge"><title>Malvern&#45;&gt;Carnegie</title>
<path fill="none" stroke="grey" d="M44.6016,-177.737C44.2966,-164.519 43.8561,-145.43 43.424,-126.707"/>
<polygon fill="grey" stroke="grey" points="50.4161,-126.277 42.9564,-106.444 36.4198,-126.6 50.4161,-126.277"/>
</g>
<!-- Malvern&#45;&gt;Oakleigh -->
<g id="edge3" class="edge"><title>Malvern&#45;&gt;Oakleigh</title>
<path fill="none" stroke="brown" d="M58.2792,-177.737C75.654,-155.15 106.213,-115.423 126.026,-89.6662"/>
<polygon fill="brown" stroke="brown" points="128.976,-91.5723 132.298,-81.512 123.427,-87.3043 128.976,-91.5723"/>
</g>
<!-- Murrumbeena -->
<g id="node4" class="node"><title>Murrumbeena</title>
<polygon fill="none" stroke="orange" points="300.25,-111.5 205.75,-111.5 205.75,-16.5 300.25,-16.5 300.25,-111.5"/>
<text text-anchor="middle" x="253" y="-60.3" font-family="Times,serif" font-size="14.00">Murrumbeena</text>
</g>
<!-- Prahran -->
<g id="node6" class="node"><title>Prahran</title>
<ellipse fill="none" stroke="black" cx="249" cy="-196" rx="38.0212" ry="18"/>
<text text-anchor="middle" x="249" y="-192.3" font-family="Times,serif" font-size="14.00">Prahran</text>
</g>
</g>
</svg>
