<?xml version="1.0" encoding="UTF-8" standalone="no"?>
<!DOCTYPE svg PUBLIC "-//W3C//DTD SVG 1.1//EN"
 "http://www.w3.org/Graphics/SVG/1.1/DTD/svg11.dtd">
<!-- Generated by graphviz version 2.29.20121107.0545 (20121107.0545)
 -->
<!-- Title: Perl Pages: 1 -->
<svg width="308pt" height="236pt"
 viewBox="0.00 0.00 308.00 236.00" xmlns="http://www.w3.org/2000/svg" xmlns:xlink="http://www.w3.org/1999/xlink">
<g id="graph0" class="graph" transform="scale(1 1) rotate(0) translate(4 232)">
<title>Perl</title>
<polygon fill="white" stroke="white" points="-4,5 -4,-232 305,-232 305,5 -4,5"/>
<!-- Carnegie -->
<g id="node1" class="node"><title>Carnegie</title>
<ellipse fill="none" stroke="black" cx="42" cy="-48" rx="42.3701" ry="42.4939"/>
<text text-anchor="middle" x="42" y="-44.3" font-family="Times,serif" font-size="14.00">Carnegie</text>
</g>
<!-- Chadstone -->
<g id="node2" class="node"><title>Chadstone</title>
<ellipse fill="none" stroke="red" cx="145" cy="-180" rx="48.1437" ry="48.1917"/>
<text text-anchor="middle" x="145" y="-176.3" font-family="Times,serif" font-size="14.00">Chadstone</text>
</g>
<!-- Oakleigh -->
<g id="node5" class="node"><title>Oakleigh</title>
<ellipse fill="none" stroke="blue" cx="145" cy="-48" rx="42.3456" ry="18"/>
<text text-anchor="middle" x="145" y="-44.3" font-family="Times,serif" font-size="14.00">Oakleigh</text>
</g>
<!-- Chadstone&#45;&gt;Oakleigh -->
<g id="edge1" class="edge"><title>Chadstone&#45;&gt;Oakleigh</title>
<path fill="none" stroke="grey" d="M145,-131.699C145,-112.465 145,-90.9932 145,-74.7493"/>
<ellipse fill="none" stroke="grey" cx="145" cy="-70.3102" rx="4" ry="4"/>
</g>
<!-- Malvern -->
<g id="node3" class="node"><title>Malvern</title>
<polygon fill="none" stroke="green" points="75.25,-198 12.75,-198 12.75,-162 75.25,-162 75.25,-198"/>
<text text-anchor="middle" x="44" y="-176.3" font-family="Times,serif" font-size="14.00">Malvern</text>
</g>
<!-- Malvern&#45;&gt;Carnegie -->
<g id="edge2" class="edge"><title>Malvern&#45;&gt;Carnegie</title>
<path fill="none" stroke="grey" d="M43.7344,-161.737C43.5311,-148.519 43.2374,-129.43 42.9493,-110.707"/>
<polygon fill="grey" stroke="grey" points="49.9445,-110.334 42.6376,-90.4441 35.9462,-110.549 49.9445,-110.334"/>
</g>
<!-- Malvern&#45;&gt;Oakleigh -->
<g id="edge3" class="edge"><title>Malvern&#45;&gt;Oakleigh</title>
<path fill="none" stroke="brown" d="M57.412,-161.737C74.9606,-139.15 105.826,-99.4226 125.836,-73.6662"/>
<polygon fill="brown" stroke="brown" points="128.8,-75.5561 132.171,-65.512 123.272,-71.2615 128.8,-75.5561"/>
</g>
<!-- Murrumbeena -->
<g id="node4" class="node"><title>Murrumbeena</title>
<polygon fill="none" stroke="orange" points="300.25,-95.5 205.75,-95.5 205.75,-0.5 300.25,-0.5 300.25,-95.5"/>
<text text-anchor="middle" x="253" y="-44.3" font-family="Times,serif" font-size="14.00">Murrumbeena</text>
</g>
<!-- Prahran -->
<g id="node6" class="node"><title>Prahran</title>
<ellipse fill="none" stroke="black" cx="249" cy="-180" rx="38.0212" ry="18"/>
<text text-anchor="middle" x="249" y="-176.3" font-family="Times,serif" font-size="14.00">Prahran</text>
</g>
</g>
</svg>
