<?xml version="1.0" encoding="UTF-8" standalone="no"?>
<!DOCTYPE svg PUBLIC "-//W3C//DTD SVG 1.1//EN"
 "http://www.w3.org/Graphics/SVG/1.1/DTD/svg11.dtd">
<!-- Generated by graphviz version 2.38.0 (20140413.2041)
 -->
<!-- Title: Perl Pages: 1 -->
<svg width="325pt" height="251pt"
 viewBox="0.00 0.00 325.25 251.19" xmlns="http://www.w3.org/2000/svg" xmlns:xlink="http://www.w3.org/1999/xlink">
<g id="graph0" class="graph" transform="scale(1 1) rotate(0) translate(4 247.191)">
<title>Perl</title>
<polygon fill="white" stroke="none" points="-4,4 -4,-247.191 321.246,-247.191 321.246,4 -4,4"/>
<g id="clust2" class="cluster"><title>cluster Subgraph 2</title>
<polygon fill="none" stroke="black" points="94.2463,-8 94.2463,-119 309.246,-119 309.246,-8 94.2463,-8"/>
</g>
<!-- Carnegie -->
<g id="node1" class="node"><title>Carnegie</title>
<ellipse fill="none" stroke="black" cx="42.2463" cy="-63.5" rx="42.4939" ry="42.4939"/>
<text text-anchor="middle" x="42.2463" y="-59.8" font-family="Times,serif" font-size="14.00">Carnegie</text>
</g>
<!-- Chadstone -->
<g id="node2" class="node"><title>Chadstone</title>
<ellipse fill="none" stroke="red" cx="145.246" cy="-195.096" rx="48.1917" ry="48.1917"/>
<text text-anchor="middle" x="145.246" y="-191.396" font-family="Times,serif" font-size="14.00">Chadstone</text>
</g>
<!-- Oakleigh -->
<g id="node5" class="node"><title>Oakleigh</title>
<ellipse fill="none" stroke="blue" cx="145.246" cy="-63.5" rx="42.7926" ry="18"/>
<text text-anchor="middle" x="145.246" y="-59.8" font-family="Times,serif" font-size="14.00">Oakleigh</text>
</g>
<!-- Chadstone&#45;&gt;Oakleigh -->
<g id="edge1" class="edge"><title>Chadstone&#45;&gt;Oakleigh</title>
<path fill="none" stroke="grey" d="M145.246,-146.942C145.246,-127.768 145.246,-106.363 145.246,-90.1692"/>
<ellipse fill="none" stroke="grey" cx="145.246" cy="-85.7564" rx="4" ry="4"/>
</g>
<!-- Malvern -->
<g id="node3" class="node"><title>Malvern</title>
<polygon fill="none" stroke="green" points="76.7463,-213.096 13.7463,-213.096 13.7463,-177.096 76.7463,-177.096 76.7463,-213.096"/>
<text text-anchor="middle" x="45.2463" y="-191.396" font-family="Times,serif" font-size="14.00">Malvern</text>
</g>
<!-- Malvern&#45;&gt;Carnegie -->
<g id="edge2" class="edge"><title>Malvern&#45;&gt;Carnegie</title>
<path fill="none" stroke="grey" d="M44.8479,-176.886C44.5428,-163.709 44.1023,-144.68 43.6703,-126.015"/>
<polygon fill="grey" stroke="grey" points="50.6637,-125.648 43.2027,-105.815 36.6675,-125.972 50.6637,-125.648"/>
</g>
<!-- Malvern&#45;&gt;Oakleigh -->
<g id="edge3" class="edge"><title>Malvern&#45;&gt;Oakleigh</title>
<path fill="none" stroke="brown" d="M58.5255,-176.886C75.9003,-154.369 106.46,-114.766 126.272,-89.0895"/>
<polygon fill="brown" stroke="brown" points="129.207,-91.0159 132.545,-80.9606 123.665,-86.7395 129.207,-91.0159"/>
</g>
<!-- Murrumbeena -->
<g id="node4" class="node"><title>Murrumbeena</title>
<polygon fill="none" stroke="orange" points="300.746,-111 205.746,-111 205.746,-16 300.746,-16 300.746,-111"/>
<text text-anchor="middle" x="253.246" y="-59.8" font-family="Times,serif" font-size="14.00">Murrumbeena</text>
</g>
<!-- Prahran -->
<g id="node6" class="node"><title>Prahran</title>
<ellipse fill="none" stroke="black" cx="249.246" cy="-195.096" rx="38.1938" ry="18"/>
<text text-anchor="middle" x="249.246" y="-191.396" font-family="Times,serif" font-size="14.00">Prahran</text>
</g>
</g>
</svg>
