<?xml version="1.0" encoding="UTF-8" standalone="no"?>
<!DOCTYPE svg PUBLIC "-//W3C//DTD SVG 1.1//EN"
 "http://www.w3.org/Graphics/SVG/1.1/DTD/svg11.dtd">
<!-- Generated by graphviz version 2.38.0 (20140413.2041)
 -->
<!-- Title: Perl Pages: 1 -->
<svg width="329pt" height="255pt"
 viewBox="0.00 0.00 328.90 254.79" xmlns="http://www.w3.org/2000/svg" xmlns:xlink="http://www.w3.org/1999/xlink">
<g id="graph0" class="graph" transform="scale(1 1) rotate(0) translate(4 250.791)">
<title>Perl</title>
<polygon fill="white" stroke="none" points="-4,4 -4,-250.791 324.896,-250.791 324.896,4 -4,4"/>
<g id="clust2" class="cluster"><title>cluster Subgraph 2</title>
<polygon fill="none" stroke="black" points="94.8962,-8 94.8962,-120 312.896,-120 312.896,-8 94.8962,-8"/>
</g>
<!-- Carnegie -->
<g id="node1" class="node"><title>Carnegie</title>
<ellipse fill="none" stroke="black" cx="42.8962" cy="-64" rx="42.7926" ry="42.7926"/>
<text text-anchor="middle" x="42.8962" y="-60.3" font-family="Times,serif" font-size="14.00">Carnegie</text>
</g>
<!-- Chadstone -->
<g id="node2" class="node"><title>Chadstone</title>
<ellipse fill="none" stroke="red" cx="146.896" cy="-197.396" rx="49.2915" ry="49.2915"/>
<text text-anchor="middle" x="146.896" y="-193.696" font-family="Times,serif" font-size="14.00">Chadstone</text>
</g>
<!-- Oakleigh -->
<g id="node5" class="node"><title>Oakleigh</title>
<ellipse fill="none" stroke="blue" cx="146.896" cy="-64" rx="43.5923" ry="18"/>
<text text-anchor="middle" x="146.896" y="-60.3" font-family="Times,serif" font-size="14.00">Oakleigh</text>
</g>
<!-- Chadstone&#45;&gt;Oakleigh -->
<g id="edge1" class="edge"><title>Chadstone&#45;&gt;Oakleigh</title>
<path fill="none" stroke="grey" d="M146.896,-147.842C146.896,-128.474 146.896,-106.968 146.896,-90.7232"/>
<ellipse fill="none" stroke="grey" cx="146.896" cy="-86.2864" rx="4" ry="4"/>
</g>
<!-- Malvern -->
<g id="node3" class="node"><title>Malvern</title>
<polygon fill="none" stroke="green" points="77.8962,-215.396 13.8962,-215.396 13.8962,-179.396 77.8962,-179.396 77.8962,-215.396"/>
<text text-anchor="middle" x="45.8962" y="-193.696" font-family="Times,serif" font-size="14.00">Malvern</text>
</g>
<!-- Malvern&#45;&gt;Carnegie -->
<g id="edge2" class="edge"><title>Malvern&#45;&gt;Carnegie</title>
<path fill="none" stroke="grey" d="M45.504,-179.218C45.1984,-165.834 44.7542,-146.379 44.3188,-127.306"/>
<polygon fill="grey" stroke="grey" points="51.3114,-126.901 43.8566,-107.066 37.3151,-127.22 51.3114,-126.901"/>
</g>
<!-- Malvern&#45;&gt;Oakleigh -->
<g id="edge3" class="edge"><title>Malvern&#45;&gt;Oakleigh</title>
<path fill="none" stroke="brown" d="M59.1002,-179.218C76.683,-156.344 107.895,-115.739 127.977,-89.6134"/>
<polygon fill="brown" stroke="brown" points="131.005,-91.4164 134.325,-81.355 125.455,-87.1504 131.005,-91.4164"/>
</g>
<!-- Murrumbeena -->
<g id="node4" class="node"><title>Murrumbeena</title>
<polygon fill="none" stroke="orange" points="304.896,-112 208.896,-112 208.896,-16 304.896,-16 304.896,-112"/>
<text text-anchor="middle" x="256.896" y="-60.3" font-family="Times,serif" font-size="14.00">Murrumbeena</text>
</g>
<!-- Prahran -->
<g id="node6" class="node"><title>Prahran</title>
<ellipse fill="none" stroke="black" cx="254.896" cy="-197.396" rx="40.0939" ry="18"/>
<text text-anchor="middle" x="254.896" y="-193.696" font-family="Times,serif" font-size="14.00">Prahran</text>
</g>
</g>
</svg>
