<?xml version="1.0" encoding="UTF-8" standalone="no"?>
<!DOCTYPE svg PUBLIC "-//W3C//DTD SVG 1.1//EN"
 "http://www.w3.org/Graphics/SVG/1.1/DTD/svg11.dtd">
<!-- Generated by graphviz version 2.26.3 (20100126.1600)
 -->
<!-- Title: Perl Pages: 1 -->
<svg width="407pt" height="374pt"
 viewBox="0.00 0.00 407.00 374.00" xmlns="http://www.w3.org/2000/svg" xmlns:xlink="http://www.w3.org/1999/xlink">
<g id="graph1" class="graph" transform="scale(1 1) rotate(0) translate(4 370)">
<title>Perl</title>
<polygon fill="white" stroke="white" points="-4,5 -4,-370 404,-370 404,5 -4,5"/>
<!-- Carnegie -->
<g id="node1" class="node"><title>Carnegie</title>
<ellipse fill="none" stroke="black" cx="46" cy="-46" rx="45.9619" ry="45.9619"/>
<text text-anchor="middle" x="46" y="-42.9" font-family="Times Roman,serif" font-size="14.00">Carnegie</text>
</g>
<!-- Chadstone -->
<g id="node2" class="node"><title>Chadstone</title>
<ellipse fill="none" stroke="red" cx="141" cy="-313" rx="51.8276" ry="52.3259"/>
<text text-anchor="middle" x="141" y="-309.9" font-family="Times Roman,serif" font-size="14.00">Chadstone</text>
</g>
<!-- Oakleigh -->
<g id="node5" class="node"><title>Oakleigh</title>
<ellipse fill="none" stroke="blue" cx="141" cy="-176" rx="46.1672" ry="19.0919"/>
<text text-anchor="middle" x="141" y="-172.9" font-family="Times Roman,serif" font-size="14.00">Oakleigh</text>
</g>
<!-- Chadstone&#45;&gt;Oakleigh -->
<g id="edge2" class="edge"><title>Chadstone&#45;&gt;Oakleigh</title>
<path fill="none" stroke="grey" d="M141,-260.424C141,-240.89 141,-219.526 141,-203.177"/>
<ellipse fill="none" stroke="grey" cx="141" cy="-199.121" rx="4" ry="4"/>
</g>
<!-- Malvern -->
<g id="node3" class="node"><title>Malvern</title>
<polygon fill="none" stroke="green" points="77,-194 15,-194 15,-158 77,-158 77,-194"/>
<text text-anchor="middle" x="46" y="-172.9" font-family="Times Roman,serif" font-size="14.00">Malvern</text>
</g>
<!-- Malvern&#45;&gt;Carnegie -->
<g id="edge4" class="edge"><title>Malvern&#45;&gt;Carnegie</title>
<path fill="none" stroke="grey" d="M46,-157.924C46,-145.871 46,-129.21 46,-112.421"/>
<polygon fill="grey" stroke="grey" points="53.0001,-112.182 46,-92.182 39.0001,-112.182 53.0001,-112.182"/>
</g>
<!-- Malvern&#45;&gt;Oakleigh -->
<g id="edge6" class="edge"><title>Malvern&#45;&gt;Oakleigh</title>
<path fill="none" stroke="brown" d="M77.1719,-176C79.6262,-176 82.0805,-176 84.5349,-176"/>
<polygon fill="brown" stroke="brown" points="84.6249,-179.5 94.6249,-176 84.6248,-172.5 84.6249,-179.5"/>
</g>
<!-- Murrumbeena -->
<g id="node4" class="node"><title>Murrumbeena</title>
<polygon fill="none" stroke="orange" points="299,-223.5 205,-223.5 205,-128.5 299,-128.5 299,-223.5"/>
<text text-anchor="middle" x="252" y="-172.9" font-family="Times Roman,serif" font-size="14.00">Murrumbeena</text>
</g>
<!-- Prahran -->
<g id="node10" class="node"><title>Prahran</title>
<ellipse fill="none" stroke="black" cx="358" cy="-176" rx="41.2167" ry="19.0919"/>
<text text-anchor="middle" x="358" y="-172.9" font-family="Times Roman,serif" font-size="14.00">Prahran</text>
</g>
</g>
</svg>
