<?xml version="1.0" encoding="UTF-8" standalone="no"?>
<!DOCTYPE svg PUBLIC "-//W3C//DTD SVG 1.1//EN"
 "http://www.w3.org/Graphics/SVG/1.1/DTD/svg11.dtd">
<!-- Generated by graphviz version 2.26.3 (20100126.1600)
 -->
<!-- Title: Perl Pages: 1 -->
<svg width="322pt" height="246pt"
 viewBox="0.00 0.00 322.00 246.00" xmlns="http://www.w3.org/2000/svg" xmlns:xlink="http://www.w3.org/1999/xlink">
<g id="graph1" class="graph" transform="scale(1 1) rotate(0) translate(4 242)">
<title>Perl</title>
<polygon fill="white" stroke="white" points="-4,5 -4,-242 319,-242 319,5 -4,5"/>
<!-- Carnegie -->
<g id="node1" class="node"><title>Carnegie</title>
<ellipse fill="none" stroke="black" cx="46" cy="-48" rx="45.9619" ry="45.9619"/>
<text text-anchor="middle" x="46" y="-44.9" font-family="Times Roman,serif" font-size="14.00">Carnegie</text>
</g>
<!-- Chadstone -->
<g id="node2" class="node"><title>Chadstone</title>
<ellipse fill="none" stroke="red" cx="156" cy="-185" rx="51.8276" ry="52.3259"/>
<text text-anchor="middle" x="156" y="-181.9" font-family="Times Roman,serif" font-size="14.00">Chadstone</text>
</g>
<!-- Oakleigh -->
<g id="node5" class="node"><title>Oakleigh</title>
<ellipse fill="none" stroke="blue" cx="156" cy="-48" rx="46.1672" ry="19.0919"/>
<text text-anchor="middle" x="156" y="-44.9" font-family="Times Roman,serif" font-size="14.00">Oakleigh</text>
</g>
<!-- Chadstone&#45;&gt;Oakleigh -->
<g id="edge2" class="edge"><title>Chadstone&#45;&gt;Oakleigh</title>
<path fill="none" stroke="grey" d="M156,-132.424C156,-112.89 156,-91.5264 156,-75.1774"/>
<ellipse fill="none" stroke="grey" cx="156" cy="-71.1213" rx="4" ry="4"/>
</g>
<!-- Malvern -->
<g id="node3" class="node"><title>Malvern</title>
<polygon fill="none" stroke="green" points="81,-203 19,-203 19,-167 81,-167 81,-203"/>
<text text-anchor="middle" x="50" y="-181.9" font-family="Times Roman,serif" font-size="14.00">Malvern</text>
</g>
<!-- Malvern&#45;&gt;Carnegie -->
<g id="edge4" class="edge"><title>Malvern&#45;&gt;Carnegie</title>
<path fill="none" stroke="grey" d="M49.4688,-166.807C49.0703,-153.158 48.4984,-133.57 47.9335,-114.224"/>
<polygon fill="grey" stroke="grey" points="54.9244,-113.804 47.3435,-94.0165 40.9303,-114.212 54.9244,-113.804"/>
</g>
<!-- Malvern&#45;&gt;Oakleigh -->
<g id="edge6" class="edge"><title>Malvern&#45;&gt;Oakleigh</title>
<path fill="none" stroke="brown" d="M64.076,-166.807C82.4493,-143.061 114.732,-101.338 135.737,-74.1892"/>
<polygon fill="brown" stroke="brown" points="138.515,-76.3186 141.866,-66.2678 132.978,-72.035 138.515,-76.3186"/>
</g>
<!-- Murrumbeena -->
<g id="node4" class="node"><title>Murrumbeena</title>
<polygon fill="none" stroke="orange" points="314,-95.5 220,-95.5 220,-0.5 314,-0.5 314,-95.5"/>
<text text-anchor="middle" x="267" y="-44.9" font-family="Times Roman,serif" font-size="14.00">Murrumbeena</text>
</g>
<!-- Prahran -->
<g id="node10" class="node"><title>Prahran</title>
<ellipse fill="none" stroke="black" cx="267" cy="-185" rx="41.2167" ry="19.0919"/>
<text text-anchor="middle" x="267" y="-181.9" font-family="Times Roman,serif" font-size="14.00">Prahran</text>
</g>
</g>
</svg>
