<?xml version="1.0" encoding="UTF-8" standalone="no"?>
<!DOCTYPE svg PUBLIC "-//W3C//DTD SVG 1.1//EN"
 "http://www.w3.org/Graphics/SVG/1.1/DTD/svg11.dtd">
<!-- Generated by graphviz version 2.26.3 (20100126.1600)
 -->
<!-- Title: Perl Pages: 1 -->
<svg width="338pt" height="262pt"
 viewBox="0.00 0.00 338.00 262.00" xmlns="http://www.w3.org/2000/svg" xmlns:xlink="http://www.w3.org/1999/xlink">
<g id="graph1" class="graph" transform="scale(1 1) rotate(0) translate(4 258)">
<title>Perl</title>
<polygon fill="white" stroke="white" points="-4,5 -4,-258 335,-258 335,5 -4,5"/>
<g id="graph3" class="cluster"><title>cluster Subgraph 2</title>
<polygon fill="none" stroke="black" points="102,-8 102,-120 322,-120 322,-8 102,-8"/>
</g>
<!-- Carnegie -->
<g id="node1" class="node"><title>Carnegie</title>
<ellipse fill="none" stroke="black" cx="46" cy="-64" rx="45.9619" ry="45.9619"/>
<text text-anchor="middle" x="46" y="-60.9" font-family="Times Roman,serif" font-size="14.00">Carnegie</text>
</g>
<!-- Chadstone -->
<g id="node2" class="node"><title>Chadstone</title>
<ellipse fill="none" stroke="red" cx="156" cy="-201" rx="51.8276" ry="52.3259"/>
<text text-anchor="middle" x="156" y="-197.9" font-family="Times Roman,serif" font-size="14.00">Chadstone</text>
</g>
<!-- Oakleigh -->
<g id="node5" class="node"><title>Oakleigh</title>
<ellipse fill="none" stroke="blue" cx="156" cy="-64" rx="46.1672" ry="19.0919"/>
<text text-anchor="middle" x="156" y="-60.9" font-family="Times Roman,serif" font-size="14.00">Oakleigh</text>
</g>
<!-- Chadstone&#45;&gt;Oakleigh -->
<g id="edge2" class="edge"><title>Chadstone&#45;&gt;Oakleigh</title>
<path fill="none" stroke="grey" d="M156,-148.424C156,-128.89 156,-107.526 156,-91.1774"/>
<ellipse fill="none" stroke="grey" cx="156" cy="-87.1213" rx="4" ry="4"/>
</g>
<!-- Malvern -->
<g id="node3" class="node"><title>Malvern</title>
<polygon fill="none" stroke="green" points="82,-219 20,-219 20,-183 82,-183 82,-219"/>
<text text-anchor="middle" x="51" y="-197.9" font-family="Times Roman,serif" font-size="14.00">Malvern</text>
</g>
<!-- Malvern&#45;&gt;Carnegie -->
<g id="edge4" class="edge"><title>Malvern&#45;&gt;Carnegie</title>
<path fill="none" stroke="grey" d="M50.336,-182.807C49.8379,-169.158 49.123,-149.57 48.4169,-130.224"/>
<polygon fill="grey" stroke="grey" points="55.4043,-129.748 47.6794,-110.017 41.4136,-130.259 55.4043,-129.748"/>
</g>
<!-- Malvern&#45;&gt;Oakleigh -->
<g id="edge6" class="edge"><title>Malvern&#45;&gt;Oakleigh</title>
<path fill="none" stroke="brown" d="M64.9432,-182.807C83.0647,-159.163 114.845,-117.697 135.658,-90.541"/>
<polygon fill="brown" stroke="brown" points="138.694,-92.3339 141.999,-82.2678 133.138,-88.0757 138.694,-92.3339"/>
</g>
<!-- Murrumbeena -->
<g id="node4" class="node"><title>Murrumbeena</title>
<polygon fill="none" stroke="orange" points="314,-111.5 220,-111.5 220,-16.5 314,-16.5 314,-111.5"/>
<text text-anchor="middle" x="267" y="-60.9" font-family="Times Roman,serif" font-size="14.00">Murrumbeena</text>
</g>
<!-- Prahran -->
<g id="node10" class="node"><title>Prahran</title>
<ellipse fill="none" stroke="black" cx="267" cy="-201" rx="41.2167" ry="19.0919"/>
<text text-anchor="middle" x="267" y="-197.9" font-family="Times Roman,serif" font-size="14.00">Prahran</text>
</g>
</g>
</svg>
