<?xml version="1.0" encoding="UTF-8" standalone="no"?>
<!DOCTYPE svg PUBLIC "-//W3C//DTD SVG 1.1//EN"
 "http://www.w3.org/Graphics/SVG/1.1/DTD/svg11.dtd">
<!-- Generated by graphviz version 2.29.20121107.0545 (20121107.0545)
 -->
<!-- Title: Perl Pages: 1 -->
<svg width="392pt" height="356pt"
 viewBox="0.00 0.00 392.00 356.00" xmlns="http://www.w3.org/2000/svg" xmlns:xlink="http://www.w3.org/1999/xlink">
<g id="graph0" class="graph" transform="scale(1 1) rotate(0) translate(4 352)">
<title>Perl</title>
<polygon fill="white" stroke="white" points="-4,5 -4,-352 389,-352 389,5 -4,5"/>
<!-- Carnegie -->
<g id="node1" class="node"><title>Carnegie</title>
<ellipse fill="none" stroke="black" cx="42" cy="-42" rx="42.3701" ry="42.4939"/>
<text text-anchor="middle" x="42" y="-38.3" font-family="Times,serif" font-size="14.00">Carnegie</text>
</g>
<!-- Chadstone -->
<g id="node2" class="node"><title>Chadstone</title>
<ellipse fill="none" stroke="red" cx="134" cy="-300" rx="48.1437" ry="48.1917"/>
<text text-anchor="middle" x="134" y="-296.3" font-family="Times,serif" font-size="14.00">Chadstone</text>
</g>
<!-- Oakleigh -->
<g id="node5" class="node"><title>Oakleigh</title>
<ellipse fill="none" stroke="blue" cx="134" cy="-168" rx="42.3456" ry="18"/>
<text text-anchor="middle" x="134" y="-164.3" font-family="Times,serif" font-size="14.00">Oakleigh</text>
</g>
<!-- Chadstone&#45;&gt;Oakleigh -->
<g id="edge1" class="edge"><title>Chadstone&#45;&gt;Oakleigh</title>
<path fill="none" stroke="grey" d="M134,-251.699C134,-232.465 134,-210.993 134,-194.749"/>
<ellipse fill="none" stroke="grey" cx="134" cy="-190.31" rx="4" ry="4"/>
</g>
<!-- Malvern -->
<g id="node3" class="node"><title>Malvern</title>
<polygon fill="none" stroke="green" points="73.25,-186 10.75,-186 10.75,-150 73.25,-150 73.25,-186"/>
<text text-anchor="middle" x="42" y="-164.3" font-family="Times,serif" font-size="14.00">Malvern</text>
</g>
<!-- Malvern&#45;&gt;Carnegie -->
<g id="edge2" class="edge"><title>Malvern&#45;&gt;Carnegie</title>
<path fill="none" stroke="grey" d="M42,-149.758C42,-137.855 42,-121.237 42,-104.653"/>
<polygon fill="grey" stroke="grey" points="49.0001,-104.393 42,-84.3925 35.0001,-104.393 49.0001,-104.393"/>
</g>
<!-- Malvern&#45;&gt;Oakleigh -->
<g id="edge3" class="edge"><title>Malvern&#45;&gt;Oakleigh</title>
<path fill="none" stroke="brown" d="M73.2656,-168C75.8951,-168 78.5245,-168 81.154,-168"/>
<polygon fill="brown" stroke="brown" points="81.2962,-171.5 91.2961,-168 81.2961,-164.5 81.2962,-171.5"/>
</g>
<!-- Murrumbeena -->
<g id="node4" class="node"><title>Murrumbeena</title>
<polygon fill="none" stroke="orange" points="289.25,-215.5 194.75,-215.5 194.75,-120.5 289.25,-120.5 289.25,-215.5"/>
<text text-anchor="middle" x="242" y="-164.3" font-family="Times,serif" font-size="14.00">Murrumbeena</text>
</g>
<!-- Prahran -->
<g id="node6" class="node"><title>Prahran</title>
<ellipse fill="none" stroke="black" cx="346" cy="-168" rx="38.0212" ry="18"/>
<text text-anchor="middle" x="346" y="-164.3" font-family="Times,serif" font-size="14.00">Prahran</text>
</g>
</g>
</svg>
