<?xml version="1.0" encoding="UTF-8" standalone="no"?>
<!DOCTYPE svg PUBLIC "-//W3C//DTD SVG 1.1//EN"
 "http://www.w3.org/Graphics/SVG/1.1/DTD/svg11.dtd">
<!-- Generated by graphviz version 2.30.1 (20130611.0131)
 -->
<!-- Title: Perl Pages: 1 -->
<svg width="325pt" height="175pt"
 viewBox="0.00 0.00 325.00 175.00" xmlns="http://www.w3.org/2000/svg" xmlns:xlink="http://www.w3.org/1999/xlink">
<g id="graph0" class="graph" transform="scale(1 1) rotate(0) translate(4 171)">
<title>Perl</title>
<polygon fill="white" stroke="white" points="-4,5 -4,-171 322,-171 322,5 -4,5"/>
<text text-anchor="middle" x="158.5" y="-7.8" font-family="Times,serif" font-size="14.00">Record demo 1 &#45; Nested records using strings as labels</text>
<!-- struct1 -->
<g id="node1" class="node"><title>struct1</title>
<polygon fill="none" stroke="black" points="37,-130 37,-166 173,-166 173,-130 37,-130"/>
<text text-anchor="middle" x="54.5" y="-144.3" font-family="Times,serif" font-size="14.00">left</text>
<polyline fill="none" stroke="black" points="72,-130 72,-166 "/>
<text text-anchor="middle" x="101.5" y="-144.3" font-family="Times,serif" font-size="14.00">mid dle</text>
<polyline fill="none" stroke="black" points="131,-130 131,-166 "/>
<text text-anchor="middle" x="152" y="-144.3" font-family="Times,serif" font-size="14.00">right</text>
</g>
<!-- struct2 -->
<g id="node2" class="node"><title>struct2</title>
<polygon fill="none" stroke="black" points="29.5,-40 29.5,-76 102.5,-76 102.5,-40 29.5,-40"/>
<text text-anchor="middle" x="47.5" y="-54.3" font-family="Times,serif" font-size="14.00">one</text>
<polyline fill="none" stroke="black" points="65.5,-40 65.5,-76 "/>
<text text-anchor="middle" x="84" y="-54.3" font-family="Times,serif" font-size="14.00">two</text>
</g>
<!-- struct1&#45;&gt;struct2 -->
<g id="edge1" class="edge"><title>struct1:f1&#45;&gt;struct2:f0</title>
<path fill="none" stroke="grey" d="M101,-129C101,-99.586 58.9147,-107.547 49.0509,-86.8922"/>
<polygon fill="grey" stroke="grey" points="52.4573,-86.0812 47,-77 45.6031,-87.5023 52.4573,-86.0812"/>
</g>
<!-- struct3 -->
<g id="node3" class="node"><title>struct3</title>
<polygon fill="none" stroke="black" points="120.5,-23.5 120.5,-92.5 287.5,-92.5 287.5,-23.5 120.5,-23.5"/>
<text text-anchor="middle" x="146.5" y="-61.8" font-family="Times,serif" font-size="14.00">Hello</text>
<text text-anchor="middle" x="146.5" y="-46.8" font-family="Times,serif" font-size="14.00">World</text>
<polyline fill="none" stroke="black" points="172.5,-23.5 172.5,-92.5 "/>
<text text-anchor="middle" x="207" y="-77.3" font-family="Times,serif" font-size="14.00">b</text>
<polyline fill="none" stroke="black" points="172.5,-69.5 241.5,-69.5 "/>
<text text-anchor="middle" x="184" y="-54.3" font-family="Times,serif" font-size="14.00">c</text>
<polyline fill="none" stroke="black" points="195.5,-46.5 195.5,-69.5 "/>
<text text-anchor="middle" x="207" y="-54.3" font-family="Times,serif" font-size="14.00">d</text>
<polyline fill="none" stroke="black" points="218.5,-46.5 218.5,-69.5 "/>
<text text-anchor="middle" x="230" y="-54.3" font-family="Times,serif" font-size="14.00">e</text>
<polyline fill="none" stroke="black" points="172.5,-46.5 241.5,-46.5 "/>
<text text-anchor="middle" x="207" y="-31.3" font-family="Times,serif" font-size="14.00">f</text>
<polyline fill="none" stroke="black" points="241.5,-23.5 241.5,-92.5 "/>
<text text-anchor="middle" x="253" y="-54.3" font-family="Times,serif" font-size="14.00">g</text>
<polyline fill="none" stroke="black" points="264.5,-23.5 264.5,-92.5 "/>
<text text-anchor="middle" x="276" y="-54.3" font-family="Times,serif" font-size="14.00">h</text>
</g>
<!-- struct1&#45;&gt;struct3 -->
<g id="edge2" class="edge"><title>struct1:f2&#45;&gt;struct3:here</title>
<path fill="none" stroke="grey" d="M152,-129C152,-116.94 172.081,-93.5316 187.976,-76.8922"/>
<polygon fill="grey" stroke="grey" points="190.859,-78.9492 195.336,-69.3469 185.848,-74.0614 190.859,-78.9492"/>
</g>
</g>
</svg>
