<?xml version="1.0" encoding="UTF-8" standalone="no"?>
<!DOCTYPE svg PUBLIC "-//W3C//DTD SVG 1.1//EN"
 "http://www.w3.org/Graphics/SVG/1.1/DTD/svg11.dtd">
<!-- Generated by graphviz version 2.30.1 (20130611.0131)
 -->
<!-- Title: Perl Pages: 1 -->
<svg width="414pt" height="79pt"
 viewBox="0.00 0.00 414.00 79.00" xmlns="http://www.w3.org/2000/svg" xmlns:xlink="http://www.w3.org/1999/xlink">
<g id="graph0" class="graph" transform="scale(1 1) rotate(0) translate(4 75)">
<title>Perl</title>
<polygon fill="white" stroke="white" points="-4,5 -4,-75 411,-75 411,5 -4,5"/>
<text text-anchor="middle" x="203" y="-7.8" font-family="Times,serif" font-size="14.00">Record demo 4 &#45; Set record shapes in various ways</text>
<!-- One -->
<g id="node1" class="node"><title>One</title>
<path fill="none" stroke="magenta" d="M12,-29C12,-29 42,-29 42,-29 48,-29 54,-35 54,-41 54,-41 54,-53 54,-53 54,-59 48,-65 42,-65 42,-65 12,-65 12,-65 6,-65 0,-59 0,-53 0,-53 0,-41 0,-41 0,-35 6,-29 12,-29"/>
<text text-anchor="middle" x="27" y="-43.3" font-family="Times,serif" font-size="14.00"> </text>
</g>
<!-- Two -->
<g id="node2" class="node"><title>Two</title>
<path fill="none" stroke="magenta" d="M84,-29C84,-29 146,-29 146,-29 152,-29 158,-35 158,-41 158,-41 158,-53 158,-53 158,-59 152,-65 146,-65 146,-65 84,-65 84,-65 78,-65 72,-59 72,-53 72,-53 72,-41 72,-41 72,-35 78,-29 84,-29"/>
<text text-anchor="middle" x="91.5" y="-43.3" font-family="Times,serif" font-size="14.00">Left</text>
<polyline fill="none" stroke="magenta" points="111,-29 111,-65 "/>
<text text-anchor="middle" x="134.5" y="-43.3" font-family="Times,serif" font-size="14.00">Right</text>
</g>
<!-- Three -->
<g id="node3" class="node"><title>Three</title>
<polygon fill="none" stroke="black" points="176.5,-29 176.5,-65 261.5,-65 261.5,-29 176.5,-29"/>
<text text-anchor="middle" x="200" y="-43.3" font-family="Times,serif" font-size="14.00">Good</text>
<polyline fill="none" stroke="black" points="223.5,-29 223.5,-65 "/>
<text text-anchor="middle" x="242.5" y="-43.3" font-family="Times,serif" font-size="14.00">Bad</text>
</g>
<!-- Four -->
<g id="node4" class="node"><title>Four</title>
<path fill="none" stroke="magenta" d="M292,-24C292,-24 322,-24 322,-24 328,-24 334,-30 334,-36 334,-36 334,-58 334,-58 334,-64 328,-70 322,-70 322,-70 292,-70 292,-70 286,-70 280,-64 280,-58 280,-58 280,-36 280,-36 280,-30 286,-24 292,-24"/>
<text text-anchor="middle" x="307" y="-54.8" font-family="Times,serif" font-size="14.00">Big</text>
<polyline fill="none" stroke="magenta" points="280,-47 334,-47 "/>
<text text-anchor="middle" x="307" y="-31.8" font-family="Times,serif" font-size="14.00">Small</text>
</g>
<!-- Five -->
<g id="node5" class="node"><title>Five</title>
<polygon fill="none" stroke="magenta" points="352,-24 352,-70 406,-70 406,-24 352,-24"/>
<text text-anchor="middle" x="379" y="-54.8" font-family="Times,serif" font-size="14.00">Yin</text>
<polyline fill="none" stroke="magenta" points="352,-47 406,-47 "/>
<text text-anchor="middle" x="379" y="-31.8" font-family="Times,serif" font-size="14.00">Yang</text>
</g>
</g>
</svg>
