<?xml version="1.0" encoding="UTF-8" standalone="no"?>
<!DOCTYPE svg PUBLIC "-//W3C//DTD SVG 1.1//EN"
 "http://www.w3.org/Graphics/SVG/1.1/DTD/svg11.dtd">
<!-- Generated by graphviz version 2.30.1 (20130611.0131)
 -->
<!-- Title: Perl Pages: 1 -->
<svg width="539pt" height="403pt"
 viewBox="0.00 0.00 538.50 402.64" xmlns="http://www.w3.org/2000/svg" xmlns:xlink="http://www.w3.org/1999/xlink">
<g id="graph0" class="graph" transform="scale(1 1) rotate(0) translate(4 398.644)">
<title>Perl</title>
<polygon fill="white" stroke="white" points="-4,5 -4,-398.644 535.5,-398.644 535.5,5 -4,5"/>
<text text-anchor="middle" x="265.25" y="-7.8" font-family="Times,serif" font-size="14.00">Record demo 3 &#45; Deeply nested records using strings as labels</text>
<!-- Alphabet -->
<g id="node1" class="node"><title>Alphabet</title>
<polygon fill="none" stroke="black" points="18,-59.4026 18,-358.403 477,-358.403 477,-59.4026 18,-59.4026"/>
<text text-anchor="middle" x="45.5" y="-205.203" font-family="Times,serif" font-size="14.00">p_a@a</text>
<polyline fill="none" stroke="black" points="73,-59.4026 73,-358.403 "/>
<text text-anchor="middle" x="263.5" y="-343.203" font-family="Times,serif" font-size="14.00">p_b@b</text>
<polyline fill="none" stroke="black" points="73,-335.403 454,-335.403 "/>
<text text-anchor="middle" x="263.5" y="-320.203" font-family="Times,serif" font-size="14.00">c</text>
<polyline fill="none" stroke="black" points="73,-312.403 454,-312.403 "/>
<text text-anchor="middle" x="101" y="-205.203" font-family="Times,serif" font-size="14.00">p_d@d</text>
<polyline fill="none" stroke="black" points="129,-105.403 129,-312.403 "/>
<text text-anchor="middle" x="140.5" y="-205.203" font-family="Times,serif" font-size="14.00">e</text>
<polyline fill="none" stroke="black" points="152,-105.403 152,-312.403 "/>
<text text-anchor="middle" x="162.5" y="-205.203" font-family="Times,serif" font-size="14.00">f</text>
<polyline fill="none" stroke="black" points="173,-105.403 173,-312.403 "/>
<text text-anchor="middle" x="259.5" y="-297.203" font-family="Times,serif" font-size="14.00">g</text>
<polyline fill="none" stroke="black" points="173,-289.403 346,-289.403 "/>
<text text-anchor="middle" x="259.5" y="-274.203" font-family="Times,serif" font-size="14.00">p_h@h</text>
<polyline fill="none" stroke="black" points="173,-266.403 346,-266.403 "/>
<text text-anchor="middle" x="259.5" y="-251.203" font-family="Times,serif" font-size="14.00">i</text>
<polyline fill="none" stroke="black" points="173,-243.403 346,-243.403 "/>
<text text-anchor="middle" x="259.5" y="-228.203" font-family="Times,serif" font-size="14.00">j</text>
<polyline fill="none" stroke="black" points="173,-220.403 346,-220.403 "/>
<text text-anchor="middle" x="184.5" y="-205.203" font-family="Times,serif" font-size="14.00">k</text>
<polyline fill="none" stroke="black" points="196,-197.403 196,-220.403 "/>
<text text-anchor="middle" x="206" y="-205.203" font-family="Times,serif" font-size="14.00">l</text>
<polyline fill="none" stroke="black" points="216,-197.403 216,-220.403 "/>
<text text-anchor="middle" x="230" y="-205.203" font-family="Times,serif" font-size="14.00">m</text>
<polyline fill="none" stroke="black" points="244,-197.403 244,-220.403 "/>
<text text-anchor="middle" x="272" y="-205.203" font-family="Times,serif" font-size="14.00">p_n@n</text>
<polyline fill="none" stroke="black" points="300,-197.403 300,-220.403 "/>
<text text-anchor="middle" x="311.5" y="-205.203" font-family="Times,serif" font-size="14.00">o</text>
<polyline fill="none" stroke="black" points="323,-197.403 323,-220.403 "/>
<text text-anchor="middle" x="334.5" y="-205.203" font-family="Times,serif" font-size="14.00">p</text>
<polyline fill="none" stroke="black" points="173,-197.403 346,-197.403 "/>
<text text-anchor="middle" x="259.5" y="-182.203" font-family="Times,serif" font-size="14.00">q</text>
<polyline fill="none" stroke="black" points="173,-174.403 346,-174.403 "/>
<text text-anchor="middle" x="259.5" y="-159.203" font-family="Times,serif" font-size="14.00">r</text>
<polyline fill="none" stroke="black" points="173,-151.403 346,-151.403 "/>
<text text-anchor="middle" x="259.5" y="-136.203" font-family="Times,serif" font-size="14.00">p_s@s</text>
<polyline fill="none" stroke="black" points="173,-128.403 346,-128.403 "/>
<text text-anchor="middle" x="259.5" y="-113.203" font-family="Times,serif" font-size="14.00">t</text>
<polyline fill="none" stroke="black" points="346,-105.403 346,-312.403 "/>
<text text-anchor="middle" x="357.5" y="-205.203" font-family="Times,serif" font-size="14.00">u</text>
<polyline fill="none" stroke="black" points="369,-105.403 369,-312.403 "/>
<text text-anchor="middle" x="380.5" y="-205.203" font-family="Times,serif" font-size="14.00">v</text>
<polyline fill="none" stroke="black" points="392,-105.403 392,-312.403 "/>
<text text-anchor="middle" x="423" y="-205.203" font-family="Times,serif" font-size="14.00">p_w@w</text>
<polyline fill="none" stroke="black" points="73,-105.403 454,-105.403 "/>
<text text-anchor="middle" x="263.5" y="-90.2026" font-family="Times,serif" font-size="14.00">x</text>
<polyline fill="none" stroke="black" points="73,-82.4026 454,-82.4026 "/>
<text text-anchor="middle" x="263.5" y="-67.2026" font-family="Times,serif" font-size="14.00">p_y@y</text>
<polyline fill="none" stroke="black" points="454,-59.4026 454,-358.403 "/>
<text text-anchor="middle" x="465.5" y="-205.203" font-family="Times,serif" font-size="14.00">z</text>
</g>
<!-- Alphabet&#45;&gt;Alphabet -->
<g id="edge1" class="edge"><title>Alphabet:p_a&#45;&gt;Alphabet:p_n</title>
<path fill="none" stroke="maroon" d="M17.9571,-259.931C5.10663,-274.838 0,-257.828 0,-208.903 0,-140.22 159.341,-134.435 249.543,-191.547"/>
<polygon fill="maroon" stroke="maroon" points="247.798,-194.592 258.049,-197.271 251.706,-188.784 247.798,-194.592"/>
</g>
<!-- Alphabet&#45;&gt;Alphabet -->
<g id="edge2" class="edge"><title>Alphabet:p_b&#45;&gt;Alphabet:p_s</title>
<path fill="none" stroke="blue" d="M277.568,-358.517C361.649,-421.369 494.5,-412.141 494.5,-243.403 494.5,-80.1022 366.726,-66.1969 281.925,-122.439"/>
<polygon fill="blue" stroke="blue" points="279.771,-119.674 273.602,-128.288 283.796,-125.401 279.771,-119.674"/>
</g>
<!-- Alphabet&#45;&gt;Alphabet -->
<g id="edge3" class="edge"><title>Alphabet:p_d&#45;&gt;Alphabet:p_w</title>
<path fill="none" stroke="red" d="M129.257,-228.019C238.532,-283.243 494.5,-276.871 494.5,-208.903 494.5,-153.941 488.056,-139.257 461.393,-164.849"/>
<polygon fill="red" stroke="red" points="458.667,-162.63 454.171,-172.223 463.668,-167.528 458.667,-162.63"/>
</g>
<!-- Alphabet&#45;&gt;Alphabet -->
<g id="edge4" class="edge"><title>Alphabet:p_h&#45;&gt;Alphabet:p_y</title>
<path fill="none" stroke="green" d="M273.602,-289.517C358.075,-352.369 494.5,-343.141 494.5,-174.403 494.5,-11.1022 370.074,2.80312 285.843,-53.4388"/>
<polygon fill="green" stroke="green" points="283.714,-50.6576 277.568,-59.2878 287.754,-56.3738 283.714,-50.6576"/>
</g>
</g>
</svg>
