<?xml version="1.0" encoding="UTF-8" standalone="no"?>
<!DOCTYPE svg PUBLIC "-//W3C//DTD SVG 1.1//EN"
 "http://www.w3.org/Graphics/SVG/1.1/DTD/svg11.dtd">
<!-- Generated by graphviz version 2.37.20140310.0445 (20140310.0445)
 -->
<!-- Title: Perl Pages: 1 -->
<svg width="325pt" height="175pt"
 viewBox="0.00 0.00 325.00 175.00" xmlns="http://www.w3.org/2000/svg" xmlns:xlink="http://www.w3.org/1999/xlink">
<g id="graph0" class="graph" transform="scale(1 1) rotate(0) translate(4 171)">
<title>Perl</title>
<polygon fill="white" stroke="none" points="-4,4 -4,-171 321,-171 321,4 -4,4"/>
<text text-anchor="middle" x="158.5" y="-7.8" font-family="Times,serif" font-size="14.00">Record demo 1 &#45; Nested records using strings as labels</text>
<!-- struct1 -->
<g id="node1" class="node"><title>struct1</title>
<polygon fill="none" stroke="black" points="37,-130 37,-166 173,-166 173,-130 37,-130"/>
<text text-anchor="middle" x="54.5" y="-144.3" font-family="Times,serif" font-size="14.00">left</text>
<polyline fill="none" stroke="black" points="72,-130 72,-166 "/>
<text text-anchor="middle" x="101.5" y="-144.3" font-family="Times,serif" font-size="14.00">mid dle</text>
<polyline fill="none" stroke="black" points="131,-130 131,-166 "/>
<text text-anchor="middle" x="152" y="-144.3" font-family="Times,serif" font-size="14.00">right</text>
</g>
<!-- struct2 -->
<g id="node2" class="node"><title>struct2</title>
<polygon fill="none" stroke="black" points="31.5,-40 31.5,-76 104.5,-76 104.5,-40 31.5,-40"/>
<text text-anchor="middle" x="49.5" y="-54.3" font-family="Times,serif" font-size="14.00">one</text>
<polyline fill="none" stroke="black" points="67.5,-40 67.5,-76 "/>
<text text-anchor="middle" x="86" y="-54.3" font-family="Times,serif" font-size="14.00">two</text>
</g>
<!-- struct1&#45;&gt;struct2 -->
<g id="edge1" class="edge"><title>struct1:f1&#45;&gt;struct2:f0</title>
<path fill="none" stroke="blue" d="M101,-129C101,-100.274 60.8312,-107.122 51.1029,-87.0112"/>
<polygon fill="blue" stroke="blue" points="54.481,-86.0669 49,-77 47.6305,-87.5059 54.481,-86.0669"/>
</g>
<!-- struct3 -->
<g id="node3" class="node"><title>struct3</title>
<polygon fill="none" stroke="black" points="122.5,-23.5 122.5,-92.5 285.5,-92.5 285.5,-23.5 122.5,-23.5"/>
<text text-anchor="middle" x="146.5" y="-61.8" font-family="Times,serif" font-size="14.00">hello</text>
<text text-anchor="middle" x="146.5" y="-46.8" font-family="Times,serif" font-size="14.00">world</text>
<polyline fill="none" stroke="black" points="170.5,-23.5 170.5,-92.5 "/>
<text text-anchor="middle" x="205" y="-77.3" font-family="Times,serif" font-size="14.00">b</text>
<polyline fill="none" stroke="black" points="170.5,-69.5 239.5,-69.5 "/>
<text text-anchor="middle" x="182" y="-54.3" font-family="Times,serif" font-size="14.00">c</text>
<polyline fill="none" stroke="black" points="193.5,-46.5 193.5,-69.5 "/>
<text text-anchor="middle" x="205" y="-54.3" font-family="Times,serif" font-size="14.00">d</text>
<polyline fill="none" stroke="black" points="216.5,-46.5 216.5,-69.5 "/>
<text text-anchor="middle" x="228" y="-54.3" font-family="Times,serif" font-size="14.00">e</text>
<polyline fill="none" stroke="black" points="170.5,-46.5 239.5,-46.5 "/>
<text text-anchor="middle" x="205" y="-31.3" font-family="Times,serif" font-size="14.00">f</text>
<polyline fill="none" stroke="black" points="239.5,-23.5 239.5,-92.5 "/>
<text text-anchor="middle" x="251" y="-54.3" font-family="Times,serif" font-size="14.00">g</text>
<polyline fill="none" stroke="black" points="262.5,-23.5 262.5,-92.5 "/>
<text text-anchor="middle" x="274" y="-54.3" font-family="Times,serif" font-size="14.00">h</text>
</g>
<!-- struct1&#45;&gt;struct3 -->
<g id="edge2" class="edge"><title>struct1:f2&#45;&gt;struct3:here</title>
<path fill="none" stroke="red" d="M152,-129C152,-117.169 171.137,-93.9204 186.412,-77.2474"/>
<polygon fill="red" stroke="red" points="189.225,-79.3637 193.5,-69.6695 184.113,-74.5819 189.225,-79.3637"/>
</g>
</g>
</svg>
