<?xml version="1.0" encoding="UTF-8" standalone="no"?>
<!DOCTYPE svg PUBLIC "-//W3C//DTD SVG 1.1//EN"
 "http://www.w3.org/Graphics/SVG/1.1/DTD/svg11.dtd">
<!-- Generated by graphviz version 2.38.0 (20140413.2041)
 -->
<!-- Title: Perl Pages: 1 -->
<svg width="412pt" height="174pt"
 viewBox="0.00 0.00 412.00 174.00" xmlns="http://www.w3.org/2000/svg" xmlns:xlink="http://www.w3.org/1999/xlink">
<g id="graph0" class="graph" transform="scale(1 1) rotate(0) translate(4 170)">
<title>Perl</title>
<polygon fill="white" stroke="none" points="-4,4 -4,-170 408,-170 408,4 -4,4"/>
<text text-anchor="middle" x="202" y="-7.8" font-family="Times,serif" font-size="14.00">Record demo 2 &#45; Nested records using an arrayref of hashrefs as labels</text>
<!-- struct1 -->
<g id="node1" class="node"><title>struct1</title>
<polygon fill="none" stroke="black" points="80.5,-129.5 80.5,-165.5 216.5,-165.5 216.5,-129.5 80.5,-129.5"/>
<text text-anchor="middle" x="98" y="-143.8" font-family="Times,serif" font-size="14.00">left</text>
<polyline fill="none" stroke="black" points="115.5,-129.5 115.5,-165.5 "/>
<text text-anchor="middle" x="145" y="-143.8" font-family="Times,serif" font-size="14.00">mid dle</text>
<polyline fill="none" stroke="black" points="174.5,-129.5 174.5,-165.5 "/>
<text text-anchor="middle" x="195.5" y="-143.8" font-family="Times,serif" font-size="14.00">right</text>
</g>
<!-- struct2 -->
<g id="node2" class="node"><title>struct2</title>
<polygon fill="none" stroke="black" points="75,-40 75,-76 148,-76 148,-40 75,-40"/>
<text text-anchor="middle" x="93" y="-54.3" font-family="Times,serif" font-size="14.00">one</text>
<polyline fill="none" stroke="black" points="111,-40 111,-76 "/>
<text text-anchor="middle" x="129.5" y="-54.3" font-family="Times,serif" font-size="14.00">two</text>
</g>
<!-- struct1&#45;&gt;struct2 -->
<g id="edge1" class="edge"><title>struct1:f1&#45;&gt;struct2:f0</title>
<path fill="none" stroke="blue" d="M144.5,-129C144.5,-100.274 104.331,-107.122 94.6029,-87.0112"/>
<polygon fill="blue" stroke="blue" points="97.981,-86.0669 92.5,-77 91.1305,-87.5059 97.981,-86.0669"/>
</g>
<!-- struct3 -->
<g id="node3" class="node"><title>struct3</title>
<path fill="none" stroke="black" d="M178,-23.5C178,-23.5 317,-23.5 317,-23.5 323,-23.5 329,-29.5 329,-35.5 329,-35.5 329,-80.5 329,-80.5 329,-86.5 323,-92.5 317,-92.5 317,-92.5 178,-92.5 178,-92.5 172,-92.5 166,-86.5 166,-80.5 166,-80.5 166,-35.5 166,-35.5 166,-29.5 172,-23.5 178,-23.5"/>
<text text-anchor="middle" x="190" y="-61.8" font-family="Times,serif" font-size="14.00">hello</text>
<text text-anchor="middle" x="190" y="-46.8" font-family="Times,serif" font-size="14.00">world</text>
<polyline fill="none" stroke="black" points="214,-23.5 214,-92.5 "/>
<text text-anchor="middle" x="248.5" y="-77.3" font-family="Times,serif" font-size="14.00">b</text>
<polyline fill="none" stroke="black" points="214,-69.5 283,-69.5 "/>
<text text-anchor="middle" x="225.5" y="-54.3" font-family="Times,serif" font-size="14.00">c</text>
<polyline fill="none" stroke="black" points="237,-46.5 237,-69.5 "/>
<text text-anchor="middle" x="248.5" y="-54.3" font-family="Times,serif" font-size="14.00">d</text>
<polyline fill="none" stroke="black" points="260,-46.5 260,-69.5 "/>
<text text-anchor="middle" x="271.5" y="-54.3" font-family="Times,serif" font-size="14.00">e</text>
<polyline fill="none" stroke="black" points="214,-46.5 283,-46.5 "/>
<text text-anchor="middle" x="248.5" y="-31.3" font-family="Times,serif" font-size="14.00">f</text>
<polyline fill="none" stroke="black" points="283,-23.5 283,-92.5 "/>
<text text-anchor="middle" x="294.5" y="-54.3" font-family="Times,serif" font-size="14.00">g</text>
<polyline fill="none" stroke="black" points="306,-23.5 306,-92.5 "/>
<text text-anchor="middle" x="317.5" y="-54.3" font-family="Times,serif" font-size="14.00">h</text>
</g>
<!-- struct1&#45;&gt;struct3 -->
<g id="edge2" class="edge"><title>struct1:f2&#45;&gt;struct3:here</title>
<path fill="none" stroke="red" d="M195.5,-129C195.5,-117.169 214.637,-93.9204 229.912,-77.2474"/>
<polygon fill="red" stroke="red" points="232.725,-79.3637 237,-69.6695 227.613,-74.5819 232.725,-79.3637"/>
</g>
</g>
</svg>
