<?xml version="1.0" encoding="UTF-8" standalone="no"?>
<!DOCTYPE svg PUBLIC "-//W3C//DTD SVG 1.1//EN"
 "http://www.w3.org/Graphics/SVG/1.1/DTD/svg11.dtd">
<!-- Generated by graphviz version 2.30.1 (20130611.0131)
 -->
<!-- Title: G Pages: 1 -->
<svg width="460pt" height="272pt"
 viewBox="0.00 0.00 460.00 272.00" xmlns="http://www.w3.org/2000/svg" xmlns:xlink="http://www.w3.org/1999/xlink">
<g id="graph0" class="graph" transform="scale(1 1) rotate(0) translate(4 268)">
<title>G</title>
<polygon fill="white" stroke="white" points="-4,5 -4,-268 457,-268 457,5 -4,5"/>
<!-- a -->
<g id="node1" class="node"><title>a</title>
<polygon fill="yellow" stroke="none" points="8,-34 8,-69 42,-69 42,-34 8,-34"/>
<polygon fill="none" stroke="black" points="8,-34 8,-69 42,-69 42,-34 8,-34"/>
<text text-anchor="start" x="11.5" y="-48.3" font-family="Times,serif" font-size="14.00">class</text>
<polygon fill="lightblue" stroke="none" points="42,-38 42,-61 94,-61 94,-38 42,-38"/>
<polygon fill="none" stroke="black" points="42,-38 42,-61 94,-61 94,-38 42,-38"/>
<text text-anchor="start" x="45" y="-46.3" font-family="Times,serif" font-size="14.00">qualifier</text>
</g>
<!-- b -->
<g id="node2" class="node"><title>b</title>
<ellipse fill="lightgrey" stroke="black" cx="346" cy="-81" rx="106.132" ry="81.135"/>
<polygon fill="bisque" stroke="none" points="279,-27.5 279,-134.5 413,-134.5 413,-27.5 279,-27.5"/>
<polygon fill="none" stroke="black" points="282,-110 282,-131 381,-131 381,-110 282,-110"/>
<text text-anchor="start" x="308.5" y="-117.3" font-family="Times,serif" font-size="14.00">elephant</text>
<polygon fill="chartreuse" stroke="none" points="383,-70 383,-131 410,-131 410,-70 383,-70"/>
<polygon fill="none" stroke="black" points="383,-70 383,-131 410,-131 410,-70 383,-70"/>
<text text-anchor="start" x="386" y="-76.8" font-family="Times,serif" font-size="14.00">two</text>
<polygon fill="none" stroke="black" points="282,-30 282,-108 329,-108 329,-30 282,-30"/>
<polygon fill="grey" stroke="none" points="285,-33 285,-105 326,-105 326,-33 285,-33"/>
<polygon fill="none" stroke="black" points="288,-81 288,-102 323,-102 323,-81 288,-81"/>
<text text-anchor="start" x="293" y="-88.3" font-family="Times,serif" font-size="14.00">corn</text>
<polygon fill="yellow" stroke="none" points="288,-58 288,-79 323,-79 323,-58 288,-58"/>
<polygon fill="none" stroke="black" points="288,-58 288,-79 323,-79 323,-58 288,-58"/>
<text text-anchor="start" x="302" y="-65.3" font-family="Times,serif" font-size="14.00">c</text>
<polygon fill="none" stroke="black" points="288,-36 288,-56 323,-56 323,-36 288,-36"/>
<text text-anchor="start" x="303" y="-42.8" font-family="Times,serif" font-size="14.00">f</text>
<polygon fill="none" stroke="black" points="285,-33 285,-105 326,-105 326,-33 285,-33"/>
<polygon fill="white" stroke="none" points="331,-70 331,-108 381,-108 381,-70 331,-70"/>
<polygon fill="none" stroke="black" points="331,-70 331,-108 381,-108 381,-70 331,-70"/>
<text text-anchor="start" x="334" y="-85.8" font-family="Times,serif" font-size="14.00">penguin</text>
<polygon fill="none" stroke="black" stroke-width="4" points="333,-32 333,-66 408,-66 408,-32 333,-32"/>
<text text-anchor="start" x="397" y="-45.8" font-family="Times,serif" font-size="14.00">4</text>
<polygon fill="none" stroke="black" points="279,-27.5 279,-134.5 413,-134.5 413,-27.5 279,-27.5"/>
</g>
<!-- a&#45;&gt;b -->
<g id="edge1" class="edge"><title>a:here&#45;&gt;b:there</title>
<path fill="none" stroke="black" d="M107.312,-48.2058C176.009,-40.4897 346.266,20.0163 368.575,-19.0886"/>
<polygon fill="black" stroke="black" points="106.975,-48.2274 101.245,-52.6054 95,-49 100.73,-44.622 106.975,-48.2274"/>
<polygon fill="black" stroke="black" points="365.223,-20.1184 371,-29 372.023,-18.4547 365.223,-20.1184"/>
</g>
<!-- c -->
<g id="node3" class="node"><title>c</title>
<text text-anchor="start" x="316.5" y="-234.3" font-family="Times,serif" font-size="14.00">long line 1</text>
<text text-anchor="start" x="316" y="-220.3" font-family="Times,serif" font-size="14.00">line 2</text>
<text text-anchor="start" x="345" y="-206.3" font-family="Times,serif" font-size="14.00">line 3</text>
</g>
<!-- c&#45;&gt;b -->
<g id="edge2" class="edge"><title>c&#45;&gt;b</title>
<path fill="none" stroke="black" d="M346,-197.376C346,-189.055 346,-180.733 346,-172.412"/>
<polygon fill="black" stroke="black" points="349.5,-172.262 346,-162.262 342.5,-172.262 349.5,-172.262"/>
</g>
<!-- d -->
<g id="node4" class="node"><title>d</title>
<polygon fill="none" stroke="black" points="51,-246 21.205,-211.5 80.795,-211.5 51,-246"/>
<text text-anchor="middle" x="51" y="-219.3" font-family="Times,serif" font-size="14.00">d</text>
</g>
<!-- d&#45;&gt;c -->
<g id="edge3" class="edge"><title>d&#45;&gt;c</title>
<path fill="none" stroke="black" d="M71.2245,-223C116.784,-223 232.4,-223 297.886,-223"/>
<polygon fill="black" stroke="black" points="297.947,-226.5 307.947,-223 297.947,-219.5 297.947,-226.5"/>
<polygon fill="red" stroke="none" points="124,-225.5 124,-260.5 135,-260.5 135,-225.5 124,-225.5"/>
<polygon fill="none" stroke="black" points="124,-225.5 124,-260.5 135,-260.5 135,-225.5 124,-225.5"/>
<text text-anchor="start" x="127.5" y="-239.8" font-family="Times,serif" font-size="14.00"> </text>
<polygon fill="none" stroke="black" points="137,-225.5 137,-260.5 207,-260.5 207,-225.5 137,-225.5"/>
<text text-anchor="start" x="140" y="-246.8" font-family="Times,serif" font-size="14.00">Edge labels</text>
<text text-anchor="start" x="161" y="-232.8" font-family="Times,serif" font-size="14.00">also</text>
<polygon fill="blue" stroke="none" points="209,-225.5 209,-260.5 219,-260.5 219,-225.5 209,-225.5"/>
<polygon fill="none" stroke="black" points="209,-225.5 209,-260.5 219,-260.5 219,-225.5 209,-225.5"/>
<text text-anchor="start" x="212" y="-239.8" font-family="Times,serif" font-size="14.00"> </text>
<polygon fill="none" stroke="black" points="120.5,-223 120.5,-264 221.5,-264 221.5,-223 120.5,-223"/>
</g>
</g>
</svg>
