<?xml version="1.0" encoding="UTF-8" standalone="no"?>
<!DOCTYPE svg PUBLIC "-//W3C//DTD SVG 1.1//EN"
 "http://www.w3.org/Graphics/SVG/1.1/DTD/svg11.dtd">
<!-- Generated by graphviz version 2.38.0 (20140413.2041)
 -->
<!-- Title: Perl Pages: 1 -->
<svg width="414pt" height="78pt"
 viewBox="0.00 0.00 414.00 78.00" xmlns="http://www.w3.org/2000/svg" xmlns:xlink="http://www.w3.org/1999/xlink">
<g id="graph0" class="graph" transform="scale(1 1) rotate(0) translate(4 74)">
<title>Perl</title>
<polygon fill="white" stroke="none" points="-4,4 -4,-74 410,-74 410,4 -4,4"/>
<text text-anchor="middle" x="203" y="-7.8" font-family="Times,serif" font-size="14.00">Record demo 4 &#45; Set record shapes in various ways</text>
<!-- One -->
<g id="node1" class="node"><title>One</title>
<path fill="none" stroke="magenta" d="M12,-28.5C12,-28.5 42,-28.5 42,-28.5 48,-28.5 54,-34.5 54,-40.5 54,-40.5 54,-52.5 54,-52.5 54,-58.5 48,-64.5 42,-64.5 42,-64.5 12,-64.5 12,-64.5 6,-64.5 0,-58.5 0,-52.5 0,-52.5 0,-40.5 0,-40.5 0,-34.5 6,-28.5 12,-28.5"/>
<text text-anchor="middle" x="27" y="-42.8" font-family="Times,serif" font-size="14.00"> </text>
</g>
<!-- Two -->
<g id="node2" class="node"><title>Two</title>
<path fill="none" stroke="magenta" d="M84,-28.5C84,-28.5 146,-28.5 146,-28.5 152,-28.5 158,-34.5 158,-40.5 158,-40.5 158,-52.5 158,-52.5 158,-58.5 152,-64.5 146,-64.5 146,-64.5 84,-64.5 84,-64.5 78,-64.5 72,-58.5 72,-52.5 72,-52.5 72,-40.5 72,-40.5 72,-34.5 78,-28.5 84,-28.5"/>
<text text-anchor="middle" x="91.5" y="-42.8" font-family="Times,serif" font-size="14.00">Left</text>
<polyline fill="none" stroke="magenta" points="111,-28.5 111,-64.5 "/>
<text text-anchor="middle" x="134.5" y="-42.8" font-family="Times,serif" font-size="14.00">Right</text>
</g>
<!-- Three -->
<g id="node3" class="node"><title>Three</title>
<polygon fill="none" stroke="black" points="176.5,-28.5 176.5,-64.5 261.5,-64.5 261.5,-28.5 176.5,-28.5"/>
<text text-anchor="middle" x="200" y="-42.8" font-family="Times,serif" font-size="14.00">Good</text>
<polyline fill="none" stroke="black" points="223.5,-28.5 223.5,-64.5 "/>
<text text-anchor="middle" x="242.5" y="-42.8" font-family="Times,serif" font-size="14.00">Bad</text>
</g>
<!-- Four -->
<g id="node4" class="node"><title>Four</title>
<path fill="none" stroke="magenta" d="M292,-23.5C292,-23.5 322,-23.5 322,-23.5 328,-23.5 334,-29.5 334,-35.5 334,-35.5 334,-57.5 334,-57.5 334,-63.5 328,-69.5 322,-69.5 322,-69.5 292,-69.5 292,-69.5 286,-69.5 280,-63.5 280,-57.5 280,-57.5 280,-35.5 280,-35.5 280,-29.5 286,-23.5 292,-23.5"/>
<text text-anchor="middle" x="307" y="-54.3" font-family="Times,serif" font-size="14.00">Big</text>
<polyline fill="none" stroke="magenta" points="280,-46.5 334,-46.5 "/>
<text text-anchor="middle" x="307" y="-31.3" font-family="Times,serif" font-size="14.00">Small</text>
</g>
<!-- Five -->
<g id="node5" class="node"><title>Five</title>
<polygon fill="none" stroke="magenta" points="352,-23.5 352,-69.5 406,-69.5 406,-23.5 352,-23.5"/>
<text text-anchor="middle" x="379" y="-54.3" font-family="Times,serif" font-size="14.00">Yin</text>
<polyline fill="none" stroke="magenta" points="352,-46.5 406,-46.5 "/>
<text text-anchor="middle" x="379" y="-31.3" font-family="Times,serif" font-size="14.00">Yang</text>
</g>
</g>
</svg>
