<?xml version="1.0" encoding="UTF-8" standalone="no"?>
<!DOCTYPE svg PUBLIC "-//W3C//DTD SVG 1.1//EN"
 "http://www.w3.org/Graphics/SVG/1.1/DTD/svg11.dtd">
<!-- Generated by graphviz version 2.30.1 (20130611.0131)
 -->
<!-- Title: Perl Pages: 1 -->
<svg width="679pt" height="145pt"
 viewBox="0.00 0.00 679.00 145.00" xmlns="http://www.w3.org/2000/svg" xmlns:xlink="http://www.w3.org/1999/xlink">
<g id="graph0" class="graph" transform="scale(1 1) rotate(0) translate(4 141)">
<title>Perl</title>
<polygon fill="white" stroke="white" points="-4,5 -4,-141 676,-141 676,5 -4,5"/>
<text text-anchor="middle" x="335.5" y="-7.8" font-family="Times,serif" font-size="14.00">Record demo 1 &#45; Nested records using strings as labels</text>
<!-- struct1 -->
<g id="node1" class="node"><title>struct1</title>
<polygon fill="none" stroke="black" points="0,-99 0,-135 136,-135 136,-99 0,-99"/>
<text text-anchor="middle" x="17.5" y="-113.3" font-family="Times,serif" font-size="14.00">left</text>
<polyline fill="none" stroke="black" points="35,-99 35,-135 "/>
<text text-anchor="middle" x="64.5" y="-113.3" font-family="Times,serif" font-size="14.00">mid dle</text>
<polyline fill="none" stroke="black" points="94,-99 94,-135 "/>
<text text-anchor="middle" x="115" y="-113.3" font-family="Times,serif" font-size="14.00">right</text>
</g>
<!-- struct2 -->
<g id="node2" class="node"><title>struct2</title>
<polygon fill="none" stroke="black" points="154.5,-99 154.5,-135 227.5,-135 227.5,-99 154.5,-99"/>
<text text-anchor="middle" x="172.5" y="-113.3" font-family="Times,serif" font-size="14.00">one</text>
<polyline fill="none" stroke="black" points="190.5,-99 190.5,-135 "/>
<text text-anchor="middle" x="209" y="-113.3" font-family="Times,serif" font-size="14.00">two</text>
</g>
<!-- struct3 -->
<g id="node3" class="node"><title>struct3</title>
<polygon fill="none" stroke="black" points="245.5,-98 245.5,-136 486.5,-136 486.5,-98 245.5,-98"/>
<text text-anchor="middle" x="271.5" y="-120.8" font-family="Times,serif" font-size="14.00">Hello</text>
<text text-anchor="middle" x="271.5" y="-105.8" font-family="Times,serif" font-size="14.00">World</text>
<polyline fill="none" stroke="black" points="297.5,-98 297.5,-136 "/>
<text text-anchor="middle" x="314.5" y="-113.3" font-family="Times,serif" font-size="14.00">{ b</text>
<polyline fill="none" stroke="black" points="331.5,-98 331.5,-136 "/>
<text text-anchor="middle" x="346" y="-113.3" font-family="Times,serif" font-size="14.00">{c</text>
<polyline fill="none" stroke="black" points="360.5,-98 360.5,-136 "/>
<text text-anchor="middle" x="372" y="-113.3" font-family="Times,serif" font-size="14.00">d</text>
<polyline fill="none" stroke="black" points="383.5,-98 383.5,-136 "/>
<text text-anchor="middle" x="398" y="-113.3" font-family="Times,serif" font-size="14.00">e}</text>
<polyline fill="none" stroke="black" points="412.5,-98 412.5,-136 "/>
<text text-anchor="middle" x="426.5" y="-113.3" font-family="Times,serif" font-size="14.00">f}</text>
<polyline fill="none" stroke="black" points="440.5,-98 440.5,-136 "/>
<text text-anchor="middle" x="452" y="-113.3" font-family="Times,serif" font-size="14.00">g</text>
<polyline fill="none" stroke="black" points="463.5,-98 463.5,-136 "/>
<text text-anchor="middle" x="475" y="-113.3" font-family="Times,serif" font-size="14.00">h</text>
</g>
<!-- struct1:f1 -->
<g id="node4" class="node"><title>struct1:f1</title>
<polygon fill="none" stroke="black" points="505,-99 505,-135 573,-135 573,-99 505,-99"/>
<text text-anchor="middle" x="539" y="-113.3" font-family="Times,serif" font-size="14.00">struct1:f1</text>
</g>
<!-- struct2:f0 -->
<g id="node5" class="node"><title>struct2:f0</title>
<polygon fill="none" stroke="black" points="505,-24 505,-60 573,-60 573,-24 505,-24"/>
<text text-anchor="middle" x="539" y="-38.3" font-family="Times,serif" font-size="14.00">struct2:f0</text>
</g>
<!-- struct1:f1&#45;&gt;struct2:f0 -->
<g id="edge1" class="edge"><title>struct1:f1&#45;&gt;struct2:f0</title>
<path fill="none" stroke="grey" d="M539,-98.7C539,-90.2452 539,-79.8688 539,-70.3732"/>
<polygon fill="grey" stroke="grey" points="542.5,-70.1758 539,-60.1758 535.5,-70.1758 542.5,-70.1758"/>
</g>
<!-- struct1:f2 -->
<g id="node6" class="node"><title>struct1:f2</title>
<polygon fill="none" stroke="black" points="597,-99 597,-135 665,-135 665,-99 597,-99"/>
<text text-anchor="middle" x="631" y="-113.3" font-family="Times,serif" font-size="14.00">struct1:f2</text>
</g>
<!-- struct3:here -->
<g id="node7" class="node"><title>struct3:here</title>
<polygon fill="none" stroke="black" points="591,-24 591,-60 671,-60 671,-24 591,-24"/>
<text text-anchor="middle" x="631" y="-38.3" font-family="Times,serif" font-size="14.00">struct3:here</text>
</g>
<!-- struct1:f2&#45;&gt;struct3:here -->
<g id="edge2" class="edge"><title>struct1:f2&#45;&gt;struct3:here</title>
<path fill="none" stroke="grey" d="M631,-98.7C631,-90.2452 631,-79.8688 631,-70.3732"/>
<polygon fill="grey" stroke="grey" points="634.5,-70.1758 631,-60.1758 627.5,-70.1758 634.5,-70.1758"/>
</g>
</g>
</svg>
