<?xml version="1.0" encoding="UTF-8" standalone="no"?>
<!DOCTYPE svg PUBLIC "-//W3C//DTD SVG 1.1//EN"
 "http://www.w3.org/Graphics/SVG/1.1/DTD/svg11.dtd">
<!-- Generated by graphviz version 2.30.1 (20130611.0131)
 -->
<!-- Title: Perl Pages: 1 -->
<svg width="563pt" height="402pt"
 viewBox="0.00 0.00 562.50 402.48" xmlns="http://www.w3.org/2000/svg" xmlns:xlink="http://www.w3.org/1999/xlink">
<g id="graph0" class="graph" transform="scale(1 1) rotate(0) translate(4 398.483)">
<title>Perl</title>
<polygon fill="white" stroke="white" points="-4,5 -4,-398.483 559.5,-398.483 559.5,5 -4,5"/>
<text text-anchor="middle" x="277.25" y="-7.8" font-family="Times,serif" font-size="14.00">Record demo 3 &#45; Deeply nested records using strings as labels</text>
<!-- Alphabet -->
<g id="node1" class="node"><title>Alphabet</title>
<polygon fill="none" stroke="black" points="18,-59.2414 18,-358.241 501,-358.241 501,-59.2414 18,-59.2414"/>
<text text-anchor="middle" x="48.5" y="-205.041" font-family="Times,serif" font-size="14.00">a:port_a</text>
<polyline fill="none" stroke="black" points="79,-59.2414 79,-358.241 "/>
<text text-anchor="middle" x="278.5" y="-343.041" font-family="Times,serif" font-size="14.00">b:port_b</text>
<polyline fill="none" stroke="black" points="79,-335.241 478,-335.241 "/>
<text text-anchor="middle" x="278.5" y="-320.041" font-family="Times,serif" font-size="14.00">c</text>
<polyline fill="none" stroke="black" points="79,-312.241 478,-312.241 "/>
<text text-anchor="middle" x="110" y="-205.041" font-family="Times,serif" font-size="14.00">d:port_d</text>
<polyline fill="none" stroke="black" points="141,-105.241 141,-312.241 "/>
<text text-anchor="middle" x="152.5" y="-205.041" font-family="Times,serif" font-size="14.00">e</text>
<polyline fill="none" stroke="black" points="164,-105.241 164,-312.241 "/>
<text text-anchor="middle" x="174.5" y="-205.041" font-family="Times,serif" font-size="14.00">f</text>
<polyline fill="none" stroke="black" points="185,-105.241 185,-312.241 "/>
<text text-anchor="middle" x="274.5" y="-297.041" font-family="Times,serif" font-size="14.00">g</text>
<polyline fill="none" stroke="black" points="185,-289.241 364,-289.241 "/>
<text text-anchor="middle" x="274.5" y="-274.041" font-family="Times,serif" font-size="14.00">h:port_h</text>
<polyline fill="none" stroke="black" points="185,-266.241 364,-266.241 "/>
<text text-anchor="middle" x="274.5" y="-251.041" font-family="Times,serif" font-size="14.00">i</text>
<polyline fill="none" stroke="black" points="185,-243.241 364,-243.241 "/>
<text text-anchor="middle" x="274.5" y="-228.041" font-family="Times,serif" font-size="14.00">j</text>
<polyline fill="none" stroke="black" points="185,-220.241 364,-220.241 "/>
<text text-anchor="middle" x="196.5" y="-205.041" font-family="Times,serif" font-size="14.00">k</text>
<polyline fill="none" stroke="black" points="208,-197.241 208,-220.241 "/>
<text text-anchor="middle" x="218" y="-205.041" font-family="Times,serif" font-size="14.00">l</text>
<polyline fill="none" stroke="black" points="228,-197.241 228,-220.241 "/>
<text text-anchor="middle" x="242" y="-205.041" font-family="Times,serif" font-size="14.00">m</text>
<polyline fill="none" stroke="black" points="256,-197.241 256,-220.241 "/>
<text text-anchor="middle" x="287" y="-205.041" font-family="Times,serif" font-size="14.00">n:port_n</text>
<polyline fill="none" stroke="black" points="318,-197.241 318,-220.241 "/>
<text text-anchor="middle" x="329.5" y="-205.041" font-family="Times,serif" font-size="14.00">o</text>
<polyline fill="none" stroke="black" points="341,-197.241 341,-220.241 "/>
<text text-anchor="middle" x="352.5" y="-205.041" font-family="Times,serif" font-size="14.00">p</text>
<polyline fill="none" stroke="black" points="185,-197.241 364,-197.241 "/>
<text text-anchor="middle" x="274.5" y="-182.041" font-family="Times,serif" font-size="14.00">q</text>
<polyline fill="none" stroke="black" points="185,-174.241 364,-174.241 "/>
<text text-anchor="middle" x="274.5" y="-159.041" font-family="Times,serif" font-size="14.00">r</text>
<polyline fill="none" stroke="black" points="185,-151.241 364,-151.241 "/>
<text text-anchor="middle" x="274.5" y="-136.041" font-family="Times,serif" font-size="14.00">s:port_s</text>
<polyline fill="none" stroke="black" points="185,-128.241 364,-128.241 "/>
<text text-anchor="middle" x="274.5" y="-113.041" font-family="Times,serif" font-size="14.00">t</text>
<polyline fill="none" stroke="black" points="364,-105.241 364,-312.241 "/>
<text text-anchor="middle" x="375.5" y="-205.041" font-family="Times,serif" font-size="14.00">u</text>
<polyline fill="none" stroke="black" points="387,-105.241 387,-312.241 "/>
<text text-anchor="middle" x="398.5" y="-205.041" font-family="Times,serif" font-size="14.00">v</text>
<polyline fill="none" stroke="black" points="410,-105.241 410,-312.241 "/>
<text text-anchor="middle" x="444" y="-205.041" font-family="Times,serif" font-size="14.00">w:port_w</text>
<polyline fill="none" stroke="black" points="79,-105.241 478,-105.241 "/>
<text text-anchor="middle" x="278.5" y="-90.0414" font-family="Times,serif" font-size="14.00">x</text>
<polyline fill="none" stroke="black" points="79,-82.2414 478,-82.2414 "/>
<text text-anchor="middle" x="278.5" y="-67.0414" font-family="Times,serif" font-size="14.00">y:port_y</text>
<polyline fill="none" stroke="black" points="478,-59.2414 478,-358.241 "/>
<text text-anchor="middle" x="489.5" y="-205.041" font-family="Times,serif" font-size="14.00">z</text>
</g>
<!-- Alphabet&#45;&gt;Alphabet -->
<g id="edge1" class="edge"><title>Alphabet:port_a&#45;&gt;Alphabet:port_n</title>
<path fill="none" stroke="maroon" d="M17.5839,-261.023C4.80542,-273.629 0,-256.202 0,-208.741 0,-139.989 168.906,-134.262 263.681,-191.559"/>
<polygon fill="maroon" stroke="maroon" points="262.026,-194.656 272.333,-197.11 265.806,-188.764 262.026,-194.656"/>
</g>
<!-- Alphabet&#45;&gt;Alphabet -->
<g id="edge2" class="edge"><title>Alphabet:port_b&#45;&gt;Alphabet:port_s</title>
<path fill="none" stroke="blue" d="M293.232,-358.356C381.181,-421.208 518.5,-411.98 518.5,-243.241 518.5,-79.7762 386.275,-66.0078 297.697,-122.448"/>
<polygon fill="blue" stroke="blue" points="295.605,-119.637 289.267,-128.127 299.516,-125.443 295.605,-119.637"/>
</g>
<!-- Alphabet&#45;&gt;Alphabet -->
<g id="edge3" class="edge"><title>Alphabet:port_d&#45;&gt;Alphabet:port_w</title>
<path fill="none" stroke="red" d="M141.034,-228.568C255.777,-283.026 518.5,-276.417 518.5,-208.741 518.5,-154.59 512.244,-139.537 485.43,-163.582"/>
<polygon fill="red" stroke="red" points="482.967,-161.095 478.161,-170.537 487.806,-166.152 482.967,-161.095"/>
</g>
<!-- Alphabet&#45;&gt;Alphabet -->
<g id="edge4" class="edge"><title>Alphabet:port_y&#45;&gt;Alphabet:port_h</title>
<path fill="none" stroke="green" d="M293.232,-59.1266C381.181,3.72474 518.5,-5.50314 518.5,-174.241 518.5,-337.707 386.275,-351.475 297.697,-295.035"/>
<polygon fill="green" stroke="green" points="299.516,-292.04 289.267,-289.356 295.605,-297.846 299.516,-292.04"/>
</g>
</g>
</svg>
