<?xml version="1.0" encoding="UTF-8" standalone="no"?>
<!DOCTYPE svg PUBLIC "-//W3C//DTD SVG 1.1//EN"
 "http://www.w3.org/Graphics/SVG/1.1/DTD/svg11.dtd">
<!-- Generated by graphviz version 2.26.3 (20100126.1600)
 -->
<!-- Title: Perl Pages: 1 -->
<svg width="804pt" height="380pt"
 viewBox="0.00 0.00 804.00 380.00" xmlns="http://www.w3.org/2000/svg" xmlns:xlink="http://www.w3.org/1999/xlink">
<g id="graph1" class="graph" transform="scale(1 1) rotate(0) translate(4 376)">
<title>Perl</title>
<polygon fill="white" stroke="white" points="-4,5 -4,-376 801,-376 801,5 -4,5"/>
<text text-anchor="middle" x="398" y="-10.4" font-family="Times Roman,serif" font-size="14.00">Adult</text>
<g id="graph3" class="cluster"><title>cluster_2</title>
<polygon fill="none" stroke="black" points="462,-147 462,-364 788,-364 788,-147 462,-147"/>
<text text-anchor="middle" x="625" y="-347.4" font-family="Times Roman,serif" font-size="14.00">Grandchild</text>
</g>
<!-- Carnegie -->
<g id="node1" class="node"><title>Carnegie</title>
<ellipse fill="none" stroke="black" cx="46" cy="-73" rx="45.9619" ry="45.9619"/>
<text text-anchor="middle" x="46" y="-69.9" font-family="Times Roman,serif" font-size="14.00">Carnegie</text>
</g>
<!-- Murrumbeena -->
<g id="node2" class="node"><title>Murrumbeena</title>
<polygon fill="none" stroke="green" points="148,-211 54,-211 54,-175 148,-175 148,-211"/>
<text text-anchor="middle" x="101" y="-189.9" font-family="Times Roman,serif" font-size="14.00">Murrumbeena</text>
</g>
<!-- Murrumbeena&#45;&gt;Carnegie -->
<g id="edge2" class="edge"><title>Murrumbeena&#45;&gt;Carnegie</title>
<path fill="none" stroke="grey" d="M92.6467,-174.775C87.4765,-163.494 80.5139,-148.303 73.5472,-133.103"/>
<polygon fill="grey" stroke="grey" points="79.8642,-130.085 65.1676,-114.82 67.1373,-135.918 79.8642,-130.085"/>
</g>
<!-- Oakleigh -->
<g id="node3" class="node"><title>Oakleigh</title>
<ellipse fill="none" stroke="blue" cx="156" cy="-73" rx="46.1672" ry="19.0919"/>
<text text-anchor="middle" x="156" y="-69.9" font-family="Times Roman,serif" font-size="14.00">Oakleigh</text>
</g>
<!-- Murrumbeena&#45;&gt;Oakleigh -->
<g id="edge4" class="edge"><title>Murrumbeena&#45;&gt;Oakleigh</title>
<path fill="none" stroke="brown" d="M109.353,-174.775C118.346,-155.154 132.762,-123.702 143.189,-100.951"/>
<polygon fill="brown" stroke="brown" points="146.402,-102.342 147.386,-91.7933 140.038,-99.4256 146.402,-102.342"/>
</g>
<!-- Chadstone -->
<g id="node7" class="node"><title>Chadstone</title>
<polygon fill="none" stroke="magenta" points="441.921,-305 411.961,-327.045 352.039,-327.045 322.079,-305 352.039,-282.955 411.961,-282.955 441.921,-305"/>
<text text-anchor="middle" x="382" y="-301.9" font-family="Times Roman,serif" font-size="14.00">Chadstone</text>
</g>
<!-- Waverley -->
<g id="node8" class="node"><title>Waverley</title>
<polygon fill="none" stroke="orange" points="382,-220 312,-193 382,-166 452,-193 382,-220"/>
<text text-anchor="middle" x="382" y="-189.9" font-family="Times Roman,serif" font-size="14.00">Waverley</text>
</g>
<!-- Chadstone&#45;&gt;Waverley -->
<g id="edge7" class="edge"><title>Chadstone&#45;&gt;Waverley</title>
<path fill="none" stroke="grey" d="M382,-282.872C382,-267.985 382,-247.981 382,-230.625"/>
<polygon fill="grey" stroke="grey" points="385.5,-230.23 382,-220.23 378.5,-230.231 385.5,-230.23"/>
</g>
<!-- Glen Waverley -->
<g id="node11" class="node"><title>Glen Waverley</title>
<polygon fill="none" stroke="#0000cd" points="711.904,-312.292 625,-328.599 538.096,-312.292 571.291,-285.908 678.709,-285.908 711.904,-312.292"/>
<text text-anchor="middle" x="625" y="-301.9" font-family="Times Roman,serif" font-size="14.00">Glen Waverley</text>
</g>
<!-- Mount Waverley -->
<g id="node12" class="node"><title>Mount Waverley</title>
<polygon fill="none" stroke="darkslategrey" points="625,-231.184 469.937,-173.908 780.063,-173.908 625,-231.184"/>
<text text-anchor="middle" x="625" y="-189.9" font-family="Times Roman,serif" font-size="14.00">Mount Waverley</text>
</g>
<!-- Glen Waverley&#45;&gt;Mount Waverley -->
<g id="edge10" class="edge"><title>Glen Waverley&#45;&gt;Mount Waverley</title>
<path fill="none" stroke="grey" d="M625,-285.747C625,-273.433 625,-256.876 625,-241.16"/>
<polygon fill="grey" stroke="grey" points="628.5,-241.006 625,-231.006 621.5,-241.006 628.5,-241.006"/>
</g>
<!-- Malvern -->
<g id="node14" class="node"><title>Malvern</title>
<polygon fill="none" stroke="cyan" points="158,-343.184 68.9045,-285.908 247.095,-285.908 158,-343.184"/>
<text text-anchor="middle" x="158" y="-301.9" font-family="Times Roman,serif" font-size="14.00">Malvern</text>
</g>
<!-- Malvern&#45;&gt;Murrumbeena -->
<g id="edge14" class="edge"><title>Malvern&#45;&gt;Murrumbeena</title>
<path fill="none" stroke="grey" d="M148.201,-285.747C139.024,-267.713 125.213,-240.577 114.899,-220.31"/>
<polygon fill="grey" stroke="grey" points="117.948,-218.585 110.293,-211.261 111.71,-221.76 117.948,-218.585"/>
</g>
<!-- Prahran -->
<g id="node15" class="node"><title>Prahran</title>
<polygon fill="none" stroke="cyan" points="259.457,-220 190.543,-220 166,-166 284,-166 259.457,-220"/>
<text text-anchor="middle" x="225" y="-189.9" font-family="Times Roman,serif" font-size="14.00">Prahran</text>
</g>
<!-- Malvern&#45;&gt;Prahran -->
<g id="edge12" class="edge"><title>Malvern&#45;&gt;Prahran</title>
<path fill="none" stroke="grey" d="M169.518,-285.747C178.82,-270.197 192.171,-247.879 203.445,-229.033"/>
<polygon fill="grey" stroke="grey" points="206.491,-230.759 208.621,-220.38 200.483,-227.165 206.491,-230.759"/>
</g>
</g>
</svg>
