<?xml version="1.0" encoding="UTF-8" standalone="no"?>
<!DOCTYPE svg PUBLIC "-//W3C//DTD SVG 1.1//EN"
 "http://www.w3.org/Graphics/SVG/1.1/DTD/svg11.dtd">
<!-- Generated by graphviz version 2.29.20121107.0545 (20121107.0545)
 -->
<!-- Title: Perl Pages: 1 -->
<svg width="708pt" height="313pt"
 viewBox="0.00 0.00 708.00 313.00" xmlns="http://www.w3.org/2000/svg" xmlns:xlink="http://www.w3.org/1999/xlink">
<g id="graph0" class="graph" transform="scale(1 1) rotate(0) translate(4 309)">
<title>Perl</title>
<polygon fill="white" stroke="white" points="-4,5 -4,-309 705,-309 705,5 -4,5"/>
<text text-anchor="middle" x="350" y="-7.8" font-family="Times,serif" font-size="14.00">Adult</text>
<g id="clust2" class="cluster"><title>cluster_2</title>
<polygon fill="none" stroke="black" points="390,-135 390,-297 692,-297 692,-135 390,-135"/>
<text text-anchor="middle" x="541" y="-281.8" font-family="Times,serif" font-size="14.00">Grandchild</text>
</g>
<!-- Carnegie -->
<g id="node1" class="node"><title>Carnegie</title>
<ellipse fill="none" stroke="black" cx="123" cy="-65" rx="42.3701" ry="42.4939"/>
<text text-anchor="middle" x="123" y="-61.3" font-family="Times,serif" font-size="14.00">Carnegie</text>
</g>
<!-- Murrumbeena -->
<g id="node2" class="node"><title>Murrumbeena</title>
<polygon fill="none" stroke="green" points="221.25,-184 126.75,-184 126.75,-148 221.25,-148 221.25,-184"/>
<text text-anchor="middle" x="174" y="-162.3" font-family="Times,serif" font-size="14.00">Murrumbeena</text>
</g>
<!-- Murrumbeena&#45;&gt;Carnegie -->
<g id="edge1" class="edge"><title>Murrumbeena&#45;&gt;Carnegie</title>
<path fill="none" stroke="grey" d="M165.116,-147.756C161.206,-140.165 156.373,-130.782 151.39,-121.11"/>
<polygon fill="grey" stroke="grey" points="157.513,-117.711 142.131,-103.137 145.067,-124.122 157.513,-117.711"/>
</g>
<!-- Oakleigh -->
<g id="node3" class="node"><title>Oakleigh</title>
<ellipse fill="none" stroke="blue" cx="226" cy="-65" rx="42.3456" ry="18"/>
<text text-anchor="middle" x="226" y="-61.3" font-family="Times,serif" font-size="14.00">Oakleigh</text>
</g>
<!-- Murrumbeena&#45;&gt;Oakleigh -->
<g id="edge2" class="edge"><title>Murrumbeena&#45;&gt;Oakleigh</title>
<path fill="none" stroke="brown" d="M183.058,-147.756C191.16,-132.33 203.15,-109.504 212.402,-91.8876"/>
<polygon fill="brown" stroke="brown" points="215.668,-93.1976 217.219,-82.717 209.471,-89.9425 215.668,-93.1976"/>
</g>
<!-- Chadstone -->
<g id="node4" class="node"><title>Chadstone</title>
<polygon fill="none" stroke="magenta" points="371.304,-248 343.652,-266 288.348,-266 260.696,-248 288.348,-230 343.652,-230 371.304,-248"/>
<text text-anchor="middle" x="316" y="-244.3" font-family="Times,serif" font-size="14.00">Chadstone</text>
</g>
<!-- Waverley -->
<g id="node5" class="node"><title>Waverley</title>
<polygon fill="none" stroke="orange" points="316,-184 251.988,-166 316,-148 380.012,-166 316,-184"/>
<text text-anchor="middle" x="316" y="-162.3" font-family="Times,serif" font-size="14.00">Waverley</text>
</g>
<!-- Chadstone&#45;&gt;Waverley -->
<g id="edge3" class="edge"><title>Chadstone&#45;&gt;Waverley</title>
<path fill="none" stroke="grey" d="M316,-229.641C316,-219.297 316,-205.941 316,-194.221"/>
<polygon fill="grey" stroke="grey" points="319.5,-194.05 316,-184.05 312.5,-194.05 319.5,-194.05"/>
</g>
<!-- Glen Waverley -->
<g id="node6" class="node"><title>Glen Waverley</title>
<polygon fill="none" stroke="#0000cd" points="621.007,-253.562 541,-266 460.993,-253.562 491.553,-233.438 590.447,-233.438 621.007,-253.562"/>
<text text-anchor="middle" x="541" y="-244.3" font-family="Times,serif" font-size="14.00">Glen Waverley</text>
</g>
<!-- Mount Waverley -->
<g id="node7" class="node"><title>Mount Waverley</title>
<polygon fill="none" stroke="darkslategrey" points="541,-189 398.519,-154.5 683.481,-154.5 541,-189"/>
<text text-anchor="middle" x="541" y="-162.3" font-family="Times,serif" font-size="14.00">Mount Waverley</text>
</g>
<!-- Glen Waverley&#45;&gt;Mount Waverley -->
<g id="edge4" class="edge"><title>Glen Waverley&#45;&gt;Mount Waverley</title>
<path fill="none" stroke="grey" d="M541,-233.429C541,-224.051 541,-211.164 541,-199.236"/>
<polygon fill="grey" stroke="grey" points="544.5,-199.112 541,-189.112 537.5,-199.112 544.5,-199.112"/>
</g>
<!-- Malvern -->
<g id="node8" class="node"><title>Malvern</title>
<polygon fill="none" stroke="cyan" points="108,-271 26.6602,-236.5 189.34,-236.5 108,-271"/>
<text text-anchor="middle" x="108" y="-244.3" font-family="Times,serif" font-size="14.00">Malvern</text>
</g>
<!-- Prahran -->
<g id="node9" class="node"><title>Prahran</title>
<polygon fill="none" stroke="cyan" points="85.7389,-184 22.2611,-184 -0.345908,-148 108.346,-148 85.7389,-184"/>
<text text-anchor="middle" x="54" y="-162.3" font-family="Times,serif" font-size="14.00">Prahran</text>
</g>
<!-- Malvern&#45;&gt;Prahran -->
<g id="edge5" class="edge"><title>Malvern&#45;&gt;Prahran</title>
<path fill="none" stroke="grey" d="M100.717,-236.211C93.2314,-225.121 81.2992,-207.443 71.368,-192.73"/>
<polygon fill="grey" stroke="grey" points="73.9963,-190.368 65.5005,-184.038 68.1943,-194.285 73.9963,-190.368"/>
</g>
<!-- Malvern&#45;&gt;Murrumbeena -->
<g id="edge6" class="edge"><title>Malvern&#45;&gt;Murrumbeena</title>
<path fill="none" stroke="grey" d="M116.901,-236.211C126.223,-224.911 141.187,-206.774 153.457,-191.901"/>
<polygon fill="grey" stroke="grey" points="156.28,-193.979 159.944,-184.038 150.88,-189.524 156.28,-193.979"/>
</g>
</g>
</svg>
