<?xml version="1.0" encoding="UTF-8" standalone="no"?>
<!DOCTYPE svg PUBLIC "-//W3C//DTD SVG 1.1//EN"
 "http://www.w3.org/Graphics/SVG/1.1/DTD/svg11.dtd">
<!-- Generated by graphviz version 2.26.3 (20100126.1600)
 -->
<!-- Title: Perl Pages: 1 -->
<svg width="794pt" height="366pt"
 viewBox="0.00 0.00 794.00 366.00" xmlns="http://www.w3.org/2000/svg" xmlns:xlink="http://www.w3.org/1999/xlink">
<g id="graph1" class="graph" transform="scale(1 1) rotate(0) translate(4 362)">
<title>Perl</title>
<polygon fill="white" stroke="white" points="-4,5 -4,-362 791,-362 791,5 -4,5"/>
<text text-anchor="middle" x="393" y="-10.4" font-family="Times Roman,serif" font-size="14.00">Adult</text>
<g id="graph3" class="cluster"><title>cluster_2</title>
<polygon fill="none" stroke="black" points="452,-147 452,-350 778,-350 778,-147 452,-147"/>
<text text-anchor="middle" x="615" y="-333.4" font-family="Times Roman,serif" font-size="14.00">Grandchild</text>
</g>
<!-- Carnegie -->
<g id="node1" class="node"><title>Carnegie</title>
<ellipse fill="none" stroke="black" cx="46" cy="-73" rx="45.9619" ry="45.9619"/>
<text text-anchor="middle" x="46" y="-69.9" font-family="Times Roman,serif" font-size="14.00">Carnegie</text>
</g>
<!-- Murrumbeena -->
<g id="node2" class="node"><title>Murrumbeena</title>
<polygon fill="none" stroke="green" points="148,-211 54,-211 54,-175 148,-175 148,-211"/>
<text text-anchor="middle" x="101" y="-189.9" font-family="Times Roman,serif" font-size="14.00">Murrumbeena</text>
</g>
<!-- Murrumbeena&#45;&gt;Carnegie -->
<g id="edge2" class="edge"><title>Murrumbeena&#45;&gt;Carnegie</title>
<path fill="none" stroke="grey" d="M92.6467,-174.775C87.4765,-163.494 80.5139,-148.303 73.5472,-133.103"/>
<polygon fill="grey" stroke="grey" points="79.8642,-130.085 65.1676,-114.82 67.1373,-135.918 79.8642,-130.085"/>
</g>
<!-- Oakleigh -->
<g id="node3" class="node"><title>Oakleigh</title>
<ellipse fill="none" stroke="blue" cx="156" cy="-73" rx="46.1672" ry="19.0919"/>
<text text-anchor="middle" x="156" y="-69.9" font-family="Times Roman,serif" font-size="14.00">Oakleigh</text>
</g>
<!-- Murrumbeena&#45;&gt;Oakleigh -->
<g id="edge4" class="edge"><title>Murrumbeena&#45;&gt;Oakleigh</title>
<path fill="none" stroke="brown" d="M109.353,-174.775C118.346,-155.154 132.762,-123.702 143.189,-100.951"/>
<polygon fill="brown" stroke="brown" points="146.402,-102.342 147.386,-91.7933 140.038,-99.4256 146.402,-102.342"/>
</g>
<!-- Chadstone -->
<g id="node7" class="node"><title>Chadstone</title>
<polygon fill="none" stroke="magenta" points="431.921,-291 401.961,-313.045 342.039,-313.045 312.079,-291 342.039,-268.955 401.961,-268.955 431.921,-291"/>
<text text-anchor="middle" x="372" y="-287.9" font-family="Times Roman,serif" font-size="14.00">Chadstone</text>
</g>
<!-- Waverley -->
<g id="node8" class="node"><title>Waverley</title>
<polygon fill="none" stroke="orange" points="372,-220 302,-193 372,-166 442,-193 372,-220"/>
<text text-anchor="middle" x="372" y="-189.9" font-family="Times Roman,serif" font-size="14.00">Waverley</text>
</g>
<!-- Chadstone&#45;&gt;Waverley -->
<g id="edge7" class="edge"><title>Chadstone&#45;&gt;Waverley</title>
<path fill="none" stroke="grey" d="M372,-268.762C372,-257.355 372,-243.156 372,-230.143"/>
<polygon fill="grey" stroke="grey" points="375.5,-230.038 372,-220.038 368.5,-230.038 375.5,-230.038"/>
</g>
<!-- Glen Waverley -->
<g id="node11" class="node"><title>Glen Waverley</title>
<polygon fill="none" stroke="#0000cd" points="701.904,-298.292 615,-314.599 528.096,-298.292 561.291,-271.908 668.709,-271.908 701.904,-298.292"/>
<text text-anchor="middle" x="615" y="-287.9" font-family="Times Roman,serif" font-size="14.00">Glen Waverley</text>
</g>
<!-- Mount Waverley -->
<g id="node12" class="node"><title>Mount Waverley</title>
<polygon fill="none" stroke="darkslategrey" points="615,-231.184 459.937,-173.908 770.063,-173.908 615,-231.184"/>
<text text-anchor="middle" x="615" y="-189.9" font-family="Times Roman,serif" font-size="14.00">Mount Waverley</text>
</g>
<!-- Glen Waverley&#45;&gt;Mount Waverley -->
<g id="edge10" class="edge"><title>Glen Waverley&#45;&gt;Mount Waverley</title>
<path fill="none" stroke="grey" d="M615,-271.638C615,-262.93 615,-252.222 615,-241.542"/>
<polygon fill="grey" stroke="grey" points="618.5,-241.378 615,-231.378 611.5,-241.378 618.5,-241.378"/>
</g>
<!-- Malvern -->
<g id="node14" class="node"><title>Malvern</title>
<ellipse fill="none" stroke="cyan" cx="163" cy="-291" rx="44.0472" ry="19.0919"/>
<text text-anchor="middle" x="163" y="-287.9" font-family="Times Roman,serif" font-size="14.00">Malvern</text>
</g>
<!-- Malvern&#45;&gt;Murrumbeena -->
<g id="edge14" class="edge"><title>Malvern&#45;&gt;Murrumbeena</title>
<path fill="none" stroke="grey" d="M151.338,-272.567C141.926,-257.69 128.555,-236.555 117.959,-219.805"/>
<polygon fill="grey" stroke="grey" points="120.704,-217.599 112.4,-211.019 114.789,-221.341 120.704,-217.599"/>
</g>
<!-- Prahran -->
<g id="node15" class="node"><title>Prahran</title>
<polygon fill="none" stroke="cyan" points="259.457,-220 190.543,-220 166,-166 284,-166 259.457,-220"/>
<text text-anchor="middle" x="225" y="-189.9" font-family="Times Roman,serif" font-size="14.00">Prahran</text>
</g>
<!-- Malvern&#45;&gt;Prahran -->
<g id="edge12" class="edge"><title>Malvern&#45;&gt;Prahran</title>
<path fill="none" stroke="grey" d="M174.662,-272.567C182.462,-260.238 192.981,-243.611 202.387,-228.744"/>
<polygon fill="grey" stroke="grey" points="205.378,-230.562 207.767,-220.239 199.463,-226.819 205.378,-230.562"/>
</g>
</g>
</svg>
