<?xml version="1.0" encoding="UTF-8" standalone="no"?>
<!DOCTYPE svg PUBLIC "-//W3C//DTD SVG 1.1//EN"
 "http://www.w3.org/Graphics/SVG/1.1/DTD/svg11.dtd">
<!-- Generated by graphviz version 2.37.20140310.0445 (20140310.0445)
 -->
<!-- Title: Perl Pages: 1 -->
<svg width="378pt" height="202pt"
 viewBox="0.00 0.00 378.00 202.00" xmlns="http://www.w3.org/2000/svg" xmlns:xlink="http://www.w3.org/1999/xlink">
<g id="graph0" class="graph" transform="scale(1 1) rotate(0) translate(4 198)">
<title>Perl</title>
<polygon fill="white" stroke="none" points="-4,4 -4,-198 374,-198 374,4 -4,4"/>
<text text-anchor="middle" x="185" y="-7.8" font-family="Times,serif" font-size="14.00">Demo of 3 subgraphs (2 being clusters), and 1 frame</text>
<g id="clust1" class="cluster"><title>cluster First subgraph</title>
<polygon fill="none" stroke="white" points="62,-31 62,-186 166,-186 166,-31 62,-31"/>
<text text-anchor="middle" x="114" y="-170.8" font-family="Times,serif" font-size="14.00">Child the First</text>
</g>
<g id="clust2" class="cluster"><title>cluster Second subgraph</title>
<polygon fill="none" stroke="purple" points="174,-31 174,-186 284,-186 284,-31 174,-31"/>
<text text-anchor="middle" x="229" y="-170.8" font-family="Times,serif" font-size="14.00">Child the Second</text>
</g>
<!-- One -->
<g id="node1" class="node"><title>One</title>
<ellipse fill="none" stroke="red" cx="27" cy="-137" rx="25.0236" ry="25.1964"/>
<text text-anchor="middle" x="27" y="-133.3" font-family="Times,serif" font-size="14.00">One</text>
</g>
<!-- Two -->
<g id="node2" class="node"><title>Two</title>
<polygon fill="none" stroke="green" points="54,-75 0,-75 0,-39 54,-39 54,-75"/>
<text text-anchor="middle" x="27" y="-53.3" font-family="Times,serif" font-size="14.00">Two</text>
</g>
<!-- One&#45;&gt;Two -->
<g id="edge1" class="edge"><title>One&#45;&gt;Two</title>
<path fill="none" stroke="maroon" stroke-width="3" d="M27,-111.32C27,-103.036 27,-93.7495 27,-85.2772"/>
<polygon fill="maroon" stroke="maroon" stroke-width="3" points="30.5001,-85.1174 27,-75.1174 23.5001,-85.1175 30.5001,-85.1174"/>
</g>
<!-- Three -->
<g id="node3" class="node"><title>Three</title>
<polygon fill="none" stroke="magenta" points="114,-155 69.8205,-137 114,-119 158.179,-137 114,-155"/>
<text text-anchor="middle" x="114" y="-133.3" font-family="Times,serif" font-size="14.00">Three</text>
</g>
<!-- Four -->
<g id="node4" class="node"><title>Four</title>
<polygon fill="none" stroke="orange" points="141,-75 87,-75 87,-39 141,-39 141,-75"/>
<text text-anchor="middle" x="114" y="-53.3" font-family="Times,serif" font-size="14.00">Four</text>
</g>
<!-- Three&#45;&gt;Four -->
<g id="edge2" class="edge"><title>Three&#45;&gt;Four</title>
<path fill="none" stroke="grey" stroke-width="3" d="M114,-118.689C114,-108.894 114,-96.4218 114,-85.335"/>
<polygon fill="grey" stroke="grey" stroke-width="3" points="117.5,-85.2623 114,-75.2623 110.5,-85.2624 117.5,-85.2623"/>
</g>
<!-- Five -->
<g id="node5" class="node"><title>Five</title>
<polygon fill="none" stroke="blue" points="228,-155 190.473,-137 228,-119 265.527,-137 228,-155"/>
<text text-anchor="middle" x="228" y="-133.3" font-family="Times,serif" font-size="14.00">Five</text>
</g>
<!-- Six -->
<g id="node6" class="node"><title>Six</title>
<polygon fill="none" stroke="orange" points="255,-75 201,-75 201,-39 255,-39 255,-75"/>
<text text-anchor="middle" x="228" y="-53.3" font-family="Times,serif" font-size="14.00">Six</text>
</g>
<!-- Five&#45;&gt;Six -->
<g id="edge3" class="edge"><title>Five&#45;&gt;Six</title>
<path fill="none" stroke="grey" stroke-width="3" d="M228,-118.689C228,-108.894 228,-96.4218 228,-85.335"/>
<polygon fill="grey" stroke="grey" stroke-width="3" points="231.5,-85.2623 228,-75.2623 224.5,-85.2624 231.5,-85.2623"/>
</g>
<!-- Seven -->
<g id="node7" class="node"><title>Seven</title>
<polygon fill="none" stroke="blue" points="366.253,-129.544 366.253,-144.456 345.602,-155 316.398,-155 295.747,-144.456 295.747,-129.544 316.398,-119 345.602,-119 366.253,-129.544"/>
<polygon fill="none" stroke="blue" points="370.262,-127.098 370.262,-146.902 346.569,-159 315.431,-159 291.738,-146.902 291.738,-127.098 315.431,-115 346.569,-115 370.262,-127.098"/>
<text text-anchor="middle" x="331" y="-133.3" font-family="Times,serif" font-size="14.00">Seven</text>
</g>
<!-- Eight -->
<g id="node8" class="node"><title>Eight</title>
<polygon fill="none" stroke="orange" points="358,-75 304,-75 304,-39 358,-39 358,-75"/>
<text text-anchor="middle" x="331" y="-53.3" font-family="Times,serif" font-size="14.00">Eight</text>
</g>
<!-- Seven&#45;&gt;Eight -->
<g id="edge4" class="edge"><title>Seven&#45;&gt;Eight</title>
<path fill="none" stroke="grey" stroke-width="3" d="M331,-114.686C331,-105.641 331,-94.9855 331,-85.3686"/>
<polygon fill="grey" stroke="grey" stroke-width="3" points="334.5,-85.0933 331,-75.0933 327.5,-85.0934 334.5,-85.0933"/>
</g>
</g>
</svg>
