<?xml version="1.0" encoding="UTF-8" standalone="no"?>
<!DOCTYPE svg PUBLIC "-//W3C//DTD SVG 1.1//EN"
 "http://www.w3.org/Graphics/SVG/1.1/DTD/svg11.dtd">
<!-- Generated by graphviz version 2.30.1 (20130611.0131)
 -->
<!-- Title: Perl Pages: 1 -->
<svg width="392pt" height="298pt"
 viewBox="0.00 0.00 392.00 298.00" xmlns="http://www.w3.org/2000/svg" xmlns:xlink="http://www.w3.org/1999/xlink">
<g id="graph0" class="graph" transform="scale(1 1) rotate(0) translate(4 294)">
<title>Perl</title>
<polygon fill="white" stroke="white" points="-4,5 -4,-294 389,-294 389,5 -4,5"/>
<text text-anchor="middle" x="192" y="-7.8" font-family="Times,serif" font-size="14.00">Adult</text>
<g id="clust1" class="cluster"><title>cluster_1</title>
<polygon fill="none" stroke="black" points="232,-135 232,-282 376,-282 376,-135 232,-135"/>
<text text-anchor="middle" x="304" y="-266.8" font-family="Times,serif" font-size="14.00">Child</text>
</g>
<!-- Carnegie -->
<g id="node1" class="node"><title>Carnegie</title>
<ellipse fill="none" stroke="black" cx="123" cy="-65" rx="42.3701" ry="42.4939"/>
<text text-anchor="middle" x="123" y="-61.3" font-family="Times,serif" font-size="14.00">Carnegie</text>
</g>
<!-- Murrumbeena -->
<g id="node2" class="node"><title>Murrumbeena</title>
<polygon fill="none" stroke="green" points="221.25,-179 126.75,-179 126.75,-143 221.25,-143 221.25,-179"/>
<text text-anchor="middle" x="174" y="-157.3" font-family="Times,serif" font-size="14.00">Murrumbeena</text>
</g>
<!-- Murrumbeena&#45;&gt;Carnegie -->
<g id="edge1" class="edge"><title>Murrumbeena&#45;&gt;Carnegie</title>
<path fill="none" stroke="grey" d="M164.646,-142.759C161.121,-136.263 156.898,-128.478 152.512,-120.395"/>
<polygon fill="grey" stroke="grey" points="158.55,-116.845 142.859,-102.604 146.244,-123.521 158.55,-116.845"/>
</g>
<!-- Oakleigh -->
<g id="node3" class="node"><title>Oakleigh</title>
<ellipse fill="none" stroke="blue" cx="226" cy="-65" rx="42.3456" ry="18"/>
<text text-anchor="middle" x="226" y="-61.3" font-family="Times,serif" font-size="14.00">Oakleigh</text>
</g>
<!-- Murrumbeena&#45;&gt;Oakleigh -->
<g id="edge2" class="edge"><title>Murrumbeena&#45;&gt;Oakleigh</title>
<path fill="none" stroke="brown" d="M183.538,-142.759C191.43,-128.492 202.76,-108.011 211.732,-91.7928"/>
<polygon fill="brown" stroke="brown" points="214.92,-93.2601 216.698,-82.8155 208.795,-89.8716 214.92,-93.2601"/>
</g>
<!-- Chadstone -->
<g id="node4" class="node"><title>Chadstone</title>
<polygon fill="none" stroke="magenta" points="359.304,-233 331.652,-251 276.348,-251 248.696,-233 276.348,-215 331.652,-215 359.304,-233"/>
<text text-anchor="middle" x="304" y="-229.3" font-family="Times,serif" font-size="14.00">Chadstone</text>
</g>
<!-- Waverley -->
<g id="node5" class="node"><title>Waverley</title>
<polygon fill="none" stroke="orange" points="304,-179 239.988,-161 304,-143 368.012,-161 304,-179"/>
<text text-anchor="middle" x="304" y="-157.3" font-family="Times,serif" font-size="14.00">Waverley</text>
</g>
<!-- Chadstone&#45;&gt;Waverley -->
<g id="edge3" class="edge"><title>Chadstone&#45;&gt;Waverley</title>
<path fill="none" stroke="grey" d="M304,-214.697C304,-206.983 304,-197.712 304,-189.112"/>
<polygon fill="grey" stroke="grey" points="307.5,-189.104 304,-179.104 300.5,-189.104 307.5,-189.104"/>
</g>
<!-- Malvern -->
<g id="node6" class="node"><title>Malvern</title>
<polygon fill="none" stroke="cyan" points="110,-251 52.6388,-233 110,-215 167.361,-233 110,-251"/>
<text text-anchor="middle" x="110" y="-229.3" font-family="Times,serif" font-size="14.00">Malvern</text>
</g>
<!-- Prahran -->
<g id="node7" class="node"><title>Prahran</title>
<polygon fill="none" stroke="cyan" points="85.7389,-179 22.2611,-179 -0.345908,-143 108.346,-143 85.7389,-179"/>
<text text-anchor="middle" x="54" y="-157.3" font-family="Times,serif" font-size="14.00">Prahran</text>
</g>
<!-- Malvern&#45;&gt;Prahran -->
<g id="edge4" class="edge"><title>Malvern&#45;&gt;Prahran</title>
<path fill="none" stroke="grey" d="M98.9362,-218.17C91.8435,-209.304 82.4283,-197.535 74.049,-187.061"/>
<polygon fill="grey" stroke="grey" points="76.5953,-184.641 67.6152,-179.019 71.1292,-189.014 76.5953,-184.641"/>
</g>
<!-- Malvern&#45;&gt;Murrumbeena -->
<g id="edge5" class="edge"><title>Malvern&#45;&gt;Murrumbeena</title>
<path fill="none" stroke="grey" d="M122.34,-218.503C130.582,-209.488 141.666,-197.365 151.454,-186.66"/>
<polygon fill="grey" stroke="grey" points="154.128,-188.922 158.293,-179.18 148.962,-184.199 154.128,-188.922"/>
</g>
</g>
</svg>
