<?xml version="1.0" encoding="UTF-8" standalone="no"?>
<!DOCTYPE svg PUBLIC "-//W3C//DTD SVG 1.1//EN"
 "http://www.w3.org/Graphics/SVG/1.1/DTD/svg11.dtd">
<!-- Generated by graphviz version 2.26.3 (20100126.1600)
 -->
<!-- Title: Perl Pages: 1 -->
<svg width="466pt" height="340pt"
 viewBox="0.00 0.00 466.00 340.00" xmlns="http://www.w3.org/2000/svg" xmlns:xlink="http://www.w3.org/1999/xlink">
<g id="graph1" class="graph" transform="scale(1 1) rotate(0) translate(4 336)">
<title>Perl</title>
<polygon fill="white" stroke="white" points="-4,5 -4,-336 463,-336 463,5 -4,5"/>
<text text-anchor="middle" x="229" y="-10.4" font-family="Times Roman,serif" font-size="14.00">Adult</text>
<g id="graph2" class="cluster"><title>cluster_1</title>
<polygon fill="none" stroke="black" points="294,-147 294,-324 450,-324 450,-147 294,-147"/>
<text text-anchor="middle" x="372" y="-307.4" font-family="Times Roman,serif" font-size="14.00">Child</text>
</g>
<!-- Carnegie -->
<g id="node1" class="node"><title>Carnegie</title>
<ellipse fill="none" stroke="black" cx="46" cy="-73" rx="45.9619" ry="45.9619"/>
<text text-anchor="middle" x="46" y="-69.9" font-family="Times Roman,serif" font-size="14.00">Carnegie</text>
</g>
<!-- Murrumbeena -->
<g id="node2" class="node"><title>Murrumbeena</title>
<polygon fill="none" stroke="green" points="148,-200 54,-200 54,-164 148,-164 148,-200"/>
<text text-anchor="middle" x="101" y="-178.9" font-family="Times Roman,serif" font-size="14.00">Murrumbeena</text>
</g>
<!-- Murrumbeena&#45;&gt;Carnegie -->
<g id="edge2" class="edge"><title>Murrumbeena&#45;&gt;Carnegie</title>
<path fill="none" stroke="grey" d="M91.67,-163.51C87.205,-154.661 81.5832,-143.519 75.8246,-132.107"/>
<polygon fill="grey" stroke="grey" points="82.0683,-128.942 66.8091,-114.24 69.5694,-135.249 82.0683,-128.942"/>
</g>
<!-- Oakleigh -->
<g id="node3" class="node"><title>Oakleigh</title>
<ellipse fill="none" stroke="blue" cx="156" cy="-73" rx="46.1672" ry="19.0919"/>
<text text-anchor="middle" x="156" y="-69.9" font-family="Times Roman,serif" font-size="14.00">Oakleigh</text>
</g>
<!-- Murrumbeena&#45;&gt;Oakleigh -->
<g id="edge4" class="edge"><title>Murrumbeena&#45;&gt;Oakleigh</title>
<path fill="none" stroke="brown" d="M110.33,-163.51C118.969,-146.389 131.938,-120.687 141.851,-101.041"/>
<polygon fill="brown" stroke="brown" points="145.059,-102.452 146.439,-91.9474 138.81,-99.2986 145.059,-102.452"/>
</g>
<!-- Chadstone -->
<g id="node7" class="node"><title>Chadstone</title>
<polygon fill="none" stroke="magenta" points="431.921,-267 401.961,-289.045 342.039,-289.045 312.079,-267 342.039,-244.955 401.961,-244.955 431.921,-267"/>
<text text-anchor="middle" x="372" y="-263.9" font-family="Times Roman,serif" font-size="14.00">Chadstone</text>
</g>
<!-- Waverley -->
<g id="node8" class="node"><title>Waverley</title>
<polygon fill="none" stroke="orange" points="372,-209 302,-182 372,-155 442,-182 372,-209"/>
<text text-anchor="middle" x="372" y="-178.9" font-family="Times Roman,serif" font-size="14.00">Waverley</text>
</g>
<!-- Chadstone&#45;&gt;Waverley -->
<g id="edge7" class="edge"><title>Chadstone&#45;&gt;Waverley</title>
<path fill="none" stroke="grey" d="M372,-244.667C372,-236.819 372,-227.776 372,-219.045"/>
<polygon fill="grey" stroke="grey" points="375.5,-219.03 372,-209.03 368.5,-219.03 375.5,-219.03"/>
</g>
<!-- Malvern -->
<g id="node10" class="node"><title>Malvern</title>
<ellipse fill="none" stroke="cyan" cx="163" cy="-267" rx="44.0472" ry="19.0919"/>
<text text-anchor="middle" x="163" y="-263.9" font-family="Times Roman,serif" font-size="14.00">Malvern</text>
</g>
<!-- Malvern&#45;&gt;Murrumbeena -->
<g id="edge11" class="edge"><title>Malvern&#45;&gt;Murrumbeena</title>
<path fill="none" stroke="grey" d="M149.547,-248.556C140.958,-236.781 129.689,-221.331 120.17,-208.282"/>
<polygon fill="grey" stroke="grey" points="122.935,-206.132 114.214,-200.116 117.279,-210.257 122.935,-206.132"/>
</g>
<!-- Prahran -->
<g id="node11" class="node"><title>Prahran</title>
<polygon fill="none" stroke="cyan" points="259.457,-209 190.543,-209 166,-155 284,-155 259.457,-209"/>
<text text-anchor="middle" x="225" y="-178.9" font-family="Times Roman,serif" font-size="14.00">Prahran</text>
</g>
<!-- Malvern&#45;&gt;Prahran -->
<g id="edge9" class="edge"><title>Malvern&#45;&gt;Prahran</title>
<path fill="none" stroke="grey" d="M176.453,-248.556C183.085,-239.464 191.315,-228.181 199.103,-217.504"/>
<polygon fill="grey" stroke="grey" points="202.15,-219.266 205.215,-209.125 196.494,-215.141 202.15,-219.266"/>
</g>
</g>
</svg>
