<?xml version="1.0" encoding="UTF-8" standalone="no"?>
<!DOCTYPE svg PUBLIC "-//W3C//DTD SVG 1.1//EN"
 "http://www.w3.org/Graphics/SVG/1.1/DTD/svg11.dtd">
<!-- Generated by graphviz version 2.38.0 (20140413.2041)
 -->
<!-- Title: Perl Pages: 1 -->
<svg width="354pt" height="198pt"
 viewBox="0.00 0.00 354.00 198.00" xmlns="http://www.w3.org/2000/svg" xmlns:xlink="http://www.w3.org/1999/xlink">
<g id="graph0" class="graph" transform="scale(1 1) rotate(0) translate(4 194)">
<title>Perl</title>
<polygon fill="white" stroke="none" points="-4,4 -4,-194 350,-194 350,4 -4,4"/>
<text text-anchor="middle" x="173" y="-7.8" font-family="Times,serif" font-size="14.00">Demo of 3 subgraphs (2 being clusters), and 1 frame</text>
<g id="clust1" class="cluster"><title>cluster First subgraph</title>
<polygon fill="none" stroke="white" points="63,-31 63,-182 158,-182 158,-31 63,-31"/>
<text text-anchor="middle" x="110.5" y="-166.8" font-family="Times,serif" font-size="14.00">Child the First</text>
</g>
<g id="clust2" class="cluster"><title>cluster Second subgraph</title>
<polygon fill="none" stroke="purple" points="166,-31 166,-182 276,-182 276,-31 166,-31"/>
<text text-anchor="middle" x="221" y="-166.8" font-family="Times,serif" font-size="14.00">Child the Second</text>
</g>
<!-- One -->
<g id="node1" class="node"><title>One</title>
<ellipse fill="none" stroke="red" cx="27" cy="-133" rx="18" ry="18"/>
</g>
<!-- Two -->
<g id="node2" class="node"><title>Two</title>
<polygon fill="none" stroke="green" points="54,-75 0,-75 0,-39 54,-39 54,-75"/>
</g>
<!-- One&#45;&gt;Two -->
<g id="edge1" class="edge"><title>One&#45;&gt;Two</title>
<path fill="none" stroke="maroon" stroke-width="3" d="M27,-114.837C27,-106.058 27,-95.1626 27,-85.2675"/>
<polygon fill="maroon" stroke="maroon" stroke-width="3" points="30.5001,-85.07 27,-75.07 23.5001,-85.07 30.5001,-85.07"/>
</g>
<!-- Three -->
<g id="node3" class="node"><title>Three</title>
<polygon fill="none" stroke="magenta" points="111,-151 84,-133 111,-115 138,-133 111,-151"/>
</g>
<!-- Four -->
<g id="node4" class="node"><title>Four</title>
<polygon fill="none" stroke="orange" points="138,-75 84,-75 84,-39 138,-39 138,-75"/>
</g>
<!-- Three&#45;&gt;Four -->
<g id="edge2" class="edge"><title>Three&#45;&gt;Four</title>
<path fill="none" stroke="grey" stroke-width="3" d="M111,-114.837C111,-106.058 111,-95.1626 111,-85.2675"/>
<polygon fill="grey" stroke="grey" stroke-width="3" points="114.5,-85.07 111,-75.07 107.5,-85.07 114.5,-85.07"/>
</g>
<!-- Five -->
<g id="node5" class="node"><title>Five</title>
<polygon fill="none" stroke="blue" points="220,-151 193,-133 220,-115 247,-133 220,-151"/>
</g>
<!-- Six -->
<g id="node6" class="node"><title>Six</title>
<polygon fill="none" stroke="orange" points="247,-75 193,-75 193,-39 247,-39 247,-75"/>
</g>
<!-- Five&#45;&gt;Six -->
<g id="edge3" class="edge"><title>Five&#45;&gt;Six</title>
<path fill="none" stroke="grey" stroke-width="3" d="M220,-114.837C220,-106.058 220,-95.1626 220,-85.2675"/>
<polygon fill="grey" stroke="grey" stroke-width="3" points="223.5,-85.07 220,-75.07 216.5,-85.07 223.5,-85.07"/>
</g>
<!-- Seven -->
<g id="node7" class="node"><title>Seven</title>
<polygon fill="none" stroke="blue" points="342,-125.544 342,-140.456 326.184,-151 303.816,-151 288,-140.456 288,-125.544 303.816,-115 326.184,-115 342,-125.544"/>
<polygon fill="none" stroke="blue" points="346,-123.403 346,-142.597 327.395,-155 302.605,-155 284,-142.597 284,-123.403 302.605,-111 327.395,-111 346,-123.403"/>
</g>
<!-- Eight -->
<g id="node8" class="node"><title>Eight</title>
<polygon fill="none" stroke="orange" points="342,-75 288,-75 288,-39 342,-39 342,-75"/>
</g>
<!-- Seven&#45;&gt;Eight -->
<g id="edge4" class="edge"><title>Seven&#45;&gt;Eight</title>
<path fill="none" stroke="grey" stroke-width="3" d="M315,-110.993C315,-103.061 315,-93.9149 315,-85.4778"/>
<polygon fill="grey" stroke="grey" stroke-width="3" points="318.5,-85.3146 315,-75.3147 311.5,-85.3147 318.5,-85.3146"/>
</g>
</g>
</svg>
