<?xml version="1.0" encoding="UTF-8" standalone="no"?>
<!DOCTYPE svg PUBLIC "-//W3C//DTD SVG 1.1//EN"
 "http://www.w3.org/Graphics/SVG/1.1/DTD/svg11.dtd">
<!-- Generated by graphviz version 2.38.0 (20140413.2041)
 -->
<!-- Title: Perl Pages: 1 -->
<svg width="988pt" height="282pt"
 viewBox="0.00 0.00 987.78 282.49" xmlns="http://www.w3.org/2000/svg" xmlns:xlink="http://www.w3.org/1999/xlink">
<g id="graph0" class="graph" transform="scale(1 1) rotate(0) translate(4 278.493)">
<title>Perl</title>
<polygon fill="white" stroke="none" points="-4,4 -4,-278.493 983.782,-278.493 983.782,4 -4,4"/>
<text text-anchor="middle" x="489.891" y="-7.8" font-family="Times,serif" font-size="14.00">Adult</text>
<g id="clust2" class="cluster"><title>cluster_2</title>
<polygon fill="none" stroke="black" points="277.246,-34.2463 277.246,-220.493 959.246,-220.493 959.246,-34.2463 277.246,-34.2463"/>
<text text-anchor="middle" x="618.246" y="-205.293" font-family="Times,serif" font-size="14.00">Grandchild</text>
</g>
<!-- Carnegie -->
<g id="node1" class="node"><title>Carnegie</title>
<ellipse fill="none" stroke="black" cx="42.2463" cy="-65.2463" rx="42.4939" ry="42.4939"/>
<text text-anchor="middle" x="42.2463" y="-61.5463" font-family="Times,serif" font-size="14.00">Carnegie</text>
</g>
<!-- Murrumbeena -->
<g id="node2" class="node"><title>Murrumbeena</title>
<polygon fill="none" stroke="green" points="140.746,-184.493 45.7463,-184.493 45.7463,-148.493 140.746,-148.493 140.746,-184.493"/>
<text text-anchor="middle" x="93.2463" y="-162.793" font-family="Times,serif" font-size="14.00">Murrumbeena</text>
</g>
<!-- Murrumbeena&#45;&gt;Carnegie -->
<g id="edge1" class="edge"><title>Murrumbeena&#45;&gt;Carnegie</title>
<path fill="none" stroke="grey" d="M84.3627,-148.205C80.3673,-140.43 75.4079,-130.779 70.3104,-120.859"/>
<polygon fill="grey" stroke="grey" points="76.5316,-117.65 61.1643,-103.061 64.0794,-124.049 76.5316,-117.65"/>
</g>
<!-- Oakleigh -->
<g id="node3" class="node"><title>Oakleigh</title>
<ellipse fill="none" stroke="blue" cx="145.246" cy="-65.2463" rx="42.7926" ry="18"/>
<text text-anchor="middle" x="145.246" y="-61.5463" font-family="Times,serif" font-size="14.00">Oakleigh</text>
</g>
<!-- Murrumbeena&#45;&gt;Oakleigh -->
<g id="edge2" class="edge"><title>Murrumbeena&#45;&gt;Oakleigh</title>
<path fill="none" stroke="brown" d="M102.304,-148.205C110.406,-132.742 122.396,-109.858 131.649,-92.1982"/>
<polygon fill="brown" stroke="brown" points="134.925,-93.487 136.466,-83.0048 128.724,-90.2383 134.925,-93.487"/>
</g>
<!-- Chadstone -->
<g id="node4" class="node"><title>Chadstone</title>
<polygon fill="none" stroke="magenta" points="979.819,-251.493 952.032,-269.493 896.46,-269.493 868.674,-251.493 896.46,-233.493 952.032,-233.493 979.819,-251.493"/>
<text text-anchor="middle" x="924.246" y="-247.793" font-family="Times,serif" font-size="14.00">Chadstone</text>
</g>
<!-- Waverley -->
<g id="node5" class="node"><title>Waverley</title>
<polygon fill="none" stroke="orange" points="924.246,-184.493 897.246,-166.493 924.246,-148.493 951.246,-166.493 924.246,-184.493"/>
</g>
<!-- Chadstone&#45;&gt;Waverley -->
<g id="edge3" class="edge"><title>Chadstone&#45;&gt;Waverley</title>
<path fill="none" stroke="grey" d="M924.246,-233.295C924.246,-222.166 924.246,-207.437 924.246,-194.736"/>
<polygon fill="grey" stroke="grey" points="927.746,-194.668 924.246,-184.668 920.746,-194.668 927.746,-194.668"/>
</g>
<!-- Mount -->
<g id="node9" class="node"><title>Mount</title>
<polygon fill="none" stroke="#0000cd" points="882.246,-88.2463 813.458,-53.7463 951.034,-53.7463 882.246,-88.2463"/>
<text text-anchor="middle" x="882.246" y="-61.5463" font-family="Times,serif" font-size="14.00">Mount</text>
</g>
<!-- Waverley&#45;&gt;Mount -->
<g id="edge4" class="edge"><title>Waverley&#45;&gt;Mount</title>
<path fill="none" stroke="grey" d="M918.582,-152.108C912.29,-137.239 901.959,-112.827 893.918,-93.8259"/>
<polygon fill="grey" stroke="grey" points="897.076,-92.3074 889.955,-84.4622 890.629,-95.0356 897.076,-92.3074"/>
</g>
<!-- Glen Waverley -->
<g id="node6" class="node"><title>Glen Waverley</title>
<polygon fill="none" stroke="#0000cd" points="879.421,-172.055 799.246,-184.493 719.071,-172.055 749.695,-151.93 848.797,-151.93 879.421,-172.055"/>
<text text-anchor="middle" x="799.246" y="-162.793" font-family="Times,serif" font-size="14.00">Glen Waverley</text>
</g>
<!-- Mount Waverley -->
<g id="node7" class="node"><title>Mount Waverley</title>
<polygon fill="none" stroke="darkslategrey" points="558.246,-189.493 415.272,-154.993 701.221,-154.993 558.246,-189.493"/>
<text text-anchor="middle" x="558.246" y="-162.793" font-family="Times,serif" font-size="14.00">Mount Waverley</text>
</g>
<!-- Glen -->
<g id="node8" class="node"><title>Glen</title>
<polygon fill="none" stroke="#0000cd" points="341.246,-189.493 285.456,-154.993 397.037,-154.993 341.246,-189.493"/>
<text text-anchor="middle" x="341.246" y="-162.793" font-family="Times,serif" font-size="14.00">Glen</text>
</g>
<!-- Malvern -->
<g id="node10" class="node"><title>Malvern</title>
<polygon fill="none" stroke="cyan" points="153.246,-274.493 71.4606,-239.993 235.032,-239.993 153.246,-274.493"/>
<text text-anchor="middle" x="153.246" y="-247.793" font-family="Times,serif" font-size="14.00">Malvern</text>
</g>
<!-- Malvern&#45;&gt;Murrumbeena -->
<g id="edge6" class="edge"><title>Malvern&#45;&gt;Murrumbeena</title>
<path fill="none" stroke="grey" d="M145.647,-239.98C137.133,-228.203 123.027,-208.689 111.593,-192.873"/>
<polygon fill="grey" stroke="grey" points="114.264,-190.593 105.569,-184.539 108.591,-194.694 114.264,-190.593"/>
</g>
<!-- Prahran -->
<g id="node11" class="node"><title>Prahran</title>
<polygon fill="none" stroke="cyan" points="245.053,-184.493 181.44,-184.493 158.785,-148.493 267.708,-148.493 245.053,-184.493"/>
<text text-anchor="middle" x="213.246" y="-162.793" font-family="Times,serif" font-size="14.00">Prahran</text>
</g>
<!-- Malvern&#45;&gt;Prahran -->
<g id="edge5" class="edge"><title>Malvern&#45;&gt;Prahran</title>
<path fill="none" stroke="grey" d="M160.845,-239.98C169.359,-228.203 183.466,-208.689 194.899,-192.873"/>
<polygon fill="grey" stroke="grey" points="197.901,-194.694 200.923,-184.539 192.228,-190.593 197.901,-194.694"/>
</g>
</g>
</svg>
