<?xml version="1.0" encoding="UTF-8" standalone="no"?>
<!DOCTYPE svg PUBLIC "-//W3C//DTD SVG 1.1//EN"
 "http://www.w3.org/Graphics/SVG/1.1/DTD/svg11.dtd">
<!-- Generated by graphviz version 2.37.20140310.0445 (20140310.0445)
 -->
<!-- Title: Perl Pages: 1 -->
<svg width="751pt" height="313pt"
 viewBox="0.00 0.00 751.00 313.00" xmlns="http://www.w3.org/2000/svg" xmlns:xlink="http://www.w3.org/1999/xlink">
<g id="graph0" class="graph" transform="scale(1 1) rotate(0) translate(4 309)">
<title>Perl</title>
<polygon fill="white" stroke="none" points="-4,4 -4,-309 747,-309 747,4 -4,4"/>
<text text-anchor="middle" x="371.5" y="-7.8" font-family="Times,serif" font-size="14.00">Adult</text>
<g id="clust2" class="cluster"><title>cluster_2</title>
<polygon fill="none" stroke="black" points="433,-135 433,-297 735,-297 735,-135 433,-135"/>
<text text-anchor="middle" x="584" y="-281.8" font-family="Times,serif" font-size="14.00">Grandchild</text>
</g>
<!-- Carnegie -->
<g id="node1" class="node"><title>Carnegie</title>
<ellipse fill="none" stroke="black" cx="42" cy="-65" rx="42.3701" ry="42.4939"/>
<text text-anchor="middle" x="42" y="-61.3" font-family="Times,serif" font-size="14.00">Carnegie</text>
</g>
<!-- Murrumbeena -->
<g id="node2" class="node"><title>Murrumbeena</title>
<polygon fill="none" stroke="green" points="140.25,-184 45.75,-184 45.75,-148 140.25,-148 140.25,-184"/>
<text text-anchor="middle" x="93" y="-162.3" font-family="Times,serif" font-size="14.00">Murrumbeena</text>
</g>
<!-- Murrumbeena&#45;&gt;Carnegie -->
<g id="edge1" class="edge"><title>Murrumbeena&#45;&gt;Carnegie</title>
<path fill="none" stroke="grey" d="M84.1165,-147.756C80.2062,-140.165 75.3727,-130.782 70.39,-121.11"/>
<polygon fill="grey" stroke="grey" points="76.5131,-117.711 61.1311,-103.137 64.0674,-124.122 76.5131,-117.711"/>
</g>
<!-- Oakleigh -->
<g id="node3" class="node"><title>Oakleigh</title>
<ellipse fill="none" stroke="blue" cx="145" cy="-65" rx="42.3456" ry="18"/>
<text text-anchor="middle" x="145" y="-61.3" font-family="Times,serif" font-size="14.00">Oakleigh</text>
</g>
<!-- Murrumbeena&#45;&gt;Oakleigh -->
<g id="edge2" class="edge"><title>Murrumbeena&#45;&gt;Oakleigh</title>
<path fill="none" stroke="brown" d="M102.058,-147.756C110.16,-132.33 122.15,-109.504 131.402,-91.8876"/>
<polygon fill="brown" stroke="brown" points="134.668,-93.1976 136.219,-82.717 128.471,-89.9425 134.668,-93.1976"/>
</g>
<!-- Chadstone -->
<g id="node4" class="node"><title>Chadstone</title>
<polygon fill="none" stroke="magenta" points="414.304,-248 386.652,-266 331.348,-266 303.696,-248 331.348,-230 386.652,-230 414.304,-248"/>
<text text-anchor="middle" x="359" y="-244.3" font-family="Times,serif" font-size="14.00">Chadstone</text>
</g>
<!-- Waverley -->
<g id="node5" class="node"><title>Waverley</title>
<polygon fill="none" stroke="orange" points="359,-184 294.988,-166 359,-148 423.012,-166 359,-184"/>
<text text-anchor="middle" x="359" y="-162.3" font-family="Times,serif" font-size="14.00">Waverley</text>
</g>
<!-- Chadstone&#45;&gt;Waverley -->
<g id="edge3" class="edge"><title>Chadstone&#45;&gt;Waverley</title>
<path fill="none" stroke="grey" d="M359,-229.641C359,-219.297 359,-205.941 359,-194.221"/>
<polygon fill="grey" stroke="grey" points="362.5,-194.05 359,-184.05 355.5,-194.05 362.5,-194.05"/>
</g>
<!-- Glen Waverley -->
<g id="node6" class="node"><title>Glen Waverley</title>
<polygon fill="none" stroke="#0000cd" points="664.007,-253.562 584,-266 503.993,-253.562 534.553,-233.438 633.447,-233.438 664.007,-253.562"/>
<text text-anchor="middle" x="584" y="-244.3" font-family="Times,serif" font-size="14.00">Glen Waverley</text>
</g>
<!-- Mount Waverley -->
<g id="node7" class="node"><title>Mount Waverley</title>
<polygon fill="none" stroke="darkslategrey" points="584,-189 441.519,-154.5 726.481,-154.5 584,-189"/>
<text text-anchor="middle" x="584" y="-162.3" font-family="Times,serif" font-size="14.00">Mount Waverley</text>
</g>
<!-- Glen Waverley&#45;&gt;Mount Waverley -->
<g id="edge4" class="edge"><title>Glen Waverley&#45;&gt;Mount Waverley</title>
<path fill="none" stroke="grey" d="M584,-233.429C584,-224.051 584,-211.164 584,-199.236"/>
<polygon fill="grey" stroke="grey" points="587.5,-199.112 584,-189.112 580.5,-199.112 587.5,-199.112"/>
</g>
<!-- Malvern -->
<g id="node8" class="node"><title>Malvern</title>
<polygon fill="none" stroke="cyan" points="149,-271 67.6602,-236.5 230.34,-236.5 149,-271"/>
<text text-anchor="middle" x="149" y="-244.3" font-family="Times,serif" font-size="14.00">Malvern</text>
</g>
<!-- Malvern&#45;&gt;Murrumbeena -->
<g id="edge6" class="edge"><title>Malvern&#45;&gt;Murrumbeena</title>
<path fill="none" stroke="grey" d="M141.448,-236.211C133.611,-225.016 121.076,-207.109 110.72,-192.315"/>
<polygon fill="grey" stroke="grey" points="113.528,-190.223 104.926,-184.038 107.794,-194.237 113.528,-190.223"/>
</g>
<!-- Prahran -->
<g id="node9" class="node"><title>Prahran</title>
<polygon fill="none" stroke="cyan" points="244.739,-184 181.261,-184 158.654,-148 267.346,-148 244.739,-184"/>
<text text-anchor="middle" x="213" y="-162.3" font-family="Times,serif" font-size="14.00">Prahran</text>
</g>
<!-- Malvern&#45;&gt;Prahran -->
<g id="edge5" class="edge"><title>Malvern&#45;&gt;Prahran</title>
<path fill="none" stroke="grey" d="M157.631,-236.211C166.671,-224.911 181.181,-206.774 193.079,-191.901"/>
<polygon fill="grey" stroke="grey" points="195.856,-194.033 199.37,-184.038 190.39,-189.66 195.856,-194.033"/>
</g>
</g>
</svg>
