<?xml version="1.0" encoding="UTF-8" standalone="no"?>
<!DOCTYPE svg PUBLIC "-//W3C//DTD SVG 1.1//EN"
 "http://www.w3.org/Graphics/SVG/1.1/DTD/svg11.dtd">
<!-- Generated by graphviz version 2.38.0 (20140413.2041)
 -->
<!-- Title: Perl Pages: 1 -->
<svg width="244pt" height="250pt"
 viewBox="0.00 0.00 244.00 250.00" xmlns="http://www.w3.org/2000/svg" xmlns:xlink="http://www.w3.org/1999/xlink">
<g id="graph0" class="graph" transform="scale(1 1) rotate(0) translate(4 246)">
<title>Perl</title>
<polygon fill="white" stroke="none" points="-4,4 -4,-246 240,-246 240,4 -4,4"/>
<text text-anchor="middle" x="118" y="-7.8" font-family="Times,serif" font-size="14.00">Adult</text>
<g id="clust1" class="cluster"><title>cluster_1</title>
<polygon fill="none" stroke="black" points="158,-87 158,-234 228,-234 228,-87 158,-87"/>
<text text-anchor="middle" x="193" y="-218.8" font-family="Times,serif" font-size="14.00">Child</text>
</g>
<!-- Carnegie -->
<g id="node1" class="node"><title>Carnegie</title>
<ellipse fill="none" stroke="black" cx="18" cy="-41" rx="18" ry="18"/>
</g>
<!-- Murrumbeena -->
<g id="node2" class="node"><title>Murrumbeena</title>
<polygon fill="none" stroke="green" points="76,-131 22,-131 22,-95 76,-95 76,-131"/>
</g>
<!-- Murrumbeena&#45;&gt;Carnegie -->
<g id="edge1" class="edge"><title>Murrumbeena&#45;&gt;Carnegie</title>
<path fill="none" stroke="grey" d="M41.3371,-94.6966C38.8269,-89.0285 35.9446,-82.5202 33.0814,-76.0548"/>
<polygon fill="grey" stroke="grey" points="39.4391,-73.1237 24.9401,-57.6712 26.6382,-78.7927 39.4391,-73.1237"/>
</g>
<!-- Oakleigh -->
<g id="node3" class="node"><title>Oakleigh</title>
<ellipse fill="none" stroke="blue" cx="81" cy="-41" rx="27" ry="18"/>
</g>
<!-- Murrumbeena&#45;&gt;Oakleigh -->
<g id="edge2" class="edge"><title>Murrumbeena&#45;&gt;Oakleigh</title>
<path fill="none" stroke="brown" d="M56.9101,-94.6966C60.6071,-86.6095 65.0861,-76.8117 69.1741,-67.8691"/>
<polygon fill="brown" stroke="brown" points="72.4267,-69.1722 73.4012,-58.6223 66.0604,-66.2619 72.4267,-69.1722"/>
</g>
<!-- Chadstone -->
<g id="node4" class="node"><title>Chadstone</title>
<polygon fill="none" stroke="magenta" points="220,-185 206.5,-203 179.5,-203 166,-185 179.5,-167 206.5,-167 220,-185"/>
</g>
<!-- Waverley -->
<g id="node5" class="node"><title>Waverley</title>
<polygon fill="none" stroke="orange" points="193,-131 166,-113 193,-95 220,-113 193,-131"/>
</g>
<!-- Chadstone&#45;&gt;Waverley -->
<g id="edge3" class="edge"><title>Chadstone&#45;&gt;Waverley</title>
<path fill="none" stroke="grey" d="M193,-166.697C193,-158.983 193,-149.712 193,-141.112"/>
<polygon fill="grey" stroke="grey" points="196.5,-141.104 193,-131.104 189.5,-141.104 196.5,-141.104"/>
</g>
<!-- Malvern -->
<g id="node6" class="node"><title>Malvern</title>
<polygon fill="none" stroke="cyan" points="85,-203 58,-185 85,-167 112,-185 85,-203"/>
</g>
<!-- Malvern&#45;&gt;Murrumbeena -->
<g id="edge5" class="edge"><title>Malvern&#45;&gt;Murrumbeena</title>
<path fill="none" stroke="grey" d="M78.397,-171.161C73.9383,-162.491 67.8947,-150.74 62.4466,-140.146"/>
<polygon fill="grey" stroke="grey" points="65.5532,-138.534 57.8671,-131.242 59.3281,-141.735 65.5532,-138.534"/>
</g>
<!-- Prahran -->
<g id="node7" class="node"><title>Prahran</title>
<polygon fill="none" stroke="cyan" points="136.768,-131 105.232,-131 94,-95 148,-95 136.768,-131"/>
</g>
<!-- Malvern&#45;&gt;Prahran -->
<g id="edge4" class="edge"><title>Malvern&#45;&gt;Prahran</title>
<path fill="none" stroke="grey" d="M91.603,-171.161C96.0617,-162.491 102.105,-150.74 107.553,-140.146"/>
<polygon fill="grey" stroke="grey" points="110.672,-141.735 112.133,-131.242 104.447,-138.534 110.672,-141.735"/>
</g>
</g>
</svg>
