<?xml version="1.0" encoding="UTF-8" standalone="no"?>
<!DOCTYPE svg PUBLIC "-//W3C//DTD SVG 1.1//EN"
 "http://www.w3.org/Graphics/SVG/1.1/DTD/svg11.dtd">
<!-- Generated by graphviz version 2.38.0 (20140413.2041)
 -->
<!-- Title: Perl Pages: 1 -->
<svg width="438pt" height="298pt"
 viewBox="0.00 0.00 438.25 298.49" xmlns="http://www.w3.org/2000/svg" xmlns:xlink="http://www.w3.org/1999/xlink">
<g id="graph0" class="graph" transform="scale(1 1) rotate(0) translate(4 294.493)">
<title>Perl</title>
<polygon fill="white" stroke="none" points="-4,4 -4,-294.493 434.246,-294.493 434.246,4 -4,4"/>
<text text-anchor="middle" x="215.123" y="-7.8" font-family="Times,serif" font-size="14.00">Adult</text>
<g id="clust1" class="cluster"><title>cluster_1</title>
<polygon fill="none" stroke="black" points="278.246,-135.493 278.246,-282.493 422.246,-282.493 422.246,-135.493 278.246,-135.493"/>
<text text-anchor="middle" x="350.246" y="-267.293" font-family="Times,serif" font-size="14.00">Child</text>
</g>
<!-- Carnegie -->
<g id="node1" class="node"><title>Carnegie</title>
<ellipse fill="none" stroke="black" cx="42.2463" cy="-65.2463" rx="42.4939" ry="42.4939"/>
<text text-anchor="middle" x="42.2463" y="-61.5463" font-family="Times,serif" font-size="14.00">Carnegie</text>
</g>
<!-- Murrumbeena -->
<g id="node2" class="node"><title>Murrumbeena</title>
<polygon fill="none" stroke="green" points="140.746,-179.493 45.7463,-179.493 45.7463,-143.493 140.746,-143.493 140.746,-179.493"/>
<text text-anchor="middle" x="93.2463" y="-157.793" font-family="Times,serif" font-size="14.00">Murrumbeena</text>
</g>
<!-- Murrumbeena&#45;&gt;Carnegie -->
<g id="edge1" class="edge"><title>Murrumbeena&#45;&gt;Carnegie</title>
<path fill="none" stroke="grey" d="M83.8921,-143.206C80.3676,-136.693 76.1441,-128.888 71.7582,-120.783"/>
<polygon fill="grey" stroke="grey" points="77.7806,-117.204 62.1057,-102.946 65.4677,-123.867 77.7806,-117.204"/>
</g>
<!-- Oakleigh -->
<g id="node3" class="node"><title>Oakleigh</title>
<ellipse fill="none" stroke="blue" cx="145.246" cy="-65.2463" rx="42.7926" ry="18"/>
<text text-anchor="middle" x="145.246" y="-61.5463" font-family="Times,serif" font-size="14.00">Oakleigh</text>
</g>
<!-- Murrumbeena&#45;&gt;Oakleigh -->
<g id="edge2" class="edge"><title>Murrumbeena&#45;&gt;Oakleigh</title>
<path fill="none" stroke="brown" d="M102.784,-143.206C110.676,-128.902 122.006,-108.367 130.978,-92.1066"/>
<polygon fill="brown" stroke="brown" points="134.178,-93.5523 135.944,-83.1058 128.049,-90.1707 134.178,-93.5523"/>
</g>
<!-- Chadstone -->
<g id="node4" class="node"><title>Chadstone</title>
<polygon fill="none" stroke="magenta" points="405.819,-233.493 378.032,-251.493 322.46,-251.493 294.674,-233.493 322.46,-215.493 378.032,-215.493 405.819,-233.493"/>
<text text-anchor="middle" x="350.246" y="-229.793" font-family="Times,serif" font-size="14.00">Chadstone</text>
</g>
<!-- Waverley -->
<g id="node5" class="node"><title>Waverley</title>
<polygon fill="none" stroke="orange" points="350.246,-179.493 286.064,-161.493 350.246,-143.493 414.429,-161.493 350.246,-179.493"/>
<text text-anchor="middle" x="350.246" y="-157.793" font-family="Times,serif" font-size="14.00">Waverley</text>
</g>
<!-- Chadstone&#45;&gt;Waverley -->
<g id="edge3" class="edge"><title>Chadstone&#45;&gt;Waverley</title>
<path fill="none" stroke="grey" d="M350.246,-215.189C350.246,-207.475 350.246,-198.205 350.246,-189.605"/>
<polygon fill="grey" stroke="grey" points="353.746,-189.597 350.246,-179.597 346.746,-189.597 353.746,-189.597"/>
</g>
<!-- Malvern -->
<g id="node6" class="node"><title>Malvern</title>
<polygon fill="none" stroke="cyan" points="152.246,-251.493 94.4323,-233.493 152.246,-215.493 210.06,-233.493 152.246,-251.493"/>
<text text-anchor="middle" x="152.246" y="-229.793" font-family="Times,serif" font-size="14.00">Malvern</text>
</g>
<!-- Malvern&#45;&gt;Murrumbeena -->
<g id="edge5" class="edge"><title>Malvern&#45;&gt;Murrumbeena</title>
<path fill="none" stroke="grey" d="M140.87,-218.996C133.346,-210.068 123.252,-198.092 114.294,-187.464"/>
<polygon fill="grey" stroke="grey" points="116.847,-185.063 107.726,-179.672 111.495,-189.574 116.847,-185.063"/>
</g>
<!-- Prahran -->
<g id="node7" class="node"><title>Prahran</title>
<polygon fill="none" stroke="cyan" points="245.053,-179.493 181.44,-179.493 158.785,-143.493 267.708,-143.493 245.053,-179.493"/>
<text text-anchor="middle" x="213.246" y="-157.793" font-family="Times,serif" font-size="14.00">Prahran</text>
</g>
<!-- Malvern&#45;&gt;Prahran -->
<g id="edge4" class="edge"><title>Malvern&#45;&gt;Prahran</title>
<path fill="none" stroke="grey" d="M164.008,-218.996C171.788,-210.068 182.223,-198.092 191.485,-187.464"/>
<polygon fill="grey" stroke="grey" points="194.344,-189.511 198.275,-179.672 189.067,-184.912 194.344,-189.511"/>
</g>
</g>
</svg>
