<?xml version="1.0" encoding="UTF-8" standalone="no"?>
<!DOCTYPE svg PUBLIC "-//W3C//DTD SVG 1.1//EN"
 "http://www.w3.org/Graphics/SVG/1.1/DTD/svg11.dtd">
<!-- Generated by graphviz version 2.37.20140310.0445 (20140310.0445)
 -->
<!-- Title: Perl Pages: 1 -->
<svg width="438pt" height="298pt"
 viewBox="0.00 0.00 438.00 298.00" xmlns="http://www.w3.org/2000/svg" xmlns:xlink="http://www.w3.org/1999/xlink">
<g id="graph0" class="graph" transform="scale(1 1) rotate(0) translate(4 294)">
<title>Perl</title>
<polygon fill="white" stroke="none" points="-4,4 -4,-294 434,-294 434,4 -4,4"/>
<text text-anchor="middle" x="215" y="-7.8" font-family="Times,serif" font-size="14.00">Adult</text>
<g id="clust1" class="cluster"><title>cluster_1</title>
<polygon fill="none" stroke="black" points="278,-135 278,-282 422,-282 422,-135 278,-135"/>
<text text-anchor="middle" x="350" y="-266.8" font-family="Times,serif" font-size="14.00">Child</text>
</g>
<!-- Carnegie -->
<g id="node1" class="node"><title>Carnegie</title>
<ellipse fill="none" stroke="black" cx="42" cy="-65" rx="42.3701" ry="42.4939"/>
<text text-anchor="middle" x="42" y="-61.3" font-family="Times,serif" font-size="14.00">Carnegie</text>
</g>
<!-- Murrumbeena -->
<g id="node2" class="node"><title>Murrumbeena</title>
<polygon fill="none" stroke="green" points="140.25,-179 45.75,-179 45.75,-143 140.25,-143 140.25,-179"/>
<text text-anchor="middle" x="93" y="-157.3" font-family="Times,serif" font-size="14.00">Murrumbeena</text>
</g>
<!-- Murrumbeena&#45;&gt;Carnegie -->
<g id="edge1" class="edge"><title>Murrumbeena&#45;&gt;Carnegie</title>
<path fill="none" stroke="grey" d="M83.6458,-142.759C80.1214,-136.263 75.8979,-128.478 71.5119,-120.395"/>
<polygon fill="grey" stroke="grey" points="77.5499,-116.845 61.8594,-102.604 65.2444,-123.521 77.5499,-116.845"/>
</g>
<!-- Oakleigh -->
<g id="node3" class="node"><title>Oakleigh</title>
<ellipse fill="none" stroke="blue" cx="145" cy="-65" rx="42.3456" ry="18"/>
<text text-anchor="middle" x="145" y="-61.3" font-family="Times,serif" font-size="14.00">Oakleigh</text>
</g>
<!-- Murrumbeena&#45;&gt;Oakleigh -->
<g id="edge2" class="edge"><title>Murrumbeena&#45;&gt;Oakleigh</title>
<path fill="none" stroke="brown" d="M102.538,-142.759C110.43,-128.492 121.76,-108.011 130.732,-91.7928"/>
<polygon fill="brown" stroke="brown" points="133.92,-93.2601 135.698,-82.8155 127.795,-89.8716 133.92,-93.2601"/>
</g>
<!-- Chadstone -->
<g id="node4" class="node"><title>Chadstone</title>
<polygon fill="none" stroke="magenta" points="405.304,-233 377.652,-251 322.348,-251 294.696,-233 322.348,-215 377.652,-215 405.304,-233"/>
<text text-anchor="middle" x="350" y="-229.3" font-family="Times,serif" font-size="14.00">Chadstone</text>
</g>
<!-- Waverley -->
<g id="node5" class="node"><title>Waverley</title>
<polygon fill="none" stroke="orange" points="350,-179 285.988,-161 350,-143 414.012,-161 350,-179"/>
<text text-anchor="middle" x="350" y="-157.3" font-family="Times,serif" font-size="14.00">Waverley</text>
</g>
<!-- Chadstone&#45;&gt;Waverley -->
<g id="edge3" class="edge"><title>Chadstone&#45;&gt;Waverley</title>
<path fill="none" stroke="grey" d="M350,-214.697C350,-206.983 350,-197.712 350,-189.112"/>
<polygon fill="grey" stroke="grey" points="353.5,-189.104 350,-179.104 346.5,-189.104 353.5,-189.104"/>
</g>
<!-- Malvern -->
<g id="node6" class="node"><title>Malvern</title>
<polygon fill="none" stroke="cyan" points="152,-251 94.6388,-233 152,-215 209.361,-233 152,-251"/>
<text text-anchor="middle" x="152" y="-229.3" font-family="Times,serif" font-size="14.00">Malvern</text>
</g>
<!-- Malvern&#45;&gt;Murrumbeena -->
<g id="edge5" class="edge"><title>Malvern&#45;&gt;Murrumbeena</title>
<path fill="none" stroke="grey" d="M140.624,-218.503C133.099,-209.575 123.006,-197.6 114.048,-186.972"/>
<polygon fill="grey" stroke="grey" points="116.601,-184.571 107.48,-179.18 111.249,-189.082 116.601,-184.571"/>
</g>
<!-- Prahran -->
<g id="node7" class="node"><title>Prahran</title>
<polygon fill="none" stroke="cyan" points="244.739,-179 181.261,-179 158.654,-143 267.346,-143 244.739,-179"/>
<text text-anchor="middle" x="213" y="-157.3" font-family="Times,serif" font-size="14.00">Prahran</text>
</g>
<!-- Malvern&#45;&gt;Prahran -->
<g id="edge4" class="edge"><title>Malvern&#45;&gt;Prahran</title>
<path fill="none" stroke="grey" d="M163.761,-218.503C171.541,-209.575 181.977,-197.6 191.239,-186.972"/>
<polygon fill="grey" stroke="grey" points="194.098,-189.018 198.029,-179.18 188.82,-184.42 194.098,-189.018"/>
</g>
</g>
</svg>
