<?xml version="1.0" encoding="UTF-8" standalone="no"?>
<!DOCTYPE svg PUBLIC "-//W3C//DTD SVG 1.1//EN"
 "http://www.w3.org/Graphics/SVG/1.1/DTD/svg11.dtd">
<!-- Generated by graphviz version 2.38.0 (20140413.2041)
 -->
<!-- Title: Perl Pages: 1 -->
<svg width="751pt" height="313pt"
 viewBox="0.00 0.00 751.25 313.49" xmlns="http://www.w3.org/2000/svg" xmlns:xlink="http://www.w3.org/1999/xlink">
<g id="graph0" class="graph" transform="scale(1 1) rotate(0) translate(4 309.493)">
<title>Perl</title>
<polygon fill="white" stroke="none" points="-4,4 -4,-309.493 747.246,-309.493 747.246,4 -4,4"/>
<text text-anchor="middle" x="371.623" y="-7.8" font-family="Times,serif" font-size="14.00">Adult</text>
<g id="clust2" class="cluster"><title>cluster_2</title>
<polygon fill="none" stroke="black" points="433.246,-135.493 433.246,-297.493 735.246,-297.493 735.246,-135.493 433.246,-135.493"/>
<text text-anchor="middle" x="584.246" y="-282.293" font-family="Times,serif" font-size="14.00">Grandchild</text>
</g>
<!-- Carnegie -->
<g id="node1" class="node"><title>Carnegie</title>
<ellipse fill="none" stroke="black" cx="42.2463" cy="-65.2463" rx="42.4939" ry="42.4939"/>
<text text-anchor="middle" x="42.2463" y="-61.5463" font-family="Times,serif" font-size="14.00">Carnegie</text>
</g>
<!-- Murrumbeena -->
<g id="node2" class="node"><title>Murrumbeena</title>
<polygon fill="none" stroke="green" points="140.746,-184.493 45.7463,-184.493 45.7463,-148.493 140.746,-148.493 140.746,-184.493"/>
<text text-anchor="middle" x="93.2463" y="-162.793" font-family="Times,serif" font-size="14.00">Murrumbeena</text>
</g>
<!-- Murrumbeena&#45;&gt;Carnegie -->
<g id="edge1" class="edge"><title>Murrumbeena&#45;&gt;Carnegie</title>
<path fill="none" stroke="grey" d="M84.3627,-148.205C80.3673,-140.43 75.4079,-130.779 70.3104,-120.859"/>
<polygon fill="grey" stroke="grey" points="76.5316,-117.65 61.1643,-103.061 64.0794,-124.049 76.5316,-117.65"/>
</g>
<!-- Oakleigh -->
<g id="node3" class="node"><title>Oakleigh</title>
<ellipse fill="none" stroke="blue" cx="145.246" cy="-65.2463" rx="42.7926" ry="18"/>
<text text-anchor="middle" x="145.246" y="-61.5463" font-family="Times,serif" font-size="14.00">Oakleigh</text>
</g>
<!-- Murrumbeena&#45;&gt;Oakleigh -->
<g id="edge2" class="edge"><title>Murrumbeena&#45;&gt;Oakleigh</title>
<path fill="none" stroke="brown" d="M102.304,-148.205C110.406,-132.742 122.396,-109.858 131.649,-92.1982"/>
<polygon fill="brown" stroke="brown" points="134.925,-93.487 136.466,-83.0048 128.724,-90.2383 134.925,-93.487"/>
</g>
<!-- Chadstone -->
<g id="node4" class="node"><title>Chadstone</title>
<polygon fill="none" stroke="magenta" points="414.819,-248.493 387.032,-266.493 331.46,-266.493 303.674,-248.493 331.46,-230.493 387.032,-230.493 414.819,-248.493"/>
<text text-anchor="middle" x="359.246" y="-244.793" font-family="Times,serif" font-size="14.00">Chadstone</text>
</g>
<!-- Waverley -->
<g id="node5" class="node"><title>Waverley</title>
<polygon fill="none" stroke="orange" points="359.246,-184.493 295.064,-166.493 359.246,-148.493 423.429,-166.493 359.246,-184.493"/>
<text text-anchor="middle" x="359.246" y="-162.793" font-family="Times,serif" font-size="14.00">Waverley</text>
</g>
<!-- Chadstone&#45;&gt;Waverley -->
<g id="edge3" class="edge"><title>Chadstone&#45;&gt;Waverley</title>
<path fill="none" stroke="grey" d="M359.246,-230.134C359.246,-219.79 359.246,-206.434 359.246,-194.713"/>
<polygon fill="grey" stroke="grey" points="362.746,-194.543 359.246,-184.543 355.746,-194.543 362.746,-194.543"/>
</g>
<!-- Glen Waverley -->
<g id="node6" class="node"><title>Glen Waverley</title>
<polygon fill="none" stroke="#0000cd" points="664.421,-254.055 584.246,-266.493 504.071,-254.055 534.695,-233.93 633.797,-233.93 664.421,-254.055"/>
<text text-anchor="middle" x="584.246" y="-244.793" font-family="Times,serif" font-size="14.00">Glen Waverley</text>
</g>
<!-- Mount Waverley -->
<g id="node7" class="node"><title>Mount Waverley</title>
<polygon fill="none" stroke="darkslategrey" points="584.246,-189.493 441.272,-154.993 727.221,-154.993 584.246,-189.493"/>
<text text-anchor="middle" x="584.246" y="-162.793" font-family="Times,serif" font-size="14.00">Mount Waverley</text>
</g>
<!-- Glen Waverley&#45;&gt;Mount Waverley -->
<g id="edge4" class="edge"><title>Glen Waverley&#45;&gt;Mount Waverley</title>
<path fill="none" stroke="grey" d="M584.246,-233.922C584.246,-224.543 584.246,-211.657 584.246,-199.728"/>
<polygon fill="grey" stroke="grey" points="587.746,-199.604 584.246,-189.604 580.746,-199.604 587.746,-199.604"/>
</g>
<!-- Malvern -->
<g id="node8" class="node"><title>Malvern</title>
<polygon fill="none" stroke="cyan" points="149.246,-271.493 67.4606,-236.993 231.032,-236.993 149.246,-271.493"/>
<text text-anchor="middle" x="149.246" y="-244.793" font-family="Times,serif" font-size="14.00">Malvern</text>
</g>
<!-- Malvern&#45;&gt;Murrumbeena -->
<g id="edge6" class="edge"><title>Malvern&#45;&gt;Murrumbeena</title>
<path fill="none" stroke="grey" d="M141.694,-236.703C133.857,-225.509 121.323,-207.602 110.967,-192.807"/>
<polygon fill="grey" stroke="grey" points="113.775,-190.716 105.173,-184.53 108.04,-194.73 113.775,-190.716"/>
</g>
<!-- Prahran -->
<g id="node9" class="node"><title>Prahran</title>
<polygon fill="none" stroke="cyan" points="245.053,-184.493 181.44,-184.493 158.785,-148.493 267.708,-148.493 245.053,-184.493"/>
<text text-anchor="middle" x="213.246" y="-162.793" font-family="Times,serif" font-size="14.00">Prahran</text>
</g>
<!-- Malvern&#45;&gt;Prahran -->
<g id="edge5" class="edge"><title>Malvern&#45;&gt;Prahran</title>
<path fill="none" stroke="grey" d="M157.878,-236.703C166.917,-225.404 181.427,-207.266 193.326,-192.393"/>
<polygon fill="grey" stroke="grey" points="196.102,-194.526 199.616,-184.53 190.636,-190.153 196.102,-194.526"/>
</g>
</g>
</svg>
