<?xml version="1.0" encoding="UTF-8" standalone="no"?>
<!DOCTYPE svg PUBLIC "-//W3C//DTD SVG 1.1//EN"
 "http://www.w3.org/Graphics/SVG/1.1/DTD/svg11.dtd">
<!-- Generated by graphviz version 2.26.3 (20100126.1600)
 -->
<!-- Title: Perl Pages: 1 -->
<svg width="210pt" height="172pt"
 viewBox="0.00 0.00 210.00 172.00" xmlns="http://www.w3.org/2000/svg" xmlns:xlink="http://www.w3.org/1999/xlink">
<g id="graph1" class="graph" transform="scale(1 1) rotate(0) translate(4 168)">
<title>Perl</title>
<polygon fill="white" stroke="white" points="-4,5 -4,-168 207,-168 207,5 -4,5"/>
<!-- Carnegie -->
<g id="node1" class="node"><title>Carnegie</title>
<ellipse fill="red" stroke="red" cx="46" cy="-46" rx="45.9619" ry="45.9619"/>
<text text-anchor="middle" x="46" y="-42.9" font-family="Times Roman,serif" font-size="14.00">Carnegie</text>
</g>
<!-- Murrumbeena -->
<g id="node2" class="node"><title>Murrumbeena</title>
<polyline fill="none" stroke="green" points="136,-164 66,-164 "/>
<path fill="none" stroke="green" d="M66,-164C60,-164 54,-158 54,-152"/>
<polyline fill="none" stroke="green" points="54,-152 54,-140 "/>
<path fill="none" stroke="green" d="M54,-140C54,-134 60,-128 66,-128"/>
<polyline fill="none" stroke="green" points="66,-128 136,-128 "/>
<path fill="none" stroke="green" d="M136,-128C142,-128 148,-134 148,-140"/>
<polyline fill="none" stroke="green" points="148,-140 148,-152 "/>
<path fill="none" stroke="green" d="M148,-152C148,-158 142,-164 136,-164"/>
<text text-anchor="middle" x="101" y="-142.9" font-family="Times Roman,serif" font-size="14.00">Murrumbeena</text>
</g>
<!-- Murrumbeena&#45;&gt;Carnegie -->
<g id="edge2" class="edge"><title>Murrumbeena&#45;&gt;Carnegie</title>
<path fill="none" stroke="grey" d="M90.9122,-127.658C87.1558,-120.829 82.6632,-112.66 77.993,-104.169"/>
<polygon fill="grey" stroke="grey" points="84.1079,-100.762 68.3359,-86.6107 71.8408,-107.509 84.1079,-100.762"/>
</g>
<!-- Oakleigh -->
<g id="node3" class="node"><title>Oakleigh</title>
<ellipse fill="none" stroke="blue" cx="156" cy="-46" rx="46.1672" ry="19.0919"/>
<text text-anchor="middle" x="156" y="-42.9" font-family="Times Roman,serif" font-size="14.00">Oakleigh</text>
</g>
<!-- Murrumbeena&#45;&gt;Oakleigh -->
<g id="edge4" class="edge"><title>Murrumbeena&#45;&gt;Oakleigh</title>
<path fill="none" stroke="brown" d="M111.088,-127.658C115.479,-119.674 120.877,-109.859 126.389,-99.838"/>
<polygon fill="brown" stroke="brown" points="138.78,-106.359 145.79,-64.5639 114.246,-92.8657 138.78,-106.359"/>
</g>
</g>
</svg>
