<?xml version="1.0" encoding="UTF-8" standalone="no"?>
<!DOCTYPE svg PUBLIC "-//W3C//DTD SVG 1.1//EN"
 "http://www.w3.org/Graphics/SVG/1.1/DTD/svg11.dtd">
<!-- Generated by graphviz version 2.38.0 (20140413.2041)
 -->
<!-- Title: Perl Pages: 1 -->
<svg width="196pt" height="164pt"
 viewBox="0.00 0.00 196.14 164.49" xmlns="http://www.w3.org/2000/svg" xmlns:xlink="http://www.w3.org/1999/xlink">
<g id="graph0" class="graph" transform="scale(1 1) rotate(0) translate(4 160.493)">
<title>Perl</title>
<polygon fill="white" stroke="none" points="-4,4 -4,-160.493 192.142,-160.493 192.142,4 -4,4"/>
<!-- Carnegie -->
<g id="node1" class="node"><title>Carnegie</title>
<ellipse fill="red" stroke="red" cx="42.2463" cy="-42.2463" rx="42.4939" ry="42.4939"/>
<text text-anchor="middle" x="42.2463" y="-38.5463" font-family="Times,serif" font-size="14.00">Carnegie</text>
</g>
<!-- Murrumbeena -->
<g id="node2" class="node"><title>Murrumbeena</title>
<path fill="none" stroke="green" d="M128.746,-156.493C128.746,-156.493 57.7463,-156.493 57.7463,-156.493 51.7463,-156.493 45.7463,-150.493 45.7463,-144.493 45.7463,-144.493 45.7463,-132.493 45.7463,-132.493 45.7463,-126.493 51.7463,-120.493 57.7463,-120.493 57.7463,-120.493 128.746,-120.493 128.746,-120.493 134.746,-120.493 140.746,-126.493 140.746,-132.493 140.746,-132.493 140.746,-144.493 140.746,-144.493 140.746,-150.493 134.746,-156.493 128.746,-156.493"/>
<text text-anchor="middle" x="93.2463" y="-134.793" font-family="Times,serif" font-size="14.00">Murrumbeena</text>
</g>
<!-- Murrumbeena&#45;&gt;Carnegie -->
<g id="edge1" class="edge"><title>Murrumbeena&#45;&gt;Carnegie</title>
<path fill="none" stroke="grey" d="M83.8921,-120.206C80.3676,-113.693 76.1441,-105.888 71.7582,-97.7833"/>
<polygon fill="grey" stroke="grey" points="77.7806,-94.204 62.1057,-79.9457 65.4677,-100.867 77.7806,-94.204"/>
</g>
<!-- Oakleigh -->
<g id="node3" class="node"><title>Oakleigh</title>
<ellipse fill="none" stroke="blue" cx="145.246" cy="-42.2463" rx="42.7926" ry="18"/>
<text text-anchor="middle" x="145.246" y="-38.5463" font-family="Times,serif" font-size="14.00">Oakleigh</text>
</g>
<!-- Murrumbeena&#45;&gt;Oakleigh -->
<g id="edge2" class="edge"><title>Murrumbeena&#45;&gt;Oakleigh</title>
<path fill="none" stroke="brown" d="M102.784,-120.206C106.767,-112.987 111.625,-104.182 116.615,-95.1391"/>
<polygon fill="brown" stroke="brown" points="128.878,-101.892 135.944,-60.1058 104.362,-88.3653 128.878,-101.892"/>
</g>
</g>
</svg>
