<?xml version="1.0" encoding="UTF-8" standalone="no"?>
<!DOCTYPE svg PUBLIC "-//W3C//DTD SVG 1.1//EN"
 "http://www.w3.org/Graphics/SVG/1.1/DTD/svg11.dtd">
<!-- Generated by graphviz version 2.38.0 (20140413.2041)
 -->
<!-- Title: Perl Pages: 1 -->
<svg width="116pt" height="116pt"
 viewBox="0.00 0.00 116.00 116.00" xmlns="http://www.w3.org/2000/svg" xmlns:xlink="http://www.w3.org/1999/xlink">
<g id="graph0" class="graph" transform="scale(1 1) rotate(0) translate(4 112)">
<title>Perl</title>
<polygon fill="white" stroke="none" points="-4,4 -4,-112 112,-112 112,4 -4,4"/>
<!-- Carnegie -->
<g id="node1" class="node"><title>Carnegie</title>
<ellipse fill="red" stroke="red" cx="18" cy="-18" rx="18" ry="18"/>
</g>
<!-- Murrumbeena -->
<g id="node2" class="node"><title>Murrumbeena</title>
<path fill="none" stroke="green" d="M64,-108C64,-108 34,-108 34,-108 28,-108 22,-102 22,-96 22,-96 22,-84 22,-84 22,-78 28,-72 34,-72 34,-72 64,-72 64,-72 70,-72 76,-78 76,-84 76,-84 76,-96 76,-96 76,-102 70,-108 64,-108"/>
</g>
<!-- Murrumbeena&#45;&gt;Carnegie -->
<g id="edge1" class="edge"><title>Murrumbeena&#45;&gt;Carnegie</title>
<path fill="none" stroke="grey" d="M41.3371,-71.6966C38.8269,-66.0285 35.9446,-59.5202 33.0814,-53.0548"/>
<polygon fill="grey" stroke="grey" points="39.4391,-50.1237 24.9401,-34.6712 26.6382,-55.7927 39.4391,-50.1237"/>
</g>
<!-- Oakleigh -->
<g id="node3" class="node"><title>Oakleigh</title>
<ellipse fill="none" stroke="blue" cx="81" cy="-18" rx="27" ry="18"/>
</g>
<!-- Murrumbeena&#45;&gt;Oakleigh -->
<g id="edge2" class="edge"><title>Murrumbeena&#45;&gt;Oakleigh</title>
<path fill="none" stroke="brown" d="M56.9101,-71.6966C56.9494,-71.6106 56.9889,-71.5244 57.0284,-71.4379"/>
<polygon fill="brown" stroke="brown" points="69.5034,-77.8219 73.4012,-35.6223 44.0381,-66.1806 69.5034,-77.8219"/>
</g>
</g>
</svg>
