<?xml version="1.0" encoding="UTF-8" standalone="no"?>
<!DOCTYPE svg PUBLIC "-//W3C//DTD SVG 1.1//EN"
 "http://www.w3.org/Graphics/SVG/1.1/DTD/svg11.dtd">
<!-- Generated by graphviz version 2.37.20140310.0445 (20140310.0445)
 -->
<!-- Title: Perl Pages: 1 -->
<svg width="195pt" height="164pt"
 viewBox="0.00 0.00 195.00 164.00" xmlns="http://www.w3.org/2000/svg" xmlns:xlink="http://www.w3.org/1999/xlink">
<g id="graph0" class="graph" transform="scale(1 1) rotate(0) translate(4 160)">
<title>Perl</title>
<polygon fill="white" stroke="none" points="-4,4 -4,-160 191,-160 191,4 -4,4"/>
<!-- Carnegie -->
<g id="node1" class="node"><title>Carnegie</title>
<ellipse fill="red" stroke="red" cx="42" cy="-42" rx="42.3701" ry="42.4939"/>
<text text-anchor="middle" x="42" y="-38.3" font-family="Times,serif" font-size="14.00">Carnegie</text>
</g>
<!-- Murrumbeena -->
<g id="node2" class="node"><title>Murrumbeena</title>
<path fill="none" stroke="green" d="M128.25,-156C128.25,-156 57.75,-156 57.75,-156 51.75,-156 45.75,-150 45.75,-144 45.75,-144 45.75,-132 45.75,-132 45.75,-126 51.75,-120 57.75,-120 57.75,-120 128.25,-120 128.25,-120 134.25,-120 140.25,-126 140.25,-132 140.25,-132 140.25,-144 140.25,-144 140.25,-150 134.25,-156 128.25,-156"/>
<text text-anchor="middle" x="93" y="-134.3" font-family="Times,serif" font-size="14.00">Murrumbeena</text>
</g>
<!-- Murrumbeena&#45;&gt;Carnegie -->
<g id="edge1" class="edge"><title>Murrumbeena&#45;&gt;Carnegie</title>
<path fill="none" stroke="grey" d="M83.6458,-119.759C80.1214,-113.263 75.8979,-105.478 71.5119,-97.3945"/>
<polygon fill="grey" stroke="grey" points="77.5499,-93.8447 61.8594,-79.6036 65.2444,-100.521 77.5499,-93.8447"/>
</g>
<!-- Oakleigh -->
<g id="node3" class="node"><title>Oakleigh</title>
<ellipse fill="none" stroke="blue" cx="145" cy="-42" rx="42.3456" ry="18"/>
<text text-anchor="middle" x="145" y="-38.3" font-family="Times,serif" font-size="14.00">Oakleigh</text>
</g>
<!-- Murrumbeena&#45;&gt;Oakleigh -->
<g id="edge2" class="edge"><title>Murrumbeena&#45;&gt;Oakleigh</title>
<path fill="none" stroke="brown" d="M102.538,-119.759C106.484,-112.626 111.289,-103.939 116.23,-95.0077"/>
<polygon fill="brown" stroke="brown" points="128.586,-101.594 135.698,-59.8155 104.085,-88.04 128.586,-101.594"/>
</g>
</g>
</svg>
