<?xml version="1.0" encoding="UTF-8" standalone="no"?>
<!DOCTYPE svg PUBLIC "-//W3C//DTD SVG 1.1//EN"
 "http://www.w3.org/Graphics/SVG/1.1/DTD/svg11.dtd">
<!-- Generated by graphviz version 2.38.0 (20140413.2041)
 -->
<!-- Title: Perl Pages: 1 -->
<svg width="200pt" height="139pt"
 viewBox="0.00 0.00 200.00 139.00" xmlns="http://www.w3.org/2000/svg" xmlns:xlink="http://www.w3.org/1999/xlink">
<g id="graph0" class="graph" transform="scale(1 1) rotate(0) translate(4 135)">
<title>Perl</title>
<polygon fill="white" stroke="none" points="-4,4 -4,-135 196,-135 196,4 -4,4"/>
<text text-anchor="middle" x="96" y="-7.8" font-family="Times,serif" font-size="14.00">Named and unnamed subgraphs</text>
<!-- Chadstone -->
<g id="node1" class="node"><title>Chadstone</title>
<polygon fill="none" stroke="magenta" points="87,-113 73.5,-131 46.5,-131 33,-113 46.5,-95 73.5,-95 87,-113"/>
</g>
<!-- Waverley -->
<g id="node2" class="node"><title>Waverley</title>
<polygon fill="none" stroke="orange" points="60,-59 33,-41 60,-23 87,-41 60,-59"/>
</g>
<!-- Chadstone&#45;&gt;Waverley -->
<g id="edge1" class="edge"><title>Chadstone&#45;&gt;Waverley</title>
<path fill="none" stroke="grey" d="M60,-94.6966C60,-86.9827 60,-77.7125 60,-69.1124"/>
<polygon fill="grey" stroke="grey" points="63.5001,-69.1043 60,-59.1043 56.5001,-69.1044 63.5001,-69.1043"/>
</g>
<!-- Glen Waverley -->
<g id="node3" class="node"><title>Glen Waverley</title>
<polygon fill="none" stroke="#0000cd" points="159,-118.562 132,-131 105,-118.562 115.313,-98.4377 148.687,-98.4377 159,-118.562"/>
</g>
<!-- Mount Waverley -->
<g id="node4" class="node"><title>Mount Waverley</title>
<polygon fill="none" stroke="darkslategrey" points="159,-59 105,-59 105,-23 159,-23 159,-59"/>
</g>
<!-- Glen Waverley&#45;&gt;Mount Waverley -->
<g id="edge2" class="edge"><title>Glen Waverley&#45;&gt;Mount Waverley</title>
<path fill="none" stroke="grey" d="M132,-98.1703C132,-89.9188 132,-79.1528 132,-69.2563"/>
<polygon fill="grey" stroke="grey" points="135.5,-69.019 132,-59.019 128.5,-69.0191 135.5,-69.019"/>
</g>
</g>
</svg>
