<?xml version="1.0" encoding="UTF-8" standalone="no"?>
<!DOCTYPE svg PUBLIC "-//W3C//DTD SVG 1.1//EN"
 "http://www.w3.org/Graphics/SVG/1.1/DTD/svg11.dtd">
<!-- Generated by graphviz version 2.30.1 (20130611.0131)
 -->
<!-- Title: Perl Pages: 1 -->
<svg width="306pt" height="139pt"
 viewBox="0.00 0.00 306.00 139.00" xmlns="http://www.w3.org/2000/svg" xmlns:xlink="http://www.w3.org/1999/xlink">
<g id="graph0" class="graph" transform="scale(1 1) rotate(0) translate(4 135)">
<title>Perl</title>
<polygon fill="white" stroke="white" points="-4,5 -4,-135 303,-135 303,5 -4,5"/>
<text text-anchor="middle" x="149" y="-7.8" font-family="Times,serif" font-size="14.00">Named and unnamed subgraphs</text>
<!-- Chadstone -->
<g id="node1" class="node"><title>Chadstone</title>
<polygon fill="none" stroke="magenta" points="119.304,-113 91.6521,-131 36.3479,-131 8.6959,-113 36.3479,-95 91.6521,-95 119.304,-113"/>
<text text-anchor="middle" x="64" y="-109.3" font-family="Times,serif" font-size="14.00">Chadstone</text>
</g>
<!-- Waverley -->
<g id="node2" class="node"><title>Waverley</title>
<polygon fill="none" stroke="orange" points="64,-59 -0.0123243,-41 64,-23 128.012,-41 64,-59"/>
<text text-anchor="middle" x="64" y="-37.3" font-family="Times,serif" font-size="14.00">Waverley</text>
</g>
<!-- Chadstone&#45;&gt;Waverley -->
<g id="edge1" class="edge"><title>Chadstone&#45;&gt;Waverley</title>
<path fill="none" stroke="grey" d="M64,-94.6966C64,-86.9827 64,-77.7125 64,-69.1124"/>
<polygon fill="grey" stroke="grey" points="67.5001,-69.1043 64,-59.1043 60.5001,-69.1044 67.5001,-69.1043"/>
</g>
<!-- Glen Waverley -->
<g id="node3" class="node"><title>Glen Waverley</title>
<polygon fill="none" stroke="#0000cd" points="298.007,-118.562 218,-131 137.993,-118.562 168.553,-98.4377 267.447,-98.4377 298.007,-118.562"/>
<text text-anchor="middle" x="218" y="-109.3" font-family="Times,serif" font-size="14.00">Glen Waverley</text>
</g>
<!-- Mount Waverley -->
<g id="node4" class="node"><title>Mount Waverley</title>
<polygon fill="none" stroke="darkslategrey" points="273,-59 163,-59 163,-23 273,-23 273,-59"/>
<text text-anchor="middle" x="218" y="-37.3" font-family="Times,serif" font-size="14.00">Mount Waverley</text>
</g>
<!-- Glen Waverley&#45;&gt;Mount Waverley -->
<g id="edge2" class="edge"><title>Glen Waverley&#45;&gt;Mount Waverley</title>
<path fill="none" stroke="grey" d="M218,-98.1703C218,-89.9188 218,-79.1528 218,-69.2563"/>
<polygon fill="grey" stroke="grey" points="221.5,-69.019 218,-59.019 214.5,-69.0191 221.5,-69.019"/>
</g>
</g>
</svg>
