<?xml version="1.0" encoding="UTF-8" standalone="no"?>
<!DOCTYPE svg PUBLIC "-//W3C//DTD SVG 1.1//EN"
 "http://www.w3.org/Graphics/SVG/1.1/DTD/svg11.dtd">
<!-- Generated by graphviz version 2.38.0 (20140413.2041)
 -->
<!-- Title: Perl Pages: 1 -->
<svg width="523pt" height="211pt"
 viewBox="0.00 0.00 523.06 211.00" xmlns="http://www.w3.org/2000/svg" xmlns:xlink="http://www.w3.org/1999/xlink">
<g id="graph0" class="graph" transform="scale(1 1) rotate(0) translate(4 207)">
<title>Perl</title>
<polygon fill="white" stroke="none" points="-4,4 -4,-207 519.06,-207 519.06,4 -4,4"/>
<text text-anchor="middle" x="257.53" y="-7.8" font-family="Times,serif" font-size="14.00">Named and unnamed subgraphs</text>
<!-- Chadstone -->
<g id="node1" class="node"><title>Chadstone</title>
<polygon fill="none" stroke="magenta" points="111.109,-185 83.3223,-203 27.75,-203 -0.0361917,-185 27.75,-167 83.3223,-167 111.109,-185"/>
<text text-anchor="middle" x="55.5362" y="-181.3" font-family="Times,serif" font-size="14.00">Chadstone</text>
</g>
<!-- Waverley -->
<g id="node2" class="node"><title>Waverley</title>
<polygon fill="none" stroke="orange" points="55.5362,-131 28.5362,-113 55.5362,-95 82.5362,-113 55.5362,-131"/>
</g>
<!-- Chadstone&#45;&gt;Waverley -->
<g id="edge1" class="edge"><title>Chadstone&#45;&gt;Waverley</title>
<path fill="none" stroke="grey" d="M55.5362,-166.697C55.5362,-158.983 55.5362,-149.712 55.5362,-141.112"/>
<polygon fill="grey" stroke="grey" points="59.0363,-141.104 55.5362,-131.104 52.0363,-141.104 59.0363,-141.104"/>
</g>
<!-- Mount -->
<g id="node6" class="node"><title>Mount</title>
<polygon fill="none" stroke="#0000cd" points="55.5362,-59 6.60454,-41 55.5362,-23 104.468,-41 55.5362,-59"/>
<text text-anchor="middle" x="55.5362" y="-37.3" font-family="Times,serif" font-size="14.00">Mount</text>
</g>
<!-- Waverley&#45;&gt;Mount -->
<g id="edge2" class="edge"><title>Waverley&#45;&gt;Mount</title>
<path fill="none" stroke="grey" d="M55.5362,-94.6966C55.5362,-86.9827 55.5362,-77.7125 55.5362,-69.1124"/>
<polygon fill="grey" stroke="grey" points="59.0363,-69.1043 55.5362,-59.1043 52.0363,-69.1044 59.0363,-69.1043"/>
</g>
<!-- Glen Waverley -->
<g id="node3" class="node"><title>Glen Waverley</title>
<polygon fill="none" stroke="#0000cd" points="289.711,-190.562 209.536,-203 129.361,-190.562 159.985,-170.438 259.087,-170.438 289.711,-190.562"/>
<text text-anchor="middle" x="209.536" y="-181.3" font-family="Times,serif" font-size="14.00">Glen Waverley</text>
</g>
<!-- Mount Waverley -->
<g id="node4" class="node"><title>Mount Waverley</title>
<polygon fill="none" stroke="darkslategrey" points="417.536,-203 307.536,-203 307.536,-167 417.536,-167 417.536,-203"/>
<text text-anchor="middle" x="362.536" y="-181.3" font-family="Times,serif" font-size="14.00">Mount Waverley</text>
</g>
<!-- Glen -->
<g id="node5" class="node"><title>Glen</title>
<polygon fill="none" stroke="#0000cd" points="475.536,-203 435.989,-185 475.536,-167 515.084,-185 475.536,-203"/>
<text text-anchor="middle" x="475.536" y="-181.3" font-family="Times,serif" font-size="14.00">Glen</text>
</g>
</g>
</svg>
