<?xml version="1.0" encoding="UTF-8" standalone="no"?>
<!DOCTYPE svg PUBLIC "-//W3C//DTD SVG 1.1//EN"
 "http://www.w3.org/Graphics/SVG/1.1/DTD/svg11.dtd">
<!-- Generated by graphviz version 2.26.3 (20100126.1600)
 -->
<!-- Title: Perl Pages: 1 -->
<svg width="345pt" height="292pt"
 viewBox="0.00 0.00 345.00 292.00" xmlns="http://www.w3.org/2000/svg" xmlns:xlink="http://www.w3.org/1999/xlink">
<g id="graph1" class="graph" transform="scale(1 1) rotate(0) translate(4 288)">
<title>Perl</title>
<polygon fill="white" stroke="white" points="-4,5 -4,-288 342,-288 342,5 -4,5"/>
<!-- Zero -->
<g id="node1" class="node"><title>Zero</title>
<ellipse fill="none" stroke="black" cx="162" cy="-265" rx="85.7684" ry="19.0919"/>
<text text-anchor="middle" x="162" y="-261.9" font-family="Times Roman,serif" font-size="14.00">The Orient Express</text>
</g>
<!-- One -->
<g id="node2" class="node"><title>One</title>
<ellipse fill="none" stroke="black" cx="75" cy="-189" rx="75.1594" ry="19.0919"/>
<text text-anchor="middle" x="75" y="-185.9" font-family="Times Roman,serif" font-size="14.00">Reichwaldstraße</text>
</g>
<!-- Zero&#45;&gt;One -->
<g id="edge2" class="edge"><title>Zero&#45;&gt;One</title>
<path fill="none" stroke="grey" d="M140.494,-246.213C129.35,-236.478 115.591,-224.459 103.565,-213.954"/>
<polygon fill="grey" stroke="grey" points="105.792,-211.251 95.958,-207.308 101.187,-216.523 105.792,-211.251"/>
</g>
<!-- Three -->
<g id="node4" class="node"><title>Three</title>
<ellipse fill="none" stroke="black" cx="250" cy="-189" rx="82.0244" ry="18.3848"/>
<text text-anchor="middle" x="250" y="-185.4" font-family="Times Roman,serif" font-size="14.00">ʎ ʏ ʐ ʑ ʒ ʓ ʙ ʚ</text>
</g>
<!-- Zero&#45;&gt;Three -->
<g id="edge4" class="edge"><title>Zero&#45;&gt;Three</title>
<path fill="none" stroke="grey" d="M183.753,-246.213C195.109,-236.406 209.149,-224.281 221.376,-213.72"/>
<polygon fill="grey" stroke="grey" points="223.823,-216.232 229.103,-207.047 219.247,-210.934 223.823,-216.232"/>
</g>
<!-- Two -->
<g id="node3" class="node"><title>Two</title>
<ellipse fill="none" stroke="black" cx="89" cy="-113" rx="39.0967" ry="19.0919"/>
<text text-anchor="middle" x="89" y="-109.9" font-family="Times Roman,serif" font-size="14.00">Böhme</text>
</g>
<!-- One&#45;&gt;Two -->
<g id="edge6" class="edge"><title>One&#45;&gt;Two</title>
<path fill="none" stroke="grey" d="M78.5328,-169.822C80.0748,-161.451 81.9171,-151.45 83.6232,-142.188"/>
<polygon fill="grey" stroke="grey" points="87.0987,-142.641 85.4683,-132.172 80.2145,-141.372 87.0987,-142.641"/>
</g>
<!-- Five -->
<g id="node6" class="node"><title>Five</title>
<ellipse fill="none" stroke="black" cx="172" cy="-19" rx="111.016" ry="19.0919"/>
<text text-anchor="middle" x="172" y="-15.9" font-family="Times Roman,serif" font-size="14.00">ΔΔΔΔΔΔΔΔΔΔΔΔΔΔΔΔΔ</text>
</g>
<!-- Two&#45;&gt;Five -->
<g id="edge10" class="edge"><title>Two&#45;&gt;Five</title>
<path fill="none" stroke="grey" d="M95.7943,-94.121C100.7,-82.2749 108.186,-67.1818 118,-56 121.938,-51.5132 126.534,-47.3098 131.351,-43.4624"/>
<polygon fill="grey" stroke="grey" points="133.654,-46.1116 139.592,-37.3366 129.478,-40.4939 133.654,-46.1116"/>
<text text-anchor="middle" x="157" y="-62.9" font-family="Times Roman,serif" font-size="14.00">Label has a ☃</text>
</g>
<!-- Four -->
<g id="node5" class="node"><title>Four</title>
<ellipse fill="none" stroke="black" cx="242" cy="-113" rx="94.9596" ry="18.3848"/>
<text text-anchor="middle" x="242" y="-109.4" font-family="Times Roman,serif" font-size="14.00">Πηληϊάδεω Ἀχιλῆος</text>
</g>
<!-- Three&#45;&gt;Four -->
<g id="edge8" class="edge"><title>Three&#45;&gt;Four</title>
<path fill="none" stroke="grey" d="M248.022,-170.213C247.122,-161.654 246.035,-151.33 245.034,-141.822"/>
<polygon fill="grey" stroke="grey" points="248.482,-141.149 243.955,-131.57 241.521,-141.882 248.482,-141.149"/>
</g>
<!-- Four&#45;&gt;Five -->
<g id="edge12" class="edge"><title>Four&#45;&gt;Five</title>
<path fill="none" stroke="grey" d="M228.17,-94.4286C217.883,-80.6143 203.687,-61.5516 192.141,-46.0465"/>
<polygon fill="grey" stroke="grey" points="194.82,-43.7845 186.041,-37.8545 189.206,-47.9654 194.82,-43.7845"/>
<text text-anchor="middle" x="252.5" y="-62.9" font-family="Times Roman,serif" font-size="14.00">Label has a ✔</text>
</g>
</g>
</svg>
