<?xml version="1.0" encoding="UTF-8" standalone="no"?>
<!DOCTYPE svg PUBLIC "-//W3C//DTD SVG 1.1//EN"
 "http://www.w3.org/Graphics/SVG/1.1/DTD/svg11.dtd">
<!-- Generated by graphviz version 2.38.0 (20140413.2041)
 -->
<!-- Title: Perl Pages: 1 -->
<svg width="321pt" height="277pt"
 viewBox="0.00 0.00 321.29 277.00" xmlns="http://www.w3.org/2000/svg" xmlns:xlink="http://www.w3.org/1999/xlink">
<g id="graph0" class="graph" transform="scale(1 1) rotate(0) translate(4 273)">
<title>Perl</title>
<polygon fill="white" stroke="none" points="-4,4 -4,-273 317.286,-273 317.286,4 -4,4"/>
<!-- Zero -->
<g id="node1" class="node"><title>Zero</title>
<ellipse fill="none" stroke="black" cx="150.544" cy="-251" rx="79.0865" ry="18"/>
<text text-anchor="middle" x="150.544" y="-247.3" font-family="Times,serif" font-size="14.00">The Orient Express</text>
</g>
<!-- One -->
<g id="node2" class="node"><title>One</title>
<ellipse fill="none" stroke="black" cx="69.5438" cy="-178" rx="69.5877" ry="18"/>
<text text-anchor="middle" x="69.5438" y="-174.3" font-family="Times,serif" font-size="14.00">Reichwaldstraße</text>
</g>
<!-- Zero&#45;&gt;One -->
<g id="edge1" class="edge"><title>Zero&#45;&gt;One</title>
<path fill="none" stroke="grey" d="M131.348,-233.174C120.781,-223.912 107.509,-212.278 95.9751,-202.168"/>
<polygon fill="grey" stroke="grey" points="98.1496,-199.42 88.3225,-195.46 93.5354,-204.684 98.1496,-199.42"/>
</g>
<!-- Three -->
<g id="node4" class="node"><title>Three</title>
<ellipse fill="none" stroke="black" cx="232.544" cy="-178" rx="75.2868" ry="18"/>
<text text-anchor="middle" x="232.544" y="-174.3" font-family="Times,serif" font-size="14.00">ʎ ʏ ʐ ʑ ʒ ʓ ʙ ʚ</text>
</g>
<!-- Zero&#45;&gt;Three -->
<g id="edge2" class="edge"><title>Zero&#45;&gt;Three</title>
<path fill="none" stroke="grey" d="M169.977,-233.174C180.674,-223.912 194.11,-212.278 205.786,-202.168"/>
<polygon fill="grey" stroke="grey" points="208.264,-204.652 213.533,-195.46 203.682,-199.36 208.264,-204.652"/>
</g>
<!-- Two -->
<g id="node3" class="node"><title>Two</title>
<ellipse fill="none" stroke="black" cx="82.5438" cy="-105" rx="36.2938" ry="18"/>
<text text-anchor="middle" x="82.5438" y="-101.3" font-family="Times,serif" font-size="14.00">Böhme</text>
</g>
<!-- One&#45;&gt;Two -->
<g id="edge3" class="edge"><title>One&#45;&gt;Two</title>
<path fill="none" stroke="grey" d="M72.6908,-159.813C74.1598,-151.789 75.9436,-142.047 77.5875,-133.069"/>
<polygon fill="grey" stroke="grey" points="81.0675,-133.496 79.4259,-123.029 74.182,-132.235 81.0675,-133.496"/>
</g>
<!-- Five -->
<g id="node6" class="node"><title>Five</title>
<ellipse fill="none" stroke="black" cx="158.544" cy="-18" rx="102.082" ry="18"/>
<text text-anchor="middle" x="158.544" y="-14.3" font-family="Times,serif" font-size="14.00">ΔΔΔΔΔΔΔΔΔΔΔΔΔΔΔΔΔ</text>
</g>
<!-- Two&#45;&gt;Five -->
<g id="edge5" class="edge"><title>Two&#45;&gt;Five</title>
<path fill="none" stroke="grey" d="M88.1303,-86.9386C92.1096,-76.6073 98.2307,-63.6143 106.544,-54 110.511,-49.4121 115.215,-45.1629 120.148,-41.3224"/>
<polygon fill="grey" stroke="grey" points="122.503,-43.9397 128.575,-35.2574 118.414,-38.2582 122.503,-43.9397"/>
<text text-anchor="middle" x="145.544" y="-57.8" font-family="Times,serif" font-size="14.00">Label has a ☃</text>
</g>
<!-- Four -->
<g id="node5" class="node"><title>Four</title>
<ellipse fill="none" stroke="black" cx="225.544" cy="-105" rx="87.9851" ry="18"/>
<text text-anchor="middle" x="225.544" y="-101.3" font-family="Times,serif" font-size="14.00">Πηληϊάδεω Ἀχιλῆος</text>
</g>
<!-- Three&#45;&gt;Four -->
<g id="edge4" class="edge"><title>Three&#45;&gt;Four</title>
<path fill="none" stroke="grey" d="M230.849,-159.813C230.058,-151.789 229.098,-142.047 228.213,-133.069"/>
<polygon fill="grey" stroke="grey" points="231.687,-132.637 227.223,-123.029 224.721,-133.324 231.687,-132.637"/>
</g>
<!-- Four&#45;&gt;Five -->
<g id="edge6" class="edge"><title>Four&#45;&gt;Five</title>
<path fill="none" stroke="grey" d="M211.985,-86.799C202.296,-74.5062 189.107,-57.7736 178.255,-44.0073"/>
<polygon fill="grey" stroke="grey" points="180.793,-41.5723 171.853,-35.8854 175.295,-45.9056 180.793,-41.5723"/>
<text text-anchor="middle" x="236.044" y="-57.8" font-family="Times,serif" font-size="14.00">Label has a ✔</text>
</g>
</g>
</svg>
