<?xml version="1.0" encoding="UTF-8" standalone="no"?>
<!DOCTYPE svg PUBLIC "-//W3C//DTD SVG 1.1//EN"
 "http://www.w3.org/Graphics/SVG/1.1/DTD/svg11.dtd">
<!-- Generated by graphviz version 2.26.3 (20100126.1600)
 -->
<!-- Title: Perl Pages: 1 -->
<svg width="347pt" height="268pt"
 viewBox="0.00 0.00 347.00 268.00" xmlns="http://www.w3.org/2000/svg" xmlns:xlink="http://www.w3.org/1999/xlink">
<g id="graph1" class="graph" transform="scale(1 1) rotate(0) translate(4 264)">
<title>Perl</title>
<polygon fill="white" stroke="white" points="-4,5 -4,-264 344,-264 344,5 -4,5"/>
<!-- Zero -->
<g id="node1" class="node"><title>Zero</title>
<ellipse fill="none" stroke="black" cx="162" cy="-241" rx="85.7684" ry="19.0919"/>
<text text-anchor="middle" x="162" y="-237.9" font-family="Times Roman,serif" font-size="14.00">The Orient Express</text>
</g>
<!-- One -->
<g id="node2" class="node"><title>One</title>
<ellipse fill="none" stroke="black" cx="75" cy="-167" rx="75.1594" ry="19.0919"/>
<text text-anchor="middle" x="75" y="-163.9" font-family="Times Roman,serif" font-size="14.00">Reichwaldstraße</text>
</g>
<!-- Zero&#45;&gt;One -->
<g id="edge2" class="edge"><title>Zero&#45;&gt;One</title>
<path fill="none" stroke="grey" d="M140.046,-222.327C129.249,-213.143 116.082,-201.943 104.426,-192.029"/>
<polygon fill="grey" stroke="grey" points="106.53,-189.224 96.6454,-185.411 101.995,-194.556 106.53,-189.224"/>
</g>
<!-- Three -->
<g id="node4" class="node"><title>Three</title>
<ellipse fill="none" stroke="black" cx="250" cy="-167" rx="82.0244" ry="18.3848"/>
<text text-anchor="middle" x="250" y="-163.4" font-family="Times Roman,serif" font-size="14.00">ʎ ʏ ʐ ʑ ʒ ʓ ʙ ʚ</text>
</g>
<!-- Zero&#45;&gt;Three -->
<g id="edge4" class="edge"><title>Zero&#45;&gt;Three</title>
<path fill="none" stroke="grey" d="M184.206,-222.327C195.293,-213.003 208.85,-201.603 220.771,-191.579"/>
<polygon fill="grey" stroke="grey" points="223.311,-194.016 228.712,-184.902 218.805,-188.659 223.311,-194.016"/>
</g>
<!-- Two -->
<g id="node3" class="node"><title>Two</title>
<ellipse fill="none" stroke="black" cx="81" cy="-93" rx="39.0967" ry="19.0919"/>
<text text-anchor="middle" x="81" y="-89.9" font-family="Times Roman,serif" font-size="14.00">Böhme</text>
</g>
<!-- One&#45;&gt;Two -->
<g id="edge6" class="edge"><title>One&#45;&gt;Two</title>
<path fill="none" stroke="grey" d="M76.5451,-147.943C77.182,-140.088 77.9343,-130.81 78.6376,-122.136"/>
<polygon fill="grey" stroke="grey" points="82.1404,-122.242 79.4601,-111.992 75.1633,-121.677 82.1404,-122.242"/>
</g>
<!-- Five -->
<g id="node6" class="node"><title>Five</title>
<ellipse fill="none" stroke="black" cx="162" cy="-19" rx="111.016" ry="19.0919"/>
<text text-anchor="middle" x="162" y="-15.9" font-family="Times Roman,serif" font-size="14.00">ΔΔΔΔΔΔΔΔΔΔΔΔΔΔΔΔΔ</text>
</g>
<!-- Two&#45;&gt;Five -->
<g id="edge10" class="edge"><title>Two&#45;&gt;Five</title>
<path fill="none" stroke="grey" d="M99.3802,-76.2083C109.544,-66.9228 122.389,-55.1879 133.796,-44.7666"/>
<polygon fill="grey" stroke="grey" points="136.391,-47.1368 141.413,-37.8079 131.669,-41.9688 136.391,-47.1368"/>
</g>
<!-- Four -->
<g id="node5" class="node"><title>Four</title>
<ellipse fill="none" stroke="black" cx="244" cy="-93" rx="94.9596" ry="18.3848"/>
<text text-anchor="middle" x="244" y="-89.4" font-family="Times Roman,serif" font-size="14.00">Πηληϊάδεω Ἀχιλῆος</text>
</g>
<!-- Three&#45;&gt;Four -->
<g id="edge8" class="edge"><title>Three&#45;&gt;Four</title>
<path fill="none" stroke="grey" d="M248.486,-148.327C247.832,-140.264 247.053,-130.648 246.328,-121.711"/>
<polygon fill="grey" stroke="grey" points="249.81,-121.352 245.514,-111.667 242.833,-121.918 249.81,-121.352"/>
</g>
<!-- Four&#45;&gt;Five -->
<g id="edge12" class="edge"><title>Four&#45;&gt;Five</title>
<path fill="none" stroke="grey" d="M223.73,-74.7079C213.731,-65.6845 201.5,-54.6466 190.571,-44.7832"/>
<polygon fill="grey" stroke="grey" points="192.661,-41.9556 182.893,-37.8543 187.972,-47.1524 192.661,-41.9556"/>
</g>
</g>
</svg>
